  0
SECTION
  2
HEADER
  9
$ACADVER
  1
AC1009
  9
$ACADMAINTVER
 70
   0
  9
$DWGCODEPAGE
  3
ANSI_932
  9
$INSBASE
 10
0.0
 20
0.0
 30
0.0
  9
$EXTMIN
 10
-0.050000
 20
0.000000
 30
0.0
  9
$EXTMAX
 10
20.050000
 20
200.050000
 30
0.0
  9
$LIMMIN
 10
0.0
 20
0.0
  9
$LIMMAX
 10
12.0
 20
9.0
  9
$ORTHOMODE
 70
	0
  9
$REGENMODE
 70
	1
  9
$FILLMODE
 70
	1
  9
$QTEXTMODE
 70
	0
  9
$MIRRTEXT
 70
	1
  9
$DRAGMODE
 70
	2
  9
$LTSCALE
 40
1.0
  9
$OSMODE
 70
	0
  9
$ATTMODE
 70
	1
  9
$TEXTSIZE
 40
0.2
  9
$TRACEWID
 40
0.05
  9
$TEXTSTYLE
  7
STANDARD
  9
$CLAYER
  8
0
  9
$CELTYPE
  6
BYLAYER
  9
$CECOLOR
 62
	256
  9
$CELTSCALE
 40
1.0
  9
$DELOBJ
 70
	1
  9
$DISPSILH
 70
	0
  9
$LUNITS
 70
	2
  9
$LUPREC
 70
	6
  9
$SKETCHINC
 40
0.1
  9
$FILLETRAD
 40
0.5
  9
$AUNITS
 70
	0
  9
$AUPREC
 70
	6
  9
$MENU
  1
acad
  9
$ELEVATION
 40
0.0
  9
$PELEVATION
 40
0.0
  9
$THICKNESS
 40
0.0
  9
$LIMCHECK
 70
	0
  9
$BLIPMODE
 70
	0
  9
$CHAMFERA
 40
0.5
  9
$CHAMFERB
 40
0.5
  9
$CHAMFERC
 40
1.0
  9
$CHAMFERD
 40
0.0
  9
$SKPOLY
 70
	0
  9
$TDCREATE
 40
0.0
  9
$TDUPDATE
 40
0.0
  9
$TDINDWG
 40
0.0
  9
$TDUSRTIMER
 40
0.0
  9
$USRTIMER
 70
	0
  9
$ANGBASE
 50
0.0
  9
$ANGDIR
 70
	0
  9
$PDMODE
 70
	0
  9
$PDSIZE
 40
0.0
  9
$PLINEWID
 40
0.0
  9
$COORDS
 70
	1
  9
$SPLFRAME
 70
	0
  9
$SPLINETYPE
 70
	6
  9
$SPLINESEGS
 70
	8
  9
$ATTDIA
 70
	0
  9
$ATTREQ
 70
	1
  9
$HANDLING
 70
   1
  0
ENDSEC
  0
SECTION
  2
TABLES
  0
TABLE
  2
LAYER
 70
9
  0
LAYER
  2
0
 70
   0
 62
  7
  6
CONTINUOUS
  0
LAYER
  2
L1-Copper
 70
   0
 62
  7
  6
CONTINUOUS
  0
LAYER
  2
Resist-A
 70
   0
 62
  7
  6
CONTINUOUS
  0
LAYER
  2
L2-Copper
 70
   0
 62
  7
  6
CONTINUOUS
  0
LAYER
  2
Resist-B
 70
   0
 62
  7
  6
CONTINUOUS
  0
LAYER
  2
L3-Copper
 70
   0
 62
  7
  6
CONTINUOUS
  0
LAYER
  2
L4-Copper
 70
   0
 62
  7
  6
CONTINUOUS
  0
LAYER
  2
PCBoutline
 70
   0
 62
  7
  6
CONTINUOUS
  0
LAYER
  2
PartsFrame-A
 70
   0
 62
  7
  6
CONTINUOUS
  0
LAYER
  2
PartsFrame-B
 70
   0
 62
  7
  6
CONTINUOUS
  0
ENDTAB
  0
TABLE
  2
LTYPE
 70
1
  0
ENDTAB
  0
TABLE
  2
STYLE
 70
1
  0
STYLE
  2
STANDARD
 70
0
 40
0.0
 41
1.0
 50
0.0
 71
0
 42
1.0
  3
txt
  4
EXTFONT
  0
ENDTAB
  0
ENDSEC
  0
SECTION
  2
BLOCKS
  0
ENDSEC
  0
SECTION
  2
ENTITIES
  0
ARC
  8
L1-Copper
 10
19.490000
 20
180.870000
 30
0.0
 40
0.125000
 50
180.000000
 51
0.000000
  0
LINE
  8
L1-Copper
 10
19.365000
 20
180.870000
 30
0.0
 11
19.365000
 21
181.095000
 31
0.0
  0
ARC
  8
L1-Copper
 10
19.490000
 20
181.095000
 30
0.0
 40
0.125000
 50
0.000000
 51
180.000000
  0
LINE
  8
L1-Copper
 10
19.615000
 20
181.095000
 30
0.0
 11
19.615000
 21
180.870000
 31
0.0
  0
ARC
  8
L1-Copper
 10
19.490000
 20
181.095000
 30
0.0
 40
0.075000
 50
135.000000
 51
-45.000000
  0
LINE
  8
L1-Copper
 10
19.436970
 20
181.148030
 30
0.0
 11
19.475000
 21
181.186070
 31
0.0
  0
LINE
  8
L1-Copper
 10
19.475000
 20
181.186070
 30
0.0
 11
19.475000
 21
182.000000
 31
0.0
  0
ARC
  8
L1-Copper
 10
19.550000
 20
182.000000
 30
0.0
 40
0.075000
 50
135.000000
 51
180.000000
  0
LINE
  8
L1-Copper
 10
19.496970
 20
182.053030
 30
0.0
 11
19.946970
 21
182.503030
 31
0.0
  0
ARC
  8
L1-Copper
 10
20.000000
 20
182.450000
 30
0.0
 40
0.075000
 50
-45.000000
 51
135.000000
  0
LINE
  8
L1-Copper
 10
20.053030
 20
182.396970
 30
0.0
 11
19.625000
 21
181.968930
 31
0.0
  0
LINE
  8
L1-Copper
 10
19.625000
 20
181.968930
 30
0.0
 11
19.625000
 21
181.155000
 31
0.0
  0
ARC
  8
L1-Copper
 10
19.550000
 20
181.155000
 30
0.0
 40
0.075000
 50
-45.000000
 51
0.000000
  0
LINE
  8
L1-Copper
 10
19.603030
 20
181.101970
 30
0.0
 11
19.543030
 21
181.041970
 31
0.0
  0
ARC
  8
L1-Copper
 10
19.990000
 20
180.870000
 30
0.0
 40
0.125000
 50
180.000000
 51
0.000000
  0
LINE
  8
L1-Copper
 10
19.865000
 20
180.870000
 30
0.0
 11
19.865000
 21
181.095000
 31
0.0
  0
ARC
  8
L1-Copper
 10
19.990000
 20
181.095000
 30
0.0
 40
0.125000
 50
0.000000
 51
180.000000
  0
LINE
  8
L1-Copper
 10
20.115000
 20
181.095000
 30
0.0
 11
20.115000
 21
180.870000
 31
0.0
  0
ARC
  8
L1-Copper
 10
19.990000
 20
181.095000
 30
0.0
 40
0.075000
 50
180.000000
 51
0.000000
  0
LINE
  8
L1-Copper
 10
19.915000
 20
181.095000
 30
0.0
 11
19.915000
 21
181.740000
 31
0.0
  0
ARC
  8
L1-Copper
 10
19.990000
 20
181.740000
 30
0.0
 40
0.075000
 50
0.000000
 51
180.000000
  0
LINE
  8
L1-Copper
 10
20.065000
 20
181.740000
 30
0.0
 11
20.065000
 21
181.095000
 31
0.0
  0
ARC
  8
L1-Copper
 10
19.990000
 20
181.740000
 30
0.0
 40
0.075000
 50
135.000000
 51
-45.000000
  0
LINE
  8
L1-Copper
 10
19.936970
 20
181.793030
 30
0.0
 11
19.946970
 21
181.803030
 31
0.0
  0
ARC
  8
L1-Copper
 10
20.000000
 20
181.750000
 30
0.0
 40
0.075000
 50
-45.000000
 51
135.000000
  0
LINE
  8
L1-Copper
 10
20.053030
 20
181.696970
 30
0.0
 11
20.043030
 21
181.686970
 31
0.0
  0
ARC
  8
L1-Copper
 10
17.990000
 20
180.870000
 30
0.0
 40
0.075000
 50
180.000000
 51
0.000000
  0
LINE
  8
L1-Copper
 10
17.915000
 20
180.870000
 30
0.0
 11
17.915000
 21
181.043930
 31
0.0
  0
LINE
  8
L1-Copper
 10
17.915000
 20
181.043930
 30
0.0
 11
17.691970
 21
181.266970
 31
0.0
  0
ARC
  8
L1-Copper
 10
17.745000
 20
181.320000
 30
0.0
 40
0.075000
 50
45.000000
 51
-135.000000
  0
LINE
  8
L1-Copper
 10
17.798030
 20
181.373030
 30
0.0
 11
18.043030
 21
181.128030
 31
0.0
  0
ARC
  8
L1-Copper
 10
17.990000
 20
181.075000
 30
0.0
 40
0.075000
 50
0.000000
 51
45.000000
  0
LINE
  8
L1-Copper
 10
18.065000
 20
181.075000
 30
0.0
 11
18.065000
 21
180.870000
 31
0.0
  0
ARC
  8
L1-Copper
 10
18.990000
 20
180.870000
 30
0.0
 40
0.075000
 50
180.000000
 51
0.000000
  0
LINE
  8
L1-Copper
 10
18.915000
 20
180.870000
 30
0.0
 11
18.915000
 21
181.090000
 31
0.0
  0
ARC
  8
L1-Copper
 10
18.990000
 20
181.090000
 30
0.0
 40
0.075000
 50
135.000000
 51
180.000000
  0
LINE
  8
L1-Copper
 10
18.936970
 20
181.143030
 30
0.0
 11
19.145000
 21
181.351070
 31
0.0
  0
LINE
  8
L1-Copper
 10
19.145000
 20
181.351070
 30
0.0
 11
19.145000
 21
181.380000
 31
0.0
  0
ARC
  8
L1-Copper
 10
19.220000
 20
181.380000
 30
0.0
 40
0.075000
 50
0.000000
 51
180.000000
  0
LINE
  8
L1-Copper
 10
19.295000
 20
181.380000
 30
0.0
 11
19.295000
 21
181.320000
 31
0.0
  0
ARC
  8
L1-Copper
 10
19.220000
 20
181.320000
 30
0.0
 40
0.075000
 50
-45.000000
 51
0.000000
  0
LINE
  8
L1-Copper
 10
19.273030
 20
181.266970
 30
0.0
 11
19.065000
 21
181.058930
 31
0.0
  0
LINE
  8
L1-Copper
 10
19.065000
 20
181.058930
 30
0.0
 11
19.065000
 21
180.870000
 31
0.0
  0
ARC
  8
L1-Copper
 10
10.000000
 20
187.695000
 30
0.0
 40
0.175000
 50
90.000000
 51
-90.000000
  0
LINE
  8
L1-Copper
 10
10.000000
 20
187.870000
 30
0.0
 11
10.590000
 21
187.870000
 31
0.0
  0
ARC
  8
L1-Copper
 10
10.590000
 20
187.695000
 30
0.0
 40
0.175000
 50
-90.000000
 51
90.000000
  0
LINE
  8
L1-Copper
 10
10.590000
 20
187.520000
 30
0.0
 11
10.000000
 21
187.520000
 31
0.0
  0
ARC
  8
L1-Copper
 10
10.590000
 20
187.695000
 30
0.0
 40
0.175000
 50
90.000000
 51
-90.000000
  0
LINE
  8
L1-Copper
 10
10.590000
 20
187.870000
 30
0.0
 11
11.390000
 21
187.870000
 31
0.0
  0
ARC
  8
L1-Copper
 10
11.390000
 20
187.695000
 30
0.0
 40
0.175000
 50
-90.000000
 51
90.000000
  0
LINE
  8
L1-Copper
 10
11.390000
 20
187.520000
 30
0.0
 11
10.590000
 21
187.520000
 31
0.0
  0
ARC
  8
L1-Copper
 10
12.245000
 20
185.780000
 30
0.0
 40
0.175000
 50
180.000000
 51
0.000000
  0
LINE
  8
L1-Copper
 10
12.070000
 20
185.780000
 30
0.0
 11
12.070000
 21
186.995000
 31
0.0
  0
ARC
  8
L1-Copper
 10
12.245000
 20
186.995000
 30
0.0
 40
0.175000
 50
0.000000
 51
180.000000
  0
LINE
  8
L1-Copper
 10
12.420000
 20
186.995000
 30
0.0
 11
12.420000
 21
185.780000
 31
0.0
  0
ARC
  8
L1-Copper
 10
12.245000
 20
182.730000
 30
0.0
 40
0.175000
 50
0.000000
 51
180.000000
  0
LINE
  8
L1-Copper
 10
12.420000
 20
182.730000
 30
0.0
 11
12.420000
 21
181.835000
 31
0.0
  0
ARC
  8
L1-Copper
 10
12.245000
 20
181.835000
 30
0.0
 40
0.175000
 50
180.000000
 51
0.000000
  0
LINE
  8
L1-Copper
 10
12.070000
 20
181.835000
 30
0.0
 11
12.070000
 21
182.730000
 31
0.0
  0
ARC
  8
L1-Copper
 10
12.240000
 20
187.695000
 30
0.0
 40
0.175000
 50
90.000000
 51
-90.000000
  0
LINE
  8
L1-Copper
 10
12.240000
 20
187.870000
 30
0.0
 11
13.255000
 21
187.870000
 31
0.0
  0
ARC
  8
L1-Copper
 10
13.255000
 20
187.695000
 30
0.0
 40
0.175000
 50
-90.000000
 51
90.000000
  0
LINE
  8
L1-Copper
 10
13.255000
 20
187.520000
 30
0.0
 11
12.240000
 21
187.520000
 31
0.0
  0
ARC
  8
L1-Copper
 10
3.920000
 20
187.695000
 30
0.0
 40
0.175000
 50
90.000000
 51
-90.000000
  0
LINE
  8
L1-Copper
 10
3.920000
 20
187.870000
 30
0.0
 11
4.500000
 21
187.870000
 31
0.0
  0
ARC
  8
L1-Copper
 10
4.500000
 20
187.695000
 30
0.0
 40
0.175000
 50
-90.000000
 51
90.000000
  0
LINE
  8
L1-Copper
 10
4.500000
 20
187.520000
 30
0.0
 11
3.920000
 21
187.520000
 31
0.0
  0
ARC
  8
L1-Copper
 10
4.500000
 20
187.695000
 30
0.0
 40
0.175000
 50
90.000000
 51
-90.000000
  0
LINE
  8
L1-Copper
 10
4.500000
 20
187.870000
 30
0.0
 11
5.465000
 21
187.870000
 31
0.0
  0
ARC
  8
L1-Copper
 10
5.465000
 20
187.695000
 30
0.0
 40
0.175000
 50
-90.000000
 51
90.000000
  0
LINE
  8
L1-Copper
 10
5.465000
 20
187.520000
 30
0.0
 11
4.500000
 21
187.520000
 31
0.0
  0
ARC
  8
L1-Copper
 10
5.465000
 20
187.695000
 30
0.0
 40
0.175000
 50
90.000000
 51
-90.000000
  0
LINE
  8
L1-Copper
 10
5.465000
 20
187.870000
 30
0.0
 11
6.020000
 21
187.870000
 31
0.0
  0
ARC
  8
L1-Copper
 10
6.020000
 20
187.695000
 30
0.0
 40
0.175000
 50
-90.000000
 51
90.000000
  0
LINE
  8
L1-Copper
 10
6.020000
 20
187.520000
 30
0.0
 11
5.465000
 21
187.520000
 31
0.0
  0
ARC
  8
L1-Copper
 10
6.600000
 20
187.695000
 30
0.0
 40
0.175000
 50
90.000000
 51
-90.000000
  0
LINE
  8
L1-Copper
 10
6.600000
 20
187.870000
 30
0.0
 11
7.265000
 21
187.870000
 31
0.0
  0
ARC
  8
L1-Copper
 10
7.265000
 20
187.695000
 30
0.0
 40
0.175000
 50
-90.000000
 51
90.000000
  0
LINE
  8
L1-Copper
 10
7.265000
 20
187.520000
 30
0.0
 11
6.600000
 21
187.520000
 31
0.0
  0
ARC
  8
L1-Copper
 10
7.265000
 20
187.695000
 30
0.0
 40
0.175000
 50
90.000000
 51
-90.000000
  0
LINE
  8
L1-Copper
 10
7.265000
 20
187.870000
 30
0.0
 11
9.400000
 21
187.870000
 31
0.0
  0
ARC
  8
L1-Copper
 10
9.400000
 20
187.695000
 30
0.0
 40
0.175000
 50
-90.000000
 51
90.000000
  0
LINE
  8
L1-Copper
 10
9.400000
 20
187.520000
 30
0.0
 11
7.265000
 21
187.520000
 31
0.0
  0
ARC
  8
L1-Copper
 10
2.840000
 20
187.695000
 30
0.0
 40
0.175000
 50
90.000000
 51
-90.000000
  0
LINE
  8
L1-Copper
 10
2.840000
 20
187.870000
 30
0.0
 11
3.350000
 21
187.870000
 31
0.0
  0
ARC
  8
L1-Copper
 10
3.350000
 20
187.695000
 30
0.0
 40
0.175000
 50
-90.000000
 51
90.000000
  0
LINE
  8
L1-Copper
 10
3.350000
 20
187.520000
 30
0.0
 11
2.840000
 21
187.520000
 31
0.0
  0
ARC
  8
L1-Copper
 10
7.549970
 20
194.049970
 30
0.0
 40
0.049970
 50
180.000000
 51
-90.000000
  0
LINE
  8
L1-Copper
 10
7.500000
 20
194.049970
 30
0.0
 11
7.500000
 21
194.450030
 31
0.0
  0
ARC
  8
L1-Copper
 10
7.549970
 20
194.450030
 30
0.0
 40
0.049970
 50
90.000000
 51
180.000000
  0
LINE
  8
L1-Copper
 10
7.549970
 20
194.500000
 30
0.0
 11
8.000000
 21
194.500000
 31
0.0
  0
LINE
  8
L1-Copper
 10
8.000000
 20
194.500000
 30
0.0
 11
8.000000
 21
199.000000
 31
0.0
  0
LINE
  8
L1-Copper
 10
8.000000
 20
199.000000
 30
0.0
 11
1.500000
 21
199.000000
 31
0.0
  0
LINE
  8
L1-Copper
 10
1.500000
 20
199.000000
 30
0.0
 11
1.500000
 21
195.399970
 31
0.0
  0
ARC
  8
L1-Copper
 10
1.450030
 20
195.399970
 30
0.0
 40
0.049970
 50
-90.000000
 51
0.000000
  0
LINE
  8
L1-Copper
 10
1.450030
 20
195.350000
 30
0.0
 11
1.049970
 21
195.350000
 31
0.0
  0
ARC
  8
L1-Copper
 10
1.049970
 20
195.399970
 30
0.0
 40
0.049970
 50
180.000000
 51
-90.000000
  0
LINE
  8
L1-Copper
 10
1.000000
 20
195.399970
 30
0.0
 11
1.000000
 21
199.450030
 31
0.0
  0
ARC
  8
L1-Copper
 10
1.049970
 20
199.450030
 30
0.0
 40
0.049970
 50
90.000000
 51
180.000000
  0
LINE
  8
L1-Copper
 10
1.049970
 20
199.500000
 30
0.0
 11
8.450030
 21
199.500000
 31
0.0
  0
ARC
  8
L1-Copper
 10
8.450030
 20
199.450030
 30
0.0
 40
0.049970
 50
0.000000
 51
90.000000
  0
LINE
  8
L1-Copper
 10
8.500000
 20
199.450030
 30
0.0
 11
8.500000
 21
194.049970
 31
0.0
  0
ARC
  8
L1-Copper
 10
8.450030
 20
194.049970
 30
0.0
 40
0.049970
 50
-90.000000
 51
0.000000
  0
LINE
  8
L1-Copper
 10
8.450030
 20
194.000000
 30
0.0
 11
7.549970
 21
194.000000
 31
0.0
  0
ARC
  8
L1-Copper
 10
1.049970
 20
190.049970
 30
0.0
 40
0.049970
 50
180.000000
 51
-90.000000
  0
LINE
  8
L1-Copper
 10
1.000000
 20
190.049970
 30
0.0
 11
1.000000
 21
195.100030
 31
0.0
  0
ARC
  8
L1-Copper
 10
1.049970
 20
195.100030
 30
0.0
 40
0.049970
 50
90.000000
 51
180.000000
  0
LINE
  8
L1-Copper
 10
1.049970
 20
195.150000
 30
0.0
 11
1.450030
 21
195.150000
 31
0.0
  0
ARC
  8
L1-Copper
 10
1.450030
 20
195.100030
 30
0.0
 40
0.049970
 50
0.000000
 51
90.000000
  0
LINE
  8
L1-Copper
 10
1.500000
 20
195.100030
 30
0.0
 11
1.500000
 21
194.500000
 31
0.0
  0
LINE
  8
L1-Copper
 10
1.500000
 20
194.500000
 30
0.0
 11
2.100030
 21
194.500000
 31
0.0
  0
ARC
  8
L1-Copper
 10
2.100030
 20
194.450030
 30
0.0
 40
0.049970
 50
0.000000
 51
90.000000
  0
LINE
  8
L1-Copper
 10
2.150000
 20
194.450030
 30
0.0
 11
2.150000
 21
194.049970
 31
0.0
  0
ARC
  8
L1-Copper
 10
2.100030
 20
194.049970
 30
0.0
 40
0.049970
 50
-90.000000
 51
0.000000
  0
LINE
  8
L1-Copper
 10
2.100030
 20
194.000000
 30
0.0
 11
1.500000
 21
194.000000
 31
0.0
  0
LINE
  8
L1-Copper
 10
1.500000
 20
194.000000
 30
0.0
 11
1.500000
 21
190.049970
 31
0.0
  0
ARC
  8
L1-Copper
 10
1.450030
 20
190.049970
 30
0.0
 40
0.049970
 50
-90.000000
 51
0.000000
  0
LINE
  8
L1-Copper
 10
1.450030
 20
190.000000
 30
0.0
 11
1.049970
 21
190.000000
 31
0.0
  0
ARC
  8
L1-Copper
 10
2.399970
 20
194.049970
 30
0.0
 40
0.049970
 50
180.000000
 51
-90.000000
  0
LINE
  8
L1-Copper
 10
2.350000
 20
194.049970
 30
0.0
 11
2.350000
 21
194.450030
 31
0.0
  0
ARC
  8
L1-Copper
 10
2.399970
 20
194.450030
 30
0.0
 40
0.049970
 50
90.000000
 51
180.000000
  0
LINE
  8
L1-Copper
 10
2.399970
 20
194.500000
 30
0.0
 11
6.950030
 21
194.500000
 31
0.0
  0
ARC
  8
L1-Copper
 10
6.950030
 20
194.450030
 30
0.0
 40
0.049970
 50
0.000000
 51
90.000000
  0
LINE
  8
L1-Copper
 10
7.000000
 20
194.450030
 30
0.0
 11
7.000000
 21
194.049970
 31
0.0
  0
ARC
  8
L1-Copper
 10
6.950030
 20
194.049970
 30
0.0
 40
0.049970
 50
-90.000000
 51
0.000000
  0
LINE
  8
L1-Copper
 10
6.950030
 20
194.000000
 30
0.0
 11
2.399970
 21
194.000000
 31
0.0
  0
ARC
  8
L1-Copper
 10
13.255000
 20
187.695000
 30
0.0
 40
0.175000
 50
90.000000
 51
-90.000000
  0
LINE
  8
L1-Copper
 10
13.255000
 20
187.870000
 30
0.0
 11
14.565790
 21
187.870000
 31
0.0
  0
ARC
  8
L1-Copper
 10
14.565790
 20
186.695000
 30
0.0
 40
1.175000
 50
45.000690
 51
90.000000
  0
LINE
  8
L1-Copper
 10
15.396630
 20
187.525860
 30
0.0
 11
18.320850
 21
184.601630
 31
0.0
  0
ARC
  8
L1-Copper
 10
17.490000
 20
183.770780
 30
0.0
 40
1.175000
 50
0.000488
 51
45.000000
  0
LINE
  8
L1-Copper
 10
18.665000
 20
183.770790
 30
0.0
 11
18.665000
 21
181.845000
 31
0.0
  0
ARC
  8
L1-Copper
 10
18.490000
 20
181.845000
 30
0.0
 40
0.175000
 50
180.000000
 51
0.000000
  0
LINE
  8
L1-Copper
 10
18.315000
 20
181.845000
 30
0.0
 11
18.315000
 21
183.770790
 31
0.0
  0
ARC
  8
L1-Copper
 10
17.490000
 20
183.770780
 30
0.0
 40
0.825000
 50
0.000694
 51
45.000000
  0
LINE
  8
L1-Copper
 10
18.073360
 20
184.354140
 30
0.0
 11
15.149150
 21
187.278370
 31
0.0
  0
ARC
  8
L1-Copper
 10
14.565790
 20
186.695000
 30
0.0
 40
0.825000
 50
45.000491
 51
90.000000
  0
LINE
  8
L1-Copper
 10
14.565790
 20
187.520000
 30
0.0
 11
13.255000
 21
187.520000
 31
0.0
  0
LINE
  8
L1-Copper
 10
18.615000
 20
181.486010
 30
0.0
 11
18.615000
 21
180.870000
 31
0.0
  0
ARC
  8
L1-Copper
 10
18.490000
 20
180.870000
 30
0.0
 40
0.125000
 50
180.000000
 51
0.000000
  0
LINE
  8
L1-Copper
 10
18.365000
 20
180.870000
 30
0.0
 11
18.365000
 21
181.486010
 31
0.0
  0
LINE
  8
L1-Copper
 10
18.365000
 20
181.486010
 30
0.0
 11
18.316790
 21
181.820000
 31
0.0
  0
ARC
  8
L1-Copper
 10
18.440510
 20
181.837860
 30
0.0
 40
0.125000
 50
66.677429
 51
-171.786393
  0
ARC
  8
L1-Copper
 10
18.539490
 20
181.837860
 30
0.0
 40
0.125000
 50
-8.214370
 51
113.322571
  0
LINE
  8
L1-Copper
 10
18.663210
 20
181.820000
 30
0.0
 11
18.615000
 21
181.486010
 31
0.0
  0
ARC
  8
L1-Copper
 10
18.065960
 20
180.000000
 30
0.0
 40
0.049970
 50
151.634788
 51
-90.000000
  0
ARC
  8
L1-Copper
 10
17.890000
 20
180.095000
 30
0.0
 40
0.150000
 50
-28.364139
 51
0.000000
  0
LINE
  8
L1-Copper
 10
18.040000
 20
180.095000
 30
0.0
 11
18.040000
 21
180.165700
 31
0.0
  0
ARC
  8
L1-Copper
 10
18.089970
 20
180.165700
 30
0.0
 40
0.049970
 50
57.197256
 51
180.000000
  0
ARC
  8
L1-Copper
 10
18.415000
 20
180.670000
 30
0.0
 40
0.550000
 50
-122.802450
 51
-90.000000
  0
LINE
  8
L1-Copper
 10
18.415000
 20
180.120000
 30
0.0
 11
18.565000
 21
180.120000
 31
0.0
  0
ARC
  8
L1-Copper
 10
18.565000
 20
180.670000
 30
0.0
 40
0.550000
 50
-90.000000
 51
-24.622420
  0
ARC
  8
L1-Copper
 10
19.110420
 20
180.420030
 30
0.0
 40
0.049970
 50
90.000000
 51
155.378607
  0
LINE
  8
L1-Copper
 10
19.110420
 20
180.470000
 30
0.0
 11
19.115000
 21
180.470000
 31
0.0
  0
ARC
  8
L1-Copper
 10
19.115000
 20
180.620000
 30
0.0
 40
0.150000
 50
-90.000000
 51
-51.316926
  0
ARC
  8
L1-Copper
 10
19.240000
 20
180.463870
 30
0.0
 40
0.050010
 50
51.324087
 51
128.675913
  0
ARC
  8
L1-Copper
 10
19.365000
 20
180.620000
 30
0.0
 40
0.150000
 50
-128.683074
 51
-90.000000
  0
LINE
  8
L1-Copper
 10
19.365000
 20
180.470000
 30
0.0
 11
19.615000
 21
180.470000
 31
0.0
  0
ARC
  8
L1-Copper
 10
19.615000
 20
180.620000
 30
0.0
 40
0.150000
 50
-90.000000
 51
-51.316926
  0
ARC
  8
L1-Copper
 10
19.740000
 20
180.463870
 30
0.0
 40
0.050010
 50
51.324087
 51
128.675913
  0
ARC
  8
L1-Copper
 10
19.865000
 20
180.620000
 30
0.0
 40
0.150000
 50
-128.683074
 51
-90.000000
  0
LINE
  8
L1-Copper
 10
19.865000
 20
180.470000
 30
0.0
 11
20.000000
 21
180.470000
 31
0.0
  0
ARC
  8
L1-Copper
 10
20.000000
 20
180.420030
 30
0.0
 40
0.049970
 50
0.000000
 51
90.000000
  0
LINE
  8
L1-Copper
 10
20.049970
 20
180.420030
 30
0.0
 11
20.049970
 21
180.000000
 31
0.0
  0
ARC
  8
L1-Copper
 10
20.000000
 20
180.000000
 30
0.0
 40
0.049970
 50
-90.000000
 51
0.000000
  0
LINE
  8
L1-Copper
 10
20.000000
 20
179.950030
 30
0.0
 11
18.065960
 21
179.950030
 31
0.0
  0
ARC
  8
L1-Copper
 10
18.990000
 20
180.870000
 30
0.0
 40
0.075000
 50
0.000000
 51
180.000000
  0
LINE
  8
L1-Copper
 10
19.065000
 20
180.870000
 30
0.0
 11
19.065000
 21
180.125000
 31
0.0
  0
ARC
  8
L1-Copper
 10
18.990000
 20
180.125000
 30
0.0
 40
0.075000
 50
180.000000
 51
0.000000
  0
LINE
  8
L1-Copper
 10
18.915000
 20
180.125000
 30
0.0
 11
18.915000
 21
180.870000
 31
0.0
  0
ARC
  8
L1-Copper
 10
17.990000
 20
180.870000
 30
0.0
 40
0.075000
 50
0.000000
 51
180.000000
  0
LINE
  8
L1-Copper
 10
18.065000
 20
180.870000
 30
0.0
 11
18.065000
 21
180.656070
 31
0.0
  0
LINE
  8
L1-Copper
 10
18.065000
 20
180.656070
 30
0.0
 11
18.173030
 21
180.548030
 31
0.0
  0
ARC
  8
L1-Copper
 10
18.120000
 20
180.495000
 30
0.0
 40
0.075000
 50
0.000000
 51
45.000000
  0
LINE
  8
L1-Copper
 10
18.195000
 20
180.495000
 30
0.0
 11
18.195000
 21
180.000000
 31
0.0
  0
ARC
  8
L1-Copper
 10
18.120000
 20
180.000000
 30
0.0
 40
0.075000
 50
180.000000
 51
0.000000
  0
LINE
  8
L1-Copper
 10
18.045000
 20
180.000000
 30
0.0
 11
18.045000
 21
180.463930
 31
0.0
  0
LINE
  8
L1-Copper
 10
18.045000
 20
180.463930
 30
0.0
 11
17.936970
 21
180.571970
 31
0.0
  0
ARC
  8
L1-Copper
 10
17.990000
 20
180.625000
 30
0.0
 40
0.075000
 50
180.000000
 51
-135.000000
  0
LINE
  8
L1-Copper
 10
17.915000
 20
180.625000
 30
0.0
 11
17.915000
 21
180.870000
 31
0.0
  0
ARC
  8
L1-Copper
 10
10.745000
 20
183.255000
 30
0.0
 40
0.075000
 50
180.000000
 51
0.000000
  0
LINE
  8
L1-Copper
 10
10.670000
 20
183.255000
 30
0.0
 11
10.670000
 21
183.980040
 31
0.0
  0
ARC
  8
L1-Copper
 10
10.745000
 20
183.980040
 30
0.0
 40
0.075000
 50
0.000000
 51
180.000000
  0
LINE
  8
L1-Copper
 10
10.820000
 20
183.980040
 30
0.0
 11
10.820000
 21
183.255000
 31
0.0
  0
ARC
  8
L1-Copper
 10
13.745000
 20
183.255000
 30
0.0
 40
0.075000
 50
180.000000
 51
0.000000
  0
LINE
  8
L1-Copper
 10
13.670000
 20
183.255000
 30
0.0
 11
13.670000
 21
183.980040
 31
0.0
  0
ARC
  8
L1-Copper
 10
13.745000
 20
183.980040
 30
0.0
 40
0.075000
 50
0.000000
 51
180.000000
  0
LINE
  8
L1-Copper
 10
13.820000
 20
183.980040
 30
0.0
 11
13.820000
 21
183.255000
 31
0.0
  0
ARC
  8
L1-Copper
 10
10.745000
 20
185.255000
 30
0.0
 40
0.075000
 50
0.000000
 51
180.000000
  0
LINE
  8
L1-Copper
 10
10.820000
 20
185.255000
 30
0.0
 11
10.820000
 21
184.529960
 31
0.0
  0
ARC
  8
L1-Copper
 10
10.745000
 20
184.529960
 30
0.0
 40
0.075000
 50
180.000000
 51
0.000000
  0
LINE
  8
L1-Copper
 10
10.670000
 20
184.529960
 30
0.0
 11
10.670000
 21
185.255000
 31
0.0
  0
ARC
  8
L1-Copper
 10
13.745000
 20
185.255000
 30
0.0
 40
0.075000
 50
0.000000
 51
180.000000
  0
LINE
  8
L1-Copper
 10
13.820000
 20
185.255000
 30
0.0
 11
13.820000
 21
184.529960
 31
0.0
  0
ARC
  8
L1-Copper
 10
13.745000
 20
184.529960
 30
0.0
 40
0.075000
 50
180.000000
 51
0.000000
  0
LINE
  8
L1-Copper
 10
13.670000
 20
184.529960
 30
0.0
 11
13.670000
 21
185.255000
 31
0.0
  0
ARC
  8
L1-Copper
 10
10.294970
 20
183.554970
 30
0.0
 40
0.049970
 50
180.000000
 51
-90.000000
  0
LINE
  8
L1-Copper
 10
10.245000
 20
183.554970
 30
0.0
 11
10.245000
 21
183.755000
 31
0.0
  0
LINE
  8
L1-Copper
 10
10.245000
 20
183.755000
 30
0.0
 11
10.019970
 21
183.755000
 31
0.0
  0
ARC
  8
L1-Copper
 10
10.019970
 20
183.804970
 30
0.0
 40
0.049970
 50
180.000000
 51
-90.000000
  0
LINE
  8
L1-Copper
 10
9.970000
 20
183.804970
 30
0.0
 11
9.970000
 21
184.705030
 31
0.0
  0
ARC
  8
L1-Copper
 10
10.019970
 20
184.705030
 30
0.0
 40
0.049970
 50
90.000000
 51
180.000000
  0
LINE
  8
L1-Copper
 10
10.019970
 20
184.755000
 30
0.0
 11
10.245000
 21
184.755000
 31
0.0
  0
LINE
  8
L1-Copper
 10
10.245000
 20
184.755000
 30
0.0
 11
10.245000
 21
184.945030
 31
0.0
  0
ARC
  8
L1-Copper
 10
10.294970
 20
184.945030
 30
0.0
 40
0.049970
 50
90.000000
 51
180.000000
  0
LINE
  8
L1-Copper
 10
10.294970
 20
184.995000
 30
0.0
 11
11.195030
 21
184.995000
 31
0.0
  0
ARC
  8
L1-Copper
 10
11.195030
 20
184.945030
 30
0.0
 40
0.049970
 50
0.000000
 51
90.000000
  0
LINE
  8
L1-Copper
 10
11.245000
 20
184.945030
 30
0.0
 11
11.245000
 21
184.755000
 31
0.0
  0
LINE
  8
L1-Copper
 10
11.245000
 20
184.755000
 30
0.0
 11
13.245000
 21
184.755000
 31
0.0
  0
LINE
  8
L1-Copper
 10
13.245000
 20
184.755000
 30
0.0
 11
13.245000
 21
184.890030
 31
0.0
  0
ARC
  8
L1-Copper
 10
13.294970
 20
184.890030
 30
0.0
 40
0.049970
 50
90.000000
 51
180.000000
  0
LINE
  8
L1-Copper
 10
13.294970
 20
184.940000
 30
0.0
 11
14.195030
 21
184.940000
 31
0.0
  0
ARC
  8
L1-Copper
 10
14.195030
 20
184.890030
 30
0.0
 40
0.049970
 50
0.000000
 51
90.000000
  0
LINE
  8
L1-Copper
 10
14.245000
 20
184.890030
 30
0.0
 11
14.245000
 21
184.755000
 31
0.0
  0
LINE
  8
L1-Copper
 10
14.245000
 20
184.755000
 30
0.0
 11
14.455030
 21
184.755000
 31
0.0
  0
ARC
  8
L1-Copper
 10
14.455030
 20
184.705030
 30
0.0
 40
0.049970
 50
0.000000
 51
90.000000
  0
LINE
  8
L1-Copper
 10
14.505000
 20
184.705030
 30
0.0
 11
14.505000
 21
183.804970
 31
0.0
  0
ARC
  8
L1-Copper
 10
14.455030
 20
183.804970
 30
0.0
 40
0.049970
 50
-90.000000
 51
0.000000
  0
LINE
  8
L1-Copper
 10
14.455030
 20
183.755000
 30
0.0
 11
14.245000
 21
183.755000
 31
0.0
  0
LINE
  8
L1-Copper
 10
14.245000
 20
183.755000
 30
0.0
 11
14.245000
 21
183.579970
 31
0.0
  0
ARC
  8
L1-Copper
 10
14.195030
 20
183.579970
 30
0.0
 40
0.049970
 50
-90.000000
 51
0.000000
  0
LINE
  8
L1-Copper
 10
14.195030
 20
183.530000
 30
0.0
 11
13.294970
 21
183.530000
 31
0.0
  0
ARC
  8
L1-Copper
 10
13.294970
 20
183.579970
 30
0.0
 40
0.049970
 50
180.000000
 51
-90.000000
  0
LINE
  8
L1-Copper
 10
13.245000
 20
183.579970
 30
0.0
 11
13.245000
 21
183.755000
 31
0.0
  0
LINE
  8
L1-Copper
 10
13.245000
 20
183.755000
 30
0.0
 11
11.245000
 21
183.755000
 31
0.0
  0
LINE
  8
L1-Copper
 10
11.245000
 20
183.755000
 30
0.0
 11
11.245000
 21
183.554970
 31
0.0
  0
ARC
  8
L1-Copper
 10
11.195030
 20
183.554970
 30
0.0
 40
0.049970
 50
-90.000000
 51
0.000000
  0
LINE
  8
L1-Copper
 10
11.195030
 20
183.505000
 30
0.0
 11
10.294970
 21
183.505000
 31
0.0
  0
ARC
  8
L1-Copper
 10
2.840000
 20
188.210000
 30
0.0
 40
0.075000
 50
180.000000
 51
0.000000
  0
LINE
  8
L1-Copper
 10
2.765000
 20
188.210000
 30
0.0
 11
2.765000
 21
188.575040
 31
0.0
  0
ARC
  8
L1-Copper
 10
2.840000
 20
188.575040
 30
0.0
 40
0.075000
 50
0.000000
 51
180.000000
  0
LINE
  8
L1-Copper
 10
2.915000
 20
188.575040
 30
0.0
 11
2.915000
 21
188.210000
 31
0.0
  0
ARC
  8
L1-Copper
 10
4.500000
 20
188.210000
 30
0.0
 40
0.075000
 50
180.000000
 51
0.000000
  0
LINE
  8
L1-Copper
 10
4.425000
 20
188.210000
 30
0.0
 11
4.425000
 21
188.575040
 31
0.0
  0
ARC
  8
L1-Copper
 10
4.500000
 20
188.575040
 30
0.0
 40
0.075000
 50
0.000000
 51
180.000000
  0
LINE
  8
L1-Copper
 10
4.575000
 20
188.575040
 30
0.0
 11
4.575000
 21
188.210000
 31
0.0
  0
ARC
  8
L1-Copper
 10
5.465000
 20
188.210000
 30
0.0
 40
0.075000
 50
180.000000
 51
0.000000
  0
LINE
  8
L1-Copper
 10
5.390000
 20
188.210000
 30
0.0
 11
5.390000
 21
188.575040
 31
0.0
  0
ARC
  8
L1-Copper
 10
5.465000
 20
188.575040
 30
0.0
 40
0.075000
 50
0.000000
 51
180.000000
  0
LINE
  8
L1-Copper
 10
5.540000
 20
188.575040
 30
0.0
 11
5.540000
 21
188.210000
 31
0.0
  0
ARC
  8
L1-Copper
 10
7.265000
 20
188.210000
 30
0.0
 40
0.075000
 50
180.000000
 51
0.000000
  0
LINE
  8
L1-Copper
 10
7.190000
 20
188.210000
 30
0.0
 11
7.190000
 21
188.575040
 31
0.0
  0
ARC
  8
L1-Copper
 10
7.265000
 20
188.575040
 30
0.0
 40
0.075000
 50
0.000000
 51
180.000000
  0
LINE
  8
L1-Copper
 10
7.340000
 20
188.575040
 30
0.0
 11
7.340000
 21
188.210000
 31
0.0
  0
ARC
  8
L1-Copper
 10
10.590000
 20
188.545000
 30
0.0
 40
0.075000
 50
-90.000000
 51
90.000000
  0
LINE
  8
L1-Copper
 10
10.590000
 20
188.470000
 30
0.0
 11
10.059960
 21
188.470000
 31
0.0
  0
ARC
  8
L1-Copper
 10
10.059960
 20
188.545000
 30
0.0
 40
0.075000
 50
90.000000
 51
-90.000000
  0
LINE
  8
L1-Copper
 10
10.059960
 20
188.620000
 30
0.0
 11
10.590000
 21
188.620000
 31
0.0
  0
ARC
  8
L1-Copper
 10
10.590000
 20
188.545000
 30
0.0
 40
0.075000
 50
180.000000
 51
0.000000
  0
LINE
  8
L1-Copper
 10
10.515000
 20
188.545000
 30
0.0
 11
10.515000
 21
188.975040
 31
0.0
  0
ARC
  8
L1-Copper
 10
10.590000
 20
188.975040
 30
0.0
 40
0.075000
 50
0.000000
 51
180.000000
  0
LINE
  8
L1-Copper
 10
10.665000
 20
188.975040
 30
0.0
 11
10.665000
 21
188.545000
 31
0.0
  0
ARC
  8
L1-Copper
 10
13.255000
 20
188.545000
 30
0.0
 40
0.075000
 50
180.000000
 51
0.000000
  0
LINE
  8
L1-Copper
 10
13.180000
 20
188.545000
 30
0.0
 11
13.180000
 21
188.975040
 31
0.0
  0
ARC
  8
L1-Copper
 10
13.255000
 20
188.975040
 30
0.0
 40
0.075000
 50
0.000000
 51
180.000000
  0
LINE
  8
L1-Copper
 10
13.330000
 20
188.975040
 30
0.0
 11
13.330000
 21
188.545000
 31
0.0
  0
ARC
  8
L1-Copper
 10
10.745000
 20
185.255000
 30
0.0
 40
0.075000
 50
-90.000000
 51
90.000000
  0
LINE
  8
L1-Copper
 10
10.745000
 20
185.180000
 30
0.0
 11
10.019960
 21
185.180000
 31
0.0
  0
ARC
  8
L1-Copper
 10
10.019960
 20
185.255000
 30
0.0
 40
0.075000
 50
90.000000
 51
-90.000000
  0
LINE
  8
L1-Copper
 10
10.019960
 20
185.330000
 30
0.0
 11
10.745000
 21
185.330000
 31
0.0
  0
ARC
  8
L1-Copper
 10
13.745000
 20
185.255000
 30
0.0
 40
0.075000
 50
90.000000
 51
-90.000000
  0
LINE
  8
L1-Copper
 10
13.745000
 20
185.330000
 30
0.0
 11
14.470040
 21
185.330000
 31
0.0
  0
ARC
  8
L1-Copper
 10
14.470040
 20
185.255000
 30
0.0
 40
0.075000
 50
-90.000000
 51
90.000000
  0
LINE
  8
L1-Copper
 10
14.470040
 20
185.180000
 30
0.0
 11
13.745000
 21
185.180000
 31
0.0
  0
ARC
  8
L1-Copper
 10
13.745000
 20
183.255000
 30
0.0
 40
0.075000
 50
0.000000
 51
180.000000
  0
LINE
  8
L1-Copper
 10
13.820000
 20
183.255000
 30
0.0
 11
13.820000
 21
182.529960
 31
0.0
  0
ARC
  8
L1-Copper
 10
13.745000
 20
182.529960
 30
0.0
 40
0.075000
 50
180.000000
 51
0.000000
  0
LINE
  8
L1-Copper
 10
13.670000
 20
182.529960
 30
0.0
 11
13.670000
 21
183.255000
 31
0.0
  0
ARC
  8
L1-Copper
 10
1.250000
 20
189.620000
 30
0.0
 40
0.175000
 50
0.000000
 51
180.000000
  0
LINE
  8
L1-Copper
 10
1.425000
 20
189.620000
 30
0.0
 11
1.425000
 21
189.114210
 31
0.0
  0
ARC
  8
L1-Copper
 10
2.250000
 20
189.114210
 30
0.0
 40
0.825000
 50
180.000000
 51
-135.000491
  0
LINE
  8
L1-Copper
 10
1.666630
 20
188.530850
 30
0.0
 11
2.085860
 21
188.111640
 31
0.0
  0
ARC
  8
L1-Copper
 10
2.669220
 20
188.695000
 30
0.0
 40
0.825000
 50
-135.000000
 51
-90.000694
  0
LINE
  8
L1-Copper
 10
2.669210
 20
187.870000
 30
0.0
 11
2.840000
 21
187.870000
 31
0.0
  0
ARC
  8
L1-Copper
 10
2.840000
 20
187.695000
 30
0.0
 40
0.175000
 50
-90.000000
 51
90.000000
  0
LINE
  8
L1-Copper
 10
2.840000
 20
187.520000
 30
0.0
 11
2.669210
 21
187.520000
 31
0.0
  0
ARC
  8
L1-Copper
 10
2.669220
 20
188.695000
 30
0.0
 40
1.175000
 50
-135.000000
 51
-90.000488
  0
LINE
  8
L1-Copper
 10
1.838370
 20
187.864150
 30
0.0
 11
1.419140
 21
188.283370
 31
0.0
  0
ARC
  8
L1-Copper
 10
2.250000
 20
189.114210
 30
0.0
 40
1.175000
 50
180.000000
 51
-135.000690
  0
LINE
  8
L1-Copper
 10
1.075000
 20
189.114210
 30
0.0
 11
1.075000
 21
189.620000
 31
0.0
  0
ARC
  8
L1-Copper
 10
10.590000
 20
188.545000
 30
0.0
 40
0.075000
 50
90.000000
 51
-90.000000
  0
LINE
  8
L1-Copper
 10
10.590000
 20
188.620000
 30
0.0
 11
11.083930
 21
188.620000
 31
0.0
  0
LINE
  8
L1-Copper
 10
11.083930
 20
188.620000
 30
0.0
 11
11.316970
 21
188.853030
 31
0.0
  0
ARC
  8
L1-Copper
 10
11.370000
 20
188.800000
 30
0.0
 40
0.075000
 50
-45.000000
 51
135.000000
  0
LINE
  8
L1-Copper
 10
11.423030
 20
188.746970
 30
0.0
 11
11.168030
 21
188.491970
 31
0.0
  0
ARC
  8
L1-Copper
 10
11.115000
 20
188.545000
 30
0.0
 40
0.075000
 50
-90.000000
 51
-45.000000
  0
LINE
  8
L1-Copper
 10
11.115000
 20
188.470000
 30
0.0
 11
10.590000
 21
188.470000
 31
0.0
  0
ARC
  8
L1-Copper
 10
12.245000
 20
181.295000
 30
0.0
 40
0.075000
 50
0.000000
 51
180.000000
  0
LINE
  8
L1-Copper
 10
12.320000
 20
181.295000
 30
0.0
 11
12.320000
 21
180.929960
 31
0.0
  0
ARC
  8
L1-Copper
 10
12.245000
 20
180.929960
 30
0.0
 40
0.075000
 50
180.000000
 51
0.000000
  0
LINE
  8
L1-Copper
 10
12.170000
 20
180.929960
 30
0.0
 11
12.170000
 21
181.295000
 31
0.0
  0
ARC
  8
L1-Copper
 10
17.490000
 20
180.870000
 30
0.0
 40
0.075000
 50
180.000000
 51
0.000000
  0
LINE
  8
L1-Copper
 10
17.415000
 20
180.870000
 30
0.0
 11
17.415000
 21
181.345040
 31
0.0
  0
ARC
  8
L1-Copper
 10
17.490000
 20
181.345040
 30
0.0
 40
0.075000
 50
0.000000
 51
180.000000
  0
LINE
  8
L1-Copper
 10
17.565000
 20
181.345040
 30
0.0
 11
17.565000
 21
180.870000
 31
0.0
  0
ARC
  8
L1-Copper
 10
17.490000
 20
180.870000
 30
0.0
 40
0.075000
 50
-90.000000
 51
90.000000
  0
LINE
  8
L1-Copper
 10
17.490000
 20
180.795000
 30
0.0
 11
17.139960
 21
180.795000
 31
0.0
  0
ARC
  8
L1-Copper
 10
17.139960
 20
180.870000
 30
0.0
 40
0.075000
 50
90.000000
 51
-90.000000
  0
LINE
  8
L1-Copper
 10
17.139960
 20
180.945000
 30
0.0
 11
17.490000
 21
180.945000
 31
0.0
  0
ARC
  8
L1-Copper
 10
10.745000
 20
183.255000
 30
0.0
 40
0.075000
 50
-90.000000
 51
90.000000
  0
LINE
  8
L1-Copper
 10
10.745000
 20
183.180000
 30
0.0
 11
10.019960
 21
183.180000
 31
0.0
  0
ARC
  8
L1-Copper
 10
10.019960
 20
183.255000
 30
0.0
 40
0.075000
 50
90.000000
 51
-90.000000
  0
LINE
  8
L1-Copper
 10
10.019960
 20
183.330000
 30
0.0
 11
10.745000
 21
183.330000
 31
0.0
  0
ARC
  8
L1-Copper
 10
10.745000
 20
183.255000
 30
0.0
 40
0.075000
 50
0.000000
 51
180.000000
  0
LINE
  8
L1-Copper
 10
10.820000
 20
183.255000
 30
0.0
 11
10.820000
 21
182.529960
 31
0.0
  0
ARC
  8
L1-Copper
 10
10.745000
 20
182.529960
 30
0.0
 40
0.075000
 50
180.000000
 51
0.000000
  0
LINE
  8
L1-Copper
 10
10.670000
 20
182.529960
 30
0.0
 11
10.670000
 21
183.255000
 31
0.0
  0
ARC
  8
L1-Copper
 10
13.745000
 20
183.255000
 30
0.0
 40
0.075000
 50
90.000000
 51
-90.000000
  0
LINE
  8
L1-Copper
 10
13.745000
 20
183.330000
 30
0.0
 11
14.470040
 21
183.330000
 31
0.0
  0
ARC
  8
L1-Copper
 10
14.470040
 20
183.255000
 30
0.0
 40
0.075000
 50
-90.000000
 51
90.000000
  0
LINE
  8
L1-Copper
 10
14.470040
 20
183.180000
 30
0.0
 11
13.745000
 21
183.180000
 31
0.0
  0
ARC
  8
L1-Copper
 10
10.745000
 20
185.255000
 30
0.0
 40
0.075000
 50
180.000000
 51
0.000000
  0
LINE
  8
L1-Copper
 10
10.670000
 20
185.255000
 30
0.0
 11
10.670000
 21
185.980040
 31
0.0
  0
ARC
  8
L1-Copper
 10
10.745000
 20
185.980040
 30
0.0
 40
0.075000
 50
0.000000
 51
180.000000
  0
LINE
  8
L1-Copper
 10
10.820000
 20
185.980040
 30
0.0
 11
10.820000
 21
185.255000
 31
0.0
  0
ARC
  8
L1-Copper
 10
13.745000
 20
185.255000
 30
0.0
 40
0.075000
 50
180.000000
 51
0.000000
  0
LINE
  8
L1-Copper
 10
13.670000
 20
185.255000
 30
0.0
 11
13.670000
 21
185.980040
 31
0.0
  0
ARC
  8
L1-Copper
 10
13.745000
 20
185.980040
 30
0.0
 40
0.075000
 50
0.000000
 51
180.000000
  0
LINE
  8
L1-Copper
 10
13.820000
 20
185.980040
 30
0.0
 11
13.820000
 21
185.255000
 31
0.0
  0
ARC
  8
L1-Copper
 10
13.255000
 20
188.545000
 30
0.0
 40
0.075000
 50
90.000000
 51
-90.000000
  0
LINE
  8
L1-Copper
 10
13.255000
 20
188.620000
 30
0.0
 11
13.785040
 21
188.620000
 31
0.0
  0
ARC
  8
L1-Copper
 10
13.785040
 20
188.545000
 30
0.0
 40
0.075000
 50
-90.000000
 51
90.000000
  0
LINE
  8
L1-Copper
 10
13.785040
 20
188.470000
 30
0.0
 11
13.255000
 21
188.470000
 31
0.0
  0
ARC
  8
L1-Copper
 10
13.255000
 20
188.545000
 30
0.0
 40
0.075000
 50
-90.000000
 51
90.000000
  0
LINE
  8
L1-Copper
 10
13.255000
 20
188.470000
 30
0.0
 11
12.724960
 21
188.470000
 31
0.0
  0
ARC
  8
L1-Copper
 10
12.724960
 20
188.545000
 30
0.0
 40
0.075000
 50
90.000000
 51
-90.000000
  0
LINE
  8
L1-Copper
 10
12.724960
 20
188.620000
 30
0.0
 11
13.255000
 21
188.620000
 31
0.0
  0
ARC
  8
L1-Copper
 10
17.890000
 20
180.095000
 30
0.0
 40
0.150000
 50
-7.936169
 51
0.000000
  0
LINE
  8
L1-Copper
 10
18.040000
 20
180.095000
 30
0.0
 11
18.040000
 21
180.165640
 31
0.0
  0
ARC
  8
L1-Copper
 10
18.090000
 20
180.165630
 30
0.0
 40
0.050000
 50
89.988541
 51
179.988541
  0
ARC
  8
L1-Copper
 10
18.090020
 20
180.165660
 30
0.0
 40
0.049980
 50
57.203467
 51
90.011466
  0
ARC
  8
L1-Copper
 10
18.414980
 20
180.670020
 30
0.0
 40
0.550010
 50
-122.793499
 51
-115.784693
  0
ARC
  8
L1-Copper
 10
18.153990
 20
180.129780
 30
0.0
 40
0.049970
 50
-57.047756
 51
64.209308
  0
ARC
  8
L1-Copper
 10
18.289990
 20
179.919990
 30
0.0
 40
0.200050
 50
122.954467
 51
143.873656
  0
ARC
  8
L1-Copper
 10
18.088050
 20
180.067390
 30
0.0
 40
0.049970
 50
172.062867
 51
-36.126851
  0
ARC
  8
L1-Copper
 10
19.290000
 20
179.920000
 30
0.0
 40
0.200040
 50
53.130675
 51
90.000000
  0
LINE
  8
L1-Copper
 10
19.290000
 20
180.120040
 30
0.0
 11
18.896630
 21
180.120040
 31
0.0
  0
ARC
  8
L1-Copper
 10
18.896630
 20
180.170010
 30
0.0
 40
0.049970
 50
123.556496
 51
-90.000000
  0
ARC
  8
L1-Copper
 10
18.565010
 20
180.670000
 30
0.0
 40
0.550000
 50
-56.445728
 51
-24.624749
  0
ARC
  8
L1-Copper
 10
19.110420
 20
180.420010
 30
0.0
 40
0.049970
 50
146.309932
 51
155.378607
  0
ARC
  8
L1-Copper
 10
19.110450
 20
180.419990
 30
0.0
 40
0.050010
 50
104.036243
 51
146.309932
  0
ARC
  8
L1-Copper
 10
19.110440
 20
180.420030
 30
0.0
 40
0.049970
 50
90.000000
 51
104.036243
  0
LINE
  8
L1-Copper
 10
19.110440
 20
180.470000
 30
0.0
 11
19.115000
 21
180.470000
 31
0.0
  0
ARC
  8
L1-Copper
 10
19.115000
 20
180.620000
 30
0.0
 40
0.150000
 50
-90.000000
 51
-51.322295
  0
ARC
  8
L1-Copper
 10
19.239970
 20
180.463890
 30
0.0
 40
0.049970
 50
51.304377
 51
128.679506
  0
ARC
  8
L1-Copper
 10
19.365000
 20
180.620000
 30
0.0
 40
0.150040
 50
-128.690224
 51
-90.000000
  0
LINE
  8
L1-Copper
 10
19.365000
 20
180.469960
 30
0.0
 11
19.615000
 21
180.469960
 31
0.0
  0
ARC
  8
L1-Copper
 10
19.615000
 20
180.620000
 30
0.0
 40
0.150040
 50
-90.000000
 51
-51.320511
  0
ARC
  8
L1-Copper
 10
19.740000
 20
180.463860
 30
0.0
 40
0.049970
 50
51.320494
 51
128.679506
  0
ARC
  8
L1-Copper
 10
19.865000
 20
180.620000
 30
0.0
 40
0.150040
 50
-128.679489
 51
-90.000000
  0
LINE
  8
L1-Copper
 10
19.865000
 20
180.469960
 30
0.0
 11
20.000000
 21
180.469960
 31
0.0
  0
ARC
  8
L1-Copper
 10
20.000000
 20
180.419990
 30
0.0
 40
0.049970
 50
0.000000
 51
90.000000
  0
LINE
  8
L1-Copper
 10
20.049970
 20
180.419990
 30
0.0
 11
20.049970
 21
180.170010
 31
0.0
  0
ARC
  8
L1-Copper
 10
20.000000
 20
180.170010
 30
0.0
 40
0.049970
 50
-90.000000
 51
0.000000
  0
LINE
  8
L1-Copper
 10
20.000000
 20
180.120040
 30
0.0
 11
19.590000
 21
180.120040
 31
0.0
  0
ARC
  8
L1-Copper
 10
19.590000
 20
179.920000
 30
0.0
 40
0.200040
 50
90.000000
 51
126.869325
  0
ARC
  8
L1-Copper
 10
19.440000
 20
180.120010
 30
0.0
 40
0.049970
 50
-126.865311
 51
-53.134689
  0
ARC
  8
L1-Copper
 10
19.115000
 20
181.120000
 30
0.0
 40
0.150000
 50
55.986823
 51
75.522786
  0
ARC
  8
L1-Copper
 10
19.164990
 20
181.313620
 30
0.0
 40
0.049970
 50
-123.690068
 51
-104.475667
  0
ARC
  8
L1-Copper
 10
19.165010
 20
181.313650
 30
0.0
 40
0.050010
 50
180.000000
 51
-123.690068
  0
LINE
  8
L1-Copper
 10
19.115000
 20
181.313650
 30
0.0
 11
19.115000
 21
181.446510
 31
0.0
  0
ARC
  8
L1-Copper
 10
19.164970
 20
181.446510
 30
0.0
 40
0.049970
 50
171.785582
 51
180.000000
  0
LINE
  8
L1-Copper
 10
19.115510
 20
181.453650
 30
0.0
 11
19.158080
 21
181.748570
 31
0.0
  0
ARC
  8
L1-Copper
 10
18.539490
 20
181.837860
 30
0.0
 40
0.625000
 50
-8.213594
 51
-7.627720
  0
ARC
  8
L1-Copper
 10
19.208490
 20
181.748270
 30
0.0
 40
0.049970
 50
172.328825
 51
172.375807
  0
ARC
  8
L1-Copper
 10
18.490000
 20
181.845000
 30
0.0
 40
0.675000
 50
-7.667338
 51
0.000000
  0
LINE
  8
L1-Copper
 10
19.165000
 20
181.845000
 30
0.0
 11
19.165000
 21
183.770800
 31
0.0
  0
ARC
  8
L1-Copper
 10
17.490000
 20
183.770770
 30
0.0
 40
1.675000
 50
0.001026
 51
45.000242
  0
LINE
  8
L1-Copper
 10
18.674400
 20
184.955180
 30
0.0
 11
15.750190
 21
187.879410
 31
0.0
  0
ARC
  8
L1-Copper
 10
14.565790
 20
186.695000
 30
0.0
 40
1.675000
 50
45.000242
 51
90.000000
  0
LINE
  8
L1-Copper
 10
14.565790
 20
188.370000
 30
0.0
 11
13.760010
 21
188.370000
 31
0.0
  0
ARC
  8
L1-Copper
 10
13.760010
 20
188.419970
 30
0.0
 40
0.049970
 50
180.000000
 51
-90.000000
  0
LINE
  8
L1-Copper
 10
13.710040
 20
188.419970
 30
0.0
 11
13.710040
 21
188.700000
 31
0.0
  0
ARC
  8
L1-Copper
 10
13.510000
 20
188.700000
 30
0.0
 40
0.200040
 50
0.000000
 51
90.000000
  0
LINE
  8
L1-Copper
 10
13.510000
 20
188.900040
 30
0.0
 11
13.000000
 21
188.900040
 31
0.0
  0
ARC
  8
L1-Copper
 10
13.000000
 20
188.700000
 30
0.0
 40
0.200040
 50
90.000000
 51
180.000000
  0
LINE
  8
L1-Copper
 10
12.799960
 20
188.700000
 30
0.0
 11
12.799960
 21
188.433680
 31
0.0
  0
ARC
  8
L1-Copper
 10
12.749990
 20
188.433680
 30
0.0
 40
0.049970
 50
-126.282810
 51
0.000000
  0
ARC
  8
L1-Copper
 10
12.395000
 20
187.950000
 30
0.0
 40
0.550000
 50
53.724321
 51
90.000000
  0
LINE
  8
L1-Copper
 10
12.395000
 20
188.500000
 30
0.0
 11
12.085000
 21
188.500000
 31
0.0
  0
ARC
  8
L1-Copper
 10
12.085000
 20
187.950000
 30
0.0
 40
0.550000
 50
90.000000
 51
116.743483
  0
ARC
  8
L1-Copper
 10
11.815010
 20
188.485790
 30
0.0
 40
0.049970
 50
-90.000000
 51
-63.250339
  0
ARC
  8
L1-Copper
 10
11.815010
 20
188.485830
 30
0.0
 40
0.050010
 50
-116.570175
 51
-90.000000
  0
ARC
  8
L1-Copper
 10
11.814990
 20
188.485790
 30
0.0
 40
0.049970
 50
-116.749661
 51
-116.570179
  0
ARC
  8
L1-Copper
 10
11.545000
 20
187.950000
 30
0.0
 40
0.550000
 50
63.256517
 51
90.000000
  0
LINE
  8
L1-Copper
 10
11.545000
 20
188.500000
 30
0.0
 11
11.235000
 21
188.500000
 31
0.0
  0
ARC
  8
L1-Copper
 10
11.235000
 20
187.950000
 30
0.0
 40
0.550000
 50
90.000000
 51
103.493019
  0
ARC
  8
L1-Copper
 10
11.095010
 20
188.533410
 30
0.0
 40
0.049970
 50
180.000000
 51
-76.506051
  0
LINE
  8
L1-Copper
 10
11.045040
 20
188.533410
 30
0.0
 11
11.045040
 21
188.700000
 31
0.0
  0
ARC
  8
L1-Copper
 10
10.845000
 20
188.700000
 30
0.0
 40
0.200040
 50
0.000000
 51
90.000000
  0
LINE
  8
L1-Copper
 10
10.845000
 20
188.900040
 30
0.0
 11
10.335000
 21
188.900040
 31
0.0
  0
ARC
  8
L1-Copper
 10
10.335000
 20
188.700000
 30
0.0
 40
0.200040
 50
90.000000
 51
180.000000
  0
LINE
  8
L1-Copper
 10
10.134960
 20
188.700000
 30
0.0
 11
10.134960
 21
188.447440
 31
0.0
  0
ARC
  8
L1-Copper
 10
10.084990
 20
188.447440
 30
0.0
 40
0.049970
 50
-95.258790
 51
0.000000
  0
ARC
  8
L1-Copper
 10
10.030000
 20
187.850000
 30
0.0
 40
0.550000
 50
84.741153
 51
90.000000
  0
LINE
  8
L1-Copper
 10
10.030000
 20
188.400000
 30
0.0
 11
9.850000
 21
188.400000
 31
0.0
  0
ARC
  8
L1-Copper
 10
9.850000
 20
187.850000
 30
0.0
 40
0.550000
 50
90.000000
 51
104.477387
  0
ARC
  8
L1-Copper
 10
9.700000
 20
188.430950
 30
0.0
 40
0.050000
 50
-104.478169
 51
-75.521831
  0
ARC
  8
L1-Copper
 10
9.550000
 20
187.850000
 30
0.0
 40
0.550000
 50
75.522613
 51
90.000000
  0
LINE
  8
L1-Copper
 10
9.550000
 20
188.400000
 30
0.0
 11
9.370000
 21
188.400000
 31
0.0
  0
ARC
  8
L1-Copper
 10
9.370000
 20
187.850000
 30
0.0
 40
0.550000
 50
90.000000
 51
108.196115
  0
ARC
  8
L1-Copper
 10
9.182650
 20
188.419970
 30
0.0
 40
0.049970
 50
-90.000000
 51
-71.807997
  0
LINE
  8
L1-Copper
 10
9.182650
 20
188.370000
 30
0.0
 11
7.639340
 21
188.370000
 31
0.0
  0
ARC
  8
L1-Copper
 10
7.639340
 20
188.419970
 30
0.0
 40
0.049970
 50
-151.321824
 51
-90.000000
  0
ARC
  8
L1-Copper
 10
7.420000
 20
188.300000
 30
0.0
 40
0.200040
 50
28.676523
 51
90.000000
  0
LINE
  8
L1-Copper
 10
7.420000
 20
188.500040
 30
0.0
 11
7.110000
 21
188.500040
 31
0.0
  0
ARC
  8
L1-Copper
 10
7.110000
 20
188.300000
 30
0.0
 40
0.200040
 50
90.000000
 51
151.323477
  0
ARC
  8
L1-Copper
 10
6.890660
 20
188.419970
 30
0.0
 40
0.049970
 50
-90.000000
 51
-28.678176
  0
LINE
  8
L1-Copper
 10
6.890660
 20
188.370000
 30
0.0
 11
6.827340
 21
188.370000
 31
0.0
  0
ARC
  8
L1-Copper
 10
6.827340
 20
188.419970
 30
0.0
 40
0.049970
 50
-108.192003
 51
-90.000000
  0
ARC
  8
L1-Copper
 10
6.640000
 20
187.850000
 30
0.0
 40
0.550000
 50
71.804875
 51
90.000000
  0
LINE
  8
L1-Copper
 10
6.640000
 20
188.400000
 30
0.0
 11
6.460000
 21
188.400000
 31
0.0
  0
ARC
  8
L1-Copper
 10
6.460000
 20
187.850000
 30
0.0
 40
0.550000
 50
90.000000
 51
104.477387
  0
ARC
  8
L1-Copper
 10
6.310000
 20
188.430950
 30
0.0
 40
0.050000
 50
-104.478169
 51
-75.521831
  0
ARC
  8
L1-Copper
 10
6.160000
 20
187.850000
 30
0.0
 40
0.550000
 50
75.522613
 51
90.000000
  0
LINE
  8
L1-Copper
 10
6.160000
 20
188.400000
 30
0.0
 11
5.980000
 21
188.400000
 31
0.0
  0
ARC
  8
L1-Copper
 10
5.980000
 20
187.850000
 30
0.0
 40
0.550000
 50
90.000000
 51
104.223717
  0
ARC
  8
L1-Copper
 10
5.832580
 20
188.431580
 30
0.0
 40
0.049970
 50
-148.243770
 51
-75.774662
  0
ARC
  8
L1-Copper
 10
5.620000
 20
188.300000
 30
0.0
 40
0.200040
 50
31.756117
 51
90.000000
  0
LINE
  8
L1-Copper
 10
5.620000
 20
188.500040
 30
0.0
 11
5.310000
 21
188.500040
 31
0.0
  0
ARC
  8
L1-Copper
 10
5.310000
 20
188.300000
 30
0.0
 40
0.200040
 50
90.000000
 51
151.323477
  0
ARC
  8
L1-Copper
 10
5.090660
 20
188.419970
 30
0.0
 40
0.049970
 50
-90.000000
 51
-28.678176
  0
LINE
  8
L1-Copper
 10
5.090660
 20
188.370000
 30
0.0
 11
4.874340
 21
188.370000
 31
0.0
  0
ARC
  8
L1-Copper
 10
4.874340
 20
188.419970
 30
0.0
 40
0.049970
 50
-151.321824
 51
-90.000000
  0
ARC
  8
L1-Copper
 10
4.655000
 20
188.300000
 30
0.0
 40
0.200040
 50
28.676523
 51
90.000000
  0
LINE
  8
L1-Copper
 10
4.655000
 20
188.500040
 30
0.0
 11
4.345000
 21
188.500040
 31
0.0
  0
ARC
  8
L1-Copper
 10
4.345000
 20
188.300000
 30
0.0
 40
0.200040
 50
90.000000
 51
149.485224
  0
ARC
  8
L1-Copper
 10
4.129620
 20
188.426940
 30
0.0
 40
0.049970
 50
-105.924920
 51
-30.511472
  0
ARC
  8
L1-Copper
 10
3.965000
 20
187.850000
 30
0.0
 40
0.550000
 50
74.074780
 51
90.000000
  0
LINE
  8
L1-Copper
 10
3.965000
 20
188.400000
 30
0.0
 11
3.785000
 21
188.400000
 31
0.0
  0
ARC
  8
L1-Copper
 10
3.785000
 20
187.850000
 30
0.0
 40
0.550000
 50
90.000000
 51
104.477387
  0
ARC
  8
L1-Copper
 10
3.635000
 20
188.430950
 30
0.0
 40
0.050000
 50
-104.478169
 51
-75.521831
  0
ARC
  8
L1-Copper
 10
3.485000
 20
187.850000
 30
0.0
 40
0.550000
 50
75.522613
 51
90.000000
  0
LINE
  8
L1-Copper
 10
3.485000
 20
188.400000
 30
0.0
 11
3.305000
 21
188.400000
 31
0.0
  0
ARC
  8
L1-Copper
 10
3.305000
 20
187.850000
 30
0.0
 40
0.550000
 50
90.000000
 51
99.935866
  0
ARC
  8
L1-Copper
 10
3.201480
 20
188.440970
 30
0.0
 40
0.049970
 50
-145.673940
 51
-80.066413
  0
ARC
  8
L1-Copper
 10
2.995000
 20
188.300000
 30
0.0
 40
0.200040
 50
34.321621
 51
90.000000
  0
LINE
  8
L1-Copper
 10
2.995000
 20
188.500040
 30
0.0
 11
2.685000
 21
188.500040
 31
0.0
  0
ARC
  8
L1-Copper
 10
2.685000
 20
188.300000
 30
0.0
 40
0.200040
 50
90.000000
 51
135.889130
  0
ARC
  8
L1-Copper
 10
2.505490
 20
188.474020
 30
0.0
 40
0.049970
 50
-126.537386
 51
-44.108120
  0
ARC
  8
L1-Copper
 10
2.669220
 20
188.695000
 30
0.0
 40
0.325000
 50
-134.945150
 51
-126.535991
  0
ARC
  8
L1-Copper
 10
2.474740
 20
188.500530
 30
0.0
 40
0.049970
 50
-134.991892
 51
-134.635167
  0
ARC
  8
L1-Copper
 10
2.474200
 20
188.501060
 30
0.0
 40
0.049970
 50
-135.000000
 51
-134.124333
  0
LINE
  8
L1-Copper
 10
2.438870
 20
188.465730
 30
0.0
 11
2.020160
 21
188.884420
 31
0.0
  0
ARC
  8
L1-Copper
 10
2.250010
 20
189.114210
 30
0.0
 40
0.325010
 50
180.000000
 51
-135.007479
  0
LINE
  8
L1-Copper
 10
1.925000
 20
189.114210
 30
0.0
 11
1.925000
 21
189.382660
 31
0.0
  0
ARC
  8
L1-Copper
 10
1.974970
 20
189.382660
 30
0.0
 40
0.049970
 50
161.807997
 51
180.000000
  0
ARC
  8
L1-Copper
 10
1.405000
 20
189.570000
 30
0.0
 40
0.550000
 50
-18.195125
 51
0.000000
  0
LINE
  8
L1-Copper
 10
1.955000
 20
189.570000
 30
0.0
 11
1.955000
 21
189.750000
 31
0.0
  0
ARC
  8
L1-Copper
 10
1.405000
 20
189.750000
 30
0.0
 40
0.550000
 50
0.000000
 51
19.470719
  0
ARC
  8
L1-Copper
 10
1.970660
 20
189.949990
 30
0.0
 40
0.049970
 50
180.000000
 51
-160.524347
  0
ARC
  8
L1-Copper
 10
1.970700
 20
189.949990
 30
0.0
 40
0.050010
 50
90.000000
 51
180.000000
  0
LINE
  8
L1-Copper
 10
1.970700
 20
190.000000
 30
0.0
 11
20.000000
 21
190.000000
 31
0.0
  0
ARC
  8
L1-Copper
 10
20.000000
 20
189.950030
 30
0.0
 40
0.049970
 50
0.000000
 51
90.000000
  0
LINE
  8
L1-Copper
 10
20.049970
 20
189.950030
 30
0.0
 11
20.049970
 21
182.947220
 31
0.0
  0
ARC
  8
L1-Copper
 10
20.000000
 20
182.947220
 30
0.0
 40
0.049970
 50
-83.623088
 51
0.000000
  0
ARC
  8
L1-Copper
 10
20.050000
 20
182.500000
 30
0.0
 40
0.400040
 50
96.379575
 51
-172.669798
  0
ARC
  8
L1-Copper
 10
19.603670
 20
182.442590
 30
0.0
 40
0.049970
 50
-45.000000
 51
7.324132
  0
LINE
  8
L1-Copper
 10
19.639000
 20
182.407260
 30
0.0
 11
19.390870
 21
182.159130
 31
0.0
  0
ARC
  8
L1-Copper
 10
19.550000
 20
182.000000
 30
0.0
 40
0.225040
 50
135.000000
 51
180.000000
  0
LINE
  8
L1-Copper
 10
19.324960
 20
182.000000
 30
0.0
 11
19.324960
 21
181.338730
 31
0.0
  0
ARC
  8
L1-Copper
 10
19.274990
 20
181.338730
 30
0.0
 40
0.049970
 50
-48.577852
 51
0.000000
  0
ARC
  8
L1-Copper
 10
19.490000
 20
181.095000
 30
0.0
 40
0.275040
 50
131.416774
 51
144.060081
  0
ARC
  8
L1-Copper
 10
19.226860
 20
181.285760
 30
0.0
 40
0.049970
 50
-124.011272
 51
-35.938863
  0
ARC
  8
L1-Copper
 10
0.550010
 20
180.000000
 30
0.0
 40
0.049970
 50
180.000000
 51
-90.000000
  0
LINE
  8
L1-Copper
 10
0.500040
 20
180.000000
 30
0.0
 11
0.500040
 21
188.821700
 31
0.0
  0
ARC
  8
L1-Copper
 10
0.550010
 20
188.821700
 30
0.0
 40
0.049970
 50
9.758251
 51
180.000000
  0
ARC
  8
L1-Copper
 10
2.250000
 20
189.114200
 30
0.0
 40
1.675000
 50
-170.237156
 51
-135.026364
  0
ARC
  8
L1-Copper
 10
1.030260
 20
187.894470
 30
0.0
 40
0.049970
 50
45.008108
 51
45.875667
  0
LINE
  8
L1-Copper
 10
1.065590
 20
187.929810
 30
0.0
 11
1.484840
 21
187.510580
 31
0.0
  0
ARC
  8
L1-Copper
 10
2.669230
 20
188.695000
 30
0.0
 40
1.675000
 50
-134.999274
 51
-90.001026
  0
LINE
  8
L1-Copper
 10
2.669200
 20
187.020000
 30
0.0
 11
3.117660
 21
187.020000
 31
0.0
  0
ARC
  8
L1-Copper
 10
3.117660
 20
186.970030
 30
0.0
 40
0.049970
 50
71.807997
 51
90.000000
  0
ARC
  8
L1-Copper
 10
3.305000
 20
187.540000
 30
0.0
 40
0.550000
 50
-108.195125
 51
-90.000000
  0
LINE
  8
L1-Copper
 10
3.305000
 20
186.990000
 30
0.0
 11
3.485000
 21
186.990000
 31
0.0
  0
ARC
  8
L1-Copper
 10
3.485000
 20
187.540000
 30
0.0
 40
0.550000
 50
-90.000000
 51
-75.522613
  0
ARC
  8
L1-Copper
 10
3.635000
 20
186.959050
 30
0.0
 40
0.050000
 50
75.521831
 51
104.478169
  0
ARC
  8
L1-Copper
 10
3.785000
 20
187.540000
 30
0.0
 40
0.550000
 50
-104.477387
 51
-90.000000
  0
LINE
  8
L1-Copper
 10
3.785000
 20
186.990000
 30
0.0
 11
3.965000
 21
186.990000
 31
0.0
  0
ARC
  8
L1-Copper
 10
3.965000
 20
187.540000
 30
0.0
 40
0.550000
 50
-90.000000
 51
-71.803885
  0
ARC
  8
L1-Copper
 10
4.152350
 20
186.970030
 30
0.0
 40
0.049970
 50
90.000000
 51
108.192003
  0
LINE
  8
L1-Copper
 10
4.152350
 20
187.020000
 30
0.0
 11
5.792660
 21
187.020000
 31
0.0
  0
ARC
  8
L1-Copper
 10
5.792660
 20
186.970030
 30
0.0
 40
0.049970
 50
71.807997
 51
90.000000
  0
ARC
  8
L1-Copper
 10
5.980000
 20
187.540000
 30
0.0
 40
0.550000
 50
-108.195125
 51
-90.000000
  0
LINE
  8
L1-Copper
 10
5.980000
 20
186.990000
 30
0.0
 11
6.160000
 21
186.990000
 31
0.0
  0
ARC
  8
L1-Copper
 10
6.160000
 20
187.540000
 30
0.0
 40
0.550000
 50
-90.000000
 51
-75.522613
  0
ARC
  8
L1-Copper
 10
6.310000
 20
186.959050
 30
0.0
 40
0.050000
 50
75.521831
 51
104.478169
  0
ARC
  8
L1-Copper
 10
6.460000
 20
187.540000
 30
0.0
 40
0.550000
 50
-104.477387
 51
-90.000000
  0
LINE
  8
L1-Copper
 10
6.460000
 20
186.990000
 30
0.0
 11
6.640000
 21
186.990000
 31
0.0
  0
ARC
  8
L1-Copper
 10
6.640000
 20
187.540000
 30
0.0
 40
0.550000
 50
-90.000000
 51
-71.803885
  0
ARC
  8
L1-Copper
 10
6.827350
 20
186.970030
 30
0.0
 40
0.049970
 50
90.000000
 51
108.192003
  0
LINE
  8
L1-Copper
 10
6.827350
 20
187.020000
 30
0.0
 11
9.182660
 21
187.020000
 31
0.0
  0
ARC
  8
L1-Copper
 10
9.182660
 20
186.970030
 30
0.0
 40
0.049970
 50
71.807997
 51
90.000000
  0
ARC
  8
L1-Copper
 10
9.370000
 20
187.540000
 30
0.0
 40
0.550000
 50
-108.195125
 51
-90.000000
  0
LINE
  8
L1-Copper
 10
9.370000
 20
186.990000
 30
0.0
 11
9.550000
 21
186.990000
 31
0.0
  0
ARC
  8
L1-Copper
 10
9.550000
 20
187.540000
 30
0.0
 40
0.550000
 50
-90.000000
 51
-75.522613
  0
ARC
  8
L1-Copper
 10
9.700000
 20
186.959050
 30
0.0
 40
0.050000
 50
75.521831
 51
104.478169
  0
ARC
  8
L1-Copper
 10
9.850000
 20
187.540000
 30
0.0
 40
0.550000
 50
-104.477387
 51
-90.000000
  0
LINE
  8
L1-Copper
 10
9.850000
 20
186.990000
 30
0.0
 11
10.030000
 21
186.990000
 31
0.0
  0
ARC
  8
L1-Copper
 10
10.030000
 20
187.540000
 30
0.0
 40
0.550000
 50
-90.000000
 51
-75.276003
  0
ARC
  8
L1-Copper
 10
10.182500
 20
186.959700
 30
0.0
 40
0.050000
 50
75.274517
 51
104.725483
  0
ARC
  8
L1-Copper
 10
10.335000
 20
187.540000
 30
0.0
 40
0.550000
 50
-104.723997
 51
-90.000000
  0
LINE
  8
L1-Copper
 10
10.335000
 20
186.990000
 30
0.0
 11
10.845000
 21
186.990000
 31
0.0
  0
ARC
  8
L1-Copper
 10
10.845010
 20
187.540000
 30
0.0
 40
0.550000
 50
-90.001042
 51
-84.778880
  0
ARC
  8
L1-Copper
 10
10.899610
 20
186.942520
 30
0.0
 40
0.049970
 50
90.000000
 51
95.224535
  0
ARC
  8
L1-Copper
 10
10.899610
 20
186.942480
 30
0.0
 40
0.050010
 50
63.429825
 51
90.000000
  0
ARC
  8
L1-Copper
 10
10.899630
 20
186.942520
 30
0.0
 40
0.049970
 50
56.014153
 51
63.429821
  0
ARC
  8
L1-Copper
 10
11.235000
 20
187.440000
 30
0.0
 40
0.550000
 50
-123.985352
 51
-90.000000
  0
LINE
  8
L1-Copper
 10
11.235000
 20
186.890000
 30
0.0
 11
11.498170
 21
186.890000
 31
0.0
  0
ARC
  8
L1-Copper
 10
11.498170
 20
186.839990
 30
0.0
 40
0.050010
 50
33.690068
 51
90.000000
  0
ARC
  8
L1-Copper
 10
11.498200
 20
186.840010
 30
0.0
 40
0.049970
 50
12.011478
 51
33.690068
  0
ARC
  8
L1-Copper
 10
12.085040
 20
186.964900
 30
0.0
 40
0.550010
 50
-167.985421
 51
-160.342462
  0
ARC
  8
L1-Copper
 10
11.520030
 20
186.763070
 30
0.0
 40
0.049970
 50
0.000000
 51
19.656909
  0
LINE
  8
L1-Copper
 10
11.570000
 20
186.763070
 30
0.0
 11
11.570000
 21
186.495470
 31
0.0
  0
ARC
  8
L1-Copper
 10
11.519990
 20
186.495470
 30
0.0
 40
0.050010
 50
-26.570175
 51
0.000000
  0
ARC
  8
L1-Copper
 10
11.520030
 20
186.495450
 30
0.0
 40
0.049970
 50
-28.955478
 51
-26.570179
  0
ARC
  8
L1-Copper
 10
12.045000
 20
186.204990
 30
0.0
 40
0.550000
 50
151.044757
 51
170.404609
  0
ARC
  8
L1-Copper
 10
11.453390
 20
186.305000
 30
0.0
 40
0.050000
 50
-90.000000
 51
-9.590429
  0
LINE
  8
L1-Copper
 10
11.453390
 20
186.255000
 30
0.0
 11
11.295000
 21
186.255000
 31
0.0
  0
ARC
  8
L1-Copper
 10
11.295000
 20
186.205000
 30
0.0
 40
0.050000
 50
90.000000
 51
180.000000
  0
LINE
  8
L1-Copper
 10
11.245000
 20
186.205000
 30
0.0
 11
11.245000
 21
185.955010
 31
0.0
  0
ARC
  8
L1-Copper
 10
11.195030
 20
185.955010
 30
0.0
 40
0.049970
 50
-90.011466
 51
0.000000
  0
ARC
  8
L1-Copper
 10
11.195000
 20
185.705000
 30
0.0
 40
0.200040
 50
89.994272
 51
90.000000
  0
LINE
  8
L1-Copper
 10
11.195000
 20
185.905040
 30
0.0
 11
10.295000
 21
185.905040
 31
0.0
  0
ARC
  8
L1-Copper
 10
10.295000
 20
185.705000
 30
0.0
 40
0.200040
 50
90.000000
 51
180.000000
  0
LINE
  8
L1-Copper
 10
10.094960
 20
185.705000
 30
0.0
 11
10.094960
 21
184.805000
 31
0.0
  0
ARC
  8
L1-Copper
 10
10.295000
 20
184.805000
 30
0.0
 40
0.200040
 50
180.000000
 51
-90.000000
  0
LINE
  8
L1-Copper
 10
10.295000
 20
184.604960
 30
0.0
 11
11.195000
 21
184.604960
 31
0.0
  0
ARC
  8
L1-Copper
 10
11.195000
 20
184.805000
 30
0.0
 40
0.200040
 50
-90.000000
 51
-23.570172
  0
ARC
  8
L1-Copper
 10
11.424150
 20
184.705030
 30
0.0
 40
0.049970
 50
90.000000
 51
156.431026
  0
LINE
  8
L1-Copper
 10
11.424150
 20
184.755000
 30
0.0
 11
13.065850
 21
184.755000
 31
0.0
  0
ARC
  8
L1-Copper
 10
13.065850
 20
184.705030
 30
0.0
 40
0.049970
 50
23.568974
 51
90.000000
  0
ARC
  8
L1-Copper
 10
13.295000
 20
184.805000
 30
0.0
 40
0.200040
 50
-156.429828
 51
-90.000000
  0
LINE
  8
L1-Copper
 10
13.295000
 20
184.604960
 30
0.0
 11
14.195000
 21
184.604960
 31
0.0
  0
ARC
  8
L1-Copper
 10
14.195000
 20
184.805000
 30
0.0
 40
0.200040
 50
-90.000000
 51
0.000000
  0
LINE
  8
L1-Copper
 10
14.395040
 20
184.805000
 30
0.0
 11
14.395040
 21
185.705000
 31
0.0
  0
ARC
  8
L1-Copper
 10
14.195000
 20
185.705000
 30
0.0
 40
0.200040
 50
0.000000
 51
90.000000
  0
LINE
  8
L1-Copper
 10
14.195000
 20
185.905040
 30
0.0
 11
13.295000
 21
185.905040
 31
0.0
  0
ARC
  8
L1-Copper
 10
13.295000
 20
185.705000
 30
0.0
 40
0.200040
 50
90.000000
 51
91.151490
  0
ARC
  8
L1-Copper
 10
13.289980
 20
185.954960
 30
0.0
 40
0.049970
 50
180.000000
 51
-88.853320
  0
LINE
  8
L1-Copper
 10
13.240000
 20
185.954960
 30
0.0
 11
13.240000
 21
186.205000
 31
0.0
  0
ARC
  8
L1-Copper
 10
13.190000
 20
186.205000
 30
0.0
 40
0.050000
 50
0.000000
 51
90.000000
  0
LINE
  8
L1-Copper
 10
13.190000
 20
186.255000
 30
0.0
 11
13.036610
 21
186.255000
 31
0.0
  0
ARC
  8
L1-Copper
 10
13.036610
 20
186.305000
 30
0.0
 40
0.050000
 50
-170.409571
 51
-90.000000
  0
ARC
  8
L1-Copper
 10
12.445000
 20
186.204990
 30
0.0
 40
0.550000
 50
9.595391
 51
28.955243
  0
ARC
  8
L1-Copper
 10
12.969970
 20
186.495450
 30
0.0
 40
0.049970
 50
-153.429821
 51
-151.044522
  0
ARC
  8
L1-Copper
 10
12.970010
 20
186.495470
 30
0.0
 40
0.050010
 50
180.000000
 51
-153.429825
  0
LINE
  8
L1-Copper
 10
12.920000
 20
186.495470
 30
0.0
 11
12.920000
 21
186.793620
 31
0.0
  0
ARC
  8
L1-Copper
 10
12.969970
 20
186.793620
 30
0.0
 40
0.049970
 50
163.407284
 51
180.000000
  0
ARC
  8
L1-Copper
 10
12.395000
 20
186.965000
 30
0.0
 40
0.550000
 50
-16.598066
 51
-2.385250
  0
ARC
  8
L1-Copper
 10
12.994480
 20
186.940030
 30
0.0
 40
0.050000
 50
90.000000
 51
177.615964
  0
ARC
  8
L1-Copper
 10
12.994480
 20
186.940060
 30
0.0
 40
0.049970
 50
89.403788
 51
90.000000
  0
ARC
  8
L1-Copper
 10
13.000730
 20
187.540010
 30
0.0
 40
0.550010
 50
-90.596918
 51
-90.076046
  0
LINE
  8
L1-Copper
 10
13.000000
 20
186.990000
 30
0.0
 11
13.510000
 21
186.990000
 31
0.0
  0
ARC
  8
L1-Copper
 10
13.510000
 20
187.540000
 30
0.0
 40
0.550000
 50
-90.000000
 51
-71.803885
  0
ARC
  8
L1-Copper
 10
13.697350
 20
186.970030
 30
0.0
 40
0.049970
 50
90.000000
 51
108.192003
  0
LINE
  8
L1-Copper
 10
13.697350
 20
187.020000
 30
0.0
 11
14.565790
 21
187.020000
 31
0.0
  0
ARC
  8
L1-Copper
 10
14.565790
 20
186.694990
 30
0.0
 40
0.325010
 50
45.001247
 51
90.000000
  0
LINE
  8
L1-Copper
 10
14.795600
 20
186.924810
 30
0.0
 11
17.719280
 21
184.001130
 31
0.0
  0
ARC
  8
L1-Copper
 10
17.683950
 20
183.965800
 30
0.0
 40
0.049970
 50
44.124333
 51
45.000000
  0
ARC
  8
L1-Copper
 10
17.489990
 20
183.770780
 30
0.0
 40
0.325010
 50
0.000000
 51
44.997507
  0
LINE
  8
L1-Copper
 10
17.815000
 20
183.770780
 30
0.0
 11
17.815000
 21
181.845000
 31
0.0
  0
ARC
  8
L1-Copper
 10
18.490000
 20
181.845000
 30
0.0
 40
0.675000
 50
180.000000
 51
-172.330025
  0
ARC
  8
L1-Copper
 10
17.771520
 20
181.748240
 30
0.0
 40
0.049970
 50
7.635556
 51
7.671175
  0
ARC
  8
L1-Copper
 10
18.440530
 20
181.837880
 30
0.0
 40
0.625020
 50
-172.368768
 51
-171.784853
  0
LINE
  8
L1-Copper
 10
17.821920
 20
181.748570
 30
0.0
 11
17.864490
 21
181.453650
 31
0.0
  0
ARC
  8
L1-Copper
 10
17.815030
 20
181.446510
 30
0.0
 40
0.049970
 50
0.000000
 51
8.214418
  0
LINE
  8
L1-Copper
 10
17.865000
 20
181.446510
 30
0.0
 11
17.865000
 21
181.299150
 31
0.0
  0
ARC
  8
L1-Copper
 10
17.815030
 20
181.299150
 30
0.0
 40
0.049970
 50
-66.431026
 51
0.000000
  0
ARC
  8
L1-Copper
 10
17.915000
 20
181.070000
 30
0.0
 40
0.200040
 50
113.570172
 51
134.424793
  0
ARC
  8
L1-Copper
 10
17.740000
 20
181.248550
 30
0.0
 40
0.049970
 50
-134.424386
 51
-45.575614
  0
ARC
  8
L1-Copper
 10
17.565000
 20
181.070000
 30
0.0
 40
0.200040
 50
45.575207
 51
90.000000
  0
LINE
  8
L1-Copper
 10
17.565000
 20
181.270040
 30
0.0
 11
17.415000
 21
181.270040
 31
0.0
  0
ARC
  8
L1-Copper
 10
17.415000
 20
181.070000
 30
0.0
 40
0.200040
 50
90.000000
 51
180.000000
  0
LINE
  8
L1-Copper
 10
17.214960
 20
181.070000
 30
0.0
 11
17.214960
 21
180.670000
 31
0.0
  0
ARC
  8
L1-Copper
 10
17.415000
 20
180.670000
 30
0.0
 40
0.200040
 50
180.000000
 51
-132.210110
  0
ARC
  8
L1-Copper
 10
17.247030
 20
180.484820
 30
0.0
 40
0.049970
 50
-44.359533
 51
47.790332
  0
ARC
  8
L1-Copper
 10
17.390010
 20
180.345000
 30
0.0
 40
0.150010
 50
135.640104
 51
180.000000
  0
LINE
  8
L1-Copper
 10
17.240000
 20
180.345000
 30
0.0
 11
17.240000
 21
180.095000
 31
0.0
  0
ARC
  8
L1-Copper
 10
17.390000
 20
180.095000
 30
0.0
 40
0.150000
 50
180.000000
 51
-151.635861
  0
ARC
  8
L1-Copper
 10
17.214040
 20
180.000000
 30
0.0
 40
0.049970
 50
-90.000000
 51
28.365212
  0
LINE
  8
L1-Copper
 10
17.214040
 20
179.950030
 30
0.0
 11
0.550010
 21
179.950030
 31
0.0
  0
ARC
  8
L1-Copper
 10
12.400000
 20
181.205000
 30
0.0
 40
0.200040
 50
-90.000000
 51
-16.224344
  0
ARC
  8
L1-Copper
 10
12.640050
 20
181.135150
 30
0.0
 40
0.049970
 50
113.579483
 51
163.777404
  0
ARC
  8
L1-Copper
 10
12.400000
 20
181.685000
 30
0.0
 40
0.550000
 50
-66.414704
 51
0.000000
  0
LINE
  8
L1-Copper
 10
12.950000
 20
181.685000
 30
0.0
 11
12.950000
 21
181.865000
 31
0.0
  0
ARC
  8
L1-Copper
 10
12.399980
 20
181.865030
 30
0.0
 40
0.550020
 50
-0.003125
 51
15.784850
  0
ARC
  8
L1-Copper
 10
12.977350
 20
182.028240
 30
0.0
 40
0.049970
 50
152.532485
 51
-164.219966
  0
ARC
  8
L1-Copper
 10
12.444960
 20
182.304920
 30
0.0
 40
0.550020
 50
-27.460014
 51
-9.585626
  0
ARC
  8
L1-Copper
 10
13.036570
 20
182.205010
 30
0.0
 40
0.049970
 50
161.568677
 51
170.415146
  0
ARC
  8
L1-Copper
 10
13.036600
 20
182.205000
 30
0.0
 40
0.050010
 50
90.000000
 51
161.568675
  0
LINE
  8
L1-Copper
 10
13.036600
 20
182.255000
 30
0.0
 11
13.200000
 21
182.255000
 31
0.0
  0
ARC
  8
L1-Copper
 10
13.200000
 20
182.305000
 30
0.0
 40
0.050000
 50
-90.000000
 51
0.000000
  0
LINE
  8
L1-Copper
 10
13.250000
 20
182.305000
 30
0.0
 11
13.250000
 21
182.554990
 31
0.0
  0
ARC
  8
L1-Copper
 10
13.299970
 20
182.554990
 30
0.0
 40
0.049970
 50
90.000000
 51
180.000000
  0
LINE
  8
L1-Copper
 10
13.299970
 20
182.604960
 30
0.0
 11
14.195000
 21
182.604960
 31
0.0
  0
ARC
  8
L1-Copper
 10
14.195000
 20
182.805000
 30
0.0
 40
0.200040
 50
-90.000000
 51
0.000000
  0
LINE
  8
L1-Copper
 10
14.395040
 20
182.805000
 30
0.0
 11
14.395040
 21
183.705000
 31
0.0
  0
ARC
  8
L1-Copper
 10
14.195000
 20
183.705000
 30
0.0
 40
0.200040
 50
0.000000
 51
90.000000
  0
LINE
  8
L1-Copper
 10
14.195000
 20
183.905040
 30
0.0
 11
13.295000
 21
183.905040
 31
0.0
  0
ARC
  8
L1-Copper
 10
13.295000
 20
183.705000
 30
0.0
 40
0.200040
 50
90.000000
 51
156.429828
  0
ARC
  8
L1-Copper
 10
13.065850
 20
183.804970
 30
0.0
 40
0.049970
 50
-90.000000
 51
-23.568974
  0
LINE
  8
L1-Copper
 10
13.065850
 20
183.755000
 30
0.0
 11
11.424150
 21
183.755000
 31
0.0
  0
ARC
  8
L1-Copper
 10
11.424150
 20
183.804970
 30
0.0
 40
0.049970
 50
-156.431026
 51
-90.000000
  0
ARC
  8
L1-Copper
 10
11.195000
 20
183.705000
 30
0.0
 40
0.200040
 50
23.570172
 51
90.000000
  0
LINE
  8
L1-Copper
 10
11.195000
 20
183.905040
 30
0.0
 11
10.295000
 21
183.905040
 31
0.0
  0
ARC
  8
L1-Copper
 10
10.295000
 20
183.705000
 30
0.0
 40
0.200040
 50
90.000000
 51
180.000000
  0
LINE
  8
L1-Copper
 10
10.094960
 20
183.705000
 30
0.0
 11
10.094960
 21
182.805000
 31
0.0
  0
ARC
  8
L1-Copper
 10
10.295000
 20
182.805000
 30
0.0
 40
0.200040
 50
180.000000
 51
-90.000000
  0
LINE
  8
L1-Copper
 10
10.295000
 20
182.604960
 30
0.0
 11
11.195000
 21
182.604960
 31
0.0
  0
ARC
  8
L1-Copper
 10
11.195000
 20
182.805000
 30
0.0
 40
0.200040
 50
-90.000000
 51
-89.991407
  0
ARC
  8
L1-Copper
 10
11.195030
 20
182.554990
 30
0.0
 40
0.049970
 50
0.000000
 51
90.000000
  0
LINE
  8
L1-Copper
 10
11.245000
 20
182.554990
 30
0.0
 11
11.245000
 21
182.305000
 31
0.0
  0
ARC
  8
L1-Copper
 10
11.295000
 20
182.305000
 30
0.0
 40
0.050000
 50
180.000000
 51
-90.000000
  0
LINE
  8
L1-Copper
 10
11.295000
 20
182.255000
 30
0.0
 11
11.453400
 21
182.255000
 31
0.0
  0
ARC
  8
L1-Copper
 10
11.453400
 20
182.205000
 30
0.0
 40
0.050000
 50
9.579129
 51
90.000000
  0
ARC
  8
L1-Copper
 10
12.045050
 20
182.304920
 30
0.0
 40
0.550030
 50
-170.413520
 51
-152.540467
  0
ARC
  8
L1-Copper
 10
11.512650
 20
182.028250
 30
0.0
 40
0.049970
 50
-15.791066
 51
27.457341
  0
ARC
  8
L1-Copper
 10
12.090010
 20
181.865040
 30
0.0
 40
0.550010
 50
164.215869
 51
-179.995833
  0
LINE
  8
L1-Copper
 10
11.540000
 20
181.865000
 30
0.0
 11
11.540000
 21
181.685000
 31
0.0
  0
ARC
  8
L1-Copper
 10
12.090000
 20
181.685000
 30
0.0
 40
0.550000
 50
180.000000
 51
-113.585296
  0
ARC
  8
L1-Copper
 10
11.849950
 20
181.135150
 30
0.0
 40
0.049970
 50
16.222596
 51
66.420517
  0
ARC
  8
L1-Copper
 10
12.090000
 20
181.205000
 30
0.0
 40
0.200040
 50
-163.775656
 51
-90.000000
  0
LINE
  8
L1-Copper
 10
12.090000
 20
181.004960
 30
0.0
 11
12.400000
 21
181.004960
 31
0.0
  0
ARC
  8
L2-Copper
 10
0.550010
 20
180.000000
 30
0.0
 40
0.049970
 50
180.000000
 51
-90.000000
  0
LINE
  8
L2-Copper
 10
0.500040
 20
180.000000
 30
0.0
 11
0.500040
 21
189.950030
 31
0.0
  0
ARC
  8
L2-Copper
 10
0.550010
 20
189.950030
 30
0.0
 40
0.049970
 50
90.000000
 51
180.000000
  0
LINE
  8
L2-Copper
 10
0.550010
 20
190.000000
 30
0.0
 11
20.000000
 21
190.000000
 31
0.0
  0
ARC
  8
L2-Copper
 10
20.000000
 20
189.950030
 30
0.0
 40
0.049970
 50
0.000000
 51
90.000000
  0
LINE
  8
L2-Copper
 10
20.049970
 20
189.950030
 30
0.0
 11
20.049970
 21
182.947220
 31
0.0
  0
ARC
  8
L2-Copper
 10
20.000000
 20
182.947220
 30
0.0
 40
0.049970
 50
-83.623088
 51
0.000000
  0
ARC
  8
L2-Copper
 10
20.050000
 20
182.500000
 30
0.0
 40
0.400040
 50
96.379575
 51
-128.943657
  0
ARC
  8
L2-Copper
 10
19.767140
 20
182.150000
 30
0.0
 40
0.049970
 50
-51.051871
 51
51.051871
  0
ARC
  8
L2-Copper
 10
20.050000
 20
181.800000
 30
0.0
 40
0.400040
 50
128.943657
 51
-96.379575
  0
ARC
  8
L2-Copper
 10
20.000000
 20
181.352780
 30
0.0
 40
0.049970
 50
0.000000
 51
83.623087
  0
LINE
  8
L2-Copper
 10
20.049970
 20
181.352780
 30
0.0
 11
20.049970
 21
180.000000
 31
0.0
  0
ARC
  8
L2-Copper
 10
20.000000
 20
180.000000
 30
0.0
 40
0.049970
 50
-90.000000
 51
0.000000
  0
LINE
  8
L2-Copper
 10
20.000000
 20
179.950030
 30
0.0
 11
0.550010
 21
179.950030
 31
0.0
  0
ARC
  8
L2-Copper
 10
14.195060
 20
182.305000
 30
0.0
 40
0.050000
 50
-90.000000
 51
-0.068755
  0
LINE
  8
L2-Copper
 10
14.245060
 20
182.304940
 30
0.0
 11
14.249940
 21
186.204940
 31
0.0
  0
ARC
  8
L2-Copper
 10
14.199940
 20
186.205000
 30
0.0
 40
0.050000
 50
-0.068755
 51
90.000000
  0
LINE
  8
L2-Copper
 10
14.199940
 20
186.255000
 30
0.0
 11
10.295000
 21
186.255000
 31
0.0
  0
ARC
  8
L2-Copper
 10
10.295000
 20
186.205000
 30
0.0
 40
0.050000
 50
90.000000
 51
180.000000
  0
LINE
  8
L2-Copper
 10
10.245000
 20
186.205000
 30
0.0
 11
10.245000
 21
182.305000
 31
0.0
  0
ARC
  8
L2-Copper
 10
10.295000
 20
182.305000
 30
0.0
 40
0.050000
 50
180.000000
 51
-90.000000
  0
LINE
  8
L2-Copper
 10
10.295000
 20
182.255000
 30
0.0
 11
14.195060
 21
182.255000
 31
0.0
  0
ARC
  8
L3-Copper
 10
0.550010
 20
180.000000
 30
0.0
 40
0.049970
 50
180.000000
 51
-90.000000
  0
LINE
  8
L3-Copper
 10
0.500040
 20
180.000000
 30
0.0
 11
0.500040
 21
189.950030
 31
0.0
  0
ARC
  8
L3-Copper
 10
0.550010
 20
189.950030
 30
0.0
 40
0.049970
 50
90.000000
 51
180.000000
  0
LINE
  8
L3-Copper
 10
0.550010
 20
190.000000
 30
0.0
 11
20.000000
 21
190.000000
 31
0.0
  0
ARC
  8
L3-Copper
 10
20.000000
 20
189.950030
 30
0.0
 40
0.049970
 50
0.000000
 51
90.000000
  0
LINE
  8
L3-Copper
 10
20.049970
 20
189.950030
 30
0.0
 11
20.049970
 21
182.947220
 31
0.0
  0
ARC
  8
L3-Copper
 10
20.000000
 20
182.947220
 30
0.0
 40
0.049970
 50
-83.623088
 51
0.000000
  0
ARC
  8
L3-Copper
 10
20.050000
 20
182.500000
 30
0.0
 40
0.400040
 50
96.379575
 51
-128.943657
  0
ARC
  8
L3-Copper
 10
19.767140
 20
182.150000
 30
0.0
 40
0.049970
 50
-51.051871
 51
51.051871
  0
ARC
  8
L3-Copper
 10
20.050000
 20
181.800000
 30
0.0
 40
0.400040
 50
128.943657
 51
-96.379575
  0
ARC
  8
L3-Copper
 10
20.000000
 20
181.352780
 30
0.0
 40
0.049970
 50
0.000000
 51
83.623087
  0
LINE
  8
L3-Copper
 10
20.049970
 20
181.352780
 30
0.0
 11
20.049970
 21
180.000000
 31
0.0
  0
ARC
  8
L3-Copper
 10
20.000000
 20
180.000000
 30
0.0
 40
0.049970
 50
-90.000000
 51
0.000000
  0
LINE
  8
L3-Copper
 10
20.000000
 20
179.950030
 30
0.0
 11
0.550010
 21
179.950030
 31
0.0
  0
ARC
  8
L4-Copper
 10
20.000000
 20
182.985000
 30
0.0
 40
0.075000
 50
-90.000000
 51
90.000000
  0
LINE
  8
L4-Copper
 10
20.000000
 20
182.910000
 30
0.0
 11
19.866070
 21
182.910000
 31
0.0
  0
LINE
  8
L4-Copper
 10
19.866070
 20
182.910000
 30
0.0
 11
18.253020
 21
181.296970
 31
0.0
  0
ARC
  8
L4-Copper
 10
18.199990
 20
181.350000
 30
0.0
 40
0.075000
 50
-90.000000
 51
-45.000175
  0
LINE
  8
L4-Copper
 10
18.199990
 20
181.275000
 30
0.0
 11
13.581070
 21
181.275000
 31
0.0
  0
LINE
  8
L4-Copper
 10
13.581070
 20
181.275000
 30
0.0
 11
12.253030
 21
179.946970
 31
0.0
  0
ARC
  8
L4-Copper
 10
12.200000
 20
180.000000
 30
0.0
 40
0.075000
 50
135.000000
 51
-45.000000
  0
LINE
  8
L4-Copper
 10
12.146970
 20
180.053030
 30
0.0
 11
13.496970
 21
181.403030
 31
0.0
  0
ARC
  8
L4-Copper
 10
13.550000
 20
181.350000
 30
0.0
 40
0.075000
 50
90.000000
 51
135.000000
  0
LINE
  8
L4-Copper
 10
13.550000
 20
181.425000
 30
0.0
 11
18.168920
 21
181.425000
 31
0.0
  0
LINE
  8
L4-Copper
 10
18.168920
 20
181.425000
 30
0.0
 11
19.781970
 21
183.038030
 31
0.0
  0
ARC
  8
L4-Copper
 10
19.835000
 20
182.985000
 30
0.0
 40
0.075000
 50
90.000000
 51
135.000000
  0
LINE
  8
L4-Copper
 10
19.835000
 20
183.060000
 30
0.0
 11
20.000000
 21
183.060000
 31
0.0
  0
ARC
  8
L4-Copper
 10
13.545000
 20
180.000000
 30
0.0
 40
0.075000
 50
135.000000
 51
-45.000000
  0
LINE
  8
L4-Copper
 10
13.491970
 20
180.053030
 30
0.0
 11
14.541970
 21
181.103030
 31
0.0
  0
ARC
  8
L4-Copper
 10
14.595000
 20
181.050000
 30
0.0
 40
0.075000
 50
90.000000
 51
135.000000
  0
LINE
  8
L4-Copper
 10
14.595000
 20
181.125000
 30
0.0
 11
18.568930
 21
181.125000
 31
0.0
  0
LINE
  8
L4-Copper
 10
18.568930
 20
181.125000
 30
0.0
 11
19.946970
 21
182.503030
 31
0.0
  0
ARC
  8
L4-Copper
 10
20.000000
 20
182.450000
 30
0.0
 40
0.075000
 50
-45.000000
 51
135.000000
  0
LINE
  8
L4-Copper
 10
20.053030
 20
182.396970
 30
0.0
 11
18.653030
 21
180.996970
 31
0.0
  0
ARC
  8
L4-Copper
 10
18.600000
 20
181.050000
 30
0.0
 40
0.075000
 50
-90.000000
 51
-45.000000
  0
LINE
  8
L4-Copper
 10
18.600000
 20
180.975000
 30
0.0
 11
14.626070
 21
180.975000
 31
0.0
  0
LINE
  8
L4-Copper
 10
14.626070
 20
180.975000
 30
0.0
 11
13.598030
 21
179.946970
 31
0.0
  0
ARC
  8
L4-Copper
 10
20.000000
 20
181.750000
 30
0.0
 40
0.075000
 50
-45.000000
 51
135.000000
  0
LINE
  8
L4-Copper
 10
20.053030
 20
181.696970
 30
0.0
 11
19.053030
 21
180.696970
 31
0.0
  0
ARC
  8
L4-Copper
 10
19.000000
 20
180.750000
 30
0.0
 40
0.075000
 50
-90.000000
 51
-45.000000
  0
LINE
  8
L4-Copper
 10
19.000000
 20
180.675000
 30
0.0
 11
15.771070
 21
180.675000
 31
0.0
  0
LINE
  8
L4-Copper
 10
15.771070
 20
180.675000
 30
0.0
 11
15.043030
 21
179.946970
 31
0.0
  0
ARC
  8
L4-Copper
 10
14.990000
 20
180.000000
 30
0.0
 40
0.075000
 50
135.000000
 51
-45.000000
  0
LINE
  8
L4-Copper
 10
14.936970
 20
180.053030
 30
0.0
 11
15.686970
 21
180.803030
 31
0.0
  0
ARC
  8
L4-Copper
 10
15.740000
 20
180.750000
 30
0.0
 40
0.075000
 50
90.000000
 51
135.000000
  0
LINE
  8
L4-Copper
 10
15.740000
 20
180.825000
 30
0.0
 11
18.968930
 21
180.825000
 31
0.0
  0
LINE
  8
L4-Copper
 10
18.968930
 20
180.825000
 30
0.0
 11
19.946970
 21
181.803030
 31
0.0
  0
ARC
  8
L4-Copper
 10
20.000000
 20
184.485000
 30
0.0
 40
0.075000
 50
-90.000000
 51
90.000000
  0
LINE
  8
L4-Copper
 10
20.000000
 20
184.410000
 30
0.0
 11
11.126020
 21
184.410000
 31
0.0
  0
LINE
  8
L4-Copper
 10
11.126020
 20
184.410000
 30
0.0
 11
6.662980
 21
179.946970
 31
0.0
  0
ARC
  8
L4-Copper
 10
6.609950
 20
180.000000
 30
0.0
 40
0.075000
 50
135.000000
 51
-45.000000
  0
LINE
  8
L4-Copper
 10
6.556920
 20
180.053030
 30
0.0
 11
11.041920
 21
184.538030
 31
0.0
  0
ARC
  8
L4-Copper
 10
11.094950
 20
184.485000
 30
0.0
 40
0.075000
 50
90.000000
 51
135.000000
  0
LINE
  8
L4-Copper
 10
11.094950
 20
184.560000
 30
0.0
 11
20.000000
 21
184.560000
 31
0.0
  0
ARC
  8
L4-Copper
 10
20.000000
 20
184.185000
 30
0.0
 40
0.075000
 50
-90.000000
 51
90.000000
  0
LINE
  8
L4-Copper
 10
20.000000
 20
184.110000
 30
0.0
 11
11.250340
 21
184.110000
 31
0.0
  0
LINE
  8
L4-Copper
 10
11.250340
 20
184.110000
 30
0.0
 11
7.087300
 21
179.946970
 31
0.0
  0
ARC
  8
L4-Copper
 10
7.034270
 20
180.000000
 30
0.0
 40
0.075000
 50
135.000000
 51
-45.000000
  0
LINE
  8
L4-Copper
 10
6.981240
 20
180.053030
 30
0.0
 11
11.166240
 21
184.238030
 31
0.0
  0
ARC
  8
L4-Copper
 10
11.219270
 20
184.185000
 30
0.0
 40
0.075000
 50
90.000000
 51
135.000000
  0
LINE
  8
L4-Copper
 10
11.219270
 20
184.260000
 30
0.0
 11
20.000000
 21
184.260000
 31
0.0
  0
ARC
  8
L4-Copper
 10
20.000000
 20
183.885000
 30
0.0
 40
0.075000
 50
-90.000000
 51
90.000000
  0
LINE
  8
L4-Copper
 10
20.000000
 20
183.810000
 30
0.0
 11
11.374660
 21
183.810000
 31
0.0
  0
LINE
  8
L4-Copper
 10
11.374660
 20
183.810000
 30
0.0
 11
7.511620
 21
179.946970
 31
0.0
  0
ARC
  8
L4-Copper
 10
7.458590
 20
180.000000
 30
0.0
 40
0.075000
 50
135.000000
 51
-45.000000
  0
LINE
  8
L4-Copper
 10
7.405560
 20
180.053030
 30
0.0
 11
11.290560
 21
183.938030
 31
0.0
  0
ARC
  8
L4-Copper
 10
11.343590
 20
183.885000
 30
0.0
 40
0.075000
 50
90.000000
 51
135.000000
  0
LINE
  8
L4-Copper
 10
11.343590
 20
183.960000
 30
0.0
 11
20.000000
 21
183.960000
 31
0.0
  0
ARC
  8
L4-Copper
 10
20.000000
 20
183.585000
 30
0.0
 40
0.075000
 50
-90.000000
 51
90.000000
  0
LINE
  8
L4-Copper
 10
20.000000
 20
183.510000
 30
0.0
 11
11.498980
 21
183.510000
 31
0.0
  0
LINE
  8
L4-Copper
 10
11.498980
 20
183.510000
 30
0.0
 11
7.935940
 21
179.946970
 31
0.0
  0
ARC
  8
L4-Copper
 10
7.882910
 20
180.000000
 30
0.0
 40
0.075000
 50
135.000000
 51
-45.000000
  0
LINE
  8
L4-Copper
 10
7.829880
 20
180.053030
 30
0.0
 11
11.414880
 21
183.638030
 31
0.0
  0
ARC
  8
L4-Copper
 10
11.467910
 20
183.585000
 30
0.0
 40
0.075000
 50
90.000000
 51
135.000000
  0
LINE
  8
L4-Copper
 10
11.467910
 20
183.660000
 30
0.0
 11
20.000000
 21
183.660000
 31
0.0
  0
ARC
  8
L4-Copper
 10
20.000000
 20
183.285000
 30
0.0
 40
0.075000
 50
-90.000000
 51
90.000000
  0
LINE
  8
L4-Copper
 10
20.000000
 20
183.210000
 30
0.0
 11
19.616070
 21
183.210000
 31
0.0
  0
LINE
  8
L4-Copper
 10
19.616070
 20
183.210000
 30
0.0
 11
18.003030
 21
181.596970
 31
0.0
  0
ARC
  8
L4-Copper
 10
17.950000
 20
181.650000
 30
0.0
 40
0.075000
 50
-90.000000
 51
-45.000000
  0
LINE
  8
L4-Copper
 10
17.950000
 20
181.575000
 30
0.0
 11
12.291070
 21
181.575000
 31
0.0
  0
LINE
  8
L4-Copper
 10
12.291070
 20
181.575000
 30
0.0
 11
10.663030
 21
179.946970
 31
0.0
  0
ARC
  8
L4-Copper
 10
10.610000
 20
180.000000
 30
0.0
 40
0.075000
 50
135.000000
 51
-45.000000
  0
LINE
  8
L4-Copper
 10
10.556970
 20
180.053030
 30
0.0
 11
12.206970
 21
181.703030
 31
0.0
  0
ARC
  8
L4-Copper
 10
12.260000
 20
181.650000
 30
0.0
 40
0.075000
 50
90.000000
 51
135.000000
  0
LINE
  8
L4-Copper
 10
12.260000
 20
181.725000
 30
0.0
 11
17.918930
 21
181.725000
 31
0.0
  0
LINE
  8
L4-Copper
 10
17.918930
 20
181.725000
 30
0.0
 11
19.531970
 21
183.338030
 31
0.0
  0
ARC
  8
L4-Copper
 10
19.585000
 20
183.285000
 30
0.0
 40
0.075000
 50
90.000000
 51
135.000000
  0
LINE
  8
L4-Copper
 10
19.585000
 20
183.360000
 30
0.0
 11
20.000000
 21
183.360000
 31
0.0
  0
ARC
  8
L4-Copper
 10
15.378920
 20
180.000000
 30
0.0
 40
0.049970
 50
135.000000
 51
-90.000000
  0
LINE
  8
L4-Copper
 10
15.343590
 20
180.035330
 30
0.0
 11
15.818580
 21
180.510320
 31
0.0
  0
ARC
  8
L4-Copper
 10
15.853910
 20
180.474990
 30
0.0
 40
0.049970
 50
90.000000
 51
135.000000
  0
LINE
  8
L4-Copper
 10
15.853910
 20
180.524960
 30
0.0
 11
19.000000
 21
180.524960
 31
0.0
  0
ARC
  8
L4-Copper
 10
19.000000
 20
180.750000
 30
0.0
 40
0.225040
 50
-90.000000
 51
-45.000000
  0
LINE
  8
L4-Copper
 10
19.159130
 20
180.590870
 30
0.0
 11
19.957260
 21
181.389000
 31
0.0
  0
ARC
  8
L4-Copper
 10
19.992590
 20
181.353670
 30
0.0
 40
0.049970
 50
82.675868
 51
135.000000
  0
ARC
  8
L4-Copper
 10
20.050000
 20
181.800000
 30
0.0
 40
0.400040
 50
-97.330202
 51
-96.379575
  0
ARC
  8
L4-Copper
 10
20.000000
 20
181.352780
 30
0.0
 40
0.049970
 50
0.000000
 51
83.623087
  0
LINE
  8
L4-Copper
 10
20.049970
 20
181.352780
 30
0.0
 11
20.049970
 21
180.000000
 31
0.0
  0
ARC
  8
L4-Copper
 10
20.000000
 20
180.000000
 30
0.0
 40
0.049970
 50
-90.000000
 51
0.000000
  0
LINE
  8
L4-Copper
 10
20.000000
 20
179.950030
 30
0.0
 11
15.378920
 21
179.950030
 31
0.0
  0
ARC
  8
L4-Copper
 10
13.933920
 20
180.000000
 30
0.0
 40
0.049970
 50
135.000000
 51
-90.000000
  0
LINE
  8
L4-Copper
 10
13.898590
 20
180.035330
 30
0.0
 11
14.673580
 21
180.810320
 31
0.0
  0
ARC
  8
L4-Copper
 10
14.708910
 20
180.774990
 30
0.0
 40
0.049970
 50
90.000000
 51
135.000000
  0
LINE
  8
L4-Copper
 10
14.708910
 20
180.824960
 30
0.0
 11
15.376070
 21
180.824960
 31
0.0
  0
ARC
  8
L4-Copper
 10
15.376070
 20
180.774990
 30
0.0
 40
0.049970
 50
-45.000000
 51
90.000000
  0
LINE
  8
L4-Copper
 10
15.411400
 20
180.739660
 30
0.0
 11
14.636410
 21
179.964670
 31
0.0
  0
ARC
  8
L4-Copper
 10
14.601080
 20
180.000000
 30
0.0
 40
0.049970
 50
-90.000000
 51
-45.000000
  0
LINE
  8
L4-Copper
 10
14.601080
 20
179.950030
 30
0.0
 11
13.933920
 21
179.950030
 31
0.0
  0
ARC
  8
L4-Copper
 10
12.588920
 20
180.000000
 30
0.0
 40
0.049970
 50
135.000000
 51
-90.000000
  0
LINE
  8
L4-Copper
 10
12.553590
 20
180.035330
 30
0.0
 11
13.628580
 21
181.110320
 31
0.0
  0
ARC
  8
L4-Copper
 10
13.663910
 20
181.074990
 30
0.0
 40
0.049970
 50
90.000000
 51
135.000000
  0
LINE
  8
L4-Copper
 10
13.663910
 20
181.124960
 30
0.0
 11
14.231070
 21
181.124960
 31
0.0
  0
ARC
  8
L4-Copper
 10
14.231070
 20
181.074990
 30
0.0
 40
0.049970
 50
-45.000000
 51
90.000000
  0
LINE
  8
L4-Copper
 10
14.266400
 20
181.039660
 30
0.0
 11
13.191410
 21
179.964670
 31
0.0
  0
ARC
  8
L4-Copper
 10
13.156080
 20
180.000000
 30
0.0
 40
0.049970
 50
-90.000000
 51
-45.000000
  0
LINE
  8
L4-Copper
 10
13.156080
 20
179.950030
 30
0.0
 11
12.588920
 21
179.950030
 31
0.0
  0
ARC
  8
L4-Copper
 10
10.998920
 20
180.000000
 30
0.0
 40
0.049970
 50
135.000000
 51
-90.000000
  0
LINE
  8
L4-Copper
 10
10.963590
 20
180.035330
 30
0.0
 11
12.338580
 21
181.410320
 31
0.0
  0
ARC
  8
L4-Copper
 10
12.373910
 20
181.374990
 30
0.0
 40
0.049970
 50
90.000000
 51
135.000000
  0
LINE
  8
L4-Copper
 10
12.373910
 20
181.424960
 30
0.0
 11
13.186070
 21
181.424960
 31
0.0
  0
ARC
  8
L4-Copper
 10
13.186070
 20
181.374990
 30
0.0
 40
0.049970
 50
-45.000000
 51
90.000000
  0
LINE
  8
L4-Copper
 10
13.221400
 20
181.339660
 30
0.0
 11
11.846410
 21
179.964670
 31
0.0
  0
ARC
  8
L4-Copper
 10
11.811080
 20
180.000000
 30
0.0
 40
0.049970
 50
-90.000000
 51
-45.000000
  0
LINE
  8
L4-Copper
 10
11.811080
 20
179.950030
 30
0.0
 11
10.998920
 21
179.950030
 31
0.0
  0
ARC
  8
L4-Copper
 10
8.271830
 20
180.000000
 30
0.0
 40
0.049970
 50
135.000000
 51
-90.000000
  0
LINE
  8
L4-Copper
 10
8.236500
 20
180.035330
 30
0.0
 11
11.546490
 21
183.345320
 31
0.0
  0
ARC
  8
L4-Copper
 10
11.581820
 20
183.309990
 30
0.0
 40
0.049970
 50
90.000000
 51
135.000000
  0
LINE
  8
L4-Copper
 10
11.581820
 20
183.359960
 30
0.0
 11
19.221070
 21
183.359960
 31
0.0
  0
ARC
  8
L4-Copper
 10
19.221070
 20
183.309990
 30
0.0
 40
0.049970
 50
-45.000000
 51
90.000000
  0
LINE
  8
L4-Copper
 10
19.256400
 20
183.274660
 30
0.0
 11
17.871420
 21
181.889680
 31
0.0
  0
ARC
  8
L4-Copper
 10
17.836090
 20
181.925010
 30
0.0
 40
0.049970
 50
-90.000000
 51
-45.000000
  0
LINE
  8
L4-Copper
 10
17.836090
 20
181.875040
 30
0.0
 11
12.260000
 21
181.875040
 31
0.0
  0
ARC
  8
L4-Copper
 10
12.260000
 20
181.650000
 30
0.0
 40
0.225040
 50
90.000000
 51
135.000000
  0
LINE
  8
L4-Copper
 10
12.100870
 20
181.809130
 30
0.0
 11
10.256410
 21
179.964670
 31
0.0
  0
ARC
  8
L4-Copper
 10
10.221080
 20
180.000000
 30
0.0
 40
0.049970
 50
-90.000000
 51
-45.000000
  0
LINE
  8
L4-Copper
 10
10.221080
 20
179.950030
 30
0.0
 11
8.271830
 21
179.950030
 31
0.0
  0
ARC
  8
L4-Copper
 10
0.550010
 20
180.000000
 30
0.0
 40
0.049970
 50
180.000000
 51
-90.000000
  0
LINE
  8
L4-Copper
 10
0.500040
 20
180.000000
 30
0.0
 11
0.500040
 21
189.950030
 31
0.0
  0
ARC
  8
L4-Copper
 10
0.550010
 20
189.950030
 30
0.0
 40
0.049970
 50
90.000000
 51
180.000000
  0
LINE
  8
L4-Copper
 10
0.550010
 20
190.000000
 30
0.0
 11
20.000000
 21
190.000000
 31
0.0
  0
ARC
  8
L4-Copper
 10
20.000000
 20
189.950030
 30
0.0
 40
0.049970
 50
0.000000
 51
90.000000
  0
LINE
  8
L4-Copper
 10
20.049970
 20
189.950030
 30
0.0
 11
20.049970
 21
184.760010
 31
0.0
  0
ARC
  8
L4-Copper
 10
20.000000
 20
184.760010
 30
0.0
 40
0.049970
 50
-90.000000
 51
0.000000
  0
LINE
  8
L4-Copper
 10
20.000000
 20
184.710040
 30
0.0
 11
11.094950
 21
184.710040
 31
0.0
  0
ARC
  8
L4-Copper
 10
11.094950
 20
184.485000
 30
0.0
 40
0.225040
 50
90.000000
 51
135.000000
  0
LINE
  8
L4-Copper
 10
10.935820
 20
184.644130
 30
0.0
 11
6.256360
 21
179.964670
 31
0.0
  0
ARC
  8
L4-Copper
 10
6.221030
 20
180.000000
 30
0.0
 40
0.049970
 50
-90.000000
 51
-45.000000
  0
LINE
  8
L4-Copper
 10
6.221030
 20
179.950030
 30
0.0
 11
0.550010
 21
179.950030
 31
0.0
  0
ARC
  8
PCBoutline
 10
20.000000
 20
200.000000
 30
0.0
 40
0.050000
 50
-90.000000
 51
90.000000
  0
LINE
  8
PCBoutline
 10
20.000000
 20
199.950000
 30
0.0
 11
0.050000
 21
199.950000
 31
0.0
  0
LINE
  8
PCBoutline
 10
0.050000
 20
199.950000
 30
0.0
 11
0.050000
 21
180.000000
 31
0.0
  0
ARC
  8
PCBoutline
 10
0.000000
 20
180.000000
 30
0.0
 40
0.050000
 50
180.000000
 51
0.000000
  0
LINE
  8
PCBoutline
 10
-0.050000
 20
180.000000
 30
0.0
 11
-0.050000
 21
200.000000
 31
0.0
  0
ARC
  8
PCBoutline
 10
0.000000
 20
200.000000
 30
0.0
 40
0.050000
 50
90.000000
 51
180.000000
  0
LINE
  8
PCBoutline
 10
0.000000
 20
200.050000
 30
0.0
 11
20.000000
 21
200.050000
 31
0.0
  0
ARC
  8
L1-Copper
 10
3.305000
 20
187.540000
 30
0.0
 40
0.050000
 50
180.000000
 51
-90.000000
  0
LINE
  8
L1-Copper
 10
3.255000
 20
187.540000
 30
0.0
 11
3.255000
 21
187.850000
 31
0.0
  0
ARC
  8
L1-Copper
 10
3.305000
 20
187.850000
 30
0.0
 40
0.050000
 50
90.000000
 51
180.000000
  0
LINE
  8
L1-Copper
 10
3.305000
 20
187.900000
 30
0.0
 11
3.485000
 21
187.900000
 31
0.0
  0
ARC
  8
L1-Copper
 10
3.485000
 20
187.850000
 30
0.0
 40
0.050000
 50
0.000000
 51
90.000000
  0
LINE
  8
L1-Copper
 10
3.535000
 20
187.850000
 30
0.0
 11
3.535000
 21
187.540000
 31
0.0
  0
ARC
  8
L1-Copper
 10
3.485000
 20
187.540000
 30
0.0
 40
0.050000
 50
-90.000000
 51
0.000000
  0
LINE
  8
L1-Copper
 10
3.485000
 20
187.490000
 30
0.0
 11
3.305000
 21
187.490000
 31
0.0
  0
ARC
  8
L1-Copper
 10
3.965000
 20
187.850000
 30
0.0
 40
0.050000
 50
0.000000
 51
90.000000
  0
LINE
  8
L1-Copper
 10
4.015000
 20
187.850000
 30
0.0
 11
4.015000
 21
187.540000
 31
0.0
  0
ARC
  8
L1-Copper
 10
3.965000
 20
187.540000
 30
0.0
 40
0.050000
 50
-90.000000
 51
0.000000
  0
LINE
  8
L1-Copper
 10
3.965000
 20
187.490000
 30
0.0
 11
3.785000
 21
187.490000
 31
0.0
  0
ARC
  8
L1-Copper
 10
3.785000
 20
187.540000
 30
0.0
 40
0.050000
 50
180.000000
 51
-90.000000
  0
LINE
  8
L1-Copper
 10
3.735000
 20
187.540000
 30
0.0
 11
3.735000
 21
187.850000
 31
0.0
  0
ARC
  8
L1-Copper
 10
3.785000
 20
187.850000
 30
0.0
 40
0.050000
 50
90.000000
 51
180.000000
  0
LINE
  8
L1-Copper
 10
3.785000
 20
187.900000
 30
0.0
 11
3.965000
 21
187.900000
 31
0.0
  0
ARC
  8
Resist-A
 10
3.935000
 20
187.820000
 30
0.0
 40
0.050000
 50
0.000000
 51
90.000000
  0
LINE
  8
Resist-A
 10
3.985000
 20
187.820000
 30
0.0
 11
3.985000
 21
187.570000
 31
0.0
  0
ARC
  8
Resist-A
 10
3.935000
 20
187.570000
 30
0.0
 40
0.050000
 50
-90.000000
 51
0.000000
  0
LINE
  8
Resist-A
 10
3.935000
 20
187.520000
 30
0.0
 11
3.335000
 21
187.520000
 31
0.0
  0
ARC
  8
Resist-A
 10
3.335000
 20
187.570000
 30
0.0
 40
0.050000
 50
180.000000
 51
-90.000000
  0
LINE
  8
Resist-A
 10
3.285000
 20
187.570000
 30
0.0
 11
3.285000
 21
187.820000
 31
0.0
  0
ARC
  8
Resist-A
 10
3.335000
 20
187.820000
 30
0.0
 40
0.050000
 50
90.000000
 51
180.000000
  0
LINE
  8
Resist-A
 10
3.335000
 20
187.870000
 30
0.0
 11
3.935000
 21
187.870000
 31
0.0
  0
LINE
  8
PartsFrame-A
 10
3.335000
 20
187.545000
 30
0.0
 11
3.935000
 21
187.545000
 31
0.0
  0
LINE
  8
PartsFrame-A
 10
3.935000
 20
187.545000
 30
0.0
 11
3.935000
 21
187.845000
 31
0.0
  0
LINE
  8
PartsFrame-A
 10
3.935000
 20
187.845000
 30
0.0
 11
3.335000
 21
187.845000
 31
0.0
  0
LINE
  8
PartsFrame-A
 10
3.335000
 20
187.845000
 30
0.0
 11
3.335000
 21
187.545000
 31
0.0
  0
ARC
  8
L1-Copper
 10
12.085000
 20
187.625000
 30
0.0
 40
0.050000
 50
90.000000
 51
180.000000
  0
LINE
  8
L1-Copper
 10
12.085000
 20
187.675000
 30
0.0
 11
12.395000
 21
187.675000
 31
0.0
  0
ARC
  8
L1-Copper
 10
12.395000
 20
187.625000
 30
0.0
 40
0.050000
 50
0.000000
 51
90.000000
  0
LINE
  8
L1-Copper
 10
12.445000
 20
187.625000
 30
0.0
 11
12.445000
 21
187.445000
 31
0.0
  0
ARC
  8
L1-Copper
 10
12.395000
 20
187.445000
 30
0.0
 40
0.050000
 50
-90.000000
 51
0.000000
  0
LINE
  8
L1-Copper
 10
12.395000
 20
187.395000
 30
0.0
 11
12.085000
 21
187.395000
 31
0.0
  0
ARC
  8
L1-Copper
 10
12.085000
 20
187.445000
 30
0.0
 40
0.050000
 50
180.000000
 51
-90.000000
  0
LINE
  8
L1-Copper
 10
12.035000
 20
187.445000
 30
0.0
 11
12.035000
 21
187.625000
 31
0.0
  0
ARC
  8
L1-Copper
 10
12.395000
 20
186.965000
 30
0.0
 40
0.050000
 50
-90.000000
 51
0.000000
  0
LINE
  8
L1-Copper
 10
12.395000
 20
186.915000
 30
0.0
 11
12.085000
 21
186.915000
 31
0.0
  0
ARC
  8
L1-Copper
 10
12.085000
 20
186.965000
 30
0.0
 40
0.050000
 50
180.000000
 51
-90.000000
  0
LINE
  8
L1-Copper
 10
12.035000
 20
186.965000
 30
0.0
 11
12.035000
 21
187.145000
 31
0.0
  0
ARC
  8
L1-Copper
 10
12.085000
 20
187.145000
 30
0.0
 40
0.050000
 50
90.000000
 51
180.000000
  0
LINE
  8
L1-Copper
 10
12.085000
 20
187.195000
 30
0.0
 11
12.395000
 21
187.195000
 31
0.0
  0
ARC
  8
L1-Copper
 10
12.395000
 20
187.145000
 30
0.0
 40
0.050000
 50
0.000000
 51
90.000000
  0
LINE
  8
L1-Copper
 10
12.445000
 20
187.145000
 30
0.0
 11
12.445000
 21
186.965000
 31
0.0
  0
ARC
  8
Resist-A
 10
12.365000
 20
186.995000
 30
0.0
 40
0.050000
 50
-90.000000
 51
0.000000
  0
LINE
  8
Resist-A
 10
12.365000
 20
186.945000
 30
0.0
 11
12.115000
 21
186.945000
 31
0.0
  0
ARC
  8
Resist-A
 10
12.115000
 20
186.995000
 30
0.0
 40
0.050000
 50
180.000000
 51
-90.000000
  0
LINE
  8
Resist-A
 10
12.065000
 20
186.995000
 30
0.0
 11
12.065000
 21
187.595000
 31
0.0
  0
ARC
  8
Resist-A
 10
12.115000
 20
187.595000
 30
0.0
 40
0.050000
 50
90.000000
 51
180.000000
  0
LINE
  8
Resist-A
 10
12.115000
 20
187.645000
 30
0.0
 11
12.365000
 21
187.645000
 31
0.0
  0
ARC
  8
Resist-A
 10
12.365000
 20
187.595000
 30
0.0
 40
0.050000
 50
0.000000
 51
90.000000
  0
LINE
  8
Resist-A
 10
12.415000
 20
187.595000
 30
0.0
 11
12.415000
 21
186.995000
 31
0.0
  0
LINE
  8
PartsFrame-A
 10
12.090000
 20
187.595000
 30
0.0
 11
12.090000
 21
186.995000
 31
0.0
  0
LINE
  8
PartsFrame-A
 10
12.090000
 20
186.995000
 30
0.0
 11
12.390000
 21
186.995000
 31
0.0
  0
LINE
  8
PartsFrame-A
 10
12.390000
 20
186.995000
 30
0.0
 11
12.390000
 21
187.595000
 31
0.0
  0
LINE
  8
PartsFrame-A
 10
12.390000
 20
187.595000
 30
0.0
 11
12.090000
 21
187.595000
 31
0.0
  0
ARC
  8
L1-Copper
 10
5.980000
 20
187.540000
 30
0.0
 40
0.050000
 50
180.000000
 51
-90.000000
  0
LINE
  8
L1-Copper
 10
5.930000
 20
187.540000
 30
0.0
 11
5.930000
 21
187.850000
 31
0.0
  0
ARC
  8
L1-Copper
 10
5.980000
 20
187.850000
 30
0.0
 40
0.050000
 50
90.000000
 51
180.000000
  0
LINE
  8
L1-Copper
 10
5.980000
 20
187.900000
 30
0.0
 11
6.160000
 21
187.900000
 31
0.0
  0
ARC
  8
L1-Copper
 10
6.160000
 20
187.850000
 30
0.0
 40
0.050000
 50
0.000000
 51
90.000000
  0
LINE
  8
L1-Copper
 10
6.210000
 20
187.850000
 30
0.0
 11
6.210000
 21
187.540000
 31
0.0
  0
ARC
  8
L1-Copper
 10
6.160000
 20
187.540000
 30
0.0
 40
0.050000
 50
-90.000000
 51
0.000000
  0
LINE
  8
L1-Copper
 10
6.160000
 20
187.490000
 30
0.0
 11
5.980000
 21
187.490000
 31
0.0
  0
ARC
  8
L1-Copper
 10
6.640000
 20
187.850000
 30
0.0
 40
0.050000
 50
0.000000
 51
90.000000
  0
LINE
  8
L1-Copper
 10
6.690000
 20
187.850000
 30
0.0
 11
6.690000
 21
187.540000
 31
0.0
  0
ARC
  8
L1-Copper
 10
6.640000
 20
187.540000
 30
0.0
 40
0.050000
 50
-90.000000
 51
0.000000
  0
LINE
  8
L1-Copper
 10
6.640000
 20
187.490000
 30
0.0
 11
6.460000
 21
187.490000
 31
0.0
  0
ARC
  8
L1-Copper
 10
6.460000
 20
187.540000
 30
0.0
 40
0.050000
 50
180.000000
 51
-90.000000
  0
LINE
  8
L1-Copper
 10
6.410000
 20
187.540000
 30
0.0
 11
6.410000
 21
187.850000
 31
0.0
  0
ARC
  8
L1-Copper
 10
6.460000
 20
187.850000
 30
0.0
 40
0.050000
 50
90.000000
 51
180.000000
  0
LINE
  8
L1-Copper
 10
6.460000
 20
187.900000
 30
0.0
 11
6.640000
 21
187.900000
 31
0.0
  0
ARC
  8
Resist-A
 10
6.610000
 20
187.820000
 30
0.0
 40
0.050000
 50
0.000000
 51
90.000000
  0
LINE
  8
Resist-A
 10
6.660000
 20
187.820000
 30
0.0
 11
6.660000
 21
187.570000
 31
0.0
  0
ARC
  8
Resist-A
 10
6.610000
 20
187.570000
 30
0.0
 40
0.050000
 50
-90.000000
 51
0.000000
  0
LINE
  8
Resist-A
 10
6.610000
 20
187.520000
 30
0.0
 11
6.010000
 21
187.520000
 31
0.0
  0
ARC
  8
Resist-A
 10
6.010000
 20
187.570000
 30
0.0
 40
0.050000
 50
180.000000
 51
-90.000000
  0
LINE
  8
Resist-A
 10
5.960000
 20
187.570000
 30
0.0
 11
5.960000
 21
187.820000
 31
0.0
  0
ARC
  8
Resist-A
 10
6.010000
 20
187.820000
 30
0.0
 40
0.050000
 50
90.000000
 51
180.000000
  0
LINE
  8
Resist-A
 10
6.010000
 20
187.870000
 30
0.0
 11
6.610000
 21
187.870000
 31
0.0
  0
LINE
  8
PartsFrame-A
 10
6.010000
 20
187.545000
 30
0.0
 11
6.610000
 21
187.545000
 31
0.0
  0
LINE
  8
PartsFrame-A
 10
6.610000
 20
187.545000
 30
0.0
 11
6.610000
 21
187.845000
 31
0.0
  0
LINE
  8
PartsFrame-A
 10
6.610000
 20
187.845000
 30
0.0
 11
6.010000
 21
187.845000
 31
0.0
  0
LINE
  8
PartsFrame-A
 10
6.010000
 20
187.845000
 30
0.0
 11
6.010000
 21
187.545000
 31
0.0
  0
ARC
  8
L1-Copper
 10
4.345000
 20
188.120000
 30
0.0
 40
0.050000
 50
180.000000
 51
-90.000000
  0
LINE
  8
L1-Copper
 10
4.295000
 20
188.120000
 30
0.0
 11
4.295000
 21
188.300000
 31
0.0
  0
ARC
  8
L1-Copper
 10
4.345000
 20
188.300000
 30
0.0
 40
0.050000
 50
90.000000
 51
180.000000
  0
LINE
  8
L1-Copper
 10
4.345000
 20
188.350000
 30
0.0
 11
4.655000
 21
188.350000
 31
0.0
  0
ARC
  8
L1-Copper
 10
4.655000
 20
188.300000
 30
0.0
 40
0.050000
 50
0.000000
 51
90.000000
  0
LINE
  8
L1-Copper
 10
4.705000
 20
188.300000
 30
0.0
 11
4.705000
 21
188.120000
 31
0.0
  0
ARC
  8
L1-Copper
 10
4.655000
 20
188.120000
 30
0.0
 40
0.050000
 50
-90.000000
 51
0.000000
  0
LINE
  8
L1-Copper
 10
4.655000
 20
188.070000
 30
0.0
 11
4.345000
 21
188.070000
 31
0.0
  0
ARC
  8
L1-Copper
 10
4.345000
 20
187.640000
 30
0.0
 40
0.050000
 50
180.000000
 51
-90.000000
  0
LINE
  8
L1-Copper
 10
4.295000
 20
187.640000
 30
0.0
 11
4.295000
 21
187.820000
 31
0.0
  0
ARC
  8
L1-Copper
 10
4.345000
 20
187.820000
 30
0.0
 40
0.050000
 50
90.000000
 51
180.000000
  0
LINE
  8
L1-Copper
 10
4.345000
 20
187.870000
 30
0.0
 11
4.655000
 21
187.870000
 31
0.0
  0
ARC
  8
L1-Copper
 10
4.655000
 20
187.820000
 30
0.0
 40
0.050000
 50
0.000000
 51
90.000000
  0
LINE
  8
L1-Copper
 10
4.705000
 20
187.820000
 30
0.0
 11
4.705000
 21
187.640000
 31
0.0
  0
ARC
  8
L1-Copper
 10
4.655000
 20
187.640000
 30
0.0
 40
0.050000
 50
-90.000000
 51
0.000000
  0
LINE
  8
L1-Copper
 10
4.655000
 20
187.590000
 30
0.0
 11
4.345000
 21
187.590000
 31
0.0
  0
ARC
  8
Resist-A
 10
4.625000
 20
187.670000
 30
0.0
 40
0.050000
 50
-90.000000
 51
0.000000
  0
LINE
  8
Resist-A
 10
4.625000
 20
187.620000
 30
0.0
 11
4.375000
 21
187.620000
 31
0.0
  0
ARC
  8
Resist-A
 10
4.375000
 20
187.670000
 30
0.0
 40
0.050000
 50
180.000000
 51
-90.000000
  0
LINE
  8
Resist-A
 10
4.325000
 20
187.670000
 30
0.0
 11
4.325000
 21
188.270000
 31
0.0
  0
ARC
  8
Resist-A
 10
4.375000
 20
188.270000
 30
0.0
 40
0.050000
 50
90.000000
 51
180.000000
  0
LINE
  8
Resist-A
 10
4.375000
 20
188.320000
 30
0.0
 11
4.625000
 21
188.320000
 31
0.0
  0
ARC
  8
Resist-A
 10
4.625000
 20
188.270000
 30
0.0
 40
0.050000
 50
0.000000
 51
90.000000
  0
LINE
  8
Resist-A
 10
4.675000
 20
188.270000
 30
0.0
 11
4.675000
 21
187.670000
 31
0.0
  0
LINE
  8
PartsFrame-A
 10
4.350000
 20
188.270000
 30
0.0
 11
4.350000
 21
187.670000
 31
0.0
  0
LINE
  8
PartsFrame-A
 10
4.350000
 20
187.670000
 30
0.0
 11
4.650000
 21
187.670000
 31
0.0
  0
LINE
  8
PartsFrame-A
 10
4.650000
 20
187.670000
 30
0.0
 11
4.650000
 21
188.270000
 31
0.0
  0
LINE
  8
PartsFrame-A
 10
4.650000
 20
188.270000
 30
0.0
 11
4.350000
 21
188.270000
 31
0.0
  0
ARC
  8
L1-Copper
 10
11.545000
 20
187.440000
 30
0.0
 40
0.050000
 50
-90.000000
 51
0.000000
  0
LINE
  8
L1-Copper
 10
11.545000
 20
187.390000
 30
0.0
 11
11.235000
 21
187.390000
 31
0.0
  0
ARC
  8
L1-Copper
 10
11.235000
 20
187.440000
 30
0.0
 40
0.050000
 50
180.000000
 51
-90.000000
  0
LINE
  8
L1-Copper
 10
11.185000
 20
187.440000
 30
0.0
 11
11.185000
 21
187.950000
 31
0.0
  0
ARC
  8
L1-Copper
 10
11.235000
 20
187.950000
 30
0.0
 40
0.050000
 50
90.000000
 51
180.000000
  0
LINE
  8
L1-Copper
 10
11.235000
 20
188.000000
 30
0.0
 11
11.545000
 21
188.000000
 31
0.0
  0
ARC
  8
L1-Copper
 10
11.545000
 20
187.950000
 30
0.0
 40
0.050000
 50
0.000000
 51
90.000000
  0
LINE
  8
L1-Copper
 10
11.595000
 20
187.950000
 30
0.0
 11
11.595000
 21
187.440000
 31
0.0
  0
ARC
  8
L1-Copper
 10
12.395000
 20
187.440000
 30
0.0
 40
0.050000
 50
-90.000000
 51
0.000000
  0
LINE
  8
L1-Copper
 10
12.395000
 20
187.390000
 30
0.0
 11
12.085000
 21
187.390000
 31
0.0
  0
ARC
  8
L1-Copper
 10
12.085000
 20
187.440000
 30
0.0
 40
0.050000
 50
180.000000
 51
-90.000000
  0
LINE
  8
L1-Copper
 10
12.035000
 20
187.440000
 30
0.0
 11
12.035000
 21
187.950000
 31
0.0
  0
ARC
  8
L1-Copper
 10
12.085000
 20
187.950000
 30
0.0
 40
0.050000
 50
90.000000
 51
180.000000
  0
LINE
  8
L1-Copper
 10
12.085000
 20
188.000000
 30
0.0
 11
12.395000
 21
188.000000
 31
0.0
  0
ARC
  8
L1-Copper
 10
12.395000
 20
187.950000
 30
0.0
 40
0.050000
 50
0.000000
 51
90.000000
  0
LINE
  8
L1-Copper
 10
12.445000
 20
187.950000
 30
0.0
 11
12.445000
 21
187.440000
 31
0.0
  0
ARC
  8
Resist-A
 10
11.515000
 20
187.920000
 30
0.0
 40
0.050000
 50
0.000000
 51
90.000000
  0
LINE
  8
Resist-A
 10
11.565000
 20
187.920000
 30
0.0
 11
11.565000
 21
187.470000
 31
0.0
  0
ARC
  8
Resist-A
 10
11.515000
 20
187.470000
 30
0.0
 40
0.050000
 50
-90.000000
 51
0.000000
  0
LINE
  8
Resist-A
 10
11.515000
 20
187.420000
 30
0.0
 11
11.265000
 21
187.420000
 31
0.0
  0
ARC
  8
Resist-A
 10
11.265000
 20
187.470000
 30
0.0
 40
0.050000
 50
180.000000
 51
-90.000000
  0
LINE
  8
Resist-A
 10
11.215000
 20
187.470000
 30
0.0
 11
11.215000
 21
187.920000
 31
0.0
  0
ARC
  8
Resist-A
 10
11.265000
 20
187.920000
 30
0.0
 40
0.050000
 50
90.000000
 51
180.000000
  0
LINE
  8
Resist-A
 10
11.265000
 20
187.970000
 30
0.0
 11
11.515000
 21
187.970000
 31
0.0
  0
ARC
  8
Resist-A
 10
12.365000
 20
187.920000
 30
0.0
 40
0.050000
 50
0.000000
 51
90.000000
  0
LINE
  8
Resist-A
 10
12.415000
 20
187.920000
 30
0.0
 11
12.415000
 21
187.470000
 31
0.0
  0
ARC
  8
Resist-A
 10
12.365000
 20
187.470000
 30
0.0
 40
0.050000
 50
-90.000000
 51
0.000000
  0
LINE
  8
Resist-A
 10
12.365000
 20
187.420000
 30
0.0
 11
12.115000
 21
187.420000
 31
0.0
  0
ARC
  8
Resist-A
 10
12.115000
 20
187.470000
 30
0.0
 40
0.050000
 50
180.000000
 51
-90.000000
  0
LINE
  8
Resist-A
 10
12.065000
 20
187.470000
 30
0.0
 11
12.065000
 21
187.920000
 31
0.0
  0
ARC
  8
Resist-A
 10
12.115000
 20
187.920000
 30
0.0
 40
0.050000
 50
90.000000
 51
180.000000
  0
LINE
  8
Resist-A
 10
12.115000
 20
187.970000
 30
0.0
 11
12.365000
 21
187.970000
 31
0.0
  0
LINE
  8
PartsFrame-A
 10
11.315000
 20
187.445000
 30
0.0
 11
12.315000
 21
187.445000
 31
0.0
  0
LINE
  8
PartsFrame-A
 10
12.315000
 20
187.445000
 30
0.0
 11
12.315000
 21
187.945000
 31
0.0
  0
LINE
  8
PartsFrame-A
 10
12.315000
 20
187.945000
 30
0.0
 11
11.315000
 21
187.945000
 31
0.0
  0
LINE
  8
PartsFrame-A
 10
11.315000
 20
187.945000
 30
0.0
 11
11.315000
 21
187.445000
 31
0.0
  0
ARC
  8
L1-Copper
 10
1.405000
 20
189.750000
 30
0.0
 40
0.050000
 50
0.000000
 51
90.000000
  0
LINE
  8
L1-Copper
 10
1.455000
 20
189.750000
 30
0.0
 11
1.455000
 21
189.570000
 31
0.0
  0
ARC
  8
L1-Copper
 10
1.405000
 20
189.570000
 30
0.0
 40
0.050000
 50
-90.000000
 51
0.000000
  0
LINE
  8
L1-Copper
 10
1.405000
 20
189.520000
 30
0.0
 11
1.095000
 21
189.520000
 31
0.0
  0
ARC
  8
L1-Copper
 10
1.095000
 20
189.570000
 30
0.0
 40
0.050000
 50
180.000000
 51
-90.000000
  0
LINE
  8
L1-Copper
 10
1.045000
 20
189.570000
 30
0.0
 11
1.045000
 21
189.750000
 31
0.0
  0
ARC
  8
L1-Copper
 10
1.095000
 20
189.750000
 30
0.0
 40
0.050000
 50
90.000000
 51
180.000000
  0
LINE
  8
L1-Copper
 10
1.095000
 20
189.800000
 30
0.0
 11
1.405000
 21
189.800000
 31
0.0
  0
ARC
  8
L1-Copper
 10
1.405000
 20
190.230000
 30
0.0
 40
0.050000
 50
0.000000
 51
90.000000
  0
LINE
  8
L1-Copper
 10
1.455000
 20
190.230000
 30
0.0
 11
1.455000
 21
190.050000
 31
0.0
  0
ARC
  8
L1-Copper
 10
1.405000
 20
190.050000
 30
0.0
 40
0.050000
 50
-90.000000
 51
0.000000
  0
LINE
  8
L1-Copper
 10
1.405000
 20
190.000000
 30
0.0
 11
1.095000
 21
190.000000
 31
0.0
  0
ARC
  8
L1-Copper
 10
1.095000
 20
190.050000
 30
0.0
 40
0.050000
 50
180.000000
 51
-90.000000
  0
LINE
  8
L1-Copper
 10
1.045000
 20
190.050000
 30
0.0
 11
1.045000
 21
190.230000
 31
0.0
  0
ARC
  8
L1-Copper
 10
1.095000
 20
190.230000
 30
0.0
 40
0.050000
 50
90.000000
 51
180.000000
  0
LINE
  8
L1-Copper
 10
1.095000
 20
190.280000
 30
0.0
 11
1.405000
 21
190.280000
 31
0.0
  0
ARC
  8
Resist-A
 10
1.125000
 20
190.200000
 30
0.0
 40
0.050000
 50
90.000000
 51
180.000000
  0
LINE
  8
Resist-A
 10
1.125000
 20
190.250000
 30
0.0
 11
1.375000
 21
190.250000
 31
0.0
  0
ARC
  8
Resist-A
 10
1.375000
 20
190.200000
 30
0.0
 40
0.050000
 50
0.000000
 51
90.000000
  0
LINE
  8
Resist-A
 10
1.425000
 20
190.200000
 30
0.0
 11
1.425000
 21
189.600000
 31
0.0
  0
ARC
  8
Resist-A
 10
1.375000
 20
189.600000
 30
0.0
 40
0.050000
 50
-90.000000
 51
0.000000
  0
LINE
  8
Resist-A
 10
1.375000
 20
189.550000
 30
0.0
 11
1.125000
 21
189.550000
 31
0.0
  0
ARC
  8
Resist-A
 10
1.125000
 20
189.600000
 30
0.0
 40
0.050000
 50
180.000000
 51
-90.000000
  0
LINE
  8
Resist-A
 10
1.075000
 20
189.600000
 30
0.0
 11
1.075000
 21
190.200000
 31
0.0
  0
LINE
  8
PartsFrame-A
 10
1.400000
 20
189.600000
 30
0.0
 11
1.400000
 21
190.200000
 31
0.0
  0
LINE
  8
PartsFrame-A
 10
1.400000
 20
190.200000
 30
0.0
 11
1.100000
 21
190.200000
 31
0.0
  0
LINE
  8
PartsFrame-A
 10
1.100000
 20
190.200000
 30
0.0
 11
1.100000
 21
189.600000
 31
0.0
  0
LINE
  8
PartsFrame-A
 10
1.100000
 20
189.600000
 30
0.0
 11
1.400000
 21
189.600000
 31
0.0
  0
ARC
  8
L1-Copper
 10
2.100000
 20
194.095000
 30
0.0
 40
0.050000
 50
-90.000000
 51
0.000000
  0
LINE
  8
L1-Copper
 10
2.100000
 20
194.045000
 30
0.0
 11
1.920000
 21
194.045000
 31
0.0
  0
ARC
  8
L1-Copper
 10
1.920000
 20
194.095000
 30
0.0
 40
0.050000
 50
180.000000
 51
-90.000000
  0
LINE
  8
L1-Copper
 10
1.870000
 20
194.095000
 30
0.0
 11
1.870000
 21
194.405000
 31
0.0
  0
ARC
  8
L1-Copper
 10
1.920000
 20
194.405000
 30
0.0
 40
0.050000
 50
90.000000
 51
180.000000
  0
LINE
  8
L1-Copper
 10
1.920000
 20
194.455000
 30
0.0
 11
2.100000
 21
194.455000
 31
0.0
  0
ARC
  8
L1-Copper
 10
2.100000
 20
194.405000
 30
0.0
 40
0.050000
 50
0.000000
 51
90.000000
  0
LINE
  8
L1-Copper
 10
2.150000
 20
194.405000
 30
0.0
 11
2.150000
 21
194.095000
 31
0.0
  0
ARC
  8
L1-Copper
 10
2.580000
 20
194.095000
 30
0.0
 40
0.050000
 50
-90.000000
 51
0.000000
  0
LINE
  8
L1-Copper
 10
2.580000
 20
194.045000
 30
0.0
 11
2.400000
 21
194.045000
 31
0.0
  0
ARC
  8
L1-Copper
 10
2.400000
 20
194.095000
 30
0.0
 40
0.050000
 50
180.000000
 51
-90.000000
  0
LINE
  8
L1-Copper
 10
2.350000
 20
194.095000
 30
0.0
 11
2.350000
 21
194.405000
 31
0.0
  0
ARC
  8
L1-Copper
 10
2.400000
 20
194.405000
 30
0.0
 40
0.050000
 50
90.000000
 51
180.000000
  0
LINE
  8
L1-Copper
 10
2.400000
 20
194.455000
 30
0.0
 11
2.580000
 21
194.455000
 31
0.0
  0
ARC
  8
L1-Copper
 10
2.580000
 20
194.405000
 30
0.0
 40
0.050000
 50
0.000000
 51
90.000000
  0
LINE
  8
L1-Copper
 10
2.630000
 20
194.405000
 30
0.0
 11
2.630000
 21
194.095000
 31
0.0
  0
ARC
  8
Resist-A
 10
2.550000
 20
194.375000
 30
0.0
 40
0.050000
 50
0.000000
 51
90.000000
  0
LINE
  8
Resist-A
 10
2.600000
 20
194.375000
 30
0.0
 11
2.600000
 21
194.125000
 31
0.0
  0
ARC
  8
Resist-A
 10
2.550000
 20
194.125000
 30
0.0
 40
0.050000
 50
-90.000000
 51
0.000000
  0
LINE
  8
Resist-A
 10
2.550000
 20
194.075000
 30
0.0
 11
1.950000
 21
194.075000
 31
0.0
  0
ARC
  8
Resist-A
 10
1.950000
 20
194.125000
 30
0.0
 40
0.050000
 50
180.000000
 51
-90.000000
  0
LINE
  8
Resist-A
 10
1.900000
 20
194.125000
 30
0.0
 11
1.900000
 21
194.375000
 31
0.0
  0
ARC
  8
Resist-A
 10
1.950000
 20
194.375000
 30
0.0
 40
0.050000
 50
90.000000
 51
180.000000
  0
LINE
  8
Resist-A
 10
1.950000
 20
194.425000
 30
0.0
 11
2.550000
 21
194.425000
 31
0.0
  0
LINE
  8
PartsFrame-A
 10
1.950000
 20
194.100000
 30
0.0
 11
2.550000
 21
194.100000
 31
0.0
  0
LINE
  8
PartsFrame-A
 10
2.550000
 20
194.100000
 30
0.0
 11
2.550000
 21
194.400000
 31
0.0
  0
LINE
  8
PartsFrame-A
 10
2.550000
 20
194.400000
 30
0.0
 11
1.950000
 21
194.400000
 31
0.0
  0
LINE
  8
PartsFrame-A
 10
1.950000
 20
194.400000
 30
0.0
 11
1.950000
 21
194.100000
 31
0.0
  0
ARC
  8
L1-Copper
 10
2.685000
 20
188.120000
 30
0.0
 40
0.050000
 50
180.000000
 51
-90.000000
  0
LINE
  8
L1-Copper
 10
2.635000
 20
188.120000
 30
0.0
 11
2.635000
 21
188.300000
 31
0.0
  0
ARC
  8
L1-Copper
 10
2.685000
 20
188.300000
 30
0.0
 40
0.050000
 50
90.000000
 51
180.000000
  0
LINE
  8
L1-Copper
 10
2.685000
 20
188.350000
 30
0.0
 11
2.995000
 21
188.350000
 31
0.0
  0
ARC
  8
L1-Copper
 10
2.995000
 20
188.300000
 30
0.0
 40
0.050000
 50
0.000000
 51
90.000000
  0
LINE
  8
L1-Copper
 10
3.045000
 20
188.300000
 30
0.0
 11
3.045000
 21
188.120000
 31
0.0
  0
ARC
  8
L1-Copper
 10
2.995000
 20
188.120000
 30
0.0
 40
0.050000
 50
-90.000000
 51
0.000000
  0
LINE
  8
L1-Copper
 10
2.995000
 20
188.070000
 30
0.0
 11
2.685000
 21
188.070000
 31
0.0
  0
ARC
  8
L1-Copper
 10
2.685000
 20
187.640000
 30
0.0
 40
0.050000
 50
180.000000
 51
-90.000000
  0
LINE
  8
L1-Copper
 10
2.635000
 20
187.640000
 30
0.0
 11
2.635000
 21
187.820000
 31
0.0
  0
ARC
  8
L1-Copper
 10
2.685000
 20
187.820000
 30
0.0
 40
0.050000
 50
90.000000
 51
180.000000
  0
LINE
  8
L1-Copper
 10
2.685000
 20
187.870000
 30
0.0
 11
2.995000
 21
187.870000
 31
0.0
  0
ARC
  8
L1-Copper
 10
2.995000
 20
187.820000
 30
0.0
 40
0.050000
 50
0.000000
 51
90.000000
  0
LINE
  8
L1-Copper
 10
3.045000
 20
187.820000
 30
0.0
 11
3.045000
 21
187.640000
 31
0.0
  0
ARC
  8
L1-Copper
 10
2.995000
 20
187.640000
 30
0.0
 40
0.050000
 50
-90.000000
 51
0.000000
  0
LINE
  8
L1-Copper
 10
2.995000
 20
187.590000
 30
0.0
 11
2.685000
 21
187.590000
 31
0.0
  0
ARC
  8
Resist-A
 10
2.965000
 20
187.670000
 30
0.0
 40
0.050000
 50
-90.000000
 51
0.000000
  0
LINE
  8
Resist-A
 10
2.965000
 20
187.620000
 30
0.0
 11
2.715000
 21
187.620000
 31
0.0
  0
ARC
  8
Resist-A
 10
2.715000
 20
187.670000
 30
0.0
 40
0.050000
 50
180.000000
 51
-90.000000
  0
LINE
  8
Resist-A
 10
2.665000
 20
187.670000
 30
0.0
 11
2.665000
 21
188.270000
 31
0.0
  0
ARC
  8
Resist-A
 10
2.715000
 20
188.270000
 30
0.0
 40
0.050000
 50
90.000000
 51
180.000000
  0
LINE
  8
Resist-A
 10
2.715000
 20
188.320000
 30
0.0
 11
2.965000
 21
188.320000
 31
0.0
  0
ARC
  8
Resist-A
 10
2.965000
 20
188.270000
 30
0.0
 40
0.050000
 50
0.000000
 51
90.000000
  0
LINE
  8
Resist-A
 10
3.015000
 20
188.270000
 30
0.0
 11
3.015000
 21
187.670000
 31
0.0
  0
LINE
  8
PartsFrame-A
 10
2.690000
 20
188.270000
 30
0.0
 11
2.690000
 21
187.670000
 31
0.0
  0
LINE
  8
PartsFrame-A
 10
2.690000
 20
187.670000
 30
0.0
 11
2.990000
 21
187.670000
 31
0.0
  0
LINE
  8
PartsFrame-A
 10
2.990000
 20
187.670000
 30
0.0
 11
2.990000
 21
188.270000
 31
0.0
  0
LINE
  8
PartsFrame-A
 10
2.990000
 20
188.270000
 30
0.0
 11
2.690000
 21
188.270000
 31
0.0
  0
ARC
  8
L1-Copper
 10
5.310000
 20
188.120000
 30
0.0
 40
0.050000
 50
180.000000
 51
-90.000000
  0
LINE
  8
L1-Copper
 10
5.260000
 20
188.120000
 30
0.0
 11
5.260000
 21
188.300000
 31
0.0
  0
ARC
  8
L1-Copper
 10
5.310000
 20
188.300000
 30
0.0
 40
0.050000
 50
90.000000
 51
180.000000
  0
LINE
  8
L1-Copper
 10
5.310000
 20
188.350000
 30
0.0
 11
5.620000
 21
188.350000
 31
0.0
  0
ARC
  8
L1-Copper
 10
5.620000
 20
188.300000
 30
0.0
 40
0.050000
 50
0.000000
 51
90.000000
  0
LINE
  8
L1-Copper
 10
5.670000
 20
188.300000
 30
0.0
 11
5.670000
 21
188.120000
 31
0.0
  0
ARC
  8
L1-Copper
 10
5.620000
 20
188.120000
 30
0.0
 40
0.050000
 50
-90.000000
 51
0.000000
  0
LINE
  8
L1-Copper
 10
5.620000
 20
188.070000
 30
0.0
 11
5.310000
 21
188.070000
 31
0.0
  0
ARC
  8
L1-Copper
 10
5.310000
 20
187.640000
 30
0.0
 40
0.050000
 50
180.000000
 51
-90.000000
  0
LINE
  8
L1-Copper
 10
5.260000
 20
187.640000
 30
0.0
 11
5.260000
 21
187.820000
 31
0.0
  0
ARC
  8
L1-Copper
 10
5.310000
 20
187.820000
 30
0.0
 40
0.050000
 50
90.000000
 51
180.000000
  0
LINE
  8
L1-Copper
 10
5.310000
 20
187.870000
 30
0.0
 11
5.620000
 21
187.870000
 31
0.0
  0
ARC
  8
L1-Copper
 10
5.620000
 20
187.820000
 30
0.0
 40
0.050000
 50
0.000000
 51
90.000000
  0
LINE
  8
L1-Copper
 10
5.670000
 20
187.820000
 30
0.0
 11
5.670000
 21
187.640000
 31
0.0
  0
ARC
  8
L1-Copper
 10
5.620000
 20
187.640000
 30
0.0
 40
0.050000
 50
-90.000000
 51
0.000000
  0
LINE
  8
L1-Copper
 10
5.620000
 20
187.590000
 30
0.0
 11
5.310000
 21
187.590000
 31
0.0
  0
ARC
  8
Resist-A
 10
5.590000
 20
187.670000
 30
0.0
 40
0.050000
 50
-90.000000
 51
0.000000
  0
LINE
  8
Resist-A
 10
5.590000
 20
187.620000
 30
0.0
 11
5.340000
 21
187.620000
 31
0.0
  0
ARC
  8
Resist-A
 10
5.340000
 20
187.670000
 30
0.0
 40
0.050000
 50
180.000000
 51
-90.000000
  0
LINE
  8
Resist-A
 10
5.290000
 20
187.670000
 30
0.0
 11
5.290000
 21
188.270000
 31
0.0
  0
ARC
  8
Resist-A
 10
5.340000
 20
188.270000
 30
0.0
 40
0.050000
 50
90.000000
 51
180.000000
  0
LINE
  8
Resist-A
 10
5.340000
 20
188.320000
 30
0.0
 11
5.590000
 21
188.320000
 31
0.0
  0
ARC
  8
Resist-A
 10
5.590000
 20
188.270000
 30
0.0
 40
0.050000
 50
0.000000
 51
90.000000
  0
LINE
  8
Resist-A
 10
5.640000
 20
188.270000
 30
0.0
 11
5.640000
 21
187.670000
 31
0.0
  0
LINE
  8
PartsFrame-A
 10
5.315000
 20
188.270000
 30
0.0
 11
5.315000
 21
187.670000
 31
0.0
  0
LINE
  8
PartsFrame-A
 10
5.315000
 20
187.670000
 30
0.0
 11
5.615000
 21
187.670000
 31
0.0
  0
LINE
  8
PartsFrame-A
 10
5.615000
 20
187.670000
 30
0.0
 11
5.615000
 21
188.270000
 31
0.0
  0
LINE
  8
PartsFrame-A
 10
5.615000
 20
188.270000
 30
0.0
 11
5.315000
 21
188.270000
 31
0.0
  0
ARC
  8
L1-Copper
 10
13.000000
 20
188.390000
 30
0.0
 40
0.050000
 50
180.000000
 51
-90.000000
  0
LINE
  8
L1-Copper
 10
12.950000
 20
188.390000
 30
0.0
 11
12.950000
 21
188.700000
 31
0.0
  0
ARC
  8
L1-Copper
 10
13.000000
 20
188.700000
 30
0.0
 40
0.050000
 50
90.000000
 51
180.000000
  0
LINE
  8
L1-Copper
 10
13.000000
 20
188.750000
 30
0.0
 11
13.510000
 21
188.750000
 31
0.0
  0
ARC
  8
L1-Copper
 10
13.510000
 20
188.700000
 30
0.0
 40
0.050000
 50
0.000000
 51
90.000000
  0
LINE
  8
L1-Copper
 10
13.560000
 20
188.700000
 30
0.0
 11
13.560000
 21
188.390000
 31
0.0
  0
ARC
  8
L1-Copper
 10
13.510000
 20
188.390000
 30
0.0
 40
0.050000
 50
-90.000000
 51
0.000000
  0
LINE
  8
L1-Copper
 10
13.510000
 20
188.340000
 30
0.0
 11
13.000000
 21
188.340000
 31
0.0
  0
ARC
  8
L1-Copper
 10
13.000000
 20
187.540000
 30
0.0
 40
0.050000
 50
180.000000
 51
-90.000000
  0
LINE
  8
L1-Copper
 10
12.950000
 20
187.540000
 30
0.0
 11
12.950000
 21
187.850000
 31
0.0
  0
ARC
  8
L1-Copper
 10
13.000000
 20
187.850000
 30
0.0
 40
0.050000
 50
90.000000
 51
180.000000
  0
LINE
  8
L1-Copper
 10
13.000000
 20
187.900000
 30
0.0
 11
13.510000
 21
187.900000
 31
0.0
  0
ARC
  8
L1-Copper
 10
13.510000
 20
187.850000
 30
0.0
 40
0.050000
 50
0.000000
 51
90.000000
  0
LINE
  8
L1-Copper
 10
13.560000
 20
187.850000
 30
0.0
 11
13.560000
 21
187.540000
 31
0.0
  0
ARC
  8
L1-Copper
 10
13.510000
 20
187.540000
 30
0.0
 40
0.050000
 50
-90.000000
 51
0.000000
  0
LINE
  8
L1-Copper
 10
13.510000
 20
187.490000
 30
0.0
 11
13.000000
 21
187.490000
 31
0.0
  0
ARC
  8
Resist-A
 10
13.480000
 20
188.420000
 30
0.0
 40
0.050000
 50
-90.000000
 51
0.000000
  0
LINE
  8
Resist-A
 10
13.480000
 20
188.370000
 30
0.0
 11
13.030000
 21
188.370000
 31
0.0
  0
ARC
  8
Resist-A
 10
13.030000
 20
188.420000
 30
0.0
 40
0.050000
 50
180.000000
 51
-90.000000
  0
LINE
  8
Resist-A
 10
12.980000
 20
188.420000
 30
0.0
 11
12.980000
 21
188.670000
 31
0.0
  0
ARC
  8
Resist-A
 10
13.030000
 20
188.670000
 30
0.0
 40
0.050000
 50
90.000000
 51
180.000000
  0
LINE
  8
Resist-A
 10
13.030000
 20
188.720000
 30
0.0
 11
13.480000
 21
188.720000
 31
0.0
  0
ARC
  8
Resist-A
 10
13.480000
 20
188.670000
 30
0.0
 40
0.050000
 50
0.000000
 51
90.000000
  0
LINE
  8
Resist-A
 10
13.530000
 20
188.670000
 30
0.0
 11
13.530000
 21
188.420000
 31
0.0
  0
ARC
  8
Resist-A
 10
13.480000
 20
187.570000
 30
0.0
 40
0.050000
 50
-90.000000
 51
0.000000
  0
LINE
  8
Resist-A
 10
13.480000
 20
187.520000
 30
0.0
 11
13.030000
 21
187.520000
 31
0.0
  0
ARC
  8
Resist-A
 10
13.030000
 20
187.570000
 30
0.0
 40
0.050000
 50
180.000000
 51
-90.000000
  0
LINE
  8
Resist-A
 10
12.980000
 20
187.570000
 30
0.0
 11
12.980000
 21
187.820000
 31
0.0
  0
ARC
  8
Resist-A
 10
13.030000
 20
187.820000
 30
0.0
 40
0.050000
 50
90.000000
 51
180.000000
  0
LINE
  8
Resist-A
 10
13.030000
 20
187.870000
 30
0.0
 11
13.480000
 21
187.870000
 31
0.0
  0
ARC
  8
Resist-A
 10
13.480000
 20
187.820000
 30
0.0
 40
0.050000
 50
0.000000
 51
90.000000
  0
LINE
  8
Resist-A
 10
13.530000
 20
187.820000
 30
0.0
 11
13.530000
 21
187.570000
 31
0.0
  0
LINE
  8
PartsFrame-A
 10
13.005000
 20
188.620000
 30
0.0
 11
13.005000
 21
187.620000
 31
0.0
  0
LINE
  8
PartsFrame-A
 10
13.005000
 20
187.620000
 30
0.0
 11
13.505000
 21
187.620000
 31
0.0
  0
LINE
  8
PartsFrame-A
 10
13.505000
 20
187.620000
 30
0.0
 11
13.505000
 21
188.620000
 31
0.0
  0
LINE
  8
PartsFrame-A
 10
13.505000
 20
188.620000
 30
0.0
 11
13.005000
 21
188.620000
 31
0.0
  0
ARC
  8
L1-Copper
 10
12.445000
 20
185.355000
 30
0.0
 40
0.050000
 50
-90.000000
 51
0.000000
  0
LINE
  8
L1-Copper
 10
12.445000
 20
185.305000
 30
0.0
 11
12.045000
 21
185.305000
 31
0.0
  0
ARC
  8
L1-Copper
 10
12.045000
 20
185.355000
 30
0.0
 40
0.050000
 50
180.000000
 51
-90.000000
  0
LINE
  8
L1-Copper
 10
11.995000
 20
185.355000
 30
0.0
 11
11.995000
 21
186.205000
 31
0.0
  0
ARC
  8
L1-Copper
 10
12.045000
 20
186.205000
 30
0.0
 40
0.050000
 50
90.000000
 51
180.000000
  0
LINE
  8
L1-Copper
 10
12.045000
 20
186.255000
 30
0.0
 11
12.445000
 21
186.255000
 31
0.0
  0
ARC
  8
L1-Copper
 10
12.445000
 20
186.205000
 30
0.0
 40
0.050000
 50
0.000000
 51
90.000000
  0
LINE
  8
L1-Copper
 10
12.495000
 20
186.205000
 30
0.0
 11
12.495000
 21
185.355000
 31
0.0
  0
ARC
  8
L1-Copper
 10
14.195000
 20
184.805000
 30
0.0
 40
0.050000
 50
-90.000000
 51
0.000000
  0
LINE
  8
L1-Copper
 10
14.195000
 20
184.755000
 30
0.0
 11
13.295000
 21
184.755000
 31
0.0
  0
ARC
  8
L1-Copper
 10
13.295000
 20
184.805000
 30
0.0
 40
0.050000
 50
180.000000
 51
-90.000000
  0
LINE
  8
L1-Copper
 10
13.245000
 20
184.805000
 30
0.0
 11
13.245000
 21
185.705000
 31
0.0
  0
ARC
  8
L1-Copper
 10
13.295000
 20
185.705000
 30
0.0
 40
0.050000
 50
90.000000
 51
180.000000
  0
LINE
  8
L1-Copper
 10
13.295000
 20
185.755000
 30
0.0
 11
14.195000
 21
185.755000
 31
0.0
  0
ARC
  8
L1-Copper
 10
14.195000
 20
185.705000
 30
0.0
 40
0.050000
 50
0.000000
 51
90.000000
  0
LINE
  8
L1-Copper
 10
14.245000
 20
185.705000
 30
0.0
 11
14.245000
 21
184.805000
 31
0.0
  0
ARC
  8
L1-Copper
 10
14.195000
 20
182.805000
 30
0.0
 40
0.050000
 50
-90.000000
 51
0.000000
  0
LINE
  8
L1-Copper
 10
14.195000
 20
182.755000
 30
0.0
 11
13.295000
 21
182.755000
 31
0.0
  0
ARC
  8
L1-Copper
 10
13.295000
 20
182.805000
 30
0.0
 40
0.050000
 50
180.000000
 51
-90.000000
  0
LINE
  8
L1-Copper
 10
13.245000
 20
182.805000
 30
0.0
 11
13.245000
 21
183.705000
 31
0.0
  0
ARC
  8
L1-Copper
 10
13.295000
 20
183.705000
 30
0.0
 40
0.050000
 50
90.000000
 51
180.000000
  0
LINE
  8
L1-Copper
 10
13.295000
 20
183.755000
 30
0.0
 11
14.195000
 21
183.755000
 31
0.0
  0
ARC
  8
L1-Copper
 10
14.195000
 20
183.705000
 30
0.0
 40
0.050000
 50
0.000000
 51
90.000000
  0
LINE
  8
L1-Copper
 10
14.245000
 20
183.705000
 30
0.0
 11
14.245000
 21
182.805000
 31
0.0
  0
ARC
  8
L1-Copper
 10
11.195000
 20
182.805000
 30
0.0
 40
0.050000
 50
-90.000000
 51
0.000000
  0
LINE
  8
L1-Copper
 10
11.195000
 20
182.755000
 30
0.0
 11
10.295000
 21
182.755000
 31
0.0
  0
ARC
  8
L1-Copper
 10
10.295000
 20
182.805000
 30
0.0
 40
0.050000
 50
180.000000
 51
-90.000000
  0
LINE
  8
L1-Copper
 10
10.245000
 20
182.805000
 30
0.0
 11
10.245000
 21
183.705000
 31
0.0
  0
ARC
  8
L1-Copper
 10
10.295000
 20
183.705000
 30
0.0
 40
0.050000
 50
90.000000
 51
180.000000
  0
LINE
  8
L1-Copper
 10
10.295000
 20
183.755000
 30
0.0
 11
11.195000
 21
183.755000
 31
0.0
  0
ARC
  8
L1-Copper
 10
11.195000
 20
183.705000
 30
0.0
 40
0.050000
 50
0.000000
 51
90.000000
  0
LINE
  8
L1-Copper
 10
11.245000
 20
183.705000
 30
0.0
 11
11.245000
 21
182.805000
 31
0.0
  0
ARC
  8
L1-Copper
 10
11.195000
 20
184.805000
 30
0.0
 40
0.050000
 50
-90.000000
 51
0.000000
  0
LINE
  8
L1-Copper
 10
11.195000
 20
184.755000
 30
0.0
 11
10.295000
 21
184.755000
 31
0.0
  0
ARC
  8
L1-Copper
 10
10.295000
 20
184.805000
 30
0.0
 40
0.050000
 50
180.000000
 51
-90.000000
  0
LINE
  8
L1-Copper
 10
10.245000
 20
184.805000
 30
0.0
 11
10.245000
 21
185.705000
 31
0.0
  0
ARC
  8
L1-Copper
 10
10.295000
 20
185.705000
 30
0.0
 40
0.050000
 50
90.000000
 51
180.000000
  0
LINE
  8
L1-Copper
 10
10.295000
 20
185.755000
 30
0.0
 11
11.195000
 21
185.755000
 31
0.0
  0
ARC
  8
L1-Copper
 10
11.195000
 20
185.705000
 30
0.0
 40
0.050000
 50
0.000000
 51
90.000000
  0
LINE
  8
L1-Copper
 10
11.245000
 20
185.705000
 30
0.0
 11
11.245000
 21
184.805000
 31
0.0
  0
ARC
  8
L1-Copper
 10
12.445000
 20
182.305000
 30
0.0
 40
0.050000
 50
-90.000000
 51
0.000000
  0
LINE
  8
L1-Copper
 10
12.445000
 20
182.255000
 30
0.0
 11
12.045000
 21
182.255000
 31
0.0
  0
ARC
  8
L1-Copper
 10
12.045000
 20
182.305000
 30
0.0
 40
0.050000
 50
180.000000
 51
-90.000000
  0
LINE
  8
L1-Copper
 10
11.995000
 20
182.305000
 30
0.0
 11
11.995000
 21
183.155000
 31
0.0
  0
ARC
  8
L1-Copper
 10
12.045000
 20
183.155000
 30
0.0
 40
0.050000
 50
90.000000
 51
180.000000
  0
LINE
  8
L1-Copper
 10
12.045000
 20
183.205000
 30
0.0
 11
12.445000
 21
183.205000
 31
0.0
  0
ARC
  8
L1-Copper
 10
12.445000
 20
183.155000
 30
0.0
 40
0.050000
 50
0.000000
 51
90.000000
  0
LINE
  8
L1-Copper
 10
12.495000
 20
183.155000
 30
0.0
 11
12.495000
 21
182.305000
 31
0.0
  0
ARC
  8
Resist-A
 10
12.495000
 20
186.255000
 30
0.0
 40
0.050000
 50
0.000000
 51
90.000000
  0
LINE
  8
Resist-A
 10
12.545000
 20
186.255000
 30
0.0
 11
12.545000
 21
185.305000
 31
0.0
  0
ARC
  8
Resist-A
 10
12.495000
 20
185.305000
 30
0.0
 40
0.050000
 50
-90.000000
 51
0.000000
  0
LINE
  8
Resist-A
 10
12.495000
 20
185.255000
 30
0.0
 11
11.995000
 21
185.255000
 31
0.0
  0
ARC
  8
Resist-A
 10
11.995000
 20
185.305000
 30
0.0
 40
0.050000
 50
180.000000
 51
-90.000000
  0
LINE
  8
Resist-A
 10
11.945000
 20
185.305000
 30
0.0
 11
11.945000
 21
186.255000
 31
0.0
  0
ARC
  8
Resist-A
 10
11.995000
 20
186.255000
 30
0.0
 40
0.050000
 50
90.000000
 51
180.000000
  0
LINE
  8
Resist-A
 10
11.995000
 20
186.305000
 30
0.0
 11
12.495000
 21
186.305000
 31
0.0
  0
ARC
  8
Resist-A
 10
13.245000
 20
184.755000
 30
0.0
 40
0.050000
 50
180.000000
 51
-90.000000
  0
LINE
  8
Resist-A
 10
13.195000
 20
184.755000
 30
0.0
 11
13.195000
 21
185.755000
 31
0.0
  0
ARC
  8
Resist-A
 10
13.245000
 20
185.755000
 30
0.0
 40
0.050000
 50
90.000000
 51
180.000000
  0
LINE
  8
Resist-A
 10
13.245000
 20
185.805000
 30
0.0
 11
14.245000
 21
185.805000
 31
0.0
  0
ARC
  8
Resist-A
 10
14.245000
 20
185.755000
 30
0.0
 40
0.050000
 50
0.000000
 51
90.000000
  0
LINE
  8
Resist-A
 10
14.295000
 20
185.755000
 30
0.0
 11
14.295000
 21
184.755000
 31
0.0
  0
ARC
  8
Resist-A
 10
14.245000
 20
184.755000
 30
0.0
 40
0.050000
 50
-90.000000
 51
0.000000
  0
LINE
  8
Resist-A
 10
14.245000
 20
184.705000
 30
0.0
 11
13.245000
 21
184.705000
 31
0.0
  0
ARC
  8
Resist-A
 10
13.245000
 20
182.755000
 30
0.0
 40
0.050000
 50
180.000000
 51
-90.000000
  0
LINE
  8
Resist-A
 10
13.195000
 20
182.755000
 30
0.0
 11
13.195000
 21
183.755000
 31
0.0
  0
ARC
  8
Resist-A
 10
13.245000
 20
183.755000
 30
0.0
 40
0.050000
 50
90.000000
 51
180.000000
  0
LINE
  8
Resist-A
 10
13.245000
 20
183.805000
 30
0.0
 11
14.245000
 21
183.805000
 31
0.0
  0
ARC
  8
Resist-A
 10
14.245000
 20
183.755000
 30
0.0
 40
0.050000
 50
0.000000
 51
90.000000
  0
LINE
  8
Resist-A
 10
14.295000
 20
183.755000
 30
0.0
 11
14.295000
 21
182.755000
 31
0.0
  0
ARC
  8
Resist-A
 10
14.245000
 20
182.755000
 30
0.0
 40
0.050000
 50
-90.000000
 51
0.000000
  0
LINE
  8
Resist-A
 10
14.245000
 20
182.705000
 30
0.0
 11
13.245000
 21
182.705000
 31
0.0
  0
ARC
  8
Resist-A
 10
11.245000
 20
185.755000
 30
0.0
 40
0.050000
 50
0.000000
 51
90.000000
  0
LINE
  8
Resist-A
 10
11.295000
 20
185.755000
 30
0.0
 11
11.295000
 21
184.755000
 31
0.0
  0
ARC
  8
Resist-A
 10
11.245000
 20
184.755000
 30
0.0
 40
0.050000
 50
-90.000000
 51
0.000000
  0
LINE
  8
Resist-A
 10
11.245000
 20
184.705000
 30
0.0
 11
10.245000
 21
184.705000
 31
0.0
  0
ARC
  8
Resist-A
 10
10.245000
 20
184.755000
 30
0.0
 40
0.050000
 50
180.000000
 51
-90.000000
  0
LINE
  8
Resist-A
 10
10.195000
 20
184.755000
 30
0.0
 11
10.195000
 21
185.755000
 31
0.0
  0
ARC
  8
Resist-A
 10
10.245000
 20
185.755000
 30
0.0
 40
0.050000
 50
90.000000
 51
180.000000
  0
LINE
  8
Resist-A
 10
10.245000
 20
185.805000
 30
0.0
 11
11.245000
 21
185.805000
 31
0.0
  0
ARC
  8
Resist-A
 10
11.245000
 20
183.755000
 30
0.0
 40
0.050000
 50
0.000000
 51
90.000000
  0
LINE
  8
Resist-A
 10
11.295000
 20
183.755000
 30
0.0
 11
11.295000
 21
182.755000
 31
0.0
  0
ARC
  8
Resist-A
 10
11.245000
 20
182.755000
 30
0.0
 40
0.050000
 50
-90.000000
 51
0.000000
  0
LINE
  8
Resist-A
 10
11.245000
 20
182.705000
 30
0.0
 11
10.245000
 21
182.705000
 31
0.0
  0
ARC
  8
Resist-A
 10
10.245000
 20
182.755000
 30
0.0
 40
0.050000
 50
180.000000
 51
-90.000000
  0
LINE
  8
Resist-A
 10
10.195000
 20
182.755000
 30
0.0
 11
10.195000
 21
183.755000
 31
0.0
  0
ARC
  8
Resist-A
 10
10.245000
 20
183.755000
 30
0.0
 40
0.050000
 50
90.000000
 51
180.000000
  0
LINE
  8
Resist-A
 10
10.245000
 20
183.805000
 30
0.0
 11
11.245000
 21
183.805000
 31
0.0
  0
ARC
  8
Resist-A
 10
12.495000
 20
183.205000
 30
0.0
 40
0.050000
 50
0.000000
 51
90.000000
  0
LINE
  8
Resist-A
 10
12.545000
 20
183.205000
 30
0.0
 11
12.545000
 21
182.255000
 31
0.0
  0
ARC
  8
Resist-A
 10
12.495000
 20
182.255000
 30
0.0
 40
0.050000
 50
-90.000000
 51
0.000000
  0
LINE
  8
Resist-A
 10
12.495000
 20
182.205000
 30
0.0
 11
11.995000
 21
182.205000
 31
0.0
  0
ARC
  8
Resist-A
 10
11.995000
 20
182.255000
 30
0.0
 40
0.050000
 50
180.000000
 51
-90.000000
  0
LINE
  8
Resist-A
 10
11.945000
 20
182.255000
 30
0.0
 11
11.945000
 21
183.205000
 31
0.0
  0
ARC
  8
Resist-A
 10
11.995000
 20
183.205000
 30
0.0
 40
0.050000
 50
90.000000
 51
180.000000
  0
LINE
  8
Resist-A
 10
11.995000
 20
183.255000
 30
0.0
 11
12.495000
 21
183.255000
 31
0.0
  0
LINE
  8
PartsFrame-A
 10
10.745000
 20
185.755000
 30
0.0
 11
10.745000
 21
182.755000
 31
0.0
  0
LINE
  8
PartsFrame-A
 10
10.745000
 20
182.755000
 30
0.0
 11
13.745000
 21
182.755000
 31
0.0
  0
LINE
  8
PartsFrame-A
 10
13.745000
 20
182.755000
 30
0.0
 11
13.745000
 21
185.755000
 31
0.0
  0
LINE
  8
PartsFrame-A
 10
13.745000
 20
185.755000
 30
0.0
 11
10.745000
 21
185.755000
 31
0.0
  0
ARC
  8
PartsFrame-A
 10
12.245000
 20
184.255000
 30
0.0
 40
1.050000
 50
-90.000000
 51
90.000000
  0
ARC
  8
PartsFrame-A
 10
12.245000
 20
184.255000
 30
0.0
 40
1.050000
 50
90.000000
 51
-90.000000
  0
ARC
  8
PartsFrame-A
 10
12.245000
 20
184.255000
 30
0.0
 40
0.250000
 50
-90.000000
 51
90.000000
  0
ARC
  8
PartsFrame-A
 10
12.245000
 20
184.255000
 30
0.0
 40
0.250000
 50
90.000000
 51
-90.000000
  0
LINE
  8
PartsFrame-A
 10
12.445000
 20
184.405000
 30
0.0
 11
12.045000
 21
184.405000
 31
0.0
  0
LINE
  8
PartsFrame-A
 10
11.345000
 20
182.755000
 30
0.0
 11
11.345000
 21
183.255000
 31
0.0
  0
LINE
  8
PartsFrame-A
 10
11.345000
 20
183.255000
 30
0.0
 11
11.945000
 21
183.005000
 31
0.0
  0
LINE
  8
PartsFrame-A
 10
11.945000
 20
183.005000
 30
0.0
 11
11.945000
 21
182.755000
 31
0.0
  0
LINE
  8
PartsFrame-A
 10
13.145000
 20
182.755000
 30
0.0
 11
13.145000
 21
183.255000
 31
0.0
  0
LINE
  8
PartsFrame-A
 10
13.145000
 20
183.255000
 30
0.0
 11
12.545000
 21
183.005000
 31
0.0
  0
LINE
  8
PartsFrame-A
 10
12.545000
 20
183.005000
 30
0.0
 11
12.545000
 21
182.755000
 31
0.0
  0
ARC
  8
PartsFrame-A
 10
12.870000
 20
185.755000
 30
0.0
 40
0.200000
 50
180.000000
 51
-90.000000
  0
ARC
  8
PartsFrame-A
 10
12.870000
 20
185.755000
 30
0.0
 40
0.200000
 50
-90.000000
 51
0.000000
  0
ARC
  8
PartsFrame-A
 10
11.620000
 20
185.755000
 30
0.0
 40
0.200000
 50
-90.000000
 51
0.000000
  0
ARC
  8
PartsFrame-A
 10
11.620000
 20
185.755000
 30
0.0
 40
0.200000
 50
180.000000
 51
-90.000000
  0
ARC
  8
PartsFrame-A
 10
12.245000
 20
185.055000
 30
0.0
 40
0.250000
 50
-90.000000
 51
90.000000
  0
ARC
  8
PartsFrame-A
 10
12.245000
 20
185.055000
 30
0.0
 40
0.250000
 50
90.000000
 51
-90.000000
  0
LINE
  8
PartsFrame-A
 10
11.995000
 20
182.755000
 30
0.0
 11
11.995000
 21
183.155000
 31
0.0
  0
LINE
  8
PartsFrame-A
 10
11.995000
 20
183.155000
 30
0.0
 11
12.495000
 21
183.155000
 31
0.0
  0
LINE
  8
PartsFrame-A
 10
12.495000
 20
183.155000
 30
0.0
 11
12.495000
 21
182.755000
 31
0.0
  0
LINE
  8
PartsFrame-A
 10
12.495000
 20
182.755000
 30
0.0
 11
11.995000
 21
182.755000
 31
0.0
  0
LINE
  8
PartsFrame-A
 10
11.995000
 20
185.755000
 30
0.0
 11
11.995000
 21
185.355000
 31
0.0
  0
LINE
  8
PartsFrame-A
 10
11.995000
 20
185.355000
 30
0.0
 11
12.495000
 21
185.355000
 31
0.0
  0
LINE
  8
PartsFrame-A
 10
12.495000
 20
185.355000
 30
0.0
 11
12.495000
 21
185.755000
 31
0.0
  0
LINE
  8
PartsFrame-A
 10
12.495000
 20
185.755000
 30
0.0
 11
11.995000
 21
185.755000
 31
0.0
  0
LINE
  8
PartsFrame-A
 10
13.245000
 20
185.755000
 30
0.0
 11
13.245000
 21
184.755000
 31
0.0
  0
LINE
  8
PartsFrame-A
 10
13.245000
 20
184.755000
 30
0.0
 11
13.745000
 21
184.755000
 31
0.0
  0
LINE
  8
PartsFrame-A
 10
13.745000
 20
184.755000
 30
0.0
 11
13.745000
 21
185.755000
 31
0.0
  0
LINE
  8
PartsFrame-A
 10
13.745000
 20
185.755000
 30
0.0
 11
13.245000
 21
185.755000
 31
0.0
  0
LINE
  8
PartsFrame-A
 10
13.745000
 20
182.755000
 30
0.0
 11
13.745000
 21
183.755000
 31
0.0
  0
LINE
  8
PartsFrame-A
 10
13.745000
 20
183.755000
 30
0.0
 11
13.245000
 21
183.755000
 31
0.0
  0
LINE
  8
PartsFrame-A
 10
13.245000
 20
183.755000
 30
0.0
 11
13.245000
 21
182.755000
 31
0.0
  0
LINE
  8
PartsFrame-A
 10
13.245000
 20
182.755000
 30
0.0
 11
13.745000
 21
182.755000
 31
0.0
  0
LINE
  8
PartsFrame-A
 10
10.745000
 20
182.755000
 30
0.0
 11
10.745000
 21
183.755000
 31
0.0
  0
LINE
  8
PartsFrame-A
 10
10.745000
 20
183.755000
 30
0.0
 11
11.245000
 21
183.755000
 31
0.0
  0
LINE
  8
PartsFrame-A
 10
11.245000
 20
183.755000
 30
0.0
 11
11.245000
 21
182.755000
 31
0.0
  0
LINE
  8
PartsFrame-A
 10
11.245000
 20
182.755000
 30
0.0
 11
10.745000
 21
182.755000
 31
0.0
  0
LINE
  8
PartsFrame-A
 10
10.745000
 20
185.755000
 30
0.0
 11
10.745000
 21
184.755000
 31
0.0
  0
LINE
  8
PartsFrame-A
 10
10.745000
 20
184.755000
 30
0.0
 11
11.245000
 21
184.755000
 31
0.0
  0
LINE
  8
PartsFrame-A
 10
11.245000
 20
184.755000
 30
0.0
 11
11.245000
 21
185.755000
 31
0.0
  0
LINE
  8
PartsFrame-A
 10
11.245000
 20
185.755000
 30
0.0
 11
10.745000
 21
185.755000
 31
0.0
  0
ARC
  8
L1-Copper
 10
7.110000
 20
188.120000
 30
0.0
 40
0.050000
 50
180.000000
 51
-90.000000
  0
LINE
  8
L1-Copper
 10
7.060000
 20
188.120000
 30
0.0
 11
7.060000
 21
188.300000
 31
0.0
  0
ARC
  8
L1-Copper
 10
7.110000
 20
188.300000
 30
0.0
 40
0.050000
 50
90.000000
 51
180.000000
  0
LINE
  8
L1-Copper
 10
7.110000
 20
188.350000
 30
0.0
 11
7.420000
 21
188.350000
 31
0.0
  0
ARC
  8
L1-Copper
 10
7.420000
 20
188.300000
 30
0.0
 40
0.050000
 50
0.000000
 51
90.000000
  0
LINE
  8
L1-Copper
 10
7.470000
 20
188.300000
 30
0.0
 11
7.470000
 21
188.120000
 31
0.0
  0
ARC
  8
L1-Copper
 10
7.420000
 20
188.120000
 30
0.0
 40
0.050000
 50
-90.000000
 51
0.000000
  0
LINE
  8
L1-Copper
 10
7.420000
 20
188.070000
 30
0.0
 11
7.110000
 21
188.070000
 31
0.0
  0
ARC
  8
L1-Copper
 10
7.110000
 20
187.640000
 30
0.0
 40
0.050000
 50
180.000000
 51
-90.000000
  0
LINE
  8
L1-Copper
 10
7.060000
 20
187.640000
 30
0.0
 11
7.060000
 21
187.820000
 31
0.0
  0
ARC
  8
L1-Copper
 10
7.110000
 20
187.820000
 30
0.0
 40
0.050000
 50
90.000000
 51
180.000000
  0
LINE
  8
L1-Copper
 10
7.110000
 20
187.870000
 30
0.0
 11
7.420000
 21
187.870000
 31
0.0
  0
ARC
  8
L1-Copper
 10
7.420000
 20
187.820000
 30
0.0
 40
0.050000
 50
0.000000
 51
90.000000
  0
LINE
  8
L1-Copper
 10
7.470000
 20
187.820000
 30
0.0
 11
7.470000
 21
187.640000
 31
0.0
  0
ARC
  8
L1-Copper
 10
7.420000
 20
187.640000
 30
0.0
 40
0.050000
 50
-90.000000
 51
0.000000
  0
LINE
  8
L1-Copper
 10
7.420000
 20
187.590000
 30
0.0
 11
7.110000
 21
187.590000
 31
0.0
  0
ARC
  8
Resist-A
 10
7.390000
 20
187.670000
 30
0.0
 40
0.050000
 50
-90.000000
 51
0.000000
  0
LINE
  8
Resist-A
 10
7.390000
 20
187.620000
 30
0.0
 11
7.140000
 21
187.620000
 31
0.0
  0
ARC
  8
Resist-A
 10
7.140000
 20
187.670000
 30
0.0
 40
0.050000
 50
180.000000
 51
-90.000000
  0
LINE
  8
Resist-A
 10
7.090000
 20
187.670000
 30
0.0
 11
7.090000
 21
188.270000
 31
0.0
  0
ARC
  8
Resist-A
 10
7.140000
 20
188.270000
 30
0.0
 40
0.050000
 50
90.000000
 51
180.000000
  0
LINE
  8
Resist-A
 10
7.140000
 20
188.320000
 30
0.0
 11
7.390000
 21
188.320000
 31
0.0
  0
ARC
  8
Resist-A
 10
7.390000
 20
188.270000
 30
0.0
 40
0.050000
 50
0.000000
 51
90.000000
  0
LINE
  8
Resist-A
 10
7.440000
 20
188.270000
 30
0.0
 11
7.440000
 21
187.670000
 31
0.0
  0
LINE
  8
PartsFrame-A
 10
7.115000
 20
188.270000
 30
0.0
 11
7.115000
 21
187.670000
 31
0.0
  0
LINE
  8
PartsFrame-A
 10
7.115000
 20
187.670000
 30
0.0
 11
7.415000
 21
187.670000
 31
0.0
  0
LINE
  8
PartsFrame-A
 10
7.415000
 20
187.670000
 30
0.0
 11
7.415000
 21
188.270000
 31
0.0
  0
LINE
  8
PartsFrame-A
 10
7.415000
 20
188.270000
 30
0.0
 11
7.115000
 21
188.270000
 31
0.0
  0
ARC
  8
L1-Copper
 10
12.400000
 20
181.385000
 30
0.0
 40
0.050000
 50
0.000000
 51
90.000000
  0
LINE
  8
L1-Copper
 10
12.450000
 20
181.385000
 30
0.0
 11
12.450000
 21
181.205000
 31
0.0
  0
ARC
  8
L1-Copper
 10
12.400000
 20
181.205000
 30
0.0
 40
0.050000
 50
-90.000000
 51
0.000000
  0
LINE
  8
L1-Copper
 10
12.400000
 20
181.155000
 30
0.0
 11
12.090000
 21
181.155000
 31
0.0
  0
ARC
  8
L1-Copper
 10
12.090000
 20
181.205000
 30
0.0
 40
0.050000
 50
180.000000
 51
-90.000000
  0
LINE
  8
L1-Copper
 10
12.040000
 20
181.205000
 30
0.0
 11
12.040000
 21
181.385000
 31
0.0
  0
ARC
  8
L1-Copper
 10
12.090000
 20
181.385000
 30
0.0
 40
0.050000
 50
90.000000
 51
180.000000
  0
LINE
  8
L1-Copper
 10
12.090000
 20
181.435000
 30
0.0
 11
12.400000
 21
181.435000
 31
0.0
  0
ARC
  8
L1-Copper
 10
12.400000
 20
181.865000
 30
0.0
 40
0.050000
 50
0.000000
 51
90.000000
  0
LINE
  8
L1-Copper
 10
12.450000
 20
181.865000
 30
0.0
 11
12.450000
 21
181.685000
 31
0.0
  0
ARC
  8
L1-Copper
 10
12.400000
 20
181.685000
 30
0.0
 40
0.050000
 50
-90.000000
 51
0.000000
  0
LINE
  8
L1-Copper
 10
12.400000
 20
181.635000
 30
0.0
 11
12.090000
 21
181.635000
 31
0.0
  0
ARC
  8
L1-Copper
 10
12.090000
 20
181.685000
 30
0.0
 40
0.050000
 50
180.000000
 51
-90.000000
  0
LINE
  8
L1-Copper
 10
12.040000
 20
181.685000
 30
0.0
 11
12.040000
 21
181.865000
 31
0.0
  0
ARC
  8
L1-Copper
 10
12.090000
 20
181.865000
 30
0.0
 40
0.050000
 50
90.000000
 51
180.000000
  0
LINE
  8
L1-Copper
 10
12.090000
 20
181.915000
 30
0.0
 11
12.400000
 21
181.915000
 31
0.0
  0
ARC
  8
Resist-A
 10
12.120000
 20
181.835000
 30
0.0
 40
0.050000
 50
90.000000
 51
180.000000
  0
LINE
  8
Resist-A
 10
12.120000
 20
181.885000
 30
0.0
 11
12.370000
 21
181.885000
 31
0.0
  0
ARC
  8
Resist-A
 10
12.370000
 20
181.835000
 30
0.0
 40
0.050000
 50
0.000000
 51
90.000000
  0
LINE
  8
Resist-A
 10
12.420000
 20
181.835000
 30
0.0
 11
12.420000
 21
181.235000
 31
0.0
  0
ARC
  8
Resist-A
 10
12.370000
 20
181.235000
 30
0.0
 40
0.050000
 50
-90.000000
 51
0.000000
  0
LINE
  8
Resist-A
 10
12.370000
 20
181.185000
 30
0.0
 11
12.120000
 21
181.185000
 31
0.0
  0
ARC
  8
Resist-A
 10
12.120000
 20
181.235000
 30
0.0
 40
0.050000
 50
180.000000
 51
-90.000000
  0
LINE
  8
Resist-A
 10
12.070000
 20
181.235000
 30
0.0
 11
12.070000
 21
181.835000
 31
0.0
  0
LINE
  8
PartsFrame-A
 10
12.395000
 20
181.235000
 30
0.0
 11
12.395000
 21
181.835000
 31
0.0
  0
LINE
  8
PartsFrame-A
 10
12.395000
 20
181.835000
 30
0.0
 11
12.095000
 21
181.835000
 31
0.0
  0
LINE
  8
PartsFrame-A
 10
12.095000
 20
181.835000
 30
0.0
 11
12.095000
 21
181.235000
 31
0.0
  0
LINE
  8
PartsFrame-A
 10
12.095000
 20
181.235000
 30
0.0
 11
12.395000
 21
181.235000
 31
0.0
  0
ARC
  8
L1-Copper
 10
1.405000
 20
195.100000
 30
0.0
 40
0.050000
 50
0.000000
 51
90.000000
  0
LINE
  8
L1-Copper
 10
1.455000
 20
195.100000
 30
0.0
 11
1.455000
 21
194.920000
 31
0.0
  0
ARC
  8
L1-Copper
 10
1.405000
 20
194.920000
 30
0.0
 40
0.050000
 50
-90.000000
 51
0.000000
  0
LINE
  8
L1-Copper
 10
1.405000
 20
194.870000
 30
0.0
 11
1.095000
 21
194.870000
 31
0.0
  0
ARC
  8
L1-Copper
 10
1.095000
 20
194.920000
 30
0.0
 40
0.050000
 50
180.000000
 51
-90.000000
  0
LINE
  8
L1-Copper
 10
1.045000
 20
194.920000
 30
0.0
 11
1.045000
 21
195.100000
 31
0.0
  0
ARC
  8
L1-Copper
 10
1.095000
 20
195.100000
 30
0.0
 40
0.050000
 50
90.000000
 51
180.000000
  0
LINE
  8
L1-Copper
 10
1.095000
 20
195.150000
 30
0.0
 11
1.405000
 21
195.150000
 31
0.0
  0
ARC
  8
L1-Copper
 10
1.405000
 20
195.580000
 30
0.0
 40
0.050000
 50
0.000000
 51
90.000000
  0
LINE
  8
L1-Copper
 10
1.455000
 20
195.580000
 30
0.0
 11
1.455000
 21
195.400000
 31
0.0
  0
ARC
  8
L1-Copper
 10
1.405000
 20
195.400000
 30
0.0
 40
0.050000
 50
-90.000000
 51
0.000000
  0
LINE
  8
L1-Copper
 10
1.405000
 20
195.350000
 30
0.0
 11
1.095000
 21
195.350000
 31
0.0
  0
ARC
  8
L1-Copper
 10
1.095000
 20
195.400000
 30
0.0
 40
0.050000
 50
180.000000
 51
-90.000000
  0
LINE
  8
L1-Copper
 10
1.045000
 20
195.400000
 30
0.0
 11
1.045000
 21
195.580000
 31
0.0
  0
ARC
  8
L1-Copper
 10
1.095000
 20
195.580000
 30
0.0
 40
0.050000
 50
90.000000
 51
180.000000
  0
LINE
  8
L1-Copper
 10
1.095000
 20
195.630000
 30
0.0
 11
1.405000
 21
195.630000
 31
0.0
  0
ARC
  8
Resist-A
 10
1.125000
 20
195.550000
 30
0.0
 40
0.050000
 50
90.000000
 51
180.000000
  0
LINE
  8
Resist-A
 10
1.125000
 20
195.600000
 30
0.0
 11
1.375000
 21
195.600000
 31
0.0
  0
ARC
  8
Resist-A
 10
1.375000
 20
195.550000
 30
0.0
 40
0.050000
 50
0.000000
 51
90.000000
  0
LINE
  8
Resist-A
 10
1.425000
 20
195.550000
 30
0.0
 11
1.425000
 21
194.950000
 31
0.0
  0
ARC
  8
Resist-A
 10
1.375000
 20
194.950000
 30
0.0
 40
0.050000
 50
-90.000000
 51
0.000000
  0
LINE
  8
Resist-A
 10
1.375000
 20
194.900000
 30
0.0
 11
1.125000
 21
194.900000
 31
0.0
  0
ARC
  8
Resist-A
 10
1.125000
 20
194.950000
 30
0.0
 40
0.050000
 50
180.000000
 51
-90.000000
  0
LINE
  8
Resist-A
 10
1.075000
 20
194.950000
 30
0.0
 11
1.075000
 21
195.550000
 31
0.0
  0
LINE
  8
PartsFrame-A
 10
1.400000
 20
194.950000
 30
0.0
 11
1.400000
 21
195.550000
 31
0.0
  0
LINE
  8
PartsFrame-A
 10
1.400000
 20
195.550000
 30
0.0
 11
1.100000
 21
195.550000
 31
0.0
  0
LINE
  8
PartsFrame-A
 10
1.100000
 20
195.550000
 30
0.0
 11
1.100000
 21
194.950000
 31
0.0
  0
LINE
  8
PartsFrame-A
 10
1.100000
 20
194.950000
 30
0.0
 11
1.400000
 21
194.950000
 31
0.0
  0
ARC
  8
L1-Copper
 10
10.335000
 20
188.390000
 30
0.0
 40
0.050000
 50
180.000000
 51
-90.000000
  0
LINE
  8
L1-Copper
 10
10.285000
 20
188.390000
 30
0.0
 11
10.285000
 21
188.700000
 31
0.0
  0
ARC
  8
L1-Copper
 10
10.335000
 20
188.700000
 30
0.0
 40
0.050000
 50
90.000000
 51
180.000000
  0
LINE
  8
L1-Copper
 10
10.335000
 20
188.750000
 30
0.0
 11
10.845000
 21
188.750000
 31
0.0
  0
ARC
  8
L1-Copper
 10
10.845000
 20
188.700000
 30
0.0
 40
0.050000
 50
0.000000
 51
90.000000
  0
LINE
  8
L1-Copper
 10
10.895000
 20
188.700000
 30
0.0
 11
10.895000
 21
188.390000
 31
0.0
  0
ARC
  8
L1-Copper
 10
10.845000
 20
188.390000
 30
0.0
 40
0.050000
 50
-90.000000
 51
0.000000
  0
LINE
  8
L1-Copper
 10
10.845000
 20
188.340000
 30
0.0
 11
10.335000
 21
188.340000
 31
0.0
  0
ARC
  8
L1-Copper
 10
10.335000
 20
187.540000
 30
0.0
 40
0.050000
 50
180.000000
 51
-90.000000
  0
LINE
  8
L1-Copper
 10
10.285000
 20
187.540000
 30
0.0
 11
10.285000
 21
187.850000
 31
0.0
  0
ARC
  8
L1-Copper
 10
10.335000
 20
187.850000
 30
0.0
 40
0.050000
 50
90.000000
 51
180.000000
  0
LINE
  8
L1-Copper
 10
10.335000
 20
187.900000
 30
0.0
 11
10.845000
 21
187.900000
 31
0.0
  0
ARC
  8
L1-Copper
 10
10.845000
 20
187.850000
 30
0.0
 40
0.050000
 50
0.000000
 51
90.000000
  0
LINE
  8
L1-Copper
 10
10.895000
 20
187.850000
 30
0.0
 11
10.895000
 21
187.540000
 31
0.0
  0
ARC
  8
L1-Copper
 10
10.845000
 20
187.540000
 30
0.0
 40
0.050000
 50
-90.000000
 51
0.000000
  0
LINE
  8
L1-Copper
 10
10.845000
 20
187.490000
 30
0.0
 11
10.335000
 21
187.490000
 31
0.0
  0
ARC
  8
Resist-A
 10
10.815000
 20
188.420000
 30
0.0
 40
0.050000
 50
-90.000000
 51
0.000000
  0
LINE
  8
Resist-A
 10
10.815000
 20
188.370000
 30
0.0
 11
10.365000
 21
188.370000
 31
0.0
  0
ARC
  8
Resist-A
 10
10.365000
 20
188.420000
 30
0.0
 40
0.050000
 50
180.000000
 51
-90.000000
  0
LINE
  8
Resist-A
 10
10.315000
 20
188.420000
 30
0.0
 11
10.315000
 21
188.670000
 31
0.0
  0
ARC
  8
Resist-A
 10
10.365000
 20
188.670000
 30
0.0
 40
0.050000
 50
90.000000
 51
180.000000
  0
LINE
  8
Resist-A
 10
10.365000
 20
188.720000
 30
0.0
 11
10.815000
 21
188.720000
 31
0.0
  0
ARC
  8
Resist-A
 10
10.815000
 20
188.670000
 30
0.0
 40
0.050000
 50
0.000000
 51
90.000000
  0
LINE
  8
Resist-A
 10
10.865000
 20
188.670000
 30
0.0
 11
10.865000
 21
188.420000
 31
0.0
  0
ARC
  8
Resist-A
 10
10.815000
 20
187.570000
 30
0.0
 40
0.050000
 50
-90.000000
 51
0.000000
  0
LINE
  8
Resist-A
 10
10.815000
 20
187.520000
 30
0.0
 11
10.365000
 21
187.520000
 31
0.0
  0
ARC
  8
Resist-A
 10
10.365000
 20
187.570000
 30
0.0
 40
0.050000
 50
180.000000
 51
-90.000000
  0
LINE
  8
Resist-A
 10
10.315000
 20
187.570000
 30
0.0
 11
10.315000
 21
187.820000
 31
0.0
  0
ARC
  8
Resist-A
 10
10.365000
 20
187.820000
 30
0.0
 40
0.050000
 50
90.000000
 51
180.000000
  0
LINE
  8
Resist-A
 10
10.365000
 20
187.870000
 30
0.0
 11
10.815000
 21
187.870000
 31
0.0
  0
ARC
  8
Resist-A
 10
10.815000
 20
187.820000
 30
0.0
 40
0.050000
 50
0.000000
 51
90.000000
  0
LINE
  8
Resist-A
 10
10.865000
 20
187.820000
 30
0.0
 11
10.865000
 21
187.570000
 31
0.0
  0
LINE
  8
PartsFrame-A
 10
10.340000
 20
188.620000
 30
0.0
 11
10.340000
 21
187.620000
 31
0.0
  0
LINE
  8
PartsFrame-A
 10
10.340000
 20
187.620000
 30
0.0
 11
10.840000
 21
187.620000
 31
0.0
  0
LINE
  8
PartsFrame-A
 10
10.840000
 20
187.620000
 30
0.0
 11
10.840000
 21
188.620000
 31
0.0
  0
LINE
  8
PartsFrame-A
 10
10.840000
 20
188.620000
 30
0.0
 11
10.340000
 21
188.620000
 31
0.0
  0
ARC
  8
L1-Copper
 10
9.550000
 20
187.540000
 30
0.0
 40
0.050000
 50
-90.000000
 51
0.000000
  0
LINE
  8
L1-Copper
 10
9.550000
 20
187.490000
 30
0.0
 11
9.370000
 21
187.490000
 31
0.0
  0
ARC
  8
L1-Copper
 10
9.370000
 20
187.540000
 30
0.0
 40
0.050000
 50
180.000000
 51
-90.000000
  0
LINE
  8
L1-Copper
 10
9.320000
 20
187.540000
 30
0.0
 11
9.320000
 21
187.850000
 31
0.0
  0
ARC
  8
L1-Copper
 10
9.370000
 20
187.850000
 30
0.0
 40
0.050000
 50
90.000000
 51
180.000000
  0
LINE
  8
L1-Copper
 10
9.370000
 20
187.900000
 30
0.0
 11
9.550000
 21
187.900000
 31
0.0
  0
ARC
  8
L1-Copper
 10
9.550000
 20
187.850000
 30
0.0
 40
0.050000
 50
0.000000
 51
90.000000
  0
LINE
  8
L1-Copper
 10
9.600000
 20
187.850000
 30
0.0
 11
9.600000
 21
187.540000
 31
0.0
  0
ARC
  8
L1-Copper
 10
10.030000
 20
187.540000
 30
0.0
 40
0.050000
 50
-90.000000
 51
0.000000
  0
LINE
  8
L1-Copper
 10
10.030000
 20
187.490000
 30
0.0
 11
9.850000
 21
187.490000
 31
0.0
  0
ARC
  8
L1-Copper
 10
9.850000
 20
187.540000
 30
0.0
 40
0.050000
 50
180.000000
 51
-90.000000
  0
LINE
  8
L1-Copper
 10
9.800000
 20
187.540000
 30
0.0
 11
9.800000
 21
187.850000
 31
0.0
  0
ARC
  8
L1-Copper
 10
9.850000
 20
187.850000
 30
0.0
 40
0.050000
 50
90.000000
 51
180.000000
  0
LINE
  8
L1-Copper
 10
9.850000
 20
187.900000
 30
0.0
 11
10.030000
 21
187.900000
 31
0.0
  0
ARC
  8
L1-Copper
 10
10.030000
 20
187.850000
 30
0.0
 40
0.050000
 50
0.000000
 51
90.000000
  0
LINE
  8
L1-Copper
 10
10.080000
 20
187.850000
 30
0.0
 11
10.080000
 21
187.540000
 31
0.0
  0
ARC
  8
Resist-A
 10
10.000000
 20
187.820000
 30
0.0
 40
0.050000
 50
0.000000
 51
90.000000
  0
LINE
  8
Resist-A
 10
10.050000
 20
187.820000
 30
0.0
 11
10.050000
 21
187.570000
 31
0.0
  0
ARC
  8
Resist-A
 10
10.000000
 20
187.570000
 30
0.0
 40
0.050000
 50
-90.000000
 51
0.000000
  0
LINE
  8
Resist-A
 10
10.000000
 20
187.520000
 30
0.0
 11
9.400000
 21
187.520000
 31
0.0
  0
ARC
  8
Resist-A
 10
9.400000
 20
187.570000
 30
0.0
 40
0.050000
 50
180.000000
 51
-90.000000
  0
LINE
  8
Resist-A
 10
9.350000
 20
187.570000
 30
0.0
 11
9.350000
 21
187.820000
 31
0.0
  0
ARC
  8
Resist-A
 10
9.400000
 20
187.820000
 30
0.0
 40
0.050000
 50
90.000000
 51
180.000000
  0
LINE
  8
Resist-A
 10
9.400000
 20
187.870000
 30
0.0
 11
10.000000
 21
187.870000
 31
0.0
  0
LINE
  8
PartsFrame-A
 10
9.400000
 20
187.545000
 30
0.0
 11
10.000000
 21
187.545000
 31
0.0
  0
LINE
  8
PartsFrame-A
 10
10.000000
 20
187.545000
 30
0.0
 11
10.000000
 21
187.845000
 31
0.0
  0
LINE
  8
PartsFrame-A
 10
10.000000
 20
187.845000
 30
0.0
 11
9.400000
 21
187.845000
 31
0.0
  0
LINE
  8
PartsFrame-A
 10
9.400000
 20
187.845000
 30
0.0
 11
9.400000
 21
187.545000
 31
0.0
  0
CIRCLE
  8
L1-Copper
 10
5.500000
 20
180.500000
 30
0.0
 40
0.250000
  0
CIRCLE
  8
L2-Copper
 10
5.500000
 20
180.500000
 30
0.0
 40
0.250000
  0
CIRCLE
  8
L3-Copper
 10
5.500000
 20
180.500000
 30
0.0
 40
0.250000
  0
CIRCLE
  8
L4-Copper
 10
5.500000
 20
180.500000
 30
0.0
 40
0.250000
  0
CIRCLE
  8
Resist-A
 10
5.500000
 20
180.500000
 30
0.0
 40
0.200000
  0
CIRCLE
  8
Resist-B
 10
5.500000
 20
180.500000
 30
0.0
 40
0.200000
  0
CIRCLE
  8
L1-Copper
 10
16.700000
 20
180.200000
 30
0.0
 40
0.250000
  0
CIRCLE
  8
L2-Copper
 10
16.700000
 20
180.200000
 30
0.0
 40
0.250000
  0
CIRCLE
  8
L3-Copper
 10
16.700000
 20
180.200000
 30
0.0
 40
0.250000
  0
CIRCLE
  8
L4-Copper
 10
16.700000
 20
180.200000
 30
0.0
 40
0.250000
  0
CIRCLE
  8
Resist-A
 10
16.700000
 20
180.200000
 30
0.0
 40
0.200000
  0
CIRCLE
  8
Resist-B
 10
16.700000
 20
180.200000
 30
0.0
 40
0.200000
  0
CIRCLE
  8
L1-Copper
 10
19.465000
 20
180.275000
 30
0.0
 40
0.175000
  0
CIRCLE
  8
L2-Copper
 10
19.465000
 20
180.275000
 30
0.0
 40
0.175000
  0
CIRCLE
  8
L3-Copper
 10
19.465000
 20
180.275000
 30
0.0
 40
0.175000
  0
CIRCLE
  8
L4-Copper
 10
19.465000
 20
180.275000
 30
0.0
 40
0.175000
  0
CIRCLE
  8
Resist-A
 10
19.465000
 20
180.275000
 30
0.0
 40
0.125000
  0
CIRCLE
  8
Resist-B
 10
19.465000
 20
180.275000
 30
0.0
 40
0.125000
  0
CIRCLE
  8
L1-Copper
 10
3.635000
 20
188.680000
 30
0.0
 40
0.250000
  0
CIRCLE
  8
L2-Copper
 10
3.635000
 20
188.680000
 30
0.0
 40
0.250000
  0
CIRCLE
  8
L3-Copper
 10
3.635000
 20
188.680000
 30
0.0
 40
0.250000
  0
CIRCLE
  8
L4-Copper
 10
3.635000
 20
188.680000
 30
0.0
 40
0.250000
  0
CIRCLE
  8
Resist-A
 10
3.635000
 20
188.680000
 30
0.0
 40
0.200000
  0
CIRCLE
  8
Resist-B
 10
3.635000
 20
188.680000
 30
0.0
 40
0.200000
  0
CIRCLE
  8
L1-Copper
 10
2.240000
 20
189.620000
 30
0.0
 40
0.250000
  0
CIRCLE
  8
L2-Copper
 10
2.240000
 20
189.620000
 30
0.0
 40
0.250000
  0
CIRCLE
  8
L3-Copper
 10
2.240000
 20
189.620000
 30
0.0
 40
0.250000
  0
CIRCLE
  8
L4-Copper
 10
2.240000
 20
189.620000
 30
0.0
 40
0.250000
  0
CIRCLE
  8
Resist-A
 10
2.240000
 20
189.620000
 30
0.0
 40
0.200000
  0
CIRCLE
  8
Resist-B
 10
2.240000
 20
189.620000
 30
0.0
 40
0.200000
  0
CIRCLE
  8
L1-Copper
 10
2.835000
 20
188.790000
 30
0.0
 40
0.250000
  0
CIRCLE
  8
L2-Copper
 10
2.835000
 20
188.790000
 30
0.0
 40
0.250000
  0
CIRCLE
  8
L3-Copper
 10
2.835000
 20
188.790000
 30
0.0
 40
0.250000
  0
CIRCLE
  8
L4-Copper
 10
2.835000
 20
188.790000
 30
0.0
 40
0.250000
  0
CIRCLE
  8
Resist-A
 10
2.835000
 20
188.790000
 30
0.0
 40
0.200000
  0
CIRCLE
  8
Resist-B
 10
2.835000
 20
188.790000
 30
0.0
 40
0.200000
  0
CIRCLE
  8
L1-Copper
 10
4.495000
 20
188.790000
 30
0.0
 40
0.250000
  0
CIRCLE
  8
L2-Copper
 10
4.495000
 20
188.790000
 30
0.0
 40
0.250000
  0
CIRCLE
  8
L3-Copper
 10
4.495000
 20
188.790000
 30
0.0
 40
0.250000
  0
CIRCLE
  8
L4-Copper
 10
4.495000
 20
188.790000
 30
0.0
 40
0.250000
  0
CIRCLE
  8
Resist-A
 10
4.495000
 20
188.790000
 30
0.0
 40
0.200000
  0
CIRCLE
  8
Resist-B
 10
4.495000
 20
188.790000
 30
0.0
 40
0.200000
  0
CIRCLE
  8
L1-Copper
 10
5.465000
 20
188.790000
 30
0.0
 40
0.250000
  0
CIRCLE
  8
L2-Copper
 10
5.465000
 20
188.790000
 30
0.0
 40
0.250000
  0
CIRCLE
  8
L3-Copper
 10
5.465000
 20
188.790000
 30
0.0
 40
0.250000
  0
CIRCLE
  8
L4-Copper
 10
5.465000
 20
188.790000
 30
0.0
 40
0.250000
  0
CIRCLE
  8
Resist-A
 10
5.465000
 20
188.790000
 30
0.0
 40
0.200000
  0
CIRCLE
  8
Resist-B
 10
5.465000
 20
188.790000
 30
0.0
 40
0.200000
  0
CIRCLE
  8
L1-Copper
 10
5.470000
 20
186.705000
 30
0.0
 40
0.250000
  0
CIRCLE
  8
L2-Copper
 10
5.470000
 20
186.705000
 30
0.0
 40
0.250000
  0
CIRCLE
  8
L3-Copper
 10
5.470000
 20
186.705000
 30
0.0
 40
0.250000
  0
CIRCLE
  8
L4-Copper
 10
5.470000
 20
186.705000
 30
0.0
 40
0.250000
  0
CIRCLE
  8
Resist-A
 10
5.470000
 20
186.705000
 30
0.0
 40
0.200000
  0
CIRCLE
  8
Resist-B
 10
5.470000
 20
186.705000
 30
0.0
 40
0.200000
  0
CIRCLE
  8
L1-Copper
 10
6.300000
 20
188.680000
 30
0.0
 40
0.250000
  0
CIRCLE
  8
L2-Copper
 10
6.300000
 20
188.680000
 30
0.0
 40
0.250000
  0
CIRCLE
  8
L3-Copper
 10
6.300000
 20
188.680000
 30
0.0
 40
0.250000
  0
CIRCLE
  8
L4-Copper
 10
6.300000
 20
188.680000
 30
0.0
 40
0.250000
  0
CIRCLE
  8
Resist-A
 10
6.300000
 20
188.680000
 30
0.0
 40
0.200000
  0
CIRCLE
  8
Resist-B
 10
6.300000
 20
188.680000
 30
0.0
 40
0.200000
  0
CIRCLE
  8
L1-Copper
 10
6.305000
 20
186.705000
 30
0.0
 40
0.250000
  0
CIRCLE
  8
L2-Copper
 10
6.305000
 20
186.705000
 30
0.0
 40
0.250000
  0
CIRCLE
  8
L3-Copper
 10
6.305000
 20
186.705000
 30
0.0
 40
0.250000
  0
CIRCLE
  8
L4-Copper
 10
6.305000
 20
186.705000
 30
0.0
 40
0.250000
  0
CIRCLE
  8
Resist-A
 10
6.305000
 20
186.705000
 30
0.0
 40
0.200000
  0
CIRCLE
  8
Resist-B
 10
6.305000
 20
186.705000
 30
0.0
 40
0.200000
  0
CIRCLE
  8
L1-Copper
 10
7.260000
 20
188.795000
 30
0.0
 40
0.250000
  0
CIRCLE
  8
L2-Copper
 10
7.260000
 20
188.795000
 30
0.0
 40
0.250000
  0
CIRCLE
  8
L3-Copper
 10
7.260000
 20
188.795000
 30
0.0
 40
0.250000
  0
CIRCLE
  8
L4-Copper
 10
7.260000
 20
188.795000
 30
0.0
 40
0.250000
  0
CIRCLE
  8
Resist-A
 10
7.260000
 20
188.795000
 30
0.0
 40
0.200000
  0
CIRCLE
  8
Resist-B
 10
7.260000
 20
188.795000
 30
0.0
 40
0.200000
  0
CIRCLE
  8
L1-Copper
 10
7.230000
 20
186.720000
 30
0.0
 40
0.250000
  0
CIRCLE
  8
L2-Copper
 10
7.230000
 20
186.720000
 30
0.0
 40
0.250000
  0
CIRCLE
  8
L3-Copper
 10
7.230000
 20
186.720000
 30
0.0
 40
0.250000
  0
CIRCLE
  8
L4-Copper
 10
7.230000
 20
186.720000
 30
0.0
 40
0.250000
  0
CIRCLE
  8
Resist-A
 10
7.230000
 20
186.720000
 30
0.0
 40
0.200000
  0
CIRCLE
  8
Resist-B
 10
7.230000
 20
186.720000
 30
0.0
 40
0.200000
  0
CIRCLE
  8
L1-Copper
 10
8.020000
 20
188.685000
 30
0.0
 40
0.250000
  0
CIRCLE
  8
L2-Copper
 10
8.020000
 20
188.685000
 30
0.0
 40
0.250000
  0
CIRCLE
  8
L3-Copper
 10
8.020000
 20
188.685000
 30
0.0
 40
0.250000
  0
CIRCLE
  8
L4-Copper
 10
8.020000
 20
188.685000
 30
0.0
 40
0.250000
  0
CIRCLE
  8
Resist-A
 10
8.020000
 20
188.685000
 30
0.0
 40
0.200000
  0
CIRCLE
  8
Resist-B
 10
8.020000
 20
188.685000
 30
0.0
 40
0.200000
  0
CIRCLE
  8
L1-Copper
 10
8.890000
 20
188.685000
 30
0.0
 40
0.250000
  0
CIRCLE
  8
L2-Copper
 10
8.890000
 20
188.685000
 30
0.0
 40
0.250000
  0
CIRCLE
  8
L3-Copper
 10
8.890000
 20
188.685000
 30
0.0
 40
0.250000
  0
CIRCLE
  8
L4-Copper
 10
8.890000
 20
188.685000
 30
0.0
 40
0.250000
  0
CIRCLE
  8
Resist-A
 10
8.890000
 20
188.685000
 30
0.0
 40
0.200000
  0
CIRCLE
  8
Resist-B
 10
8.890000
 20
188.685000
 30
0.0
 40
0.200000
  0
CIRCLE
  8
L1-Copper
 10
8.025000
 20
186.715000
 30
0.0
 40
0.250000
  0
CIRCLE
  8
L2-Copper
 10
8.025000
 20
186.715000
 30
0.0
 40
0.250000
  0
CIRCLE
  8
L3-Copper
 10
8.025000
 20
186.715000
 30
0.0
 40
0.250000
  0
CIRCLE
  8
L4-Copper
 10
8.025000
 20
186.715000
 30
0.0
 40
0.250000
  0
CIRCLE
  8
Resist-A
 10
8.025000
 20
186.715000
 30
0.0
 40
0.200000
  0
CIRCLE
  8
Resist-B
 10
8.025000
 20
186.715000
 30
0.0
 40
0.200000
  0
CIRCLE
  8
L1-Copper
 10
8.895000
 20
186.715000
 30
0.0
 40
0.250000
  0
CIRCLE
  8
L2-Copper
 10
8.895000
 20
186.715000
 30
0.0
 40
0.250000
  0
CIRCLE
  8
L3-Copper
 10
8.895000
 20
186.715000
 30
0.0
 40
0.250000
  0
CIRCLE
  8
L4-Copper
 10
8.895000
 20
186.715000
 30
0.0
 40
0.250000
  0
CIRCLE
  8
Resist-A
 10
8.895000
 20
186.715000
 30
0.0
 40
0.200000
  0
CIRCLE
  8
Resist-B
 10
8.895000
 20
186.715000
 30
0.0
 40
0.200000
  0
CIRCLE
  8
L1-Copper
 10
9.825000
 20
188.680000
 30
0.0
 40
0.250000
  0
CIRCLE
  8
L2-Copper
 10
9.825000
 20
188.680000
 30
0.0
 40
0.250000
  0
CIRCLE
  8
L3-Copper
 10
9.825000
 20
188.680000
 30
0.0
 40
0.250000
  0
CIRCLE
  8
L4-Copper
 10
9.825000
 20
188.680000
 30
0.0
 40
0.250000
  0
CIRCLE
  8
Resist-A
 10
9.825000
 20
188.680000
 30
0.0
 40
0.200000
  0
CIRCLE
  8
Resist-B
 10
9.825000
 20
188.680000
 30
0.0
 40
0.200000
  0
CIRCLE
  8
L1-Copper
 10
9.840000
 20
186.715000
 30
0.0
 40
0.250000
  0
CIRCLE
  8
L2-Copper
 10
9.840000
 20
186.715000
 30
0.0
 40
0.250000
  0
CIRCLE
  8
L3-Copper
 10
9.840000
 20
186.715000
 30
0.0
 40
0.250000
  0
CIRCLE
  8
L4-Copper
 10
9.840000
 20
186.715000
 30
0.0
 40
0.250000
  0
CIRCLE
  8
Resist-A
 10
9.840000
 20
186.715000
 30
0.0
 40
0.200000
  0
CIRCLE
  8
Resist-B
 10
9.840000
 20
186.715000
 30
0.0
 40
0.200000
  0
CIRCLE
  8
L1-Copper
 10
10.590000
 20
189.210000
 30
0.0
 40
0.250000
  0
CIRCLE
  8
L2-Copper
 10
10.590000
 20
189.210000
 30
0.0
 40
0.250000
  0
CIRCLE
  8
L3-Copper
 10
10.590000
 20
189.210000
 30
0.0
 40
0.250000
  0
CIRCLE
  8
L4-Copper
 10
10.590000
 20
189.210000
 30
0.0
 40
0.250000
  0
CIRCLE
  8
Resist-A
 10
10.590000
 20
189.210000
 30
0.0
 40
0.200000
  0
CIRCLE
  8
Resist-B
 10
10.590000
 20
189.210000
 30
0.0
 40
0.200000
  0
CIRCLE
  8
L1-Copper
 10
10.585000
 20
186.710000
 30
0.0
 40
0.250000
  0
CIRCLE
  8
L2-Copper
 10
10.585000
 20
186.710000
 30
0.0
 40
0.250000
  0
CIRCLE
  8
L3-Copper
 10
10.585000
 20
186.710000
 30
0.0
 40
0.250000
  0
CIRCLE
  8
L4-Copper
 10
10.585000
 20
186.710000
 30
0.0
 40
0.250000
  0
CIRCLE
  8
Resist-A
 10
10.585000
 20
186.710000
 30
0.0
 40
0.200000
  0
CIRCLE
  8
Resist-B
 10
10.585000
 20
186.710000
 30
0.0
 40
0.200000
  0
CIRCLE
  8
L1-Copper
 10
11.370000
 20
188.800000
 30
0.0
 40
0.250000
  0
CIRCLE
  8
L2-Copper
 10
11.370000
 20
188.800000
 30
0.0
 40
0.250000
  0
CIRCLE
  8
L3-Copper
 10
11.370000
 20
188.800000
 30
0.0
 40
0.250000
  0
CIRCLE
  8
L4-Copper
 10
11.370000
 20
188.800000
 30
0.0
 40
0.250000
  0
CIRCLE
  8
Resist-A
 10
11.370000
 20
188.800000
 30
0.0
 40
0.200000
  0
CIRCLE
  8
Resist-B
 10
11.370000
 20
188.800000
 30
0.0
 40
0.200000
  0
CIRCLE
  8
L1-Copper
 10
12.295000
 20
188.810000
 30
0.0
 40
0.250000
  0
CIRCLE
  8
L2-Copper
 10
12.295000
 20
188.810000
 30
0.0
 40
0.250000
  0
CIRCLE
  8
L3-Copper
 10
12.295000
 20
188.810000
 30
0.0
 40
0.250000
  0
CIRCLE
  8
L4-Copper
 10
12.295000
 20
188.810000
 30
0.0
 40
0.250000
  0
CIRCLE
  8
Resist-A
 10
12.295000
 20
188.810000
 30
0.0
 40
0.200000
  0
CIRCLE
  8
Resist-B
 10
12.295000
 20
188.810000
 30
0.0
 40
0.200000
  0
CIRCLE
  8
L1-Copper
 10
11.275000
 20
186.595000
 30
0.0
 40
0.250000
  0
CIRCLE
  8
L2-Copper
 10
11.275000
 20
186.595000
 30
0.0
 40
0.250000
  0
CIRCLE
  8
L3-Copper
 10
11.275000
 20
186.595000
 30
0.0
 40
0.250000
  0
CIRCLE
  8
L4-Copper
 10
11.275000
 20
186.595000
 30
0.0
 40
0.250000
  0
CIRCLE
  8
Resist-A
 10
11.275000
 20
186.595000
 30
0.0
 40
0.200000
  0
CIRCLE
  8
Resist-B
 10
11.275000
 20
186.595000
 30
0.0
 40
0.200000
  0
CIRCLE
  8
L1-Copper
 10
13.215000
 20
186.595000
 30
0.0
 40
0.250000
  0
CIRCLE
  8
L2-Copper
 10
13.215000
 20
186.595000
 30
0.0
 40
0.250000
  0
CIRCLE
  8
L3-Copper
 10
13.215000
 20
186.595000
 30
0.0
 40
0.250000
  0
CIRCLE
  8
L4-Copper
 10
13.215000
 20
186.595000
 30
0.0
 40
0.250000
  0
CIRCLE
  8
Resist-A
 10
13.215000
 20
186.595000
 30
0.0
 40
0.200000
  0
CIRCLE
  8
Resist-B
 10
13.215000
 20
186.595000
 30
0.0
 40
0.200000
  0
CIRCLE
  8
L1-Copper
 10
13.255000
 20
189.215000
 30
0.0
 40
0.250000
  0
CIRCLE
  8
L2-Copper
 10
13.255000
 20
189.215000
 30
0.0
 40
0.250000
  0
CIRCLE
  8
L3-Copper
 10
13.255000
 20
189.215000
 30
0.0
 40
0.250000
  0
CIRCLE
  8
L4-Copper
 10
13.255000
 20
189.215000
 30
0.0
 40
0.250000
  0
CIRCLE
  8
Resist-A
 10
13.255000
 20
189.215000
 30
0.0
 40
0.200000
  0
CIRCLE
  8
Resist-B
 10
13.255000
 20
189.215000
 30
0.0
 40
0.200000
  0
CIRCLE
  8
L1-Copper
 10
16.383350
 20
187.753720
 30
0.0
 40
0.250000
  0
CIRCLE
  8
L2-Copper
 10
16.383350
 20
187.753720
 30
0.0
 40
0.250000
  0
CIRCLE
  8
L3-Copper
 10
16.383350
 20
187.753720
 30
0.0
 40
0.250000
  0
CIRCLE
  8
L4-Copper
 10
16.383350
 20
187.753720
 30
0.0
 40
0.250000
  0
CIRCLE
  8
Resist-A
 10
16.383350
 20
187.753720
 30
0.0
 40
0.200000
  0
CIRCLE
  8
Resist-B
 10
16.383350
 20
187.753720
 30
0.0
 40
0.200000
  0
CIRCLE
  8
L1-Copper
 10
16.998540
 20
187.138540
 30
0.0
 40
0.250000
  0
CIRCLE
  8
L2-Copper
 10
16.998540
 20
187.138540
 30
0.0
 40
0.250000
  0
CIRCLE
  8
L3-Copper
 10
16.998540
 20
187.138540
 30
0.0
 40
0.250000
  0
CIRCLE
  8
L4-Copper
 10
16.998540
 20
187.138540
 30
0.0
 40
0.250000
  0
CIRCLE
  8
Resist-A
 10
16.998540
 20
187.138540
 30
0.0
 40
0.200000
  0
CIRCLE
  8
Resist-B
 10
16.998540
 20
187.138540
 30
0.0
 40
0.200000
  0
CIRCLE
  8
L1-Copper
 10
18.928540
 20
185.168540
 30
0.0
 40
0.250000
  0
CIRCLE
  8
L2-Copper
 10
18.928540
 20
185.168540
 30
0.0
 40
0.250000
  0
CIRCLE
  8
L3-Copper
 10
18.928540
 20
185.168540
 30
0.0
 40
0.250000
  0
CIRCLE
  8
L4-Copper
 10
18.928540
 20
185.168540
 30
0.0
 40
0.250000
  0
CIRCLE
  8
Resist-A
 10
18.928540
 20
185.168540
 30
0.0
 40
0.200000
  0
CIRCLE
  8
Resist-B
 10
18.928540
 20
185.168540
 30
0.0
 40
0.200000
  0
CIRCLE
  8
L1-Copper
 10
18.313350
 20
185.783720
 30
0.0
 40
0.250000
  0
CIRCLE
  8
L2-Copper
 10
18.313350
 20
185.783720
 30
0.0
 40
0.250000
  0
CIRCLE
  8
L3-Copper
 10
18.313350
 20
185.783720
 30
0.0
 40
0.250000
  0
CIRCLE
  8
L4-Copper
 10
18.313350
 20
185.783720
 30
0.0
 40
0.250000
  0
CIRCLE
  8
Resist-A
 10
18.313350
 20
185.783720
 30
0.0
 40
0.200000
  0
CIRCLE
  8
Resist-B
 10
18.313350
 20
185.783720
 30
0.0
 40
0.200000
  0
CIRCLE
  8
L1-Copper
 10
17.655740
 20
186.448400
 30
0.0
 40
0.250000
  0
CIRCLE
  8
L2-Copper
 10
17.655740
 20
186.448400
 30
0.0
 40
0.250000
  0
CIRCLE
  8
L3-Copper
 10
17.655740
 20
186.448400
 30
0.0
 40
0.250000
  0
CIRCLE
  8
L4-Copper
 10
17.655740
 20
186.448400
 30
0.0
 40
0.250000
  0
CIRCLE
  8
Resist-A
 10
17.655740
 20
186.448400
 30
0.0
 40
0.200000
  0
CIRCLE
  8
Resist-B
 10
17.655740
 20
186.448400
 30
0.0
 40
0.200000
  0
CIRCLE
  8
L1-Copper
 10
14.025000
 20
186.730000
 30
0.0
 40
0.250000
  0
CIRCLE
  8
L2-Copper
 10
14.025000
 20
186.730000
 30
0.0
 40
0.250000
  0
CIRCLE
  8
L3-Copper
 10
14.025000
 20
186.730000
 30
0.0
 40
0.250000
  0
CIRCLE
  8
L4-Copper
 10
14.025000
 20
186.730000
 30
0.0
 40
0.250000
  0
CIRCLE
  8
Resist-A
 10
14.025000
 20
186.730000
 30
0.0
 40
0.200000
  0
CIRCLE
  8
Resist-B
 10
14.025000
 20
186.730000
 30
0.0
 40
0.200000
  0
CIRCLE
  8
L1-Copper
 10
14.895000
 20
186.370000
 30
0.0
 40
0.250000
  0
CIRCLE
  8
L2-Copper
 10
14.895000
 20
186.370000
 30
0.0
 40
0.250000
  0
CIRCLE
  8
L3-Copper
 10
14.895000
 20
186.370000
 30
0.0
 40
0.250000
  0
CIRCLE
  8
L4-Copper
 10
14.895000
 20
186.370000
 30
0.0
 40
0.250000
  0
CIRCLE
  8
Resist-A
 10
14.895000
 20
186.370000
 30
0.0
 40
0.200000
  0
CIRCLE
  8
Resist-B
 10
14.895000
 20
186.370000
 30
0.0
 40
0.200000
  0
CIRCLE
  8
L1-Copper
 10
15.475000
 20
185.780000
 30
0.0
 40
0.250000
  0
CIRCLE
  8
L2-Copper
 10
15.475000
 20
185.780000
 30
0.0
 40
0.250000
  0
CIRCLE
  8
L3-Copper
 10
15.475000
 20
185.780000
 30
0.0
 40
0.250000
  0
CIRCLE
  8
L4-Copper
 10
15.475000
 20
185.780000
 30
0.0
 40
0.250000
  0
CIRCLE
  8
Resist-A
 10
15.475000
 20
185.780000
 30
0.0
 40
0.200000
  0
CIRCLE
  8
Resist-B
 10
15.475000
 20
185.780000
 30
0.0
 40
0.200000
  0
CIRCLE
  8
L1-Copper
 10
16.115000
 20
185.110000
 30
0.0
 40
0.250000
  0
CIRCLE
  8
L2-Copper
 10
16.115000
 20
185.110000
 30
0.0
 40
0.250000
  0
CIRCLE
  8
L3-Copper
 10
16.115000
 20
185.110000
 30
0.0
 40
0.250000
  0
CIRCLE
  8
L4-Copper
 10
16.115000
 20
185.110000
 30
0.0
 40
0.250000
  0
CIRCLE
  8
Resist-A
 10
16.115000
 20
185.110000
 30
0.0
 40
0.200000
  0
CIRCLE
  8
Resist-B
 10
16.115000
 20
185.110000
 30
0.0
 40
0.200000
  0
CIRCLE
  8
L1-Copper
 10
15.840000
 20
188.310000
 30
0.0
 40
0.250000
  0
CIRCLE
  8
L2-Copper
 10
15.840000
 20
188.310000
 30
0.0
 40
0.250000
  0
CIRCLE
  8
L3-Copper
 10
15.840000
 20
188.310000
 30
0.0
 40
0.250000
  0
CIRCLE
  8
L4-Copper
 10
15.840000
 20
188.310000
 30
0.0
 40
0.250000
  0
CIRCLE
  8
Resist-A
 10
15.840000
 20
188.310000
 30
0.0
 40
0.200000
  0
CIRCLE
  8
Resist-B
 10
15.840000
 20
188.310000
 30
0.0
 40
0.200000
  0
CIRCLE
  8
L1-Copper
 10
14.170000
 20
188.720000
 30
0.0
 40
0.250000
  0
CIRCLE
  8
L2-Copper
 10
14.170000
 20
188.720000
 30
0.0
 40
0.250000
  0
CIRCLE
  8
L3-Copper
 10
14.170000
 20
188.720000
 30
0.0
 40
0.250000
  0
CIRCLE
  8
L4-Copper
 10
14.170000
 20
188.720000
 30
0.0
 40
0.250000
  0
CIRCLE
  8
Resist-A
 10
14.170000
 20
188.720000
 30
0.0
 40
0.200000
  0
CIRCLE
  8
Resist-B
 10
14.170000
 20
188.720000
 30
0.0
 40
0.200000
  0
CIRCLE
  8
L1-Copper
 10
15.070000
 20
188.670000
 30
0.0
 40
0.250000
  0
CIRCLE
  8
L2-Copper
 10
15.070000
 20
188.670000
 30
0.0
 40
0.250000
  0
CIRCLE
  8
L3-Copper
 10
15.070000
 20
188.670000
 30
0.0
 40
0.250000
  0
CIRCLE
  8
L4-Copper
 10
15.070000
 20
188.670000
 30
0.0
 40
0.250000
  0
CIRCLE
  8
Resist-A
 10
15.070000
 20
188.670000
 30
0.0
 40
0.200000
  0
CIRCLE
  8
Resist-B
 10
15.070000
 20
188.670000
 30
0.0
 40
0.200000
  0
CIRCLE
  8
L1-Copper
 10
9.700000
 20
185.255000
 30
0.0
 40
0.250000
  0
CIRCLE
  8
L2-Copper
 10
9.700000
 20
185.255000
 30
0.0
 40
0.250000
  0
CIRCLE
  8
L3-Copper
 10
9.700000
 20
185.255000
 30
0.0
 40
0.250000
  0
CIRCLE
  8
L4-Copper
 10
9.700000
 20
185.255000
 30
0.0
 40
0.250000
  0
CIRCLE
  8
Resist-A
 10
9.700000
 20
185.255000
 30
0.0
 40
0.200000
  0
CIRCLE
  8
Resist-B
 10
9.700000
 20
185.255000
 30
0.0
 40
0.200000
  0
CIRCLE
  8
L1-Copper
 10
9.530000
 20
184.235000
 30
0.0
 40
0.250000
  0
CIRCLE
  8
L2-Copper
 10
9.530000
 20
184.235000
 30
0.0
 40
0.250000
  0
CIRCLE
  8
L3-Copper
 10
9.530000
 20
184.235000
 30
0.0
 40
0.250000
  0
CIRCLE
  8
L4-Copper
 10
9.530000
 20
184.235000
 30
0.0
 40
0.250000
  0
CIRCLE
  8
Resist-A
 10
9.530000
 20
184.235000
 30
0.0
 40
0.200000
  0
CIRCLE
  8
Resist-B
 10
9.530000
 20
184.235000
 30
0.0
 40
0.200000
  0
CIRCLE
  8
L1-Copper
 10
14.710000
 20
185.255000
 30
0.0
 40
0.250000
  0
CIRCLE
  8
L2-Copper
 10
14.710000
 20
185.255000
 30
0.0
 40
0.250000
  0
CIRCLE
  8
L3-Copper
 10
14.710000
 20
185.255000
 30
0.0
 40
0.250000
  0
CIRCLE
  8
L4-Copper
 10
14.710000
 20
185.255000
 30
0.0
 40
0.250000
  0
CIRCLE
  8
Resist-A
 10
14.710000
 20
185.255000
 30
0.0
 40
0.200000
  0
CIRCLE
  8
Resist-B
 10
14.710000
 20
185.255000
 30
0.0
 40
0.200000
  0
CIRCLE
  8
L1-Copper
 10
11.740000
 20
180.390000
 30
0.0
 40
0.250000
  0
CIRCLE
  8
L2-Copper
 10
11.740000
 20
180.390000
 30
0.0
 40
0.250000
  0
CIRCLE
  8
L3-Copper
 10
11.740000
 20
180.390000
 30
0.0
 40
0.250000
  0
CIRCLE
  8
L4-Copper
 10
11.740000
 20
180.390000
 30
0.0
 40
0.250000
  0
CIRCLE
  8
Resist-A
 10
11.740000
 20
180.390000
 30
0.0
 40
0.200000
  0
CIRCLE
  8
Resist-B
 10
11.740000
 20
180.390000
 30
0.0
 40
0.200000
  0
CIRCLE
  8
L1-Copper
 10
9.825000
 20
185.970000
 30
0.0
 40
0.250000
  0
CIRCLE
  8
L2-Copper
 10
9.825000
 20
185.970000
 30
0.0
 40
0.250000
  0
CIRCLE
  8
L3-Copper
 10
9.825000
 20
185.970000
 30
0.0
 40
0.250000
  0
CIRCLE
  8
L4-Copper
 10
9.825000
 20
185.970000
 30
0.0
 40
0.250000
  0
CIRCLE
  8
Resist-A
 10
9.825000
 20
185.970000
 30
0.0
 40
0.200000
  0
CIRCLE
  8
Resist-B
 10
9.825000
 20
185.970000
 30
0.0
 40
0.200000
  0
CIRCLE
  8
L1-Copper
 10
17.515000
 20
183.090000
 30
0.0
 40
0.250000
  0
CIRCLE
  8
L2-Copper
 10
17.515000
 20
183.090000
 30
0.0
 40
0.250000
  0
CIRCLE
  8
L3-Copper
 10
17.515000
 20
183.090000
 30
0.0
 40
0.250000
  0
CIRCLE
  8
L4-Copper
 10
17.515000
 20
183.090000
 30
0.0
 40
0.250000
  0
CIRCLE
  8
Resist-A
 10
17.515000
 20
183.090000
 30
0.0
 40
0.200000
  0
CIRCLE
  8
Resist-B
 10
17.515000
 20
183.090000
 30
0.0
 40
0.200000
  0
CIRCLE
  8
L1-Copper
 10
17.510000
 20
182.195000
 30
0.0
 40
0.250000
  0
CIRCLE
  8
L2-Copper
 10
17.510000
 20
182.195000
 30
0.0
 40
0.250000
  0
CIRCLE
  8
L3-Copper
 10
17.510000
 20
182.195000
 30
0.0
 40
0.250000
  0
CIRCLE
  8
L4-Copper
 10
17.510000
 20
182.195000
 30
0.0
 40
0.250000
  0
CIRCLE
  8
Resist-A
 10
17.510000
 20
182.195000
 30
0.0
 40
0.200000
  0
CIRCLE
  8
Resist-B
 10
17.510000
 20
182.195000
 30
0.0
 40
0.200000
  0
CIRCLE
  8
L1-Copper
 10
16.840000
 20
182.635000
 30
0.0
 40
0.250000
  0
CIRCLE
  8
L2-Copper
 10
16.840000
 20
182.635000
 30
0.0
 40
0.250000
  0
CIRCLE
  8
L3-Copper
 10
16.840000
 20
182.635000
 30
0.0
 40
0.250000
  0
CIRCLE
  8
L4-Copper
 10
16.840000
 20
182.635000
 30
0.0
 40
0.250000
  0
CIRCLE
  8
Resist-A
 10
16.840000
 20
182.635000
 30
0.0
 40
0.200000
  0
CIRCLE
  8
Resist-B
 10
16.840000
 20
182.635000
 30
0.0
 40
0.200000
  0
CIRCLE
  8
L1-Copper
 10
3.635000
 20
186.700000
 30
0.0
 40
0.250000
  0
CIRCLE
  8
L2-Copper
 10
3.635000
 20
186.700000
 30
0.0
 40
0.250000
  0
CIRCLE
  8
L3-Copper
 10
3.635000
 20
186.700000
 30
0.0
 40
0.250000
  0
CIRCLE
  8
L4-Copper
 10
3.635000
 20
186.700000
 30
0.0
 40
0.250000
  0
CIRCLE
  8
Resist-A
 10
3.635000
 20
186.700000
 30
0.0
 40
0.200000
  0
CIRCLE
  8
Resist-B
 10
3.635000
 20
186.700000
 30
0.0
 40
0.200000
  0
CIRCLE
  8
L1-Copper
 10
4.510000
 20
186.705000
 30
0.0
 40
0.250000
  0
CIRCLE
  8
L2-Copper
 10
4.510000
 20
186.705000
 30
0.0
 40
0.250000
  0
CIRCLE
  8
L3-Copper
 10
4.510000
 20
186.705000
 30
0.0
 40
0.250000
  0
CIRCLE
  8
L4-Copper
 10
4.510000
 20
186.705000
 30
0.0
 40
0.250000
  0
CIRCLE
  8
Resist-A
 10
4.510000
 20
186.705000
 30
0.0
 40
0.200000
  0
CIRCLE
  8
Resist-B
 10
4.510000
 20
186.705000
 30
0.0
 40
0.200000
  0
CIRCLE
  8
L1-Copper
 10
2.835000
 20
186.710000
 30
0.0
 40
0.250000
  0
CIRCLE
  8
L2-Copper
 10
2.835000
 20
186.710000
 30
0.0
 40
0.250000
  0
CIRCLE
  8
L3-Copper
 10
2.835000
 20
186.710000
 30
0.0
 40
0.250000
  0
CIRCLE
  8
L4-Copper
 10
2.835000
 20
186.710000
 30
0.0
 40
0.250000
  0
CIRCLE
  8
Resist-A
 10
2.835000
 20
186.710000
 30
0.0
 40
0.200000
  0
CIRCLE
  8
Resist-B
 10
2.835000
 20
186.710000
 30
0.0
 40
0.200000
  0
CIRCLE
  8
L1-Copper
 10
2.030000
 20
186.830000
 30
0.0
 40
0.250000
  0
CIRCLE
  8
L2-Copper
 10
2.030000
 20
186.830000
 30
0.0
 40
0.250000
  0
CIRCLE
  8
L3-Copper
 10
2.030000
 20
186.830000
 30
0.0
 40
0.250000
  0
CIRCLE
  8
L4-Copper
 10
2.030000
 20
186.830000
 30
0.0
 40
0.250000
  0
CIRCLE
  8
Resist-A
 10
2.030000
 20
186.830000
 30
0.0
 40
0.200000
  0
CIRCLE
  8
Resist-B
 10
2.030000
 20
186.830000
 30
0.0
 40
0.200000
  0
CIRCLE
  8
L1-Copper
 10
3.090000
 20
189.630000
 30
0.0
 40
0.250000
  0
CIRCLE
  8
L2-Copper
 10
3.090000
 20
189.630000
 30
0.0
 40
0.250000
  0
CIRCLE
  8
L3-Copper
 10
3.090000
 20
189.630000
 30
0.0
 40
0.250000
  0
CIRCLE
  8
L4-Copper
 10
3.090000
 20
189.630000
 30
0.0
 40
0.250000
  0
CIRCLE
  8
Resist-A
 10
3.090000
 20
189.630000
 30
0.0
 40
0.200000
  0
CIRCLE
  8
Resist-B
 10
3.090000
 20
189.630000
 30
0.0
 40
0.200000
  0
CIRCLE
  8
L1-Copper
 10
5.160000
 20
185.145000
 30
0.0
 40
0.250000
  0
CIRCLE
  8
L2-Copper
 10
5.160000
 20
185.145000
 30
0.0
 40
0.250000
  0
CIRCLE
  8
L3-Copper
 10
5.160000
 20
185.145000
 30
0.0
 40
0.250000
  0
CIRCLE
  8
L4-Copper
 10
5.160000
 20
185.145000
 30
0.0
 40
0.250000
  0
CIRCLE
  8
Resist-A
 10
5.160000
 20
185.145000
 30
0.0
 40
0.200000
  0
CIRCLE
  8
Resist-B
 10
5.160000
 20
185.145000
 30
0.0
 40
0.200000
  0
CIRCLE
  8
L1-Copper
 10
1.660000
 20
185.145000
 30
0.0
 40
0.250000
  0
CIRCLE
  8
L2-Copper
 10
1.660000
 20
185.145000
 30
0.0
 40
0.250000
  0
CIRCLE
  8
L3-Copper
 10
1.660000
 20
185.145000
 30
0.0
 40
0.250000
  0
CIRCLE
  8
L4-Copper
 10
1.660000
 20
185.145000
 30
0.0
 40
0.250000
  0
CIRCLE
  8
Resist-A
 10
1.660000
 20
185.145000
 30
0.0
 40
0.200000
  0
CIRCLE
  8
Resist-B
 10
1.660000
 20
185.145000
 30
0.0
 40
0.200000
  0
CIRCLE
  8
L1-Copper
 10
5.160000
 20
181.645000
 30
0.0
 40
0.250000
  0
CIRCLE
  8
L2-Copper
 10
5.160000
 20
181.645000
 30
0.0
 40
0.250000
  0
CIRCLE
  8
L3-Copper
 10
5.160000
 20
181.645000
 30
0.0
 40
0.250000
  0
CIRCLE
  8
L4-Copper
 10
5.160000
 20
181.645000
 30
0.0
 40
0.250000
  0
CIRCLE
  8
Resist-A
 10
5.160000
 20
181.645000
 30
0.0
 40
0.200000
  0
CIRCLE
  8
Resist-B
 10
5.160000
 20
181.645000
 30
0.0
 40
0.200000
  0
CIRCLE
  8
L1-Copper
 10
1.660000
 20
181.645000
 30
0.0
 40
0.250000
  0
CIRCLE
  8
L2-Copper
 10
1.660000
 20
181.645000
 30
0.0
 40
0.250000
  0
CIRCLE
  8
L3-Copper
 10
1.660000
 20
181.645000
 30
0.0
 40
0.250000
  0
CIRCLE
  8
L4-Copper
 10
1.660000
 20
181.645000
 30
0.0
 40
0.250000
  0
CIRCLE
  8
Resist-A
 10
1.660000
 20
181.645000
 30
0.0
 40
0.200000
  0
CIRCLE
  8
Resist-B
 10
1.660000
 20
181.645000
 30
0.0
 40
0.200000
  0
CIRCLE
  8
L1-Copper
 10
1.375000
 20
187.150000
 30
0.0
 40
0.250000
  0
CIRCLE
  8
L2-Copper
 10
1.375000
 20
187.150000
 30
0.0
 40
0.250000
  0
CIRCLE
  8
L3-Copper
 10
1.375000
 20
187.150000
 30
0.0
 40
0.250000
  0
CIRCLE
  8
L4-Copper
 10
1.375000
 20
187.150000
 30
0.0
 40
0.250000
  0
CIRCLE
  8
Resist-A
 10
1.375000
 20
187.150000
 30
0.0
 40
0.200000
  0
CIRCLE
  8
Resist-B
 10
1.375000
 20
187.150000
 30
0.0
 40
0.200000
  0
CIRCLE
  8
L1-Copper
 10
0.840000
 20
187.690000
 30
0.0
 40
0.250000
  0
CIRCLE
  8
L2-Copper
 10
0.840000
 20
187.690000
 30
0.0
 40
0.250000
  0
CIRCLE
  8
L3-Copper
 10
0.840000
 20
187.690000
 30
0.0
 40
0.250000
  0
CIRCLE
  8
L4-Copper
 10
0.840000
 20
187.690000
 30
0.0
 40
0.250000
  0
CIRCLE
  8
Resist-A
 10
0.840000
 20
187.690000
 30
0.0
 40
0.200000
  0
CIRCLE
  8
Resist-B
 10
0.840000
 20
187.690000
 30
0.0
 40
0.200000
  0
CIRCLE
  8
L1-Copper
 10
9.285000
 20
180.160000
 30
0.0
 40
0.250000
  0
CIRCLE
  8
L2-Copper
 10
9.285000
 20
180.160000
 30
0.0
 40
0.250000
  0
CIRCLE
  8
L3-Copper
 10
9.285000
 20
180.160000
 30
0.0
 40
0.250000
  0
CIRCLE
  8
L4-Copper
 10
9.285000
 20
180.160000
 30
0.0
 40
0.250000
  0
CIRCLE
  8
Resist-A
 10
9.285000
 20
180.160000
 30
0.0
 40
0.200000
  0
CIRCLE
  8
Resist-B
 10
9.285000
 20
180.160000
 30
0.0
 40
0.200000
  0
CIRCLE
  8
L1-Copper
 10
14.905000
 20
183.015000
 30
0.0
 40
0.250000
  0
CIRCLE
  8
L2-Copper
 10
14.905000
 20
183.015000
 30
0.0
 40
0.250000
  0
CIRCLE
  8
L3-Copper
 10
14.905000
 20
183.015000
 30
0.0
 40
0.250000
  0
CIRCLE
  8
L4-Copper
 10
14.905000
 20
183.015000
 30
0.0
 40
0.250000
  0
CIRCLE
  8
Resist-A
 10
14.905000
 20
183.015000
 30
0.0
 40
0.200000
  0
CIRCLE
  8
Resist-B
 10
14.905000
 20
183.015000
 30
0.0
 40
0.200000
  0
CIRCLE
  8
L1-Copper
 10
8.545000
 20
185.165000
 30
0.0
 40
0.250000
  0
CIRCLE
  8
L2-Copper
 10
8.545000
 20
185.165000
 30
0.0
 40
0.250000
  0
CIRCLE
  8
L3-Copper
 10
8.545000
 20
185.165000
 30
0.0
 40
0.250000
  0
CIRCLE
  8
L4-Copper
 10
8.545000
 20
185.165000
 30
0.0
 40
0.250000
  0
CIRCLE
  8
Resist-A
 10
8.545000
 20
185.165000
 30
0.0
 40
0.200000
  0
CIRCLE
  8
Resist-B
 10
8.545000
 20
185.165000
 30
0.0
 40
0.200000
  0
CIRCLE
  8
L1-Copper
 10
8.575000
 20
183.415000
 30
0.0
 40
0.250000
  0
CIRCLE
  8
L2-Copper
 10
8.575000
 20
183.415000
 30
0.0
 40
0.250000
  0
CIRCLE
  8
L3-Copper
 10
8.575000
 20
183.415000
 30
0.0
 40
0.250000
  0
CIRCLE
  8
L4-Copper
 10
8.575000
 20
183.415000
 30
0.0
 40
0.250000
  0
CIRCLE
  8
Resist-A
 10
8.575000
 20
183.415000
 30
0.0
 40
0.200000
  0
CIRCLE
  8
Resist-B
 10
8.575000
 20
183.415000
 30
0.0
 40
0.200000
  0
CIRCLE
  8
L1-Copper
 10
19.780000
 20
185.175000
 30
0.0
 40
0.250000
  0
CIRCLE
  8
L2-Copper
 10
19.780000
 20
185.175000
 30
0.0
 40
0.250000
  0
CIRCLE
  8
L3-Copper
 10
19.780000
 20
185.175000
 30
0.0
 40
0.250000
  0
CIRCLE
  8
L4-Copper
 10
19.780000
 20
185.175000
 30
0.0
 40
0.250000
  0
CIRCLE
  8
Resist-A
 10
19.780000
 20
185.175000
 30
0.0
 40
0.200000
  0
CIRCLE
  8
Resist-B
 10
19.780000
 20
185.175000
 30
0.0
 40
0.200000
  0
CIRCLE
  8
L1-Copper
 10
14.585000
 20
189.380000
 30
0.0
 40
0.250000
  0
CIRCLE
  8
L2-Copper
 10
14.585000
 20
189.380000
 30
0.0
 40
0.250000
  0
CIRCLE
  8
L3-Copper
 10
14.585000
 20
189.380000
 30
0.0
 40
0.250000
  0
CIRCLE
  8
L4-Copper
 10
14.585000
 20
189.380000
 30
0.0
 40
0.250000
  0
CIRCLE
  8
Resist-A
 10
14.585000
 20
189.380000
 30
0.0
 40
0.200000
  0
CIRCLE
  8
Resist-B
 10
14.585000
 20
189.380000
 30
0.0
 40
0.200000
  0
CIRCLE
  8
L1-Copper
 10
11.845000
 20
189.410000
 30
0.0
 40
0.250000
  0
CIRCLE
  8
L2-Copper
 10
11.845000
 20
189.410000
 30
0.0
 40
0.250000
  0
CIRCLE
  8
L3-Copper
 10
11.845000
 20
189.410000
 30
0.0
 40
0.250000
  0
CIRCLE
  8
L4-Copper
 10
11.845000
 20
189.410000
 30
0.0
 40
0.250000
  0
CIRCLE
  8
Resist-A
 10
11.845000
 20
189.410000
 30
0.0
 40
0.200000
  0
CIRCLE
  8
Resist-B
 10
11.845000
 20
189.410000
 30
0.0
 40
0.200000
  0
CIRCLE
  8
L1-Copper
 10
9.380000
 20
189.395000
 30
0.0
 40
0.250000
  0
CIRCLE
  8
L2-Copper
 10
9.380000
 20
189.395000
 30
0.0
 40
0.250000
  0
CIRCLE
  8
L3-Copper
 10
9.380000
 20
189.395000
 30
0.0
 40
0.250000
  0
CIRCLE
  8
L4-Copper
 10
9.380000
 20
189.395000
 30
0.0
 40
0.250000
  0
CIRCLE
  8
Resist-A
 10
9.380000
 20
189.395000
 30
0.0
 40
0.200000
  0
CIRCLE
  8
Resist-B
 10
9.380000
 20
189.395000
 30
0.0
 40
0.200000
  0
CIRCLE
  8
L1-Copper
 10
14.925000
 20
182.225000
 30
0.0
 40
0.250000
  0
CIRCLE
  8
L2-Copper
 10
14.925000
 20
182.225000
 30
0.0
 40
0.250000
  0
CIRCLE
  8
L3-Copper
 10
14.925000
 20
182.225000
 30
0.0
 40
0.250000
  0
CIRCLE
  8
L4-Copper
 10
14.925000
 20
182.225000
 30
0.0
 40
0.250000
  0
CIRCLE
  8
Resist-A
 10
14.925000
 20
182.225000
 30
0.0
 40
0.200000
  0
CIRCLE
  8
Resist-B
 10
14.925000
 20
182.225000
 30
0.0
 40
0.200000
  0
CIRCLE
  8
L1-Copper
 10
15.825000
 20
182.920000
 30
0.0
 40
0.250000
  0
CIRCLE
  8
L2-Copper
 10
15.825000
 20
182.920000
 30
0.0
 40
0.250000
  0
CIRCLE
  8
L3-Copper
 10
15.825000
 20
182.920000
 30
0.0
 40
0.250000
  0
CIRCLE
  8
L4-Copper
 10
15.825000
 20
182.920000
 30
0.0
 40
0.250000
  0
CIRCLE
  8
Resist-A
 10
15.825000
 20
182.920000
 30
0.0
 40
0.200000
  0
CIRCLE
  8
Resist-B
 10
15.825000
 20
182.920000
 30
0.0
 40
0.200000
  0
CIRCLE
  8
L1-Copper
 10
10.880000
 20
181.110000
 30
0.0
 40
0.250000
  0
CIRCLE
  8
L2-Copper
 10
10.880000
 20
181.110000
 30
0.0
 40
0.250000
  0
CIRCLE
  8
L3-Copper
 10
10.880000
 20
181.110000
 30
0.0
 40
0.250000
  0
CIRCLE
  8
L4-Copper
 10
10.880000
 20
181.110000
 30
0.0
 40
0.250000
  0
CIRCLE
  8
Resist-A
 10
10.880000
 20
181.110000
 30
0.0
 40
0.200000
  0
CIRCLE
  8
Resist-B
 10
10.880000
 20
181.110000
 30
0.0
 40
0.200000
  0
CIRCLE
  8
L1-Copper
 10
10.880000
 20
181.900000
 30
0.0
 40
0.250000
  0
CIRCLE
  8
L2-Copper
 10
10.880000
 20
181.900000
 30
0.0
 40
0.250000
  0
CIRCLE
  8
L3-Copper
 10
10.880000
 20
181.900000
 30
0.0
 40
0.250000
  0
CIRCLE
  8
L4-Copper
 10
10.880000
 20
181.900000
 30
0.0
 40
0.250000
  0
CIRCLE
  8
Resist-A
 10
10.880000
 20
181.900000
 30
0.0
 40
0.200000
  0
CIRCLE
  8
Resist-B
 10
10.880000
 20
181.900000
 30
0.0
 40
0.200000
  0
CIRCLE
  8
L1-Copper
 10
19.760000
 20
189.435000
 30
0.0
 40
0.250000
  0
CIRCLE
  8
L2-Copper
 10
19.760000
 20
189.435000
 30
0.0
 40
0.250000
  0
CIRCLE
  8
L3-Copper
 10
19.760000
 20
189.435000
 30
0.0
 40
0.250000
  0
CIRCLE
  8
L4-Copper
 10
19.760000
 20
189.435000
 30
0.0
 40
0.250000
  0
CIRCLE
  8
Resist-A
 10
19.760000
 20
189.435000
 30
0.0
 40
0.200000
  0
CIRCLE
  8
Resist-B
 10
19.760000
 20
189.435000
 30
0.0
 40
0.200000
  0
CIRCLE
  8
L1-Copper
 10
19.750000
 20
187.050000
 30
0.0
 40
0.250000
  0
CIRCLE
  8
L2-Copper
 10
19.750000
 20
187.050000
 30
0.0
 40
0.250000
  0
CIRCLE
  8
L3-Copper
 10
19.750000
 20
187.050000
 30
0.0
 40
0.250000
  0
CIRCLE
  8
L4-Copper
 10
19.750000
 20
187.050000
 30
0.0
 40
0.250000
  0
CIRCLE
  8
Resist-A
 10
19.750000
 20
187.050000
 30
0.0
 40
0.200000
  0
CIRCLE
  8
Resist-B
 10
19.750000
 20
187.050000
 30
0.0
 40
0.200000
  0
ENDSEC
  0
EOF
