  0
SECTION
  2
HEADER
  9
$ACADVER
  1
AC1009
  9
$ACADMAINTVER
 70
   0
  9
$DWGCODEPAGE
  3
ANSI_932
  9
$INSBASE
 10
0.0
 20
0.0
 30
0.0
  9
$EXTMIN
 10
-0.050000
 20
-0.050040
 30
0.0
  9
$EXTMAX
 10
10.050000
 20
7.249960
 30
0.0
  9
$LIMMIN
 10
0.0
 20
0.0
  9
$LIMMAX
 10
12.0
 20
9.0
  9
$ORTHOMODE
 70
	0
  9
$REGENMODE
 70
	1
  9
$FILLMODE
 70
	1
  9
$QTEXTMODE
 70
	0
  9
$MIRRTEXT
 70
	1
  9
$DRAGMODE
 70
	2
  9
$LTSCALE
 40
1.0
  9
$OSMODE
 70
	0
  9
$ATTMODE
 70
	1
  9
$TEXTSIZE
 40
0.2
  9
$TRACEWID
 40
0.05
  9
$TEXTSTYLE
  7
STANDARD
  9
$CLAYER
  8
0
  9
$CELTYPE
  6
BYLAYER
  9
$CECOLOR
 62
	256
  9
$CELTSCALE
 40
1.0
  9
$DELOBJ
 70
	1
  9
$DISPSILH
 70
	0
  9
$LUNITS
 70
	2
  9
$LUPREC
 70
	6
  9
$SKETCHINC
 40
0.1
  9
$FILLETRAD
 40
0.5
  9
$AUNITS
 70
	0
  9
$AUPREC
 70
	6
  9
$MENU
  1
acad
  9
$ELEVATION
 40
0.0
  9
$PELEVATION
 40
0.0
  9
$THICKNESS
 40
0.0
  9
$LIMCHECK
 70
	0
  9
$BLIPMODE
 70
	0
  9
$CHAMFERA
 40
0.5
  9
$CHAMFERB
 40
0.5
  9
$CHAMFERC
 40
1.0
  9
$CHAMFERD
 40
0.0
  9
$SKPOLY
 70
	0
  9
$TDCREATE
 40
0.0
  9
$TDUPDATE
 40
0.0
  9
$TDINDWG
 40
0.0
  9
$TDUSRTIMER
 40
0.0
  9
$USRTIMER
 70
	0
  9
$ANGBASE
 50
0.0
  9
$ANGDIR
 70
	0
  9
$PDMODE
 70
	0
  9
$PDSIZE
 40
0.0
  9
$PLINEWID
 40
0.0
  9
$COORDS
 70
	1
  9
$SPLFRAME
 70
	0
  9
$SPLINETYPE
 70
	6
  9
$SPLINESEGS
 70
	8
  9
$ATTDIA
 70
	0
  9
$ATTREQ
 70
	1
  9
$HANDLING
 70
   1
  0
ENDSEC
  0
SECTION
  2
TABLES
  0
TABLE
  2
LAYER
 70
2
  0
LAYER
  2
0
 70
   0
 62
  7
  6
CONTINUOUS
  0
LAYER
  2
PartsFrameB
 70
   0
 62
  7
  6
CONTINUOUS
  0
LAYER
  2
PCBoutline
 70
   0
 62
  7
  6
CONTINUOUS
  0
ENDTAB
  0
TABLE
  2
LTYPE
 70
1
  0
ENDTAB
  0
TABLE
  2
STYLE
 70
1
  0
STYLE
  2
STANDARD
 70
0
 40
0.0
 41
1.0
 50
0.0
 71
0
 42
1.0
  3
txt
  4
EXTFONT
  0
ENDTAB
  0
ENDSEC
  0
SECTION
  2
BLOCKS
  0
ENDSEC
  0
SECTION
  2
ENTITIES
  0
LINE
  8
PCBoutline
 10
10.000000
 20
7.199960
 30
0.0
 11
10.000000
 21
-0.000040
 31
0.0
  0
LINE
  8
PCBoutline
 10
10.000000
 20
-0.000040
 30
0.0
 11
0.000000
 21
-0.000040
 31
0.0
  0
LINE
  8
PCBoutline
 10
0.000000
 20
-0.000040
 30
0.0
 11
0.000000
 21
7.199960
 31
0.0
  0
LINE
  8
PCBoutline
 10
0.000000
 20
7.199960
 30
0.0
 11
10.000000
 21
7.199960
 31
0.0
  0
LINE
  8
PartsFrameB
 10
0.850000
 20
2.475000
 30
0.0
 11
0.850000
 21
2.225000
 31
0.0
  0
LINE
  8
PartsFrameB
 10
0.850000
 20
2.225000
 30
0.0
 11
0.300000
 21
2.225000
 31
0.0
  0
LINE
  8
PartsFrameB
 10
0.300000
 20
2.225000
 30
0.0
 11
0.300000
 21
2.475000
 31
0.0
  0
LINE
  8
PartsFrameB
 10
0.300000
 20
2.475000
 30
0.0
 11
0.850000
 21
2.475000
 31
0.0
  0
LINE
  8
PartsFrameB
 10
2.425000
 20
4.725000
 30
0.0
 11
2.425000
 21
4.475000
 31
0.0
  0
LINE
  8
PartsFrameB
 10
2.425000
 20
4.475000
 30
0.0
 11
1.875000
 21
4.475000
 31
0.0
  0
LINE
  8
PartsFrameB
 10
1.875000
 20
4.475000
 30
0.0
 11
1.875000
 21
4.725000
 31
0.0
  0
LINE
  8
PartsFrameB
 10
1.875000
 20
4.725000
 30
0.0
 11
2.425000
 21
4.725000
 31
0.0
  0
LINE
  8
PartsFrameB
 10
5.675000
 20
3.225000
 30
0.0
 11
5.675000
 21
2.975000
 31
0.0
  0
LINE
  8
PartsFrameB
 10
5.675000
 20
2.975000
 30
0.0
 11
5.125000
 21
2.975000
 31
0.0
  0
LINE
  8
PartsFrameB
 10
5.125000
 20
2.975000
 30
0.0
 11
5.125000
 21
3.225000
 31
0.0
  0
LINE
  8
PartsFrameB
 10
5.125000
 20
3.225000
 30
0.0
 11
5.675000
 21
3.225000
 31
0.0
  0
LINE
  8
PartsFrameB
 10
2.375000
 20
2.225000
 30
0.0
 11
2.625000
 21
2.225000
 31
0.0
  0
LINE
  8
PartsFrameB
 10
2.625000
 20
2.225000
 30
0.0
 11
2.625000
 21
1.675000
 31
0.0
  0
LINE
  8
PartsFrameB
 10
2.625000
 20
1.675000
 30
0.0
 11
2.375000
 21
1.675000
 31
0.0
  0
LINE
  8
PartsFrameB
 10
2.375000
 20
1.675000
 30
0.0
 11
2.375000
 21
2.225000
 31
0.0
  0
LINE
  8
PartsFrameB
 10
1.875000
 20
2.475000
 30
0.0
 11
1.875000
 21
2.725000
 31
0.0
  0
LINE
  8
PartsFrameB
 10
1.875000
 20
2.725000
 30
0.0
 11
2.425000
 21
2.725000
 31
0.0
  0
LINE
  8
PartsFrameB
 10
2.425000
 20
2.725000
 30
0.0
 11
2.425000
 21
2.475000
 31
0.0
  0
LINE
  8
PartsFrameB
 10
2.425000
 20
2.475000
 30
0.0
 11
1.875000
 21
2.475000
 31
0.0
  0
LINE
  8
PartsFrameB
 10
0.850000
 20
4.475000
 30
0.0
 11
0.850000
 21
4.225000
 31
0.0
  0
LINE
  8
PartsFrameB
 10
0.850000
 20
4.225000
 30
0.0
 11
0.300000
 21
4.225000
 31
0.0
  0
LINE
  8
PartsFrameB
 10
0.300000
 20
4.225000
 30
0.0
 11
0.300000
 21
4.475000
 31
0.0
  0
LINE
  8
PartsFrameB
 10
0.300000
 20
4.475000
 30
0.0
 11
0.850000
 21
4.475000
 31
0.0
  0
LINE
  8
PartsFrameB
 10
5.625000
 20
6.350000
 30
0.0
 11
5.375000
 21
6.350000
 31
0.0
  0
LINE
  8
PartsFrameB
 10
5.375000
 20
6.350000
 30
0.0
 11
5.375000
 21
6.900000
 31
0.0
  0
LINE
  8
PartsFrameB
 10
5.375000
 20
6.900000
 30
0.0
 11
5.625000
 21
6.900000
 31
0.0
  0
LINE
  8
PartsFrameB
 10
5.625000
 20
6.900000
 30
0.0
 11
5.625000
 21
6.350000
 31
0.0
  0
LINE
  8
PartsFrameB
 10
9.700000
 20
1.475000
 30
0.0
 11
9.700000
 21
1.225000
 31
0.0
  0
LINE
  8
PartsFrameB
 10
9.700000
 20
1.225000
 30
0.0
 11
9.150000
 21
1.225000
 31
0.0
  0
LINE
  8
PartsFrameB
 10
9.150000
 20
1.225000
 30
0.0
 11
9.150000
 21
1.475000
 31
0.0
  0
LINE
  8
PartsFrameB
 10
9.150000
 20
1.475000
 30
0.0
 11
9.700000
 21
1.475000
 31
0.0
  0
LINE
  8
PartsFrameB
 10
9.700000
 20
4.975000
 30
0.0
 11
9.700000
 21
4.725000
 31
0.0
  0
LINE
  8
PartsFrameB
 10
9.700000
 20
4.725000
 30
0.0
 11
9.150000
 21
4.725000
 31
0.0
  0
LINE
  8
PartsFrameB
 10
9.150000
 20
4.725000
 30
0.0
 11
9.150000
 21
4.975000
 31
0.0
  0
LINE
  8
PartsFrameB
 10
9.150000
 20
4.975000
 30
0.0
 11
9.700000
 21
4.975000
 31
0.0
  0
LINE
  8
PartsFrameB
 10
1.875000
 20
2.225000
 30
0.0
 11
2.125000
 21
2.225000
 31
0.0
  0
LINE
  8
PartsFrameB
 10
2.125000
 20
2.225000
 30
0.0
 11
2.125000
 21
1.675000
 31
0.0
  0
LINE
  8
PartsFrameB
 10
2.125000
 20
1.675000
 30
0.0
 11
1.875000
 21
1.675000
 31
0.0
  0
LINE
  8
PartsFrameB
 10
1.875000
 20
1.675000
 30
0.0
 11
1.875000
 21
2.225000
 31
0.0
  0
LINE
  8
PartsFrameB
 10
0.850000
 20
1.975000
 30
0.0
 11
0.850000
 21
1.725000
 31
0.0
  0
LINE
  8
PartsFrameB
 10
0.850000
 20
1.725000
 30
0.0
 11
0.300000
 21
1.725000
 31
0.0
  0
LINE
  8
PartsFrameB
 10
0.300000
 20
1.725000
 30
0.0
 11
0.300000
 21
1.975000
 31
0.0
  0
LINE
  8
PartsFrameB
 10
0.300000
 20
1.975000
 30
0.0
 11
0.850000
 21
1.975000
 31
0.0
  0
LINE
  8
PartsFrameB
 10
2.625000
 20
6.350000
 30
0.0
 11
2.375000
 21
6.350000
 31
0.0
  0
LINE
  8
PartsFrameB
 10
2.375000
 20
6.350000
 30
0.0
 11
2.375000
 21
6.900000
 31
0.0
  0
LINE
  8
PartsFrameB
 10
2.375000
 20
6.900000
 30
0.0
 11
2.625000
 21
6.900000
 31
0.0
  0
LINE
  8
PartsFrameB
 10
2.625000
 20
6.900000
 30
0.0
 11
2.625000
 21
6.350000
 31
0.0
  0
LINE
  8
PartsFrameB
 10
3.125000
 20
6.350000
 30
0.0
 11
2.875000
 21
6.350000
 31
0.0
  0
LINE
  8
PartsFrameB
 10
2.875000
 20
6.350000
 30
0.0
 11
2.875000
 21
6.900000
 31
0.0
  0
LINE
  8
PartsFrameB
 10
2.875000
 20
6.900000
 30
0.0
 11
3.125000
 21
6.900000
 31
0.0
  0
LINE
  8
PartsFrameB
 10
3.125000
 20
6.900000
 30
0.0
 11
3.125000
 21
6.350000
 31
0.0
  0
LINE
  8
PartsFrameB
 10
6.625000
 20
4.975000
 30
0.0
 11
6.375000
 21
4.975000
 31
0.0
  0
LINE
  8
PartsFrameB
 10
6.375000
 20
4.975000
 30
0.0
 11
6.375000
 21
5.525000
 31
0.0
  0
LINE
  8
PartsFrameB
 10
6.375000
 20
5.525000
 30
0.0
 11
6.625000
 21
5.525000
 31
0.0
  0
LINE
  8
PartsFrameB
 10
6.625000
 20
5.525000
 30
0.0
 11
6.625000
 21
4.975000
 31
0.0
  0
LINE
  8
PartsFrameB
 10
1.625000
 20
6.350000
 30
0.0
 11
1.375000
 21
6.350000
 31
0.0
  0
LINE
  8
PartsFrameB
 10
1.375000
 20
6.350000
 30
0.0
 11
1.375000
 21
6.900000
 31
0.0
  0
LINE
  8
PartsFrameB
 10
1.375000
 20
6.900000
 30
0.0
 11
1.625000
 21
6.900000
 31
0.0
  0
LINE
  8
PartsFrameB
 10
1.625000
 20
6.900000
 30
0.0
 11
1.625000
 21
6.350000
 31
0.0
  0
LINE
  8
PartsFrameB
 10
5.125000
 20
6.350000
 30
0.0
 11
4.875000
 21
6.350000
 31
0.0
  0
LINE
  8
PartsFrameB
 10
4.875000
 20
6.350000
 30
0.0
 11
4.875000
 21
6.900000
 31
0.0
  0
LINE
  8
PartsFrameB
 10
4.875000
 20
6.900000
 30
0.0
 11
5.125000
 21
6.900000
 31
0.0
  0
LINE
  8
PartsFrameB
 10
5.125000
 20
6.900000
 30
0.0
 11
5.125000
 21
6.350000
 31
0.0
  0
LINE
  8
PartsFrameB
 10
2.425000
 20
4.225000
 30
0.0
 11
2.425000
 21
3.975000
 31
0.0
  0
LINE
  8
PartsFrameB
 10
2.425000
 20
3.975000
 30
0.0
 11
1.875000
 21
3.975000
 31
0.0
  0
LINE
  8
PartsFrameB
 10
1.875000
 20
3.975000
 30
0.0
 11
1.875000
 21
4.225000
 31
0.0
  0
LINE
  8
PartsFrameB
 10
1.875000
 20
4.225000
 30
0.0
 11
2.425000
 21
4.225000
 31
0.0
  0
LINE
  8
PartsFrameB
 10
7.625000
 20
1.675000
 30
0.0
 11
7.375000
 21
1.675000
 31
0.0
  0
LINE
  8
PartsFrameB
 10
7.375000
 20
1.675000
 30
0.0
 11
7.375000
 21
2.225000
 31
0.0
  0
LINE
  8
PartsFrameB
 10
7.375000
 20
2.225000
 30
0.0
 11
7.625000
 21
2.225000
 31
0.0
  0
LINE
  8
PartsFrameB
 10
7.625000
 20
2.225000
 30
0.0
 11
7.625000
 21
1.675000
 31
0.0
  0
LINE
  8
PartsFrameB
 10
4.625000
 20
6.350000
 30
0.0
 11
4.375000
 21
6.350000
 31
0.0
  0
LINE
  8
PartsFrameB
 10
4.375000
 20
6.350000
 30
0.0
 11
4.375000
 21
6.900000
 31
0.0
  0
LINE
  8
PartsFrameB
 10
4.375000
 20
6.900000
 30
0.0
 11
4.625000
 21
6.900000
 31
0.0
  0
LINE
  8
PartsFrameB
 10
4.625000
 20
6.900000
 30
0.0
 11
4.625000
 21
6.350000
 31
0.0
  0
LINE
  8
PartsFrameB
 10
3.625000
 20
6.350000
 30
0.0
 11
3.375000
 21
6.350000
 31
0.0
  0
LINE
  8
PartsFrameB
 10
3.375000
 20
6.350000
 30
0.0
 11
3.375000
 21
6.900000
 31
0.0
  0
LINE
  8
PartsFrameB
 10
3.375000
 20
6.900000
 30
0.0
 11
3.625000
 21
6.900000
 31
0.0
  0
LINE
  8
PartsFrameB
 10
3.625000
 20
6.900000
 30
0.0
 11
3.625000
 21
6.350000
 31
0.0
  0
LINE
  8
PartsFrameB
 10
7.575000
 20
4.475000
 30
0.0
 11
7.575000
 21
4.725000
 31
0.0
  0
LINE
  8
PartsFrameB
 10
7.575000
 20
4.725000
 30
0.0
 11
8.125000
 21
4.725000
 31
0.0
  0
LINE
  8
PartsFrameB
 10
8.125000
 20
4.725000
 30
0.0
 11
8.125000
 21
4.475000
 31
0.0
  0
LINE
  8
PartsFrameB
 10
8.125000
 20
4.475000
 30
0.0
 11
7.575000
 21
4.475000
 31
0.0
  0
LINE
  8
PartsFrameB
 10
8.125000
 20
4.225000
 30
0.0
 11
8.125000
 21
3.975000
 31
0.0
  0
LINE
  8
PartsFrameB
 10
8.125000
 20
3.975000
 30
0.0
 11
7.575000
 21
3.975000
 31
0.0
  0
LINE
  8
PartsFrameB
 10
7.575000
 20
3.975000
 30
0.0
 11
7.575000
 21
4.225000
 31
0.0
  0
LINE
  8
PartsFrameB
 10
7.575000
 20
4.225000
 30
0.0
 11
8.125000
 21
4.225000
 31
0.0
  0
LINE
  8
PartsFrameB
 10
5.125000
 20
1.675000
 30
0.0
 11
4.875000
 21
1.675000
 31
0.0
  0
LINE
  8
PartsFrameB
 10
4.875000
 20
1.675000
 30
0.0
 11
4.875000
 21
2.225000
 31
0.0
  0
LINE
  8
PartsFrameB
 10
4.875000
 20
2.225000
 30
0.0
 11
5.125000
 21
2.225000
 31
0.0
  0
LINE
  8
PartsFrameB
 10
5.125000
 20
2.225000
 30
0.0
 11
5.125000
 21
1.675000
 31
0.0
  0
LINE
  8
PartsFrameB
 10
8.125000
 20
3.225000
 30
0.0
 11
8.125000
 21
2.975000
 31
0.0
  0
LINE
  8
PartsFrameB
 10
8.125000
 20
2.975000
 30
0.0
 11
7.575000
 21
2.975000
 31
0.0
  0
LINE
  8
PartsFrameB
 10
7.575000
 20
2.975000
 30
0.0
 11
7.575000
 21
3.225000
 31
0.0
  0
LINE
  8
PartsFrameB
 10
7.575000
 20
3.225000
 30
0.0
 11
8.125000
 21
3.225000
 31
0.0
  0
LINE
  8
PartsFrameB
 10
9.700000
 20
5.975000
 30
0.0
 11
9.700000
 21
5.725000
 31
0.0
  0
LINE
  8
PartsFrameB
 10
9.700000
 20
5.725000
 30
0.0
 11
9.150000
 21
5.725000
 31
0.0
  0
LINE
  8
PartsFrameB
 10
9.150000
 20
5.725000
 30
0.0
 11
9.150000
 21
5.975000
 31
0.0
  0
LINE
  8
PartsFrameB
 10
9.150000
 20
5.975000
 30
0.0
 11
9.700000
 21
5.975000
 31
0.0
  0
LINE
  8
PartsFrameB
 10
7.875000
 20
5.525000
 30
0.0
 11
8.125000
 21
5.525000
 31
0.0
  0
LINE
  8
PartsFrameB
 10
8.125000
 20
5.525000
 30
0.0
 11
8.125000
 21
4.975000
 31
0.0
  0
LINE
  8
PartsFrameB
 10
8.125000
 20
4.975000
 30
0.0
 11
7.875000
 21
4.975000
 31
0.0
  0
LINE
  8
PartsFrameB
 10
7.875000
 20
4.975000
 30
0.0
 11
7.875000
 21
5.525000
 31
0.0
  0
LINE
  8
PartsFrameB
 10
2.125000
 20
6.350000
 30
0.0
 11
1.875000
 21
6.350000
 31
0.0
  0
LINE
  8
PartsFrameB
 10
1.875000
 20
6.350000
 30
0.0
 11
1.875000
 21
6.900000
 31
0.0
  0
LINE
  8
PartsFrameB
 10
1.875000
 20
6.900000
 30
0.0
 11
2.125000
 21
6.900000
 31
0.0
  0
LINE
  8
PartsFrameB
 10
2.125000
 20
6.900000
 30
0.0
 11
2.125000
 21
6.350000
 31
0.0
  0
LINE
  8
PartsFrameB
 10
0.850000
 20
5.475000
 30
0.0
 11
0.850000
 21
5.225000
 31
0.0
  0
LINE
  8
PartsFrameB
 10
0.850000
 20
5.225000
 30
0.0
 11
0.300000
 21
5.225000
 31
0.0
  0
LINE
  8
PartsFrameB
 10
0.300000
 20
5.225000
 30
0.0
 11
0.300000
 21
5.475000
 31
0.0
  0
LINE
  8
PartsFrameB
 10
0.300000
 20
5.475000
 30
0.0
 11
0.850000
 21
5.475000
 31
0.0
  0
LINE
  8
PartsFrameB
 10
4.125000
 20
6.350000
 30
0.0
 11
3.875000
 21
6.350000
 31
0.0
  0
LINE
  8
PartsFrameB
 10
3.875000
 20
6.350000
 30
0.0
 11
3.875000
 21
6.900000
 31
0.0
  0
LINE
  8
PartsFrameB
 10
3.875000
 20
6.900000
 30
0.0
 11
4.125000
 21
6.900000
 31
0.0
  0
LINE
  8
PartsFrameB
 10
4.125000
 20
6.900000
 30
0.0
 11
4.125000
 21
6.350000
 31
0.0
  0
LINE
  8
PartsFrameB
 10
2.425000
 20
3.725000
 30
0.0
 11
2.425000
 21
3.475000
 31
0.0
  0
LINE
  8
PartsFrameB
 10
2.425000
 20
3.475000
 30
0.0
 11
1.875000
 21
3.475000
 31
0.0
  0
LINE
  8
PartsFrameB
 10
1.875000
 20
3.475000
 30
0.0
 11
1.875000
 21
3.725000
 31
0.0
  0
LINE
  8
PartsFrameB
 10
1.875000
 20
3.725000
 30
0.0
 11
2.425000
 21
3.725000
 31
0.0
  0
LINE
  8
PartsFrameB
 10
2.425000
 20
3.225000
 30
0.0
 11
2.425000
 21
2.975000
 31
0.0
  0
LINE
  8
PartsFrameB
 10
2.425000
 20
2.975000
 30
0.0
 11
1.875000
 21
2.975000
 31
0.0
  0
LINE
  8
PartsFrameB
 10
1.875000
 20
2.975000
 30
0.0
 11
1.875000
 21
3.225000
 31
0.0
  0
LINE
  8
PartsFrameB
 10
1.875000
 20
3.225000
 30
0.0
 11
2.425000
 21
3.225000
 31
0.0
  0
LINE
  8
PartsFrameB
 10
0.850000
 20
3.475000
 30
0.0
 11
0.850000
 21
3.225000
 31
0.0
  0
LINE
  8
PartsFrameB
 10
0.850000
 20
3.225000
 30
0.0
 11
0.300000
 21
3.225000
 31
0.0
  0
LINE
  8
PartsFrameB
 10
0.300000
 20
3.225000
 30
0.0
 11
0.300000
 21
3.475000
 31
0.0
  0
LINE
  8
PartsFrameB
 10
0.300000
 20
3.475000
 30
0.0
 11
0.850000
 21
3.475000
 31
0.0
  0
LINE
  8
PartsFrameB
 10
8.125000
 20
3.725000
 30
0.0
 11
8.125000
 21
3.475000
 31
0.0
  0
LINE
  8
PartsFrameB
 10
8.125000
 20
3.475000
 30
0.0
 11
7.575000
 21
3.475000
 31
0.0
  0
LINE
  8
PartsFrameB
 10
7.575000
 20
3.475000
 30
0.0
 11
7.575000
 21
3.725000
 31
0.0
  0
LINE
  8
PartsFrameB
 10
7.575000
 20
3.725000
 30
0.0
 11
8.125000
 21
3.725000
 31
0.0
  0
LINE
  8
PartsFrameB
 10
6.125000
 20
6.350000
 30
0.0
 11
5.875000
 21
6.350000
 31
0.0
  0
LINE
  8
PartsFrameB
 10
5.875000
 20
6.350000
 30
0.0
 11
5.875000
 21
6.900000
 31
0.0
  0
LINE
  8
PartsFrameB
 10
5.875000
 20
6.900000
 30
0.0
 11
6.125000
 21
6.900000
 31
0.0
  0
LINE
  8
PartsFrameB
 10
6.125000
 20
6.900000
 30
0.0
 11
6.125000
 21
6.350000
 31
0.0
  0
LINE
  8
PartsFrameB
 10
1.875000
 20
5.525000
 30
0.0
 11
2.125000
 21
5.525000
 31
0.0
  0
LINE
  8
PartsFrameB
 10
2.125000
 20
5.525000
 30
0.0
 11
2.125000
 21
4.975000
 31
0.0
  0
LINE
  8
PartsFrameB
 10
2.125000
 20
4.975000
 30
0.0
 11
1.875000
 21
4.975000
 31
0.0
  0
LINE
  8
PartsFrameB
 10
1.875000
 20
4.975000
 30
0.0
 11
1.875000
 21
5.525000
 31
0.0
  0
LINE
  8
PartsFrameB
 10
3.125000
 20
4.975000
 30
0.0
 11
2.875000
 21
4.975000
 31
0.0
  0
LINE
  8
PartsFrameB
 10
2.875000
 20
4.975000
 30
0.0
 11
2.875000
 21
5.525000
 31
0.0
  0
LINE
  8
PartsFrameB
 10
2.875000
 20
5.525000
 30
0.0
 11
3.125000
 21
5.525000
 31
0.0
  0
LINE
  8
PartsFrameB
 10
3.125000
 20
5.525000
 30
0.0
 11
3.125000
 21
4.975000
 31
0.0
  0
LINE
  8
PartsFrameB
 10
3.625000
 20
4.975000
 30
0.0
 11
3.375000
 21
4.975000
 31
0.0
  0
LINE
  8
PartsFrameB
 10
3.375000
 20
4.975000
 30
0.0
 11
3.375000
 21
5.525000
 31
0.0
  0
LINE
  8
PartsFrameB
 10
3.375000
 20
5.525000
 30
0.0
 11
3.625000
 21
5.525000
 31
0.0
  0
LINE
  8
PartsFrameB
 10
3.625000
 20
5.525000
 30
0.0
 11
3.625000
 21
4.975000
 31
0.0
  0
LINE
  8
PartsFrameB
 10
2.375000
 20
5.525000
 30
0.0
 11
2.625000
 21
5.525000
 31
0.0
  0
LINE
  8
PartsFrameB
 10
2.625000
 20
5.525000
 30
0.0
 11
2.625000
 21
4.975000
 31
0.0
  0
LINE
  8
PartsFrameB
 10
2.625000
 20
4.975000
 30
0.0
 11
2.375000
 21
4.975000
 31
0.0
  0
LINE
  8
PartsFrameB
 10
2.375000
 20
4.975000
 30
0.0
 11
2.375000
 21
5.525000
 31
0.0
  0
LINE
  8
PartsFrameB
 10
5.625000
 20
4.975000
 30
0.0
 11
5.375000
 21
4.975000
 31
0.0
  0
LINE
  8
PartsFrameB
 10
5.375000
 20
4.975000
 30
0.0
 11
5.375000
 21
5.525000
 31
0.0
  0
LINE
  8
PartsFrameB
 10
5.375000
 20
5.525000
 30
0.0
 11
5.625000
 21
5.525000
 31
0.0
  0
LINE
  8
PartsFrameB
 10
5.625000
 20
5.525000
 30
0.0
 11
5.625000
 21
4.975000
 31
0.0
  0
LINE
  8
PartsFrameB
 10
6.125000
 20
4.975000
 30
0.0
 11
5.875000
 21
4.975000
 31
0.0
  0
LINE
  8
PartsFrameB
 10
5.875000
 20
4.975000
 30
0.0
 11
5.875000
 21
5.525000
 31
0.0
  0
LINE
  8
PartsFrameB
 10
5.875000
 20
5.525000
 30
0.0
 11
6.125000
 21
5.525000
 31
0.0
  0
LINE
  8
PartsFrameB
 10
6.125000
 20
5.525000
 30
0.0
 11
6.125000
 21
4.975000
 31
0.0
  0
LINE
  8
PartsFrameB
 10
5.125000
 20
4.975000
 30
0.0
 11
4.875000
 21
4.975000
 31
0.0
  0
LINE
  8
PartsFrameB
 10
4.875000
 20
4.975000
 30
0.0
 11
4.875000
 21
5.525000
 31
0.0
  0
LINE
  8
PartsFrameB
 10
4.875000
 20
5.525000
 30
0.0
 11
5.125000
 21
5.525000
 31
0.0
  0
LINE
  8
PartsFrameB
 10
5.125000
 20
5.525000
 30
0.0
 11
5.125000
 21
4.975000
 31
0.0
  0
LINE
  8
PartsFrameB
 10
4.625000
 20
4.975000
 30
0.0
 11
4.375000
 21
4.975000
 31
0.0
  0
LINE
  8
PartsFrameB
 10
4.375000
 20
4.975000
 30
0.0
 11
4.375000
 21
5.525000
 31
0.0
  0
LINE
  8
PartsFrameB
 10
4.375000
 20
5.525000
 30
0.0
 11
4.625000
 21
5.525000
 31
0.0
  0
LINE
  8
PartsFrameB
 10
4.625000
 20
5.525000
 30
0.0
 11
4.625000
 21
4.975000
 31
0.0
  0
LINE
  8
PartsFrameB
 10
9.125000
 20
6.350000
 30
0.0
 11
8.875000
 21
6.350000
 31
0.0
  0
LINE
  8
PartsFrameB
 10
8.875000
 20
6.350000
 30
0.0
 11
8.875000
 21
6.900000
 31
0.0
  0
LINE
  8
PartsFrameB
 10
8.875000
 20
6.900000
 30
0.0
 11
9.125000
 21
6.900000
 31
0.0
  0
LINE
  8
PartsFrameB
 10
9.125000
 20
6.900000
 30
0.0
 11
9.125000
 21
6.350000
 31
0.0
  0
LINE
  8
PartsFrameB
 10
7.625000
 20
6.350000
 30
0.0
 11
7.375000
 21
6.350000
 31
0.0
  0
LINE
  8
PartsFrameB
 10
7.375000
 20
6.350000
 30
0.0
 11
7.375000
 21
6.900000
 31
0.0
  0
LINE
  8
PartsFrameB
 10
7.375000
 20
6.900000
 30
0.0
 11
7.625000
 21
6.900000
 31
0.0
  0
LINE
  8
PartsFrameB
 10
7.625000
 20
6.900000
 30
0.0
 11
7.625000
 21
6.350000
 31
0.0
  0
LINE
  8
PartsFrameB
 10
8.625000
 20
6.350000
 30
0.0
 11
8.375000
 21
6.350000
 31
0.0
  0
LINE
  8
PartsFrameB
 10
8.375000
 20
6.350000
 30
0.0
 11
8.375000
 21
6.900000
 31
0.0
  0
LINE
  8
PartsFrameB
 10
8.375000
 20
6.900000
 30
0.0
 11
8.625000
 21
6.900000
 31
0.0
  0
LINE
  8
PartsFrameB
 10
8.625000
 20
6.900000
 30
0.0
 11
8.625000
 21
6.350000
 31
0.0
  0
LINE
  8
PartsFrameB
 10
8.125000
 20
6.350000
 30
0.0
 11
7.875000
 21
6.350000
 31
0.0
  0
LINE
  8
PartsFrameB
 10
7.875000
 20
6.350000
 30
0.0
 11
7.875000
 21
6.900000
 31
0.0
  0
LINE
  8
PartsFrameB
 10
7.875000
 20
6.900000
 30
0.0
 11
8.125000
 21
6.900000
 31
0.0
  0
LINE
  8
PartsFrameB
 10
8.125000
 20
6.900000
 30
0.0
 11
8.125000
 21
6.350000
 31
0.0
  0
LINE
  8
PartsFrameB
 10
4.125000
 20
1.675000
 30
0.0
 11
3.875000
 21
1.675000
 31
0.0
  0
LINE
  8
PartsFrameB
 10
3.875000
 20
1.675000
 30
0.0
 11
3.875000
 21
2.225000
 31
0.0
  0
LINE
  8
PartsFrameB
 10
3.875000
 20
2.225000
 30
0.0
 11
4.125000
 21
2.225000
 31
0.0
  0
LINE
  8
PartsFrameB
 10
4.125000
 20
2.225000
 30
0.0
 11
4.125000
 21
1.675000
 31
0.0
  0
LINE
  8
PartsFrameB
 10
4.625000
 20
1.675000
 30
0.0
 11
4.375000
 21
1.675000
 31
0.0
  0
LINE
  8
PartsFrameB
 10
4.375000
 20
1.675000
 30
0.0
 11
4.375000
 21
2.225000
 31
0.0
  0
LINE
  8
PartsFrameB
 10
4.375000
 20
2.225000
 30
0.0
 11
4.625000
 21
2.225000
 31
0.0
  0
LINE
  8
PartsFrameB
 10
4.625000
 20
2.225000
 30
0.0
 11
4.625000
 21
1.675000
 31
0.0
  0
LINE
  8
PartsFrameB
 10
3.125000
 20
1.675000
 30
0.0
 11
2.875000
 21
1.675000
 31
0.0
  0
LINE
  8
PartsFrameB
 10
2.875000
 20
1.675000
 30
0.0
 11
2.875000
 21
2.225000
 31
0.0
  0
LINE
  8
PartsFrameB
 10
2.875000
 20
2.225000
 30
0.0
 11
3.125000
 21
2.225000
 31
0.0
  0
LINE
  8
PartsFrameB
 10
3.125000
 20
2.225000
 30
0.0
 11
3.125000
 21
1.675000
 31
0.0
  0
LINE
  8
PartsFrameB
 10
3.375000
 20
2.225000
 30
0.0
 11
3.625000
 21
2.225000
 31
0.0
  0
LINE
  8
PartsFrameB
 10
3.625000
 20
2.225000
 30
0.0
 11
3.625000
 21
1.675000
 31
0.0
  0
LINE
  8
PartsFrameB
 10
3.625000
 20
1.675000
 30
0.0
 11
3.375000
 21
1.675000
 31
0.0
  0
LINE
  8
PartsFrameB
 10
3.375000
 20
1.675000
 30
0.0
 11
3.375000
 21
2.225000
 31
0.0
  0
LINE
  8
PartsFrameB
 10
9.700000
 20
3.975000
 30
0.0
 11
9.700000
 21
3.725000
 31
0.0
  0
LINE
  8
PartsFrameB
 10
9.700000
 20
3.725000
 30
0.0
 11
9.150000
 21
3.725000
 31
0.0
  0
LINE
  8
PartsFrameB
 10
9.150000
 20
3.725000
 30
0.0
 11
9.150000
 21
3.975000
 31
0.0
  0
LINE
  8
PartsFrameB
 10
9.150000
 20
3.975000
 30
0.0
 11
9.700000
 21
3.975000
 31
0.0
  0
LINE
  8
PartsFrameB
 10
9.700000
 20
1.975000
 30
0.0
 11
9.700000
 21
1.725000
 31
0.0
  0
LINE
  8
PartsFrameB
 10
9.700000
 20
1.725000
 30
0.0
 11
9.150000
 21
1.725000
 31
0.0
  0
LINE
  8
PartsFrameB
 10
9.150000
 20
1.725000
 30
0.0
 11
9.150000
 21
1.975000
 31
0.0
  0
LINE
  8
PartsFrameB
 10
9.150000
 20
1.975000
 30
0.0
 11
9.700000
 21
1.975000
 31
0.0
  0
LINE
  8
PartsFrameB
 10
9.700000
 20
2.475000
 30
0.0
 11
9.700000
 21
2.225000
 31
0.0
  0
LINE
  8
PartsFrameB
 10
9.700000
 20
2.225000
 30
0.0
 11
9.150000
 21
2.225000
 31
0.0
  0
LINE
  8
PartsFrameB
 10
9.150000
 20
2.225000
 30
0.0
 11
9.150000
 21
2.475000
 31
0.0
  0
LINE
  8
PartsFrameB
 10
9.150000
 20
2.475000
 30
0.0
 11
9.700000
 21
2.475000
 31
0.0
  0
LINE
  8
PartsFrameB
 10
9.700000
 20
2.975000
 30
0.0
 11
9.700000
 21
2.725000
 31
0.0
  0
LINE
  8
PartsFrameB
 10
9.700000
 20
2.725000
 30
0.0
 11
9.150000
 21
2.725000
 31
0.0
  0
LINE
  8
PartsFrameB
 10
9.150000
 20
2.725000
 30
0.0
 11
9.150000
 21
2.975000
 31
0.0
  0
LINE
  8
PartsFrameB
 10
9.150000
 20
2.975000
 30
0.0
 11
9.700000
 21
2.975000
 31
0.0
  0
LINE
  8
PartsFrameB
 10
9.700000
 20
4.475000
 30
0.0
 11
9.700000
 21
4.225000
 31
0.0
  0
LINE
  8
PartsFrameB
 10
9.700000
 20
4.225000
 30
0.0
 11
9.150000
 21
4.225000
 31
0.0
  0
LINE
  8
PartsFrameB
 10
9.150000
 20
4.225000
 30
0.0
 11
9.150000
 21
4.475000
 31
0.0
  0
LINE
  8
PartsFrameB
 10
9.150000
 20
4.475000
 30
0.0
 11
9.700000
 21
4.475000
 31
0.0
  0
LINE
  8
PartsFrameB
 10
9.700000
 20
3.475000
 30
0.0
 11
9.700000
 21
3.225000
 31
0.0
  0
LINE
  8
PartsFrameB
 10
9.700000
 20
3.225000
 30
0.0
 11
9.150000
 21
3.225000
 31
0.0
  0
LINE
  8
PartsFrameB
 10
9.150000
 20
3.225000
 30
0.0
 11
9.150000
 21
3.475000
 31
0.0
  0
LINE
  8
PartsFrameB
 10
9.150000
 20
3.475000
 30
0.0
 11
9.700000
 21
3.475000
 31
0.0
  0
LINE
  8
PartsFrameB
 10
8.125000
 20
1.675000
 30
0.0
 11
7.875000
 21
1.675000
 31
0.0
  0
LINE
  8
PartsFrameB
 10
7.875000
 20
1.675000
 30
0.0
 11
7.875000
 21
2.225000
 31
0.0
  0
LINE
  8
PartsFrameB
 10
7.875000
 20
2.225000
 30
0.0
 11
8.125000
 21
2.225000
 31
0.0
  0
LINE
  8
PartsFrameB
 10
8.125000
 20
2.225000
 30
0.0
 11
8.125000
 21
1.675000
 31
0.0
  0
LINE
  8
PartsFrameB
 10
5.625000
 20
1.675000
 30
0.0
 11
5.375000
 21
1.675000
 31
0.0
  0
LINE
  8
PartsFrameB
 10
5.375000
 20
1.675000
 30
0.0
 11
5.375000
 21
2.225000
 31
0.0
  0
LINE
  8
PartsFrameB
 10
5.375000
 20
2.225000
 30
0.0
 11
5.625000
 21
2.225000
 31
0.0
  0
LINE
  8
PartsFrameB
 10
5.625000
 20
2.225000
 30
0.0
 11
5.625000
 21
1.675000
 31
0.0
  0
LINE
  8
PartsFrameB
 10
6.125000
 20
1.675000
 30
0.0
 11
5.875000
 21
1.675000
 31
0.0
  0
LINE
  8
PartsFrameB
 10
5.875000
 20
1.675000
 30
0.0
 11
5.875000
 21
2.225000
 31
0.0
  0
LINE
  8
PartsFrameB
 10
5.875000
 20
2.225000
 30
0.0
 11
6.125000
 21
2.225000
 31
0.0
  0
LINE
  8
PartsFrameB
 10
6.125000
 20
2.225000
 30
0.0
 11
6.125000
 21
1.675000
 31
0.0
  0
LINE
  8
PartsFrameB
 10
6.625000
 20
1.675000
 30
0.0
 11
6.375000
 21
1.675000
 31
0.0
  0
LINE
  8
PartsFrameB
 10
6.375000
 20
1.675000
 30
0.0
 11
6.375000
 21
2.225000
 31
0.0
  0
LINE
  8
PartsFrameB
 10
6.375000
 20
2.225000
 30
0.0
 11
6.625000
 21
2.225000
 31
0.0
  0
LINE
  8
PartsFrameB
 10
6.625000
 20
2.225000
 30
0.0
 11
6.625000
 21
1.675000
 31
0.0
  0
LINE
  8
PartsFrameB
 10
7.125000
 20
1.675000
 30
0.0
 11
6.875000
 21
1.675000
 31
0.0
  0
LINE
  8
PartsFrameB
 10
6.875000
 20
1.675000
 30
0.0
 11
6.875000
 21
2.225000
 31
0.0
  0
LINE
  8
PartsFrameB
 10
6.875000
 20
2.225000
 30
0.0
 11
7.125000
 21
2.225000
 31
0.0
  0
LINE
  8
PartsFrameB
 10
7.125000
 20
2.225000
 30
0.0
 11
7.125000
 21
1.675000
 31
0.0
  0
LINE
  8
PartsFrameB
 10
6.625000
 20
6.350000
 30
0.0
 11
6.375000
 21
6.350000
 31
0.0
  0
LINE
  8
PartsFrameB
 10
6.375000
 20
6.350000
 30
0.0
 11
6.375000
 21
6.900000
 31
0.0
  0
LINE
  8
PartsFrameB
 10
6.375000
 20
6.900000
 30
0.0
 11
6.625000
 21
6.900000
 31
0.0
  0
LINE
  8
PartsFrameB
 10
6.625000
 20
6.900000
 30
0.0
 11
6.625000
 21
6.350000
 31
0.0
  0
LINE
  8
PartsFrameB
 10
7.125000
 20
6.350000
 30
0.0
 11
6.875000
 21
6.350000
 31
0.0
  0
LINE
  8
PartsFrameB
 10
6.875000
 20
6.350000
 30
0.0
 11
6.875000
 21
6.900000
 31
0.0
  0
LINE
  8
PartsFrameB
 10
6.875000
 20
6.900000
 30
0.0
 11
7.125000
 21
6.900000
 31
0.0
  0
LINE
  8
PartsFrameB
 10
7.125000
 20
6.900000
 30
0.0
 11
7.125000
 21
6.350000
 31
0.0
  0
LINE
  8
PartsFrameB
 10
0.850000
 20
3.975000
 30
0.0
 11
0.850000
 21
3.725000
 31
0.0
  0
LINE
  8
PartsFrameB
 10
0.850000
 20
3.725000
 30
0.0
 11
0.300000
 21
3.725000
 31
0.0
  0
LINE
  8
PartsFrameB
 10
0.300000
 20
3.725000
 30
0.0
 11
0.300000
 21
3.975000
 31
0.0
  0
LINE
  8
PartsFrameB
 10
0.300000
 20
3.975000
 30
0.0
 11
0.850000
 21
3.975000
 31
0.0
  0
LINE
  8
PartsFrameB
 10
0.850000
 20
4.975000
 30
0.0
 11
0.850000
 21
4.725000
 31
0.0
  0
LINE
  8
PartsFrameB
 10
0.850000
 20
4.725000
 30
0.0
 11
0.300000
 21
4.725000
 31
0.0
  0
LINE
  8
PartsFrameB
 10
0.300000
 20
4.725000
 30
0.0
 11
0.300000
 21
4.975000
 31
0.0
  0
LINE
  8
PartsFrameB
 10
0.300000
 20
4.975000
 30
0.0
 11
0.850000
 21
4.975000
 31
0.0
  0
LINE
  8
PartsFrameB
 10
0.850000
 20
2.975000
 30
0.0
 11
0.850000
 21
2.725000
 31
0.0
  0
LINE
  8
PartsFrameB
 10
0.850000
 20
2.725000
 30
0.0
 11
0.300000
 21
2.725000
 31
0.0
  0
LINE
  8
PartsFrameB
 10
0.300000
 20
2.725000
 30
0.0
 11
0.300000
 21
2.975000
 31
0.0
  0
LINE
  8
PartsFrameB
 10
0.300000
 20
2.975000
 30
0.0
 11
0.850000
 21
2.975000
 31
0.0
  0
LINE
  8
PartsFrameB
 10
4.875000
 20
3.225000
 30
0.0
 11
4.875000
 21
2.975000
 31
0.0
  0
LINE
  8
PartsFrameB
 10
4.875000
 20
2.975000
 30
0.0
 11
4.325000
 21
2.975000
 31
0.0
  0
LINE
  8
PartsFrameB
 10
4.325000
 20
2.975000
 30
0.0
 11
4.325000
 21
3.225000
 31
0.0
  0
LINE
  8
PartsFrameB
 10
4.325000
 20
3.225000
 30
0.0
 11
4.875000
 21
3.225000
 31
0.0
  0
LINE
  8
PartsFrameB
 10
4.075000
 20
3.225000
 30
0.0
 11
4.075000
 21
2.975000
 31
0.0
  0
LINE
  8
PartsFrameB
 10
4.075000
 20
2.975000
 30
0.0
 11
3.525000
 21
2.975000
 31
0.0
  0
LINE
  8
PartsFrameB
 10
3.525000
 20
2.975000
 30
0.0
 11
3.525000
 21
3.225000
 31
0.0
  0
LINE
  8
PartsFrameB
 10
3.525000
 20
3.225000
 30
0.0
 11
4.075000
 21
3.225000
 31
0.0
  0
LINE
  8
PartsFrameB
 10
7.625000
 20
4.975000
 30
0.0
 11
7.375000
 21
4.975000
 31
0.0
  0
LINE
  8
PartsFrameB
 10
7.375000
 20
4.975000
 30
0.0
 11
7.375000
 21
5.525000
 31
0.0
  0
LINE
  8
PartsFrameB
 10
7.375000
 20
5.525000
 30
0.0
 11
7.625000
 21
5.525000
 31
0.0
  0
LINE
  8
PartsFrameB
 10
7.625000
 20
5.525000
 30
0.0
 11
7.625000
 21
4.975000
 31
0.0
  0
LINE
  8
PartsFrameB
 10
6.475000
 20
3.725000
 30
0.0
 11
6.475000
 21
3.475000
 31
0.0
  0
LINE
  8
PartsFrameB
 10
6.475000
 20
3.475000
 30
0.0
 11
5.925000
 21
3.475000
 31
0.0
  0
LINE
  8
PartsFrameB
 10
5.925000
 20
3.475000
 30
0.0
 11
5.925000
 21
3.725000
 31
0.0
  0
LINE
  8
PartsFrameB
 10
5.925000
 20
3.725000
 30
0.0
 11
6.475000
 21
3.725000
 31
0.0
  0
LINE
  8
PartsFrameB
 10
6.475000
 20
3.225000
 30
0.0
 11
6.475000
 21
2.975000
 31
0.0
  0
LINE
  8
PartsFrameB
 10
6.475000
 20
2.975000
 30
0.0
 11
5.925000
 21
2.975000
 31
0.0
  0
LINE
  8
PartsFrameB
 10
5.925000
 20
2.975000
 30
0.0
 11
5.925000
 21
3.225000
 31
0.0
  0
LINE
  8
PartsFrameB
 10
5.925000
 20
3.225000
 30
0.0
 11
6.475000
 21
3.225000
 31
0.0
  0
LINE
  8
PartsFrameB
 10
5.675000
 20
4.225000
 30
0.0
 11
5.675000
 21
3.975000
 31
0.0
  0
LINE
  8
PartsFrameB
 10
5.675000
 20
3.975000
 30
0.0
 11
5.125000
 21
3.975000
 31
0.0
  0
LINE
  8
PartsFrameB
 10
5.125000
 20
3.975000
 30
0.0
 11
5.125000
 21
4.225000
 31
0.0
  0
LINE
  8
PartsFrameB
 10
5.125000
 20
4.225000
 30
0.0
 11
5.675000
 21
4.225000
 31
0.0
  0
LINE
  8
PartsFrameB
 10
9.625000
 20
6.350000
 30
0.0
 11
9.375000
 21
6.350000
 31
0.0
  0
LINE
  8
PartsFrameB
 10
9.375000
 20
6.350000
 30
0.0
 11
9.375000
 21
6.900000
 31
0.0
  0
LINE
  8
PartsFrameB
 10
9.375000
 20
6.900000
 30
0.0
 11
9.625000
 21
6.900000
 31
0.0
  0
LINE
  8
PartsFrameB
 10
9.625000
 20
6.900000
 30
0.0
 11
9.625000
 21
6.350000
 31
0.0
  0
LINE
  8
PartsFrameB
 10
6.475000
 20
4.225000
 30
0.0
 11
6.475000
 21
3.975000
 31
0.0
  0
LINE
  8
PartsFrameB
 10
6.475000
 20
3.975000
 30
0.0
 11
5.925000
 21
3.975000
 31
0.0
  0
LINE
  8
PartsFrameB
 10
5.925000
 20
3.975000
 30
0.0
 11
5.925000
 21
4.225000
 31
0.0
  0
LINE
  8
PartsFrameB
 10
5.925000
 20
4.225000
 30
0.0
 11
6.475000
 21
4.225000
 31
0.0
  0
LINE
  8
PartsFrameB
 10
4.875000
 20
4.225000
 30
0.0
 11
4.875000
 21
3.975000
 31
0.0
  0
LINE
  8
PartsFrameB
 10
4.875000
 20
3.975000
 30
0.0
 11
4.325000
 21
3.975000
 31
0.0
  0
LINE
  8
PartsFrameB
 10
4.325000
 20
3.975000
 30
0.0
 11
4.325000
 21
4.225000
 31
0.0
  0
LINE
  8
PartsFrameB
 10
4.325000
 20
4.225000
 30
0.0
 11
4.875000
 21
4.225000
 31
0.0
  0
LINE
  8
PartsFrameB
 10
4.075000
 20
4.225000
 30
0.0
 11
4.075000
 21
3.975000
 31
0.0
  0
LINE
  8
PartsFrameB
 10
4.075000
 20
3.975000
 30
0.0
 11
3.525000
 21
3.975000
 31
0.0
  0
LINE
  8
PartsFrameB
 10
3.525000
 20
3.975000
 30
0.0
 11
3.525000
 21
4.225000
 31
0.0
  0
LINE
  8
PartsFrameB
 10
3.525000
 20
4.225000
 30
0.0
 11
4.075000
 21
4.225000
 31
0.0
  0
LINE
  8
PartsFrameB
 10
4.075000
 20
3.725000
 30
0.0
 11
4.075000
 21
3.475000
 31
0.0
  0
LINE
  8
PartsFrameB
 10
4.075000
 20
3.475000
 30
0.0
 11
3.525000
 21
3.475000
 31
0.0
  0
LINE
  8
PartsFrameB
 10
3.525000
 20
3.475000
 30
0.0
 11
3.525000
 21
3.725000
 31
0.0
  0
LINE
  8
PartsFrameB
 10
3.525000
 20
3.725000
 30
0.0
 11
4.075000
 21
3.725000
 31
0.0
  0
LINE
  8
PartsFrameB
 10
4.875000
 20
3.725000
 30
0.0
 11
4.875000
 21
3.475000
 31
0.0
  0
LINE
  8
PartsFrameB
 10
4.875000
 20
3.475000
 30
0.0
 11
4.325000
 21
3.475000
 31
0.0
  0
LINE
  8
PartsFrameB
 10
4.325000
 20
3.475000
 30
0.0
 11
4.325000
 21
3.725000
 31
0.0
  0
LINE
  8
PartsFrameB
 10
4.325000
 20
3.725000
 30
0.0
 11
4.875000
 21
3.725000
 31
0.0
  0
LINE
  8
PartsFrameB
 10
5.675000
 20
3.725000
 30
0.0
 11
5.675000
 21
3.475000
 31
0.0
  0
LINE
  8
PartsFrameB
 10
5.675000
 20
3.475000
 30
0.0
 11
5.125000
 21
3.475000
 31
0.0
  0
LINE
  8
PartsFrameB
 10
5.125000
 20
3.475000
 30
0.0
 11
5.125000
 21
3.725000
 31
0.0
  0
LINE
  8
PartsFrameB
 10
5.125000
 20
3.725000
 30
0.0
 11
5.675000
 21
3.725000
 31
0.0
  0
LINE
  8
PartsFrameB
 10
0.850000
 20
1.475000
 30
0.0
 11
0.850000
 21
1.225000
 31
0.0
  0
LINE
  8
PartsFrameB
 10
0.850000
 20
1.225000
 30
0.0
 11
0.300000
 21
1.225000
 31
0.0
  0
LINE
  8
PartsFrameB
 10
0.300000
 20
1.225000
 30
0.0
 11
0.300000
 21
1.475000
 31
0.0
  0
LINE
  8
PartsFrameB
 10
0.300000
 20
1.475000
 30
0.0
 11
0.850000
 21
1.475000
 31
0.0
  0
LINE
  8
PartsFrameB
 10
4.125000
 20
4.975000
 30
0.0
 11
3.875000
 21
4.975000
 31
0.0
  0
LINE
  8
PartsFrameB
 10
3.875000
 20
4.975000
 30
0.0
 11
3.875000
 21
5.525000
 31
0.0
  0
LINE
  8
PartsFrameB
 10
3.875000
 20
5.525000
 30
0.0
 11
4.125000
 21
5.525000
 31
0.0
  0
LINE
  8
PartsFrameB
 10
4.125000
 20
5.525000
 30
0.0
 11
4.125000
 21
4.975000
 31
0.0
  0
LINE
  8
PartsFrameB
 10
9.700000
 20
5.475000
 30
0.0
 11
9.700000
 21
5.225000
 31
0.0
  0
LINE
  8
PartsFrameB
 10
9.700000
 20
5.225000
 30
0.0
 11
9.150000
 21
5.225000
 31
0.0
  0
LINE
  8
PartsFrameB
 10
9.150000
 20
5.225000
 30
0.0
 11
9.150000
 21
5.475000
 31
0.0
  0
LINE
  8
PartsFrameB
 10
9.150000
 20
5.475000
 30
0.0
 11
9.700000
 21
5.475000
 31
0.0
  0
LINE
  8
PartsFrameB
 10
0.850000
 20
5.975000
 30
0.0
 11
0.850000
 21
5.725000
 31
0.0
  0
LINE
  8
PartsFrameB
 10
0.850000
 20
5.725000
 30
0.0
 11
0.300000
 21
5.725000
 31
0.0
  0
LINE
  8
PartsFrameB
 10
0.300000
 20
5.725000
 30
0.0
 11
0.300000
 21
5.975000
 31
0.0
  0
LINE
  8
PartsFrameB
 10
0.300000
 20
5.975000
 30
0.0
 11
0.850000
 21
5.975000
 31
0.0
  0
LINE
  8
PartsFrameB
 10
7.125000
 20
4.975000
 30
0.0
 11
6.875000
 21
4.975000
 31
0.0
  0
LINE
  8
PartsFrameB
 10
6.875000
 20
4.975000
 30
0.0
 11
6.875000
 21
5.525000
 31
0.0
  0
LINE
  8
PartsFrameB
 10
6.875000
 20
5.525000
 30
0.0
 11
7.125000
 21
5.525000
 31
0.0
  0
LINE
  8
PartsFrameB
 10
7.125000
 20
5.525000
 30
0.0
 11
7.125000
 21
4.975000
 31
0.0
  0
LINE
  8
PartsFrameB
 10
8.125000
 20
2.725000
 30
0.0
 11
8.125000
 21
2.475000
 31
0.0
  0
LINE
  8
PartsFrameB
 10
8.125000
 20
2.475000
 30
0.0
 11
7.575000
 21
2.475000
 31
0.0
  0
LINE
  8
PartsFrameB
 10
7.575000
 20
2.475000
 30
0.0
 11
7.575000
 21
2.725000
 31
0.0
  0
LINE
  8
PartsFrameB
 10
7.575000
 20
2.725000
 30
0.0
 11
8.125000
 21
2.725000
 31
0.0
  0
LINE
  8
PartsFrameB
 10
1.125000
 20
0.300000
 30
0.0
 11
0.875000
 21
0.300000
 31
0.0
  0
LINE
  8
PartsFrameB
 10
0.875000
 20
0.300000
 30
0.0
 11
0.875000
 21
0.850000
 31
0.0
  0
LINE
  8
PartsFrameB
 10
0.875000
 20
0.850000
 30
0.0
 11
1.125000
 21
0.850000
 31
0.0
  0
LINE
  8
PartsFrameB
 10
1.125000
 20
0.850000
 30
0.0
 11
1.125000
 21
0.300000
 31
0.0
  0
LINE
  8
PartsFrameB
 10
2.625000
 20
0.300000
 30
0.0
 11
2.375000
 21
0.300000
 31
0.0
  0
LINE
  8
PartsFrameB
 10
2.375000
 20
0.300000
 30
0.0
 11
2.375000
 21
0.850000
 31
0.0
  0
LINE
  8
PartsFrameB
 10
2.375000
 20
0.850000
 30
0.0
 11
2.625000
 21
0.850000
 31
0.0
  0
LINE
  8
PartsFrameB
 10
2.625000
 20
0.850000
 30
0.0
 11
2.625000
 21
0.300000
 31
0.0
  0
LINE
  8
PartsFrameB
 10
2.125000
 20
0.300000
 30
0.0
 11
1.875000
 21
0.300000
 31
0.0
  0
LINE
  8
PartsFrameB
 10
1.875000
 20
0.300000
 30
0.0
 11
1.875000
 21
0.850000
 31
0.0
  0
LINE
  8
PartsFrameB
 10
1.875000
 20
0.850000
 30
0.0
 11
2.125000
 21
0.850000
 31
0.0
  0
LINE
  8
PartsFrameB
 10
2.125000
 20
0.850000
 30
0.0
 11
2.125000
 21
0.300000
 31
0.0
  0
LINE
  8
PartsFrameB
 10
1.625000
 20
0.300000
 30
0.0
 11
1.375000
 21
0.300000
 31
0.0
  0
LINE
  8
PartsFrameB
 10
1.375000
 20
0.300000
 30
0.0
 11
1.375000
 21
0.850000
 31
0.0
  0
LINE
  8
PartsFrameB
 10
1.375000
 20
0.850000
 30
0.0
 11
1.625000
 21
0.850000
 31
0.0
  0
LINE
  8
PartsFrameB
 10
1.625000
 20
0.850000
 30
0.0
 11
1.625000
 21
0.300000
 31
0.0
  0
LINE
  8
PartsFrameB
 10
9.125000
 20
0.300000
 30
0.0
 11
8.875000
 21
0.300000
 31
0.0
  0
LINE
  8
PartsFrameB
 10
8.875000
 20
0.300000
 30
0.0
 11
8.875000
 21
0.850000
 31
0.0
  0
LINE
  8
PartsFrameB
 10
8.875000
 20
0.850000
 30
0.0
 11
9.125000
 21
0.850000
 31
0.0
  0
LINE
  8
PartsFrameB
 10
9.125000
 20
0.850000
 30
0.0
 11
9.125000
 21
0.300000
 31
0.0
  0
LINE
  8
PartsFrameB
 10
8.625000
 20
0.300000
 30
0.0
 11
8.375000
 21
0.300000
 31
0.0
  0
LINE
  8
PartsFrameB
 10
8.375000
 20
0.300000
 30
0.0
 11
8.375000
 21
0.850000
 31
0.0
  0
LINE
  8
PartsFrameB
 10
8.375000
 20
0.850000
 30
0.0
 11
8.625000
 21
0.850000
 31
0.0
  0
LINE
  8
PartsFrameB
 10
8.625000
 20
0.850000
 30
0.0
 11
8.625000
 21
0.300000
 31
0.0
  0
LINE
  8
PartsFrameB
 10
6.125000
 20
0.300000
 30
0.0
 11
5.875000
 21
0.300000
 31
0.0
  0
LINE
  8
PartsFrameB
 10
5.875000
 20
0.300000
 30
0.0
 11
5.875000
 21
0.850000
 31
0.0
  0
LINE
  8
PartsFrameB
 10
5.875000
 20
0.850000
 30
0.0
 11
6.125000
 21
0.850000
 31
0.0
  0
LINE
  8
PartsFrameB
 10
6.125000
 20
0.850000
 30
0.0
 11
6.125000
 21
0.300000
 31
0.0
  0
LINE
  8
PartsFrameB
 10
9.625000
 20
0.300000
 30
0.0
 11
9.375000
 21
0.300000
 31
0.0
  0
LINE
  8
PartsFrameB
 10
9.375000
 20
0.300000
 30
0.0
 11
9.375000
 21
0.850000
 31
0.0
  0
LINE
  8
PartsFrameB
 10
9.375000
 20
0.850000
 30
0.0
 11
9.625000
 21
0.850000
 31
0.0
  0
LINE
  8
PartsFrameB
 10
9.625000
 20
0.850000
 30
0.0
 11
9.625000
 21
0.300000
 31
0.0
  0
LINE
  8
PartsFrameB
 10
4.625000
 20
0.300000
 30
0.0
 11
4.375000
 21
0.300000
 31
0.0
  0
LINE
  8
PartsFrameB
 10
4.375000
 20
0.300000
 30
0.0
 11
4.375000
 21
0.850000
 31
0.0
  0
LINE
  8
PartsFrameB
 10
4.375000
 20
0.850000
 30
0.0
 11
4.625000
 21
0.850000
 31
0.0
  0
LINE
  8
PartsFrameB
 10
4.625000
 20
0.850000
 30
0.0
 11
4.625000
 21
0.300000
 31
0.0
  0
LINE
  8
PartsFrameB
 10
5.125000
 20
0.300000
 30
0.0
 11
4.875000
 21
0.300000
 31
0.0
  0
LINE
  8
PartsFrameB
 10
4.875000
 20
0.300000
 30
0.0
 11
4.875000
 21
0.850000
 31
0.0
  0
LINE
  8
PartsFrameB
 10
4.875000
 20
0.850000
 30
0.0
 11
5.125000
 21
0.850000
 31
0.0
  0
LINE
  8
PartsFrameB
 10
5.125000
 20
0.850000
 30
0.0
 11
5.125000
 21
0.300000
 31
0.0
  0
LINE
  8
PartsFrameB
 10
3.625000
 20
0.300000
 30
0.0
 11
3.375000
 21
0.300000
 31
0.0
  0
LINE
  8
PartsFrameB
 10
3.375000
 20
0.300000
 30
0.0
 11
3.375000
 21
0.850000
 31
0.0
  0
LINE
  8
PartsFrameB
 10
3.375000
 20
0.850000
 30
0.0
 11
3.625000
 21
0.850000
 31
0.0
  0
LINE
  8
PartsFrameB
 10
3.625000
 20
0.850000
 30
0.0
 11
3.625000
 21
0.300000
 31
0.0
  0
LINE
  8
PartsFrameB
 10
4.125000
 20
0.300000
 30
0.0
 11
3.875000
 21
0.300000
 31
0.0
  0
LINE
  8
PartsFrameB
 10
3.875000
 20
0.300000
 30
0.0
 11
3.875000
 21
0.850000
 31
0.0
  0
LINE
  8
PartsFrameB
 10
3.875000
 20
0.850000
 30
0.0
 11
4.125000
 21
0.850000
 31
0.0
  0
LINE
  8
PartsFrameB
 10
4.125000
 20
0.850000
 30
0.0
 11
4.125000
 21
0.300000
 31
0.0
  0
LINE
  8
PartsFrameB
 10
6.625000
 20
0.300000
 30
0.0
 11
6.375000
 21
0.300000
 31
0.0
  0
LINE
  8
PartsFrameB
 10
6.375000
 20
0.300000
 30
0.0
 11
6.375000
 21
0.850000
 31
0.0
  0
LINE
  8
PartsFrameB
 10
6.375000
 20
0.850000
 30
0.0
 11
6.625000
 21
0.850000
 31
0.0
  0
LINE
  8
PartsFrameB
 10
6.625000
 20
0.850000
 30
0.0
 11
6.625000
 21
0.300000
 31
0.0
  0
LINE
  8
PartsFrameB
 10
7.125000
 20
0.300000
 30
0.0
 11
6.875000
 21
0.300000
 31
0.0
  0
LINE
  8
PartsFrameB
 10
6.875000
 20
0.300000
 30
0.0
 11
6.875000
 21
0.850000
 31
0.0
  0
LINE
  8
PartsFrameB
 10
6.875000
 20
0.850000
 30
0.0
 11
7.125000
 21
0.850000
 31
0.0
  0
LINE
  8
PartsFrameB
 10
7.125000
 20
0.850000
 30
0.0
 11
7.125000
 21
0.300000
 31
0.0
  0
LINE
  8
PartsFrameB
 10
8.125000
 20
0.300000
 30
0.0
 11
7.875000
 21
0.300000
 31
0.0
  0
LINE
  8
PartsFrameB
 10
7.875000
 20
0.300000
 30
0.0
 11
7.875000
 21
0.850000
 31
0.0
  0
LINE
  8
PartsFrameB
 10
7.875000
 20
0.850000
 30
0.0
 11
8.125000
 21
0.850000
 31
0.0
  0
LINE
  8
PartsFrameB
 10
8.125000
 20
0.850000
 30
0.0
 11
8.125000
 21
0.300000
 31
0.0
  0
LINE
  8
PartsFrameB
 10
3.125000
 20
0.300000
 30
0.0
 11
2.875000
 21
0.300000
 31
0.0
  0
LINE
  8
PartsFrameB
 10
2.875000
 20
0.300000
 30
0.0
 11
2.875000
 21
0.850000
 31
0.0
  0
LINE
  8
PartsFrameB
 10
2.875000
 20
0.850000
 30
0.0
 11
3.125000
 21
0.850000
 31
0.0
  0
LINE
  8
PartsFrameB
 10
3.125000
 20
0.850000
 30
0.0
 11
3.125000
 21
0.300000
 31
0.0
  0
LINE
  8
PartsFrameB
 10
5.625000
 20
0.300000
 30
0.0
 11
5.375000
 21
0.300000
 31
0.0
  0
LINE
  8
PartsFrameB
 10
5.375000
 20
0.300000
 30
0.0
 11
5.375000
 21
0.850000
 31
0.0
  0
LINE
  8
PartsFrameB
 10
5.375000
 20
0.850000
 30
0.0
 11
5.625000
 21
0.850000
 31
0.0
  0
LINE
  8
PartsFrameB
 10
5.625000
 20
0.850000
 30
0.0
 11
5.625000
 21
0.300000
 31
0.0
  0
LINE
  8
PartsFrameB
 10
7.625000
 20
0.300000
 30
0.0
 11
7.375000
 21
0.300000
 31
0.0
  0
LINE
  8
PartsFrameB
 10
7.375000
 20
0.300000
 30
0.0
 11
7.375000
 21
0.850000
 31
0.0
  0
LINE
  8
PartsFrameB
 10
7.375000
 20
0.850000
 30
0.0
 11
7.625000
 21
0.850000
 31
0.0
  0
LINE
  8
PartsFrameB
 10
7.625000
 20
0.850000
 30
0.0
 11
7.625000
 21
0.300000
 31
0.0
  0
LINE
  8
PartsFrameB
 10
0.625000
 20
0.300000
 30
0.0
 11
0.375000
 21
0.300000
 31
0.0
  0
LINE
  8
PartsFrameB
 10
0.375000
 20
0.300000
 30
0.0
 11
0.375000
 21
0.850000
 31
0.0
  0
LINE
  8
PartsFrameB
 10
0.375000
 20
0.850000
 30
0.0
 11
0.625000
 21
0.850000
 31
0.0
  0
LINE
  8
PartsFrameB
 10
0.625000
 20
0.850000
 30
0.0
 11
0.625000
 21
0.300000
 31
0.0
  0
LINE
  8
PartsFrameB
 10
0.625000
 20
6.350000
 30
0.0
 11
0.375000
 21
6.350000
 31
0.0
  0
LINE
  8
PartsFrameB
 10
0.375000
 20
6.350000
 30
0.0
 11
0.375000
 21
6.900000
 31
0.0
  0
LINE
  8
PartsFrameB
 10
0.375000
 20
6.900000
 30
0.0
 11
0.625000
 21
6.900000
 31
0.0
  0
LINE
  8
PartsFrameB
 10
0.625000
 20
6.900000
 30
0.0
 11
0.625000
 21
6.350000
 31
0.0
  0
LINE
  8
PartsFrameB
 10
1.125000
 20
6.350000
 30
0.0
 11
0.875000
 21
6.350000
 31
0.0
  0
LINE
  8
PartsFrameB
 10
0.875000
 20
6.350000
 30
0.0
 11
0.875000
 21
6.900000
 31
0.0
  0
LINE
  8
PartsFrameB
 10
0.875000
 20
6.900000
 30
0.0
 11
1.125000
 21
6.900000
 31
0.0
  0
LINE
  8
PartsFrameB
 10
1.125000
 20
6.900000
 30
0.0
 11
1.125000
 21
6.350000
 31
0.0
  0
ENDSEC
  0
EOF
