  0
SECTION
  2
HEADER
  9
$ACADVER
  1
AC1009
  9
$ACADMAINTVER
 70
   0
  9
$DWGCODEPAGE
  3
ANSI_932
  9
$INSBASE
 10
0.0
 20
0.0
 30
0.0
  9
$EXTMIN
 10
0.000000
 20
0.000000
 30
0.0
  9
$EXTMAX
 10
50.000000
 20
24.000000
 30
0.0
  9
$LIMMIN
 10
0.0
 20
0.0
  9
$LIMMAX
 10
12.0
 20
9.0
  9
$ORTHOMODE
 70
	0
  9
$REGENMODE
 70
	1
  9
$FILLMODE
 70
	1
  9
$QTEXTMODE
 70
	0
  9
$MIRRTEXT
 70
	1
  9
$DRAGMODE
 70
	2
  9
$LTSCALE
 40
1.0
  9
$OSMODE
 70
	0
  9
$ATTMODE
 70
	1
  9
$TEXTSIZE
 40
0.2
  9
$TRACEWID
 40
0.05
  9
$TEXTSTYLE
  7
STANDARD
  9
$CLAYER
  8
0
  9
$CELTYPE
  6
BYLAYER
  9
$CECOLOR
 62
	256
  9
$CELTSCALE
 40
1.0
  9
$DELOBJ
 70
	1
  9
$DISPSILH
 70
	0
  9
$LUNITS
 70
	2
  9
$LUPREC
 70
	6
  9
$SKETCHINC
 40
0.1
  9
$FILLETRAD
 40
0.5
  9
$AUNITS
 70
	0
  9
$AUPREC
 70
	6
  9
$MENU
  1
acad
  9
$ELEVATION
 40
0.0
  9
$PELEVATION
 40
0.0
  9
$THICKNESS
 40
0.0
  9
$LIMCHECK
 70
	0
  9
$BLIPMODE
 70
	0
  9
$CHAMFERA
 40
0.5
  9
$CHAMFERB
 40
0.5
  9
$CHAMFERC
 40
1.0
  9
$CHAMFERD
 40
0.0
  9
$SKPOLY
 70
	0
  9
$TDCREATE
 40
0.0
  9
$TDUPDATE
 40
0.0
  9
$TDINDWG
 40
0.0
  9
$TDUSRTIMER
 40
0.0
  9
$USRTIMER
 70
	0
  9
$ANGBASE
 50
0.0
  9
$ANGDIR
 70
	0
  9
$PDMODE
 70
	0
  9
$PDSIZE
 40
0.0
  9
$PLINEWID
 40
0.0
  9
$COORDS
 70
	1
  9
$SPLFRAME
 70
	0
  9
$SPLINETYPE
 70
	6
  9
$SPLINESEGS
 70
	8
  9
$ATTDIA
 70
	0
  9
$ATTREQ
 70
	1
  9
$HANDLING
 70
   1
  0
ENDSEC
  0
SECTION
  2
TABLES
  0
TABLE
  2
LAYER
 70
9
  0
LAYER
  2
0
 70
   0
 62
  7
  6
CONTINUOUS
  0
LAYER
  2
LAY1
 70
   0
 62
  7
  6
CONTINUOUS
  0
LAYER
  2
HOLE
 70
   0
 62
  7
  6
CONTINUOUS
  0
LAYER
  2
Resist-A
 70
   0
 62
  7
  6
CONTINUOUS
  0
LAYER
  2
LAY2
 70
   0
 62
  7
  6
CONTINUOUS
  0
LAYER
  2
LAY3
 70
   0
 62
  7
  6
CONTINUOUS
  0
LAYER
  2
LAY4
 70
   0
 62
  7
  6
CONTINUOUS
  0
LAYER
  2
LAY5
 70
   0
 62
  7
  6
CONTINUOUS
  0
LAYER
  2
LAY6
 70
   0
 62
  7
  6
CONTINUOUS
  0
LAYER
  2
PCBOutline
 70
   0
 62
  7
  6
CONTINUOUS
  0
ENDTAB
  0
TABLE
  2
LTYPE
 70
1
  0
ENDTAB
  0
TABLE
  2
STYLE
 70
1
  0
STYLE
  2
STANDARD
 70
0
 40
0.0
 41
1.0
 50
0.0
 71
0
 42
1.0
  3
txt
  4
EXTFONT
  0
ENDTAB
  0
ENDSEC
  0
SECTION
  2
BLOCKS
  0
ENDSEC
  0
SECTION
  2
ENTITIES
  0
ARC
  8
LAY1
 10
27.024970
 20
14.849970
 30
0.0
 40
0.074970
 50
180.000000
 51
-90.000000
  0
LINE
  8
LAY1
 10
26.950000
 20
14.849970
 30
0.0
 11
26.950000
 21
15.300000
 31
0.0
  0
ARC
  8
LAY1
 10
27.020670
 20
15.325030
 30
0.0
 40
0.074970
 50
90.000000
 51
-160.496801
  0
LINE
  8
LAY1
 10
27.020670
 20
15.400000
 30
0.0
 11
28.950030
 21
15.400000
 31
0.0
  0
ARC
  8
LAY1
 10
28.950030
 20
15.325030
 30
0.0
 40
0.074970
 50
0.000000
 51
90.000000
  0
LINE
  8
LAY1
 10
29.025000
 20
15.325030
 30
0.0
 11
29.025000
 21
14.849970
 31
0.0
  0
ARC
  8
LAY1
 10
28.950030
 20
14.849970
 30
0.0
 40
0.074970
 50
-90.000000
 51
0.000000
  0
LINE
  8
LAY1
 10
28.950030
 20
14.775000
 30
0.0
 11
27.024970
 21
14.775000
 31
0.0
  0
ARC
  8
LAY1
 10
25.925000
 20
16.125000
 30
0.0
 40
0.125000
 50
-90.000000
 51
90.000000
  0
LINE
  8
LAY1
 10
25.925000
 20
16.000000
 30
0.0
 11
25.399960
 21
16.000000
 31
0.0
  0
ARC
  8
LAY1
 10
25.399960
 20
16.125000
 30
0.0
 40
0.125000
 50
90.000000
 51
-90.000000
  0
LINE
  8
LAY1
 10
25.399960
 20
16.250000
 30
0.0
 11
25.925000
 21
16.250000
 31
0.0
  0
ARC
  8
LAY1
 10
25.250000
 20
17.025000
 30
0.0
 40
0.125000
 50
0.000000
 51
180.000000
  0
LINE
  8
LAY1
 10
25.375000
 20
17.025000
 30
0.0
 11
25.375000
 21
16.499960
 31
0.0
  0
ARC
  8
LAY1
 10
25.250000
 20
16.499960
 30
0.0
 40
0.125000
 50
180.000000
 51
0.000000
  0
LINE
  8
LAY1
 10
25.125000
 20
16.499960
 30
0.0
 11
25.125000
 21
17.025000
 31
0.0
  0
ARC
  8
LAY1
 10
25.250000
 20
17.025000
 30
0.0
 40
0.125000
 50
180.000000
 51
0.000000
  0
LINE
  8
LAY1
 10
25.125000
 20
17.025000
 30
0.0
 11
25.125000
 21
17.550040
 31
0.0
  0
ARC
  8
LAY1
 10
25.250000
 20
17.550040
 30
0.0
 40
0.125000
 50
0.000000
 51
180.000000
  0
LINE
  8
LAY1
 10
25.375000
 20
17.550040
 30
0.0
 11
25.375000
 21
17.025000
 31
0.0
  0
ARC
  8
LAY1
 10
25.925000
 20
17.087500
 30
0.0
 40
0.125000
 50
180.000000
 51
0.000000
  0
LINE
  8
LAY1
 10
25.800000
 20
17.087500
 30
0.0
 11
25.800000
 21
17.800000
 31
0.0
  0
ARC
  8
LAY1
 10
25.925000
 20
17.800000
 30
0.0
 40
0.125000
 50
0.000000
 51
180.000000
  0
LINE
  8
LAY1
 10
26.050000
 20
17.800000
 30
0.0
 11
26.050000
 21
17.087500
 31
0.0
  0
ARC
  8
LAY1
 10
25.925000
 20
15.225000
 30
0.0
 40
0.125000
 50
-90.000000
 51
90.000000
  0
LINE
  8
LAY1
 10
25.925000
 20
15.100000
 30
0.0
 11
25.800000
 21
15.100000
 31
0.0
  0
ARC
  8
LAY1
 10
25.800000
 20
15.225000
 30
0.0
 40
0.125000
 50
90.000000
 51
-90.000000
  0
LINE
  8
LAY1
 10
25.800000
 20
15.350000
 30
0.0
 11
25.925000
 21
15.350000
 31
0.0
  0
ARC
  8
LAY1
 10
25.612500
 20
14.898440
 30
0.0
 40
0.251560
 50
60.137602
 51
90.000000
  0
LINE
  8
LAY1
 10
25.612500
 20
15.150000
 30
0.0
 11
25.575000
 21
15.150000
 31
0.0
  0
ARC
  8
LAY1
 10
25.575000
 20
15.225000
 30
0.0
 40
0.075000
 50
90.000000
 51
-90.000000
  0
LINE
  8
LAY1
 10
25.575000
 20
15.300000
 30
0.0
 11
25.612500
 21
15.300000
 31
0.0
  0
ARC
  8
LAY1
 10
25.612500
 20
15.551560
 30
0.0
 40
0.251560
 50
-90.000000
 51
-60.137033
  0
ARC
  8
LAY1
 10
25.775100
 20
15.268360
 30
0.0
 40
0.075000
 50
-35.317447
 51
119.862398
  0
ARC
  8
LAY1
 10
25.775100
 20
15.181640
 30
0.0
 40
0.075000
 50
-119.860489
 51
35.317447
  0
ARC
  8
LAY1
 10
25.575000
 20
15.225000
 30
0.0
 40
0.075000
 50
-45.000000
 51
135.000000
  0
LINE
  8
LAY1
 10
25.628030
 20
15.171970
 30
0.0
 11
25.278030
 21
14.821970
 31
0.0
  0
ARC
  8
LAY1
 10
25.225000
 20
14.875000
 30
0.0
 40
0.075000
 50
135.000000
 51
-45.000000
  0
LINE
  8
LAY1
 10
25.171970
 20
14.928030
 30
0.0
 11
25.521970
 21
15.278030
 31
0.0
  0
ARC
  8
LAY1
 10
25.925000
 20
15.675000
 30
0.0
 40
0.125000
 50
-90.000000
 51
90.000000
  0
LINE
  8
LAY1
 10
25.925000
 20
15.550000
 30
0.0
 11
25.762500
 21
15.550000
 31
0.0
  0
ARC
  8
LAY1
 10
25.762500
 20
15.675000
 30
0.0
 40
0.125000
 50
90.000000
 51
-90.000000
  0
LINE
  8
LAY1
 10
25.762500
 20
15.800000
 30
0.0
 11
25.925000
 21
15.800000
 31
0.0
  0
ARC
  8
LAY1
 10
25.575000
 20
15.348430
 30
0.0
 40
0.251570
 50
60.138476
 51
90.000000
  0
LINE
  8
LAY1
 10
25.575000
 20
15.600000
 30
0.0
 11
25.350000
 21
15.600000
 31
0.0
  0
ARC
  8
LAY1
 10
25.350000
 20
15.675000
 30
0.0
 40
0.075000
 50
90.000000
 51
-90.000000
  0
LINE
  8
LAY1
 10
25.350000
 20
15.750000
 30
0.0
 11
25.575000
 21
15.750000
 31
0.0
  0
ARC
  8
LAY1
 10
25.575000
 20
16.001570
 30
0.0
 40
0.251570
 50
-90.000000
 51
-60.138167
  0
ARC
  8
LAY1
 10
25.737600
 20
15.718360
 30
0.0
 40
0.075000
 50
-35.317447
 51
119.861524
  0
ARC
  8
LAY1
 10
25.737600
 20
15.631640
 30
0.0
 40
0.075000
 50
-119.860489
 51
35.317447
  0
ARC
  8
LAY1
 10
25.350000
 20
15.675000
 30
0.0
 40
0.075000
 50
-45.000000
 51
135.000000
  0
LINE
  8
LAY1
 10
25.403030
 20
15.621970
 30
0.0
 11
25.278030
 21
15.496970
 31
0.0
  0
ARC
  8
LAY1
 10
25.225000
 20
15.550000
 30
0.0
 40
0.075000
 50
135.000000
 51
-45.000000
  0
LINE
  8
LAY1
 10
25.171970
 20
15.603030
 30
0.0
 11
25.296970
 21
15.728030
 31
0.0
  0
ARC
  8
LAY1
 10
25.000000
 20
16.549990
 30
0.0
 40
0.074970
 50
90.000000
 51
180.000000
  0
LINE
  8
LAY1
 10
25.000000
 20
16.624960
 30
0.0
 11
25.449990
 21
16.624960
 31
0.0
  0
ARC
  8
LAY1
 10
25.449990
 20
16.549990
 30
0.0
 40
0.074970
 50
0.000000
 51
90.000000
  0
LINE
  8
LAY1
 10
25.524960
 20
16.549990
 30
0.0
 11
25.524960
 21
15.925010
 31
0.0
  0
ARC
  8
LAY1
 10
25.449990
 20
15.925010
 30
0.0
 40
0.074970
 50
-90.000000
 51
0.000000
  0
LINE
  8
LAY1
 10
25.449990
 20
15.850040
 30
0.0
 11
25.350000
 21
15.850040
 31
0.0
  0
ARC
  8
LAY1
 10
25.350000
 20
15.675000
 30
0.0
 40
0.175040
 50
90.000000
 51
96.992661
  0
ARC
  8
LAY1
 10
25.319560
 20
15.923150
 30
0.0
 40
0.074970
 50
-83.312934
 51
-83.004854
  0
ARC
  8
LAY1
 10
25.350000
 20
15.675000
 30
0.0
 40
0.175040
 50
97.124610
 51
102.971554
  0
ARC
  8
LAY1
 10
25.293880
 20
15.918630
 30
0.0
 40
0.074970
 50
-100.584443
 51
-77.027723
  0
ARC
  8
LAY1
 10
25.225000
 20
15.550000
 30
0.0
 40
0.300040
 50
79.416240
 51
126.869516
  0
ARC
  8
LAY1
 10
25.000000
 20
15.850010
 30
0.0
 40
0.074970
 50
180.000000
 51
-53.133159
  0
LINE
  8
LAY1
 10
24.925030
 20
15.850010
 30
0.0
 11
24.925030
 21
16.549990
 31
0.0
  0
ARC
  8
LAY1
 10
25.228860
 20
14.500000
 30
0.0
 40
0.074970
 50
90.588451
 51
-90.000000
  0
ARC
  8
LAY1
 10
25.224990
 20
14.874990
 30
0.0
 40
0.300040
 50
-89.408004
 51
-53.130484
  0
ARC
  8
LAY1
 10
25.449990
 20
14.574980
 30
0.0
 40
0.074970
 50
0.000000
 51
126.866841
  0
LINE
  8
LAY1
 10
25.524960
 20
14.574980
 30
0.0
 11
25.524960
 21
14.500000
 31
0.0
  0
ARC
  8
LAY1
 10
25.449990
 20
14.500000
 30
0.0
 40
0.074970
 50
-90.000000
 51
0.000000
  0
LINE
  8
LAY1
 10
25.449990
 20
14.425030
 30
0.0
 11
25.228860
 21
14.425030
 31
0.0
  0
ARC
  8
LAY1
 10
25.000000
 20
14.500000
 30
0.0
 40
0.074970
 50
180.000000
 51
-90.000000
  0
LINE
  8
LAY1
 10
24.925030
 20
14.500000
 30
0.0
 11
24.925030
 21
14.574970
 31
0.0
  0
ARC
  8
LAY1
 10
25.000000
 20
14.574970
 30
0.0
 40
0.074970
 50
53.133159
 51
180.000000
  0
ARC
  8
LAY1
 10
25.224990
 20
14.874990
 30
0.0
 40
0.300040
 50
-126.866842
 51
-90.591996
  0
ARC
  8
LAY1
 10
25.221120
 20
14.500000
 30
0.0
 40
0.074970
 50
-90.000000
 51
89.411549
  0
LINE
  8
LAY1
 10
25.221120
 20
14.425030
 30
0.0
 11
25.000000
 21
14.425030
 31
0.0
  0
ARC
  8
LAY1
 10
25.925000
 20
14.775000
 30
0.0
 40
0.125000
 50
90.000000
 51
-90.000000
  0
LINE
  8
LAY1
 10
25.925000
 20
14.900000
 30
0.0
 11
26.112760
 21
14.900000
 31
0.0
  0
ARC
  8
LAY1
 10
26.112760
 20
14.775000
 30
0.0
 40
0.125000
 50
-90.000000
 51
90.000000
  0
LINE
  8
LAY1
 10
26.112760
 20
14.650000
 30
0.0
 11
25.925000
 21
14.650000
 31
0.0
  0
ARC
  8
LAY1
 10
26.300000
 20
15.100580
 30
0.0
 40
0.250580
 50
-119.902258
 51
-90.000000
  0
ARC
  8
LAY1
 10
26.300000
 20
14.775000
 30
0.0
 40
0.075000
 50
-90.000000
 51
90.000000
  0
ARC
  8
LAY1
 10
26.300000
 20
14.449420
 30
0.0
 40
0.250580
 50
90.000000
 51
119.902569
  0
ARC
  8
LAY1
 10
26.137690
 20
14.731660
 30
0.0
 40
0.075000
 50
144.693202
 51
-60.097742
  0
ARC
  8
LAY1
 10
26.137690
 20
14.818350
 30
0.0
 40
0.075000
 50
60.094972
 51
-144.699436
  0
ARC
  8
LAY1
 10
26.300000
 20
14.775000
 30
0.0
 40
0.075000
 50
135.000000
 51
-45.000000
  0
LINE
  8
LAY1
 10
26.246970
 20
14.828030
 30
0.0
 11
26.496970
 21
15.078030
 31
0.0
  0
ARC
  8
LAY1
 10
26.550000
 20
15.025000
 30
0.0
 40
0.075000
 50
-45.000000
 51
135.000000
  0
LINE
  8
LAY1
 10
26.603030
 20
14.971970
 30
0.0
 11
26.353030
 21
14.721970
 31
0.0
  0
ARC
  8
LAY1
 10
25.925000
 20
16.125000
 30
0.0
 40
0.125000
 50
90.000000
 51
-90.000000
  0
LINE
  8
LAY1
 10
25.925000
 20
16.250000
 30
0.0
 11
26.050000
 21
16.250000
 31
0.0
  0
ARC
  8
LAY1
 10
26.050000
 20
16.125000
 30
0.0
 40
0.125000
 50
-90.000000
 51
90.000000
  0
LINE
  8
LAY1
 10
26.050000
 20
16.000000
 30
0.0
 11
25.925000
 21
16.000000
 31
0.0
  0
ARC
  8
LAY1
 10
26.317770
 20
16.389700
 30
0.0
 40
0.251520
 50
-135.330053
 51
-105.465702
  0
ARC
  8
LAY1
 10
26.230700
 20
16.075000
 30
0.0
 40
0.075010
 50
-105.466858
 51
74.535179
  0
ARC
  8
LAY1
 10
26.143630
 20
15.760300
 30
0.0
 40
0.251530
 50
74.534500
 51
104.399216
  0
ARC
  8
LAY1
 10
26.062430
 20
16.076570
 30
0.0
 40
0.075000
 50
129.209852
 51
-75.600737
  0
ARC
  8
LAY1
 10
26.085560
 20
16.160150
 30
0.0
 40
0.075000
 50
44.670500
 51
-160.146782
  0
ARC
  8
LAY1
 10
26.230710
 20
16.075000
 30
0.0
 40
0.075000
 50
90.000000
 51
-90.000000
  0
ARC
  8
LAY1
 10
26.230710
 20
15.907730
 30
0.0
 40
0.242270
 50
45.000000
 51
90.000000
  0
ARC
  8
LAY1
 10
26.348990
 20
16.026010
 30
0.0
 40
0.075000
 50
-135.000000
 51
45.000000
  0
ARC
  8
LAY1
 10
26.230710
 20
15.907730
 30
0.0
 40
0.092270
 50
45.000000
 51
90.000000
  0
ARC
  8
LAY1
 10
26.349000
 20
16.026000
 30
0.0
 40
0.075000
 50
45.000000
 51
-135.000000
  0
ARC
  8
LAY1
 10
26.225870
 20
15.902870
 30
0.0
 40
0.249130
 50
0.000000
 51
45.000000
  0
LINE
  8
LAY1
 10
26.475000
 20
15.902870
 30
0.0
 11
26.475000
 21
15.731070
 31
0.0
  0
LINE
  8
LAY1
 10
26.475000
 20
15.731070
 30
0.0
 11
26.803030
 21
15.403030
 31
0.0
  0
ARC
  8
LAY1
 10
26.750000
 20
15.350000
 30
0.0
 40
0.075000
 50
-135.000000
 51
45.000000
  0
LINE
  8
LAY1
 10
26.696970
 20
15.296970
 30
0.0
 11
26.346970
 21
15.646970
 31
0.0
  0
ARC
  8
LAY1
 10
26.400000
 20
15.700000
 30
0.0
 40
0.075000
 50
180.000000
 51
-135.000000
  0
LINE
  8
LAY1
 10
26.325000
 20
15.700000
 30
0.0
 11
26.325000
 21
15.902870
 31
0.0
  0
ARC
  8
LAY1
 10
26.225870
 20
15.902870
 30
0.0
 40
0.099130
 50
0.000000
 51
45.000000
  0
ARC
  8
LAY1
 10
26.878560
 20
14.500000
 30
0.0
 40
0.074970
 50
-135.000000
 51
-90.000000
  0
LINE
  8
LAY1
 10
26.825550
 20
14.446990
 30
0.0
 11
26.823770
 21
14.448770
 31
0.0
  0
ARC
  8
LAY1
 10
26.700000
 20
14.325000
 30
0.0
 40
0.175040
 50
45.000000
 51
90.000000
  0
LINE
  8
LAY1
 10
26.700000
 20
14.500040
 30
0.0
 11
26.475030
 21
14.500040
 31
0.0
  0
ARC
  8
LAY1
 10
26.475030
 20
14.575010
 30
0.0
 40
0.074970
 50
126.877540
 51
-90.000000
  0
ARC
  8
LAY1
 10
26.325000
 20
14.775010
 30
0.0
 40
0.175050
 50
-53.125520
 51
-44.812525
  0
ARC
  8
LAY1
 10
26.502930
 20
14.599370
 30
0.0
 40
0.074970
 50
135.000000
 51
135.799776
  0
LINE
  8
LAY1
 10
26.449920
 20
14.652380
 30
0.0
 11
26.476120
 21
14.678580
 31
0.0
  0
ARC
  8
LAY1
 10
26.529130
 20
14.625570
 30
0.0
 40
0.074970
 50
86.811267
 51
135.000000
  0
ARC
  8
LAY1
 10
26.549990
 20
15.000010
 30
0.0
 40
0.300050
 50
-93.188622
 51
1.908007
  0
ARC
  8
LAY1
 10
26.924800
 20
15.012500
 30
0.0
 40
0.074970
 50
178.089065
 51
-178.089065
  0
ARC
  8
LAY1
 10
26.550000
 20
15.025000
 30
0.0
 40
0.300040
 50
-1.909980
 51
53.135831
  0
ARC
  8
LAY1
 10
26.774980
 20
15.325030
 30
0.0
 40
0.074970
 50
90.000000
 51
-126.866841
  0
LINE
  8
LAY1
 10
26.774980
 20
15.400000
 30
0.0
 11
27.128530
 21
15.400000
 31
0.0
  0
ARC
  8
LAY1
 10
27.128530
 20
15.325000
 30
0.0
 40
0.075000
 50
-43.168413
 51
90.000000
  0
ARC
  8
LAY1
 10
27.475010
 20
15.000000
 30
0.0
 40
0.400050
 50
136.832329
 51
180.000000
  0
LINE
  8
LAY1
 10
27.074960
 20
15.000000
 30
0.0
 11
27.074960
 21
14.825000
 31
0.0
  0
ARC
  8
LAY1
 10
27.275000
 20
14.825000
 30
0.0
 40
0.200040
 50
180.000000
 51
-137.658108
  0
ARC
  8
LAY1
 10
27.071730
 20
14.639760
 30
0.0
 40
0.074970
 50
18.437366
 51
42.345661
  0
ARC
  8
LAY1
 10
27.071700
 20
14.639750
 30
0.0
 40
0.075000
 50
-45.000000
 51
18.437365
  0
ARC
  8
LAY1
 10
27.071720
 20
14.639730
 30
0.0
 40
0.074970
 50
-47.059489
 51
-45.000000
  0
ARC
  8
LAY1
 10
27.225010
 20
14.475000
 30
0.0
 40
0.150050
 50
132.939462
 51
173.621435
  0
ARC
  8
LAY1
 10
27.001380
 20
14.500000
 30
0.0
 40
0.074970
 50
-90.000000
 51
-6.379012
  0
LINE
  8
LAY1
 10
27.001380
 20
14.425030
 30
0.0
 11
26.878560
 21
14.425030
 31
0.0
  0
ARC
  8
LAY1
 10
26.312500
 20
15.910940
 30
0.0
 40
0.539060
 50
68.431231
 51
90.000000
  0
LINE
  8
LAY1
 10
26.312500
 20
16.450000
 30
0.0
 11
25.975000
 21
16.450000
 31
0.0
  0
ARC
  8
LAY1
 10
25.975000
 20
16.575000
 30
0.0
 40
0.125000
 50
90.000000
 51
-90.000000
  0
LINE
  8
LAY1
 10
25.975000
 20
16.700000
 30
0.0
 11
26.312500
 21
16.700000
 31
0.0
  0
ARC
  8
LAY1
 10
26.312500
 20
17.239060
 30
0.0
 40
0.539060
 50
-90.000000
 51
-68.430900
  0
ARC
  8
LAY1
 10
26.556620
 20
16.621500
 30
0.0
 40
0.125000
 50
-21.838860
 51
111.568769
  0
ARC
  8
LAY1
 10
26.556620
 20
16.528500
 30
0.0
 40
0.125000
 50
-111.567342
 51
21.838861
  0
ARC
  8
LAY1
 10
26.575000
 20
16.575000
 30
0.0
 40
0.175000
 50
90.000000
 51
-90.000000
  0
LINE
  8
LAY1
 10
26.575000
 20
16.750000
 30
0.0
 11
29.015000
 21
16.750000
 31
0.0
  0
ARC
  8
LAY1
 10
29.015000
 20
16.575000
 30
0.0
 40
0.175000
 50
-90.000000
 51
90.000000
  0
LINE
  8
LAY1
 10
29.015000
 20
16.400000
 30
0.0
 11
26.575000
 21
16.400000
 31
0.0
  0
ARC
  8
LAY1
 10
29.849970
 20
15.124970
 30
0.0
 40
0.074970
 50
180.000000
 51
-90.000000
  0
LINE
  8
LAY1
 10
29.775000
 20
15.124970
 30
0.0
 11
29.775000
 21
17.950030
 31
0.0
  0
ARC
  8
LAY1
 10
29.849970
 20
17.950030
 30
0.0
 40
0.074970
 50
90.000000
 51
180.000000
  0
LINE
  8
LAY1
 10
29.849970
 20
18.025000
 30
0.0
 11
30.500030
 21
18.025000
 31
0.0
  0
ARC
  8
LAY1
 10
30.500030
 20
17.950030
 30
0.0
 40
0.074970
 50
0.000000
 51
90.000000
  0
LINE
  8
LAY1
 10
30.575000
 20
17.950030
 30
0.0
 11
30.575000
 21
15.124970
 31
0.0
  0
ARC
  8
LAY1
 10
30.500030
 20
15.124970
 30
0.0
 40
0.074970
 50
-90.000000
 51
0.000000
  0
LINE
  8
LAY1
 10
30.500030
 20
15.050000
 30
0.0
 11
29.849970
 21
15.050000
 31
0.0
  0
ARC
  8
LAY1
 10
29.225000
 20
15.550000
 30
0.0
 40
0.125000
 50
0.000000
 51
180.000000
  0
LINE
  8
LAY1
 10
29.350000
 20
15.550000
 30
0.0
 11
29.350000
 21
14.899960
 31
0.0
  0
ARC
  8
LAY1
 10
29.225000
 20
14.899960
 30
0.0
 40
0.125000
 50
180.000000
 51
0.000000
  0
LINE
  8
LAY1
 10
29.100000
 20
14.899960
 30
0.0
 11
29.100000
 21
15.550000
 31
0.0
  0
ARC
  8
LAY1
 10
31.125000
 20
15.550000
 30
0.0
 40
0.125000
 50
0.000000
 51
180.000000
  0
LINE
  8
LAY1
 10
31.250000
 20
15.550000
 30
0.0
 11
31.250000
 21
14.899960
 31
0.0
  0
ARC
  8
LAY1
 10
31.125000
 20
14.899960
 30
0.0
 40
0.125000
 50
180.000000
 51
0.000000
  0
LINE
  8
LAY1
 10
31.000000
 20
14.899960
 30
0.0
 11
31.000000
 21
15.550000
 31
0.0
  0
ARC
  8
LAY1
 10
29.225000
 20
17.600000
 30
0.0
 40
0.125000
 50
180.000000
 51
0.000000
  0
LINE
  8
LAY1
 10
29.100000
 20
17.600000
 30
0.0
 11
29.100000
 21
18.250040
 31
0.0
  0
ARC
  8
LAY1
 10
29.225000
 20
18.250040
 30
0.0
 40
0.125000
 50
0.000000
 51
180.000000
  0
LINE
  8
LAY1
 10
29.350000
 20
18.250040
 30
0.0
 11
29.350000
 21
17.600000
 31
0.0
  0
ARC
  8
LAY1
 10
35.187500
 20
21.200000
 30
0.0
 40
0.175000
 50
-90.000000
 51
90.000000
  0
LINE
  8
LAY1
 10
35.187500
 20
21.025000
 30
0.0
 11
34.150000
 21
21.025000
 31
0.0
  0
ARC
  8
LAY1
 10
34.150000
 20
21.200000
 30
0.0
 40
0.175000
 50
90.000000
 51
-90.000000
  0
LINE
  8
LAY1
 10
34.150000
 20
21.375000
 30
0.0
 11
35.187500
 21
21.375000
 31
0.0
  0
ARC
  8
LAY1
 10
34.150000
 20
21.200000
 30
0.0
 40
0.175000
 50
-90.000000
 51
90.000000
  0
LINE
  8
LAY1
 10
34.150000
 20
21.025000
 30
0.0
 11
32.812500
 21
21.025000
 31
0.0
  0
ARC
  8
LAY1
 10
32.812500
 20
21.200000
 30
0.0
 40
0.175000
 50
90.000000
 51
-90.000000
  0
LINE
  8
LAY1
 10
32.812500
 20
21.375000
 30
0.0
 11
34.150000
 21
21.375000
 31
0.0
  0
ARC
  8
LAY1
 10
32.012500
 20
18.650000
 30
0.0
 40
0.125000
 50
-90.000000
 51
90.000000
  0
LINE
  8
LAY1
 10
32.012500
 20
18.525000
 30
0.0
 11
31.099960
 21
18.525000
 31
0.0
  0
ARC
  8
LAY1
 10
31.099960
 20
18.650000
 30
0.0
 40
0.125000
 50
90.000000
 51
-90.000000
  0
LINE
  8
LAY1
 10
31.099960
 20
18.775000
 30
0.0
 11
32.012500
 21
18.775000
 31
0.0
  0
ARC
  8
LAY1
 10
32.800000
 20
19.587500
 30
0.0
 40
0.175000
 50
0.000000
 51
180.000000
  0
LINE
  8
LAY1
 10
32.975000
 20
19.587500
 30
0.0
 11
32.975000
 21
18.662500
 31
0.0
  0
ARC
  8
LAY1
 10
32.800000
 20
18.662500
 30
0.0
 40
0.175000
 50
180.000000
 51
0.000000
  0
LINE
  8
LAY1
 10
32.625000
 20
18.662500
 30
0.0
 11
32.625000
 21
19.587500
 31
0.0
  0
ARC
  8
LAY1
 10
35.962500
 20
21.200000
 30
0.0
 40
0.175000
 50
90.000000
 51
-90.000000
  0
LINE
  8
LAY1
 10
35.962500
 20
21.375000
 30
0.0
 11
36.962500
 21
21.375000
 31
0.0
  0
ARC
  8
LAY1
 10
36.962500
 20
21.200000
 30
0.0
 40
0.175000
 50
-90.000000
 51
90.000000
  0
LINE
  8
LAY1
 10
36.962500
 20
21.025000
 30
0.0
 11
35.962500
 21
21.025000
 31
0.0
  0
ARC
  8
LAY1
 10
32.800000
 20
20.362500
 30
0.0
 40
0.175000
 50
180.000000
 51
0.000000
  0
LINE
  8
LAY1
 10
32.625000
 20
20.362500
 30
0.0
 11
32.625000
 21
21.200000
 31
0.0
  0
ARC
  8
LAY1
 10
32.800000
 20
21.200000
 30
0.0
 40
0.175000
 50
0.000000
 51
180.000000
  0
LINE
  8
LAY1
 10
32.975000
 20
21.200000
 30
0.0
 11
32.975000
 21
20.362500
 31
0.0
  0
ARC
  8
LAY1
 10
32.800000
 20
18.662500
 30
0.0
 40
0.175000
 50
0.000000
 51
180.000000
  0
LINE
  8
LAY1
 10
32.975000
 20
18.662500
 30
0.0
 11
32.975000
 21
17.471220
 31
0.0
  0
ARC
  8
LAY1
 10
31.903790
 20
17.471220
 30
0.0
 40
1.071210
 50
-44.999244
 51
0.000000
  0
LINE
  8
LAY1
 10
32.661260
 20
16.713770
 30
0.0
 11
32.661230
 21
16.713750
 31
0.0
  0
ARC
  8
LAY1
 10
31.903770
 20
17.471210
 30
0.0
 40
1.071210
 50
-89.999465
 51
-45.000000
  0
LINE
  8
LAY1
 10
31.903780
 20
16.400000
 30
0.0
 11
31.335000
 21
16.400000
 31
0.0
  0
ARC
  8
LAY1
 10
31.335000
 20
16.575000
 30
0.0
 40
0.175000
 50
90.000000
 51
-90.000000
  0
LINE
  8
LAY1
 10
31.335000
 20
16.750000
 30
0.0
 11
31.903780
 21
16.750000
 31
0.0
  0
ARC
  8
LAY1
 10
31.903770
 20
17.471210
 30
0.0
 40
0.721210
 50
-89.999206
 51
-45.000000
  0
LINE
  8
LAY1
 10
32.413740
 20
16.961240
 30
0.0
 11
32.413770
 21
16.961250
 31
0.0
  0
ARC
  8
LAY1
 10
31.903790
 20
17.471220
 30
0.0
 40
0.721210
 50
-44.999438
 51
0.000000
  0
LINE
  8
LAY1
 10
32.625000
 20
17.471220
 30
0.0
 11
32.625000
 21
18.662500
 31
0.0
  0
ARC
  8
LAY1
 10
32.037500
 20
21.200000
 30
0.0
 40
0.125000
 50
-90.000000
 51
90.000000
  0
LINE
  8
LAY1
 10
32.037500
 20
21.075000
 30
0.0
 11
31.524960
 21
21.075000
 31
0.0
  0
ARC
  8
LAY1
 10
31.524960
 20
21.200000
 30
0.0
 40
0.125000
 50
90.000000
 51
-90.000000
  0
LINE
  8
LAY1
 10
31.524960
 20
21.325000
 30
0.0
 11
32.037500
 21
21.325000
 31
0.0
  0
ARC
  8
LAY1
 10
36.975000
 20
20.412500
 30
0.0
 40
0.125000
 50
0.000000
 51
180.000000
  0
LINE
  8
LAY1
 10
37.100000
 20
20.412500
 30
0.0
 11
37.100000
 21
19.899960
 31
0.0
  0
ARC
  8
LAY1
 10
36.975000
 20
19.899960
 30
0.0
 40
0.125000
 50
180.000000
 51
0.000000
  0
LINE
  8
LAY1
 10
36.850000
 20
19.899960
 30
0.0
 11
36.850000
 21
20.412500
 31
0.0
  0
ARC
  8
LAY1
 10
34.150000
 20
20.412500
 30
0.0
 40
0.125000
 50
0.000000
 51
180.000000
  0
LINE
  8
LAY1
 10
34.275000
 20
20.412500
 30
0.0
 11
34.275000
 21
19.899960
 31
0.0
  0
ARC
  8
LAY1
 10
34.150000
 20
19.899960
 30
0.0
 40
0.125000
 50
180.000000
 51
0.000000
  0
LINE
  8
LAY1
 10
34.025000
 20
19.899960
 30
0.0
 11
34.025000
 21
20.412500
 31
0.0
  0
ARC
  8
LAY1
 10
28.424970
 20
17.824970
 30
0.0
 40
0.074970
 50
180.000000
 51
-90.000000
  0
LINE
  8
LAY1
 10
28.350000
 20
17.824970
 30
0.0
 11
28.350000
 21
18.275030
 31
0.0
  0
ARC
  8
LAY1
 10
28.424970
 20
18.275030
 30
0.0
 40
0.074970
 50
90.000000
 51
180.000000
  0
LINE
  8
LAY1
 10
28.424970
 20
18.350000
 30
0.0
 11
31.450030
 21
18.350000
 31
0.0
  0
ARC
  8
LAY1
 10
31.450030
 20
18.275030
 30
0.0
 40
0.074970
 50
0.000000
 51
90.000000
  0
LINE
  8
LAY1
 10
31.525000
 20
18.275030
 30
0.0
 11
31.525000
 21
17.824970
 31
0.0
  0
ARC
  8
LAY1
 10
31.450030
 20
17.824970
 30
0.0
 40
0.074970
 50
-90.000000
 51
0.000000
  0
LINE
  8
LAY1
 10
31.450030
 20
17.750000
 30
0.0
 11
28.424970
 21
17.750000
 31
0.0
  0
ARC
  8
LAY1
 10
28.724970
 20
14.999970
 30
0.0
 40
0.074970
 50
180.000000
 51
-90.000000
  0
LINE
  8
LAY1
 10
28.650000
 20
14.999970
 30
0.0
 11
28.650000
 21
15.325030
 31
0.0
  0
ARC
  8
LAY1
 10
28.724970
 20
15.325030
 30
0.0
 40
0.074970
 50
90.000000
 51
180.000000
  0
LINE
  8
LAY1
 10
28.724970
 20
15.400000
 30
0.0
 11
32.350030
 21
15.400000
 31
0.0
  0
ARC
  8
LAY1
 10
32.350030
 20
15.325030
 30
0.0
 40
0.074970
 50
0.000000
 51
90.000000
  0
LINE
  8
LAY1
 10
32.425000
 20
15.325030
 30
0.0
 11
32.425000
 21
14.999970
 31
0.0
  0
ARC
  8
LAY1
 10
32.350030
 20
14.999970
 30
0.0
 40
0.074970
 50
-90.000000
 51
0.000000
  0
LINE
  8
LAY1
 10
32.350030
 20
14.925000
 30
0.0
 11
28.724970
 21
14.925000
 31
0.0
  0
ARC
  8
LAY1
 10
49.450000
 20
10.575000
 30
0.0
 40
0.050000
 50
-90.000000
 51
0.000000
  0
LINE
  8
LAY1
 10
49.450000
 20
10.525000
 30
0.0
 11
49.050000
 21
10.525000
 31
0.0
  0
ARC
  8
LAY1
 10
49.050000
 20
10.575000
 30
0.0
 40
0.050000
 50
180.000000
 51
-90.000000
  0
LINE
  8
LAY1
 10
49.000000
 20
10.575000
 30
0.0
 11
49.000000
 21
21.025000
 31
0.0
  0
LINE
  8
LAY1
 10
49.000000
 20
21.025000
 30
0.0
 11
42.200000
 21
21.025000
 31
0.0
  0
LINE
  8
LAY1
 10
42.200000
 20
21.025000
 30
0.0
 11
42.200000
 21
20.925000
 31
0.0
  0
ARC
  8
LAY1
 10
42.150000
 20
20.925000
 30
0.0
 40
0.050000
 50
-90.000000
 51
0.000000
  0
LINE
  8
LAY1
 10
42.150000
 20
20.875000
 30
0.0
 11
41.700000
 21
20.875000
 31
0.0
  0
ARC
  8
LAY1
 10
41.700000
 20
20.925000
 30
0.0
 40
0.050000
 50
180.000000
 51
-90.000000
  0
LINE
  8
LAY1
 10
41.650000
 20
20.925000
 30
0.0
 11
41.650000
 21
21.475000
 31
0.0
  0
ARC
  8
LAY1
 10
41.700000
 20
21.475000
 30
0.0
 40
0.050000
 50
90.000000
 51
180.000000
  0
LINE
  8
LAY1
 10
41.700000
 20
21.525000
 30
0.0
 11
49.450000
 21
21.525000
 31
0.0
  0
ARC
  8
LAY1
 10
49.450000
 20
21.475000
 30
0.0
 40
0.050000
 50
0.000000
 51
90.000000
  0
LINE
  8
LAY1
 10
49.500000
 20
21.475000
 30
0.0
 11
49.500000
 21
10.575000
 31
0.0
  0
ARC
  8
LAY1
 10
36.962500
 20
21.200000
 30
0.0
 40
0.175000
 50
90.000000
 51
-90.000000
  0
LINE
  8
LAY1
 10
36.962500
 20
21.375000
 30
0.0
 11
41.112500
 21
21.375000
 31
0.0
  0
ARC
  8
LAY1
 10
41.112500
 20
21.200000
 30
0.0
 40
0.175000
 50
-90.000000
 51
90.000000
  0
LINE
  8
LAY1
 10
41.112500
 20
21.025000
 30
0.0
 11
36.962500
 21
21.025000
 31
0.0
  0
ARC
  8
LAY1
 10
25.066140
 20
17.495100
 30
0.0
 40
0.074970
 50
-103.593234
 51
-90.000000
  0
ARC
  8
LAY1
 10
25.025000
 20
17.325000
 30
0.0
 40
0.100040
 50
76.401343
 51
81.775941
  0
ARC
  8
LAY1
 10
25.050030
 20
17.498210
 30
0.0
 40
0.074970
 50
-108.437366
 51
-98.220890
  0
ARC
  8
LAY1
 10
25.050040
 20
17.498240
 30
0.0
 40
0.075000
 50
180.000000
 51
-108.437365
  0
LINE
  8
LAY1
 10
24.975040
 20
17.498240
 30
0.0
 11
24.975040
 21
17.520480
 31
0.0
  0
ARC
  8
LAY1
 10
25.050040
 20
17.520480
 30
0.0
 40
0.075000
 50
135.000000
 51
180.000000
  0
ARC
  8
LAY1
 10
25.050020
 20
17.520500
 30
0.0
 40
0.074970
 50
131.809978
 51
135.000000
  0
ARC
  8
LAY1
 10
24.800000
 20
17.800000
 30
0.0
 40
0.300040
 50
-48.185672
 51
57.769733
  0
ARC
  8
LAY1
 10
25.000000
 20
18.117230
 30
0.0
 40
0.074970
 50
180.000000
 51
-122.227352
  0
LINE
  8
LAY1
 10
24.925030
 20
18.117230
 30
0.0
 11
24.925030
 21
18.132730
 31
0.0
  0
ARC
  8
LAY1
 10
25.000000
 20
18.132730
 30
0.0
 40
0.074970
 50
122.227352
 51
180.000000
  0
ARC
  8
LAY1
 10
24.800010
 20
18.450020
 30
0.0
 40
0.300090
 50
-57.777457
 51
57.777457
  0
ARC
  8
LAY1
 10
25.000000
 20
18.767310
 30
0.0
 40
0.074970
 50
180.000000
 51
-122.227352
  0
LINE
  8
LAY1
 10
24.925030
 20
18.767310
 30
0.0
 11
24.925030
 21
23.424990
 31
0.0
  0
ARC
  8
LAY1
 10
25.000000
 20
23.424990
 30
0.0
 40
0.074970
 50
90.000000
 51
180.000000
  0
LINE
  8
LAY1
 10
25.000000
 20
23.499960
 30
0.0
 11
39.924960
 21
23.499960
 31
0.0
  0
ARC
  8
LAY1
 10
39.924960
 20
23.424960
 30
0.0
 40
0.075000
 50
0.000000
 51
90.000000
  0
LINE
  8
LAY1
 10
39.999960
 20
23.424960
 30
0.0
 11
39.999960
 21
22.450000
 31
0.0
  0
ARC
  8
LAY1
 10
39.924960
 20
22.450000
 30
0.0
 40
0.075000
 50
-90.000000
 51
0.000000
  0
LINE
  8
LAY1
 10
39.924960
 20
22.375000
 30
0.0
 11
32.812500
 21
22.375000
 31
0.0
  0
ARC
  8
LAY1
 10
32.813580
 20
21.200000
 30
0.0
 40
1.175000
 50
90.052663
 51
90.331098
  0
ARC
  8
LAY1
 10
32.806360
 20
22.449950
 30
0.0
 40
0.074970
 50
-90.290412
 51
-89.671376
  0
ARC
  8
LAY1
 10
32.800000
 20
21.200000
 30
0.0
 40
1.175000
 50
89.708399
 51
180.000000
  0
LINE
  8
LAY1
 10
31.625000
 20
21.200000
 30
0.0
 11
31.625000
 21
18.200040
 31
0.0
  0
ARC
  8
LAY1
 10
31.550000
 20
18.200040
 30
0.0
 40
0.075000
 50
-90.000000
 51
0.000000
  0
LINE
  8
LAY1
 10
31.550000
 20
18.125040
 30
0.0
 11
30.475000
 21
18.125040
 31
0.0
  0
ARC
  8
LAY1
 10
30.475000
 20
17.925000
 30
0.0
 40
0.200040
 50
90.000000
 51
180.000000
  0
LINE
  8
LAY1
 10
30.274960
 20
17.925000
 30
0.0
 11
30.274960
 21
17.825000
 31
0.0
  0
ARC
  8
LAY1
 10
30.199960
 20
17.825000
 30
0.0
 40
0.075000
 50
-90.000000
 51
0.000000
  0
LINE
  8
LAY1
 10
30.199960
 20
17.750000
 30
0.0
 11
29.850040
 21
17.750000
 31
0.0
  0
ARC
  8
LAY1
 10
29.850040
 20
17.825000
 30
0.0
 40
0.075000
 50
180.000000
 51
-90.000000
  0
LINE
  8
LAY1
 10
29.775040
 20
17.825000
 30
0.0
 11
29.775040
 21
17.925000
 31
0.0
  0
ARC
  8
LAY1
 10
29.575000
 20
17.925000
 30
0.0
 40
0.200040
 50
0.000000
 51
90.000000
  0
LINE
  8
LAY1
 10
29.575000
 20
18.125040
 30
0.0
 11
28.875000
 21
18.125040
 31
0.0
  0
ARC
  8
LAY1
 10
28.875000
 20
17.925000
 30
0.0
 40
0.200040
 50
90.000000
 51
180.000000
  0
LINE
  8
LAY1
 10
28.674960
 20
17.925000
 30
0.0
 11
28.674960
 21
17.825000
 31
0.0
  0
ARC
  8
LAY1
 10
28.599960
 20
17.825000
 30
0.0
 40
0.075000
 50
-90.000000
 51
0.000000
  0
LINE
  8
LAY1
 10
28.599960
 20
17.750000
 30
0.0
 11
26.575000
 21
17.750000
 31
0.0
  0
ARC
  8
LAY1
 10
26.574940
 20
16.574950
 30
0.0
 40
1.175050
 50
89.997074
 51
106.260458
  0
ARC
  8
LAY1
 10
26.224930
 20
17.774970
 30
0.0
 40
0.074970
 50
-90.007642
 51
-73.740712
  0
LINE
  8
LAY1
 10
26.224920
 20
17.700000
 30
0.0
 11
25.975000
 21
17.700000
 31
0.0
  0
ARC
  8
LAY1
 10
25.974980
 20
16.574990
 30
0.0
 40
1.125010
 50
89.998981
 51
129.530783
  0
ARC
  8
LAY1
 10
25.210590
 20
17.500040
 30
0.0
 40
0.075000
 50
-90.000000
 51
-49.878486
  0
LINE
  8
LAY1
 10
25.210590
 20
17.425040
 30
0.0
 11
25.174990
 21
17.425040
 31
0.0
  0
ARC
  8
LAY1
 10
25.174980
 20
17.225000
 30
0.0
 40
0.200040
 50
89.997136
 51
101.584046
  0
ARC
  8
LAY1
 10
25.119760
 20
17.494410
 30
0.0
 40
0.074970
 50
-97.788571
 51
-78.418767
  0
LINE
  8
LAY1
 10
25.109600
 20
17.420130
 30
0.0
 11
25.066140
 21
17.420130
 31
0.0
  0
ARC
  8
LAY1
 10
31.000000
 20
10.000000
 30
0.0
 40
0.074970
 50
180.000000
 51
-90.000000
  0
LINE
  8
LAY1
 10
30.925030
 20
10.000000
 30
0.0
 11
30.925030
 21
14.425030
 31
0.0
  0
LINE
  8
LAY1
 10
30.925030
 20
14.425030
 30
0.0
 11
29.797220
 21
14.425030
 31
0.0
  0
ARC
  8
LAY1
 10
29.797220
 20
14.500000
 30
0.0
 40
0.074970
 50
-147.772648
 51
-90.000000
  0
ARC
  8
LAY1
 10
29.479990
 20
14.299990
 30
0.0
 40
0.300050
 50
32.231883
 51
127.823568
  0
ARC
  8
LAY1
 10
29.250000
 20
14.596240
 30
0.0
 40
0.075000
 50
-128.373475
 51
-52.176611
  0
ARC
  8
LAY1
 10
29.020010
 20
14.299970
 30
0.0
 40
0.300060
 50
52.316267
 51
138.580377
  0
ARC
  8
LAY1
 10
28.738130
 20
14.547330
 30
0.0
 40
0.074970
 50
-45.000000
 51
-40.661808
  0
ARC
  8
LAY1
 10
28.738110
 20
14.547350
 30
0.0
 40
0.075000
 50
-161.562635
 51
-45.000000
  0
ARC
  8
LAY1
 10
28.524990
 20
14.474960
 30
0.0
 40
0.150080
 50
18.922684
 51
47.060150
  0
ARC
  8
LAY1
 10
28.678300
 20
14.639710
 30
0.0
 40
0.074970
 50
-135.000000
 51
-132.940511
  0
ARC
  8
LAY1
 10
28.678320
 20
14.639730
 30
0.0
 40
0.075000
 50
180.000000
 51
-135.000000
  0
ARC
  8
LAY1
 10
28.678290
 20
14.639730
 30
0.0
 40
0.074970
 50
179.977073
 51
180.000000
  0
ARC
  8
LAY1
 10
28.678320
 20
14.639760
 30
0.0
 40
0.075000
 50
137.664130
 51
180.000000
  0
ARC
  8
LAY1
 10
28.474990
 20
14.824990
 30
0.0
 40
0.200050
 50
-42.331871
 51
0.002864
  0
LINE
  8
LAY1
 10
28.675040
 20
14.825000
 30
0.0
 11
28.675040
 21
14.979980
 31
0.0
  0
ARC
  8
LAY1
 10
28.750040
 20
14.979980
 30
0.0
 40
0.075000
 50
71.562635
 51
180.000000
  0
ARC
  8
LAY1
 10
28.750050
 20
14.980010
 30
0.0
 40
0.074970
 50
62.970112
 51
71.562634
  0
ARC
  8
LAY1
 10
28.874980
 20
15.225010
 30
0.0
 40
0.200050
 50
-117.013366
 51
-89.985680
  0
ARC
  8
LAY1
 10
28.875050
 20
14.949990
 30
0.0
 40
0.074970
 50
90.000000
 51
90.015285
  0
LINE
  8
LAY1
 10
28.875050
 20
15.024960
 30
0.0
 11
29.575000
 21
15.024960
 31
0.0
  0
ARC
  8
LAY1
 10
29.575000
 20
15.225000
 30
0.0
 40
0.200040
 50
-90.000000
 51
0.000000
  0
LINE
  8
LAY1
 10
29.775040
 20
15.225000
 30
0.0
 11
29.775040
 21
15.325000
 31
0.0
  0
ARC
  8
LAY1
 10
29.850040
 20
15.325000
 30
0.0
 40
0.075000
 50
90.000000
 51
180.000000
  0
LINE
  8
LAY1
 10
29.850040
 20
15.400000
 30
0.0
 11
30.199960
 21
15.400000
 31
0.0
  0
ARC
  8
LAY1
 10
30.199960
 20
15.325000
 30
0.0
 40
0.075000
 50
0.000000
 51
90.000000
  0
LINE
  8
LAY1
 10
30.274960
 20
15.325000
 30
0.0
 11
30.274960
 21
15.225000
 31
0.0
  0
ARC
  8
LAY1
 10
30.475000
 20
15.225000
 30
0.0
 40
0.200040
 50
180.000000
 51
-90.000000
  0
LINE
  8
LAY1
 10
30.475000
 20
15.024960
 30
0.0
 11
31.475000
 21
15.024960
 31
0.0
  0
ARC
  8
LAY1
 10
31.475000
 20
15.225000
 30
0.0
 40
0.200040
 50
-90.000000
 51
0.000000
  0
LINE
  8
LAY1
 10
31.675040
 20
15.225000
 30
0.0
 11
31.675040
 21
15.325000
 31
0.0
  0
ARC
  8
LAY1
 10
31.750040
 20
15.325000
 30
0.0
 40
0.075000
 50
90.000000
 51
180.000000
  0
LINE
  8
LAY1
 10
31.750040
 20
15.400000
 30
0.0
 11
31.903780
 21
15.400000
 31
0.0
  0
ARC
  8
LAY1
 10
31.903780
 20
16.575000
 30
0.0
 40
1.175000
 50
-90.000000
 51
-89.998537
  0
ARC
  8
LAY1
 10
31.903770
 20
17.471210
 30
0.0
 40
2.071210
 50
-89.998893
 51
-45.226317
  0
ARC
  8
LAY1
 10
33.415340
 20
15.947650
 30
0.0
 40
0.074970
 50
134.610901
 51
134.773023
  0
ARC
  8
LAY1
 10
32.537510
 20
16.837500
 30
0.0
 40
1.175000
 50
-45.389630
 51
-44.999310
  0
ARC
  8
LAY1
 10
31.903790
 20
17.471220
 30
0.0
 40
2.071210
 50
-44.999609
 51
0.000000
  0
LINE
  8
LAY1
 10
33.975000
 20
17.471220
 30
0.0
 11
33.975000
 21
19.893950
 31
0.0
  0
ARC
  8
LAY1
 10
34.049970
 20
19.893950
 30
0.0
 40
0.074970
 50
135.000000
 51
180.000000
  0
LINE
  8
LAY1
 10
33.996960
 20
19.946960
 30
0.0
 11
34.053040
 21
20.003040
 31
0.0
  0
ARC
  8
LAY1
 10
34.106050
 20
19.950030
 30
0.0
 40
0.074970
 50
90.000000
 51
135.000000
  0
LINE
  8
LAY1
 10
34.106050
 20
20.025000
 30
0.0
 11
39.925000
 21
20.025000
 31
0.0
  0
ARC
  8
LAY1
 10
39.925000
 20
19.950000
 30
0.0
 40
0.075000
 50
0.000000
 51
90.000000
  0
LINE
  8
LAY1
 10
40.000000
 20
19.950000
 30
0.0
 11
40.000000
 21
14.850000
 31
0.0
  0
ARC
  8
LAY1
 10
39.925030
 20
14.850000
 30
0.0
 40
0.074970
 50
-1.872743
 51
0.000000
  0
LINE
  8
LAY1
 10
39.999960
 20
14.847550
 30
0.0
 11
39.999960
 21
10.000000
 31
0.0
  0
ARC
  8
LAY1
 10
39.924990
 20
10.000000
 30
0.0
 40
0.074970
 50
-90.000000
 51
0.000000
  0
LINE
  8
LAY1
 10
39.924990
 20
9.925030
 30
0.0
 11
31.000000
 21
9.925030
 31
0.0
  0
ARC
  8
LAY1
 10
31.125000
 20
17.600000
 30
0.0
 40
0.125000
 50
90.000000
 51
-90.000000
  0
LINE
  8
LAY1
 10
31.125000
 20
17.725000
 30
0.0
 11
31.125000
 21
18.200040
 31
0.0
  0
ARC
  8
LAY1
 10
31.250000
 20
18.200040
 30
0.0
 40
0.125000
 50
0.000000
 51
180.000000
  0
LINE
  8
LAY1
 10
31.375000
 20
18.200040
 30
0.0
 11
31.375000
 21
17.600000
 31
0.0
  0
ARC
  8
LAY1
 10
31.250000
 20
17.600000
 30
0.0
 40
0.125000
 50
-90.000000
 51
0.000000
  0
LINE
  8
LAY1
 10
31.250000
 20
17.475000
 30
0.0
 11
31.125000
 21
17.475000
 31
0.0
  0
ARC
  8
LAY1
 10
25.725000
 20
16.650000
 30
0.0
 40
0.050000
 50
90.000000
 51
180.000000
  0
LINE
  8
LAY1
 10
25.725000
 20
16.700000
 30
0.0
 11
26.125000
 21
16.700000
 31
0.0
  0
ARC
  8
LAY1
 10
26.125000
 20
16.650000
 30
0.0
 40
0.050000
 50
0.000000
 51
90.000000
  0
LINE
  8
LAY1
 10
26.175000
 20
16.650000
 30
0.0
 11
26.175000
 21
16.500000
 31
0.0
  0
ARC
  8
LAY1
 10
26.125000
 20
16.500000
 30
0.0
 40
0.050000
 50
-90.000000
 51
0.000000
  0
LINE
  8
LAY1
 10
26.125000
 20
16.450000
 30
0.0
 11
25.725000
 21
16.450000
 31
0.0
  0
ARC
  8
LAY1
 10
25.725000
 20
16.500000
 30
0.0
 40
0.050000
 50
180.000000
 51
-90.000000
  0
LINE
  8
LAY1
 10
25.675000
 20
16.500000
 30
0.0
 11
25.675000
 21
16.650000
 31
0.0
  0
ARC
  8
LAY1
 10
25.725000
 20
17.225000
 30
0.0
 40
0.050000
 50
90.000000
 51
180.000000
  0
LINE
  8
LAY1
 10
25.725000
 20
17.275000
 30
0.0
 11
26.125000
 21
17.275000
 31
0.0
  0
ARC
  8
LAY1
 10
26.125000
 20
17.225000
 30
0.0
 40
0.050000
 50
0.000000
 51
90.000000
  0
LINE
  8
LAY1
 10
26.175000
 20
17.225000
 30
0.0
 11
26.175000
 21
16.950000
 31
0.0
  0
ARC
  8
LAY1
 10
26.125000
 20
16.950000
 30
0.0
 40
0.050000
 50
-90.000000
 51
0.000000
  0
LINE
  8
LAY1
 10
26.125000
 20
16.900000
 30
0.0
 11
25.725000
 21
16.900000
 31
0.0
  0
ARC
  8
LAY1
 10
25.725000
 20
16.950000
 30
0.0
 40
0.050000
 50
180.000000
 51
-90.000000
  0
LINE
  8
LAY1
 10
25.675000
 20
16.950000
 30
0.0
 11
25.675000
 21
17.225000
 31
0.0
  0
ARC
  8
LAY1
 10
25.725000
 20
16.200000
 30
0.0
 40
0.050000
 50
90.000000
 51
180.000000
  0
LINE
  8
LAY1
 10
25.725000
 20
16.250000
 30
0.0
 11
26.125000
 21
16.250000
 31
0.0
  0
ARC
  8
LAY1
 10
26.125000
 20
16.200000
 30
0.0
 40
0.050000
 50
0.000000
 51
90.000000
  0
LINE
  8
LAY1
 10
26.175000
 20
16.200000
 30
0.0
 11
26.175000
 21
16.050000
 31
0.0
  0
ARC
  8
LAY1
 10
26.125000
 20
16.050000
 30
0.0
 40
0.050000
 50
-90.000000
 51
0.000000
  0
LINE
  8
LAY1
 10
26.125000
 20
16.000000
 30
0.0
 11
25.725000
 21
16.000000
 31
0.0
  0
ARC
  8
LAY1
 10
25.725000
 20
16.050000
 30
0.0
 40
0.050000
 50
180.000000
 51
-90.000000
  0
LINE
  8
LAY1
 10
25.675000
 20
16.050000
 30
0.0
 11
25.675000
 21
16.200000
 31
0.0
  0
ARC
  8
LAY2
 10
25.000000
 20
15.249990
 30
0.0
 40
0.074970
 50
53.133159
 51
180.000000
  0
ARC
  8
LAY2
 10
25.225000
 20
15.550000
 30
0.0
 40
0.300040
 50
-126.869516
 51
-115.853652
  0
ARC
  8
LAY2
 10
25.061470
 20
15.212520
 30
0.0
 40
0.074970
 50
45.000000
 51
64.149272
  0
ARC
  8
LAY2
 10
25.061450
 20
15.212500
 30
0.0
 40
0.075000
 50
-45.021609
 51
45.000000
  0
ARC
  8
LAY2
 10
25.061450
 20
15.212460
 30
0.0
 40
0.074970
 50
-64.139061
 51
-45.000000
  0
ARC
  8
LAY2
 10
25.225000
 20
14.875000
 30
0.0
 40
0.300040
 50
115.856203
 51
126.869516
  0
ARC
  8
LAY2
 10
25.000000
 20
15.175010
 30
0.0
 40
0.074970
 50
180.000000
 51
-53.133159
  0
LINE
  8
LAY2
 10
24.925030
 20
15.175010
 30
0.0
 11
24.925030
 21
15.249990
 31
0.0
  0
ARC
  8
LAY2
 10
25.000000
 20
14.500000
 30
0.0
 40
0.074970
 50
180.000000
 51
-90.000000
  0
LINE
  8
LAY2
 10
24.925030
 20
14.500000
 30
0.0
 11
24.925030
 21
14.574990
 31
0.0
  0
ARC
  8
LAY2
 10
25.000000
 20
14.574990
 30
0.0
 40
0.074970
 50
53.133159
 51
180.000000
  0
ARC
  8
LAY2
 10
25.225000
 20
14.875000
 30
0.0
 40
0.300040
 50
-126.869516
 51
-90.418210
  0
ARC
  8
LAY2
 10
25.222260
 20
14.500000
 30
0.0
 40
0.074970
 50
-90.000000
 51
89.579670
  0
LINE
  8
LAY2
 10
25.222260
 20
14.425030
 30
0.0
 11
25.000000
 21
14.425030
 31
0.0
  0
ARC
  8
LAY2
 10
31.000000
 20
10.000000
 30
0.0
 40
0.074970
 50
180.000000
 51
-90.000000
  0
LINE
  8
LAY2
 10
30.925030
 20
10.000000
 30
0.0
 11
30.925030
 21
14.425030
 31
0.0
  0
LINE
  8
LAY2
 10
30.925030
 20
14.425030
 30
0.0
 11
25.227740
 21
14.425030
 31
0.0
  0
ARC
  8
LAY2
 10
25.227740
 20
14.500000
 30
0.0
 40
0.074970
 50
90.420330
 51
-90.000000
  0
ARC
  8
LAY2
 10
25.225000
 20
14.875000
 30
0.0
 40
0.300040
 50
-89.581790
 51
64.146348
  0
ARC
  8
LAY2
 10
25.388530
 20
15.212480
 30
0.0
 40
0.074970
 50
-135.000000
 51
-115.850728
  0
ARC
  8
LAY2
 10
25.388550
 20
15.212500
 30
0.0
 40
0.075000
 50
134.978391
 51
-135.000000
  0
ARC
  8
LAY2
 10
25.388550
 20
15.212540
 30
0.0
 40
0.074970
 50
115.860939
 51
135.000000
  0
ARC
  8
LAY2
 10
25.225000
 20
15.550000
 30
0.0
 40
0.300040
 50
-64.143797
 51
126.869516
  0
ARC
  8
LAY2
 10
25.000000
 20
15.850010
 30
0.0
 40
0.074970
 50
180.000000
 51
-53.133159
  0
LINE
  8
LAY2
 10
24.925030
 20
15.850010
 30
0.0
 11
24.925030
 21
17.482740
 31
0.0
  0
ARC
  8
LAY2
 10
25.000000
 20
17.482740
 30
0.0
 40
0.074970
 50
122.227352
 51
180.000000
  0
ARC
  8
LAY2
 10
24.800000
 20
17.799990
 30
0.0
 40
0.300060
 50
-57.771769
 51
57.771769
  0
ARC
  8
LAY2
 10
25.000000
 20
18.117240
 30
0.0
 40
0.074970
 50
180.000000
 51
-122.227352
  0
LINE
  8
LAY2
 10
24.925030
 20
18.117240
 30
0.0
 11
24.925030
 21
18.132760
 31
0.0
  0
ARC
  8
LAY2
 10
25.000000
 20
18.132760
 30
0.0
 40
0.074970
 50
122.227352
 51
180.000000
  0
ARC
  8
LAY2
 10
24.800000
 20
18.450010
 30
0.0
 40
0.300060
 50
-57.771769
 51
57.771769
  0
ARC
  8
LAY2
 10
25.000000
 20
18.767260
 30
0.0
 40
0.074970
 50
180.000000
 51
-122.227352
  0
LINE
  8
LAY2
 10
24.925030
 20
18.767260
 30
0.0
 11
24.925030
 21
23.424990
 31
0.0
  0
ARC
  8
LAY2
 10
25.000000
 20
23.424990
 30
0.0
 40
0.074970
 50
90.000000
 51
180.000000
  0
LINE
  8
LAY2
 10
25.000000
 20
23.499960
 30
0.0
 11
39.925000
 21
23.499960
 31
0.0
  0
ARC
  8
LAY2
 10
39.925000
 20
23.424960
 30
0.0
 40
0.075000
 50
0.000000
 51
90.000000
  0
LINE
  8
LAY2
 10
40.000000
 20
23.424960
 30
0.0
 11
40.000000
 21
10.000000
 31
0.0
  0
ARC
  8
LAY2
 10
39.925030
 20
10.000000
 30
0.0
 40
0.074970
 50
-90.000000
 51
0.000000
  0
LINE
  8
LAY2
 10
39.925030
 20
9.925030
 30
0.0
 11
31.000000
 21
9.925030
 31
0.0
  0
ARC
  8
LAY2
 10
26.550000
 20
15.025000
 30
0.0
 40
0.300040
 50
-90.000000
 51
90.000000
  0
ARC
  8
LAY2
 10
26.550000
 20
15.025000
 30
0.0
 40
0.300040
 50
90.000000
 51
-90.000000
  0
LINE
  8
LAY2
 10
28.925000
 20
15.325000
 30
0.0
 11
31.425000
 21
15.325000
 31
0.0
  0
LINE
  8
LAY2
 10
31.425000
 20
15.325000
 30
0.0
 11
31.425000
 21
17.825000
 31
0.0
  0
LINE
  8
LAY2
 10
31.425000
 20
17.825000
 30
0.0
 11
28.925000
 21
17.825000
 31
0.0
  0
LINE
  8
LAY2
 10
28.925000
 20
17.825000
 30
0.0
 11
28.925000
 21
15.325000
 31
0.0
  0
ARC
  8
LAY3
 10
25.000000
 20
15.249990
 30
0.0
 40
0.074970
 50
53.133159
 51
180.000000
  0
ARC
  8
LAY3
 10
25.225000
 20
15.550000
 30
0.0
 40
0.300040
 50
-126.869516
 51
-115.853652
  0
ARC
  8
LAY3
 10
25.061470
 20
15.212520
 30
0.0
 40
0.074970
 50
45.000000
 51
64.149272
  0
ARC
  8
LAY3
 10
25.061450
 20
15.212500
 30
0.0
 40
0.075000
 50
-45.021609
 51
45.000000
  0
ARC
  8
LAY3
 10
25.061450
 20
15.212460
 30
0.0
 40
0.074970
 50
-64.139061
 51
-45.000000
  0
ARC
  8
LAY3
 10
25.225000
 20
14.875000
 30
0.0
 40
0.300040
 50
115.856203
 51
126.869516
  0
ARC
  8
LAY3
 10
25.000000
 20
15.175010
 30
0.0
 40
0.074970
 50
180.000000
 51
-53.133159
  0
LINE
  8
LAY3
 10
24.925030
 20
15.175010
 30
0.0
 11
24.925030
 21
15.249990
 31
0.0
  0
ARC
  8
LAY3
 10
25.000000
 20
14.500000
 30
0.0
 40
0.074970
 50
180.000000
 51
-90.000000
  0
LINE
  8
LAY3
 10
24.925030
 20
14.500000
 30
0.0
 11
24.925030
 21
14.574990
 31
0.0
  0
ARC
  8
LAY3
 10
25.000000
 20
14.574990
 30
0.0
 40
0.074970
 50
53.133159
 51
180.000000
  0
ARC
  8
LAY3
 10
25.225000
 20
14.875000
 30
0.0
 40
0.300040
 50
-126.869516
 51
-90.418210
  0
ARC
  8
LAY3
 10
25.222260
 20
14.500000
 30
0.0
 40
0.074970
 50
-90.000000
 51
89.579670
  0
LINE
  8
LAY3
 10
25.222260
 20
14.425030
 30
0.0
 11
25.000000
 21
14.425030
 31
0.0
  0
ARC
  8
LAY3
 10
31.000000
 20
10.000000
 30
0.0
 40
0.074970
 50
180.000000
 51
-90.000000
  0
LINE
  8
LAY3
 10
30.925030
 20
10.000000
 30
0.0
 11
30.925030
 21
14.425030
 31
0.0
  0
LINE
  8
LAY3
 10
30.925030
 20
14.425030
 30
0.0
 11
25.227740
 21
14.425030
 31
0.0
  0
ARC
  8
LAY3
 10
25.227740
 20
14.500000
 30
0.0
 40
0.074970
 50
90.420330
 51
-90.000000
  0
ARC
  8
LAY3
 10
25.225000
 20
14.875000
 30
0.0
 40
0.300040
 50
-89.581790
 51
64.146348
  0
ARC
  8
LAY3
 10
25.388530
 20
15.212480
 30
0.0
 40
0.074970
 50
-135.000000
 51
-115.850728
  0
ARC
  8
LAY3
 10
25.388550
 20
15.212500
 30
0.0
 40
0.075000
 50
134.978391
 51
-135.000000
  0
ARC
  8
LAY3
 10
25.388550
 20
15.212540
 30
0.0
 40
0.074970
 50
115.860939
 51
135.000000
  0
ARC
  8
LAY3
 10
25.225000
 20
15.550000
 30
0.0
 40
0.300040
 50
-64.143797
 51
126.869516
  0
ARC
  8
LAY3
 10
25.000000
 20
15.850010
 30
0.0
 40
0.074970
 50
180.000000
 51
-53.133159
  0
LINE
  8
LAY3
 10
24.925030
 20
15.850010
 30
0.0
 11
24.925030
 21
17.482740
 31
0.0
  0
ARC
  8
LAY3
 10
25.000000
 20
17.482740
 30
0.0
 40
0.074970
 50
122.227352
 51
180.000000
  0
ARC
  8
LAY3
 10
24.800000
 20
17.799990
 30
0.0
 40
0.300060
 50
-57.771769
 51
57.771769
  0
ARC
  8
LAY3
 10
25.000000
 20
18.117240
 30
0.0
 40
0.074970
 50
180.000000
 51
-122.227352
  0
LINE
  8
LAY3
 10
24.925030
 20
18.117240
 30
0.0
 11
24.925030
 21
18.132760
 31
0.0
  0
ARC
  8
LAY3
 10
25.000000
 20
18.132760
 30
0.0
 40
0.074970
 50
122.227352
 51
180.000000
  0
ARC
  8
LAY3
 10
24.800000
 20
18.450010
 30
0.0
 40
0.300060
 50
-57.771769
 51
57.771769
  0
ARC
  8
LAY3
 10
25.000000
 20
18.767260
 30
0.0
 40
0.074970
 50
180.000000
 51
-122.227352
  0
LINE
  8
LAY3
 10
24.925030
 20
18.767260
 30
0.0
 11
24.925030
 21
23.424990
 31
0.0
  0
ARC
  8
LAY3
 10
25.000000
 20
23.424990
 30
0.0
 40
0.074970
 50
90.000000
 51
180.000000
  0
LINE
  8
LAY3
 10
25.000000
 20
23.499960
 30
0.0
 11
39.925000
 21
23.499960
 31
0.0
  0
ARC
  8
LAY3
 10
39.925000
 20
23.424960
 30
0.0
 40
0.075000
 50
0.000000
 51
90.000000
  0
LINE
  8
LAY3
 10
40.000000
 20
23.424960
 30
0.0
 11
40.000000
 21
10.000000
 31
0.0
  0
ARC
  8
LAY3
 10
39.925030
 20
10.000000
 30
0.0
 40
0.074970
 50
-90.000000
 51
0.000000
  0
LINE
  8
LAY3
 10
39.925030
 20
9.925030
 30
0.0
 11
31.000000
 21
9.925030
 31
0.0
  0
ARC
  8
LAY3
 10
26.550000
 20
15.025000
 30
0.0
 40
0.300040
 50
-90.000000
 51
90.000000
  0
ARC
  8
LAY3
 10
26.550000
 20
15.025000
 30
0.0
 40
0.300040
 50
90.000000
 51
-90.000000
  0
ARC
  8
LAY4
 10
25.600000
 20
14.500000
 30
0.0
 40
0.050000
 50
-135.000000
 51
45.000000
  0
LINE
  8
LAY4
 10
25.564640
 20
14.464640
 30
0.0
 11
25.189640
 21
14.839640
 31
0.0
  0
ARC
  8
LAY4
 10
25.225000
 20
14.875000
 30
0.0
 40
0.050000
 50
45.000000
 51
-135.000000
  0
LINE
  8
LAY4
 10
25.260360
 20
14.910360
 30
0.0
 11
25.635360
 21
14.535360
 31
0.0
  0
ARC
  8
LAY4
 10
25.225000
 20
15.550000
 30
0.0
 40
0.050000
 50
45.000000
 51
-135.000000
  0
LINE
  8
LAY4
 10
25.260360
 20
15.585360
 30
0.0
 11
25.610350
 21
15.235370
 31
0.0
  0
ARC
  8
LAY4
 10
25.574990
 20
15.200010
 30
0.0
 40
0.050000
 50
0.000000
 51
45.000000
  0
LINE
  8
LAY4
 10
25.624990
 20
15.200010
 30
0.0
 11
25.624990
 21
14.845720
 31
0.0
  0
LINE
  8
LAY4
 10
25.624990
 20
14.845720
 30
0.0
 11
25.935360
 21
14.535360
 31
0.0
  0
ARC
  8
LAY4
 10
25.900000
 20
14.500000
 30
0.0
 40
0.050000
 50
-135.000000
 51
45.000000
  0
LINE
  8
LAY4
 10
25.864640
 20
14.464640
 30
0.0
 11
25.539630
 21
14.789650
 31
0.0
  0
ARC
  8
LAY4
 10
25.574990
 20
14.825010
 30
0.0
 40
0.050000
 50
180.000000
 51
-135.000000
  0
LINE
  8
LAY4
 10
25.524990
 20
14.825010
 30
0.0
 11
25.524990
 21
15.179300
 31
0.0
  0
LINE
  8
LAY4
 10
25.524990
 20
15.179300
 30
0.0
 11
25.189640
 21
15.514640
 31
0.0
  0
ARC
  8
LAY4
 10
29.575000
 20
14.500000
 30
0.0
 40
0.050000
 50
-135.000000
 51
45.000000
  0
LINE
  8
LAY4
 10
29.539640
 20
14.464640
 30
0.0
 11
29.204300
 21
14.799990
 31
0.0
  0
LINE
  8
LAY4
 10
29.204300
 20
14.799990
 30
0.0
 11
26.925010
 21
14.799990
 31
0.0
  0
ARC
  8
LAY4
 10
26.925010
 20
14.849990
 30
0.0
 40
0.050000
 50
-135.000000
 51
-90.000000
  0
LINE
  8
LAY4
 10
26.889650
 20
14.814630
 30
0.0
 11
26.729290
 21
14.975000
 31
0.0
  0
LINE
  8
LAY4
 10
26.729290
 20
14.975000
 30
0.0
 11
26.550000
 21
14.975000
 31
0.0
  0
ARC
  8
LAY4
 10
26.550000
 20
15.025000
 30
0.0
 40
0.050000
 50
90.000000
 51
-90.000000
  0
LINE
  8
LAY4
 10
26.550000
 20
15.075000
 30
0.0
 11
26.750000
 21
15.075000
 31
0.0
  0
ARC
  8
LAY4
 10
26.750000
 20
15.025000
 30
0.0
 40
0.050000
 50
45.000000
 51
90.000000
  0
LINE
  8
LAY4
 10
26.785360
 20
15.060360
 30
0.0
 11
26.945720
 21
14.899990
 31
0.0
  0
LINE
  8
LAY4
 10
26.945720
 20
14.899990
 30
0.0
 11
29.225010
 21
14.899990
 31
0.0
  0
ARC
  8
LAY4
 10
29.225010
 20
14.849990
 30
0.0
 40
0.050000
 50
45.000000
 51
90.000000
  0
LINE
  8
LAY4
 10
29.260370
 20
14.885350
 30
0.0
 11
29.610360
 21
14.535360
 31
0.0
  0
ARC
  8
LAY4
 10
29.275000
 20
14.500000
 30
0.0
 40
0.050000
 50
-135.000000
 51
45.000000
  0
LINE
  8
LAY4
 10
29.239640
 20
14.464640
 30
0.0
 11
29.104310
 21
14.599980
 31
0.0
  0
LINE
  8
LAY4
 10
29.104310
 20
14.599980
 30
0.0
 11
26.775020
 21
14.599980
 31
0.0
  0
ARC
  8
LAY4
 10
26.775020
 20
14.649980
 30
0.0
 40
0.050000
 50
-135.000000
 51
-90.000000
  0
LINE
  8
LAY4
 10
26.739660
 20
14.614620
 30
0.0
 11
26.729290
 21
14.625000
 31
0.0
  0
LINE
  8
LAY4
 10
26.729290
 20
14.625000
 30
0.0
 11
26.025000
 21
14.625000
 31
0.0
  0
ARC
  8
LAY4
 10
26.025000
 20
14.675000
 30
0.0
 40
0.050000
 50
-135.000000
 51
-90.000000
  0
LINE
  8
LAY4
 10
25.989640
 20
14.639640
 30
0.0
 11
25.914640
 21
14.714640
 31
0.0
  0
ARC
  8
LAY4
 10
25.950000
 20
14.750000
 30
0.0
 40
0.050000
 50
45.000000
 51
-135.000000
  0
LINE
  8
LAY4
 10
25.985360
 20
14.785360
 30
0.0
 11
26.045710
 21
14.725000
 31
0.0
  0
LINE
  8
LAY4
 10
26.045710
 20
14.725000
 30
0.0
 11
26.750000
 21
14.725000
 31
0.0
  0
ARC
  8
LAY4
 10
26.750000
 20
14.675000
 30
0.0
 40
0.050000
 50
45.000000
 51
90.000000
  0
LINE
  8
LAY4
 10
26.785360
 20
14.710360
 30
0.0
 11
26.795730
 21
14.699980
 31
0.0
  0
LINE
  8
LAY4
 10
26.795730
 20
14.699980
 30
0.0
 11
29.125020
 21
14.699980
 31
0.0
  0
ARC
  8
LAY4
 10
29.125020
 20
14.649980
 30
0.0
 40
0.050000
 50
45.000000
 51
90.000000
  0
LINE
  8
LAY4
 10
29.160380
 20
14.685340
 30
0.0
 11
29.310360
 21
14.535360
 31
0.0
  0
ARC
  8
LAY4
 10
25.000000
 20
15.249970
 30
0.0
 40
0.074970
 50
53.133159
 51
180.000000
  0
ARC
  8
LAY4
 10
25.224990
 20
15.549990
 30
0.0
 40
0.300040
 50
-126.866842
 51
-115.857922
  0
ARC
  8
LAY4
 10
25.061420
 20
15.212500
 30
0.0
 40
0.075000
 50
-45.000000
 51
64.142184
  0
ARC
  8
LAY4
 10
25.061440
 20
15.212480
 30
0.0
 40
0.074970
 50
-45.021617
 51
-45.000000
  0
ARC
  8
LAY4
 10
25.061420
 20
15.212460
 30
0.0
 40
0.074970
 50
-64.139061
 51
-45.000000
  0
ARC
  8
LAY4
 10
25.224970
 20
14.875000
 30
0.0
 40
0.300040
 50
115.856203
 51
126.862641
  0
ARC
  8
LAY4
 10
25.000000
 20
15.175030
 30
0.0
 40
0.074970
 50
180.000000
 51
-53.133159
  0
LINE
  8
LAY4
 10
24.925030
 20
15.175030
 30
0.0
 11
24.925030
 21
15.249970
 31
0.0
  0
ARC
  8
LAY4
 10
25.227710
 20
14.500000
 30
0.0
 40
0.074970
 50
90.420330
 51
-90.000000
  0
ARC
  8
LAY4
 10
25.224970
 20
14.875000
 30
0.0
 40
0.300040
 50
-89.581790
 51
-81.870168
  0
ARC
  8
LAY4
 10
25.278000
 20
14.503760
 30
0.0
 40
0.074970
 50
90.000000
 51
98.127941
  0
ARC
  8
LAY4
 10
25.278000
 20
14.503730
 30
0.0
 40
0.075000
 50
45.005402
 51
90.000000
  0
ARC
  8
LAY4
 10
25.278580
 20
14.503200
 30
0.0
 40
0.074970
 50
45.000000
 51
45.605253
  0
LINE
  8
LAY4
 10
25.331590
 20
14.556210
 30
0.0
 11
25.334790
 21
14.553010
 31
0.0
  0
ARC
  8
LAY4
 10
25.281780
 20
14.500000
 30
0.0
 40
0.074970
 50
-90.000000
 51
45.000000
  0
LINE
  8
LAY4
 10
25.281780
 20
14.425030
 30
0.0
 11
25.227710
 21
14.425030
 31
0.0
  0
ARC
  8
LAY4
 10
25.000000
 20
14.500000
 30
0.0
 40
0.074970
 50
180.000000
 51
-90.000000
  0
LINE
  8
LAY4
 10
24.925030
 20
14.500000
 30
0.0
 11
24.925030
 21
14.574970
 31
0.0
  0
ARC
  8
LAY4
 10
25.000000
 20
14.574970
 30
0.0
 40
0.074970
 50
53.133159
 51
180.000000
  0
ARC
  8
LAY4
 10
25.224970
 20
14.875000
 30
0.0
 40
0.300040
 50
-126.862641
 51
-90.418210
  0
ARC
  8
LAY4
 10
25.222230
 20
14.500000
 30
0.0
 40
0.074970
 50
-90.000000
 51
89.579670
  0
LINE
  8
LAY4
 10
25.222230
 20
14.425030
 30
0.0
 11
25.000000
 21
14.425030
 31
0.0
  0
ARC
  8
LAY4
 10
31.000000
 20
10.000000
 30
0.0
 40
0.074970
 50
180.000000
 51
-90.000000
  0
LINE
  8
LAY4
 10
30.925030
 20
10.000000
 30
0.0
 11
30.925030
 21
14.425030
 31
0.0
  0
LINE
  8
LAY4
 10
30.925030
 20
14.425030
 30
0.0
 11
29.893200
 21
14.425030
 31
0.0
  0
ARC
  8
LAY4
 10
29.893200
 20
14.500000
 30
0.0
 40
0.074970
 50
-135.000000
 51
-90.000000
  0
LINE
  8
LAY4
 10
29.840190
 20
14.446990
 30
0.0
 11
29.331100
 21
14.956080
 31
0.0
  0
ARC
  8
LAY4
 10
29.225000
 20
14.849990
 30
0.0
 40
0.150040
 50
44.997300
 51
75.119993
  0
ARC
  8
LAY4
 10
29.282780
 20
15.067460
 30
0.0
 40
0.074970
 50
-115.925952
 51
-104.877759
  0
LINE
  8
LAY4
 10
29.250000
 20
15.000030
 30
0.0
 11
27.018230
 21
15.000030
 31
0.0
  0
ARC
  8
LAY4
 10
27.018230
 20
15.075030
 30
0.0
 40
0.075000
 50
-135.000000
 51
-90.000000
  0
LINE
  8
LAY4
 10
26.965200
 20
15.022000
 30
0.0
 11
26.856660
 21
15.130540
 31
0.0
  0
ARC
  8
LAY4
 10
26.909110
 20
15.184110
 30
0.0
 40
0.074970
 50
-135.432331
 51
-134.394747
  0
ARC
  8
LAY4
 10
26.750000
 20
15.024970
 30
0.0
 40
0.150070
 50
45.224074
 51
56.251692
  0
ARC
  8
LAY4
 10
26.875020
 20
15.212090
 30
0.0
 40
0.074970
 50
-150.083541
 51
-123.747295
  0
ARC
  8
LAY4
 10
26.874480
 20
15.213020
 30
0.0
 40
0.074970
 50
-149.915752
 51
-149.261672
  0
ARC
  8
LAY4
 10
26.549960
 20
15.025040
 30
0.0
 40
0.300060
 50
30.081194
 51
-120.114592
  0
ARC
  8
LAY4
 10
26.362850
 20
14.700030
 30
0.0
 40
0.074970
 50
33.692187
 51
60.812521
  0
ARC
  8
LAY4
 10
26.362820
 20
14.700010
 30
0.0
 40
0.075010
 50
-75.965609
 51
33.692186
  0
ARC
  8
LAY4
 10
26.362830
 20
14.699970
 30
0.0
 40
0.074970
 50
-90.000000
 51
-75.965610
  0
LINE
  8
LAY4
 10
26.362830
 20
14.625000
 30
0.0
 11
26.018260
 21
14.625000
 31
0.0
  0
ARC
  8
LAY4
 10
26.018260
 20
14.700000
 30
0.0
 40
0.075000
 50
-135.000000
 51
-90.000000
  0
LINE
  8
LAY4
 10
25.965230
 20
14.646970
 30
0.0
 11
25.843600
 21
14.768600
 31
0.0
  0
ARC
  8
LAY4
 10
25.895760
 20
14.822450
 30
0.0
 40
0.074970
 50
-135.000000
 51
-134.086674
  0
LINE
  8
LAY4
 10
25.842750
 20
14.769440
 30
0.0
 11
25.746990
 21
14.865200
 31
0.0
  0
ARC
  8
LAY4
 10
25.800000
 20
14.918210
 30
0.0
 40
0.074970
 50
179.984715
 51
-135.000000
  0
LINE
  8
LAY4
 10
25.725030
 20
14.918230
 30
0.0
 11
25.725030
 21
15.200010
 31
0.0
  0
ARC
  8
LAY4
 10
25.574940
 20
15.200010
 30
0.0
 40
0.150090
 50
0.000000
 51
44.592390
  0
ARC
  8
LAY4
 10
25.734830
 20
15.358400
 30
0.0
 40
0.074970
 50
-135.788970
 51
-134.994596
  0
LINE
  8
LAY4
 10
25.681090
 20
15.306120
 30
0.0
 11
25.543240
 21
15.443970
 31
0.0
  0
ARC
  8
LAY4
 10
25.596270
 20
15.497000
 30
0.0
 40
0.075000
 50
180.000000
 51
-135.000000
  0
ARC
  8
LAY4
 10
25.596240
 20
15.497000
 30
0.0
 40
0.074970
 50
171.879625
 51
180.000000
  0
ARC
  8
LAY4
 10
25.224990
 20
15.549990
 30
0.0
 40
0.300040
 50
-8.123891
 51
126.866842
  0
ARC
  8
LAY4
 10
25.000000
 20
15.850010
 30
0.0
 40
0.074970
 50
180.000000
 51
-53.133159
  0
LINE
  8
LAY4
 10
24.925030
 20
15.850010
 30
0.0
 11
24.925030
 21
17.482710
 31
0.0
  0
ARC
  8
LAY4
 10
25.000000
 20
17.482710
 30
0.0
 40
0.074970
 50
122.220886
 51
180.000000
  0
ARC
  8
LAY4
 10
24.800060
 20
17.799970
 30
0.0
 40
0.300040
 50
-57.780865
 51
57.780865
  0
ARC
  8
LAY4
 10
25.000000
 20
18.117230
 30
0.0
 40
0.074970
 50
180.000000
 51
-122.220886
  0
LINE
  8
LAY4
 10
24.925030
 20
18.117230
 30
0.0
 11
24.925030
 21
18.132750
 31
0.0
  0
ARC
  8
LAY4
 10
25.000000
 20
18.132750
 30
0.0
 40
0.074970
 50
122.227352
 51
180.000000
  0
ARC
  8
LAY4
 10
24.800020
 20
18.450020
 30
0.0
 40
0.300070
 50
-57.777036
 51
57.777036
  0
ARC
  8
LAY4
 10
25.000000
 20
18.767290
 30
0.0
 40
0.074970
 50
180.000000
 51
-122.227352
  0
LINE
  8
LAY4
 10
24.925030
 20
18.767290
 30
0.0
 11
24.925030
 21
23.424990
 31
0.0
  0
ARC
  8
LAY4
 10
25.000000
 20
23.424990
 30
0.0
 40
0.074970
 50
90.000000
 51
180.000000
  0
LINE
  8
LAY4
 10
25.000000
 20
23.499960
 30
0.0
 11
39.925000
 21
23.499960
 31
0.0
  0
ARC
  8
LAY4
 10
39.925000
 20
23.424960
 30
0.0
 40
0.075000
 50
0.000000
 51
90.000000
  0
LINE
  8
LAY4
 10
40.000000
 20
23.424960
 30
0.0
 11
40.000000
 21
10.000000
 31
0.0
  0
ARC
  8
LAY4
 10
39.925030
 20
10.000000
 30
0.0
 40
0.074970
 50
-90.000000
 51
0.000000
  0
LINE
  8
LAY4
 10
39.925030
 20
9.925030
 30
0.0
 11
31.000000
 21
9.925030
 31
0.0
  0
ARC
  8
LAY5
 10
25.000000
 20
15.249990
 30
0.0
 40
0.074970
 50
53.133159
 51
180.000000
  0
ARC
  8
LAY5
 10
25.225000
 20
15.550000
 30
0.0
 40
0.300040
 50
-126.869516
 51
-115.853652
  0
ARC
  8
LAY5
 10
25.061470
 20
15.212520
 30
0.0
 40
0.074970
 50
45.000000
 51
64.149272
  0
ARC
  8
LAY5
 10
25.061450
 20
15.212500
 30
0.0
 40
0.075000
 50
-45.021609
 51
45.000000
  0
ARC
  8
LAY5
 10
25.061450
 20
15.212460
 30
0.0
 40
0.074970
 50
-64.139061
 51
-45.000000
  0
ARC
  8
LAY5
 10
25.225000
 20
14.875000
 30
0.0
 40
0.300040
 50
115.856203
 51
126.869516
  0
ARC
  8
LAY5
 10
25.000000
 20
15.175010
 30
0.0
 40
0.074970
 50
180.000000
 51
-53.133159
  0
LINE
  8
LAY5
 10
24.925030
 20
15.175010
 30
0.0
 11
24.925030
 21
15.249990
 31
0.0
  0
ARC
  8
LAY5
 10
25.000000
 20
14.500000
 30
0.0
 40
0.074970
 50
180.000000
 51
-90.000000
  0
LINE
  8
LAY5
 10
24.925030
 20
14.500000
 30
0.0
 11
24.925030
 21
14.574990
 31
0.0
  0
ARC
  8
LAY5
 10
25.000000
 20
14.574990
 30
0.0
 40
0.074970
 50
53.133159
 51
180.000000
  0
ARC
  8
LAY5
 10
25.225000
 20
14.875000
 30
0.0
 40
0.300040
 50
-126.869516
 51
-90.418210
  0
ARC
  8
LAY5
 10
25.222260
 20
14.500000
 30
0.0
 40
0.074970
 50
-90.000000
 51
89.579670
  0
LINE
  8
LAY5
 10
25.222260
 20
14.425030
 30
0.0
 11
25.000000
 21
14.425030
 31
0.0
  0
ARC
  8
LAY5
 10
31.000000
 20
10.000000
 30
0.0
 40
0.074970
 50
180.000000
 51
-90.000000
  0
LINE
  8
LAY5
 10
30.925030
 20
10.000000
 30
0.0
 11
30.925030
 21
14.425030
 31
0.0
  0
LINE
  8
LAY5
 10
30.925030
 20
14.425030
 30
0.0
 11
25.227740
 21
14.425030
 31
0.0
  0
ARC
  8
LAY5
 10
25.227740
 20
14.500000
 30
0.0
 40
0.074970
 50
90.420330
 51
-90.000000
  0
ARC
  8
LAY5
 10
25.225000
 20
14.875000
 30
0.0
 40
0.300040
 50
-89.581790
 51
64.146348
  0
ARC
  8
LAY5
 10
25.388530
 20
15.212480
 30
0.0
 40
0.074970
 50
-135.000000
 51
-115.850728
  0
ARC
  8
LAY5
 10
25.388550
 20
15.212500
 30
0.0
 40
0.075000
 50
134.978391
 51
-135.000000
  0
ARC
  8
LAY5
 10
25.388550
 20
15.212540
 30
0.0
 40
0.074970
 50
115.860939
 51
135.000000
  0
ARC
  8
LAY5
 10
25.225000
 20
15.550000
 30
0.0
 40
0.300040
 50
-64.143797
 51
126.869516
  0
ARC
  8
LAY5
 10
25.000000
 20
15.850010
 30
0.0
 40
0.074970
 50
180.000000
 51
-53.133159
  0
LINE
  8
LAY5
 10
24.925030
 20
15.850010
 30
0.0
 11
24.925030
 21
17.482740
 31
0.0
  0
ARC
  8
LAY5
 10
25.000000
 20
17.482740
 30
0.0
 40
0.074970
 50
122.227352
 51
180.000000
  0
ARC
  8
LAY5
 10
24.800000
 20
17.799990
 30
0.0
 40
0.300060
 50
-57.771769
 51
57.771769
  0
ARC
  8
LAY5
 10
25.000000
 20
18.117240
 30
0.0
 40
0.074970
 50
180.000000
 51
-122.227352
  0
LINE
  8
LAY5
 10
24.925030
 20
18.117240
 30
0.0
 11
24.925030
 21
18.132760
 31
0.0
  0
ARC
  8
LAY5
 10
25.000000
 20
18.132760
 30
0.0
 40
0.074970
 50
122.227352
 51
180.000000
  0
ARC
  8
LAY5
 10
24.800000
 20
18.450010
 30
0.0
 40
0.300060
 50
-57.771769
 51
57.771769
  0
ARC
  8
LAY5
 10
25.000000
 20
18.767260
 30
0.0
 40
0.074970
 50
180.000000
 51
-122.227352
  0
LINE
  8
LAY5
 10
24.925030
 20
18.767260
 30
0.0
 11
24.925030
 21
23.424990
 31
0.0
  0
ARC
  8
LAY5
 10
25.000000
 20
23.424990
 30
0.0
 40
0.074970
 50
90.000000
 51
180.000000
  0
LINE
  8
LAY5
 10
25.000000
 20
23.499960
 30
0.0
 11
39.925030
 21
23.499960
 31
0.0
  0
ARC
  8
LAY5
 10
39.925030
 20
23.424990
 30
0.0
 40
0.074970
 50
0.000000
 51
90.000000
  0
LINE
  8
LAY5
 10
40.000000
 20
23.424990
 30
0.0
 11
40.000000
 21
10.000000
 31
0.0
  0
ARC
  8
LAY5
 10
39.925030
 20
10.000000
 30
0.0
 40
0.074970
 50
-90.000000
 51
0.000000
  0
LINE
  8
LAY5
 10
39.925030
 20
9.925030
 30
0.0
 11
31.000000
 21
9.925030
 31
0.0
  0
ARC
  8
LAY5
 10
26.550000
 20
15.025000
 30
0.0
 40
0.300040
 50
-90.000000
 51
90.000000
  0
ARC
  8
LAY5
 10
26.550000
 20
15.025000
 30
0.0
 40
0.300040
 50
90.000000
 51
-90.000000
  0
ARC
  8
LAY6
 10
25.000000
 20
15.250000
 30
0.0
 40
0.074970
 50
53.133159
 51
180.000000
  0
ARC
  8
LAY6
 10
25.225000
 20
15.550000
 30
0.0
 40
0.300040
 50
-126.870662
 51
-115.856203
  0
ARC
  8
LAY6
 10
25.061440
 20
15.212510
 30
0.0
 40
0.075000
 50
-45.032413
 51
64.142184
  0
ARC
  8
LAY6
 10
25.061430
 20
15.212460
 30
0.0
 40
0.074970
 50
-64.139061
 51
-45.000000
  0
ARC
  8
LAY6
 10
25.225000
 20
14.875000
 30
0.0
 40
0.300040
 50
115.859640
 51
126.869516
  0
ARC
  8
LAY6
 10
25.000000
 20
15.175010
 30
0.0
 40
0.074970
 50
180.000000
 51
-53.133159
  0
LINE
  8
LAY6
 10
24.925030
 20
15.175010
 30
0.0
 11
24.925030
 21
15.250000
 31
0.0
  0
ARC
  8
LAY6
 10
25.000000
 20
14.500000
 30
0.0
 40
0.074970
 50
180.000000
 51
-90.000000
  0
LINE
  8
LAY6
 10
24.925030
 20
14.500000
 30
0.0
 11
24.925030
 21
14.574990
 31
0.0
  0
ARC
  8
LAY6
 10
25.000000
 20
14.574990
 30
0.0
 40
0.074970
 50
53.133159
 51
180.000000
  0
ARC
  8
LAY6
 10
25.225000
 20
14.875000
 30
0.0
 40
0.300040
 50
-126.869516
 51
-90.418210
  0
ARC
  8
LAY6
 10
25.222260
 20
14.500000
 30
0.0
 40
0.074970
 50
-90.000000
 51
89.579670
  0
LINE
  8
LAY6
 10
25.222260
 20
14.425030
 30
0.0
 11
25.000000
 21
14.425030
 31
0.0
  0
ARC
  8
LAY6
 10
31.000000
 20
10.000000
 30
0.0
 40
0.074970
 50
180.000000
 51
-90.000000
  0
LINE
  8
LAY6
 10
30.925030
 20
10.000000
 30
0.0
 11
30.925030
 21
14.425030
 31
0.0
  0
LINE
  8
LAY6
 10
30.925030
 20
14.425030
 30
0.0
 11
26.995830
 21
14.425030
 31
0.0
  0
ARC
  8
LAY6
 10
26.995830
 20
14.500000
 30
0.0
 40
0.074970
 50
157.707573
 51
-90.000000
  0
ARC
  8
LAY6
 10
26.325000
 20
14.775000
 30
0.0
 40
0.650040
 50
-22.290481
 51
-157.709519
  0
ARC
  8
LAY6
 10
25.654170
 20
14.500000
 30
0.0
 40
0.074970
 50
-90.000000
 51
22.292427
  0
LINE
  8
LAY6
 10
25.654170
 20
14.425030
 30
0.0
 11
25.227740
 21
14.425030
 31
0.0
  0
ARC
  8
LAY6
 10
25.227740
 20
14.500000
 30
0.0
 40
0.074970
 50
90.420330
 51
-90.000000
  0
ARC
  8
LAY6
 10
25.225000
 20
14.875000
 30
0.0
 40
0.300040
 50
-89.581790
 51
64.146348
  0
ARC
  8
LAY6
 10
25.388530
 20
15.212480
 30
0.0
 40
0.074970
 50
-135.000000
 51
-115.850728
  0
ARC
  8
LAY6
 10
25.388550
 20
15.212500
 30
0.0
 40
0.075000
 50
134.978391
 51
-135.000000
  0
ARC
  8
LAY6
 10
25.388550
 20
15.212540
 30
0.0
 40
0.074970
 50
115.860939
 51
135.000000
  0
ARC
  8
LAY6
 10
25.225000
 20
15.550000
 30
0.0
 40
0.300040
 50
-64.143797
 51
126.870662
  0
ARC
  8
LAY6
 10
25.000000
 20
15.850000
 30
0.0
 40
0.074970
 50
180.000000
 51
-53.133159
  0
LINE
  8
LAY6
 10
24.925030
 20
15.850000
 30
0.0
 11
24.925030
 21
17.482750
 31
0.0
  0
ARC
  8
LAY6
 10
25.000000
 20
17.482750
 30
0.0
 40
0.074970
 50
122.227352
 51
180.000000
  0
ARC
  8
LAY6
 10
24.800000
 20
17.800000
 30
0.0
 40
0.300060
 50
-57.771769
 51
57.771769
  0
ARC
  8
LAY6
 10
25.000000
 20
18.117250
 30
0.0
 40
0.074970
 50
180.000000
 51
-122.227352
  0
LINE
  8
LAY6
 10
24.925030
 20
18.117250
 30
0.0
 11
24.925030
 21
18.132750
 31
0.0
  0
ARC
  8
LAY6
 10
25.000000
 20
18.132750
 30
0.0
 40
0.074970
 50
122.227352
 51
180.000000
  0
ARC
  8
LAY6
 10
24.800000
 20
18.450000
 30
0.0
 40
0.300060
 50
-57.771769
 51
57.771769
  0
ARC
  8
LAY6
 10
25.000000
 20
18.767250
 30
0.0
 40
0.074970
 50
180.000000
 51
-122.227352
  0
LINE
  8
LAY6
 10
24.925030
 20
18.767250
 30
0.0
 11
24.925030
 21
23.424990
 31
0.0
  0
ARC
  8
LAY6
 10
25.000000
 20
23.424990
 30
0.0
 40
0.074970
 50
90.000000
 51
180.000000
  0
LINE
  8
LAY6
 10
25.000000
 20
23.499960
 30
0.0
 11
39.925030
 21
23.499960
 31
0.0
  0
ARC
  8
LAY6
 10
39.925030
 20
23.424990
 30
0.0
 40
0.074970
 50
0.000000
 51
90.000000
  0
LINE
  8
LAY6
 10
40.000000
 20
23.424990
 30
0.0
 11
40.000000
 21
10.000000
 31
0.0
  0
ARC
  8
LAY6
 10
39.925030
 20
10.000000
 30
0.0
 40
0.074970
 50
-90.000000
 51
0.000000
  0
LINE
  8
LAY6
 10
39.925030
 20
9.925030
 30
0.0
 11
31.000000
 21
9.925030
 31
0.0
  0
ARC
  8
Resist-A
 10
25.675000
 20
17.275000
 30
0.0
 40
0.050000
 50
90.000000
 51
180.000000
  0
LINE
  8
Resist-A
 10
25.675000
 20
17.325000
 30
0.0
 11
26.175000
 21
17.325000
 31
0.0
  0
ARC
  8
Resist-A
 10
26.175000
 20
17.275000
 30
0.0
 40
0.050000
 50
0.000000
 51
90.000000
  0
LINE
  8
Resist-A
 10
26.225000
 20
17.275000
 30
0.0
 11
26.225000
 21
16.900000
 31
0.0
  0
ARC
  8
Resist-A
 10
26.175000
 20
16.900000
 30
0.0
 40
0.050000
 50
-90.000000
 51
0.000000
  0
LINE
  8
Resist-A
 10
26.175000
 20
16.850000
 30
0.0
 11
25.675000
 21
16.850000
 31
0.0
  0
ARC
  8
Resist-A
 10
25.675000
 20
16.900000
 30
0.0
 40
0.050000
 50
180.000000
 51
-90.000000
  0
LINE
  8
Resist-A
 10
25.625000
 20
16.900000
 30
0.0
 11
25.625000
 21
17.275000
 31
0.0
  0
ARC
  8
Resist-A
 10
25.675000
 20
16.700000
 30
0.0
 40
0.050000
 50
90.000000
 51
180.000000
  0
LINE
  8
Resist-A
 10
25.675000
 20
16.750000
 30
0.0
 11
26.175000
 21
16.750000
 31
0.0
  0
ARC
  8
Resist-A
 10
26.175000
 20
16.700000
 30
0.0
 40
0.050000
 50
0.000000
 51
90.000000
  0
LINE
  8
Resist-A
 10
26.225000
 20
16.700000
 30
0.0
 11
26.225000
 21
16.450000
 31
0.0
  0
ARC
  8
Resist-A
 10
26.175000
 20
16.450000
 30
0.0
 40
0.050000
 50
-90.000000
 51
0.000000
  0
LINE
  8
Resist-A
 10
26.175000
 20
16.400000
 30
0.0
 11
25.675000
 21
16.400000
 31
0.0
  0
ARC
  8
Resist-A
 10
25.675000
 20
16.450000
 30
0.0
 40
0.050000
 50
180.000000
 51
-90.000000
  0
LINE
  8
Resist-A
 10
25.625000
 20
16.450000
 30
0.0
 11
25.625000
 21
16.700000
 31
0.0
  0
ARC
  8
Resist-A
 10
25.675000
 20
16.250000
 30
0.0
 40
0.050000
 50
90.000000
 51
180.000000
  0
LINE
  8
Resist-A
 10
25.675000
 20
16.300000
 30
0.0
 11
26.175000
 21
16.300000
 31
0.0
  0
ARC
  8
Resist-A
 10
26.175000
 20
16.250000
 30
0.0
 40
0.050000
 50
0.000000
 51
90.000000
  0
LINE
  8
Resist-A
 10
26.225000
 20
16.250000
 30
0.0
 11
26.225000
 21
16.000000
 31
0.0
  0
ARC
  8
Resist-A
 10
26.175000
 20
16.000000
 30
0.0
 40
0.050000
 50
-90.000000
 51
0.000000
  0
LINE
  8
Resist-A
 10
26.175000
 20
15.950000
 30
0.0
 11
25.675000
 21
15.950000
 31
0.0
  0
ARC
  8
Resist-A
 10
25.675000
 20
16.000000
 30
0.0
 40
0.050000
 50
180.000000
 51
-90.000000
  0
LINE
  8
Resist-A
 10
25.625000
 20
16.000000
 30
0.0
 11
25.625000
 21
16.250000
 31
0.0
  0
ARC
  8
Resist-A
 10
25.674970
 20
14.500000
 30
0.0
 40
0.049970
 50
180.000000
 51
-90.000000
  0
LINE
  8
Resist-A
 10
25.625000
 20
14.500000
 30
0.0
 11
25.625000
 21
17.275030
 31
0.0
  0
ARC
  8
Resist-A
 10
25.674970
 20
17.275030
 30
0.0
 40
0.049970
 50
90.000000
 51
180.000000
  0
LINE
  8
Resist-A
 10
25.674970
 20
17.325000
 30
0.0
 11
26.175030
 21
17.325000
 31
0.0
  0
ARC
  8
Resist-A
 10
26.175030
 20
17.275030
 30
0.0
 40
0.049970
 50
0.000000
 51
90.000000
  0
LINE
  8
Resist-A
 10
26.225000
 20
17.275030
 30
0.0
 11
26.225000
 21
14.500000
 31
0.0
  0
ARC
  8
Resist-A
 10
26.175030
 20
14.500000
 30
0.0
 40
0.049970
 50
-90.000000
 51
0.000000
  0
LINE
  8
Resist-A
 10
26.175030
 20
14.450030
 30
0.0
 11
25.674970
 21
14.450030
 31
0.0
  0
LINE
  8
PCBOutline
 10
25.000000
 20
24.000000
 30
0.0
 11
50.000000
 21
24.000000
 31
0.0
  0
LINE
  8
PCBOutline
 10
50.000000
 20
24.000000
 30
0.0
 11
50.000000
 21
10.000000
 31
0.0
  0
ARC
  8
LAY1
 10
34.150000
 20
20.425000
 30
0.0
 40
0.250000
 50
180.000000
 51
0.000000
  0
LINE
  8
LAY1
 10
33.900000
 20
20.425000
 30
0.0
 11
33.900000
 21
20.600000
 31
0.0
  0
ARC
  8
LAY1
 10
33.950000
 20
20.600000
 30
0.0
 40
0.050000
 50
90.000000
 51
180.000000
  0
LINE
  8
LAY1
 10
33.950000
 20
20.650000
 30
0.0
 11
34.350000
 21
20.650000
 31
0.0
  0
ARC
  8
LAY1
 10
34.350000
 20
20.600000
 30
0.0
 40
0.050000
 50
0.000000
 51
90.000000
  0
LINE
  8
LAY1
 10
34.400000
 20
20.600000
 30
0.0
 11
34.400000
 21
20.425000
 31
0.0
  0
ARC
  8
LAY1
 10
33.950000
 20
21.000000
 30
0.0
 40
0.050000
 50
180.000000
 51
-90.000000
  0
LINE
  8
LAY1
 10
33.900000
 20
21.000000
 30
0.0
 11
33.900000
 21
21.175000
 31
0.0
  0
ARC
  8
LAY1
 10
34.150000
 20
21.175000
 30
0.0
 40
0.250000
 50
0.000000
 51
180.000000
  0
LINE
  8
LAY1
 10
34.400000
 20
21.175000
 30
0.0
 11
34.400000
 21
21.000000
 31
0.0
  0
ARC
  8
LAY1
 10
34.350000
 20
21.000000
 30
0.0
 40
0.050000
 50
-90.000000
 51
0.000000
  0
LINE
  8
LAY1
 10
34.350000
 20
20.950000
 30
0.0
 11
33.950000
 21
20.950000
 31
0.0
  0
ARC
  8
Resist-A
 10
34.150000
 20
20.425000
 30
0.0
 40
0.300000
 50
180.000000
 51
0.000000
  0
LINE
  8
Resist-A
 10
33.850000
 20
20.425000
 30
0.0
 11
33.850000
 21
20.650000
 31
0.0
  0
ARC
  8
Resist-A
 10
33.900000
 20
20.650000
 30
0.0
 40
0.050000
 50
90.000000
 51
180.000000
  0
LINE
  8
Resist-A
 10
33.900000
 20
20.700000
 30
0.0
 11
34.400000
 21
20.700000
 31
0.0
  0
ARC
  8
Resist-A
 10
34.400000
 20
20.650000
 30
0.0
 40
0.050000
 50
0.000000
 51
90.000000
  0
LINE
  8
Resist-A
 10
34.450000
 20
20.650000
 30
0.0
 11
34.450000
 21
20.425000
 31
0.0
  0
ARC
  8
Resist-A
 10
33.900000
 20
20.950000
 30
0.0
 40
0.050000
 50
180.000000
 51
-90.000000
  0
LINE
  8
Resist-A
 10
33.850000
 20
20.950000
 30
0.0
 11
33.850000
 21
21.175000
 31
0.0
  0
ARC
  8
Resist-A
 10
34.150000
 20
21.175000
 30
0.0
 40
0.300000
 50
0.000000
 51
180.000000
  0
LINE
  8
Resist-A
 10
34.450000
 20
21.175000
 30
0.0
 11
34.450000
 21
20.950000
 31
0.0
  0
ARC
  8
Resist-A
 10
34.400000
 20
20.950000
 30
0.0
 40
0.050000
 50
-90.000000
 51
0.000000
  0
LINE
  8
Resist-A
 10
34.400000
 20
20.900000
 30
0.0
 11
33.900000
 21
20.900000
 31
0.0
  0
ARC
  8
LAY1
 10
29.255000
 20
16.375000
 30
0.0
 40
0.050000
 50
-90.000000
 51
0.000000
  0
LINE
  8
LAY1
 10
29.255000
 20
16.325000
 30
0.0
 11
28.775000
 21
16.325000
 31
0.0
  0
ARC
  8
LAY1
 10
28.775000
 20
16.375000
 30
0.0
 40
0.050000
 50
180.000000
 51
-90.000000
  0
LINE
  8
LAY1
 10
28.725000
 20
16.375000
 30
0.0
 11
28.725000
 21
16.775000
 31
0.0
  0
ARC
  8
LAY1
 10
28.775000
 20
16.775000
 30
0.0
 40
0.050000
 50
90.000000
 51
180.000000
  0
LINE
  8
LAY1
 10
28.775000
 20
16.825000
 30
0.0
 11
29.255000
 21
16.825000
 31
0.0
  0
ARC
  8
LAY1
 10
29.255000
 20
16.775000
 30
0.0
 40
0.050000
 50
0.000000
 51
90.000000
  0
LINE
  8
LAY1
 10
29.305000
 20
16.775000
 30
0.0
 11
29.305000
 21
16.375000
 31
0.0
  0
ARC
  8
LAY1
 10
31.575000
 20
16.375000
 30
0.0
 40
0.050000
 50
-90.000000
 51
0.000000
  0
LINE
  8
LAY1
 10
31.575000
 20
16.325000
 30
0.0
 11
31.095000
 21
16.325000
 31
0.0
  0
ARC
  8
LAY1
 10
31.095000
 20
16.375000
 30
0.0
 40
0.050000
 50
180.000000
 51
-90.000000
  0
LINE
  8
LAY1
 10
31.045000
 20
16.375000
 30
0.0
 11
31.045000
 21
16.775000
 31
0.0
  0
ARC
  8
LAY1
 10
31.095000
 20
16.775000
 30
0.0
 40
0.050000
 50
90.000000
 51
180.000000
  0
LINE
  8
LAY1
 10
31.095000
 20
16.825000
 30
0.0
 11
31.575000
 21
16.825000
 31
0.0
  0
ARC
  8
LAY1
 10
31.575000
 20
16.775000
 30
0.0
 40
0.050000
 50
0.000000
 51
90.000000
  0
LINE
  8
LAY1
 10
31.625000
 20
16.775000
 30
0.0
 11
31.625000
 21
16.375000
 31
0.0
  0
ARC
  8
LAY1
 10
29.575000
 20
15.225000
 30
0.0
 40
0.050000
 50
-90.000000
 51
0.000000
  0
LINE
  8
LAY1
 10
29.575000
 20
15.175000
 30
0.0
 11
28.875000
 21
15.175000
 31
0.0
  0
ARC
  8
LAY1
 10
28.875000
 20
15.225000
 30
0.0
 40
0.050000
 50
180.000000
 51
-90.000000
  0
LINE
  8
LAY1
 10
28.825000
 20
15.225000
 30
0.0
 11
28.825000
 21
15.875000
 31
0.0
  0
ARC
  8
LAY1
 10
28.875000
 20
15.875000
 30
0.0
 40
0.050000
 50
90.000000
 51
180.000000
  0
LINE
  8
LAY1
 10
28.875000
 20
15.925000
 30
0.0
 11
29.575000
 21
15.925000
 31
0.0
  0
ARC
  8
LAY1
 10
29.575000
 20
15.875000
 30
0.0
 40
0.050000
 50
0.000000
 51
90.000000
  0
LINE
  8
LAY1
 10
29.625000
 20
15.875000
 30
0.0
 11
29.625000
 21
15.225000
 31
0.0
  0
ARC
  8
LAY1
 10
31.475000
 20
15.225000
 30
0.0
 40
0.050000
 50
-90.000000
 51
0.000000
  0
LINE
  8
LAY1
 10
31.475000
 20
15.175000
 30
0.0
 11
30.775000
 21
15.175000
 31
0.0
  0
ARC
  8
LAY1
 10
30.775000
 20
15.225000
 30
0.0
 40
0.050000
 50
180.000000
 51
-90.000000
  0
LINE
  8
LAY1
 10
30.725000
 20
15.225000
 30
0.0
 11
30.725000
 21
15.875000
 31
0.0
  0
ARC
  8
LAY1
 10
30.775000
 20
15.875000
 30
0.0
 40
0.050000
 50
90.000000
 51
180.000000
  0
LINE
  8
LAY1
 10
30.775000
 20
15.925000
 30
0.0
 11
31.475000
 21
15.925000
 31
0.0
  0
ARC
  8
LAY1
 10
31.475000
 20
15.875000
 30
0.0
 40
0.050000
 50
0.000000
 51
90.000000
  0
LINE
  8
LAY1
 10
31.525000
 20
15.875000
 30
0.0
 11
31.525000
 21
15.225000
 31
0.0
  0
ARC
  8
LAY1
 10
30.775000
 20
17.925000
 30
0.0
 40
0.050000
 50
90.000000
 51
180.000000
  0
LINE
  8
LAY1
 10
30.775000
 20
17.975000
 30
0.0
 11
31.475000
 21
17.975000
 31
0.0
  0
ARC
  8
LAY1
 10
31.475000
 20
17.925000
 30
0.0
 40
0.050000
 50
0.000000
 51
90.000000
  0
LINE
  8
LAY1
 10
31.525000
 20
17.925000
 30
0.0
 11
31.525000
 21
17.275000
 31
0.0
  0
ARC
  8
LAY1
 10
31.475000
 20
17.275000
 30
0.0
 40
0.050000
 50
-90.000000
 51
0.000000
  0
LINE
  8
LAY1
 10
31.475000
 20
17.225000
 30
0.0
 11
30.775000
 21
17.225000
 31
0.0
  0
ARC
  8
LAY1
 10
30.775000
 20
17.275000
 30
0.0
 40
0.050000
 50
180.000000
 51
-90.000000
  0
LINE
  8
LAY1
 10
30.725000
 20
17.275000
 30
0.0
 11
30.725000
 21
17.925000
 31
0.0
  0
ARC
  8
LAY1
 10
28.875000
 20
17.925000
 30
0.0
 40
0.050000
 50
90.000000
 51
180.000000
  0
LINE
  8
LAY1
 10
28.875000
 20
17.975000
 30
0.0
 11
29.575000
 21
17.975000
 31
0.0
  0
ARC
  8
LAY1
 10
29.575000
 20
17.925000
 30
0.0
 40
0.050000
 50
0.000000
 51
90.000000
  0
LINE
  8
LAY1
 10
29.625000
 20
17.925000
 30
0.0
 11
29.625000
 21
17.275000
 31
0.0
  0
ARC
  8
LAY1
 10
29.575000
 20
17.275000
 30
0.0
 40
0.050000
 50
-90.000000
 51
0.000000
  0
LINE
  8
LAY1
 10
29.575000
 20
17.225000
 30
0.0
 11
28.875000
 21
17.225000
 31
0.0
  0
ARC
  8
LAY1
 10
28.875000
 20
17.275000
 30
0.0
 40
0.050000
 50
180.000000
 51
-90.000000
  0
LINE
  8
LAY1
 10
28.825000
 20
17.275000
 30
0.0
 11
28.825000
 21
17.925000
 31
0.0
  0
ARC
  8
Resist-A
 10
31.625000
 20
16.825000
 30
0.0
 40
0.050000
 50
0.000000
 51
90.000000
  0
LINE
  8
Resist-A
 10
31.675000
 20
16.825000
 30
0.0
 11
31.675000
 21
16.325000
 31
0.0
  0
ARC
  8
Resist-A
 10
31.625000
 20
16.325000
 30
0.0
 40
0.050000
 50
-90.000000
 51
0.000000
  0
LINE
  8
Resist-A
 10
31.625000
 20
16.275000
 30
0.0
 11
31.045000
 21
16.275000
 31
0.0
  0
ARC
  8
Resist-A
 10
31.045000
 20
16.325000
 30
0.0
 40
0.050000
 50
180.000000
 51
-90.000000
  0
LINE
  8
Resist-A
 10
30.995000
 20
16.325000
 30
0.0
 11
30.995000
 21
16.825000
 31
0.0
  0
ARC
  8
Resist-A
 10
31.045000
 20
16.825000
 30
0.0
 40
0.050000
 50
90.000000
 51
180.000000
  0
LINE
  8
Resist-A
 10
31.045000
 20
16.875000
 30
0.0
 11
31.625000
 21
16.875000
 31
0.0
  0
ARC
  8
Resist-A
 10
31.525000
 20
15.925000
 30
0.0
 40
0.050000
 50
0.000000
 51
90.000000
  0
LINE
  8
Resist-A
 10
31.575000
 20
15.925000
 30
0.0
 11
31.575000
 21
15.175000
 31
0.0
  0
ARC
  8
Resist-A
 10
31.525000
 20
15.175000
 30
0.0
 40
0.050000
 50
-90.000000
 51
0.000000
  0
LINE
  8
Resist-A
 10
31.525000
 20
15.125000
 30
0.0
 11
30.725000
 21
15.125000
 31
0.0
  0
ARC
  8
Resist-A
 10
30.725000
 20
15.175000
 30
0.0
 40
0.050000
 50
180.000000
 51
-90.000000
  0
LINE
  8
Resist-A
 10
30.675000
 20
15.175000
 30
0.0
 11
30.675000
 21
15.925000
 31
0.0
  0
ARC
  8
Resist-A
 10
30.725000
 20
15.925000
 30
0.0
 40
0.050000
 50
90.000000
 51
180.000000
  0
LINE
  8
Resist-A
 10
30.725000
 20
15.975000
 30
0.0
 11
31.525000
 21
15.975000
 31
0.0
  0
ARC
  8
Resist-A
 10
31.525000
 20
17.975000
 30
0.0
 40
0.050000
 50
0.000000
 51
90.000000
  0
LINE
  8
Resist-A
 10
31.575000
 20
17.975000
 30
0.0
 11
31.575000
 21
17.225000
 31
0.0
  0
ARC
  8
Resist-A
 10
31.525000
 20
17.225000
 30
0.0
 40
0.050000
 50
-90.000000
 51
0.000000
  0
LINE
  8
Resist-A
 10
31.525000
 20
17.175000
 30
0.0
 11
30.725000
 21
17.175000
 31
0.0
  0
ARC
  8
Resist-A
 10
30.725000
 20
17.225000
 30
0.0
 40
0.050000
 50
180.000000
 51
-90.000000
  0
LINE
  8
Resist-A
 10
30.675000
 20
17.225000
 30
0.0
 11
30.675000
 21
17.975000
 31
0.0
  0
ARC
  8
Resist-A
 10
30.725000
 20
17.975000
 30
0.0
 40
0.050000
 50
90.000000
 51
180.000000
  0
LINE
  8
Resist-A
 10
30.725000
 20
18.025000
 30
0.0
 11
31.525000
 21
18.025000
 31
0.0
  0
ARC
  8
Resist-A
 10
28.725000
 20
16.325000
 30
0.0
 40
0.050000
 50
180.000000
 51
-90.000000
  0
LINE
  8
Resist-A
 10
28.675000
 20
16.325000
 30
0.0
 11
28.675000
 21
16.825000
 31
0.0
  0
ARC
  8
Resist-A
 10
28.725000
 20
16.825000
 30
0.0
 40
0.050000
 50
90.000000
 51
180.000000
  0
LINE
  8
Resist-A
 10
28.725000
 20
16.875000
 30
0.0
 11
29.305000
 21
16.875000
 31
0.0
  0
ARC
  8
Resist-A
 10
29.305000
 20
16.825000
 30
0.0
 40
0.050000
 50
0.000000
 51
90.000000
  0
LINE
  8
Resist-A
 10
29.355000
 20
16.825000
 30
0.0
 11
29.355000
 21
16.325000
 31
0.0
  0
ARC
  8
Resist-A
 10
29.305000
 20
16.325000
 30
0.0
 40
0.050000
 50
-90.000000
 51
0.000000
  0
LINE
  8
Resist-A
 10
29.305000
 20
16.275000
 30
0.0
 11
28.725000
 21
16.275000
 31
0.0
  0
ARC
  8
Resist-A
 10
28.825000
 20
15.175000
 30
0.0
 40
0.050000
 50
180.000000
 51
-90.000000
  0
LINE
  8
Resist-A
 10
28.775000
 20
15.175000
 30
0.0
 11
28.775000
 21
15.925000
 31
0.0
  0
ARC
  8
Resist-A
 10
28.825000
 20
15.925000
 30
0.0
 40
0.050000
 50
90.000000
 51
180.000000
  0
LINE
  8
Resist-A
 10
28.825000
 20
15.975000
 30
0.0
 11
29.625000
 21
15.975000
 31
0.0
  0
ARC
  8
Resist-A
 10
29.625000
 20
15.925000
 30
0.0
 40
0.050000
 50
0.000000
 51
90.000000
  0
LINE
  8
Resist-A
 10
29.675000
 20
15.925000
 30
0.0
 11
29.675000
 21
15.175000
 31
0.0
  0
ARC
  8
Resist-A
 10
29.625000
 20
15.175000
 30
0.0
 40
0.050000
 50
-90.000000
 51
0.000000
  0
LINE
  8
Resist-A
 10
29.625000
 20
15.125000
 30
0.0
 11
28.825000
 21
15.125000
 31
0.0
  0
ARC
  8
Resist-A
 10
28.825000
 20
17.225000
 30
0.0
 40
0.050000
 50
180.000000
 51
-90.000000
  0
LINE
  8
Resist-A
 10
28.775000
 20
17.225000
 30
0.0
 11
28.775000
 21
17.975000
 31
0.0
  0
ARC
  8
Resist-A
 10
28.825000
 20
17.975000
 30
0.0
 40
0.050000
 50
90.000000
 51
180.000000
  0
LINE
  8
Resist-A
 10
28.825000
 20
18.025000
 30
0.0
 11
29.625000
 21
18.025000
 31
0.0
  0
ARC
  8
Resist-A
 10
29.625000
 20
17.975000
 30
0.0
 40
0.050000
 50
0.000000
 51
90.000000
  0
LINE
  8
Resist-A
 10
29.675000
 20
17.975000
 30
0.0
 11
29.675000
 21
17.225000
 31
0.0
  0
ARC
  8
Resist-A
 10
29.625000
 20
17.225000
 30
0.0
 40
0.050000
 50
-90.000000
 51
0.000000
  0
LINE
  8
Resist-A
 10
29.625000
 20
17.175000
 30
0.0
 11
28.825000
 21
17.175000
 31
0.0
  0
ARC
  8
LAY1
 10
35.950000
 20
21.200000
 30
0.0
 40
0.250000
 50
-90.000000
 51
90.000000
  0
LINE
  8
LAY1
 10
35.950000
 20
20.950000
 30
0.0
 11
35.775000
 21
20.950000
 31
0.0
  0
ARC
  8
LAY1
 10
35.775000
 20
21.000000
 30
0.0
 40
0.050000
 50
180.000000
 51
-90.000000
  0
LINE
  8
LAY1
 10
35.725000
 20
21.000000
 30
0.0
 11
35.725000
 21
21.400000
 31
0.0
  0
ARC
  8
LAY1
 10
35.775000
 20
21.400000
 30
0.0
 40
0.050000
 50
90.000000
 51
180.000000
  0
LINE
  8
LAY1
 10
35.775000
 20
21.450000
 30
0.0
 11
35.950000
 21
21.450000
 31
0.0
  0
ARC
  8
LAY1
 10
35.375000
 20
21.000000
 30
0.0
 40
0.050000
 50
-90.000000
 51
0.000000
  0
LINE
  8
LAY1
 10
35.375000
 20
20.950000
 30
0.0
 11
35.200000
 21
20.950000
 31
0.0
  0
ARC
  8
LAY1
 10
35.200000
 20
21.200000
 30
0.0
 40
0.250000
 50
90.000000
 51
-90.000000
  0
LINE
  8
LAY1
 10
35.200000
 20
21.450000
 30
0.0
 11
35.375000
 21
21.450000
 31
0.0
  0
ARC
  8
LAY1
 10
35.375000
 20
21.400000
 30
0.0
 40
0.050000
 50
0.000000
 51
90.000000
  0
LINE
  8
LAY1
 10
35.425000
 20
21.400000
 30
0.0
 11
35.425000
 21
21.000000
 31
0.0
  0
ARC
  8
Resist-A
 10
35.950000
 20
21.200000
 30
0.0
 40
0.300000
 50
-90.000000
 51
90.000000
  0
LINE
  8
Resist-A
 10
35.950000
 20
20.900000
 30
0.0
 11
35.725000
 21
20.900000
 31
0.0
  0
ARC
  8
Resist-A
 10
35.725000
 20
20.950000
 30
0.0
 40
0.050000
 50
180.000000
 51
-90.000000
  0
LINE
  8
Resist-A
 10
35.675000
 20
20.950000
 30
0.0
 11
35.675000
 21
21.450000
 31
0.0
  0
ARC
  8
Resist-A
 10
35.725000
 20
21.450000
 30
0.0
 40
0.050000
 50
90.000000
 51
180.000000
  0
LINE
  8
Resist-A
 10
35.725000
 20
21.500000
 30
0.0
 11
35.950000
 21
21.500000
 31
0.0
  0
ARC
  8
Resist-A
 10
35.425000
 20
20.950000
 30
0.0
 40
0.050000
 50
-90.000000
 51
0.000000
  0
LINE
  8
Resist-A
 10
35.425000
 20
20.900000
 30
0.0
 11
35.200000
 21
20.900000
 31
0.0
  0
ARC
  8
Resist-A
 10
35.200000
 20
21.200000
 30
0.0
 40
0.300000
 50
90.000000
 51
-90.000000
  0
LINE
  8
Resist-A
 10
35.200000
 20
21.500000
 30
0.0
 11
35.425000
 21
21.500000
 31
0.0
  0
ARC
  8
Resist-A
 10
35.425000
 20
21.450000
 30
0.0
 40
0.050000
 50
0.000000
 51
90.000000
  0
LINE
  8
Resist-A
 10
35.475000
 20
21.450000
 30
0.0
 11
35.475000
 21
20.950000
 31
0.0
  0
ARC
  8
LAY1
 10
32.025000
 20
18.650000
 30
0.0
 40
0.250000
 50
90.000000
 51
-90.000000
  0
LINE
  8
LAY1
 10
32.025000
 20
18.900000
 30
0.0
 11
32.200000
 21
18.900000
 31
0.0
  0
ARC
  8
LAY1
 10
32.200000
 20
18.850000
 30
0.0
 40
0.050000
 50
0.000000
 51
90.000000
  0
LINE
  8
LAY1
 10
32.250000
 20
18.850000
 30
0.0
 11
32.250000
 21
18.450000
 31
0.0
  0
ARC
  8
LAY1
 10
32.200000
 20
18.450000
 30
0.0
 40
0.050000
 50
-90.000000
 51
0.000000
  0
LINE
  8
LAY1
 10
32.200000
 20
18.400000
 30
0.0
 11
32.025000
 21
18.400000
 31
0.0
  0
ARC
  8
LAY1
 10
32.600000
 20
18.850000
 30
0.0
 40
0.050000
 50
90.000000
 51
180.000000
  0
LINE
  8
LAY1
 10
32.600000
 20
18.900000
 30
0.0
 11
32.775000
 21
18.900000
 31
0.0
  0
ARC
  8
LAY1
 10
32.775000
 20
18.650000
 30
0.0
 40
0.250000
 50
-90.000000
 51
90.000000
  0
LINE
  8
LAY1
 10
32.775000
 20
18.400000
 30
0.0
 11
32.600000
 21
18.400000
 31
0.0
  0
ARC
  8
LAY1
 10
32.600000
 20
18.450000
 30
0.0
 40
0.050000
 50
180.000000
 51
-90.000000
  0
LINE
  8
LAY1
 10
32.550000
 20
18.450000
 30
0.0
 11
32.550000
 21
18.850000
 31
0.0
  0
ARC
  8
Resist-A
 10
32.025000
 20
18.650000
 30
0.0
 40
0.300000
 50
90.000000
 51
-90.000000
  0
LINE
  8
Resist-A
 10
32.025000
 20
18.950000
 30
0.0
 11
32.250000
 21
18.950000
 31
0.0
  0
ARC
  8
Resist-A
 10
32.250000
 20
18.900000
 30
0.0
 40
0.050000
 50
0.000000
 51
90.000000
  0
LINE
  8
Resist-A
 10
32.300000
 20
18.900000
 30
0.0
 11
32.300000
 21
18.400000
 31
0.0
  0
ARC
  8
Resist-A
 10
32.250000
 20
18.400000
 30
0.0
 40
0.050000
 50
-90.000000
 51
0.000000
  0
LINE
  8
Resist-A
 10
32.250000
 20
18.350000
 30
0.0
 11
32.025000
 21
18.350000
 31
0.0
  0
ARC
  8
Resist-A
 10
32.550000
 20
18.900000
 30
0.0
 40
0.050000
 50
90.000000
 51
180.000000
  0
LINE
  8
Resist-A
 10
32.550000
 20
18.950000
 30
0.0
 11
32.775000
 21
18.950000
 31
0.0
  0
ARC
  8
Resist-A
 10
32.775000
 20
18.650000
 30
0.0
 40
0.300000
 50
-90.000000
 51
90.000000
  0
LINE
  8
Resist-A
 10
32.775000
 20
18.350000
 30
0.0
 11
32.550000
 21
18.350000
 31
0.0
  0
ARC
  8
Resist-A
 10
32.550000
 20
18.400000
 30
0.0
 40
0.050000
 50
180.000000
 51
-90.000000
  0
LINE
  8
Resist-A
 10
32.500000
 20
18.400000
 30
0.0
 11
32.500000
 21
18.900000
 31
0.0
  0
ARC
  8
LAY1
 10
41.875000
 20
21.200000
 30
0.0
 40
0.250000
 50
-90.000000
 51
90.000000
  0
LINE
  8
LAY1
 10
41.875000
 20
20.950000
 30
0.0
 11
41.700000
 21
20.950000
 31
0.0
  0
ARC
  8
LAY1
 10
41.700000
 20
21.000000
 30
0.0
 40
0.050000
 50
180.000000
 51
-90.000000
  0
LINE
  8
LAY1
 10
41.650000
 20
21.000000
 30
0.0
 11
41.650000
 21
21.400000
 31
0.0
  0
ARC
  8
LAY1
 10
41.700000
 20
21.400000
 30
0.0
 40
0.050000
 50
90.000000
 51
180.000000
  0
LINE
  8
LAY1
 10
41.700000
 20
21.450000
 30
0.0
 11
41.875000
 21
21.450000
 31
0.0
  0
ARC
  8
LAY1
 10
41.300000
 20
21.000000
 30
0.0
 40
0.050000
 50
-90.000000
 51
0.000000
  0
LINE
  8
LAY1
 10
41.300000
 20
20.950000
 30
0.0
 11
41.125000
 21
20.950000
 31
0.0
  0
ARC
  8
LAY1
 10
41.125000
 20
21.200000
 30
0.0
 40
0.250000
 50
90.000000
 51
-90.000000
  0
LINE
  8
LAY1
 10
41.125000
 20
21.450000
 30
0.0
 11
41.300000
 21
21.450000
 31
0.0
  0
ARC
  8
LAY1
 10
41.300000
 20
21.400000
 30
0.0
 40
0.050000
 50
0.000000
 51
90.000000
  0
LINE
  8
LAY1
 10
41.350000
 20
21.400000
 30
0.0
 11
41.350000
 21
21.000000
 31
0.0
  0
ARC
  8
Resist-A
 10
41.875000
 20
21.200000
 30
0.0
 40
0.300000
 50
-90.000000
 51
90.000000
  0
LINE
  8
Resist-A
 10
41.875000
 20
20.900000
 30
0.0
 11
41.650000
 21
20.900000
 31
0.0
  0
ARC
  8
Resist-A
 10
41.650000
 20
20.950000
 30
0.0
 40
0.050000
 50
180.000000
 51
-90.000000
  0
LINE
  8
Resist-A
 10
41.600000
 20
20.950000
 30
0.0
 11
41.600000
 21
21.450000
 31
0.0
  0
ARC
  8
Resist-A
 10
41.650000
 20
21.450000
 30
0.0
 40
0.050000
 50
90.000000
 51
180.000000
  0
LINE
  8
Resist-A
 10
41.650000
 20
21.500000
 30
0.0
 11
41.875000
 21
21.500000
 31
0.0
  0
ARC
  8
Resist-A
 10
41.350000
 20
20.950000
 30
0.0
 40
0.050000
 50
-90.000000
 51
0.000000
  0
LINE
  8
Resist-A
 10
41.350000
 20
20.900000
 30
0.0
 11
41.125000
 21
20.900000
 31
0.0
  0
ARC
  8
Resist-A
 10
41.125000
 20
21.200000
 30
0.0
 40
0.300000
 50
90.000000
 51
-90.000000
  0
LINE
  8
Resist-A
 10
41.125000
 20
21.500000
 30
0.0
 11
41.350000
 21
21.500000
 31
0.0
  0
ARC
  8
Resist-A
 10
41.350000
 20
21.450000
 30
0.0
 40
0.050000
 50
0.000000
 51
90.000000
  0
LINE
  8
Resist-A
 10
41.400000
 20
21.450000
 30
0.0
 11
41.400000
 21
20.950000
 31
0.0
  0
ARC
  8
LAY1
 10
32.050000
 20
21.200000
 30
0.0
 40
0.250000
 50
90.000000
 51
-90.000000
  0
LINE
  8
LAY1
 10
32.050000
 20
21.450000
 30
0.0
 11
32.225000
 21
21.450000
 31
0.0
  0
ARC
  8
LAY1
 10
32.225000
 20
21.400000
 30
0.0
 40
0.050000
 50
0.000000
 51
90.000000
  0
LINE
  8
LAY1
 10
32.275000
 20
21.400000
 30
0.0
 11
32.275000
 21
21.000000
 31
0.0
  0
ARC
  8
LAY1
 10
32.225000
 20
21.000000
 30
0.0
 40
0.050000
 50
-90.000000
 51
0.000000
  0
LINE
  8
LAY1
 10
32.225000
 20
20.950000
 30
0.0
 11
32.050000
 21
20.950000
 31
0.0
  0
ARC
  8
LAY1
 10
32.625000
 20
21.400000
 30
0.0
 40
0.050000
 50
90.000000
 51
180.000000
  0
LINE
  8
LAY1
 10
32.625000
 20
21.450000
 30
0.0
 11
32.800000
 21
21.450000
 31
0.0
  0
ARC
  8
LAY1
 10
32.800000
 20
21.200000
 30
0.0
 40
0.250000
 50
-90.000000
 51
90.000000
  0
LINE
  8
LAY1
 10
32.800000
 20
20.950000
 30
0.0
 11
32.625000
 21
20.950000
 31
0.0
  0
ARC
  8
LAY1
 10
32.625000
 20
21.000000
 30
0.0
 40
0.050000
 50
180.000000
 51
-90.000000
  0
LINE
  8
LAY1
 10
32.575000
 20
21.000000
 30
0.0
 11
32.575000
 21
21.400000
 31
0.0
  0
ARC
  8
Resist-A
 10
32.050000
 20
21.200000
 30
0.0
 40
0.300000
 50
90.000000
 51
-90.000000
  0
LINE
  8
Resist-A
 10
32.050000
 20
21.500000
 30
0.0
 11
32.275000
 21
21.500000
 31
0.0
  0
ARC
  8
Resist-A
 10
32.275000
 20
21.450000
 30
0.0
 40
0.050000
 50
0.000000
 51
90.000000
  0
LINE
  8
Resist-A
 10
32.325000
 20
21.450000
 30
0.0
 11
32.325000
 21
20.950000
 31
0.0
  0
ARC
  8
Resist-A
 10
32.275000
 20
20.950000
 30
0.0
 40
0.050000
 50
-90.000000
 51
0.000000
  0
LINE
  8
Resist-A
 10
32.275000
 20
20.900000
 30
0.0
 11
32.050000
 21
20.900000
 31
0.0
  0
ARC
  8
Resist-A
 10
32.575000
 20
21.450000
 30
0.0
 40
0.050000
 50
90.000000
 51
180.000000
  0
LINE
  8
Resist-A
 10
32.575000
 20
21.500000
 30
0.0
 11
32.800000
 21
21.500000
 31
0.0
  0
ARC
  8
Resist-A
 10
32.800000
 20
21.200000
 30
0.0
 40
0.300000
 50
-90.000000
 51
90.000000
  0
LINE
  8
Resist-A
 10
32.800000
 20
20.900000
 30
0.0
 11
32.575000
 21
20.900000
 31
0.0
  0
ARC
  8
Resist-A
 10
32.575000
 20
20.950000
 30
0.0
 40
0.050000
 50
180.000000
 51
-90.000000
  0
LINE
  8
Resist-A
 10
32.525000
 20
20.950000
 30
0.0
 11
32.525000
 21
21.450000
 31
0.0
  0
ARC
  8
LAY1
 10
32.800000
 20
20.350000
 30
0.0
 40
0.250000
 50
0.000000
 51
180.000000
  0
LINE
  8
LAY1
 10
33.050000
 20
20.350000
 30
0.0
 11
33.050000
 21
20.175000
 31
0.0
  0
ARC
  8
LAY1
 10
33.000000
 20
20.175000
 30
0.0
 40
0.050000
 50
-90.000000
 51
0.000000
  0
LINE
  8
LAY1
 10
33.000000
 20
20.125000
 30
0.0
 11
32.600000
 21
20.125000
 31
0.0
  0
ARC
  8
LAY1
 10
32.600000
 20
20.175000
 30
0.0
 40
0.050000
 50
180.000000
 51
-90.000000
  0
LINE
  8
LAY1
 10
32.550000
 20
20.175000
 30
0.0
 11
32.550000
 21
20.350000
 31
0.0
  0
ARC
  8
LAY1
 10
33.000000
 20
19.775000
 30
0.0
 40
0.050000
 50
0.000000
 51
90.000000
  0
LINE
  8
LAY1
 10
33.050000
 20
19.775000
 30
0.0
 11
33.050000
 21
19.600000
 31
0.0
  0
ARC
  8
LAY1
 10
32.800000
 20
19.600000
 30
0.0
 40
0.250000
 50
180.000000
 51
0.000000
  0
LINE
  8
LAY1
 10
32.550000
 20
19.600000
 30
0.0
 11
32.550000
 21
19.775000
 31
0.0
  0
ARC
  8
LAY1
 10
32.600000
 20
19.775000
 30
0.0
 40
0.050000
 50
90.000000
 51
180.000000
  0
LINE
  8
LAY1
 10
32.600000
 20
19.825000
 30
0.0
 11
33.000000
 21
19.825000
 31
0.0
  0
ARC
  8
Resist-A
 10
32.800000
 20
20.350000
 30
0.0
 40
0.300000
 50
0.000000
 51
180.000000
  0
LINE
  8
Resist-A
 10
33.100000
 20
20.350000
 30
0.0
 11
33.100000
 21
20.125000
 31
0.0
  0
ARC
  8
Resist-A
 10
33.050000
 20
20.125000
 30
0.0
 40
0.050000
 50
-90.000000
 51
0.000000
  0
LINE
  8
Resist-A
 10
33.050000
 20
20.075000
 30
0.0
 11
32.550000
 21
20.075000
 31
0.0
  0
ARC
  8
Resist-A
 10
32.550000
 20
20.125000
 30
0.0
 40
0.050000
 50
180.000000
 51
-90.000000
  0
LINE
  8
Resist-A
 10
32.500000
 20
20.125000
 30
0.0
 11
32.500000
 21
20.350000
 31
0.0
  0
ARC
  8
Resist-A
 10
33.050000
 20
19.825000
 30
0.0
 40
0.050000
 50
0.000000
 51
90.000000
  0
LINE
  8
Resist-A
 10
33.100000
 20
19.825000
 30
0.0
 11
33.100000
 21
19.600000
 31
0.0
  0
ARC
  8
Resist-A
 10
32.800000
 20
19.600000
 30
0.0
 40
0.300000
 50
180.000000
 51
0.000000
  0
LINE
  8
Resist-A
 10
32.500000
 20
19.600000
 30
0.0
 11
32.500000
 21
19.825000
 31
0.0
  0
ARC
  8
Resist-A
 10
32.550000
 20
19.825000
 30
0.0
 40
0.050000
 50
90.000000
 51
180.000000
  0
LINE
  8
Resist-A
 10
32.550000
 20
19.875000
 30
0.0
 11
33.050000
 21
19.875000
 31
0.0
  0
ARC
  8
LAY1
 10
36.975000
 20
20.425000
 30
0.0
 40
0.250000
 50
180.000000
 51
0.000000
  0
LINE
  8
LAY1
 10
36.725000
 20
20.425000
 30
0.0
 11
36.725000
 21
20.600000
 31
0.0
  0
ARC
  8
LAY1
 10
36.775000
 20
20.600000
 30
0.0
 40
0.050000
 50
90.000000
 51
180.000000
  0
LINE
  8
LAY1
 10
36.775000
 20
20.650000
 30
0.0
 11
37.175000
 21
20.650000
 31
0.0
  0
ARC
  8
LAY1
 10
37.175000
 20
20.600000
 30
0.0
 40
0.050000
 50
0.000000
 51
90.000000
  0
LINE
  8
LAY1
 10
37.225000
 20
20.600000
 30
0.0
 11
37.225000
 21
20.425000
 31
0.0
  0
ARC
  8
LAY1
 10
36.775000
 20
21.000000
 30
0.0
 40
0.050000
 50
180.000000
 51
-90.000000
  0
LINE
  8
LAY1
 10
36.725000
 20
21.000000
 30
0.0
 11
36.725000
 21
21.175000
 31
0.0
  0
ARC
  8
LAY1
 10
36.975000
 20
21.175000
 30
0.0
 40
0.250000
 50
0.000000
 51
180.000000
  0
LINE
  8
LAY1
 10
37.225000
 20
21.175000
 30
0.0
 11
37.225000
 21
21.000000
 31
0.0
  0
ARC
  8
LAY1
 10
37.175000
 20
21.000000
 30
0.0
 40
0.050000
 50
-90.000000
 51
0.000000
  0
LINE
  8
LAY1
 10
37.175000
 20
20.950000
 30
0.0
 11
36.775000
 21
20.950000
 31
0.0
  0
ARC
  8
Resist-A
 10
36.975000
 20
20.425000
 30
0.0
 40
0.300000
 50
180.000000
 51
0.000000
  0
LINE
  8
Resist-A
 10
36.675000
 20
20.425000
 30
0.0
 11
36.675000
 21
20.650000
 31
0.0
  0
ARC
  8
Resist-A
 10
36.725000
 20
20.650000
 30
0.0
 40
0.050000
 50
90.000000
 51
180.000000
  0
LINE
  8
Resist-A
 10
36.725000
 20
20.700000
 30
0.0
 11
37.225000
 21
20.700000
 31
0.0
  0
ARC
  8
Resist-A
 10
37.225000
 20
20.650000
 30
0.0
 40
0.050000
 50
0.000000
 51
90.000000
  0
LINE
  8
Resist-A
 10
37.275000
 20
20.650000
 30
0.0
 11
37.275000
 21
20.425000
 31
0.0
  0
ARC
  8
Resist-A
 10
36.725000
 20
20.950000
 30
0.0
 40
0.050000
 50
180.000000
 51
-90.000000
  0
LINE
  8
Resist-A
 10
36.675000
 20
20.950000
 30
0.0
 11
36.675000
 21
21.175000
 31
0.0
  0
ARC
  8
Resist-A
 10
36.975000
 20
21.175000
 30
0.0
 40
0.300000
 50
0.000000
 51
180.000000
  0
LINE
  8
Resist-A
 10
37.275000
 20
21.175000
 30
0.0
 11
37.275000
 21
20.950000
 31
0.0
  0
ARC
  8
Resist-A
 10
37.225000
 20
20.950000
 30
0.0
 40
0.050000
 50
-90.000000
 51
0.000000
  0
LINE
  8
Resist-A
 10
37.225000
 20
20.900000
 30
0.0
 11
36.725000
 21
20.900000
 31
0.0
  0
CIRCLE
  8
HOLE
 10
25.225000
 20
14.875000
 30
0.0
 40
0.100000
  0
CIRCLE
  8
LAY1
 10
25.225000
 20
14.875000
 30
0.0
 40
0.200000
  0
CIRCLE
  8
LAY2
 10
25.225000
 20
14.875000
 30
0.0
 40
0.200000
  0
CIRCLE
  8
LAY3
 10
25.225000
 20
14.875000
 30
0.0
 40
0.200000
  0
CIRCLE
  8
LAY4
 10
25.225000
 20
14.875000
 30
0.0
 40
0.200000
  0
CIRCLE
  8
LAY5
 10
25.225000
 20
14.875000
 30
0.0
 40
0.200000
  0
CIRCLE
  8
LAY6
 10
25.225000
 20
14.875000
 30
0.0
 40
0.200000
  0
CIRCLE
  8
HOLE
 10
35.325000
 20
15.200000
 30
0.0
 40
0.100000
  0
CIRCLE
  8
LAY1
 10
35.325000
 20
15.200000
 30
0.0
 40
0.200000
  0
CIRCLE
  8
LAY2
 10
35.325000
 20
15.200000
 30
0.0
 40
0.200000
  0
CIRCLE
  8
LAY3
 10
35.325000
 20
15.200000
 30
0.0
 40
0.200000
  0
CIRCLE
  8
LAY4
 10
35.325000
 20
15.200000
 30
0.0
 40
0.200000
  0
CIRCLE
  8
LAY5
 10
35.325000
 20
15.200000
 30
0.0
 40
0.200000
  0
CIRCLE
  8
LAY6
 10
35.325000
 20
15.200000
 30
0.0
 40
0.200000
  0
CIRCLE
  8
HOLE
 10
37.125000
 20
15.200000
 30
0.0
 40
0.100000
  0
CIRCLE
  8
LAY1
 10
37.125000
 20
15.200000
 30
0.0
 40
0.200000
  0
CIRCLE
  8
LAY2
 10
37.125000
 20
15.200000
 30
0.0
 40
0.200000
  0
CIRCLE
  8
LAY3
 10
37.125000
 20
15.200000
 30
0.0
 40
0.200000
  0
CIRCLE
  8
LAY4
 10
37.125000
 20
15.200000
 30
0.0
 40
0.200000
  0
CIRCLE
  8
LAY5
 10
37.125000
 20
15.200000
 30
0.0
 40
0.200000
  0
CIRCLE
  8
LAY6
 10
37.125000
 20
15.200000
 30
0.0
 40
0.200000
  0
CIRCLE
  8
HOLE
 10
38.925000
 20
15.200000
 30
0.0
 40
0.100000
  0
CIRCLE
  8
LAY1
 10
38.925000
 20
15.200000
 30
0.0
 40
0.200000
  0
CIRCLE
  8
LAY2
 10
38.925000
 20
15.200000
 30
0.0
 40
0.200000
  0
CIRCLE
  8
LAY3
 10
38.925000
 20
15.200000
 30
0.0
 40
0.200000
  0
CIRCLE
  8
LAY4
 10
38.925000
 20
15.200000
 30
0.0
 40
0.200000
  0
CIRCLE
  8
LAY5
 10
38.925000
 20
15.200000
 30
0.0
 40
0.200000
  0
CIRCLE
  8
LAY6
 10
38.925000
 20
15.200000
 30
0.0
 40
0.200000
  0
CIRCLE
  8
HOLE
 10
28.725000
 20
17.950000
 30
0.0
 40
0.100000
  0
CIRCLE
  8
LAY1
 10
28.725000
 20
17.950000
 30
0.0
 40
0.200000
  0
CIRCLE
  8
LAY2
 10
28.725000
 20
17.950000
 30
0.0
 40
0.200000
  0
CIRCLE
  8
LAY3
 10
28.725000
 20
17.950000
 30
0.0
 40
0.200000
  0
CIRCLE
  8
LAY4
 10
28.725000
 20
17.950000
 30
0.0
 40
0.200000
  0
CIRCLE
  8
LAY5
 10
28.725000
 20
17.950000
 30
0.0
 40
0.200000
  0
CIRCLE
  8
LAY6
 10
28.725000
 20
17.950000
 30
0.0
 40
0.200000
  0
CIRCLE
  8
HOLE
 10
28.125000
 20
17.950000
 30
0.0
 40
0.100000
  0
CIRCLE
  8
LAY1
 10
28.125000
 20
17.950000
 30
0.0
 40
0.200000
  0
CIRCLE
  8
LAY2
 10
28.125000
 20
17.950000
 30
0.0
 40
0.200000
  0
CIRCLE
  8
LAY3
 10
28.125000
 20
17.950000
 30
0.0
 40
0.200000
  0
CIRCLE
  8
LAY4
 10
28.125000
 20
17.950000
 30
0.0
 40
0.200000
  0
CIRCLE
  8
LAY5
 10
28.125000
 20
17.950000
 30
0.0
 40
0.200000
  0
CIRCLE
  8
LAY6
 10
28.125000
 20
17.950000
 30
0.0
 40
0.200000
  0
CIRCLE
  8
HOLE
 10
26.075000
 20
17.950000
 30
0.0
 40
0.100000
  0
CIRCLE
  8
LAY1
 10
26.075000
 20
17.950000
 30
0.0
 40
0.200000
  0
CIRCLE
  8
LAY2
 10
26.075000
 20
17.950000
 30
0.0
 40
0.200000
  0
CIRCLE
  8
LAY3
 10
26.075000
 20
17.950000
 30
0.0
 40
0.200000
  0
CIRCLE
  8
LAY4
 10
26.075000
 20
17.950000
 30
0.0
 40
0.200000
  0
CIRCLE
  8
LAY5
 10
26.075000
 20
17.950000
 30
0.0
 40
0.200000
  0
CIRCLE
  8
LAY6
 10
26.075000
 20
17.950000
 30
0.0
 40
0.200000
  0
CIRCLE
  8
HOLE
 10
26.825000
 20
17.950000
 30
0.0
 40
0.100000
  0
CIRCLE
  8
LAY1
 10
26.825000
 20
17.950000
 30
0.0
 40
0.200000
  0
CIRCLE
  8
LAY2
 10
26.825000
 20
17.950000
 30
0.0
 40
0.200000
  0
CIRCLE
  8
LAY3
 10
26.825000
 20
17.950000
 30
0.0
 40
0.200000
  0
CIRCLE
  8
LAY4
 10
26.825000
 20
17.950000
 30
0.0
 40
0.200000
  0
CIRCLE
  8
LAY5
 10
26.825000
 20
17.950000
 30
0.0
 40
0.200000
  0
CIRCLE
  8
LAY6
 10
26.825000
 20
17.950000
 30
0.0
 40
0.200000
  0
CIRCLE
  8
HOLE
 10
27.500000
 20
17.950000
 30
0.0
 40
0.100000
  0
CIRCLE
  8
LAY1
 10
27.500000
 20
17.950000
 30
0.0
 40
0.200000
  0
CIRCLE
  8
LAY2
 10
27.500000
 20
17.950000
 30
0.0
 40
0.200000
  0
CIRCLE
  8
LAY3
 10
27.500000
 20
17.950000
 30
0.0
 40
0.200000
  0
CIRCLE
  8
LAY4
 10
27.500000
 20
17.950000
 30
0.0
 40
0.200000
  0
CIRCLE
  8
LAY5
 10
27.500000
 20
17.950000
 30
0.0
 40
0.200000
  0
CIRCLE
  8
LAY6
 10
27.500000
 20
17.950000
 30
0.0
 40
0.200000
  0
CIRCLE
  8
HOLE
 10
27.825000
 20
15.200000
 30
0.0
 40
0.100000
  0
CIRCLE
  8
LAY1
 10
27.825000
 20
15.200000
 30
0.0
 40
0.200000
  0
CIRCLE
  8
LAY2
 10
27.825000
 20
15.200000
 30
0.0
 40
0.200000
  0
CIRCLE
  8
LAY3
 10
27.825000
 20
15.200000
 30
0.0
 40
0.200000
  0
CIRCLE
  8
LAY4
 10
27.825000
 20
15.200000
 30
0.0
 40
0.200000
  0
CIRCLE
  8
LAY5
 10
27.825000
 20
15.200000
 30
0.0
 40
0.200000
  0
CIRCLE
  8
LAY6
 10
27.825000
 20
15.200000
 30
0.0
 40
0.200000
  0
CIRCLE
  8
HOLE
 10
25.225000
 20
15.550000
 30
0.0
 40
0.100000
  0
CIRCLE
  8
LAY1
 10
25.225000
 20
15.550000
 30
0.0
 40
0.200000
  0
CIRCLE
  8
LAY2
 10
25.225000
 20
15.550000
 30
0.0
 40
0.200000
  0
CIRCLE
  8
LAY3
 10
25.225000
 20
15.550000
 30
0.0
 40
0.200000
  0
CIRCLE
  8
LAY4
 10
25.225000
 20
15.550000
 30
0.0
 40
0.200000
  0
CIRCLE
  8
LAY5
 10
25.225000
 20
15.550000
 30
0.0
 40
0.200000
  0
CIRCLE
  8
LAY6
 10
25.225000
 20
15.550000
 30
0.0
 40
0.200000
  0
CIRCLE
  8
HOLE
 10
33.000000
 20
10.850000
 30
0.0
 40
0.100000
  0
CIRCLE
  8
LAY1
 10
33.000000
 20
10.850000
 30
0.0
 40
0.200000
  0
CIRCLE
  8
LAY2
 10
33.000000
 20
10.850000
 30
0.0
 40
0.200000
  0
CIRCLE
  8
LAY3
 10
33.000000
 20
10.850000
 30
0.0
 40
0.200000
  0
CIRCLE
  8
LAY4
 10
33.000000
 20
10.850000
 30
0.0
 40
0.200000
  0
CIRCLE
  8
LAY5
 10
33.000000
 20
10.850000
 30
0.0
 40
0.200000
  0
CIRCLE
  8
LAY6
 10
33.000000
 20
10.850000
 30
0.0
 40
0.200000
  0
CIRCLE
  8
HOLE
 10
33.000000
 20
12.850000
 30
0.0
 40
0.100000
  0
CIRCLE
  8
LAY1
 10
33.000000
 20
12.850000
 30
0.0
 40
0.200000
  0
CIRCLE
  8
LAY2
 10
33.000000
 20
12.850000
 30
0.0
 40
0.200000
  0
CIRCLE
  8
LAY3
 10
33.000000
 20
12.850000
 30
0.0
 40
0.200000
  0
CIRCLE
  8
LAY4
 10
33.000000
 20
12.850000
 30
0.0
 40
0.200000
  0
CIRCLE
  8
LAY5
 10
33.000000
 20
12.850000
 30
0.0
 40
0.200000
  0
CIRCLE
  8
LAY6
 10
33.000000
 20
12.850000
 30
0.0
 40
0.200000
  0
CIRCLE
  8
HOLE
 10
31.000000
 20
12.850000
 30
0.0
 40
0.100000
  0
CIRCLE
  8
LAY1
 10
31.000000
 20
12.850000
 30
0.0
 40
0.200000
  0
CIRCLE
  8
LAY2
 10
31.000000
 20
12.850000
 30
0.0
 40
0.200000
  0
CIRCLE
  8
LAY3
 10
31.000000
 20
12.850000
 30
0.0
 40
0.200000
  0
CIRCLE
  8
LAY4
 10
31.000000
 20
12.850000
 30
0.0
 40
0.200000
  0
CIRCLE
  8
LAY5
 10
31.000000
 20
12.850000
 30
0.0
 40
0.200000
  0
CIRCLE
  8
LAY6
 10
31.000000
 20
12.850000
 30
0.0
 40
0.200000
  0
CIRCLE
  8
HOLE
 10
31.000000
 20
10.850000
 30
0.0
 40
0.100000
  0
CIRCLE
  8
LAY1
 10
31.000000
 20
10.850000
 30
0.0
 40
0.200000
  0
CIRCLE
  8
LAY2
 10
31.000000
 20
10.850000
 30
0.0
 40
0.200000
  0
CIRCLE
  8
LAY3
 10
31.000000
 20
10.850000
 30
0.0
 40
0.200000
  0
CIRCLE
  8
LAY4
 10
31.000000
 20
10.850000
 30
0.0
 40
0.200000
  0
CIRCLE
  8
LAY5
 10
31.000000
 20
10.850000
 30
0.0
 40
0.200000
  0
CIRCLE
  8
LAY6
 10
31.000000
 20
10.850000
 30
0.0
 40
0.200000
  0
CIRCLE
  8
HOLE
 10
31.000000
 20
22.850000
 30
0.0
 40
0.100000
  0
CIRCLE
  8
LAY1
 10
31.000000
 20
22.850000
 30
0.0
 40
0.200000
  0
CIRCLE
  8
LAY2
 10
31.000000
 20
22.850000
 30
0.0
 40
0.200000
  0
CIRCLE
  8
LAY3
 10
31.000000
 20
22.850000
 30
0.0
 40
0.200000
  0
CIRCLE
  8
LAY4
 10
31.000000
 20
22.850000
 30
0.0
 40
0.200000
  0
CIRCLE
  8
LAY5
 10
31.000000
 20
22.850000
 30
0.0
 40
0.200000
  0
CIRCLE
  8
LAY6
 10
31.000000
 20
22.850000
 30
0.0
 40
0.200000
  0
CIRCLE
  8
HOLE
 10
29.000000
 20
22.850000
 30
0.0
 40
0.100000
  0
CIRCLE
  8
LAY1
 10
29.000000
 20
22.850000
 30
0.0
 40
0.200000
  0
CIRCLE
  8
LAY2
 10
29.000000
 20
22.850000
 30
0.0
 40
0.200000
  0
CIRCLE
  8
LAY3
 10
29.000000
 20
22.850000
 30
0.0
 40
0.200000
  0
CIRCLE
  8
LAY4
 10
29.000000
 20
22.850000
 30
0.0
 40
0.200000
  0
CIRCLE
  8
LAY5
 10
29.000000
 20
22.850000
 30
0.0
 40
0.200000
  0
CIRCLE
  8
LAY6
 10
29.000000
 20
22.850000
 30
0.0
 40
0.200000
  0
CIRCLE
  8
HOLE
 10
29.000000
 20
20.850000
 30
0.0
 40
0.100000
  0
CIRCLE
  8
LAY1
 10
29.000000
 20
20.850000
 30
0.0
 40
0.200000
  0
CIRCLE
  8
LAY2
 10
29.000000
 20
20.850000
 30
0.0
 40
0.200000
  0
CIRCLE
  8
LAY3
 10
29.000000
 20
20.850000
 30
0.0
 40
0.200000
  0
CIRCLE
  8
LAY4
 10
29.000000
 20
20.850000
 30
0.0
 40
0.200000
  0
CIRCLE
  8
LAY5
 10
29.000000
 20
20.850000
 30
0.0
 40
0.200000
  0
CIRCLE
  8
LAY6
 10
29.000000
 20
20.850000
 30
0.0
 40
0.200000
  0
CIRCLE
  8
HOLE
 10
27.000000
 20
20.850000
 30
0.0
 40
0.100000
  0
CIRCLE
  8
LAY1
 10
27.000000
 20
20.850000
 30
0.0
 40
0.200000
  0
CIRCLE
  8
LAY2
 10
27.000000
 20
20.850000
 30
0.0
 40
0.200000
  0
CIRCLE
  8
LAY3
 10
27.000000
 20
20.850000
 30
0.0
 40
0.200000
  0
CIRCLE
  8
LAY4
 10
27.000000
 20
20.850000
 30
0.0
 40
0.200000
  0
CIRCLE
  8
LAY5
 10
27.000000
 20
20.850000
 30
0.0
 40
0.200000
  0
CIRCLE
  8
LAY6
 10
27.000000
 20
20.850000
 30
0.0
 40
0.200000
  0
CIRCLE
  8
HOLE
 10
27.000000
 20
22.850000
 30
0.0
 40
0.100000
  0
CIRCLE
  8
LAY1
 10
27.000000
 20
22.850000
 30
0.0
 40
0.200000
  0
CIRCLE
  8
LAY2
 10
27.000000
 20
22.850000
 30
0.0
 40
0.200000
  0
CIRCLE
  8
LAY3
 10
27.000000
 20
22.850000
 30
0.0
 40
0.200000
  0
CIRCLE
  8
LAY4
 10
27.000000
 20
22.850000
 30
0.0
 40
0.200000
  0
CIRCLE
  8
LAY5
 10
27.000000
 20
22.850000
 30
0.0
 40
0.200000
  0
CIRCLE
  8
LAY6
 10
27.000000
 20
22.850000
 30
0.0
 40
0.200000
  0
CIRCLE
  8
HOLE
 10
30.525000
 20
18.950000
 30
0.0
 40
0.100000
  0
CIRCLE
  8
LAY1
 10
30.525000
 20
18.950000
 30
0.0
 40
0.200000
  0
CIRCLE
  8
LAY2
 10
30.525000
 20
18.950000
 30
0.0
 40
0.200000
  0
CIRCLE
  8
LAY3
 10
30.525000
 20
18.950000
 30
0.0
 40
0.200000
  0
CIRCLE
  8
LAY4
 10
30.525000
 20
18.950000
 30
0.0
 40
0.200000
  0
CIRCLE
  8
LAY5
 10
30.525000
 20
18.950000
 30
0.0
 40
0.200000
  0
CIRCLE
  8
LAY6
 10
30.525000
 20
18.950000
 30
0.0
 40
0.200000
  0
CIRCLE
  8
HOLE
 10
26.925000
 20
18.950000
 30
0.0
 40
0.100000
  0
CIRCLE
  8
LAY1
 10
26.925000
 20
18.950000
 30
0.0
 40
0.200000
  0
CIRCLE
  8
LAY2
 10
26.925000
 20
18.950000
 30
0.0
 40
0.200000
  0
CIRCLE
  8
LAY3
 10
26.925000
 20
18.950000
 30
0.0
 40
0.200000
  0
CIRCLE
  8
LAY4
 10
26.925000
 20
18.950000
 30
0.0
 40
0.200000
  0
CIRCLE
  8
LAY5
 10
26.925000
 20
18.950000
 30
0.0
 40
0.200000
  0
CIRCLE
  8
LAY6
 10
26.925000
 20
18.950000
 30
0.0
 40
0.200000
  0
CIRCLE
  8
HOLE
 10
27.525000
 20
18.950000
 30
0.0
 40
0.100000
  0
CIRCLE
  8
LAY1
 10
27.525000
 20
18.950000
 30
0.0
 40
0.200000
  0
CIRCLE
  8
LAY2
 10
27.525000
 20
18.950000
 30
0.0
 40
0.200000
  0
CIRCLE
  8
LAY3
 10
27.525000
 20
18.950000
 30
0.0
 40
0.200000
  0
CIRCLE
  8
LAY4
 10
27.525000
 20
18.950000
 30
0.0
 40
0.200000
  0
CIRCLE
  8
LAY5
 10
27.525000
 20
18.950000
 30
0.0
 40
0.200000
  0
CIRCLE
  8
LAY6
 10
27.525000
 20
18.950000
 30
0.0
 40
0.200000
  0
CIRCLE
  8
HOLE
 10
28.125000
 20
18.950000
 30
0.0
 40
0.100000
  0
CIRCLE
  8
LAY1
 10
28.125000
 20
18.950000
 30
0.0
 40
0.200000
  0
CIRCLE
  8
LAY2
 10
28.125000
 20
18.950000
 30
0.0
 40
0.200000
  0
CIRCLE
  8
LAY3
 10
28.125000
 20
18.950000
 30
0.0
 40
0.200000
  0
CIRCLE
  8
LAY4
 10
28.125000
 20
18.950000
 30
0.0
 40
0.200000
  0
CIRCLE
  8
LAY5
 10
28.125000
 20
18.950000
 30
0.0
 40
0.200000
  0
CIRCLE
  8
LAY6
 10
28.125000
 20
18.950000
 30
0.0
 40
0.200000
  0
CIRCLE
  8
HOLE
 10
28.725000
 20
18.950000
 30
0.0
 40
0.100000
  0
CIRCLE
  8
LAY1
 10
28.725000
 20
18.950000
 30
0.0
 40
0.200000
  0
CIRCLE
  8
LAY2
 10
28.725000
 20
18.950000
 30
0.0
 40
0.200000
  0
CIRCLE
  8
LAY3
 10
28.725000
 20
18.950000
 30
0.0
 40
0.200000
  0
CIRCLE
  8
LAY4
 10
28.725000
 20
18.950000
 30
0.0
 40
0.200000
  0
CIRCLE
  8
LAY5
 10
28.725000
 20
18.950000
 30
0.0
 40
0.200000
  0
CIRCLE
  8
LAY6
 10
28.725000
 20
18.950000
 30
0.0
 40
0.200000
  0
CIRCLE
  8
HOLE
 10
29.325000
 20
18.950000
 30
0.0
 40
0.100000
  0
CIRCLE
  8
LAY1
 10
29.325000
 20
18.950000
 30
0.0
 40
0.200000
  0
CIRCLE
  8
LAY2
 10
29.325000
 20
18.950000
 30
0.0
 40
0.200000
  0
CIRCLE
  8
LAY3
 10
29.325000
 20
18.950000
 30
0.0
 40
0.200000
  0
CIRCLE
  8
LAY4
 10
29.325000
 20
18.950000
 30
0.0
 40
0.200000
  0
CIRCLE
  8
LAY5
 10
29.325000
 20
18.950000
 30
0.0
 40
0.200000
  0
CIRCLE
  8
LAY6
 10
29.325000
 20
18.950000
 30
0.0
 40
0.200000
  0
CIRCLE
  8
HOLE
 10
29.925000
 20
18.950000
 30
0.0
 40
0.100000
  0
CIRCLE
  8
LAY1
 10
29.925000
 20
18.950000
 30
0.0
 40
0.200000
  0
CIRCLE
  8
LAY2
 10
29.925000
 20
18.950000
 30
0.0
 40
0.200000
  0
CIRCLE
  8
LAY3
 10
29.925000
 20
18.950000
 30
0.0
 40
0.200000
  0
CIRCLE
  8
LAY4
 10
29.925000
 20
18.950000
 30
0.0
 40
0.200000
  0
CIRCLE
  8
LAY5
 10
29.925000
 20
18.950000
 30
0.0
 40
0.200000
  0
CIRCLE
  8
LAY6
 10
29.925000
 20
18.950000
 30
0.0
 40
0.200000
  0
CIRCLE
  8
HOLE
 10
26.325000
 20
18.950000
 30
0.0
 40
0.100000
  0
CIRCLE
  8
LAY1
 10
26.325000
 20
18.950000
 30
0.0
 40
0.200000
  0
CIRCLE
  8
LAY2
 10
26.325000
 20
18.950000
 30
0.0
 40
0.200000
  0
CIRCLE
  8
LAY3
 10
26.325000
 20
18.950000
 30
0.0
 40
0.200000
  0
CIRCLE
  8
LAY4
 10
26.325000
 20
18.950000
 30
0.0
 40
0.200000
  0
CIRCLE
  8
LAY5
 10
26.325000
 20
18.950000
 30
0.0
 40
0.200000
  0
CIRCLE
  8
LAY6
 10
26.325000
 20
18.950000
 30
0.0
 40
0.200000
  0
CIRCLE
  8
HOLE
 10
25.000000
 20
22.850000
 30
0.0
 40
0.100000
  0
CIRCLE
  8
LAY1
 10
25.000000
 20
22.850000
 30
0.0
 40
0.200000
  0
CIRCLE
  8
LAY2
 10
25.000000
 20
22.850000
 30
0.0
 40
0.200000
  0
CIRCLE
  8
LAY3
 10
25.000000
 20
22.850000
 30
0.0
 40
0.200000
  0
CIRCLE
  8
LAY4
 10
25.000000
 20
22.850000
 30
0.0
 40
0.200000
  0
CIRCLE
  8
LAY5
 10
25.000000
 20
22.850000
 30
0.0
 40
0.200000
  0
CIRCLE
  8
LAY6
 10
25.000000
 20
22.850000
 30
0.0
 40
0.200000
  0
CIRCLE
  8
HOLE
 10
25.400000
 20
18.000000
 30
0.0
 40
0.100000
  0
CIRCLE
  8
LAY1
 10
25.400000
 20
18.000000
 30
0.0
 40
0.200000
  0
CIRCLE
  8
LAY2
 10
25.400000
 20
18.000000
 30
0.0
 40
0.200000
  0
CIRCLE
  8
LAY3
 10
25.400000
 20
18.000000
 30
0.0
 40
0.200000
  0
CIRCLE
  8
LAY4
 10
25.400000
 20
18.000000
 30
0.0
 40
0.200000
  0
CIRCLE
  8
LAY5
 10
25.400000
 20
18.000000
 30
0.0
 40
0.200000
  0
CIRCLE
  8
LAY6
 10
25.400000
 20
18.000000
 30
0.0
 40
0.200000
  0
CIRCLE
  8
HOLE
 10
26.550000
 20
15.025000
 30
0.0
 40
0.100000
  0
CIRCLE
  8
LAY1
 10
26.550000
 20
15.025000
 30
0.0
 40
0.200000
  0
CIRCLE
  8
LAY2
 10
26.550000
 20
15.025000
 30
0.0
 40
0.200000
  0
CIRCLE
  8
LAY3
 10
26.550000
 20
15.025000
 30
0.0
 40
0.200000
  0
CIRCLE
  8
LAY4
 10
26.550000
 20
15.025000
 30
0.0
 40
0.200000
  0
CIRCLE
  8
LAY5
 10
26.550000
 20
15.025000
 30
0.0
 40
0.200000
  0
CIRCLE
  8
LAY6
 10
26.550000
 20
15.025000
 30
0.0
 40
0.200000
  0
CIRCLE
  8
HOLE
 10
27.150000
 20
15.200000
 30
0.0
 40
0.100000
  0
CIRCLE
  8
LAY1
 10
27.150000
 20
15.200000
 30
0.0
 40
0.200000
  0
CIRCLE
  8
LAY2
 10
27.150000
 20
15.200000
 30
0.0
 40
0.200000
  0
CIRCLE
  8
LAY3
 10
27.150000
 20
15.200000
 30
0.0
 40
0.200000
  0
CIRCLE
  8
LAY4
 10
27.150000
 20
15.200000
 30
0.0
 40
0.200000
  0
CIRCLE
  8
LAY5
 10
27.150000
 20
15.200000
 30
0.0
 40
0.200000
  0
CIRCLE
  8
LAY6
 10
27.150000
 20
15.200000
 30
0.0
 40
0.200000
  0
CIRCLE
  8
HOLE
 10
25.100000
 20
16.375000
 30
0.0
 40
0.100000
  0
CIRCLE
  8
LAY1
 10
25.100000
 20
16.375000
 30
0.0
 40
0.200000
  0
CIRCLE
  8
LAY2
 10
25.100000
 20
16.375000
 30
0.0
 40
0.200000
  0
CIRCLE
  8
LAY3
 10
25.100000
 20
16.375000
 30
0.0
 40
0.200000
  0
CIRCLE
  8
LAY4
 10
25.100000
 20
16.375000
 30
0.0
 40
0.200000
  0
CIRCLE
  8
LAY5
 10
25.100000
 20
16.375000
 30
0.0
 40
0.200000
  0
CIRCLE
  8
LAY6
 10
25.100000
 20
16.375000
 30
0.0
 40
0.200000
  0
CIRCLE
  8
HOLE
 10
25.000000
 20
20.850000
 30
0.0
 40
0.100000
  0
CIRCLE
  8
LAY1
 10
25.000000
 20
20.850000
 30
0.0
 40
0.200000
  0
CIRCLE
  8
LAY2
 10
25.000000
 20
20.850000
 30
0.0
 40
0.200000
  0
CIRCLE
  8
LAY3
 10
25.000000
 20
20.850000
 30
0.0
 40
0.200000
  0
CIRCLE
  8
LAY4
 10
25.000000
 20
20.850000
 30
0.0
 40
0.200000
  0
CIRCLE
  8
LAY5
 10
25.000000
 20
20.850000
 30
0.0
 40
0.200000
  0
CIRCLE
  8
LAY6
 10
25.000000
 20
20.850000
 30
0.0
 40
0.200000
  0
CIRCLE
  8
HOLE
 10
25.325000
 20
19.425000
 30
0.0
 40
0.100000
  0
CIRCLE
  8
LAY1
 10
25.325000
 20
19.425000
 30
0.0
 40
0.200000
  0
CIRCLE
  8
LAY2
 10
25.325000
 20
19.425000
 30
0.0
 40
0.200000
  0
CIRCLE
  8
LAY3
 10
25.325000
 20
19.425000
 30
0.0
 40
0.200000
  0
CIRCLE
  8
LAY4
 10
25.325000
 20
19.425000
 30
0.0
 40
0.200000
  0
CIRCLE
  8
LAY5
 10
25.325000
 20
19.425000
 30
0.0
 40
0.200000
  0
CIRCLE
  8
LAY6
 10
25.325000
 20
19.425000
 30
0.0
 40
0.200000
  0
CIRCLE
  8
HOLE
 10
25.675000
 20
18.775000
 30
0.0
 40
0.100000
  0
CIRCLE
  8
LAY1
 10
25.675000
 20
18.775000
 30
0.0
 40
0.200000
  0
CIRCLE
  8
LAY2
 10
25.675000
 20
18.775000
 30
0.0
 40
0.200000
  0
CIRCLE
  8
LAY3
 10
25.675000
 20
18.775000
 30
0.0
 40
0.200000
  0
CIRCLE
  8
LAY4
 10
25.675000
 20
18.775000
 30
0.0
 40
0.200000
  0
CIRCLE
  8
LAY5
 10
25.675000
 20
18.775000
 30
0.0
 40
0.200000
  0
CIRCLE
  8
LAY6
 10
25.675000
 20
18.775000
 30
0.0
 40
0.200000
  0
CIRCLE
  8
HOLE
 10
37.075000
 20
18.325000
 30
0.0
 40
0.100000
  0
CIRCLE
  8
LAY1
 10
37.075000
 20
18.325000
 30
0.0
 40
0.200000
  0
CIRCLE
  8
LAY2
 10
37.075000
 20
18.325000
 30
0.0
 40
0.200000
  0
CIRCLE
  8
LAY3
 10
37.075000
 20
18.325000
 30
0.0
 40
0.200000
  0
CIRCLE
  8
LAY4
 10
37.075000
 20
18.325000
 30
0.0
 40
0.200000
  0
CIRCLE
  8
LAY5
 10
37.075000
 20
18.325000
 30
0.0
 40
0.200000
  0
CIRCLE
  8
LAY6
 10
37.075000
 20
18.325000
 30
0.0
 40
0.200000
  0
CIRCLE
  8
HOLE
 10
35.075000
 20
18.325000
 30
0.0
 40
0.100000
  0
CIRCLE
  8
LAY1
 10
35.075000
 20
18.325000
 30
0.0
 40
0.200000
  0
CIRCLE
  8
LAY2
 10
35.075000
 20
18.325000
 30
0.0
 40
0.200000
  0
CIRCLE
  8
LAY3
 10
35.075000
 20
18.325000
 30
0.0
 40
0.200000
  0
CIRCLE
  8
LAY4
 10
35.075000
 20
18.325000
 30
0.0
 40
0.200000
  0
CIRCLE
  8
LAY5
 10
35.075000
 20
18.325000
 30
0.0
 40
0.200000
  0
CIRCLE
  8
LAY6
 10
35.075000
 20
18.325000
 30
0.0
 40
0.200000
  0
CIRCLE
  8
HOLE
 10
35.075000
 20
16.325000
 30
0.0
 40
0.100000
  0
CIRCLE
  8
LAY1
 10
35.075000
 20
16.325000
 30
0.0
 40
0.200000
  0
CIRCLE
  8
LAY2
 10
35.075000
 20
16.325000
 30
0.0
 40
0.200000
  0
CIRCLE
  8
LAY3
 10
35.075000
 20
16.325000
 30
0.0
 40
0.200000
  0
CIRCLE
  8
LAY4
 10
35.075000
 20
16.325000
 30
0.0
 40
0.200000
  0
CIRCLE
  8
LAY5
 10
35.075000
 20
16.325000
 30
0.0
 40
0.200000
  0
CIRCLE
  8
LAY6
 10
35.075000
 20
16.325000
 30
0.0
 40
0.200000
  0
CIRCLE
  8
HOLE
 10
37.075000
 20
16.325000
 30
0.0
 40
0.100000
  0
CIRCLE
  8
LAY1
 10
37.075000
 20
16.325000
 30
0.0
 40
0.200000
  0
CIRCLE
  8
LAY2
 10
37.075000
 20
16.325000
 30
0.0
 40
0.200000
  0
CIRCLE
  8
LAY3
 10
37.075000
 20
16.325000
 30
0.0
 40
0.200000
  0
CIRCLE
  8
LAY4
 10
37.075000
 20
16.325000
 30
0.0
 40
0.200000
  0
CIRCLE
  8
LAY5
 10
37.075000
 20
16.325000
 30
0.0
 40
0.200000
  0
CIRCLE
  8
LAY6
 10
37.075000
 20
16.325000
 30
0.0
 40
0.200000
  0
CIRCLE
  8
HOLE
 10
38.975000
 20
18.250000
 30
0.0
 40
0.100000
  0
CIRCLE
  8
LAY1
 10
38.975000
 20
18.250000
 30
0.0
 40
0.200000
  0
CIRCLE
  8
LAY2
 10
38.975000
 20
18.250000
 30
0.0
 40
0.200000
  0
CIRCLE
  8
LAY3
 10
38.975000
 20
18.250000
 30
0.0
 40
0.200000
  0
CIRCLE
  8
LAY4
 10
38.975000
 20
18.250000
 30
0.0
 40
0.200000
  0
CIRCLE
  8
LAY5
 10
38.975000
 20
18.250000
 30
0.0
 40
0.200000
  0
CIRCLE
  8
LAY6
 10
38.975000
 20
18.250000
 30
0.0
 40
0.200000
  0
CIRCLE
  8
HOLE
 10
38.975000
 20
16.250000
 30
0.0
 40
0.100000
  0
CIRCLE
  8
LAY1
 10
38.975000
 20
16.250000
 30
0.0
 40
0.200000
  0
CIRCLE
  8
LAY2
 10
38.975000
 20
16.250000
 30
0.0
 40
0.200000
  0
CIRCLE
  8
LAY3
 10
38.975000
 20
16.250000
 30
0.0
 40
0.200000
  0
CIRCLE
  8
LAY4
 10
38.975000
 20
16.250000
 30
0.0
 40
0.200000
  0
CIRCLE
  8
LAY5
 10
38.975000
 20
16.250000
 30
0.0
 40
0.200000
  0
CIRCLE
  8
LAY6
 10
38.975000
 20
16.250000
 30
0.0
 40
0.200000
  0
CIRCLE
  8
HOLE
 10
39.025000
 20
12.875000
 30
0.0
 40
0.100000
  0
CIRCLE
  8
LAY1
 10
39.025000
 20
12.875000
 30
0.0
 40
0.200000
  0
CIRCLE
  8
LAY2
 10
39.025000
 20
12.875000
 30
0.0
 40
0.200000
  0
CIRCLE
  8
LAY3
 10
39.025000
 20
12.875000
 30
0.0
 40
0.200000
  0
CIRCLE
  8
LAY4
 10
39.025000
 20
12.875000
 30
0.0
 40
0.200000
  0
CIRCLE
  8
LAY5
 10
39.025000
 20
12.875000
 30
0.0
 40
0.200000
  0
CIRCLE
  8
LAY6
 10
39.025000
 20
12.875000
 30
0.0
 40
0.200000
  0
CIRCLE
  8
HOLE
 10
37.025000
 20
12.875000
 30
0.0
 40
0.100000
  0
CIRCLE
  8
LAY1
 10
37.025000
 20
12.875000
 30
0.0
 40
0.200000
  0
CIRCLE
  8
LAY2
 10
37.025000
 20
12.875000
 30
0.0
 40
0.200000
  0
CIRCLE
  8
LAY3
 10
37.025000
 20
12.875000
 30
0.0
 40
0.200000
  0
CIRCLE
  8
LAY4
 10
37.025000
 20
12.875000
 30
0.0
 40
0.200000
  0
CIRCLE
  8
LAY5
 10
37.025000
 20
12.875000
 30
0.0
 40
0.200000
  0
CIRCLE
  8
LAY6
 10
37.025000
 20
12.875000
 30
0.0
 40
0.200000
  0
CIRCLE
  8
HOLE
 10
35.025000
 20
12.875000
 30
0.0
 40
0.100000
  0
CIRCLE
  8
LAY1
 10
35.025000
 20
12.875000
 30
0.0
 40
0.200000
  0
CIRCLE
  8
LAY2
 10
35.025000
 20
12.875000
 30
0.0
 40
0.200000
  0
CIRCLE
  8
LAY3
 10
35.025000
 20
12.875000
 30
0.0
 40
0.200000
  0
CIRCLE
  8
LAY4
 10
35.025000
 20
12.875000
 30
0.0
 40
0.200000
  0
CIRCLE
  8
LAY5
 10
35.025000
 20
12.875000
 30
0.0
 40
0.200000
  0
CIRCLE
  8
LAY6
 10
35.025000
 20
12.875000
 30
0.0
 40
0.200000
  0
CIRCLE
  8
HOLE
 10
39.025000
 20
10.875000
 30
0.0
 40
0.100000
  0
CIRCLE
  8
LAY1
 10
39.025000
 20
10.875000
 30
0.0
 40
0.200000
  0
CIRCLE
  8
LAY2
 10
39.025000
 20
10.875000
 30
0.0
 40
0.200000
  0
CIRCLE
  8
LAY3
 10
39.025000
 20
10.875000
 30
0.0
 40
0.200000
  0
CIRCLE
  8
LAY4
 10
39.025000
 20
10.875000
 30
0.0
 40
0.200000
  0
CIRCLE
  8
LAY5
 10
39.025000
 20
10.875000
 30
0.0
 40
0.200000
  0
CIRCLE
  8
LAY6
 10
39.025000
 20
10.875000
 30
0.0
 40
0.200000
  0
CIRCLE
  8
HOLE
 10
37.025000
 20
10.875000
 30
0.0
 40
0.100000
  0
CIRCLE
  8
LAY1
 10
37.025000
 20
10.875000
 30
0.0
 40
0.200000
  0
CIRCLE
  8
LAY2
 10
37.025000
 20
10.875000
 30
0.0
 40
0.200000
  0
CIRCLE
  8
LAY3
 10
37.025000
 20
10.875000
 30
0.0
 40
0.200000
  0
CIRCLE
  8
LAY4
 10
37.025000
 20
10.875000
 30
0.0
 40
0.200000
  0
CIRCLE
  8
LAY5
 10
37.025000
 20
10.875000
 30
0.0
 40
0.200000
  0
CIRCLE
  8
LAY6
 10
37.025000
 20
10.875000
 30
0.0
 40
0.200000
  0
CIRCLE
  8
HOLE
 10
35.025000
 20
10.875000
 30
0.0
 40
0.100000
  0
CIRCLE
  8
LAY1
 10
35.025000
 20
10.875000
 30
0.0
 40
0.200000
  0
CIRCLE
  8
LAY2
 10
35.025000
 20
10.875000
 30
0.0
 40
0.200000
  0
CIRCLE
  8
LAY3
 10
35.025000
 20
10.875000
 30
0.0
 40
0.200000
  0
CIRCLE
  8
LAY4
 10
35.025000
 20
10.875000
 30
0.0
 40
0.200000
  0
CIRCLE
  8
LAY5
 10
35.025000
 20
10.875000
 30
0.0
 40
0.200000
  0
CIRCLE
  8
LAY6
 10
35.025000
 20
10.875000
 30
0.0
 40
0.200000
  0
CIRCLE
  8
HOLE
 10
32.325000
 20
14.200000
 30
0.0
 40
0.100000
  0
CIRCLE
  8
LAY1
 10
32.325000
 20
14.200000
 30
0.0
 40
0.200000
  0
CIRCLE
  8
LAY2
 10
32.325000
 20
14.200000
 30
0.0
 40
0.200000
  0
CIRCLE
  8
LAY3
 10
32.325000
 20
14.200000
 30
0.0
 40
0.200000
  0
CIRCLE
  8
LAY4
 10
32.325000
 20
14.200000
 30
0.0
 40
0.200000
  0
CIRCLE
  8
LAY5
 10
32.325000
 20
14.200000
 30
0.0
 40
0.200000
  0
CIRCLE
  8
LAY6
 10
32.325000
 20
14.200000
 30
0.0
 40
0.200000
  0
CIRCLE
  8
HOLE
 10
33.525000
 20
14.200000
 30
0.0
 40
0.100000
  0
CIRCLE
  8
LAY1
 10
33.525000
 20
14.200000
 30
0.0
 40
0.200000
  0
CIRCLE
  8
LAY2
 10
33.525000
 20
14.200000
 30
0.0
 40
0.200000
  0
CIRCLE
  8
LAY3
 10
33.525000
 20
14.200000
 30
0.0
 40
0.200000
  0
CIRCLE
  8
LAY4
 10
33.525000
 20
14.200000
 30
0.0
 40
0.200000
  0
CIRCLE
  8
LAY5
 10
33.525000
 20
14.200000
 30
0.0
 40
0.200000
  0
CIRCLE
  8
LAY6
 10
33.525000
 20
14.200000
 30
0.0
 40
0.200000
  0
CIRCLE
  8
HOLE
 10
35.325000
 20
14.200000
 30
0.0
 40
0.100000
  0
CIRCLE
  8
LAY1
 10
35.325000
 20
14.200000
 30
0.0
 40
0.200000
  0
CIRCLE
  8
LAY2
 10
35.325000
 20
14.200000
 30
0.0
 40
0.200000
  0
CIRCLE
  8
LAY3
 10
35.325000
 20
14.200000
 30
0.0
 40
0.200000
  0
CIRCLE
  8
LAY4
 10
35.325000
 20
14.200000
 30
0.0
 40
0.200000
  0
CIRCLE
  8
LAY5
 10
35.325000
 20
14.200000
 30
0.0
 40
0.200000
  0
CIRCLE
  8
LAY6
 10
35.325000
 20
14.200000
 30
0.0
 40
0.200000
  0
CIRCLE
  8
HOLE
 10
37.125000
 20
14.200000
 30
0.0
 40
0.100000
  0
CIRCLE
  8
LAY1
 10
37.125000
 20
14.200000
 30
0.0
 40
0.200000
  0
CIRCLE
  8
LAY2
 10
37.125000
 20
14.200000
 30
0.0
 40
0.200000
  0
CIRCLE
  8
LAY3
 10
37.125000
 20
14.200000
 30
0.0
 40
0.200000
  0
CIRCLE
  8
LAY4
 10
37.125000
 20
14.200000
 30
0.0
 40
0.200000
  0
CIRCLE
  8
LAY5
 10
37.125000
 20
14.200000
 30
0.0
 40
0.200000
  0
CIRCLE
  8
LAY6
 10
37.125000
 20
14.200000
 30
0.0
 40
0.200000
  0
CIRCLE
  8
HOLE
 10
38.925000
 20
14.200000
 30
0.0
 40
0.100000
  0
CIRCLE
  8
LAY1
 10
38.925000
 20
14.200000
 30
0.0
 40
0.200000
  0
CIRCLE
  8
LAY2
 10
38.925000
 20
14.200000
 30
0.0
 40
0.200000
  0
CIRCLE
  8
LAY3
 10
38.925000
 20
14.200000
 30
0.0
 40
0.200000
  0
CIRCLE
  8
LAY4
 10
38.925000
 20
14.200000
 30
0.0
 40
0.200000
  0
CIRCLE
  8
LAY5
 10
38.925000
 20
14.200000
 30
0.0
 40
0.200000
  0
CIRCLE
  8
LAY6
 10
38.925000
 20
14.200000
 30
0.0
 40
0.200000
  0
CIRCLE
  8
HOLE
 10
30.125000
 20
14.525000
 30
0.0
 40
0.100000
  0
CIRCLE
  8
LAY1
 10
30.125000
 20
14.525000
 30
0.0
 40
0.200000
  0
CIRCLE
  8
LAY2
 10
30.125000
 20
14.525000
 30
0.0
 40
0.200000
  0
CIRCLE
  8
LAY3
 10
30.125000
 20
14.525000
 30
0.0
 40
0.200000
  0
CIRCLE
  8
LAY4
 10
30.125000
 20
14.525000
 30
0.0
 40
0.200000
  0
CIRCLE
  8
LAY5
 10
30.125000
 20
14.525000
 30
0.0
 40
0.200000
  0
CIRCLE
  8
LAY6
 10
30.125000
 20
14.525000
 30
0.0
 40
0.200000
  0
CIRCLE
  8
HOLE
 10
31.300000
 20
14.175000
 30
0.0
 40
0.100000
  0
CIRCLE
  8
LAY1
 10
31.300000
 20
14.175000
 30
0.0
 40
0.200000
  0
CIRCLE
  8
LAY2
 10
31.300000
 20
14.175000
 30
0.0
 40
0.200000
  0
CIRCLE
  8
LAY3
 10
31.300000
 20
14.175000
 30
0.0
 40
0.200000
  0
CIRCLE
  8
LAY4
 10
31.300000
 20
14.175000
 30
0.0
 40
0.200000
  0
CIRCLE
  8
LAY5
 10
31.300000
 20
14.175000
 30
0.0
 40
0.200000
  0
CIRCLE
  8
LAY6
 10
31.300000
 20
14.175000
 30
0.0
 40
0.200000
  0
CIRCLE
  8
HOLE
 10
34.200000
 20
15.225000
 30
0.0
 40
0.100000
  0
CIRCLE
  8
LAY1
 10
34.200000
 20
15.225000
 30
0.0
 40
0.200000
  0
CIRCLE
  8
LAY2
 10
34.200000
 20
15.225000
 30
0.0
 40
0.200000
  0
CIRCLE
  8
LAY3
 10
34.200000
 20
15.225000
 30
0.0
 40
0.200000
  0
CIRCLE
  8
LAY4
 10
34.200000
 20
15.225000
 30
0.0
 40
0.200000
  0
CIRCLE
  8
LAY5
 10
34.200000
 20
15.225000
 30
0.0
 40
0.200000
  0
CIRCLE
  8
LAY6
 10
34.200000
 20
15.225000
 30
0.0
 40
0.200000
  0
CIRCLE
  8
HOLE
 10
31.350000
 20
19.575000
 30
0.0
 40
0.100000
  0
CIRCLE
  8
LAY1
 10
31.350000
 20
19.575000
 30
0.0
 40
0.200000
  0
CIRCLE
  8
LAY2
 10
31.350000
 20
19.575000
 30
0.0
 40
0.200000
  0
CIRCLE
  8
LAY3
 10
31.350000
 20
19.575000
 30
0.0
 40
0.200000
  0
CIRCLE
  8
LAY4
 10
31.350000
 20
19.575000
 30
0.0
 40
0.200000
  0
CIRCLE
  8
LAY5
 10
31.350000
 20
19.575000
 30
0.0
 40
0.200000
  0
CIRCLE
  8
LAY6
 10
31.350000
 20
19.575000
 30
0.0
 40
0.200000
  0
CIRCLE
  8
HOLE
 10
31.400000
 20
18.950000
 30
0.0
 40
0.100000
  0
CIRCLE
  8
LAY1
 10
31.400000
 20
18.950000
 30
0.0
 40
0.200000
  0
CIRCLE
  8
LAY2
 10
31.400000
 20
18.950000
 30
0.0
 40
0.200000
  0
CIRCLE
  8
LAY3
 10
31.400000
 20
18.950000
 30
0.0
 40
0.200000
  0
CIRCLE
  8
LAY4
 10
31.400000
 20
18.950000
 30
0.0
 40
0.200000
  0
CIRCLE
  8
LAY5
 10
31.400000
 20
18.950000
 30
0.0
 40
0.200000
  0
CIRCLE
  8
LAY6
 10
31.400000
 20
18.950000
 30
0.0
 40
0.200000
  0
CIRCLE
  8
HOLE
 10
31.375000
 20
18.325000
 30
0.0
 40
0.100000
  0
CIRCLE
  8
LAY1
 10
31.375000
 20
18.325000
 30
0.0
 40
0.200000
  0
CIRCLE
  8
LAY2
 10
31.375000
 20
18.325000
 30
0.0
 40
0.200000
  0
CIRCLE
  8
LAY3
 10
31.375000
 20
18.325000
 30
0.0
 40
0.200000
  0
CIRCLE
  8
LAY4
 10
31.375000
 20
18.325000
 30
0.0
 40
0.200000
  0
CIRCLE
  8
LAY5
 10
31.375000
 20
18.325000
 30
0.0
 40
0.200000
  0
CIRCLE
  8
LAY6
 10
31.375000
 20
18.325000
 30
0.0
 40
0.200000
  0
CIRCLE
  8
HOLE
 10
31.375000
 20
21.525000
 30
0.0
 40
0.100000
  0
CIRCLE
  8
LAY1
 10
31.375000
 20
21.525000
 30
0.0
 40
0.200000
  0
CIRCLE
  8
LAY2
 10
31.375000
 20
21.525000
 30
0.0
 40
0.200000
  0
CIRCLE
  8
LAY3
 10
31.375000
 20
21.525000
 30
0.0
 40
0.200000
  0
CIRCLE
  8
LAY4
 10
31.375000
 20
21.525000
 30
0.0
 40
0.200000
  0
CIRCLE
  8
LAY5
 10
31.375000
 20
21.525000
 30
0.0
 40
0.200000
  0
CIRCLE
  8
LAY6
 10
31.375000
 20
21.525000
 30
0.0
 40
0.200000
  0
CIRCLE
  8
HOLE
 10
31.375000
 20
20.925000
 30
0.0
 40
0.100000
  0
CIRCLE
  8
LAY1
 10
31.375000
 20
20.925000
 30
0.0
 40
0.200000
  0
CIRCLE
  8
LAY2
 10
31.375000
 20
20.925000
 30
0.0
 40
0.200000
  0
CIRCLE
  8
LAY3
 10
31.375000
 20
20.925000
 30
0.0
 40
0.200000
  0
CIRCLE
  8
LAY4
 10
31.375000
 20
20.925000
 30
0.0
 40
0.200000
  0
CIRCLE
  8
LAY5
 10
31.375000
 20
20.925000
 30
0.0
 40
0.200000
  0
CIRCLE
  8
LAY6
 10
31.375000
 20
20.925000
 30
0.0
 40
0.200000
  0
CIRCLE
  8
HOLE
 10
31.350000
 20
20.225000
 30
0.0
 40
0.100000
  0
CIRCLE
  8
LAY1
 10
31.350000
 20
20.225000
 30
0.0
 40
0.200000
  0
CIRCLE
  8
LAY2
 10
31.350000
 20
20.225000
 30
0.0
 40
0.200000
  0
CIRCLE
  8
LAY3
 10
31.350000
 20
20.225000
 30
0.0
 40
0.200000
  0
CIRCLE
  8
LAY4
 10
31.350000
 20
20.225000
 30
0.0
 40
0.200000
  0
CIRCLE
  8
LAY5
 10
31.350000
 20
20.225000
 30
0.0
 40
0.200000
  0
CIRCLE
  8
LAY6
 10
31.350000
 20
20.225000
 30
0.0
 40
0.200000
  0
CIRCLE
  8
HOLE
 10
31.675000
 20
22.075000
 30
0.0
 40
0.100000
  0
CIRCLE
  8
LAY1
 10
31.675000
 20
22.075000
 30
0.0
 40
0.200000
  0
CIRCLE
  8
LAY2
 10
31.675000
 20
22.075000
 30
0.0
 40
0.200000
  0
CIRCLE
  8
LAY3
 10
31.675000
 20
22.075000
 30
0.0
 40
0.200000
  0
CIRCLE
  8
LAY4
 10
31.675000
 20
22.075000
 30
0.0
 40
0.200000
  0
CIRCLE
  8
LAY5
 10
31.675000
 20
22.075000
 30
0.0
 40
0.200000
  0
CIRCLE
  8
LAY6
 10
31.675000
 20
22.075000
 30
0.0
 40
0.200000
  0
CIRCLE
  8
HOLE
 10
32.175000
 20
22.475000
 30
0.0
 40
0.100000
  0
CIRCLE
  8
LAY1
 10
32.175000
 20
22.475000
 30
0.0
 40
0.200000
  0
CIRCLE
  8
LAY2
 10
32.175000
 20
22.475000
 30
0.0
 40
0.200000
  0
CIRCLE
  8
LAY3
 10
32.175000
 20
22.475000
 30
0.0
 40
0.200000
  0
CIRCLE
  8
LAY4
 10
32.175000
 20
22.475000
 30
0.0
 40
0.200000
  0
CIRCLE
  8
LAY5
 10
32.175000
 20
22.475000
 30
0.0
 40
0.200000
  0
CIRCLE
  8
LAY6
 10
32.175000
 20
22.475000
 30
0.0
 40
0.200000
  0
CIRCLE
  8
HOLE
 10
32.800000
 20
22.625000
 30
0.0
 40
0.100000
  0
CIRCLE
  8
LAY1
 10
32.800000
 20
22.625000
 30
0.0
 40
0.200000
  0
CIRCLE
  8
LAY2
 10
32.800000
 20
22.625000
 30
0.0
 40
0.200000
  0
CIRCLE
  8
LAY3
 10
32.800000
 20
22.625000
 30
0.0
 40
0.200000
  0
CIRCLE
  8
LAY4
 10
32.800000
 20
22.625000
 30
0.0
 40
0.200000
  0
CIRCLE
  8
LAY5
 10
32.800000
 20
22.625000
 30
0.0
 40
0.200000
  0
CIRCLE
  8
LAY6
 10
32.800000
 20
22.625000
 30
0.0
 40
0.200000
  0
CIRCLE
  8
HOLE
 10
37.725000
 20
22.625000
 30
0.0
 40
0.100000
  0
CIRCLE
  8
LAY1
 10
37.725000
 20
22.625000
 30
0.0
 40
0.200000
  0
CIRCLE
  8
LAY2
 10
37.725000
 20
22.625000
 30
0.0
 40
0.200000
  0
CIRCLE
  8
LAY3
 10
37.725000
 20
22.625000
 30
0.0
 40
0.200000
  0
CIRCLE
  8
LAY4
 10
37.725000
 20
22.625000
 30
0.0
 40
0.200000
  0
CIRCLE
  8
LAY5
 10
37.725000
 20
22.625000
 30
0.0
 40
0.200000
  0
CIRCLE
  8
LAY6
 10
37.725000
 20
22.625000
 30
0.0
 40
0.200000
  0
CIRCLE
  8
HOLE
 10
37.125000
 20
22.625000
 30
0.0
 40
0.100000
  0
CIRCLE
  8
LAY1
 10
37.125000
 20
22.625000
 30
0.0
 40
0.200000
  0
CIRCLE
  8
LAY2
 10
37.125000
 20
22.625000
 30
0.0
 40
0.200000
  0
CIRCLE
  8
LAY3
 10
37.125000
 20
22.625000
 30
0.0
 40
0.200000
  0
CIRCLE
  8
LAY4
 10
37.125000
 20
22.625000
 30
0.0
 40
0.200000
  0
CIRCLE
  8
LAY5
 10
37.125000
 20
22.625000
 30
0.0
 40
0.200000
  0
CIRCLE
  8
LAY6
 10
37.125000
 20
22.625000
 30
0.0
 40
0.200000
  0
CIRCLE
  8
HOLE
 10
36.525000
 20
22.625000
 30
0.0
 40
0.100000
  0
CIRCLE
  8
LAY1
 10
36.525000
 20
22.625000
 30
0.0
 40
0.200000
  0
CIRCLE
  8
LAY2
 10
36.525000
 20
22.625000
 30
0.0
 40
0.200000
  0
CIRCLE
  8
LAY3
 10
36.525000
 20
22.625000
 30
0.0
 40
0.200000
  0
CIRCLE
  8
LAY4
 10
36.525000
 20
22.625000
 30
0.0
 40
0.200000
  0
CIRCLE
  8
LAY5
 10
36.525000
 20
22.625000
 30
0.0
 40
0.200000
  0
CIRCLE
  8
LAY6
 10
36.525000
 20
22.625000
 30
0.0
 40
0.200000
  0
CIRCLE
  8
HOLE
 10
35.925000
 20
22.625000
 30
0.0
 40
0.100000
  0
CIRCLE
  8
LAY1
 10
35.925000
 20
22.625000
 30
0.0
 40
0.200000
  0
CIRCLE
  8
LAY2
 10
35.925000
 20
22.625000
 30
0.0
 40
0.200000
  0
CIRCLE
  8
LAY3
 10
35.925000
 20
22.625000
 30
0.0
 40
0.200000
  0
CIRCLE
  8
LAY4
 10
35.925000
 20
22.625000
 30
0.0
 40
0.200000
  0
CIRCLE
  8
LAY5
 10
35.925000
 20
22.625000
 30
0.0
 40
0.200000
  0
CIRCLE
  8
LAY6
 10
35.925000
 20
22.625000
 30
0.0
 40
0.200000
  0
CIRCLE
  8
HOLE
 10
35.325000
 20
22.625000
 30
0.0
 40
0.100000
  0
CIRCLE
  8
LAY1
 10
35.325000
 20
22.625000
 30
0.0
 40
0.200000
  0
CIRCLE
  8
LAY2
 10
35.325000
 20
22.625000
 30
0.0
 40
0.200000
  0
CIRCLE
  8
LAY3
 10
35.325000
 20
22.625000
 30
0.0
 40
0.200000
  0
CIRCLE
  8
LAY4
 10
35.325000
 20
22.625000
 30
0.0
 40
0.200000
  0
CIRCLE
  8
LAY5
 10
35.325000
 20
22.625000
 30
0.0
 40
0.200000
  0
CIRCLE
  8
LAY6
 10
35.325000
 20
22.625000
 30
0.0
 40
0.200000
  0
CIRCLE
  8
HOLE
 10
34.725000
 20
22.625000
 30
0.0
 40
0.100000
  0
CIRCLE
  8
LAY1
 10
34.725000
 20
22.625000
 30
0.0
 40
0.200000
  0
CIRCLE
  8
LAY2
 10
34.725000
 20
22.625000
 30
0.0
 40
0.200000
  0
CIRCLE
  8
LAY3
 10
34.725000
 20
22.625000
 30
0.0
 40
0.200000
  0
CIRCLE
  8
LAY4
 10
34.725000
 20
22.625000
 30
0.0
 40
0.200000
  0
CIRCLE
  8
LAY5
 10
34.725000
 20
22.625000
 30
0.0
 40
0.200000
  0
CIRCLE
  8
LAY6
 10
34.725000
 20
22.625000
 30
0.0
 40
0.200000
  0
CIRCLE
  8
HOLE
 10
34.000000
 20
22.625000
 30
0.0
 40
0.100000
  0
CIRCLE
  8
LAY1
 10
34.000000
 20
22.625000
 30
0.0
 40
0.200000
  0
CIRCLE
  8
LAY2
 10
34.000000
 20
22.625000
 30
0.0
 40
0.200000
  0
CIRCLE
  8
LAY3
 10
34.000000
 20
22.625000
 30
0.0
 40
0.200000
  0
CIRCLE
  8
LAY4
 10
34.000000
 20
22.625000
 30
0.0
 40
0.200000
  0
CIRCLE
  8
LAY5
 10
34.000000
 20
22.625000
 30
0.0
 40
0.200000
  0
CIRCLE
  8
LAY6
 10
34.000000
 20
22.625000
 30
0.0
 40
0.200000
  0
CIRCLE
  8
HOLE
 10
33.400000
 20
22.625000
 30
0.0
 40
0.100000
  0
CIRCLE
  8
LAY1
 10
33.400000
 20
22.625000
 30
0.0
 40
0.200000
  0
CIRCLE
  8
LAY2
 10
33.400000
 20
22.625000
 30
0.0
 40
0.200000
  0
CIRCLE
  8
LAY3
 10
33.400000
 20
22.625000
 30
0.0
 40
0.200000
  0
CIRCLE
  8
LAY4
 10
33.400000
 20
22.625000
 30
0.0
 40
0.200000
  0
CIRCLE
  8
LAY5
 10
33.400000
 20
22.625000
 30
0.0
 40
0.200000
  0
CIRCLE
  8
LAY6
 10
33.400000
 20
22.625000
 30
0.0
 40
0.200000
  0
CIRCLE
  8
HOLE
 10
34.325000
 20
19.800000
 30
0.0
 40
0.100000
  0
CIRCLE
  8
LAY1
 10
34.325000
 20
19.800000
 30
0.0
 40
0.200000
  0
CIRCLE
  8
LAY2
 10
34.325000
 20
19.800000
 30
0.0
 40
0.200000
  0
CIRCLE
  8
LAY3
 10
34.325000
 20
19.800000
 30
0.0
 40
0.200000
  0
CIRCLE
  8
LAY4
 10
34.325000
 20
19.800000
 30
0.0
 40
0.200000
  0
CIRCLE
  8
LAY5
 10
34.325000
 20
19.800000
 30
0.0
 40
0.200000
  0
CIRCLE
  8
LAY6
 10
34.325000
 20
19.800000
 30
0.0
 40
0.200000
  0
CIRCLE
  8
HOLE
 10
38.525000
 20
19.800000
 30
0.0
 40
0.100000
  0
CIRCLE
  8
LAY1
 10
38.525000
 20
19.800000
 30
0.0
 40
0.200000
  0
CIRCLE
  8
LAY2
 10
38.525000
 20
19.800000
 30
0.0
 40
0.200000
  0
CIRCLE
  8
LAY3
 10
38.525000
 20
19.800000
 30
0.0
 40
0.200000
  0
CIRCLE
  8
LAY4
 10
38.525000
 20
19.800000
 30
0.0
 40
0.200000
  0
CIRCLE
  8
LAY5
 10
38.525000
 20
19.800000
 30
0.0
 40
0.200000
  0
CIRCLE
  8
LAY6
 10
38.525000
 20
19.800000
 30
0.0
 40
0.200000
  0
CIRCLE
  8
HOLE
 10
37.925000
 20
19.800000
 30
0.0
 40
0.100000
  0
CIRCLE
  8
LAY1
 10
37.925000
 20
19.800000
 30
0.0
 40
0.200000
  0
CIRCLE
  8
LAY2
 10
37.925000
 20
19.800000
 30
0.0
 40
0.200000
  0
CIRCLE
  8
LAY3
 10
37.925000
 20
19.800000
 30
0.0
 40
0.200000
  0
CIRCLE
  8
LAY4
 10
37.925000
 20
19.800000
 30
0.0
 40
0.200000
  0
CIRCLE
  8
LAY5
 10
37.925000
 20
19.800000
 30
0.0
 40
0.200000
  0
CIRCLE
  8
LAY6
 10
37.925000
 20
19.800000
 30
0.0
 40
0.200000
  0
CIRCLE
  8
HOLE
 10
37.325000
 20
19.800000
 30
0.0
 40
0.100000
  0
CIRCLE
  8
LAY1
 10
37.325000
 20
19.800000
 30
0.0
 40
0.200000
  0
CIRCLE
  8
LAY2
 10
37.325000
 20
19.800000
 30
0.0
 40
0.200000
  0
CIRCLE
  8
LAY3
 10
37.325000
 20
19.800000
 30
0.0
 40
0.200000
  0
CIRCLE
  8
LAY4
 10
37.325000
 20
19.800000
 30
0.0
 40
0.200000
  0
CIRCLE
  8
LAY5
 10
37.325000
 20
19.800000
 30
0.0
 40
0.200000
  0
CIRCLE
  8
LAY6
 10
37.325000
 20
19.800000
 30
0.0
 40
0.200000
  0
CIRCLE
  8
HOLE
 10
36.725000
 20
19.800000
 30
0.0
 40
0.100000
  0
CIRCLE
  8
LAY1
 10
36.725000
 20
19.800000
 30
0.0
 40
0.200000
  0
CIRCLE
  8
LAY2
 10
36.725000
 20
19.800000
 30
0.0
 40
0.200000
  0
CIRCLE
  8
LAY3
 10
36.725000
 20
19.800000
 30
0.0
 40
0.200000
  0
CIRCLE
  8
LAY4
 10
36.725000
 20
19.800000
 30
0.0
 40
0.200000
  0
CIRCLE
  8
LAY5
 10
36.725000
 20
19.800000
 30
0.0
 40
0.200000
  0
CIRCLE
  8
LAY6
 10
36.725000
 20
19.800000
 30
0.0
 40
0.200000
  0
CIRCLE
  8
HOLE
 10
36.125000
 20
19.800000
 30
0.0
 40
0.100000
  0
CIRCLE
  8
LAY1
 10
36.125000
 20
19.800000
 30
0.0
 40
0.200000
  0
CIRCLE
  8
LAY2
 10
36.125000
 20
19.800000
 30
0.0
 40
0.200000
  0
CIRCLE
  8
LAY3
 10
36.125000
 20
19.800000
 30
0.0
 40
0.200000
  0
CIRCLE
  8
LAY4
 10
36.125000
 20
19.800000
 30
0.0
 40
0.200000
  0
CIRCLE
  8
LAY5
 10
36.125000
 20
19.800000
 30
0.0
 40
0.200000
  0
CIRCLE
  8
LAY6
 10
36.125000
 20
19.800000
 30
0.0
 40
0.200000
  0
CIRCLE
  8
HOLE
 10
35.525000
 20
19.800000
 30
0.0
 40
0.100000
  0
CIRCLE
  8
LAY1
 10
35.525000
 20
19.800000
 30
0.0
 40
0.200000
  0
CIRCLE
  8
LAY2
 10
35.525000
 20
19.800000
 30
0.0
 40
0.200000
  0
CIRCLE
  8
LAY3
 10
35.525000
 20
19.800000
 30
0.0
 40
0.200000
  0
CIRCLE
  8
LAY4
 10
35.525000
 20
19.800000
 30
0.0
 40
0.200000
  0
CIRCLE
  8
LAY5
 10
35.525000
 20
19.800000
 30
0.0
 40
0.200000
  0
CIRCLE
  8
LAY6
 10
35.525000
 20
19.800000
 30
0.0
 40
0.200000
  0
CIRCLE
  8
HOLE
 10
34.925000
 20
19.800000
 30
0.0
 40
0.100000
  0
CIRCLE
  8
LAY1
 10
34.925000
 20
19.800000
 30
0.0
 40
0.200000
  0
CIRCLE
  8
LAY2
 10
34.925000
 20
19.800000
 30
0.0
 40
0.200000
  0
CIRCLE
  8
LAY3
 10
34.925000
 20
19.800000
 30
0.0
 40
0.200000
  0
CIRCLE
  8
LAY4
 10
34.925000
 20
19.800000
 30
0.0
 40
0.200000
  0
CIRCLE
  8
LAY5
 10
34.925000
 20
19.800000
 30
0.0
 40
0.200000
  0
CIRCLE
  8
LAY6
 10
34.925000
 20
19.800000
 30
0.0
 40
0.200000
  0
CIRCLE
  8
HOLE
 10
34.200000
 20
19.175000
 30
0.0
 40
0.100000
  0
CIRCLE
  8
LAY1
 10
34.200000
 20
19.175000
 30
0.0
 40
0.200000
  0
CIRCLE
  8
LAY2
 10
34.200000
 20
19.175000
 30
0.0
 40
0.200000
  0
CIRCLE
  8
LAY3
 10
34.200000
 20
19.175000
 30
0.0
 40
0.200000
  0
CIRCLE
  8
LAY4
 10
34.200000
 20
19.175000
 30
0.0
 40
0.200000
  0
CIRCLE
  8
LAY5
 10
34.200000
 20
19.175000
 30
0.0
 40
0.200000
  0
CIRCLE
  8
LAY6
 10
34.200000
 20
19.175000
 30
0.0
 40
0.200000
  0
CIRCLE
  8
HOLE
 10
34.200000
 20
17.950000
 30
0.0
 40
0.100000
  0
CIRCLE
  8
LAY1
 10
34.200000
 20
17.950000
 30
0.0
 40
0.200000
  0
CIRCLE
  8
LAY2
 10
34.200000
 20
17.950000
 30
0.0
 40
0.200000
  0
CIRCLE
  8
LAY3
 10
34.200000
 20
17.950000
 30
0.0
 40
0.200000
  0
CIRCLE
  8
LAY4
 10
34.200000
 20
17.950000
 30
0.0
 40
0.200000
  0
CIRCLE
  8
LAY5
 10
34.200000
 20
17.950000
 30
0.0
 40
0.200000
  0
CIRCLE
  8
LAY6
 10
34.200000
 20
17.950000
 30
0.0
 40
0.200000
  0
CIRCLE
  8
HOLE
 10
34.200000
 20
18.575000
 30
0.0
 40
0.100000
  0
CIRCLE
  8
LAY1
 10
34.200000
 20
18.575000
 30
0.0
 40
0.200000
  0
CIRCLE
  8
LAY2
 10
34.200000
 20
18.575000
 30
0.0
 40
0.200000
  0
CIRCLE
  8
LAY3
 10
34.200000
 20
18.575000
 30
0.0
 40
0.200000
  0
CIRCLE
  8
LAY4
 10
34.200000
 20
18.575000
 30
0.0
 40
0.200000
  0
CIRCLE
  8
LAY5
 10
34.200000
 20
18.575000
 30
0.0
 40
0.200000
  0
CIRCLE
  8
LAY6
 10
34.200000
 20
18.575000
 30
0.0
 40
0.200000
  0
CIRCLE
  8
HOLE
 10
30.225000
 20
20.125000
 30
0.0
 40
0.100000
  0
CIRCLE
  8
LAY1
 10
30.225000
 20
20.125000
 30
0.0
 40
0.200000
  0
CIRCLE
  8
LAY2
 10
30.225000
 20
20.125000
 30
0.0
 40
0.200000
  0
CIRCLE
  8
LAY3
 10
30.225000
 20
20.125000
 30
0.0
 40
0.200000
  0
CIRCLE
  8
LAY4
 10
30.225000
 20
20.125000
 30
0.0
 40
0.200000
  0
CIRCLE
  8
LAY5
 10
30.225000
 20
20.125000
 30
0.0
 40
0.200000
  0
CIRCLE
  8
LAY6
 10
30.225000
 20
20.125000
 30
0.0
 40
0.200000
  0
CIRCLE
  8
HOLE
 10
30.200000
 20
21.875000
 30
0.0
 40
0.100000
  0
CIRCLE
  8
LAY1
 10
30.200000
 20
21.875000
 30
0.0
 40
0.200000
  0
CIRCLE
  8
LAY2
 10
30.200000
 20
21.875000
 30
0.0
 40
0.200000
  0
CIRCLE
  8
LAY3
 10
30.200000
 20
21.875000
 30
0.0
 40
0.200000
  0
CIRCLE
  8
LAY4
 10
30.200000
 20
21.875000
 30
0.0
 40
0.200000
  0
CIRCLE
  8
LAY5
 10
30.200000
 20
21.875000
 30
0.0
 40
0.200000
  0
CIRCLE
  8
LAY6
 10
30.200000
 20
21.875000
 30
0.0
 40
0.200000
  0
CIRCLE
  8
HOLE
 10
29.350000
 20
18.050000
 30
0.0
 40
0.100000
  0
CIRCLE
  8
LAY1
 10
29.350000
 20
18.050000
 30
0.0
 40
0.200000
  0
CIRCLE
  8
LAY2
 10
29.350000
 20
18.050000
 30
0.0
 40
0.200000
  0
CIRCLE
  8
LAY3
 10
29.350000
 20
18.050000
 30
0.0
 40
0.200000
  0
CIRCLE
  8
LAY4
 10
29.350000
 20
18.050000
 30
0.0
 40
0.200000
  0
CIRCLE
  8
LAY5
 10
29.350000
 20
18.050000
 30
0.0
 40
0.200000
  0
CIRCLE
  8
LAY6
 10
29.350000
 20
18.050000
 30
0.0
 40
0.200000
  0
CIRCLE
  8
HOLE
 10
28.725000
 20
15.200000
 30
0.0
 40
0.100000
  0
CIRCLE
  8
LAY1
 10
28.725000
 20
15.200000
 30
0.0
 40
0.200000
  0
CIRCLE
  8
LAY2
 10
28.725000
 20
15.200000
 30
0.0
 40
0.200000
  0
CIRCLE
  8
LAY3
 10
28.725000
 20
15.200000
 30
0.0
 40
0.200000
  0
CIRCLE
  8
LAY4
 10
28.725000
 20
15.200000
 30
0.0
 40
0.200000
  0
CIRCLE
  8
LAY5
 10
28.725000
 20
15.200000
 30
0.0
 40
0.200000
  0
CIRCLE
  8
LAY6
 10
28.725000
 20
15.200000
 30
0.0
 40
0.200000
  0
CIRCLE
  8
HOLE
 10
29.525000
 20
15.100000
 30
0.0
 40
0.100000
  0
CIRCLE
  8
LAY1
 10
29.525000
 20
15.100000
 30
0.0
 40
0.200000
  0
CIRCLE
  8
LAY2
 10
29.525000
 20
15.100000
 30
0.0
 40
0.200000
  0
CIRCLE
  8
LAY3
 10
29.525000
 20
15.100000
 30
0.0
 40
0.200000
  0
CIRCLE
  8
LAY4
 10
29.525000
 20
15.100000
 30
0.0
 40
0.200000
  0
CIRCLE
  8
LAY5
 10
29.525000
 20
15.100000
 30
0.0
 40
0.200000
  0
CIRCLE
  8
LAY6
 10
29.525000
 20
15.100000
 30
0.0
 40
0.200000
  0
CIRCLE
  8
HOLE
 10
30.325000
 20
15.100000
 30
0.0
 40
0.100000
  0
CIRCLE
  8
LAY1
 10
30.325000
 20
15.100000
 30
0.0
 40
0.200000
  0
CIRCLE
  8
LAY2
 10
30.325000
 20
15.100000
 30
0.0
 40
0.200000
  0
CIRCLE
  8
LAY3
 10
30.325000
 20
15.100000
 30
0.0
 40
0.200000
  0
CIRCLE
  8
LAY4
 10
30.325000
 20
15.100000
 30
0.0
 40
0.200000
  0
CIRCLE
  8
LAY5
 10
30.325000
 20
15.100000
 30
0.0
 40
0.200000
  0
CIRCLE
  8
LAY6
 10
30.325000
 20
15.100000
 30
0.0
 40
0.200000
  0
CIRCLE
  8
HOLE
 10
30.975000
 20
15.100000
 30
0.0
 40
0.100000
  0
CIRCLE
  8
LAY1
 10
30.975000
 20
15.100000
 30
0.0
 40
0.200000
  0
CIRCLE
  8
LAY2
 10
30.975000
 20
15.100000
 30
0.0
 40
0.200000
  0
CIRCLE
  8
LAY3
 10
30.975000
 20
15.100000
 30
0.0
 40
0.200000
  0
CIRCLE
  8
LAY4
 10
30.975000
 20
15.100000
 30
0.0
 40
0.200000
  0
CIRCLE
  8
LAY5
 10
30.975000
 20
15.100000
 30
0.0
 40
0.200000
  0
CIRCLE
  8
LAY6
 10
30.975000
 20
15.100000
 30
0.0
 40
0.200000
  0
CIRCLE
  8
HOLE
 10
31.650000
 20
15.125000
 30
0.0
 40
0.100000
  0
CIRCLE
  8
LAY1
 10
31.650000
 20
15.125000
 30
0.0
 40
0.200000
  0
CIRCLE
  8
LAY2
 10
31.650000
 20
15.125000
 30
0.0
 40
0.200000
  0
CIRCLE
  8
LAY3
 10
31.650000
 20
15.125000
 30
0.0
 40
0.200000
  0
CIRCLE
  8
LAY4
 10
31.650000
 20
15.125000
 30
0.0
 40
0.200000
  0
CIRCLE
  8
LAY5
 10
31.650000
 20
15.125000
 30
0.0
 40
0.200000
  0
CIRCLE
  8
LAY6
 10
31.650000
 20
15.125000
 30
0.0
 40
0.200000
  0
CIRCLE
  8
HOLE
 10
32.375000
 20
15.125000
 30
0.0
 40
0.100000
  0
CIRCLE
  8
LAY1
 10
32.375000
 20
15.125000
 30
0.0
 40
0.200000
  0
CIRCLE
  8
LAY2
 10
32.375000
 20
15.125000
 30
0.0
 40
0.200000
  0
CIRCLE
  8
LAY3
 10
32.375000
 20
15.125000
 30
0.0
 40
0.200000
  0
CIRCLE
  8
LAY4
 10
32.375000
 20
15.125000
 30
0.0
 40
0.200000
  0
CIRCLE
  8
LAY5
 10
32.375000
 20
15.125000
 30
0.0
 40
0.200000
  0
CIRCLE
  8
LAY6
 10
32.375000
 20
15.125000
 30
0.0
 40
0.200000
  0
CIRCLE
  8
HOLE
 10
33.125000
 20
15.525000
 30
0.0
 40
0.100000
  0
CIRCLE
  8
LAY1
 10
33.125000
 20
15.525000
 30
0.0
 40
0.200000
  0
CIRCLE
  8
LAY2
 10
33.125000
 20
15.525000
 30
0.0
 40
0.200000
  0
CIRCLE
  8
LAY3
 10
33.125000
 20
15.525000
 30
0.0
 40
0.200000
  0
CIRCLE
  8
LAY4
 10
33.125000
 20
15.525000
 30
0.0
 40
0.200000
  0
CIRCLE
  8
LAY5
 10
33.125000
 20
15.525000
 30
0.0
 40
0.200000
  0
CIRCLE
  8
LAY6
 10
33.125000
 20
15.525000
 30
0.0
 40
0.200000
  0
CIRCLE
  8
HOLE
 10
33.650000
 20
15.950000
 30
0.0
 40
0.100000
  0
CIRCLE
  8
LAY1
 10
33.650000
 20
15.950000
 30
0.0
 40
0.200000
  0
CIRCLE
  8
LAY2
 10
33.650000
 20
15.950000
 30
0.0
 40
0.200000
  0
CIRCLE
  8
LAY3
 10
33.650000
 20
15.950000
 30
0.0
 40
0.200000
  0
CIRCLE
  8
LAY4
 10
33.650000
 20
15.950000
 30
0.0
 40
0.200000
  0
CIRCLE
  8
LAY5
 10
33.650000
 20
15.950000
 30
0.0
 40
0.200000
  0
CIRCLE
  8
LAY6
 10
33.650000
 20
15.950000
 30
0.0
 40
0.200000
  0
CIRCLE
  8
HOLE
 10
34.025000
 20
16.525000
 30
0.0
 40
0.100000
  0
CIRCLE
  8
LAY1
 10
34.025000
 20
16.525000
 30
0.0
 40
0.200000
  0
CIRCLE
  8
LAY2
 10
34.025000
 20
16.525000
 30
0.0
 40
0.200000
  0
CIRCLE
  8
LAY3
 10
34.025000
 20
16.525000
 30
0.0
 40
0.200000
  0
CIRCLE
  8
LAY4
 10
34.025000
 20
16.525000
 30
0.0
 40
0.200000
  0
CIRCLE
  8
LAY5
 10
34.025000
 20
16.525000
 30
0.0
 40
0.200000
  0
CIRCLE
  8
LAY6
 10
34.025000
 20
16.525000
 30
0.0
 40
0.200000
  0
CIRCLE
  8
HOLE
 10
34.200000
 20
17.250000
 30
0.0
 40
0.100000
  0
CIRCLE
  8
LAY1
 10
34.200000
 20
17.250000
 30
0.0
 40
0.200000
  0
CIRCLE
  8
LAY2
 10
34.200000
 20
17.250000
 30
0.0
 40
0.200000
  0
CIRCLE
  8
LAY3
 10
34.200000
 20
17.250000
 30
0.0
 40
0.200000
  0
CIRCLE
  8
LAY4
 10
34.200000
 20
17.250000
 30
0.0
 40
0.200000
  0
CIRCLE
  8
LAY5
 10
34.200000
 20
17.250000
 30
0.0
 40
0.200000
  0
CIRCLE
  8
LAY6
 10
34.200000
 20
17.250000
 30
0.0
 40
0.200000
  0
CIRCLE
  8
HOLE
 10
30.025000
 20
18.050000
 30
0.0
 40
0.100000
  0
CIRCLE
  8
LAY1
 10
30.025000
 20
18.050000
 30
0.0
 40
0.200000
  0
CIRCLE
  8
LAY2
 10
30.025000
 20
18.050000
 30
0.0
 40
0.200000
  0
CIRCLE
  8
LAY3
 10
30.025000
 20
18.050000
 30
0.0
 40
0.200000
  0
CIRCLE
  8
LAY4
 10
30.025000
 20
18.050000
 30
0.0
 40
0.200000
  0
CIRCLE
  8
LAY5
 10
30.025000
 20
18.050000
 30
0.0
 40
0.200000
  0
CIRCLE
  8
LAY6
 10
30.025000
 20
18.050000
 30
0.0
 40
0.200000
  0
CIRCLE
  8
HOLE
 10
30.725000
 20
18.050000
 30
0.0
 40
0.100000
  0
CIRCLE
  8
LAY1
 10
30.725000
 20
18.050000
 30
0.0
 40
0.200000
  0
CIRCLE
  8
LAY2
 10
30.725000
 20
18.050000
 30
0.0
 40
0.200000
  0
CIRCLE
  8
LAY3
 10
30.725000
 20
18.050000
 30
0.0
 40
0.200000
  0
CIRCLE
  8
LAY4
 10
30.725000
 20
18.050000
 30
0.0
 40
0.200000
  0
CIRCLE
  8
LAY5
 10
30.725000
 20
18.050000
 30
0.0
 40
0.200000
  0
CIRCLE
  8
LAY6
 10
30.725000
 20
18.050000
 30
0.0
 40
0.200000
  0
CIRCLE
  8
HOLE
 10
39.775000
 20
22.625000
 30
0.0
 40
0.100000
  0
CIRCLE
  8
LAY1
 10
39.775000
 20
22.625000
 30
0.0
 40
0.200000
  0
CIRCLE
  8
LAY2
 10
39.775000
 20
22.625000
 30
0.0
 40
0.200000
  0
CIRCLE
  8
LAY3
 10
39.775000
 20
22.625000
 30
0.0
 40
0.200000
  0
CIRCLE
  8
LAY4
 10
39.775000
 20
22.625000
 30
0.0
 40
0.200000
  0
CIRCLE
  8
LAY5
 10
39.775000
 20
22.625000
 30
0.0
 40
0.200000
  0
CIRCLE
  8
LAY6
 10
39.775000
 20
22.625000
 30
0.0
 40
0.200000
  0
CIRCLE
  8
HOLE
 10
39.775000
 20
19.800000
 30
0.0
 40
0.100000
  0
CIRCLE
  8
LAY1
 10
39.775000
 20
19.800000
 30
0.0
 40
0.200000
  0
CIRCLE
  8
LAY2
 10
39.775000
 20
19.800000
 30
0.0
 40
0.200000
  0
CIRCLE
  8
LAY3
 10
39.775000
 20
19.800000
 30
0.0
 40
0.200000
  0
CIRCLE
  8
LAY4
 10
39.775000
 20
19.800000
 30
0.0
 40
0.200000
  0
CIRCLE
  8
LAY5
 10
39.775000
 20
19.800000
 30
0.0
 40
0.200000
  0
CIRCLE
  8
LAY6
 10
39.775000
 20
19.800000
 30
0.0
 40
0.200000
  0
CIRCLE
  8
HOLE
 10
39.125000
 20
22.625000
 30
0.0
 40
0.100000
  0
CIRCLE
  8
LAY1
 10
39.125000
 20
22.625000
 30
0.0
 40
0.200000
  0
CIRCLE
  8
LAY2
 10
39.125000
 20
22.625000
 30
0.0
 40
0.200000
  0
CIRCLE
  8
LAY3
 10
39.125000
 20
22.625000
 30
0.0
 40
0.200000
  0
CIRCLE
  8
LAY4
 10
39.125000
 20
22.625000
 30
0.0
 40
0.200000
  0
CIRCLE
  8
LAY5
 10
39.125000
 20
22.625000
 30
0.0
 40
0.200000
  0
CIRCLE
  8
LAY6
 10
39.125000
 20
22.625000
 30
0.0
 40
0.200000
  0
CIRCLE
  8
HOLE
 10
38.425000
 20
22.600000
 30
0.0
 40
0.100000
  0
CIRCLE
  8
LAY1
 10
38.425000
 20
22.600000
 30
0.0
 40
0.200000
  0
CIRCLE
  8
LAY2
 10
38.425000
 20
22.600000
 30
0.0
 40
0.200000
  0
CIRCLE
  8
LAY3
 10
38.425000
 20
22.600000
 30
0.0
 40
0.200000
  0
CIRCLE
  8
LAY4
 10
38.425000
 20
22.600000
 30
0.0
 40
0.200000
  0
CIRCLE
  8
LAY5
 10
38.425000
 20
22.600000
 30
0.0
 40
0.200000
  0
CIRCLE
  8
LAY6
 10
38.425000
 20
22.600000
 30
0.0
 40
0.200000
  0
CIRCLE
  8
HOLE
 10
39.150000
 20
19.800000
 30
0.0
 40
0.100000
  0
CIRCLE
  8
LAY1
 10
39.150000
 20
19.800000
 30
0.0
 40
0.200000
  0
CIRCLE
  8
LAY2
 10
39.150000
 20
19.800000
 30
0.0
 40
0.200000
  0
CIRCLE
  8
LAY3
 10
39.150000
 20
19.800000
 30
0.0
 40
0.200000
  0
CIRCLE
  8
LAY4
 10
39.150000
 20
19.800000
 30
0.0
 40
0.200000
  0
CIRCLE
  8
LAY5
 10
39.150000
 20
19.800000
 30
0.0
 40
0.200000
  0
CIRCLE
  8
LAY6
 10
39.150000
 20
19.800000
 30
0.0
 40
0.200000
  0
ENDSEC
  0
EOF
