  0
SECTION
  2
HEADER
  9
$ACADVER
  1
AC1009
  9
$ACADMAINTVER
 70
   0
  9
$DWGCODEPAGE
  3
ANSI_932
  9
$INSBASE
 10
0.0
 20
0.0
 30
0.0
  9
$EXTMIN
 10
0.000000
 20
0.000000
 30
0.0
  9
$EXTMAX
 10
7.650000
 20
7.075000
 30
0.0
  9
$LIMMIN
 10
0.0
 20
0.0
  9
$LIMMAX
 10
12.0
 20
9.0
  9
$ORTHOMODE
 70
	0
  9
$REGENMODE
 70
	1
  9
$FILLMODE
 70
	1
  9
$QTEXTMODE
 70
	0
  9
$MIRRTEXT
 70
	1
  9
$DRAGMODE
 70
	2
  9
$LTSCALE
 40
1.0
  9
$OSMODE
 70
	0
  9
$ATTMODE
 70
	1
  9
$TEXTSIZE
 40
0.2
  9
$TRACEWID
 40
0.05
  9
$TEXTSTYLE
  7
STANDARD
  9
$CLAYER
  8
0
  9
$CELTYPE
  6
BYLAYER
  9
$CECOLOR
 62
	256
  9
$CELTSCALE
 40
1.0
  9
$DELOBJ
 70
	1
  9
$DISPSILH
 70
	0
  9
$LUNITS
 70
	2
  9
$LUPREC
 70
	6
  9
$SKETCHINC
 40
0.1
  9
$FILLETRAD
 40
0.5
  9
$AUNITS
 70
	0
  9
$AUPREC
 70
	6
  9
$MENU
  1
acad
  9
$ELEVATION
 40
0.0
  9
$PELEVATION
 40
0.0
  9
$THICKNESS
 40
0.0
  9
$LIMCHECK
 70
	0
  9
$BLIPMODE
 70
	0
  9
$CHAMFERA
 40
0.5
  9
$CHAMFERB
 40
0.5
  9
$CHAMFERC
 40
1.0
  9
$CHAMFERD
 40
0.0
  9
$SKPOLY
 70
	0
  9
$TDCREATE
 40
0.0
  9
$TDUPDATE
 40
0.0
  9
$TDINDWG
 40
0.0
  9
$TDUSRTIMER
 40
0.0
  9
$USRTIMER
 70
	0
  9
$ANGBASE
 50
0.0
  9
$ANGDIR
 70
	0
  9
$PDMODE
 70
	0
  9
$PDSIZE
 40
0.0
  9
$PLINEWID
 40
0.0
  9
$COORDS
 70
	1
  9
$SPLFRAME
 70
	0
  9
$SPLINETYPE
 70
	6
  9
$SPLINESEGS
 70
	8
  9
$ATTDIA
 70
	0
  9
$ATTREQ
 70
	1
  9
$HANDLING
 70
   1
  0
ENDSEC
  0
SECTION
  2
TABLES
  0
TABLE
  2
LAYER
 70
3
  0
LAYER
  2
0
 70
   0
 62
  7
  6
CONTINUOUS
  0
LAYER
  2
PCB-Outline
 70
   0
 62
  7
  6
CONTINUOUS
  0
LAYER
  2
Resist-B
 70
   0
 62
  7
  6
CONTINUOUS
  0
LAYER
  2
LAY6
 70
   0
 62
  7
  6
CONTINUOUS
  0
ENDTAB
  0
TABLE
  2
LTYPE
 70
1
  0
ENDTAB
  0
TABLE
  2
STYLE
 70
1
  0
STYLE
  2
STANDARD
 70
0
 40
0.0
 41
1.0
 50
0.0
 71
0
 42
1.0
  3
txt
  4
EXTFONT
  0
ENDTAB
  0
ENDSEC
  0
SECTION
  2
BLOCKS
  0
ENDSEC
  0
SECTION
  2
ENTITIES
  0
LINE
  8
PCB-Outline
 10
0.000000
 20
0.000000
 30
0.0
 11
0.000000
 21
7.300000
 31
0.0
  0
LINE
  8
PCB-Outline
 10
0.000000
 20
7.300000
 30
0.0
 11
7.900000
 21
7.300000
 31
0.0
  0
LINE
  8
PCB-Outline
 10
7.900000
 20
7.300000
 30
0.0
 11
7.900000
 21
0.000000
 31
0.0
  0
LINE
  8
PCB-Outline
 10
7.900000
 20
0.000000
 30
0.0
 11
0.000000
 21
0.000000
 31
0.0
  0
ARC
  8
LAY6
 10
5.525000
 20
0.900000
 30
0.0
 40
0.050000
 50
0.000000
 51
90.000000
  0
LINE
  8
LAY6
 10
5.525000
 20
0.950000
 30
0.0
 11
0.975040
 21
0.950000
 31
0.0
  0
ARC
  8
LAY6
 10
0.975040
 20
0.900000
 30
0.0
 40
0.050000
 50
90.000000
 51
180.000000
  0
LINE
  8
LAY6
 10
0.925040
 20
0.900000
 30
0.0
 11
0.925040
 21
0.825000
 31
0.0
  0
ARC
  8
LAY6
 10
0.875040
 20
0.825000
 30
0.0
 40
0.050000
 50
-90.000000
 51
0.000000
  0
LINE
  8
LAY6
 10
0.875040
 20
0.775000
 30
0.0
 11
0.350000
 21
0.775000
 31
0.0
  0
ARC
  8
LAY6
 10
0.350000
 20
0.825000
 30
0.0
 40
0.050000
 50
180.000000
 51
-90.000000
  0
LINE
  8
LAY6
 10
0.300000
 20
0.825000
 30
0.0
 11
0.300000
 21
0.975000
 31
0.0
  0
ARC
  8
LAY6
 10
0.350000
 20
0.975000
 30
0.0
 40
0.050000
 50
90.000000
 51
180.000000
  0
LINE
  8
LAY6
 10
0.350000
 20
1.025000
 30
0.0
 11
0.875040
 21
1.025000
 31
0.0
  0
ARC
  8
LAY6
 10
0.875040
 20
1.075000
 30
0.0
 40
0.050000
 50
-90.000000
 51
0.000000
  0
LINE
  8
LAY6
 10
0.925040
 20
1.075000
 30
0.0
 11
0.925040
 21
1.725000
 31
0.0
  0
ARC
  8
LAY6
 10
0.875040
 20
1.725000
 30
0.0
 40
0.050000
 50
0.000000
 51
90.000000
  0
LINE
  8
LAY6
 10
0.875040
 20
1.775000
 30
0.0
 11
0.350000
 21
1.775000
 31
0.0
  0
ARC
  8
LAY6
 10
0.350000
 20
1.825000
 30
0.0
 40
0.050000
 50
180.000000
 51
-90.000000
  0
LINE
  8
LAY6
 10
0.300000
 20
1.825000
 30
0.0
 11
0.300000
 21
1.975000
 31
0.0
  0
ARC
  8
LAY6
 10
0.350000
 20
1.975000
 30
0.0
 40
0.050000
 50
90.000000
 51
180.000000
  0
LINE
  8
LAY6
 10
0.350000
 20
2.025000
 30
0.0
 11
0.875040
 21
2.025000
 31
0.0
  0
ARC
  8
LAY6
 10
0.875040
 20
2.075000
 30
0.0
 40
0.050000
 50
-90.000000
 51
0.000000
  0
LINE
  8
LAY6
 10
0.925040
 20
2.075000
 30
0.0
 11
0.925040
 21
4.225000
 31
0.0
  0
ARC
  8
LAY6
 10
0.875040
 20
4.225000
 30
0.0
 40
0.050000
 50
0.000000
 51
90.000000
  0
LINE
  8
LAY6
 10
0.875040
 20
4.275000
 30
0.0
 11
0.350000
 21
4.275000
 31
0.0
  0
ARC
  8
LAY6
 10
0.350000
 20
4.325000
 30
0.0
 40
0.050000
 50
180.000000
 51
-90.000000
  0
LINE
  8
LAY6
 10
0.300000
 20
4.325000
 30
0.0
 11
0.300000
 21
4.475000
 31
0.0
  0
ARC
  8
LAY6
 10
0.350000
 20
4.475000
 30
0.0
 40
0.050000
 50
90.000000
 51
180.000000
  0
LINE
  8
LAY6
 10
0.350000
 20
4.525000
 30
0.0
 11
0.875040
 21
4.525000
 31
0.0
  0
ARC
  8
LAY6
 10
0.875040
 20
4.575000
 30
0.0
 40
0.050000
 50
-90.000000
 51
0.000000
  0
LINE
  8
LAY6
 10
0.925040
 20
4.575000
 30
0.0
 11
0.925040
 21
5.225000
 31
0.0
  0
ARC
  8
LAY6
 10
0.875040
 20
5.225000
 30
0.0
 40
0.050000
 50
0.000000
 51
90.000000
  0
LINE
  8
LAY6
 10
0.875040
 20
5.275000
 30
0.0
 11
0.350000
 21
5.275000
 31
0.0
  0
ARC
  8
LAY6
 10
0.350000
 20
5.325000
 30
0.0
 40
0.050000
 50
180.000000
 51
-90.000000
  0
LINE
  8
LAY6
 10
0.300000
 20
5.325000
 30
0.0
 11
0.300000
 21
5.475000
 31
0.0
  0
ARC
  8
LAY6
 10
0.350000
 20
5.475000
 30
0.0
 40
0.050000
 50
90.000000
 51
180.000000
  0
LINE
  8
LAY6
 10
0.350000
 20
5.525000
 30
0.0
 11
0.875040
 21
5.525000
 31
0.0
  0
ARC
  8
LAY6
 10
0.875040
 20
5.575000
 30
0.0
 40
0.050000
 50
-90.000000
 51
0.000000
  0
LINE
  8
LAY6
 10
0.925040
 20
5.575000
 30
0.0
 11
0.925040
 21
6.300000
 31
0.0
  0
ARC
  8
LAY6
 10
0.975040
 20
6.300000
 30
0.0
 40
0.050000
 50
90.000000
 51
180.000000
  0
LINE
  8
LAY6
 10
0.975040
 20
6.350000
 30
0.0
 11
4.525000
 21
6.350000
 31
0.0
  0
ARC
  8
LAY6
 10
4.525000
 20
6.400000
 30
0.0
 40
0.050000
 50
-90.000000
 51
0.000000
  0
LINE
  8
LAY6
 10
4.575000
 20
6.400000
 30
0.0
 11
4.575000
 21
6.950000
 31
0.0
  0
ARC
  8
LAY6
 10
4.625000
 20
6.950000
 30
0.0
 40
0.050000
 50
90.000000
 51
180.000000
  0
LINE
  8
LAY6
 10
4.625000
 20
7.000000
 30
0.0
 11
4.775000
 21
7.000000
 31
0.0
  0
ARC
  8
LAY6
 10
4.775000
 20
6.950000
 30
0.0
 40
0.050000
 50
0.000000
 51
90.000000
  0
LINE
  8
LAY6
 10
4.825000
 20
6.950000
 30
0.0
 11
4.825000
 21
6.400000
 31
0.0
  0
ARC
  8
LAY6
 10
4.875000
 20
6.400000
 30
0.0
 40
0.050000
 50
180.000000
 51
-90.000000
  0
LINE
  8
LAY6
 10
4.875000
 20
6.350000
 30
0.0
 11
5.525000
 21
6.350000
 31
0.0
  0
ARC
  8
LAY6
 10
5.525000
 20
6.400000
 30
0.0
 40
0.050000
 50
-90.000000
 51
0.000000
  0
LINE
  8
LAY6
 10
5.575000
 20
6.400000
 30
0.0
 11
5.575000
 21
6.950000
 31
0.0
  0
ARC
  8
LAY6
 10
5.625000
 20
6.950000
 30
0.0
 40
0.050000
 50
90.000000
 51
180.000000
  0
LINE
  8
LAY6
 10
5.625000
 20
7.000000
 30
0.0
 11
5.775000
 21
7.000000
 31
0.0
  0
ARC
  8
LAY6
 10
5.775000
 20
6.950000
 30
0.0
 40
0.050000
 50
0.000000
 51
90.000000
  0
LINE
  8
LAY6
 10
5.825000
 20
6.950000
 30
0.0
 11
5.825000
 21
6.400000
 31
0.0
  0
ARC
  8
LAY6
 10
5.875000
 20
6.400000
 30
0.0
 40
0.050000
 50
180.000000
 51
-90.000000
  0
LINE
  8
LAY6
 10
5.875000
 20
6.350000
 30
0.0
 11
6.900000
 21
6.350000
 31
0.0
  0
ARC
  8
LAY6
 10
6.900000
 20
6.300000
 30
0.0
 40
0.050000
 50
0.000000
 51
90.000000
  0
LINE
  8
LAY6
 10
6.950000
 20
6.300000
 30
0.0
 11
6.950000
 21
4.575000
 31
0.0
  0
ARC
  8
LAY6
 10
7.000000
 20
4.575000
 30
0.0
 40
0.050000
 50
180.000000
 51
-90.000000
  0
LINE
  8
LAY6
 10
7.000000
 20
4.525000
 30
0.0
 11
7.550000
 21
4.525000
 31
0.0
  0
ARC
  8
LAY6
 10
7.550000
 20
4.475000
 30
0.0
 40
0.050000
 50
0.000000
 51
90.000000
  0
LINE
  8
LAY6
 10
7.600000
 20
4.475000
 30
0.0
 11
7.600000
 21
4.325000
 31
0.0
  0
ARC
  8
LAY6
 10
7.550000
 20
4.325000
 30
0.0
 40
0.050000
 50
-90.000000
 51
0.000000
  0
LINE
  8
LAY6
 10
7.550000
 20
4.275000
 30
0.0
 11
7.000000
 21
4.275000
 31
0.0
  0
ARC
  8
LAY6
 10
7.000000
 20
4.225000
 30
0.0
 40
0.050000
 50
90.000000
 51
180.000000
  0
LINE
  8
LAY6
 10
6.950000
 20
4.225000
 30
0.0
 11
6.950000
 21
3.575000
 31
0.0
  0
ARC
  8
LAY6
 10
7.000000
 20
3.575000
 30
0.0
 40
0.050000
 50
180.000000
 51
-90.000000
  0
LINE
  8
LAY6
 10
7.000000
 20
3.525000
 30
0.0
 11
7.550000
 21
3.525000
 31
0.0
  0
ARC
  8
LAY6
 10
7.550000
 20
3.475000
 30
0.0
 40
0.050000
 50
0.000000
 51
90.000000
  0
LINE
  8
LAY6
 10
7.600000
 20
3.475000
 30
0.0
 11
7.600000
 21
3.325000
 31
0.0
  0
ARC
  8
LAY6
 10
7.550000
 20
3.325000
 30
0.0
 40
0.050000
 50
-90.000000
 51
0.000000
  0
LINE
  8
LAY6
 10
7.550000
 20
3.275000
 30
0.0
 11
7.000000
 21
3.275000
 31
0.0
  0
ARC
  8
LAY6
 10
7.000000
 20
3.225000
 30
0.0
 40
0.050000
 50
90.000000
 51
180.000000
  0
LINE
  8
LAY6
 10
6.950000
 20
3.225000
 30
0.0
 11
6.950000
 21
1.000000
 31
0.0
  0
ARC
  8
LAY6
 10
6.900000
 20
1.000000
 30
0.0
 40
0.050000
 50
-90.000000
 51
0.000000
  0
LINE
  8
LAY6
 10
6.900000
 20
0.950000
 30
0.0
 11
6.875000
 21
0.950000
 31
0.0
  0
ARC
  8
LAY6
 10
6.875000
 20
0.900000
 30
0.0
 40
0.050000
 50
90.000000
 51
180.000000
  0
LINE
  8
LAY6
 10
6.825000
 20
0.900000
 30
0.0
 11
6.825000
 21
0.350000
 31
0.0
  0
ARC
  8
LAY6
 10
6.775000
 20
0.350000
 30
0.0
 40
0.050000
 50
-90.000000
 51
0.000000
  0
LINE
  8
LAY6
 10
6.775000
 20
0.300000
 30
0.0
 11
6.625000
 21
0.300000
 31
0.0
  0
ARC
  8
LAY6
 10
6.625000
 20
0.350000
 30
0.0
 40
0.050000
 50
180.000000
 51
-90.000000
  0
LINE
  8
LAY6
 10
6.575000
 20
0.350000
 30
0.0
 11
6.575000
 21
0.900000
 31
0.0
  0
ARC
  8
LAY6
 10
6.525000
 20
0.900000
 30
0.0
 40
0.050000
 50
0.000000
 51
90.000000
  0
LINE
  8
LAY6
 10
6.525000
 20
0.950000
 30
0.0
 11
5.875000
 21
0.950000
 31
0.0
  0
ARC
  8
LAY6
 10
5.875000
 20
0.900000
 30
0.0
 40
0.050000
 50
90.000000
 51
180.000000
  0
LINE
  8
LAY6
 10
5.825000
 20
0.900000
 30
0.0
 11
5.825000
 21
0.350000
 31
0.0
  0
ARC
  8
LAY6
 10
5.775000
 20
0.350000
 30
0.0
 40
0.050000
 50
-90.000000
 51
0.000000
  0
LINE
  8
LAY6
 10
5.775000
 20
0.300000
 30
0.0
 11
5.625000
 21
0.300000
 31
0.0
  0
ARC
  8
LAY6
 10
5.625000
 20
0.350000
 30
0.0
 40
0.050000
 50
180.000000
 51
-90.000000
  0
LINE
  8
LAY6
 10
5.575000
 20
0.350000
 30
0.0
 11
5.575000
 21
0.900000
 31
0.0
  0
ARC
  8
LAY6
 10
4.825000
 20
1.450000
 30
0.0
 40
0.125040
 50
-90.000000
 51
0.000000
  0
LINE
  8
LAY6
 10
4.950040
 20
1.450000
 30
0.0
 11
4.950040
 21
1.950000
 31
0.0
  0
ARC
  8
LAY6
 10
4.825000
 20
1.950000
 30
0.0
 40
0.125040
 50
0.000000
 51
90.000000
  0
LINE
  8
LAY6
 10
4.825000
 20
2.075040
 30
0.0
 11
4.575000
 21
2.075040
 31
0.0
  0
ARC
  8
LAY6
 10
4.575000
 20
1.950000
 30
0.0
 40
0.125040
 50
90.000000
 51
180.000000
  0
LINE
  8
LAY6
 10
4.449960
 20
1.950000
 30
0.0
 11
4.449960
 21
1.450000
 31
0.0
  0
ARC
  8
LAY6
 10
4.575000
 20
1.450000
 30
0.0
 40
0.125040
 50
180.000000
 51
-90.000000
  0
LINE
  8
LAY6
 10
4.575000
 20
1.324960
 30
0.0
 11
4.825000
 21
1.324960
 31
0.0
  0
ARC
  8
LAY6
 10
4.825000
 20
5.350000
 30
0.0
 40
0.125040
 50
-90.000000
 51
0.000000
  0
LINE
  8
LAY6
 10
4.950040
 20
5.350000
 30
0.0
 11
4.950040
 21
5.850000
 31
0.0
  0
ARC
  8
LAY6
 10
4.825000
 20
5.850000
 30
0.0
 40
0.125040
 50
0.000000
 51
90.000000
  0
LINE
  8
LAY6
 10
4.825000
 20
5.975040
 30
0.0
 11
3.075000
 21
5.975040
 31
0.0
  0
ARC
  8
LAY6
 10
3.075000
 20
5.850000
 30
0.0
 40
0.125040
 50
90.000000
 51
180.000000
  0
LINE
  8
LAY6
 10
2.949960
 20
5.850000
 30
0.0
 11
2.949960
 21
5.350000
 31
0.0
  0
ARC
  8
LAY6
 10
3.075000
 20
5.350000
 30
0.0
 40
0.125040
 50
180.000000
 51
-90.000000
  0
LINE
  8
LAY6
 10
3.075000
 20
5.224960
 30
0.0
 11
4.825000
 21
5.224960
 31
0.0
  0
ARC
  8
LAY6
 10
5.625000
 20
0.350000
 30
0.0
 40
0.050000
 50
180.000000
 51
-90.000000
  0
LINE
  8
LAY6
 10
5.575000
 20
0.350000
 30
0.0
 11
5.575000
 21
0.750000
 31
0.0
  0
ARC
  8
LAY6
 10
5.625000
 20
0.750000
 30
0.0
 40
0.050000
 50
90.000000
 51
180.000000
  0
LINE
  8
LAY6
 10
5.625000
 20
0.800000
 30
0.0
 11
5.775000
 21
0.800000
 31
0.0
  0
ARC
  8
LAY6
 10
5.775000
 20
0.750000
 30
0.0
 40
0.050000
 50
0.000000
 51
90.000000
  0
LINE
  8
LAY6
 10
5.825000
 20
0.750000
 30
0.0
 11
5.825000
 21
0.350000
 31
0.0
  0
ARC
  8
LAY6
 10
5.775000
 20
0.350000
 30
0.0
 40
0.050000
 50
-90.000000
 51
0.000000
  0
LINE
  8
LAY6
 10
5.775000
 20
0.300000
 30
0.0
 11
5.625000
 21
0.300000
 31
0.0
  0
ARC
  8
Resist-B
 10
5.825000
 20
0.300000
 30
0.0
 40
0.050000
 50
-90.000000
 51
0.000000
  0
LINE
  8
Resist-B
 10
5.825000
 20
0.250000
 30
0.0
 11
5.575000
 21
0.250000
 31
0.0
  0
ARC
  8
Resist-B
 10
5.575000
 20
0.300000
 30
0.0
 40
0.050000
 50
180.000000
 51
-90.000000
  0
LINE
  8
Resist-B
 10
5.525000
 20
0.300000
 30
0.0
 11
5.525000
 21
0.750000
 31
0.0
  0
ARC
  8
Resist-B
 10
5.575000
 20
0.750000
 30
0.0
 40
0.050000
 50
90.000000
 51
180.000000
  0
LINE
  8
Resist-B
 10
5.575000
 20
0.800000
 30
0.0
 11
5.825000
 21
0.800000
 31
0.0
  0
ARC
  8
Resist-B
 10
5.825000
 20
0.750000
 30
0.0
 40
0.050000
 50
0.000000
 51
90.000000
  0
LINE
  8
Resist-B
 10
5.875000
 20
0.750000
 30
0.0
 11
5.875000
 21
0.300000
 31
0.0
  0
ARC
  8
LAY6
 10
6.625000
 20
0.350000
 30
0.0
 40
0.050000
 50
180.000000
 51
-90.000000
  0
LINE
  8
LAY6
 10
6.575000
 20
0.350000
 30
0.0
 11
6.575000
 21
0.750000
 31
0.0
  0
ARC
  8
LAY6
 10
6.625000
 20
0.750000
 30
0.0
 40
0.050000
 50
90.000000
 51
180.000000
  0
LINE
  8
LAY6
 10
6.625000
 20
0.800000
 30
0.0
 11
6.775000
 21
0.800000
 31
0.0
  0
ARC
  8
LAY6
 10
6.775000
 20
0.750000
 30
0.0
 40
0.050000
 50
0.000000
 51
90.000000
  0
LINE
  8
LAY6
 10
6.825000
 20
0.750000
 30
0.0
 11
6.825000
 21
0.350000
 31
0.0
  0
ARC
  8
LAY6
 10
6.775000
 20
0.350000
 30
0.0
 40
0.050000
 50
-90.000000
 51
0.000000
  0
LINE
  8
LAY6
 10
6.775000
 20
0.300000
 30
0.0
 11
6.625000
 21
0.300000
 31
0.0
  0
ARC
  8
Resist-B
 10
6.825000
 20
0.300000
 30
0.0
 40
0.050000
 50
-90.000000
 51
0.000000
  0
LINE
  8
Resist-B
 10
6.825000
 20
0.250000
 30
0.0
 11
6.575000
 21
0.250000
 31
0.0
  0
ARC
  8
Resist-B
 10
6.575000
 20
0.300000
 30
0.0
 40
0.050000
 50
180.000000
 51
-90.000000
  0
LINE
  8
Resist-B
 10
6.525000
 20
0.300000
 30
0.0
 11
6.525000
 21
0.750000
 31
0.0
  0
ARC
  8
Resist-B
 10
6.575000
 20
0.750000
 30
0.0
 40
0.050000
 50
90.000000
 51
180.000000
  0
LINE
  8
Resist-B
 10
6.575000
 20
0.800000
 30
0.0
 11
6.825000
 21
0.800000
 31
0.0
  0
ARC
  8
Resist-B
 10
6.825000
 20
0.750000
 30
0.0
 40
0.050000
 50
0.000000
 51
90.000000
  0
LINE
  8
Resist-B
 10
6.875000
 20
0.750000
 30
0.0
 11
6.875000
 21
0.300000
 31
0.0
  0
ARC
  8
LAY6
 10
7.150000
 20
0.475000
 30
0.0
 40
0.050000
 50
90.000000
 51
180.000000
  0
LINE
  8
LAY6
 10
7.150000
 20
0.525000
 30
0.0
 11
7.550000
 21
0.525000
 31
0.0
  0
ARC
  8
LAY6
 10
7.550000
 20
0.475000
 30
0.0
 40
0.050000
 50
0.000000
 51
90.000000
  0
LINE
  8
LAY6
 10
7.600000
 20
0.475000
 30
0.0
 11
7.600000
 21
0.325000
 31
0.0
  0
ARC
  8
LAY6
 10
7.550000
 20
0.325000
 30
0.0
 40
0.050000
 50
-90.000000
 51
0.000000
  0
LINE
  8
LAY6
 10
7.550000
 20
0.275000
 30
0.0
 11
7.150000
 21
0.275000
 31
0.0
  0
ARC
  8
LAY6
 10
7.150000
 20
0.325000
 30
0.0
 40
0.050000
 50
180.000000
 51
-90.000000
  0
LINE
  8
LAY6
 10
7.100000
 20
0.325000
 30
0.0
 11
7.100000
 21
0.475000
 31
0.0
  0
ARC
  8
Resist-B
 10
7.100000
 20
0.275000
 30
0.0
 40
0.050000
 50
180.000000
 51
-90.000000
  0
LINE
  8
Resist-B
 10
7.050000
 20
0.275000
 30
0.0
 11
7.050000
 21
0.525000
 31
0.0
  0
ARC
  8
Resist-B
 10
7.100000
 20
0.525000
 30
0.0
 40
0.050000
 50
90.000000
 51
180.000000
  0
LINE
  8
Resist-B
 10
7.100000
 20
0.575000
 30
0.0
 11
7.600000
 21
0.575000
 31
0.0
  0
ARC
  8
Resist-B
 10
7.600000
 20
0.525000
 30
0.0
 40
0.050000
 50
0.000000
 51
90.000000
  0
LINE
  8
Resist-B
 10
7.650000
 20
0.525000
 30
0.0
 11
7.650000
 21
0.275000
 31
0.0
  0
ARC
  8
Resist-B
 10
7.600000
 20
0.275000
 30
0.0
 40
0.050000
 50
-90.000000
 51
0.000000
  0
LINE
  8
Resist-B
 10
7.600000
 20
0.225000
 30
0.0
 11
7.100000
 21
0.225000
 31
0.0
  0
ARC
  8
LAY6
 10
7.150000
 20
3.475000
 30
0.0
 40
0.050000
 50
90.000000
 51
180.000000
  0
LINE
  8
LAY6
 10
7.150000
 20
3.525000
 30
0.0
 11
7.550000
 21
3.525000
 31
0.0
  0
ARC
  8
LAY6
 10
7.550000
 20
3.475000
 30
0.0
 40
0.050000
 50
0.000000
 51
90.000000
  0
LINE
  8
LAY6
 10
7.600000
 20
3.475000
 30
0.0
 11
7.600000
 21
3.325000
 31
0.0
  0
ARC
  8
LAY6
 10
7.550000
 20
3.325000
 30
0.0
 40
0.050000
 50
-90.000000
 51
0.000000
  0
LINE
  8
LAY6
 10
7.550000
 20
3.275000
 30
0.0
 11
7.150000
 21
3.275000
 31
0.0
  0
ARC
  8
LAY6
 10
7.150000
 20
3.325000
 30
0.0
 40
0.050000
 50
180.000000
 51
-90.000000
  0
LINE
  8
LAY6
 10
7.100000
 20
3.325000
 30
0.0
 11
7.100000
 21
3.475000
 31
0.0
  0
ARC
  8
Resist-B
 10
7.150000
 20
3.275000
 30
0.0
 40
0.050000
 50
180.000000
 51
-90.000000
  0
LINE
  8
Resist-B
 10
7.100000
 20
3.275000
 30
0.0
 11
7.100000
 21
3.525000
 31
0.0
  0
ARC
  8
Resist-B
 10
7.150000
 20
3.525000
 30
0.0
 40
0.050000
 50
90.000000
 51
180.000000
  0
LINE
  8
Resist-B
 10
7.150000
 20
3.575000
 30
0.0
 11
7.600000
 21
3.575000
 31
0.0
  0
ARC
  8
Resist-B
 10
7.600000
 20
3.525000
 30
0.0
 40
0.050000
 50
0.000000
 51
90.000000
  0
LINE
  8
Resist-B
 10
7.650000
 20
3.525000
 30
0.0
 11
7.650000
 21
3.275000
 31
0.0
  0
ARC
  8
Resist-B
 10
7.600000
 20
3.275000
 30
0.0
 40
0.050000
 50
-90.000000
 51
0.000000
  0
LINE
  8
Resist-B
 10
7.600000
 20
3.225000
 30
0.0
 11
7.150000
 21
3.225000
 31
0.0
  0
ARC
  8
LAY6
 10
7.150000
 20
4.475000
 30
0.0
 40
0.050000
 50
90.000000
 51
180.000000
  0
LINE
  8
LAY6
 10
7.150000
 20
4.525000
 30
0.0
 11
7.550000
 21
4.525000
 31
0.0
  0
ARC
  8
LAY6
 10
7.550000
 20
4.475000
 30
0.0
 40
0.050000
 50
0.000000
 51
90.000000
  0
LINE
  8
LAY6
 10
7.600000
 20
4.475000
 30
0.0
 11
7.600000
 21
4.325000
 31
0.0
  0
ARC
  8
LAY6
 10
7.550000
 20
4.325000
 30
0.0
 40
0.050000
 50
-90.000000
 51
0.000000
  0
LINE
  8
LAY6
 10
7.550000
 20
4.275000
 30
0.0
 11
7.150000
 21
4.275000
 31
0.0
  0
ARC
  8
LAY6
 10
7.150000
 20
4.325000
 30
0.0
 40
0.050000
 50
180.000000
 51
-90.000000
  0
LINE
  8
LAY6
 10
7.100000
 20
4.325000
 30
0.0
 11
7.100000
 21
4.475000
 31
0.0
  0
ARC
  8
Resist-B
 10
7.150000
 20
4.275000
 30
0.0
 40
0.050000
 50
180.000000
 51
-90.000000
  0
LINE
  8
Resist-B
 10
7.100000
 20
4.275000
 30
0.0
 11
7.100000
 21
4.525000
 31
0.0
  0
ARC
  8
Resist-B
 10
7.150000
 20
4.525000
 30
0.0
 40
0.050000
 50
90.000000
 51
180.000000
  0
LINE
  8
Resist-B
 10
7.150000
 20
4.575000
 30
0.0
 11
7.600000
 21
4.575000
 31
0.0
  0
ARC
  8
Resist-B
 10
7.600000
 20
4.525000
 30
0.0
 40
0.050000
 50
0.000000
 51
90.000000
  0
LINE
  8
Resist-B
 10
7.650000
 20
4.525000
 30
0.0
 11
7.650000
 21
4.275000
 31
0.0
  0
ARC
  8
Resist-B
 10
7.600000
 20
4.275000
 30
0.0
 40
0.050000
 50
-90.000000
 51
0.000000
  0
LINE
  8
Resist-B
 10
7.600000
 20
4.225000
 30
0.0
 11
7.150000
 21
4.225000
 31
0.0
  0
ARC
  8
LAY6
 10
5.625000
 20
6.550000
 30
0.0
 40
0.050000
 50
180.000000
 51
-90.000000
  0
LINE
  8
LAY6
 10
5.575000
 20
6.550000
 30
0.0
 11
5.575000
 21
6.950000
 31
0.0
  0
ARC
  8
LAY6
 10
5.625000
 20
6.950000
 30
0.0
 40
0.050000
 50
90.000000
 51
180.000000
  0
LINE
  8
LAY6
 10
5.625000
 20
7.000000
 30
0.0
 11
5.775000
 21
7.000000
 31
0.0
  0
ARC
  8
LAY6
 10
5.775000
 20
6.950000
 30
0.0
 40
0.050000
 50
0.000000
 51
90.000000
  0
LINE
  8
LAY6
 10
5.825000
 20
6.950000
 30
0.0
 11
5.825000
 21
6.550000
 31
0.0
  0
ARC
  8
LAY6
 10
5.775000
 20
6.550000
 30
0.0
 40
0.050000
 50
-90.000000
 51
0.000000
  0
LINE
  8
LAY6
 10
5.775000
 20
6.500000
 30
0.0
 11
5.625000
 21
6.500000
 31
0.0
  0
ARC
  8
Resist-B
 10
5.825000
 20
6.550000
 30
0.0
 40
0.050000
 50
-90.000000
 51
0.000000
  0
LINE
  8
Resist-B
 10
5.825000
 20
6.500000
 30
0.0
 11
5.575000
 21
6.500000
 31
0.0
  0
ARC
  8
Resist-B
 10
5.575000
 20
6.550000
 30
0.0
 40
0.050000
 50
180.000000
 51
-90.000000
  0
LINE
  8
Resist-B
 10
5.525000
 20
6.550000
 30
0.0
 11
5.525000
 21
7.000000
 31
0.0
  0
ARC
  8
Resist-B
 10
5.575000
 20
7.000000
 30
0.0
 40
0.050000
 50
90.000000
 51
180.000000
  0
LINE
  8
Resist-B
 10
5.575000
 20
7.050000
 30
0.0
 11
5.825000
 21
7.050000
 31
0.0
  0
ARC
  8
Resist-B
 10
5.825000
 20
7.000000
 30
0.0
 40
0.050000
 50
0.000000
 51
90.000000
  0
LINE
  8
Resist-B
 10
5.875000
 20
7.000000
 30
0.0
 11
5.875000
 21
6.550000
 31
0.0
  0
ARC
  8
LAY6
 10
4.625000
 20
6.550000
 30
0.0
 40
0.050000
 50
180.000000
 51
-90.000000
  0
LINE
  8
LAY6
 10
4.575000
 20
6.550000
 30
0.0
 11
4.575000
 21
6.950000
 31
0.0
  0
ARC
  8
LAY6
 10
4.625000
 20
6.950000
 30
0.0
 40
0.050000
 50
90.000000
 51
180.000000
  0
LINE
  8
LAY6
 10
4.625000
 20
7.000000
 30
0.0
 11
4.775000
 21
7.000000
 31
0.0
  0
ARC
  8
LAY6
 10
4.775000
 20
6.950000
 30
0.0
 40
0.050000
 50
0.000000
 51
90.000000
  0
LINE
  8
LAY6
 10
4.825000
 20
6.950000
 30
0.0
 11
4.825000
 21
6.550000
 31
0.0
  0
ARC
  8
LAY6
 10
4.775000
 20
6.550000
 30
0.0
 40
0.050000
 50
-90.000000
 51
0.000000
  0
LINE
  8
LAY6
 10
4.775000
 20
6.500000
 30
0.0
 11
4.625000
 21
6.500000
 31
0.0
  0
ARC
  8
Resist-B
 10
4.825000
 20
6.550000
 30
0.0
 40
0.050000
 50
-90.000000
 51
0.000000
  0
LINE
  8
Resist-B
 10
4.825000
 20
6.500000
 30
0.0
 11
4.575000
 21
6.500000
 31
0.0
  0
ARC
  8
Resist-B
 10
4.575000
 20
6.550000
 30
0.0
 40
0.050000
 50
180.000000
 51
-90.000000
  0
LINE
  8
Resist-B
 10
4.525000
 20
6.550000
 30
0.0
 11
4.525000
 21
7.000000
 31
0.0
  0
ARC
  8
Resist-B
 10
4.575000
 20
7.000000
 30
0.0
 40
0.050000
 50
90.000000
 51
180.000000
  0
LINE
  8
Resist-B
 10
4.575000
 20
7.050000
 30
0.0
 11
4.825000
 21
7.050000
 31
0.0
  0
ARC
  8
Resist-B
 10
4.825000
 20
7.000000
 30
0.0
 40
0.050000
 50
0.000000
 51
90.000000
  0
LINE
  8
Resist-B
 10
4.875000
 20
7.000000
 30
0.0
 11
4.875000
 21
6.550000
 31
0.0
  0
ARC
  8
LAY6
 10
0.350000
 20
6.975000
 30
0.0
 40
0.050000
 50
90.000000
 51
180.000000
  0
LINE
  8
LAY6
 10
0.350000
 20
7.025000
 30
0.0
 11
0.750000
 21
7.025000
 31
0.0
  0
ARC
  8
LAY6
 10
0.750000
 20
6.975000
 30
0.0
 40
0.050000
 50
0.000000
 51
90.000000
  0
LINE
  8
LAY6
 10
0.800000
 20
6.975000
 30
0.0
 11
0.800000
 21
6.825000
 31
0.0
  0
ARC
  8
LAY6
 10
0.750000
 20
6.825000
 30
0.0
 40
0.050000
 50
-90.000000
 51
0.000000
  0
LINE
  8
LAY6
 10
0.750000
 20
6.775000
 30
0.0
 11
0.350000
 21
6.775000
 31
0.0
  0
ARC
  8
LAY6
 10
0.350000
 20
6.825000
 30
0.0
 40
0.050000
 50
180.000000
 51
-90.000000
  0
LINE
  8
LAY6
 10
0.300000
 20
6.825000
 30
0.0
 11
0.300000
 21
6.975000
 31
0.0
  0
ARC
  8
Resist-B
 10
0.300000
 20
6.775000
 30
0.0
 40
0.050000
 50
180.000000
 51
-90.000000
  0
LINE
  8
Resist-B
 10
0.250000
 20
6.775000
 30
0.0
 11
0.250000
 21
7.025000
 31
0.0
  0
ARC
  8
Resist-B
 10
0.300000
 20
7.025000
 30
0.0
 40
0.050000
 50
90.000000
 51
180.000000
  0
LINE
  8
Resist-B
 10
0.300000
 20
7.075000
 30
0.0
 11
0.800000
 21
7.075000
 31
0.0
  0
ARC
  8
Resist-B
 10
0.800000
 20
7.025000
 30
0.0
 40
0.050000
 50
0.000000
 51
90.000000
  0
LINE
  8
Resist-B
 10
0.850000
 20
7.025000
 30
0.0
 11
0.850000
 21
6.775000
 31
0.0
  0
ARC
  8
Resist-B
 10
0.800000
 20
6.775000
 30
0.0
 40
0.050000
 50
-90.000000
 51
0.000000
  0
LINE
  8
Resist-B
 10
0.800000
 20
6.725000
 30
0.0
 11
0.300000
 21
6.725000
 31
0.0
  0
ARC
  8
LAY6
 10
0.350000
 20
5.475000
 30
0.0
 40
0.050000
 50
90.000000
 51
180.000000
  0
LINE
  8
LAY6
 10
0.350000
 20
5.525000
 30
0.0
 11
0.750000
 21
5.525000
 31
0.0
  0
ARC
  8
LAY6
 10
0.750000
 20
5.475000
 30
0.0
 40
0.050000
 50
0.000000
 51
90.000000
  0
LINE
  8
LAY6
 10
0.800000
 20
5.475000
 30
0.0
 11
0.800000
 21
5.325000
 31
0.0
  0
ARC
  8
LAY6
 10
0.750000
 20
5.325000
 30
0.0
 40
0.050000
 50
-90.000000
 51
0.000000
  0
LINE
  8
LAY6
 10
0.750000
 20
5.275000
 30
0.0
 11
0.350000
 21
5.275000
 31
0.0
  0
ARC
  8
LAY6
 10
0.350000
 20
5.325000
 30
0.0
 40
0.050000
 50
180.000000
 51
-90.000000
  0
LINE
  8
LAY6
 10
0.300000
 20
5.325000
 30
0.0
 11
0.300000
 21
5.475000
 31
0.0
  0
ARC
  8
Resist-B
 10
0.300000
 20
5.275000
 30
0.0
 40
0.050000
 50
180.000000
 51
-90.000000
  0
LINE
  8
Resist-B
 10
0.250000
 20
5.275000
 30
0.0
 11
0.250000
 21
5.525000
 31
0.0
  0
ARC
  8
Resist-B
 10
0.300000
 20
5.525000
 30
0.0
 40
0.050000
 50
90.000000
 51
180.000000
  0
LINE
  8
Resist-B
 10
0.300000
 20
5.575000
 30
0.0
 11
0.750000
 21
5.575000
 31
0.0
  0
ARC
  8
Resist-B
 10
0.750000
 20
5.525000
 30
0.0
 40
0.050000
 50
0.000000
 51
90.000000
  0
LINE
  8
Resist-B
 10
0.800000
 20
5.525000
 30
0.0
 11
0.800000
 21
5.275000
 31
0.0
  0
ARC
  8
Resist-B
 10
0.750000
 20
5.275000
 30
0.0
 40
0.050000
 50
-90.000000
 51
0.000000
  0
LINE
  8
Resist-B
 10
0.750000
 20
5.225000
 30
0.0
 11
0.300000
 21
5.225000
 31
0.0
  0
ARC
  8
LAY6
 10
0.350000
 20
4.475000
 30
0.0
 40
0.050000
 50
90.000000
 51
180.000000
  0
LINE
  8
LAY6
 10
0.350000
 20
4.525000
 30
0.0
 11
0.750000
 21
4.525000
 31
0.0
  0
ARC
  8
LAY6
 10
0.750000
 20
4.475000
 30
0.0
 40
0.050000
 50
0.000000
 51
90.000000
  0
LINE
  8
LAY6
 10
0.800000
 20
4.475000
 30
0.0
 11
0.800000
 21
4.325000
 31
0.0
  0
ARC
  8
LAY6
 10
0.750000
 20
4.325000
 30
0.0
 40
0.050000
 50
-90.000000
 51
0.000000
  0
LINE
  8
LAY6
 10
0.750000
 20
4.275000
 30
0.0
 11
0.350000
 21
4.275000
 31
0.0
  0
ARC
  8
LAY6
 10
0.350000
 20
4.325000
 30
0.0
 40
0.050000
 50
180.000000
 51
-90.000000
  0
LINE
  8
LAY6
 10
0.300000
 20
4.325000
 30
0.0
 11
0.300000
 21
4.475000
 31
0.0
  0
ARC
  8
Resist-B
 10
0.300000
 20
4.275000
 30
0.0
 40
0.050000
 50
180.000000
 51
-90.000000
  0
LINE
  8
Resist-B
 10
0.250000
 20
4.275000
 30
0.0
 11
0.250000
 21
4.525000
 31
0.0
  0
ARC
  8
Resist-B
 10
0.300000
 20
4.525000
 30
0.0
 40
0.050000
 50
90.000000
 51
180.000000
  0
LINE
  8
Resist-B
 10
0.300000
 20
4.575000
 30
0.0
 11
0.750000
 21
4.575000
 31
0.0
  0
ARC
  8
Resist-B
 10
0.750000
 20
4.525000
 30
0.0
 40
0.050000
 50
0.000000
 51
90.000000
  0
LINE
  8
Resist-B
 10
0.800000
 20
4.525000
 30
0.0
 11
0.800000
 21
4.275000
 31
0.0
  0
ARC
  8
Resist-B
 10
0.750000
 20
4.275000
 30
0.0
 40
0.050000
 50
-90.000000
 51
0.000000
  0
LINE
  8
Resist-B
 10
0.750000
 20
4.225000
 30
0.0
 11
0.300000
 21
4.225000
 31
0.0
  0
ARC
  8
LAY6
 10
0.350000
 20
1.975000
 30
0.0
 40
0.050000
 50
90.000000
 51
180.000000
  0
LINE
  8
LAY6
 10
0.350000
 20
2.025000
 30
0.0
 11
0.750000
 21
2.025000
 31
0.0
  0
ARC
  8
LAY6
 10
0.750000
 20
1.975000
 30
0.0
 40
0.050000
 50
0.000000
 51
90.000000
  0
LINE
  8
LAY6
 10
0.800000
 20
1.975000
 30
0.0
 11
0.800000
 21
1.825000
 31
0.0
  0
ARC
  8
LAY6
 10
0.750000
 20
1.825000
 30
0.0
 40
0.050000
 50
-90.000000
 51
0.000000
  0
LINE
  8
LAY6
 10
0.750000
 20
1.775000
 30
0.0
 11
0.350000
 21
1.775000
 31
0.0
  0
ARC
  8
LAY6
 10
0.350000
 20
1.825000
 30
0.0
 40
0.050000
 50
180.000000
 51
-90.000000
  0
LINE
  8
LAY6
 10
0.300000
 20
1.825000
 30
0.0
 11
0.300000
 21
1.975000
 31
0.0
  0
ARC
  8
Resist-B
 10
0.300000
 20
1.775000
 30
0.0
 40
0.050000
 50
180.000000
 51
-90.000000
  0
LINE
  8
Resist-B
 10
0.250000
 20
1.775000
 30
0.0
 11
0.250000
 21
2.025000
 31
0.0
  0
ARC
  8
Resist-B
 10
0.300000
 20
2.025000
 30
0.0
 40
0.050000
 50
90.000000
 51
180.000000
  0
LINE
  8
Resist-B
 10
0.300000
 20
2.075000
 30
0.0
 11
0.750000
 21
2.075000
 31
0.0
  0
ARC
  8
Resist-B
 10
0.750000
 20
2.025000
 30
0.0
 40
0.050000
 50
0.000000
 51
90.000000
  0
LINE
  8
Resist-B
 10
0.800000
 20
2.025000
 30
0.0
 11
0.800000
 21
1.775000
 31
0.0
  0
ARC
  8
Resist-B
 10
0.750000
 20
1.775000
 30
0.0
 40
0.050000
 50
-90.000000
 51
0.000000
  0
LINE
  8
Resist-B
 10
0.750000
 20
1.725000
 30
0.0
 11
0.300000
 21
1.725000
 31
0.0
  0
ARC
  8
LAY6
 10
0.350000
 20
0.975000
 30
0.0
 40
0.050000
 50
90.000000
 51
180.000000
  0
LINE
  8
LAY6
 10
0.350000
 20
1.025000
 30
0.0
 11
0.750000
 21
1.025000
 31
0.0
  0
ARC
  8
LAY6
 10
0.750000
 20
0.975000
 30
0.0
 40
0.050000
 50
0.000000
 51
90.000000
  0
LINE
  8
LAY6
 10
0.800000
 20
0.975000
 30
0.0
 11
0.800000
 21
0.825000
 31
0.0
  0
ARC
  8
LAY6
 10
0.750000
 20
0.825000
 30
0.0
 40
0.050000
 50
-90.000000
 51
0.000000
  0
LINE
  8
LAY6
 10
0.750000
 20
0.775000
 30
0.0
 11
0.350000
 21
0.775000
 31
0.0
  0
ARC
  8
LAY6
 10
0.350000
 20
0.825000
 30
0.0
 40
0.050000
 50
180.000000
 51
-90.000000
  0
LINE
  8
LAY6
 10
0.300000
 20
0.825000
 30
0.0
 11
0.300000
 21
0.975000
 31
0.0
  0
ARC
  8
Resist-B
 10
0.300000
 20
0.775000
 30
0.0
 40
0.050000
 50
180.000000
 51
-90.000000
  0
LINE
  8
Resist-B
 10
0.250000
 20
0.775000
 30
0.0
 11
0.250000
 21
1.025000
 31
0.0
  0
ARC
  8
Resist-B
 10
0.300000
 20
1.025000
 30
0.0
 40
0.050000
 50
90.000000
 51
180.000000
  0
LINE
  8
Resist-B
 10
0.300000
 20
1.075000
 30
0.0
 11
0.750000
 21
1.075000
 31
0.0
  0
ARC
  8
Resist-B
 10
0.750000
 20
1.025000
 30
0.0
 40
0.050000
 50
0.000000
 51
90.000000
  0
LINE
  8
Resist-B
 10
0.800000
 20
1.025000
 30
0.0
 11
0.800000
 21
0.775000
 31
0.0
  0
ARC
  8
Resist-B
 10
0.750000
 20
0.775000
 30
0.0
 40
0.050000
 50
-90.000000
 51
0.000000
  0
LINE
  8
Resist-B
 10
0.750000
 20
0.725000
 30
0.0
 11
0.300000
 21
0.725000
 31
0.0
  0
ARC
  8
LAY6
 10
0.350000
 20
0.475000
 30
0.0
 40
0.050000
 50
90.000000
 51
180.000000
  0
LINE
  8
LAY6
 10
0.350000
 20
0.525000
 30
0.0
 11
0.750000
 21
0.525000
 31
0.0
  0
ARC
  8
LAY6
 10
0.750000
 20
0.475000
 30
0.0
 40
0.050000
 50
0.000000
 51
90.000000
  0
LINE
  8
LAY6
 10
0.800000
 20
0.475000
 30
0.0
 11
0.800000
 21
0.325000
 31
0.0
  0
ARC
  8
LAY6
 10
0.750000
 20
0.325000
 30
0.0
 40
0.050000
 50
-90.000000
 51
0.000000
  0
LINE
  8
LAY6
 10
0.750000
 20
0.275000
 30
0.0
 11
0.350000
 21
0.275000
 31
0.0
  0
ARC
  8
LAY6
 10
0.350000
 20
0.325000
 30
0.0
 40
0.050000
 50
180.000000
 51
-90.000000
  0
LINE
  8
LAY6
 10
0.300000
 20
0.325000
 30
0.0
 11
0.300000
 21
0.475000
 31
0.0
  0
ARC
  8
Resist-B
 10
0.300000
 20
0.275000
 30
0.0
 40
0.050000
 50
180.000000
 51
-90.000000
  0
LINE
  8
Resist-B
 10
0.250000
 20
0.275000
 30
0.0
 11
0.250000
 21
0.525000
 31
0.0
  0
ARC
  8
Resist-B
 10
0.300000
 20
0.525000
 30
0.0
 40
0.050000
 50
90.000000
 51
180.000000
  0
LINE
  8
Resist-B
 10
0.300000
 20
0.575000
 30
0.0
 11
0.800000
 21
0.575000
 31
0.0
  0
ARC
  8
Resist-B
 10
0.800000
 20
0.525000
 30
0.0
 40
0.050000
 50
0.000000
 51
90.000000
  0
LINE
  8
Resist-B
 10
0.850000
 20
0.525000
 30
0.0
 11
0.850000
 21
0.275000
 31
0.0
  0
ARC
  8
Resist-B
 10
0.800000
 20
0.275000
 30
0.0
 40
0.050000
 50
-90.000000
 51
0.000000
  0
LINE
  8
Resist-B
 10
0.800000
 20
0.225000
 30
0.0
 11
0.300000
 21
0.225000
 31
0.0
  0
ARC
  8
LAY6
 10
3.125000
 20
1.500000
 30
0.0
 40
0.050000
 50
180.000000
 51
-90.000000
  0
LINE
  8
LAY6
 10
3.075000
 20
1.500000
 30
0.0
 11
3.075000
 21
1.900000
 31
0.0
  0
ARC
  8
LAY6
 10
3.125000
 20
1.900000
 30
0.0
 40
0.050000
 50
90.000000
 51
180.000000
  0
LINE
  8
LAY6
 10
3.125000
 20
1.950000
 30
0.0
 11
3.275000
 21
1.950000
 31
0.0
  0
ARC
  8
LAY6
 10
3.275000
 20
1.900000
 30
0.0
 40
0.050000
 50
0.000000
 51
90.000000
  0
LINE
  8
LAY6
 10
3.325000
 20
1.900000
 30
0.0
 11
3.325000
 21
1.500000
 31
0.0
  0
ARC
  8
LAY6
 10
3.275000
 20
1.500000
 30
0.0
 40
0.050000
 50
-90.000000
 51
0.000000
  0
LINE
  8
LAY6
 10
3.275000
 20
1.450000
 30
0.0
 11
3.125000
 21
1.450000
 31
0.0
  0
ARC
  8
Resist-B
 10
3.275000
 20
1.500000
 30
0.0
 40
0.050000
 50
-90.000000
 51
0.000000
  0
LINE
  8
Resist-B
 10
3.275000
 20
1.450000
 30
0.0
 11
3.125000
 21
1.450000
 31
0.0
  0
ARC
  8
Resist-B
 10
3.125000
 20
1.500000
 30
0.0
 40
0.050000
 50
180.000000
 51
-90.000000
  0
LINE
  8
Resist-B
 10
3.075000
 20
1.500000
 30
0.0
 11
3.075000
 21
1.900000
 31
0.0
  0
ARC
  8
Resist-B
 10
3.125000
 20
1.900000
 30
0.0
 40
0.050000
 50
90.000000
 51
180.000000
  0
LINE
  8
Resist-B
 10
3.125000
 20
1.950000
 30
0.0
 11
3.275000
 21
1.950000
 31
0.0
  0
ARC
  8
Resist-B
 10
3.275000
 20
1.900000
 30
0.0
 40
0.050000
 50
0.000000
 51
90.000000
  0
LINE
  8
Resist-B
 10
3.325000
 20
1.900000
 30
0.0
 11
3.325000
 21
1.500000
 31
0.0
  0
ARC
  8
LAY6
 10
3.625000
 20
1.500000
 30
0.0
 40
0.050000
 50
180.000000
 51
-90.000000
  0
LINE
  8
LAY6
 10
3.575000
 20
1.500000
 30
0.0
 11
3.575000
 21
1.900000
 31
0.0
  0
ARC
  8
LAY6
 10
3.625000
 20
1.900000
 30
0.0
 40
0.050000
 50
90.000000
 51
180.000000
  0
LINE
  8
LAY6
 10
3.625000
 20
1.950000
 30
0.0
 11
3.775000
 21
1.950000
 31
0.0
  0
ARC
  8
LAY6
 10
3.775000
 20
1.900000
 30
0.0
 40
0.050000
 50
0.000000
 51
90.000000
  0
LINE
  8
LAY6
 10
3.825000
 20
1.900000
 30
0.0
 11
3.825000
 21
1.500000
 31
0.0
  0
ARC
  8
LAY6
 10
3.775000
 20
1.500000
 30
0.0
 40
0.050000
 50
-90.000000
 51
0.000000
  0
LINE
  8
LAY6
 10
3.775000
 20
1.450000
 30
0.0
 11
3.625000
 21
1.450000
 31
0.0
  0
ARC
  8
Resist-B
 10
3.775000
 20
1.500000
 30
0.0
 40
0.050000
 50
-90.000000
 51
0.000000
  0
LINE
  8
Resist-B
 10
3.775000
 20
1.450000
 30
0.0
 11
3.625000
 21
1.450000
 31
0.0
  0
ARC
  8
Resist-B
 10
3.625000
 20
1.500000
 30
0.0
 40
0.050000
 50
180.000000
 51
-90.000000
  0
LINE
  8
Resist-B
 10
3.575000
 20
1.500000
 30
0.0
 11
3.575000
 21
1.900000
 31
0.0
  0
ARC
  8
Resist-B
 10
3.625000
 20
1.900000
 30
0.0
 40
0.050000
 50
90.000000
 51
180.000000
  0
LINE
  8
Resist-B
 10
3.625000
 20
1.950000
 30
0.0
 11
3.775000
 21
1.950000
 31
0.0
  0
ARC
  8
Resist-B
 10
3.775000
 20
1.900000
 30
0.0
 40
0.050000
 50
0.000000
 51
90.000000
  0
LINE
  8
Resist-B
 10
3.825000
 20
1.900000
 30
0.0
 11
3.825000
 21
1.500000
 31
0.0
  0
ARC
  8
LAY6
 10
4.125000
 20
1.500000
 30
0.0
 40
0.050000
 50
180.000000
 51
-90.000000
  0
LINE
  8
LAY6
 10
4.075000
 20
1.500000
 30
0.0
 11
4.075000
 21
1.900000
 31
0.0
  0
ARC
  8
LAY6
 10
4.125000
 20
1.900000
 30
0.0
 40
0.050000
 50
90.000000
 51
180.000000
  0
LINE
  8
LAY6
 10
4.125000
 20
1.950000
 30
0.0
 11
4.275000
 21
1.950000
 31
0.0
  0
ARC
  8
LAY6
 10
4.275000
 20
1.900000
 30
0.0
 40
0.050000
 50
0.000000
 51
90.000000
  0
LINE
  8
LAY6
 10
4.325000
 20
1.900000
 30
0.0
 11
4.325000
 21
1.500000
 31
0.0
  0
ARC
  8
LAY6
 10
4.275000
 20
1.500000
 30
0.0
 40
0.050000
 50
-90.000000
 51
0.000000
  0
LINE
  8
LAY6
 10
4.275000
 20
1.450000
 30
0.0
 11
4.125000
 21
1.450000
 31
0.0
  0
ARC
  8
Resist-B
 10
4.275000
 20
1.500000
 30
0.0
 40
0.050000
 50
-90.000000
 51
0.000000
  0
LINE
  8
Resist-B
 10
4.275000
 20
1.450000
 30
0.0
 11
4.125000
 21
1.450000
 31
0.0
  0
ARC
  8
Resist-B
 10
4.125000
 20
1.500000
 30
0.0
 40
0.050000
 50
180.000000
 51
-90.000000
  0
LINE
  8
Resist-B
 10
4.075000
 20
1.500000
 30
0.0
 11
4.075000
 21
1.900000
 31
0.0
  0
ARC
  8
Resist-B
 10
4.125000
 20
1.900000
 30
0.0
 40
0.050000
 50
90.000000
 51
180.000000
  0
LINE
  8
Resist-B
 10
4.125000
 20
1.950000
 30
0.0
 11
4.275000
 21
1.950000
 31
0.0
  0
ARC
  8
Resist-B
 10
4.275000
 20
1.900000
 30
0.0
 40
0.050000
 50
0.000000
 51
90.000000
  0
LINE
  8
Resist-B
 10
4.325000
 20
1.900000
 30
0.0
 11
4.325000
 21
1.500000
 31
0.0
  0
ARC
  8
LAY6
 10
7.150000
 20
5.975000
 30
0.0
 40
0.050000
 50
90.000000
 51
180.000000
  0
LINE
  8
LAY6
 10
7.150000
 20
6.025000
 30
0.0
 11
7.550000
 21
6.025000
 31
0.0
  0
ARC
  8
LAY6
 10
7.550000
 20
5.975000
 30
0.0
 40
0.050000
 50
0.000000
 51
90.000000
  0
LINE
  8
LAY6
 10
7.600000
 20
5.975000
 30
0.0
 11
7.600000
 21
5.825000
 31
0.0
  0
ARC
  8
LAY6
 10
7.550000
 20
5.825000
 30
0.0
 40
0.050000
 50
-90.000000
 51
0.000000
  0
LINE
  8
LAY6
 10
7.550000
 20
5.775000
 30
0.0
 11
7.150000
 21
5.775000
 31
0.0
  0
ARC
  8
LAY6
 10
7.150000
 20
5.825000
 30
0.0
 40
0.050000
 50
180.000000
 51
-90.000000
  0
LINE
  8
LAY6
 10
7.100000
 20
5.825000
 30
0.0
 11
7.100000
 21
5.975000
 31
0.0
  0
ARC
  8
Resist-B
 10
7.100000
 20
5.775000
 30
0.0
 40
0.050000
 50
180.000000
 51
-90.000000
  0
LINE
  8
Resist-B
 10
7.050000
 20
5.775000
 30
0.0
 11
7.050000
 21
6.025000
 31
0.0
  0
ARC
  8
Resist-B
 10
7.100000
 20
6.025000
 30
0.0
 40
0.050000
 50
90.000000
 51
180.000000
  0
LINE
  8
Resist-B
 10
7.100000
 20
6.075000
 30
0.0
 11
7.600000
 21
6.075000
 31
0.0
  0
ARC
  8
Resist-B
 10
7.600000
 20
6.025000
 30
0.0
 40
0.050000
 50
0.000000
 51
90.000000
  0
LINE
  8
Resist-B
 10
7.650000
 20
6.025000
 30
0.0
 11
7.650000
 21
5.775000
 31
0.0
  0
ARC
  8
Resist-B
 10
7.600000
 20
5.775000
 30
0.0
 40
0.050000
 50
-90.000000
 51
0.000000
  0
LINE
  8
Resist-B
 10
7.600000
 20
5.725000
 30
0.0
 11
7.100000
 21
5.725000
 31
0.0
  0
ARC
  8
LAY6
 10
1.500000
 20
1.200000
 30
0.0
 40
0.050000
 50
180.000000
 51
-90.000000
  0
LINE
  8
LAY6
 10
1.450000
 20
1.200000
 30
0.0
 11
1.450000
 21
2.200000
 31
0.0
  0
ARC
  8
LAY6
 10
1.500000
 20
2.200000
 30
0.0
 40
0.050000
 50
90.000000
 51
180.000000
  0
LINE
  8
LAY6
 10
1.500000
 20
2.250000
 30
0.0
 11
2.500000
 21
2.250000
 31
0.0
  0
ARC
  8
LAY6
 10
2.500000
 20
2.200000
 30
0.0
 40
0.050000
 50
0.000000
 51
90.000000
  0
LINE
  8
LAY6
 10
2.550000
 20
2.200000
 30
0.0
 11
2.550000
 21
1.200000
 31
0.0
  0
ARC
  8
LAY6
 10
2.500000
 20
1.200000
 30
0.0
 40
0.050000
 50
-90.000000
 51
0.000000
  0
LINE
  8
LAY6
 10
2.500000
 20
1.150000
 30
0.0
 11
1.500000
 21
1.150000
 31
0.0
  0
ARC
  8
Resist-B
 10
1.550000
 20
2.150000
 30
0.0
 40
0.050000
 50
90.000000
 51
180.000000
  0
LINE
  8
Resist-B
 10
1.550000
 20
2.200000
 30
0.0
 11
2.450000
 21
2.200000
 31
0.0
  0
ARC
  8
Resist-B
 10
2.450000
 20
2.150000
 30
0.0
 40
0.050000
 50
0.000000
 51
90.000000
  0
LINE
  8
Resist-B
 10
2.500000
 20
2.150000
 30
0.0
 11
2.500000
 21
1.250000
 31
0.0
  0
ARC
  8
Resist-B
 10
2.450000
 20
1.250000
 30
0.0
 40
0.050000
 50
-90.000000
 51
0.000000
  0
LINE
  8
Resist-B
 10
2.450000
 20
1.200000
 30
0.0
 11
2.020710
 21
1.200000
 31
0.0
  0
ARC
  8
Resist-B
 10
2.020710
 20
1.250000
 30
0.0
 40
0.050000
 50
-134.991897
 51
-90.000000
  0
LINE
  8
Resist-B
 10
1.985360
 20
1.214640
 30
0.0
 11
1.514640
 21
1.685360
 31
0.0
  0
ARC
  8
Resist-B
 10
1.550000
 20
1.720720
 30
0.0
 40
0.050000
 50
-179.988541
 51
-135.000000
  0
LINE
  8
Resist-B
 10
1.500000
 20
1.720710
 30
0.0
 11
1.500000
 21
2.150000
 31
0.0
  0
ARC
  8
LAY6
 10
5.400000
 20
1.200000
 30
0.0
 40
0.050000
 50
180.000000
 51
-90.000000
  0
LINE
  8
LAY6
 10
5.350000
 20
1.200000
 30
0.0
 11
5.350000
 21
2.200000
 31
0.0
  0
ARC
  8
LAY6
 10
5.400000
 20
2.200000
 30
0.0
 40
0.050000
 50
90.000000
 51
180.000000
  0
LINE
  8
LAY6
 10
5.400000
 20
2.250000
 30
0.0
 11
6.400000
 21
2.250000
 31
0.0
  0
ARC
  8
LAY6
 10
6.400000
 20
2.200000
 30
0.0
 40
0.050000
 50
0.000000
 51
90.000000
  0
LINE
  8
LAY6
 10
6.450000
 20
2.200000
 30
0.0
 11
6.450000
 21
1.200000
 31
0.0
  0
ARC
  8
LAY6
 10
6.400000
 20
1.200000
 30
0.0
 40
0.050000
 50
-90.000000
 51
0.000000
  0
LINE
  8
LAY6
 10
6.400000
 20
1.150000
 30
0.0
 11
5.400000
 21
1.150000
 31
0.0
  0
ARC
  8
Resist-B
 10
5.450000
 20
2.150000
 30
0.0
 40
0.050000
 50
90.000000
 51
180.000000
  0
LINE
  8
Resist-B
 10
5.450000
 20
2.200000
 30
0.0
 11
6.350000
 21
2.200000
 31
0.0
  0
ARC
  8
Resist-B
 10
6.350000
 20
2.150000
 30
0.0
 40
0.050000
 50
0.000000
 51
90.000000
  0
LINE
  8
Resist-B
 10
6.400000
 20
2.150000
 30
0.0
 11
6.400000
 21
1.250000
 31
0.0
  0
ARC
  8
Resist-B
 10
6.350000
 20
1.250000
 30
0.0
 40
0.050000
 50
-90.000000
 51
0.000000
  0
LINE
  8
Resist-B
 10
6.350000
 20
1.200000
 30
0.0
 11
5.450000
 21
1.200000
 31
0.0
  0
ARC
  8
Resist-B
 10
5.450000
 20
1.250000
 30
0.0
 40
0.050000
 50
180.000000
 51
-90.000000
  0
LINE
  8
Resist-B
 10
5.400000
 20
1.250000
 30
0.0
 11
5.400000
 21
2.150000
 31
0.0
  0
ARC
  8
LAY6
 10
1.500000
 20
2.500000
 30
0.0
 40
0.050000
 50
180.000000
 51
-90.000000
  0
LINE
  8
LAY6
 10
1.450000
 20
2.500000
 30
0.0
 11
1.450000
 21
3.500000
 31
0.0
  0
ARC
  8
LAY6
 10
1.500000
 20
3.500000
 30
0.0
 40
0.050000
 50
90.000000
 51
180.000000
  0
LINE
  8
LAY6
 10
1.500000
 20
3.550000
 30
0.0
 11
2.500000
 21
3.550000
 31
0.0
  0
ARC
  8
LAY6
 10
2.500000
 20
3.500000
 30
0.0
 40
0.050000
 50
0.000000
 51
90.000000
  0
LINE
  8
LAY6
 10
2.550000
 20
3.500000
 30
0.0
 11
2.550000
 21
2.500000
 31
0.0
  0
ARC
  8
LAY6
 10
2.500000
 20
2.500000
 30
0.0
 40
0.050000
 50
-90.000000
 51
0.000000
  0
LINE
  8
LAY6
 10
2.500000
 20
2.450000
 30
0.0
 11
1.500000
 21
2.450000
 31
0.0
  0
ARC
  8
Resist-B
 10
1.550000
 20
3.450000
 30
0.0
 40
0.050000
 50
90.000000
 51
180.000000
  0
LINE
  8
Resist-B
 10
1.550000
 20
3.500000
 30
0.0
 11
2.450000
 21
3.500000
 31
0.0
  0
ARC
  8
Resist-B
 10
2.450000
 20
3.450000
 30
0.0
 40
0.050000
 50
0.000000
 51
90.000000
  0
LINE
  8
Resist-B
 10
2.500000
 20
3.450000
 30
0.0
 11
2.500000
 21
2.550000
 31
0.0
  0
ARC
  8
Resist-B
 10
2.450000
 20
2.550000
 30
0.0
 40
0.050000
 50
-90.000000
 51
0.000000
  0
LINE
  8
Resist-B
 10
2.450000
 20
2.500000
 30
0.0
 11
1.550000
 21
2.500000
 31
0.0
  0
ARC
  8
Resist-B
 10
1.550000
 20
2.550000
 30
0.0
 40
0.050000
 50
180.000000
 51
-90.000000
  0
LINE
  8
Resist-B
 10
1.500000
 20
2.550000
 30
0.0
 11
1.500000
 21
3.450000
 31
0.0
  0
ARC
  8
LAY6
 10
2.800000
 20
2.500000
 30
0.0
 40
0.050000
 50
180.000000
 51
-90.000000
  0
LINE
  8
LAY6
 10
2.750000
 20
2.500000
 30
0.0
 11
2.750000
 21
3.500000
 31
0.0
  0
ARC
  8
LAY6
 10
2.800000
 20
3.500000
 30
0.0
 40
0.050000
 50
90.000000
 51
180.000000
  0
LINE
  8
LAY6
 10
2.800000
 20
3.550000
 30
0.0
 11
3.800000
 21
3.550000
 31
0.0
  0
ARC
  8
LAY6
 10
3.800000
 20
3.500000
 30
0.0
 40
0.050000
 50
0.000000
 51
90.000000
  0
LINE
  8
LAY6
 10
3.850000
 20
3.500000
 30
0.0
 11
3.850000
 21
2.500000
 31
0.0
  0
ARC
  8
LAY6
 10
3.800000
 20
2.500000
 30
0.0
 40
0.050000
 50
-90.000000
 51
0.000000
  0
LINE
  8
LAY6
 10
3.800000
 20
2.450000
 30
0.0
 11
2.800000
 21
2.450000
 31
0.0
  0
ARC
  8
Resist-B
 10
2.850000
 20
3.450000
 30
0.0
 40
0.050000
 50
90.000000
 51
180.000000
  0
LINE
  8
Resist-B
 10
2.850000
 20
3.500000
 30
0.0
 11
3.750000
 21
3.500000
 31
0.0
  0
ARC
  8
Resist-B
 10
3.750000
 20
3.450000
 30
0.0
 40
0.050000
 50
0.000000
 51
90.000000
  0
LINE
  8
Resist-B
 10
3.800000
 20
3.450000
 30
0.0
 11
3.800000
 21
2.550000
 31
0.0
  0
ARC
  8
Resist-B
 10
3.750000
 20
2.550000
 30
0.0
 40
0.050000
 50
-90.000000
 51
0.000000
  0
LINE
  8
Resist-B
 10
3.750000
 20
2.500000
 30
0.0
 11
2.850000
 21
2.500000
 31
0.0
  0
ARC
  8
Resist-B
 10
2.850000
 20
2.550000
 30
0.0
 40
0.050000
 50
180.000000
 51
-90.000000
  0
LINE
  8
Resist-B
 10
2.800000
 20
2.550000
 30
0.0
 11
2.800000
 21
3.450000
 31
0.0
  0
ARC
  8
LAY6
 10
4.100000
 20
2.500000
 30
0.0
 40
0.050000
 50
180.000000
 51
-90.000000
  0
LINE
  8
LAY6
 10
4.050000
 20
2.500000
 30
0.0
 11
4.050000
 21
3.500000
 31
0.0
  0
ARC
  8
LAY6
 10
4.100000
 20
3.500000
 30
0.0
 40
0.050000
 50
90.000000
 51
180.000000
  0
LINE
  8
LAY6
 10
4.100000
 20
3.550000
 30
0.0
 11
5.100000
 21
3.550000
 31
0.0
  0
ARC
  8
LAY6
 10
5.100000
 20
3.500000
 30
0.0
 40
0.050000
 50
0.000000
 51
90.000000
  0
LINE
  8
LAY6
 10
5.150000
 20
3.500000
 30
0.0
 11
5.150000
 21
2.500000
 31
0.0
  0
ARC
  8
LAY6
 10
5.100000
 20
2.500000
 30
0.0
 40
0.050000
 50
-90.000000
 51
0.000000
  0
LINE
  8
LAY6
 10
5.100000
 20
2.450000
 30
0.0
 11
4.100000
 21
2.450000
 31
0.0
  0
ARC
  8
Resist-B
 10
4.150000
 20
3.450000
 30
0.0
 40
0.050000
 50
90.000000
 51
180.000000
  0
LINE
  8
Resist-B
 10
4.150000
 20
3.500000
 30
0.0
 11
5.050000
 21
3.500000
 31
0.0
  0
ARC
  8
Resist-B
 10
5.050000
 20
3.450000
 30
0.0
 40
0.050000
 50
0.000000
 51
90.000000
  0
LINE
  8
Resist-B
 10
5.100000
 20
3.450000
 30
0.0
 11
5.100000
 21
2.550000
 31
0.0
  0
ARC
  8
Resist-B
 10
5.050000
 20
2.550000
 30
0.0
 40
0.050000
 50
-90.000000
 51
0.000000
  0
LINE
  8
Resist-B
 10
5.050000
 20
2.500000
 30
0.0
 11
4.150000
 21
2.500000
 31
0.0
  0
ARC
  8
Resist-B
 10
4.150000
 20
2.550000
 30
0.0
 40
0.050000
 50
180.000000
 51
-90.000000
  0
LINE
  8
Resist-B
 10
4.100000
 20
2.550000
 30
0.0
 11
4.100000
 21
3.450000
 31
0.0
  0
ARC
  8
LAY6
 10
5.400000
 20
2.500000
 30
0.0
 40
0.050000
 50
180.000000
 51
-90.000000
  0
LINE
  8
LAY6
 10
5.350000
 20
2.500000
 30
0.0
 11
5.350000
 21
3.500000
 31
0.0
  0
ARC
  8
LAY6
 10
5.400000
 20
3.500000
 30
0.0
 40
0.050000
 50
90.000000
 51
180.000000
  0
LINE
  8
LAY6
 10
5.400000
 20
3.550000
 30
0.0
 11
6.400000
 21
3.550000
 31
0.0
  0
ARC
  8
LAY6
 10
6.400000
 20
3.500000
 30
0.0
 40
0.050000
 50
0.000000
 51
90.000000
  0
LINE
  8
LAY6
 10
6.450000
 20
3.500000
 30
0.0
 11
6.450000
 21
2.500000
 31
0.0
  0
ARC
  8
LAY6
 10
6.400000
 20
2.500000
 30
0.0
 40
0.050000
 50
-90.000000
 51
0.000000
  0
LINE
  8
LAY6
 10
6.400000
 20
2.450000
 30
0.0
 11
5.400000
 21
2.450000
 31
0.0
  0
ARC
  8
Resist-B
 10
5.450000
 20
3.450000
 30
0.0
 40
0.050000
 50
90.000000
 51
180.000000
  0
LINE
  8
Resist-B
 10
5.450000
 20
3.500000
 30
0.0
 11
6.350000
 21
3.500000
 31
0.0
  0
ARC
  8
Resist-B
 10
6.350000
 20
3.450000
 30
0.0
 40
0.050000
 50
0.000000
 51
90.000000
  0
LINE
  8
Resist-B
 10
6.400000
 20
3.450000
 30
0.0
 11
6.400000
 21
2.550000
 31
0.0
  0
ARC
  8
Resist-B
 10
6.350000
 20
2.550000
 30
0.0
 40
0.050000
 50
-90.000000
 51
0.000000
  0
LINE
  8
Resist-B
 10
6.350000
 20
2.500000
 30
0.0
 11
5.450000
 21
2.500000
 31
0.0
  0
ARC
  8
Resist-B
 10
5.450000
 20
2.550000
 30
0.0
 40
0.050000
 50
180.000000
 51
-90.000000
  0
LINE
  8
Resist-B
 10
5.400000
 20
2.550000
 30
0.0
 11
5.400000
 21
3.450000
 31
0.0
  0
ARC
  8
LAY6
 10
1.500000
 20
3.800000
 30
0.0
 40
0.050000
 50
180.000000
 51
-90.000000
  0
LINE
  8
LAY6
 10
1.450000
 20
3.800000
 30
0.0
 11
1.450000
 21
4.800000
 31
0.0
  0
ARC
  8
LAY6
 10
1.500000
 20
4.800000
 30
0.0
 40
0.050000
 50
90.000000
 51
180.000000
  0
LINE
  8
LAY6
 10
1.500000
 20
4.850000
 30
0.0
 11
2.500000
 21
4.850000
 31
0.0
  0
ARC
  8
LAY6
 10
2.500000
 20
4.800000
 30
0.0
 40
0.050000
 50
0.000000
 51
90.000000
  0
LINE
  8
LAY6
 10
2.550000
 20
4.800000
 30
0.0
 11
2.550000
 21
3.800000
 31
0.0
  0
ARC
  8
LAY6
 10
2.500000
 20
3.800000
 30
0.0
 40
0.050000
 50
-90.000000
 51
0.000000
  0
LINE
  8
LAY6
 10
2.500000
 20
3.750000
 30
0.0
 11
1.500000
 21
3.750000
 31
0.0
  0
ARC
  8
Resist-B
 10
1.550000
 20
4.750000
 30
0.0
 40
0.050000
 50
90.000000
 51
180.000000
  0
LINE
  8
Resist-B
 10
1.550000
 20
4.800000
 30
0.0
 11
2.450000
 21
4.800000
 31
0.0
  0
ARC
  8
Resist-B
 10
2.450000
 20
4.750000
 30
0.0
 40
0.050000
 50
0.000000
 51
90.000000
  0
LINE
  8
Resist-B
 10
2.500000
 20
4.750000
 30
0.0
 11
2.500000
 21
3.850000
 31
0.0
  0
ARC
  8
Resist-B
 10
2.450000
 20
3.850000
 30
0.0
 40
0.050000
 50
-90.000000
 51
0.000000
  0
LINE
  8
Resist-B
 10
2.450000
 20
3.800000
 30
0.0
 11
1.550000
 21
3.800000
 31
0.0
  0
ARC
  8
Resist-B
 10
1.550000
 20
3.850000
 30
0.0
 40
0.050000
 50
180.000000
 51
-90.000000
  0
LINE
  8
Resist-B
 10
1.500000
 20
3.850000
 30
0.0
 11
1.500000
 21
4.750000
 31
0.0
  0
ARC
  8
LAY6
 10
2.800000
 20
3.800000
 30
0.0
 40
0.050000
 50
180.000000
 51
-90.000000
  0
LINE
  8
LAY6
 10
2.750000
 20
3.800000
 30
0.0
 11
2.750000
 21
4.800000
 31
0.0
  0
ARC
  8
LAY6
 10
2.800000
 20
4.800000
 30
0.0
 40
0.050000
 50
90.000000
 51
180.000000
  0
LINE
  8
LAY6
 10
2.800000
 20
4.850000
 30
0.0
 11
3.800000
 21
4.850000
 31
0.0
  0
ARC
  8
LAY6
 10
3.800000
 20
4.800000
 30
0.0
 40
0.050000
 50
0.000000
 51
90.000000
  0
LINE
  8
LAY6
 10
3.850000
 20
4.800000
 30
0.0
 11
3.850000
 21
3.800000
 31
0.0
  0
ARC
  8
LAY6
 10
3.800000
 20
3.800000
 30
0.0
 40
0.050000
 50
-90.000000
 51
0.000000
  0
LINE
  8
LAY6
 10
3.800000
 20
3.750000
 30
0.0
 11
2.800000
 21
3.750000
 31
0.0
  0
ARC
  8
Resist-B
 10
2.850000
 20
4.750000
 30
0.0
 40
0.050000
 50
90.000000
 51
180.000000
  0
LINE
  8
Resist-B
 10
2.850000
 20
4.800000
 30
0.0
 11
3.750000
 21
4.800000
 31
0.0
  0
ARC
  8
Resist-B
 10
3.750000
 20
4.750000
 30
0.0
 40
0.050000
 50
0.000000
 51
90.000000
  0
LINE
  8
Resist-B
 10
3.800000
 20
4.750000
 30
0.0
 11
3.800000
 21
3.850000
 31
0.0
  0
ARC
  8
Resist-B
 10
3.750000
 20
3.850000
 30
0.0
 40
0.050000
 50
-90.000000
 51
0.000000
  0
LINE
  8
Resist-B
 10
3.750000
 20
3.800000
 30
0.0
 11
2.850000
 21
3.800000
 31
0.0
  0
ARC
  8
Resist-B
 10
2.850000
 20
3.850000
 30
0.0
 40
0.050000
 50
180.000000
 51
-90.000000
  0
LINE
  8
Resist-B
 10
2.800000
 20
3.850000
 30
0.0
 11
2.800000
 21
4.750000
 31
0.0
  0
ARC
  8
LAY6
 10
4.100000
 20
3.800000
 30
0.0
 40
0.050000
 50
180.000000
 51
-90.000000
  0
LINE
  8
LAY6
 10
4.050000
 20
3.800000
 30
0.0
 11
4.050000
 21
4.800000
 31
0.0
  0
ARC
  8
LAY6
 10
4.100000
 20
4.800000
 30
0.0
 40
0.050000
 50
90.000000
 51
180.000000
  0
LINE
  8
LAY6
 10
4.100000
 20
4.850000
 30
0.0
 11
5.100000
 21
4.850000
 31
0.0
  0
ARC
  8
LAY6
 10
5.100000
 20
4.800000
 30
0.0
 40
0.050000
 50
0.000000
 51
90.000000
  0
LINE
  8
LAY6
 10
5.150000
 20
4.800000
 30
0.0
 11
5.150000
 21
3.800000
 31
0.0
  0
ARC
  8
LAY6
 10
5.100000
 20
3.800000
 30
0.0
 40
0.050000
 50
-90.000000
 51
0.000000
  0
LINE
  8
LAY6
 10
5.100000
 20
3.750000
 30
0.0
 11
4.100000
 21
3.750000
 31
0.0
  0
ARC
  8
Resist-B
 10
4.150000
 20
4.750000
 30
0.0
 40
0.050000
 50
90.000000
 51
180.000000
  0
LINE
  8
Resist-B
 10
4.150000
 20
4.800000
 30
0.0
 11
5.050000
 21
4.800000
 31
0.0
  0
ARC
  8
Resist-B
 10
5.050000
 20
4.750000
 30
0.0
 40
0.050000
 50
0.000000
 51
90.000000
  0
LINE
  8
Resist-B
 10
5.100000
 20
4.750000
 30
0.0
 11
5.100000
 21
3.850000
 31
0.0
  0
ARC
  8
Resist-B
 10
5.050000
 20
3.850000
 30
0.0
 40
0.050000
 50
-90.000000
 51
0.000000
  0
LINE
  8
Resist-B
 10
5.050000
 20
3.800000
 30
0.0
 11
4.150000
 21
3.800000
 31
0.0
  0
ARC
  8
Resist-B
 10
4.150000
 20
3.850000
 30
0.0
 40
0.050000
 50
180.000000
 51
-90.000000
  0
LINE
  8
Resist-B
 10
4.100000
 20
3.850000
 30
0.0
 11
4.100000
 21
4.750000
 31
0.0
  0
ARC
  8
LAY6
 10
5.400000
 20
3.800000
 30
0.0
 40
0.050000
 50
180.000000
 51
-90.000000
  0
LINE
  8
LAY6
 10
5.350000
 20
3.800000
 30
0.0
 11
5.350000
 21
4.800000
 31
0.0
  0
ARC
  8
LAY6
 10
5.400000
 20
4.800000
 30
0.0
 40
0.050000
 50
90.000000
 51
180.000000
  0
LINE
  8
LAY6
 10
5.400000
 20
4.850000
 30
0.0
 11
6.400000
 21
4.850000
 31
0.0
  0
ARC
  8
LAY6
 10
6.400000
 20
4.800000
 30
0.0
 40
0.050000
 50
0.000000
 51
90.000000
  0
LINE
  8
LAY6
 10
6.450000
 20
4.800000
 30
0.0
 11
6.450000
 21
3.800000
 31
0.0
  0
ARC
  8
LAY6
 10
6.400000
 20
3.800000
 30
0.0
 40
0.050000
 50
-90.000000
 51
0.000000
  0
LINE
  8
LAY6
 10
6.400000
 20
3.750000
 30
0.0
 11
5.400000
 21
3.750000
 31
0.0
  0
ARC
  8
Resist-B
 10
5.450000
 20
4.750000
 30
0.0
 40
0.050000
 50
90.000000
 51
180.000000
  0
LINE
  8
Resist-B
 10
5.450000
 20
4.800000
 30
0.0
 11
6.350000
 21
4.800000
 31
0.0
  0
ARC
  8
Resist-B
 10
6.350000
 20
4.750000
 30
0.0
 40
0.050000
 50
0.000000
 51
90.000000
  0
LINE
  8
Resist-B
 10
6.400000
 20
4.750000
 30
0.0
 11
6.400000
 21
3.850000
 31
0.0
  0
ARC
  8
Resist-B
 10
6.350000
 20
3.850000
 30
0.0
 40
0.050000
 50
-90.000000
 51
0.000000
  0
LINE
  8
Resist-B
 10
6.350000
 20
3.800000
 30
0.0
 11
5.450000
 21
3.800000
 31
0.0
  0
ARC
  8
Resist-B
 10
5.450000
 20
3.850000
 30
0.0
 40
0.050000
 50
180.000000
 51
-90.000000
  0
LINE
  8
Resist-B
 10
5.400000
 20
3.850000
 30
0.0
 11
5.400000
 21
4.750000
 31
0.0
  0
ARC
  8
LAY6
 10
0.350000
 20
1.475000
 30
0.0
 40
0.050000
 50
90.000000
 51
180.000000
  0
LINE
  8
LAY6
 10
0.350000
 20
1.525000
 30
0.0
 11
0.750000
 21
1.525000
 31
0.0
  0
ARC
  8
LAY6
 10
0.750000
 20
1.475000
 30
0.0
 40
0.050000
 50
0.000000
 51
90.000000
  0
LINE
  8
LAY6
 10
0.800000
 20
1.475000
 30
0.0
 11
0.800000
 21
1.325000
 31
0.0
  0
ARC
  8
LAY6
 10
0.750000
 20
1.325000
 30
0.0
 40
0.050000
 50
-90.000000
 51
0.000000
  0
LINE
  8
LAY6
 10
0.750000
 20
1.275000
 30
0.0
 11
0.350000
 21
1.275000
 31
0.0
  0
ARC
  8
LAY6
 10
0.350000
 20
1.325000
 30
0.0
 40
0.050000
 50
180.000000
 51
-90.000000
  0
LINE
  8
LAY6
 10
0.300000
 20
1.325000
 30
0.0
 11
0.300000
 21
1.475000
 31
0.0
  0
ARC
  8
Resist-B
 10
0.300000
 20
1.275000
 30
0.0
 40
0.050000
 50
180.000000
 51
-90.000000
  0
LINE
  8
Resist-B
 10
0.250000
 20
1.275000
 30
0.0
 11
0.250000
 21
1.525000
 31
0.0
  0
ARC
  8
Resist-B
 10
0.300000
 20
1.525000
 30
0.0
 40
0.050000
 50
90.000000
 51
180.000000
  0
LINE
  8
Resist-B
 10
0.300000
 20
1.575000
 30
0.0
 11
0.800000
 21
1.575000
 31
0.0
  0
ARC
  8
Resist-B
 10
0.800000
 20
1.525000
 30
0.0
 40
0.050000
 50
0.000000
 51
90.000000
  0
LINE
  8
Resist-B
 10
0.850000
 20
1.525000
 30
0.0
 11
0.850000
 21
1.275000
 31
0.0
  0
ARC
  8
Resist-B
 10
0.800000
 20
1.275000
 30
0.0
 40
0.050000
 50
-90.000000
 51
0.000000
  0
LINE
  8
Resist-B
 10
0.800000
 20
1.225000
 30
0.0
 11
0.300000
 21
1.225000
 31
0.0
  0
ARC
  8
LAY6
 10
7.150000
 20
3.975000
 30
0.0
 40
0.050000
 50
90.000000
 51
180.000000
  0
LINE
  8
LAY6
 10
7.150000
 20
4.025000
 30
0.0
 11
7.550000
 21
4.025000
 31
0.0
  0
ARC
  8
LAY6
 10
7.550000
 20
3.975000
 30
0.0
 40
0.050000
 50
0.000000
 51
90.000000
  0
LINE
  8
LAY6
 10
7.600000
 20
3.975000
 30
0.0
 11
7.600000
 21
3.825000
 31
0.0
  0
ARC
  8
LAY6
 10
7.550000
 20
3.825000
 30
0.0
 40
0.050000
 50
-90.000000
 51
0.000000
  0
LINE
  8
LAY6
 10
7.550000
 20
3.775000
 30
0.0
 11
7.150000
 21
3.775000
 31
0.0
  0
ARC
  8
LAY6
 10
7.150000
 20
3.825000
 30
0.0
 40
0.050000
 50
180.000000
 51
-90.000000
  0
LINE
  8
LAY6
 10
7.100000
 20
3.825000
 30
0.0
 11
7.100000
 21
3.975000
 31
0.0
  0
ARC
  8
Resist-B
 10
7.100000
 20
3.775000
 30
0.0
 40
0.050000
 50
180.000000
 51
-90.000000
  0
LINE
  8
Resist-B
 10
7.050000
 20
3.775000
 30
0.0
 11
7.050000
 21
4.025000
 31
0.0
  0
ARC
  8
Resist-B
 10
7.100000
 20
4.025000
 30
0.0
 40
0.050000
 50
90.000000
 51
180.000000
  0
LINE
  8
Resist-B
 10
7.100000
 20
4.075000
 30
0.0
 11
7.600000
 21
4.075000
 31
0.0
  0
ARC
  8
Resist-B
 10
7.600000
 20
4.025000
 30
0.0
 40
0.050000
 50
0.000000
 51
90.000000
  0
LINE
  8
Resist-B
 10
7.650000
 20
4.025000
 30
0.0
 11
7.650000
 21
3.775000
 31
0.0
  0
ARC
  8
Resist-B
 10
7.600000
 20
3.775000
 30
0.0
 40
0.050000
 50
-90.000000
 51
0.000000
  0
LINE
  8
Resist-B
 10
7.600000
 20
3.725000
 30
0.0
 11
7.100000
 21
3.725000
 31
0.0
  0
ARC
  8
LAY6
 10
7.150000
 20
1.475000
 30
0.0
 40
0.050000
 50
90.000000
 51
180.000000
  0
LINE
  8
LAY6
 10
7.150000
 20
1.525000
 30
0.0
 11
7.550000
 21
1.525000
 31
0.0
  0
ARC
  8
LAY6
 10
7.550000
 20
1.475000
 30
0.0
 40
0.050000
 50
0.000000
 51
90.000000
  0
LINE
  8
LAY6
 10
7.600000
 20
1.475000
 30
0.0
 11
7.600000
 21
1.325000
 31
0.0
  0
ARC
  8
LAY6
 10
7.550000
 20
1.325000
 30
0.0
 40
0.050000
 50
-90.000000
 51
0.000000
  0
LINE
  8
LAY6
 10
7.550000
 20
1.275000
 30
0.0
 11
7.150000
 21
1.275000
 31
0.0
  0
ARC
  8
LAY6
 10
7.150000
 20
1.325000
 30
0.0
 40
0.050000
 50
180.000000
 51
-90.000000
  0
LINE
  8
LAY6
 10
7.100000
 20
1.325000
 30
0.0
 11
7.100000
 21
1.475000
 31
0.0
  0
ARC
  8
Resist-B
 10
7.100000
 20
1.275000
 30
0.0
 40
0.050000
 50
180.000000
 51
-90.000000
  0
LINE
  8
Resist-B
 10
7.050000
 20
1.275000
 30
0.0
 11
7.050000
 21
1.525000
 31
0.0
  0
ARC
  8
Resist-B
 10
7.100000
 20
1.525000
 30
0.0
 40
0.050000
 50
90.000000
 51
180.000000
  0
LINE
  8
Resist-B
 10
7.100000
 20
1.575000
 30
0.0
 11
7.600000
 21
1.575000
 31
0.0
  0
ARC
  8
Resist-B
 10
7.600000
 20
1.525000
 30
0.0
 40
0.050000
 50
0.000000
 51
90.000000
  0
LINE
  8
Resist-B
 10
7.650000
 20
1.525000
 30
0.0
 11
7.650000
 21
1.275000
 31
0.0
  0
ARC
  8
Resist-B
 10
7.600000
 20
1.275000
 30
0.0
 40
0.050000
 50
-90.000000
 51
0.000000
  0
LINE
  8
Resist-B
 10
7.600000
 20
1.225000
 30
0.0
 11
7.100000
 21
1.225000
 31
0.0
  0
ARC
  8
LAY6
 10
7.150000
 20
0.975000
 30
0.0
 40
0.050000
 50
90.000000
 51
180.000000
  0
LINE
  8
LAY6
 10
7.150000
 20
1.025000
 30
0.0
 11
7.550000
 21
1.025000
 31
0.0
  0
ARC
  8
LAY6
 10
7.550000
 20
0.975000
 30
0.0
 40
0.050000
 50
0.000000
 51
90.000000
  0
LINE
  8
LAY6
 10
7.600000
 20
0.975000
 30
0.0
 11
7.600000
 21
0.825000
 31
0.0
  0
ARC
  8
LAY6
 10
7.550000
 20
0.825000
 30
0.0
 40
0.050000
 50
-90.000000
 51
0.000000
  0
LINE
  8
LAY6
 10
7.550000
 20
0.775000
 30
0.0
 11
7.150000
 21
0.775000
 31
0.0
  0
ARC
  8
LAY6
 10
7.150000
 20
0.825000
 30
0.0
 40
0.050000
 50
180.000000
 51
-90.000000
  0
LINE
  8
LAY6
 10
7.100000
 20
0.825000
 30
0.0
 11
7.100000
 21
0.975000
 31
0.0
  0
ARC
  8
Resist-B
 10
7.100000
 20
0.775000
 30
0.0
 40
0.050000
 50
180.000000
 51
-90.000000
  0
LINE
  8
Resist-B
 10
7.050000
 20
0.775000
 30
0.0
 11
7.050000
 21
1.025000
 31
0.0
  0
ARC
  8
Resist-B
 10
7.100000
 20
1.025000
 30
0.0
 40
0.050000
 50
90.000000
 51
180.000000
  0
LINE
  8
Resist-B
 10
7.100000
 20
1.075000
 30
0.0
 11
7.600000
 21
1.075000
 31
0.0
  0
ARC
  8
Resist-B
 10
7.600000
 20
1.025000
 30
0.0
 40
0.050000
 50
0.000000
 51
90.000000
  0
LINE
  8
Resist-B
 10
7.650000
 20
1.025000
 30
0.0
 11
7.650000
 21
0.775000
 31
0.0
  0
ARC
  8
Resist-B
 10
7.600000
 20
0.775000
 30
0.0
 40
0.050000
 50
-90.000000
 51
0.000000
  0
LINE
  8
Resist-B
 10
7.600000
 20
0.725000
 30
0.0
 11
7.100000
 21
0.725000
 31
0.0
  0
ARC
  8
LAY6
 10
7.150000
 20
1.975000
 30
0.0
 40
0.050000
 50
90.000000
 51
180.000000
  0
LINE
  8
LAY6
 10
7.150000
 20
2.025000
 30
0.0
 11
7.550000
 21
2.025000
 31
0.0
  0
ARC
  8
LAY6
 10
7.550000
 20
1.975000
 30
0.0
 40
0.050000
 50
0.000000
 51
90.000000
  0
LINE
  8
LAY6
 10
7.600000
 20
1.975000
 30
0.0
 11
7.600000
 21
1.825000
 31
0.0
  0
ARC
  8
LAY6
 10
7.550000
 20
1.825000
 30
0.0
 40
0.050000
 50
-90.000000
 51
0.000000
  0
LINE
  8
LAY6
 10
7.550000
 20
1.775000
 30
0.0
 11
7.150000
 21
1.775000
 31
0.0
  0
ARC
  8
LAY6
 10
7.150000
 20
1.825000
 30
0.0
 40
0.050000
 50
180.000000
 51
-90.000000
  0
LINE
  8
LAY6
 10
7.100000
 20
1.825000
 30
0.0
 11
7.100000
 21
1.975000
 31
0.0
  0
ARC
  8
Resist-B
 10
7.100000
 20
1.775000
 30
0.0
 40
0.050000
 50
180.000000
 51
-90.000000
  0
LINE
  8
Resist-B
 10
7.050000
 20
1.775000
 30
0.0
 11
7.050000
 21
2.025000
 31
0.0
  0
ARC
  8
Resist-B
 10
7.100000
 20
2.025000
 30
0.0
 40
0.050000
 50
90.000000
 51
180.000000
  0
LINE
  8
Resist-B
 10
7.100000
 20
2.075000
 30
0.0
 11
7.600000
 21
2.075000
 31
0.0
  0
ARC
  8
Resist-B
 10
7.600000
 20
2.025000
 30
0.0
 40
0.050000
 50
0.000000
 51
90.000000
  0
LINE
  8
Resist-B
 10
7.650000
 20
2.025000
 30
0.0
 11
7.650000
 21
1.775000
 31
0.0
  0
ARC
  8
Resist-B
 10
7.600000
 20
1.775000
 30
0.0
 40
0.050000
 50
-90.000000
 51
0.000000
  0
LINE
  8
Resist-B
 10
7.600000
 20
1.725000
 30
0.0
 11
7.100000
 21
1.725000
 31
0.0
  0
ARC
  8
LAY6
 10
7.150000
 20
2.475000
 30
0.0
 40
0.050000
 50
90.000000
 51
180.000000
  0
LINE
  8
LAY6
 10
7.150000
 20
2.525000
 30
0.0
 11
7.550000
 21
2.525000
 31
0.0
  0
ARC
  8
LAY6
 10
7.550000
 20
2.475000
 30
0.0
 40
0.050000
 50
0.000000
 51
90.000000
  0
LINE
  8
LAY6
 10
7.600000
 20
2.475000
 30
0.0
 11
7.600000
 21
2.325000
 31
0.0
  0
ARC
  8
LAY6
 10
7.550000
 20
2.325000
 30
0.0
 40
0.050000
 50
-90.000000
 51
0.000000
  0
LINE
  8
LAY6
 10
7.550000
 20
2.275000
 30
0.0
 11
7.150000
 21
2.275000
 31
0.0
  0
ARC
  8
LAY6
 10
7.150000
 20
2.325000
 30
0.0
 40
0.050000
 50
180.000000
 51
-90.000000
  0
LINE
  8
LAY6
 10
7.100000
 20
2.325000
 30
0.0
 11
7.100000
 21
2.475000
 31
0.0
  0
ARC
  8
Resist-B
 10
7.100000
 20
2.275000
 30
0.0
 40
0.050000
 50
180.000000
 51
-90.000000
  0
LINE
  8
Resist-B
 10
7.050000
 20
2.275000
 30
0.0
 11
7.050000
 21
2.525000
 31
0.0
  0
ARC
  8
Resist-B
 10
7.100000
 20
2.525000
 30
0.0
 40
0.050000
 50
90.000000
 51
180.000000
  0
LINE
  8
Resist-B
 10
7.100000
 20
2.575000
 30
0.0
 11
7.600000
 21
2.575000
 31
0.0
  0
ARC
  8
Resist-B
 10
7.600000
 20
2.525000
 30
0.0
 40
0.050000
 50
0.000000
 51
90.000000
  0
LINE
  8
Resist-B
 10
7.650000
 20
2.525000
 30
0.0
 11
7.650000
 21
2.275000
 31
0.0
  0
ARC
  8
Resist-B
 10
7.600000
 20
2.275000
 30
0.0
 40
0.050000
 50
-90.000000
 51
0.000000
  0
LINE
  8
Resist-B
 10
7.600000
 20
2.225000
 30
0.0
 11
7.100000
 21
2.225000
 31
0.0
  0
ARC
  8
LAY6
 10
7.150000
 20
2.975000
 30
0.0
 40
0.050000
 50
90.000000
 51
180.000000
  0
LINE
  8
LAY6
 10
7.150000
 20
3.025000
 30
0.0
 11
7.550000
 21
3.025000
 31
0.0
  0
ARC
  8
LAY6
 10
7.550000
 20
2.975000
 30
0.0
 40
0.050000
 50
0.000000
 51
90.000000
  0
LINE
  8
LAY6
 10
7.600000
 20
2.975000
 30
0.0
 11
7.600000
 21
2.825000
 31
0.0
  0
ARC
  8
LAY6
 10
7.550000
 20
2.825000
 30
0.0
 40
0.050000
 50
-90.000000
 51
0.000000
  0
LINE
  8
LAY6
 10
7.550000
 20
2.775000
 30
0.0
 11
7.150000
 21
2.775000
 31
0.0
  0
ARC
  8
LAY6
 10
7.150000
 20
2.825000
 30
0.0
 40
0.050000
 50
180.000000
 51
-90.000000
  0
LINE
  8
LAY6
 10
7.100000
 20
2.825000
 30
0.0
 11
7.100000
 21
2.975000
 31
0.0
  0
ARC
  8
Resist-B
 10
7.100000
 20
2.775000
 30
0.0
 40
0.050000
 50
180.000000
 51
-90.000000
  0
LINE
  8
Resist-B
 10
7.050000
 20
2.775000
 30
0.0
 11
7.050000
 21
3.025000
 31
0.0
  0
ARC
  8
Resist-B
 10
7.100000
 20
3.025000
 30
0.0
 40
0.050000
 50
90.000000
 51
180.000000
  0
LINE
  8
Resist-B
 10
7.100000
 20
3.075000
 30
0.0
 11
7.600000
 21
3.075000
 31
0.0
  0
ARC
  8
Resist-B
 10
7.600000
 20
3.025000
 30
0.0
 40
0.050000
 50
0.000000
 51
90.000000
  0
LINE
  8
Resist-B
 10
7.650000
 20
3.025000
 30
0.0
 11
7.650000
 21
2.775000
 31
0.0
  0
ARC
  8
Resist-B
 10
7.600000
 20
2.775000
 30
0.0
 40
0.050000
 50
-90.000000
 51
0.000000
  0
LINE
  8
Resist-B
 10
7.600000
 20
2.725000
 30
0.0
 11
7.100000
 21
2.725000
 31
0.0
  0
ARC
  8
LAY6
 10
0.350000
 20
2.475000
 30
0.0
 40
0.050000
 50
90.000000
 51
180.000000
  0
LINE
  8
LAY6
 10
0.350000
 20
2.525000
 30
0.0
 11
0.750000
 21
2.525000
 31
0.0
  0
ARC
  8
LAY6
 10
0.750000
 20
2.475000
 30
0.0
 40
0.050000
 50
0.000000
 51
90.000000
  0
LINE
  8
LAY6
 10
0.800000
 20
2.475000
 30
0.0
 11
0.800000
 21
2.325000
 31
0.0
  0
ARC
  8
LAY6
 10
0.750000
 20
2.325000
 30
0.0
 40
0.050000
 50
-90.000000
 51
0.000000
  0
LINE
  8
LAY6
 10
0.750000
 20
2.275000
 30
0.0
 11
0.350000
 21
2.275000
 31
0.0
  0
ARC
  8
LAY6
 10
0.350000
 20
2.325000
 30
0.0
 40
0.050000
 50
180.000000
 51
-90.000000
  0
LINE
  8
LAY6
 10
0.300000
 20
2.325000
 30
0.0
 11
0.300000
 21
2.475000
 31
0.0
  0
ARC
  8
Resist-B
 10
0.300000
 20
2.275000
 30
0.0
 40
0.050000
 50
180.000000
 51
-90.000000
  0
LINE
  8
Resist-B
 10
0.250000
 20
2.275000
 30
0.0
 11
0.250000
 21
2.525000
 31
0.0
  0
ARC
  8
Resist-B
 10
0.300000
 20
2.525000
 30
0.0
 40
0.050000
 50
90.000000
 51
180.000000
  0
LINE
  8
Resist-B
 10
0.300000
 20
2.575000
 30
0.0
 11
0.800000
 21
2.575000
 31
0.0
  0
ARC
  8
Resist-B
 10
0.800000
 20
2.525000
 30
0.0
 40
0.050000
 50
0.000000
 51
90.000000
  0
LINE
  8
Resist-B
 10
0.850000
 20
2.525000
 30
0.0
 11
0.850000
 21
2.275000
 31
0.0
  0
ARC
  8
Resist-B
 10
0.800000
 20
2.275000
 30
0.0
 40
0.050000
 50
-90.000000
 51
0.000000
  0
LINE
  8
Resist-B
 10
0.800000
 20
2.225000
 30
0.0
 11
0.300000
 21
2.225000
 31
0.0
  0
ARC
  8
LAY6
 10
0.350000
 20
2.975000
 30
0.0
 40
0.050000
 50
90.000000
 51
180.000000
  0
LINE
  8
LAY6
 10
0.350000
 20
3.025000
 30
0.0
 11
0.750000
 21
3.025000
 31
0.0
  0
ARC
  8
LAY6
 10
0.750000
 20
2.975000
 30
0.0
 40
0.050000
 50
0.000000
 51
90.000000
  0
LINE
  8
LAY6
 10
0.800000
 20
2.975000
 30
0.0
 11
0.800000
 21
2.825000
 31
0.0
  0
ARC
  8
LAY6
 10
0.750000
 20
2.825000
 30
0.0
 40
0.050000
 50
-90.000000
 51
0.000000
  0
LINE
  8
LAY6
 10
0.750000
 20
2.775000
 30
0.0
 11
0.350000
 21
2.775000
 31
0.0
  0
ARC
  8
LAY6
 10
0.350000
 20
2.825000
 30
0.0
 40
0.050000
 50
180.000000
 51
-90.000000
  0
LINE
  8
LAY6
 10
0.300000
 20
2.825000
 30
0.0
 11
0.300000
 21
2.975000
 31
0.0
  0
ARC
  8
Resist-B
 10
0.300000
 20
2.775000
 30
0.0
 40
0.050000
 50
180.000000
 51
-90.000000
  0
LINE
  8
Resist-B
 10
0.250000
 20
2.775000
 30
0.0
 11
0.250000
 21
3.025000
 31
0.0
  0
ARC
  8
Resist-B
 10
0.300000
 20
3.025000
 30
0.0
 40
0.050000
 50
90.000000
 51
180.000000
  0
LINE
  8
Resist-B
 10
0.300000
 20
3.075000
 30
0.0
 11
0.800000
 21
3.075000
 31
0.0
  0
ARC
  8
Resist-B
 10
0.800000
 20
3.025000
 30
0.0
 40
0.050000
 50
0.000000
 51
90.000000
  0
LINE
  8
Resist-B
 10
0.850000
 20
3.025000
 30
0.0
 11
0.850000
 21
2.775000
 31
0.0
  0
ARC
  8
Resist-B
 10
0.800000
 20
2.775000
 30
0.0
 40
0.050000
 50
-90.000000
 51
0.000000
  0
LINE
  8
Resist-B
 10
0.800000
 20
2.725000
 30
0.0
 11
0.300000
 21
2.725000
 31
0.0
  0
ARC
  8
LAY6
 10
0.350000
 20
3.975000
 30
0.0
 40
0.050000
 50
90.000000
 51
180.000000
  0
LINE
  8
LAY6
 10
0.350000
 20
4.025000
 30
0.0
 11
0.750000
 21
4.025000
 31
0.0
  0
ARC
  8
LAY6
 10
0.750000
 20
3.975000
 30
0.0
 40
0.050000
 50
0.000000
 51
90.000000
  0
LINE
  8
LAY6
 10
0.800000
 20
3.975000
 30
0.0
 11
0.800000
 21
3.825000
 31
0.0
  0
ARC
  8
LAY6
 10
0.750000
 20
3.825000
 30
0.0
 40
0.050000
 50
-90.000000
 51
0.000000
  0
LINE
  8
LAY6
 10
0.750000
 20
3.775000
 30
0.0
 11
0.350000
 21
3.775000
 31
0.0
  0
ARC
  8
LAY6
 10
0.350000
 20
3.825000
 30
0.0
 40
0.050000
 50
180.000000
 51
-90.000000
  0
LINE
  8
LAY6
 10
0.300000
 20
3.825000
 30
0.0
 11
0.300000
 21
3.975000
 31
0.0
  0
ARC
  8
Resist-B
 10
0.300000
 20
3.775000
 30
0.0
 40
0.050000
 50
180.000000
 51
-90.000000
  0
LINE
  8
Resist-B
 10
0.250000
 20
3.775000
 30
0.0
 11
0.250000
 21
4.025000
 31
0.0
  0
ARC
  8
Resist-B
 10
0.300000
 20
4.025000
 30
0.0
 40
0.050000
 50
90.000000
 51
180.000000
  0
LINE
  8
Resist-B
 10
0.300000
 20
4.075000
 30
0.0
 11
0.800000
 21
4.075000
 31
0.0
  0
ARC
  8
Resist-B
 10
0.800000
 20
4.025000
 30
0.0
 40
0.050000
 50
0.000000
 51
90.000000
  0
LINE
  8
Resist-B
 10
0.850000
 20
4.025000
 30
0.0
 11
0.850000
 21
3.775000
 31
0.0
  0
ARC
  8
Resist-B
 10
0.800000
 20
3.775000
 30
0.0
 40
0.050000
 50
-90.000000
 51
0.000000
  0
LINE
  8
Resist-B
 10
0.800000
 20
3.725000
 30
0.0
 11
0.300000
 21
3.725000
 31
0.0
  0
ARC
  8
LAY6
 10
0.350000
 20
3.475000
 30
0.0
 40
0.050000
 50
90.000000
 51
180.000000
  0
LINE
  8
LAY6
 10
0.350000
 20
3.525000
 30
0.0
 11
0.750000
 21
3.525000
 31
0.0
  0
ARC
  8
LAY6
 10
0.750000
 20
3.475000
 30
0.0
 40
0.050000
 50
0.000000
 51
90.000000
  0
LINE
  8
LAY6
 10
0.800000
 20
3.475000
 30
0.0
 11
0.800000
 21
3.325000
 31
0.0
  0
ARC
  8
LAY6
 10
0.750000
 20
3.325000
 30
0.0
 40
0.050000
 50
-90.000000
 51
0.000000
  0
LINE
  8
LAY6
 10
0.750000
 20
3.275000
 30
0.0
 11
0.350000
 21
3.275000
 31
0.0
  0
ARC
  8
LAY6
 10
0.350000
 20
3.325000
 30
0.0
 40
0.050000
 50
180.000000
 51
-90.000000
  0
LINE
  8
LAY6
 10
0.300000
 20
3.325000
 30
0.0
 11
0.300000
 21
3.475000
 31
0.0
  0
ARC
  8
Resist-B
 10
0.300000
 20
3.275000
 30
0.0
 40
0.050000
 50
180.000000
 51
-90.000000
  0
LINE
  8
Resist-B
 10
0.250000
 20
3.275000
 30
0.0
 11
0.250000
 21
3.525000
 31
0.0
  0
ARC
  8
Resist-B
 10
0.300000
 20
3.525000
 30
0.0
 40
0.050000
 50
90.000000
 51
180.000000
  0
LINE
  8
Resist-B
 10
0.300000
 20
3.575000
 30
0.0
 11
0.800000
 21
3.575000
 31
0.0
  0
ARC
  8
Resist-B
 10
0.800000
 20
3.525000
 30
0.0
 40
0.050000
 50
0.000000
 51
90.000000
  0
LINE
  8
Resist-B
 10
0.850000
 20
3.525000
 30
0.0
 11
0.850000
 21
3.275000
 31
0.0
  0
ARC
  8
Resist-B
 10
0.800000
 20
3.275000
 30
0.0
 40
0.050000
 50
-90.000000
 51
0.000000
  0
LINE
  8
Resist-B
 10
0.800000
 20
3.225000
 30
0.0
 11
0.300000
 21
3.225000
 31
0.0
  0
ARC
  8
LAY6
 10
2.625000
 20
6.550000
 30
0.0
 40
0.050000
 50
180.000000
 51
-90.000000
  0
LINE
  8
LAY6
 10
2.575000
 20
6.550000
 30
0.0
 11
2.575000
 21
6.950000
 31
0.0
  0
ARC
  8
LAY6
 10
2.625000
 20
6.950000
 30
0.0
 40
0.050000
 50
90.000000
 51
180.000000
  0
LINE
  8
LAY6
 10
2.625000
 20
7.000000
 30
0.0
 11
2.775000
 21
7.000000
 31
0.0
  0
ARC
  8
LAY6
 10
2.775000
 20
6.950000
 30
0.0
 40
0.050000
 50
0.000000
 51
90.000000
  0
LINE
  8
LAY6
 10
2.825000
 20
6.950000
 30
0.0
 11
2.825000
 21
6.550000
 31
0.0
  0
ARC
  8
LAY6
 10
2.775000
 20
6.550000
 30
0.0
 40
0.050000
 50
-90.000000
 51
0.000000
  0
LINE
  8
LAY6
 10
2.775000
 20
6.500000
 30
0.0
 11
2.625000
 21
6.500000
 31
0.0
  0
ARC
  8
Resist-B
 10
2.825000
 20
6.500000
 30
0.0
 40
0.050000
 50
-90.000000
 51
0.000000
  0
LINE
  8
Resist-B
 10
2.825000
 20
6.450000
 30
0.0
 11
2.575000
 21
6.450000
 31
0.0
  0
ARC
  8
Resist-B
 10
2.575000
 20
6.500000
 30
0.0
 40
0.050000
 50
180.000000
 51
-90.000000
  0
LINE
  8
Resist-B
 10
2.525000
 20
6.500000
 30
0.0
 11
2.525000
 21
7.000000
 31
0.0
  0
ARC
  8
Resist-B
 10
2.575000
 20
7.000000
 30
0.0
 40
0.050000
 50
90.000000
 51
180.000000
  0
LINE
  8
Resist-B
 10
2.575000
 20
7.050000
 30
0.0
 11
2.825000
 21
7.050000
 31
0.0
  0
ARC
  8
Resist-B
 10
2.825000
 20
7.000000
 30
0.0
 40
0.050000
 50
0.000000
 51
90.000000
  0
LINE
  8
Resist-B
 10
2.875000
 20
7.000000
 30
0.0
 11
2.875000
 21
6.500000
 31
0.0
  0
ARC
  8
LAY6
 10
4.125000
 20
6.550000
 30
0.0
 40
0.050000
 50
180.000000
 51
-90.000000
  0
LINE
  8
LAY6
 10
4.075000
 20
6.550000
 30
0.0
 11
4.075000
 21
6.950000
 31
0.0
  0
ARC
  8
LAY6
 10
4.125000
 20
6.950000
 30
0.0
 40
0.050000
 50
90.000000
 51
180.000000
  0
LINE
  8
LAY6
 10
4.125000
 20
7.000000
 30
0.0
 11
4.275000
 21
7.000000
 31
0.0
  0
ARC
  8
LAY6
 10
4.275000
 20
6.950000
 30
0.0
 40
0.050000
 50
0.000000
 51
90.000000
  0
LINE
  8
LAY6
 10
4.325000
 20
6.950000
 30
0.0
 11
4.325000
 21
6.550000
 31
0.0
  0
ARC
  8
LAY6
 10
4.275000
 20
6.550000
 30
0.0
 40
0.050000
 50
-90.000000
 51
0.000000
  0
LINE
  8
LAY6
 10
4.275000
 20
6.500000
 30
0.0
 11
4.125000
 21
6.500000
 31
0.0
  0
ARC
  8
Resist-B
 10
4.325000
 20
6.500000
 30
0.0
 40
0.050000
 50
-90.000000
 51
0.000000
  0
LINE
  8
Resist-B
 10
4.325000
 20
6.450000
 30
0.0
 11
4.075000
 21
6.450000
 31
0.0
  0
ARC
  8
Resist-B
 10
4.075000
 20
6.500000
 30
0.0
 40
0.050000
 50
180.000000
 51
-90.000000
  0
LINE
  8
Resist-B
 10
4.025000
 20
6.500000
 30
0.0
 11
4.025000
 21
7.000000
 31
0.0
  0
ARC
  8
Resist-B
 10
4.075000
 20
7.000000
 30
0.0
 40
0.050000
 50
90.000000
 51
180.000000
  0
LINE
  8
Resist-B
 10
4.075000
 20
7.050000
 30
0.0
 11
4.325000
 21
7.050000
 31
0.0
  0
ARC
  8
Resist-B
 10
4.325000
 20
7.000000
 30
0.0
 40
0.050000
 50
0.000000
 51
90.000000
  0
LINE
  8
Resist-B
 10
4.375000
 20
7.000000
 30
0.0
 11
4.375000
 21
6.500000
 31
0.0
  0
ARC
  8
LAY6
 10
3.125000
 20
6.550000
 30
0.0
 40
0.050000
 50
180.000000
 51
-90.000000
  0
LINE
  8
LAY6
 10
3.075000
 20
6.550000
 30
0.0
 11
3.075000
 21
6.950000
 31
0.0
  0
ARC
  8
LAY6
 10
3.125000
 20
6.950000
 30
0.0
 40
0.050000
 50
90.000000
 51
180.000000
  0
LINE
  8
LAY6
 10
3.125000
 20
7.000000
 30
0.0
 11
3.275000
 21
7.000000
 31
0.0
  0
ARC
  8
LAY6
 10
3.275000
 20
6.950000
 30
0.0
 40
0.050000
 50
0.000000
 51
90.000000
  0
LINE
  8
LAY6
 10
3.325000
 20
6.950000
 30
0.0
 11
3.325000
 21
6.550000
 31
0.0
  0
ARC
  8
LAY6
 10
3.275000
 20
6.550000
 30
0.0
 40
0.050000
 50
-90.000000
 51
0.000000
  0
LINE
  8
LAY6
 10
3.275000
 20
6.500000
 30
0.0
 11
3.125000
 21
6.500000
 31
0.0
  0
ARC
  8
Resist-B
 10
3.325000
 20
6.500000
 30
0.0
 40
0.050000
 50
-90.000000
 51
0.000000
  0
LINE
  8
Resist-B
 10
3.325000
 20
6.450000
 30
0.0
 11
3.075000
 21
6.450000
 31
0.0
  0
ARC
  8
Resist-B
 10
3.075000
 20
6.500000
 30
0.0
 40
0.050000
 50
180.000000
 51
-90.000000
  0
LINE
  8
Resist-B
 10
3.025000
 20
6.500000
 30
0.0
 11
3.025000
 21
7.000000
 31
0.0
  0
ARC
  8
Resist-B
 10
3.075000
 20
7.000000
 30
0.0
 40
0.050000
 50
90.000000
 51
180.000000
  0
LINE
  8
Resist-B
 10
3.075000
 20
7.050000
 30
0.0
 11
3.325000
 21
7.050000
 31
0.0
  0
ARC
  8
Resist-B
 10
3.325000
 20
7.000000
 30
0.0
 40
0.050000
 50
0.000000
 51
90.000000
  0
LINE
  8
Resist-B
 10
3.375000
 20
7.000000
 30
0.0
 11
3.375000
 21
6.500000
 31
0.0
  0
ARC
  8
LAY6
 10
3.625000
 20
6.550000
 30
0.0
 40
0.050000
 50
180.000000
 51
-90.000000
  0
LINE
  8
LAY6
 10
3.575000
 20
6.550000
 30
0.0
 11
3.575000
 21
6.950000
 31
0.0
  0
ARC
  8
LAY6
 10
3.625000
 20
6.950000
 30
0.0
 40
0.050000
 50
90.000000
 51
180.000000
  0
LINE
  8
LAY6
 10
3.625000
 20
7.000000
 30
0.0
 11
3.775000
 21
7.000000
 31
0.0
  0
ARC
  8
LAY6
 10
3.775000
 20
6.950000
 30
0.0
 40
0.050000
 50
0.000000
 51
90.000000
  0
LINE
  8
LAY6
 10
3.825000
 20
6.950000
 30
0.0
 11
3.825000
 21
6.550000
 31
0.0
  0
ARC
  8
LAY6
 10
3.775000
 20
6.550000
 30
0.0
 40
0.050000
 50
-90.000000
 51
0.000000
  0
LINE
  8
LAY6
 10
3.775000
 20
6.500000
 30
0.0
 11
3.625000
 21
6.500000
 31
0.0
  0
ARC
  8
Resist-B
 10
3.825000
 20
6.500000
 30
0.0
 40
0.050000
 50
-90.000000
 51
0.000000
  0
LINE
  8
Resist-B
 10
3.825000
 20
6.450000
 30
0.0
 11
3.575000
 21
6.450000
 31
0.0
  0
ARC
  8
Resist-B
 10
3.575000
 20
6.500000
 30
0.0
 40
0.050000
 50
180.000000
 51
-90.000000
  0
LINE
  8
Resist-B
 10
3.525000
 20
6.500000
 30
0.0
 11
3.525000
 21
7.000000
 31
0.0
  0
ARC
  8
Resist-B
 10
3.575000
 20
7.000000
 30
0.0
 40
0.050000
 50
90.000000
 51
180.000000
  0
LINE
  8
Resist-B
 10
3.575000
 20
7.050000
 30
0.0
 11
3.825000
 21
7.050000
 31
0.0
  0
ARC
  8
Resist-B
 10
3.825000
 20
7.000000
 30
0.0
 40
0.050000
 50
0.000000
 51
90.000000
  0
LINE
  8
Resist-B
 10
3.875000
 20
7.000000
 30
0.0
 11
3.875000
 21
6.500000
 31
0.0
  0
ARC
  8
LAY6
 10
7.150000
 20
6.975000
 30
0.0
 40
0.050000
 50
90.000000
 51
180.000000
  0
LINE
  8
LAY6
 10
7.150000
 20
7.025000
 30
0.0
 11
7.550000
 21
7.025000
 31
0.0
  0
ARC
  8
LAY6
 10
7.550000
 20
6.975000
 30
0.0
 40
0.050000
 50
0.000000
 51
90.000000
  0
LINE
  8
LAY6
 10
7.600000
 20
6.975000
 30
0.0
 11
7.600000
 21
6.825000
 31
0.0
  0
ARC
  8
LAY6
 10
7.550000
 20
6.825000
 30
0.0
 40
0.050000
 50
-90.000000
 51
0.000000
  0
LINE
  8
LAY6
 10
7.550000
 20
6.775000
 30
0.0
 11
7.150000
 21
6.775000
 31
0.0
  0
ARC
  8
LAY6
 10
7.150000
 20
6.825000
 30
0.0
 40
0.050000
 50
180.000000
 51
-90.000000
  0
LINE
  8
LAY6
 10
7.100000
 20
6.825000
 30
0.0
 11
7.100000
 21
6.975000
 31
0.0
  0
ARC
  8
Resist-B
 10
7.100000
 20
6.775000
 30
0.0
 40
0.050000
 50
180.000000
 51
-90.000000
  0
LINE
  8
Resist-B
 10
7.050000
 20
6.775000
 30
0.0
 11
7.050000
 21
7.025000
 31
0.0
  0
ARC
  8
Resist-B
 10
7.100000
 20
7.025000
 30
0.0
 40
0.050000
 50
90.000000
 51
180.000000
  0
LINE
  8
Resist-B
 10
7.100000
 20
7.075000
 30
0.0
 11
7.600000
 21
7.075000
 31
0.0
  0
ARC
  8
Resist-B
 10
7.600000
 20
7.025000
 30
0.0
 40
0.050000
 50
0.000000
 51
90.000000
  0
LINE
  8
Resist-B
 10
7.650000
 20
7.025000
 30
0.0
 11
7.650000
 21
6.775000
 31
0.0
  0
ARC
  8
Resist-B
 10
7.600000
 20
6.775000
 30
0.0
 40
0.050000
 50
-90.000000
 51
0.000000
  0
LINE
  8
Resist-B
 10
7.600000
 20
6.725000
 30
0.0
 11
7.100000
 21
6.725000
 31
0.0
  0
ARC
  8
LAY6
 10
6.625000
 20
6.550000
 30
0.0
 40
0.050000
 50
180.000000
 51
-90.000000
  0
LINE
  8
LAY6
 10
6.575000
 20
6.550000
 30
0.0
 11
6.575000
 21
6.950000
 31
0.0
  0
ARC
  8
LAY6
 10
6.625000
 20
6.950000
 30
0.0
 40
0.050000
 50
90.000000
 51
180.000000
  0
LINE
  8
LAY6
 10
6.625000
 20
7.000000
 30
0.0
 11
6.775000
 21
7.000000
 31
0.0
  0
ARC
  8
LAY6
 10
6.775000
 20
6.950000
 30
0.0
 40
0.050000
 50
0.000000
 51
90.000000
  0
LINE
  8
LAY6
 10
6.825000
 20
6.950000
 30
0.0
 11
6.825000
 21
6.550000
 31
0.0
  0
ARC
  8
LAY6
 10
6.775000
 20
6.550000
 30
0.0
 40
0.050000
 50
-90.000000
 51
0.000000
  0
LINE
  8
LAY6
 10
6.775000
 20
6.500000
 30
0.0
 11
6.625000
 21
6.500000
 31
0.0
  0
ARC
  8
Resist-B
 10
6.825000
 20
6.500000
 30
0.0
 40
0.050000
 50
-90.000000
 51
0.000000
  0
LINE
  8
Resist-B
 10
6.825000
 20
6.450000
 30
0.0
 11
6.575000
 21
6.450000
 31
0.0
  0
ARC
  8
Resist-B
 10
6.575000
 20
6.500000
 30
0.0
 40
0.050000
 50
180.000000
 51
-90.000000
  0
LINE
  8
Resist-B
 10
6.525000
 20
6.500000
 30
0.0
 11
6.525000
 21
7.000000
 31
0.0
  0
ARC
  8
Resist-B
 10
6.575000
 20
7.000000
 30
0.0
 40
0.050000
 50
90.000000
 51
180.000000
  0
LINE
  8
Resist-B
 10
6.575000
 20
7.050000
 30
0.0
 11
6.825000
 21
7.050000
 31
0.0
  0
ARC
  8
Resist-B
 10
6.825000
 20
7.000000
 30
0.0
 40
0.050000
 50
0.000000
 51
90.000000
  0
LINE
  8
Resist-B
 10
6.875000
 20
7.000000
 30
0.0
 11
6.875000
 21
6.500000
 31
0.0
  0
ARC
  8
LAY6
 10
7.150000
 20
5.475000
 30
0.0
 40
0.050000
 50
90.000000
 51
180.000000
  0
LINE
  8
LAY6
 10
7.150000
 20
5.525000
 30
0.0
 11
7.550000
 21
5.525000
 31
0.0
  0
ARC
  8
LAY6
 10
7.550000
 20
5.475000
 30
0.0
 40
0.050000
 50
0.000000
 51
90.000000
  0
LINE
  8
LAY6
 10
7.600000
 20
5.475000
 30
0.0
 11
7.600000
 21
5.325000
 31
0.0
  0
ARC
  8
LAY6
 10
7.550000
 20
5.325000
 30
0.0
 40
0.050000
 50
-90.000000
 51
0.000000
  0
LINE
  8
LAY6
 10
7.550000
 20
5.275000
 30
0.0
 11
7.150000
 21
5.275000
 31
0.0
  0
ARC
  8
LAY6
 10
7.150000
 20
5.325000
 30
0.0
 40
0.050000
 50
180.000000
 51
-90.000000
  0
LINE
  8
LAY6
 10
7.100000
 20
5.325000
 30
0.0
 11
7.100000
 21
5.475000
 31
0.0
  0
ARC
  8
Resist-B
 10
7.100000
 20
5.275000
 30
0.0
 40
0.050000
 50
180.000000
 51
-90.000000
  0
LINE
  8
Resist-B
 10
7.050000
 20
5.275000
 30
0.0
 11
7.050000
 21
5.525000
 31
0.0
  0
ARC
  8
Resist-B
 10
7.100000
 20
5.525000
 30
0.0
 40
0.050000
 50
90.000000
 51
180.000000
  0
LINE
  8
Resist-B
 10
7.100000
 20
5.575000
 30
0.0
 11
7.600000
 21
5.575000
 31
0.0
  0
ARC
  8
Resist-B
 10
7.600000
 20
5.525000
 30
0.0
 40
0.050000
 50
0.000000
 51
90.000000
  0
LINE
  8
Resist-B
 10
7.650000
 20
5.525000
 30
0.0
 11
7.650000
 21
5.275000
 31
0.0
  0
ARC
  8
Resist-B
 10
7.600000
 20
5.275000
 30
0.0
 40
0.050000
 50
-90.000000
 51
0.000000
  0
LINE
  8
Resist-B
 10
7.600000
 20
5.225000
 30
0.0
 11
7.100000
 21
5.225000
 31
0.0
  0
ARC
  8
LAY6
 10
7.150000
 20
4.975000
 30
0.0
 40
0.050000
 50
90.000000
 51
180.000000
  0
LINE
  8
LAY6
 10
7.150000
 20
5.025000
 30
0.0
 11
7.550000
 21
5.025000
 31
0.0
  0
ARC
  8
LAY6
 10
7.550000
 20
4.975000
 30
0.0
 40
0.050000
 50
0.000000
 51
90.000000
  0
LINE
  8
LAY6
 10
7.600000
 20
4.975000
 30
0.0
 11
7.600000
 21
4.825000
 31
0.0
  0
ARC
  8
LAY6
 10
7.550000
 20
4.825000
 30
0.0
 40
0.050000
 50
-90.000000
 51
0.000000
  0
LINE
  8
LAY6
 10
7.550000
 20
4.775000
 30
0.0
 11
7.150000
 21
4.775000
 31
0.0
  0
ARC
  8
LAY6
 10
7.150000
 20
4.825000
 30
0.0
 40
0.050000
 50
180.000000
 51
-90.000000
  0
LINE
  8
LAY6
 10
7.100000
 20
4.825000
 30
0.0
 11
7.100000
 21
4.975000
 31
0.0
  0
ARC
  8
Resist-B
 10
7.100000
 20
4.775000
 30
0.0
 40
0.050000
 50
180.000000
 51
-90.000000
  0
LINE
  8
Resist-B
 10
7.050000
 20
4.775000
 30
0.0
 11
7.050000
 21
5.025000
 31
0.0
  0
ARC
  8
Resist-B
 10
7.100000
 20
5.025000
 30
0.0
 40
0.050000
 50
90.000000
 51
180.000000
  0
LINE
  8
Resist-B
 10
7.100000
 20
5.075000
 30
0.0
 11
7.600000
 21
5.075000
 31
0.0
  0
ARC
  8
Resist-B
 10
7.600000
 20
5.025000
 30
0.0
 40
0.050000
 50
0.000000
 51
90.000000
  0
LINE
  8
Resist-B
 10
7.650000
 20
5.025000
 30
0.0
 11
7.650000
 21
4.775000
 31
0.0
  0
ARC
  8
Resist-B
 10
7.600000
 20
4.775000
 30
0.0
 40
0.050000
 50
-90.000000
 51
0.000000
  0
LINE
  8
Resist-B
 10
7.600000
 20
4.725000
 30
0.0
 11
7.100000
 21
4.725000
 31
0.0
  0
ARC
  8
LAY6
 10
6.125000
 20
0.350000
 30
0.0
 40
0.050000
 50
180.000000
 51
-90.000000
  0
LINE
  8
LAY6
 10
6.075000
 20
0.350000
 30
0.0
 11
6.075000
 21
0.750000
 31
0.0
  0
ARC
  8
LAY6
 10
6.125000
 20
0.750000
 30
0.0
 40
0.050000
 50
90.000000
 51
180.000000
  0
LINE
  8
LAY6
 10
6.125000
 20
0.800000
 30
0.0
 11
6.275000
 21
0.800000
 31
0.0
  0
ARC
  8
LAY6
 10
6.275000
 20
0.750000
 30
0.0
 40
0.050000
 50
0.000000
 51
90.000000
  0
LINE
  8
LAY6
 10
6.325000
 20
0.750000
 30
0.0
 11
6.325000
 21
0.350000
 31
0.0
  0
ARC
  8
LAY6
 10
6.275000
 20
0.350000
 30
0.0
 40
0.050000
 50
-90.000000
 51
0.000000
  0
LINE
  8
LAY6
 10
6.275000
 20
0.300000
 30
0.0
 11
6.125000
 21
0.300000
 31
0.0
  0
ARC
  8
Resist-B
 10
6.325000
 20
0.300000
 30
0.0
 40
0.050000
 50
-90.000000
 51
0.000000
  0
LINE
  8
Resist-B
 10
6.325000
 20
0.250000
 30
0.0
 11
6.075000
 21
0.250000
 31
0.0
  0
ARC
  8
Resist-B
 10
6.075000
 20
0.300000
 30
0.0
 40
0.050000
 50
180.000000
 51
-90.000000
  0
LINE
  8
Resist-B
 10
6.025000
 20
0.300000
 30
0.0
 11
6.025000
 21
0.800000
 31
0.0
  0
ARC
  8
Resist-B
 10
6.075000
 20
0.800000
 30
0.0
 40
0.050000
 50
90.000000
 51
180.000000
  0
LINE
  8
Resist-B
 10
6.075000
 20
0.850000
 30
0.0
 11
6.325000
 21
0.850000
 31
0.0
  0
ARC
  8
Resist-B
 10
6.325000
 20
0.800000
 30
0.0
 40
0.050000
 50
0.000000
 51
90.000000
  0
LINE
  8
Resist-B
 10
6.375000
 20
0.800000
 30
0.0
 11
6.375000
 21
0.300000
 31
0.0
  0
ARC
  8
LAY6
 10
6.125000
 20
6.550000
 30
0.0
 40
0.050000
 50
180.000000
 51
-90.000000
  0
LINE
  8
LAY6
 10
6.075000
 20
6.550000
 30
0.0
 11
6.075000
 21
6.950000
 31
0.0
  0
ARC
  8
LAY6
 10
6.125000
 20
6.950000
 30
0.0
 40
0.050000
 50
90.000000
 51
180.000000
  0
LINE
  8
LAY6
 10
6.125000
 20
7.000000
 30
0.0
 11
6.275000
 21
7.000000
 31
0.0
  0
ARC
  8
LAY6
 10
6.275000
 20
6.950000
 30
0.0
 40
0.050000
 50
0.000000
 51
90.000000
  0
LINE
  8
LAY6
 10
6.325000
 20
6.950000
 30
0.0
 11
6.325000
 21
6.550000
 31
0.0
  0
ARC
  8
LAY6
 10
6.275000
 20
6.550000
 30
0.0
 40
0.050000
 50
-90.000000
 51
0.000000
  0
LINE
  8
LAY6
 10
6.275000
 20
6.500000
 30
0.0
 11
6.125000
 21
6.500000
 31
0.0
  0
ARC
  8
Resist-B
 10
6.325000
 20
6.500000
 30
0.0
 40
0.050000
 50
-90.000000
 51
0.000000
  0
LINE
  8
Resist-B
 10
6.325000
 20
6.450000
 30
0.0
 11
6.075000
 21
6.450000
 31
0.0
  0
ARC
  8
Resist-B
 10
6.075000
 20
6.500000
 30
0.0
 40
0.050000
 50
180.000000
 51
-90.000000
  0
LINE
  8
Resist-B
 10
6.025000
 20
6.500000
 30
0.0
 11
6.025000
 21
7.000000
 31
0.0
  0
ARC
  8
Resist-B
 10
6.075000
 20
7.000000
 30
0.0
 40
0.050000
 50
90.000000
 51
180.000000
  0
LINE
  8
Resist-B
 10
6.075000
 20
7.050000
 30
0.0
 11
6.325000
 21
7.050000
 31
0.0
  0
ARC
  8
Resist-B
 10
6.325000
 20
7.000000
 30
0.0
 40
0.050000
 50
0.000000
 51
90.000000
  0
LINE
  8
Resist-B
 10
6.375000
 20
7.000000
 30
0.0
 11
6.375000
 21
6.500000
 31
0.0
  0
ARC
  8
LAY6
 10
7.150000
 20
6.475000
 30
0.0
 40
0.050000
 50
90.000000
 51
180.000000
  0
LINE
  8
LAY6
 10
7.150000
 20
6.525000
 30
0.0
 11
7.550000
 21
6.525000
 31
0.0
  0
ARC
  8
LAY6
 10
7.550000
 20
6.475000
 30
0.0
 40
0.050000
 50
0.000000
 51
90.000000
  0
LINE
  8
LAY6
 10
7.600000
 20
6.475000
 30
0.0
 11
7.600000
 21
6.325000
 31
0.0
  0
ARC
  8
LAY6
 10
7.550000
 20
6.325000
 30
0.0
 40
0.050000
 50
-90.000000
 51
0.000000
  0
LINE
  8
LAY6
 10
7.550000
 20
6.275000
 30
0.0
 11
7.150000
 21
6.275000
 31
0.0
  0
ARC
  8
LAY6
 10
7.150000
 20
6.325000
 30
0.0
 40
0.050000
 50
180.000000
 51
-90.000000
  0
LINE
  8
LAY6
 10
7.100000
 20
6.325000
 30
0.0
 11
7.100000
 21
6.475000
 31
0.0
  0
ARC
  8
Resist-B
 10
7.100000
 20
6.275000
 30
0.0
 40
0.050000
 50
180.000000
 51
-90.000000
  0
LINE
  8
Resist-B
 10
7.050000
 20
6.275000
 30
0.0
 11
7.050000
 21
6.525000
 31
0.0
  0
ARC
  8
Resist-B
 10
7.100000
 20
6.525000
 30
0.0
 40
0.050000
 50
90.000000
 51
180.000000
  0
LINE
  8
Resist-B
 10
7.100000
 20
6.575000
 30
0.0
 11
7.600000
 21
6.575000
 31
0.0
  0
ARC
  8
Resist-B
 10
7.600000
 20
6.525000
 30
0.0
 40
0.050000
 50
0.000000
 51
90.000000
  0
LINE
  8
Resist-B
 10
7.650000
 20
6.525000
 30
0.0
 11
7.650000
 21
6.275000
 31
0.0
  0
ARC
  8
Resist-B
 10
7.600000
 20
6.275000
 30
0.0
 40
0.050000
 50
-90.000000
 51
0.000000
  0
LINE
  8
Resist-B
 10
7.600000
 20
6.225000
 30
0.0
 11
7.100000
 21
6.225000
 31
0.0
  0
ARC
  8
LAY6
 10
4.625000
 20
0.350000
 30
0.0
 40
0.050000
 50
180.000000
 51
-90.000000
  0
LINE
  8
LAY6
 10
4.575000
 20
0.350000
 30
0.0
 11
4.575000
 21
0.750000
 31
0.0
  0
ARC
  8
LAY6
 10
4.625000
 20
0.750000
 30
0.0
 40
0.050000
 50
90.000000
 51
180.000000
  0
LINE
  8
LAY6
 10
4.625000
 20
0.800000
 30
0.0
 11
4.775000
 21
0.800000
 31
0.0
  0
ARC
  8
LAY6
 10
4.775000
 20
0.750000
 30
0.0
 40
0.050000
 50
0.000000
 51
90.000000
  0
LINE
  8
LAY6
 10
4.825000
 20
0.750000
 30
0.0
 11
4.825000
 21
0.350000
 31
0.0
  0
ARC
  8
LAY6
 10
4.775000
 20
0.350000
 30
0.0
 40
0.050000
 50
-90.000000
 51
0.000000
  0
LINE
  8
LAY6
 10
4.775000
 20
0.300000
 30
0.0
 11
4.625000
 21
0.300000
 31
0.0
  0
ARC
  8
Resist-B
 10
4.825000
 20
0.300000
 30
0.0
 40
0.050000
 50
-90.000000
 51
0.000000
  0
LINE
  8
Resist-B
 10
4.825000
 20
0.250000
 30
0.0
 11
4.575000
 21
0.250000
 31
0.0
  0
ARC
  8
Resist-B
 10
4.575000
 20
0.300000
 30
0.0
 40
0.050000
 50
180.000000
 51
-90.000000
  0
LINE
  8
Resist-B
 10
4.525000
 20
0.300000
 30
0.0
 11
4.525000
 21
0.800000
 31
0.0
  0
ARC
  8
Resist-B
 10
4.575000
 20
0.800000
 30
0.0
 40
0.050000
 50
90.000000
 51
180.000000
  0
LINE
  8
Resist-B
 10
4.575000
 20
0.850000
 30
0.0
 11
4.825000
 21
0.850000
 31
0.0
  0
ARC
  8
Resist-B
 10
4.825000
 20
0.800000
 30
0.0
 40
0.050000
 50
0.000000
 51
90.000000
  0
LINE
  8
Resist-B
 10
4.875000
 20
0.800000
 30
0.0
 11
4.875000
 21
0.300000
 31
0.0
  0
ARC
  8
LAY6
 10
5.125000
 20
0.350000
 30
0.0
 40
0.050000
 50
180.000000
 51
-90.000000
  0
LINE
  8
LAY6
 10
5.075000
 20
0.350000
 30
0.0
 11
5.075000
 21
0.750000
 31
0.0
  0
ARC
  8
LAY6
 10
5.125000
 20
0.750000
 30
0.0
 40
0.050000
 50
90.000000
 51
180.000000
  0
LINE
  8
LAY6
 10
5.125000
 20
0.800000
 30
0.0
 11
5.275000
 21
0.800000
 31
0.0
  0
ARC
  8
LAY6
 10
5.275000
 20
0.750000
 30
0.0
 40
0.050000
 50
0.000000
 51
90.000000
  0
LINE
  8
LAY6
 10
5.325000
 20
0.750000
 30
0.0
 11
5.325000
 21
0.350000
 31
0.0
  0
ARC
  8
LAY6
 10
5.275000
 20
0.350000
 30
0.0
 40
0.050000
 50
-90.000000
 51
0.000000
  0
LINE
  8
LAY6
 10
5.275000
 20
0.300000
 30
0.0
 11
5.125000
 21
0.300000
 31
0.0
  0
ARC
  8
Resist-B
 10
5.325000
 20
0.300000
 30
0.0
 40
0.050000
 50
-90.000000
 51
0.000000
  0
LINE
  8
Resist-B
 10
5.325000
 20
0.250000
 30
0.0
 11
5.075000
 21
0.250000
 31
0.0
  0
ARC
  8
Resist-B
 10
5.075000
 20
0.300000
 30
0.0
 40
0.050000
 50
180.000000
 51
-90.000000
  0
LINE
  8
Resist-B
 10
5.025000
 20
0.300000
 30
0.0
 11
5.025000
 21
0.800000
 31
0.0
  0
ARC
  8
Resist-B
 10
5.075000
 20
0.800000
 30
0.0
 40
0.050000
 50
90.000000
 51
180.000000
  0
LINE
  8
Resist-B
 10
5.075000
 20
0.850000
 30
0.0
 11
5.325000
 21
0.850000
 31
0.0
  0
ARC
  8
Resist-B
 10
5.325000
 20
0.800000
 30
0.0
 40
0.050000
 50
0.000000
 51
90.000000
  0
LINE
  8
Resist-B
 10
5.375000
 20
0.800000
 30
0.0
 11
5.375000
 21
0.300000
 31
0.0
  0
ARC
  8
LAY6
 10
0.350000
 20
6.475000
 30
0.0
 40
0.050000
 50
90.000000
 51
180.000000
  0
LINE
  8
LAY6
 10
0.350000
 20
6.525000
 30
0.0
 11
0.750000
 21
6.525000
 31
0.0
  0
ARC
  8
LAY6
 10
0.750000
 20
6.475000
 30
0.0
 40
0.050000
 50
0.000000
 51
90.000000
  0
LINE
  8
LAY6
 10
0.800000
 20
6.475000
 30
0.0
 11
0.800000
 21
6.325000
 31
0.0
  0
ARC
  8
LAY6
 10
0.750000
 20
6.325000
 30
0.0
 40
0.050000
 50
-90.000000
 51
0.000000
  0
LINE
  8
LAY6
 10
0.750000
 20
6.275000
 30
0.0
 11
0.350000
 21
6.275000
 31
0.0
  0
ARC
  8
LAY6
 10
0.350000
 20
6.325000
 30
0.0
 40
0.050000
 50
180.000000
 51
-90.000000
  0
LINE
  8
LAY6
 10
0.300000
 20
6.325000
 30
0.0
 11
0.300000
 21
6.475000
 31
0.0
  0
ARC
  8
Resist-B
 10
0.300000
 20
6.275000
 30
0.0
 40
0.050000
 50
180.000000
 51
-90.000000
  0
LINE
  8
Resist-B
 10
0.250000
 20
6.275000
 30
0.0
 11
0.250000
 21
6.525000
 31
0.0
  0
ARC
  8
Resist-B
 10
0.300000
 20
6.525000
 30
0.0
 40
0.050000
 50
90.000000
 51
180.000000
  0
LINE
  8
Resist-B
 10
0.300000
 20
6.575000
 30
0.0
 11
0.800000
 21
6.575000
 31
0.0
  0
ARC
  8
Resist-B
 10
0.800000
 20
6.525000
 30
0.0
 40
0.050000
 50
0.000000
 51
90.000000
  0
LINE
  8
Resist-B
 10
0.850000
 20
6.525000
 30
0.0
 11
0.850000
 21
6.275000
 31
0.0
  0
ARC
  8
Resist-B
 10
0.800000
 20
6.275000
 30
0.0
 40
0.050000
 50
-90.000000
 51
0.000000
  0
LINE
  8
Resist-B
 10
0.800000
 20
6.225000
 30
0.0
 11
0.300000
 21
6.225000
 31
0.0
  0
ARC
  8
LAY6
 10
0.350000
 20
5.975000
 30
0.0
 40
0.050000
 50
90.000000
 51
180.000000
  0
LINE
  8
LAY6
 10
0.350000
 20
6.025000
 30
0.0
 11
0.750000
 21
6.025000
 31
0.0
  0
ARC
  8
LAY6
 10
0.750000
 20
5.975000
 30
0.0
 40
0.050000
 50
0.000000
 51
90.000000
  0
LINE
  8
LAY6
 10
0.800000
 20
5.975000
 30
0.0
 11
0.800000
 21
5.825000
 31
0.0
  0
ARC
  8
LAY6
 10
0.750000
 20
5.825000
 30
0.0
 40
0.050000
 50
-90.000000
 51
0.000000
  0
LINE
  8
LAY6
 10
0.750000
 20
5.775000
 30
0.0
 11
0.350000
 21
5.775000
 31
0.0
  0
ARC
  8
LAY6
 10
0.350000
 20
5.825000
 30
0.0
 40
0.050000
 50
180.000000
 51
-90.000000
  0
LINE
  8
LAY6
 10
0.300000
 20
5.825000
 30
0.0
 11
0.300000
 21
5.975000
 31
0.0
  0
ARC
  8
Resist-B
 10
0.300000
 20
5.775000
 30
0.0
 40
0.050000
 50
180.000000
 51
-90.000000
  0
LINE
  8
Resist-B
 10
0.250000
 20
5.775000
 30
0.0
 11
0.250000
 21
6.025000
 31
0.0
  0
ARC
  8
Resist-B
 10
0.300000
 20
6.025000
 30
0.0
 40
0.050000
 50
90.000000
 51
180.000000
  0
LINE
  8
Resist-B
 10
0.300000
 20
6.075000
 30
0.0
 11
0.800000
 21
6.075000
 31
0.0
  0
ARC
  8
Resist-B
 10
0.800000
 20
6.025000
 30
0.0
 40
0.050000
 50
0.000000
 51
90.000000
  0
LINE
  8
Resist-B
 10
0.850000
 20
6.025000
 30
0.0
 11
0.850000
 21
5.775000
 31
0.0
  0
ARC
  8
Resist-B
 10
0.800000
 20
5.775000
 30
0.0
 40
0.050000
 50
-90.000000
 51
0.000000
  0
LINE
  8
Resist-B
 10
0.800000
 20
5.725000
 30
0.0
 11
0.300000
 21
5.725000
 31
0.0
  0
ARC
  8
LAY6
 10
3.625000
 20
5.400000
 30
0.0
 40
0.050000
 50
180.000000
 51
-90.000000
  0
LINE
  8
LAY6
 10
3.575000
 20
5.400000
 30
0.0
 11
3.575000
 21
5.800000
 31
0.0
  0
ARC
  8
LAY6
 10
3.625000
 20
5.800000
 30
0.0
 40
0.050000
 50
90.000000
 51
180.000000
  0
LINE
  8
LAY6
 10
3.625000
 20
5.850000
 30
0.0
 11
3.775000
 21
5.850000
 31
0.0
  0
ARC
  8
LAY6
 10
3.775000
 20
5.800000
 30
0.0
 40
0.050000
 50
0.000000
 51
90.000000
  0
LINE
  8
LAY6
 10
3.825000
 20
5.800000
 30
0.0
 11
3.825000
 21
5.400000
 31
0.0
  0
ARC
  8
LAY6
 10
3.775000
 20
5.400000
 30
0.0
 40
0.050000
 50
-90.000000
 51
0.000000
  0
LINE
  8
LAY6
 10
3.775000
 20
5.350000
 30
0.0
 11
3.625000
 21
5.350000
 31
0.0
  0
ARC
  8
Resist-B
 10
3.825000
 20
5.350000
 30
0.0
 40
0.050000
 50
-90.000000
 51
0.000000
  0
LINE
  8
Resist-B
 10
3.825000
 20
5.300000
 30
0.0
 11
3.575000
 21
5.300000
 31
0.0
  0
ARC
  8
Resist-B
 10
3.575000
 20
5.350000
 30
0.0
 40
0.050000
 50
180.000000
 51
-90.000000
  0
LINE
  8
Resist-B
 10
3.525000
 20
5.350000
 30
0.0
 11
3.525000
 21
5.850000
 31
0.0
  0
ARC
  8
Resist-B
 10
3.575000
 20
5.850000
 30
0.0
 40
0.050000
 50
90.000000
 51
180.000000
  0
LINE
  8
Resist-B
 10
3.575000
 20
5.900000
 30
0.0
 11
3.825000
 21
5.900000
 31
0.0
  0
ARC
  8
Resist-B
 10
3.825000
 20
5.850000
 30
0.0
 40
0.050000
 50
0.000000
 51
90.000000
  0
LINE
  8
Resist-B
 10
3.875000
 20
5.850000
 30
0.0
 11
3.875000
 21
5.350000
 31
0.0
  0
ARC
  8
LAY6
 10
4.125000
 20
5.400000
 30
0.0
 40
0.050000
 50
180.000000
 51
-90.000000
  0
LINE
  8
LAY6
 10
4.075000
 20
5.400000
 30
0.0
 11
4.075000
 21
5.800000
 31
0.0
  0
ARC
  8
LAY6
 10
4.125000
 20
5.800000
 30
0.0
 40
0.050000
 50
90.000000
 51
180.000000
  0
LINE
  8
LAY6
 10
4.125000
 20
5.850000
 30
0.0
 11
4.275000
 21
5.850000
 31
0.0
  0
ARC
  8
LAY6
 10
4.275000
 20
5.800000
 30
0.0
 40
0.050000
 50
0.000000
 51
90.000000
  0
LINE
  8
LAY6
 10
4.325000
 20
5.800000
 30
0.0
 11
4.325000
 21
5.400000
 31
0.0
  0
ARC
  8
LAY6
 10
4.275000
 20
5.400000
 30
0.0
 40
0.050000
 50
-90.000000
 51
0.000000
  0
LINE
  8
LAY6
 10
4.275000
 20
5.350000
 30
0.0
 11
4.125000
 21
5.350000
 31
0.0
  0
ARC
  8
Resist-B
 10
4.325000
 20
5.350000
 30
0.0
 40
0.050000
 50
-90.000000
 51
0.000000
  0
LINE
  8
Resist-B
 10
4.325000
 20
5.300000
 30
0.0
 11
4.075000
 21
5.300000
 31
0.0
  0
ARC
  8
Resist-B
 10
4.075000
 20
5.350000
 30
0.0
 40
0.050000
 50
180.000000
 51
-90.000000
  0
LINE
  8
Resist-B
 10
4.025000
 20
5.350000
 30
0.0
 11
4.025000
 21
5.850000
 31
0.0
  0
ARC
  8
Resist-B
 10
4.075000
 20
5.850000
 30
0.0
 40
0.050000
 50
90.000000
 51
180.000000
  0
LINE
  8
Resist-B
 10
4.075000
 20
5.900000
 30
0.0
 11
4.325000
 21
5.900000
 31
0.0
  0
ARC
  8
Resist-B
 10
4.325000
 20
5.850000
 30
0.0
 40
0.050000
 50
0.000000
 51
90.000000
  0
LINE
  8
Resist-B
 10
4.375000
 20
5.850000
 30
0.0
 11
4.375000
 21
5.350000
 31
0.0
  0
ARC
  8
LAY6
 10
4.625000
 20
5.400000
 30
0.0
 40
0.050000
 50
180.000000
 51
-90.000000
  0
LINE
  8
LAY6
 10
4.575000
 20
5.400000
 30
0.0
 11
4.575000
 21
5.800000
 31
0.0
  0
ARC
  8
LAY6
 10
4.625000
 20
5.800000
 30
0.0
 40
0.050000
 50
90.000000
 51
180.000000
  0
LINE
  8
LAY6
 10
4.625000
 20
5.850000
 30
0.0
 11
4.775000
 21
5.850000
 31
0.0
  0
ARC
  8
LAY6
 10
4.775000
 20
5.800000
 30
0.0
 40
0.050000
 50
0.000000
 51
90.000000
  0
LINE
  8
LAY6
 10
4.825000
 20
5.800000
 30
0.0
 11
4.825000
 21
5.400000
 31
0.0
  0
ARC
  8
LAY6
 10
4.775000
 20
5.400000
 30
0.0
 40
0.050000
 50
-90.000000
 51
0.000000
  0
LINE
  8
LAY6
 10
4.775000
 20
5.350000
 30
0.0
 11
4.625000
 21
5.350000
 31
0.0
  0
ARC
  8
Resist-B
 10
4.825000
 20
5.350000
 30
0.0
 40
0.050000
 50
-90.000000
 51
0.000000
  0
LINE
  8
Resist-B
 10
4.825000
 20
5.300000
 30
0.0
 11
4.575000
 21
5.300000
 31
0.0
  0
ARC
  8
Resist-B
 10
4.575000
 20
5.350000
 30
0.0
 40
0.050000
 50
180.000000
 51
-90.000000
  0
LINE
  8
Resist-B
 10
4.525000
 20
5.350000
 30
0.0
 11
4.525000
 21
5.850000
 31
0.0
  0
ARC
  8
Resist-B
 10
4.575000
 20
5.850000
 30
0.0
 40
0.050000
 50
90.000000
 51
180.000000
  0
LINE
  8
Resist-B
 10
4.575000
 20
5.900000
 30
0.0
 11
4.825000
 21
5.900000
 31
0.0
  0
ARC
  8
Resist-B
 10
4.825000
 20
5.850000
 30
0.0
 40
0.050000
 50
0.000000
 51
90.000000
  0
LINE
  8
Resist-B
 10
4.875000
 20
5.850000
 30
0.0
 11
4.875000
 21
5.350000
 31
0.0
  0
ARC
  8
LAY6
 10
3.125000
 20
5.400000
 30
0.0
 40
0.050000
 50
180.000000
 51
-90.000000
  0
LINE
  8
LAY6
 10
3.075000
 20
5.400000
 30
0.0
 11
3.075000
 21
5.800000
 31
0.0
  0
ARC
  8
LAY6
 10
3.125000
 20
5.800000
 30
0.0
 40
0.050000
 50
90.000000
 51
180.000000
  0
LINE
  8
LAY6
 10
3.125000
 20
5.850000
 30
0.0
 11
3.275000
 21
5.850000
 31
0.0
  0
ARC
  8
LAY6
 10
3.275000
 20
5.800000
 30
0.0
 40
0.050000
 50
0.000000
 51
90.000000
  0
LINE
  8
LAY6
 10
3.325000
 20
5.800000
 30
0.0
 11
3.325000
 21
5.400000
 31
0.0
  0
ARC
  8
LAY6
 10
3.275000
 20
5.400000
 30
0.0
 40
0.050000
 50
-90.000000
 51
0.000000
  0
LINE
  8
LAY6
 10
3.275000
 20
5.350000
 30
0.0
 11
3.125000
 21
5.350000
 31
0.0
  0
ARC
  8
Resist-B
 10
3.325000
 20
5.350000
 30
0.0
 40
0.050000
 50
-90.000000
 51
0.000000
  0
LINE
  8
Resist-B
 10
3.325000
 20
5.300000
 30
0.0
 11
3.075000
 21
5.300000
 31
0.0
  0
ARC
  8
Resist-B
 10
3.075000
 20
5.350000
 30
0.0
 40
0.050000
 50
180.000000
 51
-90.000000
  0
LINE
  8
Resist-B
 10
3.025000
 20
5.350000
 30
0.0
 11
3.025000
 21
5.850000
 31
0.0
  0
ARC
  8
Resist-B
 10
3.075000
 20
5.850000
 30
0.0
 40
0.050000
 50
90.000000
 51
180.000000
  0
LINE
  8
Resist-B
 10
3.075000
 20
5.900000
 30
0.0
 11
3.325000
 21
5.900000
 31
0.0
  0
ARC
  8
Resist-B
 10
3.325000
 20
5.850000
 30
0.0
 40
0.050000
 50
0.000000
 51
90.000000
  0
LINE
  8
Resist-B
 10
3.375000
 20
5.850000
 30
0.0
 11
3.375000
 21
5.350000
 31
0.0
  0
ARC
  8
LAY6
 10
1.625000
 20
0.350000
 30
0.0
 40
0.050000
 50
180.000000
 51
-90.000000
  0
LINE
  8
LAY6
 10
1.575000
 20
0.350000
 30
0.0
 11
1.575000
 21
0.750000
 31
0.0
  0
ARC
  8
LAY6
 10
1.625000
 20
0.750000
 30
0.0
 40
0.050000
 50
90.000000
 51
180.000000
  0
LINE
  8
LAY6
 10
1.625000
 20
0.800000
 30
0.0
 11
1.775000
 21
0.800000
 31
0.0
  0
ARC
  8
LAY6
 10
1.775000
 20
0.750000
 30
0.0
 40
0.050000
 50
0.000000
 51
90.000000
  0
LINE
  8
LAY6
 10
1.825000
 20
0.750000
 30
0.0
 11
1.825000
 21
0.350000
 31
0.0
  0
ARC
  8
LAY6
 10
1.775000
 20
0.350000
 30
0.0
 40
0.050000
 50
-90.000000
 51
0.000000
  0
LINE
  8
LAY6
 10
1.775000
 20
0.300000
 30
0.0
 11
1.625000
 21
0.300000
 31
0.0
  0
ARC
  8
Resist-B
 10
1.825000
 20
0.300000
 30
0.0
 40
0.050000
 50
-90.000000
 51
0.000000
  0
LINE
  8
Resist-B
 10
1.825000
 20
0.250000
 30
0.0
 11
1.575000
 21
0.250000
 31
0.0
  0
ARC
  8
Resist-B
 10
1.575000
 20
0.300000
 30
0.0
 40
0.050000
 50
180.000000
 51
-90.000000
  0
LINE
  8
Resist-B
 10
1.525000
 20
0.300000
 30
0.0
 11
1.525000
 21
0.800000
 31
0.0
  0
ARC
  8
Resist-B
 10
1.575000
 20
0.800000
 30
0.0
 40
0.050000
 50
90.000000
 51
180.000000
  0
LINE
  8
Resist-B
 10
1.575000
 20
0.850000
 30
0.0
 11
1.825000
 21
0.850000
 31
0.0
  0
ARC
  8
Resist-B
 10
1.825000
 20
0.800000
 30
0.0
 40
0.050000
 50
0.000000
 51
90.000000
  0
LINE
  8
Resist-B
 10
1.875000
 20
0.800000
 30
0.0
 11
1.875000
 21
0.300000
 31
0.0
  0
ARC
  8
LAY6
 10
3.125000
 20
0.350000
 30
0.0
 40
0.050000
 50
180.000000
 51
-90.000000
  0
LINE
  8
LAY6
 10
3.075000
 20
0.350000
 30
0.0
 11
3.075000
 21
0.750000
 31
0.0
  0
ARC
  8
LAY6
 10
3.125000
 20
0.750000
 30
0.0
 40
0.050000
 50
90.000000
 51
180.000000
  0
LINE
  8
LAY6
 10
3.125000
 20
0.800000
 30
0.0
 11
3.275000
 21
0.800000
 31
0.0
  0
ARC
  8
LAY6
 10
3.275000
 20
0.750000
 30
0.0
 40
0.050000
 50
0.000000
 51
90.000000
  0
LINE
  8
LAY6
 10
3.325000
 20
0.750000
 30
0.0
 11
3.325000
 21
0.350000
 31
0.0
  0
ARC
  8
LAY6
 10
3.275000
 20
0.350000
 30
0.0
 40
0.050000
 50
-90.000000
 51
0.000000
  0
LINE
  8
LAY6
 10
3.275000
 20
0.300000
 30
0.0
 11
3.125000
 21
0.300000
 31
0.0
  0
ARC
  8
Resist-B
 10
3.325000
 20
0.300000
 30
0.0
 40
0.050000
 50
-90.000000
 51
0.000000
  0
LINE
  8
Resist-B
 10
3.325000
 20
0.250000
 30
0.0
 11
3.075000
 21
0.250000
 31
0.0
  0
ARC
  8
Resist-B
 10
3.075000
 20
0.300000
 30
0.0
 40
0.050000
 50
180.000000
 51
-90.000000
  0
LINE
  8
Resist-B
 10
3.025000
 20
0.300000
 30
0.0
 11
3.025000
 21
0.800000
 31
0.0
  0
ARC
  8
Resist-B
 10
3.075000
 20
0.800000
 30
0.0
 40
0.050000
 50
90.000000
 51
180.000000
  0
LINE
  8
Resist-B
 10
3.075000
 20
0.850000
 30
0.0
 11
3.325000
 21
0.850000
 31
0.0
  0
ARC
  8
Resist-B
 10
3.325000
 20
0.800000
 30
0.0
 40
0.050000
 50
0.000000
 51
90.000000
  0
LINE
  8
Resist-B
 10
3.375000
 20
0.800000
 30
0.0
 11
3.375000
 21
0.300000
 31
0.0
  0
ARC
  8
LAY6
 10
4.125000
 20
0.350000
 30
0.0
 40
0.050000
 50
180.000000
 51
-90.000000
  0
LINE
  8
LAY6
 10
4.075000
 20
0.350000
 30
0.0
 11
4.075000
 21
0.750000
 31
0.0
  0
ARC
  8
LAY6
 10
4.125000
 20
0.750000
 30
0.0
 40
0.050000
 50
90.000000
 51
180.000000
  0
LINE
  8
LAY6
 10
4.125000
 20
0.800000
 30
0.0
 11
4.275000
 21
0.800000
 31
0.0
  0
ARC
  8
LAY6
 10
4.275000
 20
0.750000
 30
0.0
 40
0.050000
 50
0.000000
 51
90.000000
  0
LINE
  8
LAY6
 10
4.325000
 20
0.750000
 30
0.0
 11
4.325000
 21
0.350000
 31
0.0
  0
ARC
  8
LAY6
 10
4.275000
 20
0.350000
 30
0.0
 40
0.050000
 50
-90.000000
 51
0.000000
  0
LINE
  8
LAY6
 10
4.275000
 20
0.300000
 30
0.0
 11
4.125000
 21
0.300000
 31
0.0
  0
ARC
  8
Resist-B
 10
4.325000
 20
0.300000
 30
0.0
 40
0.050000
 50
-90.000000
 51
0.000000
  0
LINE
  8
Resist-B
 10
4.325000
 20
0.250000
 30
0.0
 11
4.075000
 21
0.250000
 31
0.0
  0
ARC
  8
Resist-B
 10
4.075000
 20
0.300000
 30
0.0
 40
0.050000
 50
180.000000
 51
-90.000000
  0
LINE
  8
Resist-B
 10
4.025000
 20
0.300000
 30
0.0
 11
4.025000
 21
0.800000
 31
0.0
  0
ARC
  8
Resist-B
 10
4.075000
 20
0.800000
 30
0.0
 40
0.050000
 50
90.000000
 51
180.000000
  0
LINE
  8
Resist-B
 10
4.075000
 20
0.850000
 30
0.0
 11
4.325000
 21
0.850000
 31
0.0
  0
ARC
  8
Resist-B
 10
4.325000
 20
0.800000
 30
0.0
 40
0.050000
 50
0.000000
 51
90.000000
  0
LINE
  8
Resist-B
 10
4.375000
 20
0.800000
 30
0.0
 11
4.375000
 21
0.300000
 31
0.0
  0
ARC
  8
LAY6
 10
2.125000
 20
0.350000
 30
0.0
 40
0.050000
 50
180.000000
 51
-90.000000
  0
LINE
  8
LAY6
 10
2.075000
 20
0.350000
 30
0.0
 11
2.075000
 21
0.750000
 31
0.0
  0
ARC
  8
LAY6
 10
2.125000
 20
0.750000
 30
0.0
 40
0.050000
 50
90.000000
 51
180.000000
  0
LINE
  8
LAY6
 10
2.125000
 20
0.800000
 30
0.0
 11
2.275000
 21
0.800000
 31
0.0
  0
ARC
  8
LAY6
 10
2.275000
 20
0.750000
 30
0.0
 40
0.050000
 50
0.000000
 51
90.000000
  0
LINE
  8
LAY6
 10
2.325000
 20
0.750000
 30
0.0
 11
2.325000
 21
0.350000
 31
0.0
  0
ARC
  8
LAY6
 10
2.275000
 20
0.350000
 30
0.0
 40
0.050000
 50
-90.000000
 51
0.000000
  0
LINE
  8
LAY6
 10
2.275000
 20
0.300000
 30
0.0
 11
2.125000
 21
0.300000
 31
0.0
  0
ARC
  8
Resist-B
 10
2.325000
 20
0.300000
 30
0.0
 40
0.050000
 50
-90.000000
 51
0.000000
  0
LINE
  8
Resist-B
 10
2.325000
 20
0.250000
 30
0.0
 11
2.075000
 21
0.250000
 31
0.0
  0
ARC
  8
Resist-B
 10
2.075000
 20
0.300000
 30
0.0
 40
0.050000
 50
180.000000
 51
-90.000000
  0
LINE
  8
Resist-B
 10
2.025000
 20
0.300000
 30
0.0
 11
2.025000
 21
0.800000
 31
0.0
  0
ARC
  8
Resist-B
 10
2.075000
 20
0.800000
 30
0.0
 40
0.050000
 50
90.000000
 51
180.000000
  0
LINE
  8
Resist-B
 10
2.075000
 20
0.850000
 30
0.0
 11
2.325000
 21
0.850000
 31
0.0
  0
ARC
  8
Resist-B
 10
2.325000
 20
0.800000
 30
0.0
 40
0.050000
 50
0.000000
 51
90.000000
  0
LINE
  8
Resist-B
 10
2.375000
 20
0.800000
 30
0.0
 11
2.375000
 21
0.300000
 31
0.0
  0
ARC
  8
LAY6
 10
3.625000
 20
0.350000
 30
0.0
 40
0.050000
 50
180.000000
 51
-90.000000
  0
LINE
  8
LAY6
 10
3.575000
 20
0.350000
 30
0.0
 11
3.575000
 21
0.750000
 31
0.0
  0
ARC
  8
LAY6
 10
3.625000
 20
0.750000
 30
0.0
 40
0.050000
 50
90.000000
 51
180.000000
  0
LINE
  8
LAY6
 10
3.625000
 20
0.800000
 30
0.0
 11
3.775000
 21
0.800000
 31
0.0
  0
ARC
  8
LAY6
 10
3.775000
 20
0.750000
 30
0.0
 40
0.050000
 50
0.000000
 51
90.000000
  0
LINE
  8
LAY6
 10
3.825000
 20
0.750000
 30
0.0
 11
3.825000
 21
0.350000
 31
0.0
  0
ARC
  8
LAY6
 10
3.775000
 20
0.350000
 30
0.0
 40
0.050000
 50
-90.000000
 51
0.000000
  0
LINE
  8
LAY6
 10
3.775000
 20
0.300000
 30
0.0
 11
3.625000
 21
0.300000
 31
0.0
  0
ARC
  8
Resist-B
 10
3.825000
 20
0.300000
 30
0.0
 40
0.050000
 50
-90.000000
 51
0.000000
  0
LINE
  8
Resist-B
 10
3.825000
 20
0.250000
 30
0.0
 11
3.575000
 21
0.250000
 31
0.0
  0
ARC
  8
Resist-B
 10
3.575000
 20
0.300000
 30
0.0
 40
0.050000
 50
180.000000
 51
-90.000000
  0
LINE
  8
Resist-B
 10
3.525000
 20
0.300000
 30
0.0
 11
3.525000
 21
0.800000
 31
0.0
  0
ARC
  8
Resist-B
 10
3.575000
 20
0.800000
 30
0.0
 40
0.050000
 50
90.000000
 51
180.000000
  0
LINE
  8
Resist-B
 10
3.575000
 20
0.850000
 30
0.0
 11
3.825000
 21
0.850000
 31
0.0
  0
ARC
  8
Resist-B
 10
3.825000
 20
0.800000
 30
0.0
 40
0.050000
 50
0.000000
 51
90.000000
  0
LINE
  8
Resist-B
 10
3.875000
 20
0.800000
 30
0.0
 11
3.875000
 21
0.300000
 31
0.0
  0
ARC
  8
LAY6
 10
2.625000
 20
0.350000
 30
0.0
 40
0.050000
 50
180.000000
 51
-90.000000
  0
LINE
  8
LAY6
 10
2.575000
 20
0.350000
 30
0.0
 11
2.575000
 21
0.750000
 31
0.0
  0
ARC
  8
LAY6
 10
2.625000
 20
0.750000
 30
0.0
 40
0.050000
 50
90.000000
 51
180.000000
  0
LINE
  8
LAY6
 10
2.625000
 20
0.800000
 30
0.0
 11
2.775000
 21
0.800000
 31
0.0
  0
ARC
  8
LAY6
 10
2.775000
 20
0.750000
 30
0.0
 40
0.050000
 50
0.000000
 51
90.000000
  0
LINE
  8
LAY6
 10
2.825000
 20
0.750000
 30
0.0
 11
2.825000
 21
0.350000
 31
0.0
  0
ARC
  8
LAY6
 10
2.775000
 20
0.350000
 30
0.0
 40
0.050000
 50
-90.000000
 51
0.000000
  0
LINE
  8
LAY6
 10
2.775000
 20
0.300000
 30
0.0
 11
2.625000
 21
0.300000
 31
0.0
  0
ARC
  8
Resist-B
 10
2.825000
 20
0.300000
 30
0.0
 40
0.050000
 50
-90.000000
 51
0.000000
  0
LINE
  8
Resist-B
 10
2.825000
 20
0.250000
 30
0.0
 11
2.575000
 21
0.250000
 31
0.0
  0
ARC
  8
Resist-B
 10
2.575000
 20
0.300000
 30
0.0
 40
0.050000
 50
180.000000
 51
-90.000000
  0
LINE
  8
Resist-B
 10
2.525000
 20
0.300000
 30
0.0
 11
2.525000
 21
0.800000
 31
0.0
  0
ARC
  8
Resist-B
 10
2.575000
 20
0.800000
 30
0.0
 40
0.050000
 50
90.000000
 51
180.000000
  0
LINE
  8
Resist-B
 10
2.575000
 20
0.850000
 30
0.0
 11
2.825000
 21
0.850000
 31
0.0
  0
ARC
  8
Resist-B
 10
2.825000
 20
0.800000
 30
0.0
 40
0.050000
 50
0.000000
 51
90.000000
  0
LINE
  8
Resist-B
 10
2.875000
 20
0.800000
 30
0.0
 11
2.875000
 21
0.300000
 31
0.0
  0
ARC
  8
LAY6
 10
1.125000
 20
0.350000
 30
0.0
 40
0.050000
 50
180.000000
 51
-90.000000
  0
LINE
  8
LAY6
 10
1.075000
 20
0.350000
 30
0.0
 11
1.075000
 21
0.750000
 31
0.0
  0
ARC
  8
LAY6
 10
1.125000
 20
0.750000
 30
0.0
 40
0.050000
 50
90.000000
 51
180.000000
  0
LINE
  8
LAY6
 10
1.125000
 20
0.800000
 30
0.0
 11
1.275000
 21
0.800000
 31
0.0
  0
ARC
  8
LAY6
 10
1.275000
 20
0.750000
 30
0.0
 40
0.050000
 50
0.000000
 51
90.000000
  0
LINE
  8
LAY6
 10
1.325000
 20
0.750000
 30
0.0
 11
1.325000
 21
0.350000
 31
0.0
  0
ARC
  8
LAY6
 10
1.275000
 20
0.350000
 30
0.0
 40
0.050000
 50
-90.000000
 51
0.000000
  0
LINE
  8
LAY6
 10
1.275000
 20
0.300000
 30
0.0
 11
1.125000
 21
0.300000
 31
0.0
  0
ARC
  8
Resist-B
 10
1.325000
 20
0.300000
 30
0.0
 40
0.050000
 50
-90.000000
 51
0.000000
  0
LINE
  8
Resist-B
 10
1.325000
 20
0.250000
 30
0.0
 11
1.075000
 21
0.250000
 31
0.0
  0
ARC
  8
Resist-B
 10
1.075000
 20
0.300000
 30
0.0
 40
0.050000
 50
180.000000
 51
-90.000000
  0
LINE
  8
Resist-B
 10
1.025000
 20
0.300000
 30
0.0
 11
1.025000
 21
0.800000
 31
0.0
  0
ARC
  8
Resist-B
 10
1.075000
 20
0.800000
 30
0.0
 40
0.050000
 50
90.000000
 51
180.000000
  0
LINE
  8
Resist-B
 10
1.075000
 20
0.850000
 30
0.0
 11
1.325000
 21
0.850000
 31
0.0
  0
ARC
  8
Resist-B
 10
1.325000
 20
0.800000
 30
0.0
 40
0.050000
 50
0.000000
 51
90.000000
  0
LINE
  8
Resist-B
 10
1.375000
 20
0.800000
 30
0.0
 11
1.375000
 21
0.300000
 31
0.0
  0
ARC
  8
LAY6
 10
4.625000
 20
1.500000
 30
0.0
 40
0.050000
 50
180.000000
 51
-90.000000
  0
LINE
  8
LAY6
 10
4.575000
 20
1.500000
 30
0.0
 11
4.575000
 21
1.900000
 31
0.0
  0
ARC
  8
LAY6
 10
4.625000
 20
1.900000
 30
0.0
 40
0.050000
 50
90.000000
 51
180.000000
  0
LINE
  8
LAY6
 10
4.625000
 20
1.950000
 30
0.0
 11
4.775000
 21
1.950000
 31
0.0
  0
ARC
  8
LAY6
 10
4.775000
 20
1.900000
 30
0.0
 40
0.050000
 50
0.000000
 51
90.000000
  0
LINE
  8
LAY6
 10
4.825000
 20
1.900000
 30
0.0
 11
4.825000
 21
1.500000
 31
0.0
  0
ARC
  8
LAY6
 10
4.775000
 20
1.500000
 30
0.0
 40
0.050000
 50
-90.000000
 51
0.000000
  0
LINE
  8
LAY6
 10
4.775000
 20
1.450000
 30
0.0
 11
4.625000
 21
1.450000
 31
0.0
  0
ARC
  8
Resist-B
 10
4.825000
 20
1.450000
 30
0.0
 40
0.050000
 50
-90.000000
 51
0.000000
  0
LINE
  8
Resist-B
 10
4.825000
 20
1.400000
 30
0.0
 11
4.575000
 21
1.400000
 31
0.0
  0
ARC
  8
Resist-B
 10
4.575000
 20
1.450000
 30
0.0
 40
0.050000
 50
180.000000
 51
-90.000000
  0
LINE
  8
Resist-B
 10
4.525000
 20
1.450000
 30
0.0
 11
4.525000
 21
1.950000
 31
0.0
  0
ARC
  8
Resist-B
 10
4.575000
 20
1.950000
 30
0.0
 40
0.050000
 50
90.000000
 51
180.000000
  0
LINE
  8
Resist-B
 10
4.575000
 20
2.000000
 30
0.0
 11
4.825000
 21
2.000000
 31
0.0
  0
ARC
  8
Resist-B
 10
4.825000
 20
1.950000
 30
0.0
 40
0.050000
 50
0.000000
 51
90.000000
  0
LINE
  8
Resist-B
 10
4.875000
 20
1.950000
 30
0.0
 11
4.875000
 21
1.450000
 31
0.0
  0
ARC
  8
LAY6
 10
5.125000
 20
6.550000
 30
0.0
 40
0.050000
 50
180.000000
 51
-90.000000
  0
LINE
  8
LAY6
 10
5.075000
 20
6.550000
 30
0.0
 11
5.075000
 21
6.950000
 31
0.0
  0
ARC
  8
LAY6
 10
5.125000
 20
6.950000
 30
0.0
 40
0.050000
 50
90.000000
 51
180.000000
  0
LINE
  8
LAY6
 10
5.125000
 20
7.000000
 30
0.0
 11
5.275000
 21
7.000000
 31
0.0
  0
ARC
  8
LAY6
 10
5.275000
 20
6.950000
 30
0.0
 40
0.050000
 50
0.000000
 51
90.000000
  0
LINE
  8
LAY6
 10
5.325000
 20
6.950000
 30
0.0
 11
5.325000
 21
6.550000
 31
0.0
  0
ARC
  8
LAY6
 10
5.275000
 20
6.550000
 30
0.0
 40
0.050000
 50
-90.000000
 51
0.000000
  0
LINE
  8
LAY6
 10
5.275000
 20
6.500000
 30
0.0
 11
5.125000
 21
6.500000
 31
0.0
  0
ARC
  8
Resist-B
 10
5.325000
 20
6.500000
 30
0.0
 40
0.050000
 50
-90.000000
 51
0.000000
  0
LINE
  8
Resist-B
 10
5.325000
 20
6.450000
 30
0.0
 11
5.075000
 21
6.450000
 31
0.0
  0
ARC
  8
Resist-B
 10
5.075000
 20
6.500000
 30
0.0
 40
0.050000
 50
180.000000
 51
-90.000000
  0
LINE
  8
Resist-B
 10
5.025000
 20
6.500000
 30
0.0
 11
5.025000
 21
7.000000
 31
0.0
  0
ARC
  8
Resist-B
 10
5.075000
 20
7.000000
 30
0.0
 40
0.050000
 50
90.000000
 51
180.000000
  0
LINE
  8
Resist-B
 10
5.075000
 20
7.050000
 30
0.0
 11
5.325000
 21
7.050000
 31
0.0
  0
ARC
  8
Resist-B
 10
5.325000
 20
7.000000
 30
0.0
 40
0.050000
 50
0.000000
 51
90.000000
  0
LINE
  8
Resist-B
 10
5.375000
 20
7.000000
 30
0.0
 11
5.375000
 21
6.500000
 31
0.0
  0
ARC
  8
LAY6
 10
0.350000
 20
4.975000
 30
0.0
 40
0.050000
 50
90.000000
 51
180.000000
  0
LINE
  8
LAY6
 10
0.350000
 20
5.025000
 30
0.0
 11
0.750000
 21
5.025000
 31
0.0
  0
ARC
  8
LAY6
 10
0.750000
 20
4.975000
 30
0.0
 40
0.050000
 50
0.000000
 51
90.000000
  0
LINE
  8
LAY6
 10
0.800000
 20
4.975000
 30
0.0
 11
0.800000
 21
4.825000
 31
0.0
  0
ARC
  8
LAY6
 10
0.750000
 20
4.825000
 30
0.0
 40
0.050000
 50
-90.000000
 51
0.000000
  0
LINE
  8
LAY6
 10
0.750000
 20
4.775000
 30
0.0
 11
0.350000
 21
4.775000
 31
0.0
  0
ARC
  8
LAY6
 10
0.350000
 20
4.825000
 30
0.0
 40
0.050000
 50
180.000000
 51
-90.000000
  0
LINE
  8
LAY6
 10
0.300000
 20
4.825000
 30
0.0
 11
0.300000
 21
4.975000
 31
0.0
  0
ARC
  8
Resist-B
 10
0.300000
 20
4.775000
 30
0.0
 40
0.050000
 50
180.000000
 51
-90.000000
  0
LINE
  8
Resist-B
 10
0.250000
 20
4.775000
 30
0.0
 11
0.250000
 21
5.025000
 31
0.0
  0
ARC
  8
Resist-B
 10
0.300000
 20
5.025000
 30
0.0
 40
0.050000
 50
90.000000
 51
180.000000
  0
LINE
  8
Resist-B
 10
0.300000
 20
5.075000
 30
0.0
 11
0.800000
 21
5.075000
 31
0.0
  0
ARC
  8
Resist-B
 10
0.800000
 20
5.025000
 30
0.0
 40
0.050000
 50
0.000000
 51
90.000000
  0
LINE
  8
Resist-B
 10
0.850000
 20
5.025000
 30
0.0
 11
0.850000
 21
4.775000
 31
0.0
  0
ARC
  8
Resist-B
 10
0.800000
 20
4.775000
 30
0.0
 40
0.050000
 50
-90.000000
 51
0.000000
  0
LINE
  8
Resist-B
 10
0.800000
 20
4.725000
 30
0.0
 11
0.300000
 21
4.725000
 31
0.0
  0
ARC
  8
LAY6
 10
2.125000
 20
6.550000
 30
0.0
 40
0.050000
 50
180.000000
 51
-90.000000
  0
LINE
  8
LAY6
 10
2.075000
 20
6.550000
 30
0.0
 11
2.075000
 21
6.950000
 31
0.0
  0
ARC
  8
LAY6
 10
2.125000
 20
6.950000
 30
0.0
 40
0.050000
 50
90.000000
 51
180.000000
  0
LINE
  8
LAY6
 10
2.125000
 20
7.000000
 30
0.0
 11
2.275000
 21
7.000000
 31
0.0
  0
ARC
  8
LAY6
 10
2.275000
 20
6.950000
 30
0.0
 40
0.050000
 50
0.000000
 51
90.000000
  0
LINE
  8
LAY6
 10
2.325000
 20
6.950000
 30
0.0
 11
2.325000
 21
6.550000
 31
0.0
  0
ARC
  8
LAY6
 10
2.275000
 20
6.550000
 30
0.0
 40
0.050000
 50
-90.000000
 51
0.000000
  0
LINE
  8
LAY6
 10
2.275000
 20
6.500000
 30
0.0
 11
2.125000
 21
6.500000
 31
0.0
  0
ARC
  8
Resist-B
 10
2.325000
 20
6.500000
 30
0.0
 40
0.050000
 50
-90.000000
 51
0.000000
  0
LINE
  8
Resist-B
 10
2.325000
 20
6.450000
 30
0.0
 11
2.075000
 21
6.450000
 31
0.0
  0
ARC
  8
Resist-B
 10
2.075000
 20
6.500000
 30
0.0
 40
0.050000
 50
180.000000
 51
-90.000000
  0
LINE
  8
Resist-B
 10
2.025000
 20
6.500000
 30
0.0
 11
2.025000
 21
7.000000
 31
0.0
  0
ARC
  8
Resist-B
 10
2.075000
 20
7.000000
 30
0.0
 40
0.050000
 50
90.000000
 51
180.000000
  0
LINE
  8
Resist-B
 10
2.075000
 20
7.050000
 30
0.0
 11
2.325000
 21
7.050000
 31
0.0
  0
ARC
  8
Resist-B
 10
2.325000
 20
7.000000
 30
0.0
 40
0.050000
 50
0.000000
 51
90.000000
  0
LINE
  8
Resist-B
 10
2.375000
 20
7.000000
 30
0.0
 11
2.375000
 21
6.500000
 31
0.0
  0
ARC
  8
LAY6
 10
1.125000
 20
6.550000
 30
0.0
 40
0.050000
 50
180.000000
 51
-90.000000
  0
LINE
  8
LAY6
 10
1.075000
 20
6.550000
 30
0.0
 11
1.075000
 21
6.950000
 31
0.0
  0
ARC
  8
LAY6
 10
1.125000
 20
6.950000
 30
0.0
 40
0.050000
 50
90.000000
 51
180.000000
  0
LINE
  8
LAY6
 10
1.125000
 20
7.000000
 30
0.0
 11
1.275000
 21
7.000000
 31
0.0
  0
ARC
  8
LAY6
 10
1.275000
 20
6.950000
 30
0.0
 40
0.050000
 50
0.000000
 51
90.000000
  0
LINE
  8
LAY6
 10
1.325000
 20
6.950000
 30
0.0
 11
1.325000
 21
6.550000
 31
0.0
  0
ARC
  8
LAY6
 10
1.275000
 20
6.550000
 30
0.0
 40
0.050000
 50
-90.000000
 51
0.000000
  0
LINE
  8
LAY6
 10
1.275000
 20
6.500000
 30
0.0
 11
1.125000
 21
6.500000
 31
0.0
  0
ARC
  8
Resist-B
 10
1.325000
 20
6.500000
 30
0.0
 40
0.050000
 50
-90.000000
 51
0.000000
  0
LINE
  8
Resist-B
 10
1.325000
 20
6.450000
 30
0.0
 11
1.075000
 21
6.450000
 31
0.0
  0
ARC
  8
Resist-B
 10
1.075000
 20
6.500000
 30
0.0
 40
0.050000
 50
180.000000
 51
-90.000000
  0
LINE
  8
Resist-B
 10
1.025000
 20
6.500000
 30
0.0
 11
1.025000
 21
7.000000
 31
0.0
  0
ARC
  8
Resist-B
 10
1.075000
 20
7.000000
 30
0.0
 40
0.050000
 50
90.000000
 51
180.000000
  0
LINE
  8
Resist-B
 10
1.075000
 20
7.050000
 30
0.0
 11
1.325000
 21
7.050000
 31
0.0
  0
ARC
  8
Resist-B
 10
1.325000
 20
7.000000
 30
0.0
 40
0.050000
 50
0.000000
 51
90.000000
  0
LINE
  8
Resist-B
 10
1.375000
 20
7.000000
 30
0.0
 11
1.375000
 21
6.500000
 31
0.0
  0
ARC
  8
LAY6
 10
1.625000
 20
6.550000
 30
0.0
 40
0.050000
 50
180.000000
 51
-90.000000
  0
LINE
  8
LAY6
 10
1.575000
 20
6.550000
 30
0.0
 11
1.575000
 21
6.950000
 31
0.0
  0
ARC
  8
LAY6
 10
1.625000
 20
6.950000
 30
0.0
 40
0.050000
 50
90.000000
 51
180.000000
  0
LINE
  8
LAY6
 10
1.625000
 20
7.000000
 30
0.0
 11
1.775000
 21
7.000000
 31
0.0
  0
ARC
  8
LAY6
 10
1.775000
 20
6.950000
 30
0.0
 40
0.050000
 50
0.000000
 51
90.000000
  0
LINE
  8
LAY6
 10
1.825000
 20
6.950000
 30
0.0
 11
1.825000
 21
6.550000
 31
0.0
  0
ARC
  8
LAY6
 10
1.775000
 20
6.550000
 30
0.0
 40
0.050000
 50
-90.000000
 51
0.000000
  0
LINE
  8
LAY6
 10
1.775000
 20
6.500000
 30
0.0
 11
1.625000
 21
6.500000
 31
0.0
  0
ARC
  8
Resist-B
 10
1.825000
 20
6.500000
 30
0.0
 40
0.050000
 50
-90.000000
 51
0.000000
  0
LINE
  8
Resist-B
 10
1.825000
 20
6.450000
 30
0.0
 11
1.575000
 21
6.450000
 31
0.0
  0
ARC
  8
Resist-B
 10
1.575000
 20
6.500000
 30
0.0
 40
0.050000
 50
180.000000
 51
-90.000000
  0
LINE
  8
Resist-B
 10
1.525000
 20
6.500000
 30
0.0
 11
1.525000
 21
7.000000
 31
0.0
  0
ARC
  8
Resist-B
 10
1.575000
 20
7.000000
 30
0.0
 40
0.050000
 50
90.000000
 51
180.000000
  0
LINE
  8
Resist-B
 10
1.575000
 20
7.050000
 30
0.0
 11
1.825000
 21
7.050000
 31
0.0
  0
ARC
  8
Resist-B
 10
1.825000
 20
7.000000
 30
0.0
 40
0.050000
 50
0.000000
 51
90.000000
  0
LINE
  8
Resist-B
 10
1.875000
 20
7.000000
 30
0.0
 11
1.875000
 21
6.500000
 31
0.0
  0
ARC
  8
LAY6
 10
1.500000
 20
5.100000
 30
0.0
 40
0.050000
 50
180.000000
 51
-90.000000
  0
LINE
  8
LAY6
 10
1.450000
 20
5.100000
 30
0.0
 11
1.450000
 21
6.100000
 31
0.0
  0
ARC
  8
LAY6
 10
1.500000
 20
6.100000
 30
0.0
 40
0.050000
 50
90.000000
 51
180.000000
  0
LINE
  8
LAY6
 10
1.500000
 20
6.150000
 30
0.0
 11
2.500000
 21
6.150000
 31
0.0
  0
ARC
  8
LAY6
 10
2.500000
 20
6.100000
 30
0.0
 40
0.050000
 50
0.000000
 51
90.000000
  0
LINE
  8
LAY6
 10
2.550000
 20
6.100000
 30
0.0
 11
2.550000
 21
5.100000
 31
0.0
  0
ARC
  8
LAY6
 10
2.500000
 20
5.100000
 30
0.0
 40
0.050000
 50
-90.000000
 51
0.000000
  0
LINE
  8
LAY6
 10
2.500000
 20
5.050000
 30
0.0
 11
1.500000
 21
5.050000
 31
0.0
  0
ARC
  8
Resist-B
 10
1.550000
 20
6.050000
 30
0.0
 40
0.050000
 50
90.000000
 51
180.000000
  0
LINE
  8
Resist-B
 10
1.550000
 20
6.100000
 30
0.0
 11
2.450000
 21
6.100000
 31
0.0
  0
ARC
  8
Resist-B
 10
2.450000
 20
6.050000
 30
0.0
 40
0.050000
 50
0.000000
 51
90.000000
  0
LINE
  8
Resist-B
 10
2.500000
 20
6.050000
 30
0.0
 11
2.500000
 21
5.150000
 31
0.0
  0
ARC
  8
Resist-B
 10
2.450000
 20
5.150000
 30
0.0
 40
0.050000
 50
-90.000000
 51
0.000000
  0
LINE
  8
Resist-B
 10
2.450000
 20
5.100000
 30
0.0
 11
1.550000
 21
5.100000
 31
0.0
  0
ARC
  8
Resist-B
 10
1.550000
 20
5.150000
 30
0.0
 40
0.050000
 50
180.000000
 51
-90.000000
  0
LINE
  8
Resist-B
 10
1.500000
 20
5.150000
 30
0.0
 11
1.500000
 21
6.050000
 31
0.0
  0
ARC
  8
LAY6
 10
5.400000
 20
5.100000
 30
0.0
 40
0.050000
 50
180.000000
 51
-90.000000
  0
LINE
  8
LAY6
 10
5.350000
 20
5.100000
 30
0.0
 11
5.350000
 21
6.100000
 31
0.0
  0
ARC
  8
LAY6
 10
5.400000
 20
6.100000
 30
0.0
 40
0.050000
 50
90.000000
 51
180.000000
  0
LINE
  8
LAY6
 10
5.400000
 20
6.150000
 30
0.0
 11
6.400000
 21
6.150000
 31
0.0
  0
ARC
  8
LAY6
 10
6.400000
 20
6.100000
 30
0.0
 40
0.050000
 50
0.000000
 51
90.000000
  0
LINE
  8
LAY6
 10
6.450000
 20
6.100000
 30
0.0
 11
6.450000
 21
5.100000
 31
0.0
  0
ARC
  8
LAY6
 10
6.400000
 20
5.100000
 30
0.0
 40
0.050000
 50
-90.000000
 51
0.000000
  0
LINE
  8
LAY6
 10
6.400000
 20
5.050000
 30
0.0
 11
5.400000
 21
5.050000
 31
0.0
  0
ARC
  8
Resist-B
 10
5.450000
 20
6.050000
 30
0.0
 40
0.050000
 50
90.000000
 51
180.000000
  0
LINE
  8
Resist-B
 10
5.450000
 20
6.100000
 30
0.0
 11
6.350000
 21
6.100000
 31
0.0
  0
ARC
  8
Resist-B
 10
6.350000
 20
6.050000
 30
0.0
 40
0.050000
 50
0.000000
 51
90.000000
  0
LINE
  8
Resist-B
 10
6.400000
 20
6.050000
 30
0.0
 11
6.400000
 21
5.150000
 31
0.0
  0
ARC
  8
Resist-B
 10
6.350000
 20
5.150000
 30
0.0
 40
0.050000
 50
-90.000000
 51
0.000000
  0
LINE
  8
Resist-B
 10
6.350000
 20
5.100000
 30
0.0
 11
5.450000
 21
5.100000
 31
0.0
  0
ARC
  8
Resist-B
 10
5.450000
 20
5.150000
 30
0.0
 40
0.050000
 50
180.000000
 51
-90.000000
  0
LINE
  8
Resist-B
 10
5.400000
 20
5.150000
 30
0.0
 11
5.400000
 21
6.050000
 31
0.0
  0
CIRCLE
  8
LAY6
 10
7.475000
 20
0.400000
 30
0.0
 40
0.075000
  0
CIRCLE
  8
LAY6
 10
7.175000
 20
2.400000
 30
0.0
 40
0.075000
  0
CIRCLE
  8
LAY6
 10
7.175000
 20
1.400000
 30
0.0
 40
0.075000
  0
CIRCLE
  8
LAY6
 10
7.175000
 20
0.900000
 30
0.0
 40
0.075000
  0
CIRCLE
  8
LAY6
 10
7.500000
 20
4.850000
 30
0.0
 40
0.075000
  0
CIRCLE
  8
LAY6
 10
7.300000
 20
4.850000
 30
0.0
 40
0.075000
  0
CIRCLE
  8
LAY6
 10
7.525000
 20
5.900000
 30
0.0
 40
0.075000
  0
CIRCLE
  8
LAY6
 10
7.225000
 20
6.900000
 30
0.0
 40
0.075000
  0
CIRCLE
  8
LAY6
 10
7.475000
 20
6.900000
 30
0.0
 40
0.075000
  0
CIRCLE
  8
LAY6
 10
7.300000
 20
5.450000
 30
0.0
 40
0.075000
  0
CIRCLE
  8
LAY6
 10
7.500000
 20
5.450000
 30
0.0
 40
0.075000
  0
CIRCLE
  8
LAY6
 10
7.325000
 20
5.900000
 30
0.0
 40
0.075000
  0
CIRCLE
  8
LAY6
 10
7.175000
 20
6.400000
 30
0.0
 40
0.075000
  0
CIRCLE
  8
LAY6
 10
7.375000
 20
6.400000
 30
0.0
 40
0.075000
  0
CIRCLE
  8
LAY6
 10
6.700000
 20
6.900000
 30
0.0
 40
0.075000
  0
CIRCLE
  8
LAY6
 10
6.700000
 20
6.625000
 30
0.0
 40
0.075000
  0
CIRCLE
  8
LAY6
 10
6.250000
 20
6.575000
 30
0.0
 40
0.075000
  0
CIRCLE
  8
LAY6
 10
6.250000
 20
6.775000
 30
0.0
 40
0.075000
  0
CIRCLE
  8
LAY6
 10
0.550000
 20
6.900000
 30
0.0
 40
0.075000
  0
CIRCLE
  8
LAY6
 10
0.725000
 20
6.400000
 30
0.0
 40
0.075000
  0
CIRCLE
  8
LAY6
 10
0.550000
 20
3.900000
 30
0.0
 40
0.075000
  0
CIRCLE
  8
LAY6
 10
0.550000
 20
3.400000
 30
0.0
 40
0.075000
  0
CIRCLE
  8
LAY6
 10
0.550000
 20
2.900000
 30
0.0
 40
0.075000
  0
CIRCLE
  8
LAY6
 10
0.550000
 20
2.400000
 30
0.0
 40
0.075000
  0
CIRCLE
  8
LAY6
 10
3.750000
 20
5.425000
 30
0.0
 40
0.075000
  0
CIRCLE
  8
LAY6
 10
4.150000
 20
5.425000
 30
0.0
 40
0.075000
  0
CIRCLE
  8
LAY6
 10
1.200000
 20
6.575000
 30
0.0
 40
0.075000
  0
CIRCLE
  8
LAY6
 10
1.700000
 20
6.575000
 30
0.0
 40
0.075000
  0
CIRCLE
  8
LAY6
 10
2.200000
 20
6.575000
 30
0.0
 40
0.075000
  0
CIRCLE
  8
LAY6
 10
2.700000
 20
6.575000
 30
0.0
 40
0.075000
  0
CIRCLE
  8
LAY6
 10
3.200000
 20
6.575000
 30
0.0
 40
0.075000
  0
CIRCLE
  8
LAY6
 10
3.700000
 20
6.575000
 30
0.0
 40
0.075000
  0
CIRCLE
  8
LAY6
 10
4.200000
 20
6.575000
 30
0.0
 40
0.075000
  0
CIRCLE
  8
LAY6
 10
4.700000
 20
5.425000
 30
0.0
 40
0.075000
  0
CIRCLE
  8
LAY6
 10
1.200000
 20
0.725000
 30
0.0
 40
0.075000
  0
CIRCLE
  8
LAY6
 10
1.700000
 20
0.725000
 30
0.0
 40
0.075000
  0
CIRCLE
  8
LAY6
 10
2.200000
 20
0.725000
 30
0.0
 40
0.075000
  0
CIRCLE
  8
LAY6
 10
3.200000
 20
0.725000
 30
0.0
 40
0.075000
  0
CIRCLE
  8
LAY6
 10
2.700000
 20
0.725000
 30
0.0
 40
0.075000
  0
CIRCLE
  8
LAY6
 10
4.700000
 20
1.875000
 30
0.0
 40
0.075000
  0
CIRCLE
  8
LAY6
 10
5.150000
 20
6.575000
 30
0.0
 40
0.075000
  0
CIRCLE
  8
LAY6
 10
4.200000
 20
0.725000
 30
0.0
 40
0.075000
  0
CIRCLE
  8
LAY6
 10
3.700000
 20
0.725000
 30
0.0
 40
0.075000
  0
CIRCLE
  8
LAY6
 10
7.425000
 20
3.900000
 30
0.0
 40
0.075000
  0
CIRCLE
  8
LAY6
 10
4.700000
 20
0.725000
 30
0.0
 40
0.075000
  0
CIRCLE
  8
LAY6
 10
5.200000
 20
0.725000
 30
0.0
 40
0.075000
  0
CIRCLE
  8
LAY6
 10
5.930000
 20
3.570000
 30
0.0
 40
0.075000
  0
CIRCLE
  8
LAY6
 10
4.240000
 20
4.945000
 30
0.0
 40
0.075000
  0
CIRCLE
  8
LAY6
 10
7.175000
 20
1.950000
 30
0.0
 40
0.075000
  0
CIRCLE
  8
LAY6
 10
5.240000
 20
5.355000
 30
0.0
 40
0.075000
  0
CIRCLE
  8
LAY6
 10
0.725000
 20
5.924980
 30
0.0
 40
0.075000
  0
CIRCLE
  8
LAY6
 10
0.500000
 20
4.950000
 30
0.0
 40
0.075000
  0
CIRCLE
  8
LAY6
 10
3.250000
 20
5.425000
 30
0.0
 40
0.075000
  0
CIRCLE
  8
LAY6
 10
5.925000
 20
4.975000
 30
0.0
 40
0.075000
  0
CIRCLE
  8
LAY6
 10
4.100000
 20
5.150000
 30
0.0
 40
0.075000
  0
CIRCLE
  8
LAY6
 10
3.200000
 20
5.075000
 30
0.0
 40
0.075000
  0
CIRCLE
  8
LAY6
 10
2.800000
 20
5.850000
 30
0.0
 40
0.075000
  0
CIRCLE
  8
LAY6
 10
2.300000
 20
5.750000
 30
0.0
 40
0.075000
  0
CIRCLE
  8
LAY6
 10
2.500000
 20
5.550000
 30
0.0
 40
0.075000
  0
CIRCLE
  8
LAY6
 10
2.530000
 20
5.175000
 30
0.0
 40
0.075000
  0
CIRCLE
  8
LAY6
 10
2.350000
 20
5.000000
 30
0.0
 40
0.075000
  0
CIRCLE
  8
LAY6
 10
2.225000
 20
5.300000
 30
0.0
 40
0.075000
  0
CIRCLE
  8
LAY6
 10
1.850000
 20
4.925000
 30
0.0
 40
0.075000
  0
CIRCLE
  8
LAY6
 10
1.750000
 20
5.175000
 30
0.0
 40
0.075000
  0
CIRCLE
  8
LAY6
 10
1.700000
 20
5.475000
 30
0.0
 40
0.075000
  0
CIRCLE
  8
LAY6
 10
1.675000
 20
5.750000
 30
0.0
 40
0.075000
  0
CIRCLE
  8
LAY6
 10
1.350000
 20
5.750000
 30
0.0
 40
0.075000
  0
CIRCLE
  8
LAY6
 10
1.050000
 20
5.750000
 30
0.0
 40
0.075000
  0
CIRCLE
  8
LAY6
 10
1.150000
 20
5.425000
 30
0.0
 40
0.075000
  0
CIRCLE
  8
LAY6
 10
1.175000
 20
4.925000
 30
0.0
 40
0.075000
  0
CIRCLE
  8
LAY6
 10
1.425000
 20
5.225000
 30
0.0
 40
0.075000
  0
CIRCLE
  8
LAY6
 10
1.475000
 20
4.850000
 30
0.0
 40
0.075000
  0
CIRCLE
  8
LAY6
 10
1.655000
 20
4.565000
 30
0.0
 40
0.075000
  0
CIRCLE
  8
LAY6
 10
2.075000
 20
4.700000
 30
0.0
 40
0.075000
  0
CIRCLE
  8
LAY6
 10
1.375000
 20
4.200000
 30
0.0
 40
0.075000
  0
CIRCLE
  8
LAY6
 10
1.675000
 20
4.275000
 30
0.0
 40
0.075000
  0
CIRCLE
  8
LAY6
 10
1.250000
 20
4.525000
 30
0.0
 40
0.075000
  0
CIRCLE
  8
LAY6
 10
1.000000
 20
4.200000
 30
0.0
 40
0.075000
  0
CIRCLE
  8
LAY6
 10
0.725000
 20
4.400000
 30
0.0
 40
0.075000
  0
CIRCLE
  8
LAY6
 10
0.375000
 20
4.400000
 30
0.0
 40
0.075000
  0
CIRCLE
  8
LAY6
 10
0.425000
 20
5.400000
 30
0.0
 40
0.075000
  0
CIRCLE
  8
LAY6
 10
0.675000
 20
5.400000
 30
0.0
 40
0.075000
  0
CIRCLE
  8
LAY6
 10
1.250000
 20
3.725000
 30
0.0
 40
0.075000
  0
CIRCLE
  8
LAY6
 10
2.600000
 20
4.375000
 30
0.0
 40
0.075000
  0
CIRCLE
  8
LAY6
 10
2.875000
 20
4.675000
 30
0.0
 40
0.075000
  0
CIRCLE
  8
LAY6
 10
3.175000
 20
4.700000
 30
0.0
 40
0.075000
  0
CIRCLE
  8
LAY6
 10
2.990000
 20
4.375000
 30
0.0
 40
0.075000
  0
CIRCLE
  8
LAY6
 10
3.365000
 20
4.370000
 30
0.0
 40
0.075000
  0
CIRCLE
  8
LAY6
 10
3.625000
 20
3.800000
 30
0.0
 40
0.075000
  0
CIRCLE
  8
LAY6
 10
3.425000
 20
4.025000
 30
0.0
 40
0.075000
  0
CIRCLE
  8
LAY6
 10
3.200000
 20
3.675000
 30
0.0
 40
0.075000
  0
CIRCLE
  8
LAY6
 10
2.990000
 20
3.975000
 30
0.0
 40
0.075000
  0
CIRCLE
  8
LAY6
 10
2.900000
 20
3.675000
 30
0.0
 40
0.075000
  0
CIRCLE
  8
LAY6
 10
2.325000
 20
3.975000
 30
0.0
 40
0.075000
  0
CIRCLE
  8
LAY6
 10
2.500000
 20
3.800000
 30
0.0
 40
0.075000
  0
CIRCLE
  8
LAY6
 10
2.590000
 20
3.575000
 30
0.0
 40
0.075000
  0
CIRCLE
  8
LAY6
 10
2.775000
 20
3.375000
 30
0.0
 40
0.075000
  0
CIRCLE
  8
LAY6
 10
1.975000
 20
3.600000
 30
0.0
 40
0.075000
  0
CIRCLE
  8
LAY6
 10
2.275000
 20
3.600000
 30
0.0
 40
0.075000
  0
CIRCLE
  8
LAY6
 10
2.425000
 20
3.375000
 30
0.0
 40
0.075000
  0
CIRCLE
  8
LAY6
 10
2.590000
 20
3.175000
 30
0.0
 40
0.075000
  0
CIRCLE
  8
LAY6
 10
2.425000
 20
2.950000
 30
0.0
 40
0.075000
  0
CIRCLE
  8
LAY6
 10
2.300000
 20
3.150000
 30
0.0
 40
0.075000
  0
CIRCLE
  8
LAY6
 10
2.150000
 20
3.375000
 30
0.0
 40
0.075000
  0
CIRCLE
  8
LAY6
 10
1.900000
 20
3.375000
 30
0.0
 40
0.075000
  0
CIRCLE
  8
LAY6
 10
2.025000
 20
3.150000
 30
0.0
 40
0.075000
  0
CIRCLE
  8
LAY6
 10
1.775000
 20
3.150000
 30
0.0
 40
0.075000
  0
CIRCLE
  8
LAY6
 10
1.525000
 20
3.150000
 30
0.0
 40
0.075000
  0
CIRCLE
  8
LAY6
 10
2.250000
 20
2.775000
 30
0.0
 40
0.075000
  0
CIRCLE
  8
LAY6
 10
2.025000
 20
2.875000
 30
0.0
 40
0.075000
  0
CIRCLE
  8
LAY6
 10
1.775000
 20
2.825000
 30
0.0
 40
0.075000
  0
CIRCLE
  8
LAY6
 10
1.500000
 20
2.775000
 30
0.0
 40
0.075000
  0
CIRCLE
  8
LAY6
 10
1.300000
 20
2.950000
 30
0.0
 40
0.075000
  0
CIRCLE
  8
LAY6
 10
1.000000
 20
2.620000
 30
0.0
 40
0.075000
  0
CIRCLE
  8
LAY6
 10
1.025000
 20
2.250000
 30
0.0
 40
0.075000
  0
CIRCLE
  8
LAY6
 10
1.300000
 20
2.250000
 30
0.0
 40
0.075000
  0
CIRCLE
  8
LAY6
 10
1.300000
 20
2.600000
 30
0.0
 40
0.075000
  0
CIRCLE
  8
LAY6
 10
1.500000
 20
2.425000
 30
0.0
 40
0.075000
  0
CIRCLE
  8
LAY6
 10
1.575000
 20
2.075000
 30
0.0
 40
0.075000
  0
CIRCLE
  8
LAY6
 10
1.800000
 20
2.300000
 30
0.0
 40
0.075000
  0
CIRCLE
  8
LAY6
 10
1.755000
 20
2.525000
 30
0.0
 40
0.075000
  0
CIRCLE
  8
LAY6
 10
2.015000
 20
2.525000
 30
0.0
 40
0.075000
  0
CIRCLE
  8
LAY6
 10
1.150000
 20
1.850000
 30
0.0
 40
0.075000
  0
CIRCLE
  8
LAY6
 10
0.425000
 20
1.900000
 30
0.0
 40
0.075000
  0
CIRCLE
  8
LAY6
 10
0.675000
 20
1.900000
 30
0.0
 40
0.075000
  0
CIRCLE
  8
LAY6
 10
0.425000
 20
0.900000
 30
0.0
 40
0.075000
  0
CIRCLE
  8
LAY6
 10
0.675000
 20
0.900000
 30
0.0
 40
0.075000
  0
CIRCLE
  8
LAY6
 10
0.425000
 20
0.400000
 30
0.0
 40
0.075000
  0
CIRCLE
  8
LAY6
 10
0.675000
 20
0.400000
 30
0.0
 40
0.075000
  0
CIRCLE
  8
LAY6
 10
6.700000
 20
0.400000
 30
0.0
 40
0.075000
  0
CIRCLE
  8
LAY6
 10
6.700000
 20
0.700000
 30
0.0
 40
0.075000
  0
CIRCLE
  8
LAY6
 10
7.225000
 20
0.400000
 30
0.0
 40
0.075000
  0
CIRCLE
  8
LAY6
 10
7.500000
 20
4.400000
 30
0.0
 40
0.075000
  0
CIRCLE
  8
LAY6
 10
5.700000
 20
6.900000
 30
0.0
 40
0.075000
  0
CIRCLE
  8
LAY6
 10
5.700000
 20
6.600000
 30
0.0
 40
0.075000
  0
CIRCLE
  8
LAY6
 10
4.700000
 20
6.900000
 30
0.0
 40
0.075000
  0
CIRCLE
  8
LAY6
 10
4.700000
 20
6.600000
 30
0.0
 40
0.075000
  0
CIRCLE
  8
LAY6
 10
6.215000
 20
5.600000
 30
0.0
 40
0.075000
  0
CIRCLE
  8
LAY6
 10
6.625000
 20
5.650000
 30
0.0
 40
0.075000
  0
CIRCLE
  8
LAY6
 10
6.625000
 20
5.325000
 30
0.0
 40
0.075000
  0
CIRCLE
  8
LAY6
 10
5.175000
 20
6.100000
 30
0.0
 40
0.075000
  0
CIRCLE
  8
LAY6
 10
4.775000
 20
6.200000
 30
0.0
 40
0.075000
  0
CIRCLE
  8
LAY6
 10
5.575000
 20
6.100000
 30
0.0
 40
0.075000
  0
CIRCLE
  8
LAY6
 10
5.875000
 20
6.200000
 30
0.0
 40
0.075000
  0
CIRCLE
  8
LAY6
 10
6.200000
 20
4.150000
 30
0.0
 40
0.075000
  0
CIRCLE
  8
LAY6
 10
5.975000
 20
3.925000
 30
0.0
 40
0.075000
  0
CIRCLE
  8
LAY6
 10
6.225000
 20
3.650000
 30
0.0
 40
0.075000
  0
CIRCLE
  8
LAY6
 10
6.300000
 20
3.400000
 30
0.0
 40
0.075000
  0
CIRCLE
  8
LAY6
 10
6.825000
 20
3.375000
 30
0.0
 40
0.075000
  0
CIRCLE
  8
LAY6
 10
6.825000
 20
3.650000
 30
0.0
 40
0.075000
  0
CIRCLE
  8
LAY6
 10
6.825000
 20
3.925000
 30
0.0
 40
0.075000
  0
CIRCLE
  8
LAY6
 10
5.825000
 20
2.650000
 30
0.0
 40
0.075000
  0
CIRCLE
  8
LAY6
 10
5.575000
 20
2.950000
 30
0.0
 40
0.075000
  0
CIRCLE
  8
LAY6
 10
5.150000
 20
2.850000
 30
0.0
 40
0.075000
  0
CIRCLE
  8
LAY6
 10
4.925000
 20
2.650000
 30
0.0
 40
0.075000
  0
CIRCLE
  8
LAY6
 10
4.900000
 20
2.400000
 30
0.0
 40
0.075000
  0
CIRCLE
  8
LAY6
 10
5.100000
 20
2.175000
 30
0.0
 40
0.075000
  0
CIRCLE
  8
LAY6
 10
5.390000
 20
2.375000
 30
0.0
 40
0.075000
  0
CIRCLE
  8
LAY6
 10
5.390000
 20
1.975000
 30
0.0
 40
0.075000
  0
CIRCLE
  8
LAY6
 10
5.025000
 20
1.900000
 30
0.0
 40
0.075000
  0
CIRCLE
  8
LAY6
 10
5.250000
 20
1.400000
 30
0.0
 40
0.075000
  0
CIRCLE
  8
LAY6
 10
5.500000
 20
1.675000
 30
0.0
 40
0.075000
  0
CIRCLE
  8
LAY6
 10
5.850000
 20
1.975000
 30
0.0
 40
0.075000
  0
CIRCLE
  8
LAY6
 10
6.075000
 20
2.225000
 30
0.0
 40
0.075000
  0
CIRCLE
  8
LAY6
 10
6.850000
 20
2.400000
 30
0.0
 40
0.075000
  0
CIRCLE
  8
LAY6
 10
6.775000
 20
1.300000
 30
0.0
 40
0.075000
  0
CIRCLE
  8
LAY6
 10
6.275000
 20
1.675000
 30
0.0
 40
0.075000
  0
CIRCLE
  8
LAY6
 10
4.325000
 20
1.175000
 30
0.0
 40
0.075000
  0
CIRCLE
  8
LAY6
 10
4.000000
 20
1.225000
 30
0.0
 40
0.075000
  0
CIRCLE
  8
LAY6
 10
4.125000
 20
1.450000
 30
0.0
 40
0.075000
  0
CIRCLE
  8
LAY6
 10
3.825000
 20
1.400000
 30
0.0
 40
0.075000
  0
CIRCLE
  8
LAY6
 10
3.475000
 20
1.400000
 30
0.0
 40
0.075000
  0
CIRCLE
  8
LAY6
 10
3.600000
 20
1.600000
 30
0.0
 40
0.075000
  0
CIRCLE
  8
LAY6
 10
3.850000
 20
1.725000
 30
0.0
 40
0.075000
  0
CIRCLE
  8
LAY6
 10
3.700000
 20
1.950000
 30
0.0
 40
0.075000
  0
CIRCLE
  8
LAY6
 10
3.390000
 20
1.975000
 30
0.0
 40
0.075000
  0
CIRCLE
  8
LAY6
 10
3.550000
 20
2.350000
 30
0.0
 40
0.075000
  0
CIRCLE
  8
LAY6
 10
4.025000
 20
2.225000
 30
0.0
 40
0.075000
  0
CIRCLE
  8
LAY6
 10
4.000000
 20
2.525000
 30
0.0
 40
0.075000
  0
CIRCLE
  8
LAY6
 10
4.250000
 20
2.425000
 30
0.0
 40
0.075000
  0
CIRCLE
  8
LAY6
 10
4.400000
 20
2.200000
 30
0.0
 40
0.075000
  0
CIRCLE
  8
LAY6
 10
4.500000
 20
2.625000
 30
0.0
 40
0.075000
  0
CIRCLE
  8
LAY6
 10
2.475000
 20
1.950000
 30
0.0
 40
0.075000
  0
CIRCLE
  8
LAY6
 10
2.500000
 20
1.625000
 30
0.0
 40
0.075000
  0
CIRCLE
  8
LAY6
 10
2.400000
 20
1.350000
 30
0.0
 40
0.075000
  0
CIRCLE
  8
LAY6
 10
1.950000
 20
1.100000
 30
0.0
 40
0.075000
  0
CIRCLE
  8
LAY6
 10
1.945000
 20
1.600000
 30
0.0
 40
0.075000
  0
CIRCLE
  8
LAY6
 10
1.525000
 20
1.450000
 30
0.0
 40
0.075000
  0
CIRCLE
  8
LAY6
 10
1.475000
 20
1.195000
 30
0.0
 40
0.075000
  0
CIRCLE
  8
LAY6
 10
1.000000
 20
1.100000
 30
0.0
 40
0.075000
  0
CIRCLE
  8
LAY6
 10
2.685000
 20
4.015000
 30
0.0
 40
0.075000
  0
CIRCLE
  8
LAY6
 10
5.275000
 20
1.690000
 30
0.0
 40
0.075000
  0
CIRCLE
  8
LAY6
 10
6.250000
 20
0.375000
 30
0.0
 40
0.075000
  0
CIRCLE
  8
LAY6
 10
6.750000
 20
2.150000
 30
0.0
 40
0.075000
  0
CIRCLE
  8
LAY6
 10
6.750000
 20
1.675000
 30
0.0
 40
0.075000
  0
CIRCLE
  8
LAY6
 10
5.650000
 20
1.050000
 30
0.0
 40
0.075000
  0
CIRCLE
  8
LAY6
 10
6.050000
 20
1.450000
 30
0.0
 40
0.075000
  0
CIRCLE
  8
LAY6
 10
5.750000
 20
0.650000
 30
0.0
 40
0.075000
  0
CIRCLE
  8
LAY6
 10
6.150000
 20
1.050000
 30
0.0
 40
0.075000
  0
CIRCLE
  8
LAY6
 10
6.575000
 20
1.075000
 30
0.0
 40
0.075000
  0
CIRCLE
  8
LAY6
 10
6.350000
 20
1.250000
 30
0.0
 40
0.075000
  0
CIRCLE
  8
LAY6
 10
6.550000
 20
1.425000
 30
0.0
 40
0.075000
  0
CIRCLE
  8
LAY6
 10
7.200000
 20
2.900000
 30
0.0
 40
0.075000
  0
CIRCLE
  8
LAY6
 10
0.575000
 20
1.350000
 30
0.0
 40
0.075000
  0
ENDSEC
  0
EOF
