  0
SECTION
  2
HEADER
  9
$ACADVER
  1
AC1009
  9
$ACADMAINTVER
 70
   0
  9
$DWGCODEPAGE
  3
ANSI_932
  9
$INSBASE
 10
0.0
 20
0.0
 30
0.0
  9
$EXTMIN
 10
0.000000
 20
0.000000
 30
0.0
  9
$EXTMAX
 10
17.300000
 20
13.850000
 30
0.0
  9
$LIMMIN
 10
0.0
 20
0.0
  9
$LIMMAX
 10
12.0
 20
9.0
  9
$ORTHOMODE
 70
	0
  9
$REGENMODE
 70
	1
  9
$FILLMODE
 70
	1
  9
$QTEXTMODE
 70
	0
  9
$MIRRTEXT
 70
	1
  9
$DRAGMODE
 70
	2
  9
$LTSCALE
 40
1.0
  9
$OSMODE
 70
	0
  9
$ATTMODE
 70
	1
  9
$TEXTSIZE
 40
0.2
  9
$TRACEWID
 40
0.05
  9
$TEXTSTYLE
  7
STANDARD
  9
$CLAYER
  8
0
  9
$CELTYPE
  6
BYLAYER
  9
$CECOLOR
 62
	256
  9
$CELTSCALE
 40
1.0
  9
$DELOBJ
 70
	1
  9
$DISPSILH
 70
	0
  9
$LUNITS
 70
	2
  9
$LUPREC
 70
	6
  9
$SKETCHINC
 40
0.1
  9
$FILLETRAD
 40
0.5
  9
$AUNITS
 70
	0
  9
$AUPREC
 70
	6
  9
$MENU
  1
acad
  9
$ELEVATION
 40
0.0
  9
$PELEVATION
 40
0.0
  9
$THICKNESS
 40
0.0
  9
$LIMCHECK
 70
	0
  9
$BLIPMODE
 70
	0
  9
$CHAMFERA
 40
0.5
  9
$CHAMFERB
 40
0.5
  9
$CHAMFERC
 40
1.0
  9
$CHAMFERD
 40
0.0
  9
$SKPOLY
 70
	0
  9
$TDCREATE
 40
0.0
  9
$TDUPDATE
 40
0.0
  9
$TDINDWG
 40
0.0
  9
$TDUSRTIMER
 40
0.0
  9
$USRTIMER
 70
	0
  9
$ANGBASE
 50
0.0
  9
$ANGDIR
 70
	0
  9
$PDMODE
 70
	0
  9
$PDSIZE
 40
0.0
  9
$PLINEWID
 40
0.0
  9
$COORDS
 70
	1
  9
$SPLFRAME
 70
	0
  9
$SPLINETYPE
 70
	6
  9
$SPLINESEGS
 70
	8
  9
$ATTDIA
 70
	0
  9
$ATTREQ
 70
	1
  9
$HANDLING
 70
   1
  0
ENDSEC
  0
SECTION
  2
TABLES
  0
TABLE
  2
LAYER
 70
2
  0
LAYER
  2
0
 70
   0
 62
  7
  6
CONTINUOUS
  0
LAYER
  2
PartsFrameB
 70
   0
 62
  7
  6
CONTINUOUS
  0
LAYER
  2
OUTLINE
 70
   0
 62
  2
  6
CONTINUOUS
  0
ENDTAB
  0
TABLE
  2
LTYPE
 70
1
  0
ENDTAB
  0
TABLE
  2
STYLE
 70
1
  0
STYLE
  2
STANDARD
 70
0
 40
0.0
 41
1.0
 50
0.0
 71
0
 42
1.0
  3
txt
  4
EXTFONT
  0
ENDTAB
  0
ENDSEC
  0
SECTION
  2
BLOCKS
  0
ENDSEC
  0
SECTION
  2
ENTITIES
  0
LINE
  8
OUTLINE
 10
5.750000
 20
5.000000
 30
0.0
 11
5.750000
 21
13.800000
 31
0.0
  0
LINE
  8
OUTLINE
 10
5.750000
 20
13.800000
 30
0.0
 11
17.250000
 21
13.800000
 31
0.0
  0
LINE
  8
OUTLINE
 10
17.250000
 20
13.800000
 30
0.0
 11
17.250000
 21
5.000000
 31
0.0
  0
LINE
  8
OUTLINE
 10
17.250000
 20
5.000000
 30
0.0
 11
5.750000
 21
5.000000
 31
0.0
  0
ARC
  8
PartsFrameB
 10
6.000000
 20
5.325000
 30
0.0
 40
0.050000
 50
180.000000
 51
-90.000000
  0
LINE
  8
PartsFrameB
 10
5.950000
 20
5.325000
 30
0.0
 11
5.950000
 21
5.475000
 31
0.0
  0
ARC
  8
PartsFrameB
 10
6.000000
 20
5.475000
 30
0.0
 40
0.050000
 50
90.000000
 51
180.000000
  0
LINE
  8
PartsFrameB
 10
6.000000
 20
5.525000
 30
0.0
 11
6.500000
 21
5.525000
 31
0.0
  0
ARC
  8
PartsFrameB
 10
6.500000
 20
5.475000
 30
0.0
 40
0.050000
 50
0.000000
 51
90.000000
  0
LINE
  8
PartsFrameB
 10
6.550000
 20
5.475000
 30
0.0
 11
6.550000
 21
5.325000
 31
0.0
  0
ARC
  8
PartsFrameB
 10
6.500000
 20
5.325000
 30
0.0
 40
0.050000
 50
-90.000000
 51
0.000000
  0
LINE
  8
PartsFrameB
 10
6.500000
 20
5.275000
 30
0.0
 11
6.000000
 21
5.275000
 31
0.0
  0
ARC
  8
PartsFrameB
 10
6.000000
 20
5.825000
 30
0.0
 40
0.050000
 50
180.000000
 51
-90.000000
  0
LINE
  8
PartsFrameB
 10
5.950000
 20
5.825000
 30
0.0
 11
5.950000
 21
5.975000
 31
0.0
  0
ARC
  8
PartsFrameB
 10
6.000000
 20
5.975000
 30
0.0
 40
0.050000
 50
90.000000
 51
180.000000
  0
LINE
  8
PartsFrameB
 10
6.000000
 20
6.025000
 30
0.0
 11
6.500000
 21
6.025000
 31
0.0
  0
ARC
  8
PartsFrameB
 10
6.500000
 20
5.975000
 30
0.0
 40
0.050000
 50
0.000000
 51
90.000000
  0
LINE
  8
PartsFrameB
 10
6.550000
 20
5.975000
 30
0.0
 11
6.550000
 21
5.825000
 31
0.0
  0
ARC
  8
PartsFrameB
 10
6.500000
 20
5.825000
 30
0.0
 40
0.050000
 50
-90.000000
 51
0.000000
  0
LINE
  8
PartsFrameB
 10
6.500000
 20
5.775000
 30
0.0
 11
6.000000
 21
5.775000
 31
0.0
  0
ARC
  8
PartsFrameB
 10
6.000000
 20
6.325000
 30
0.0
 40
0.050000
 50
180.000000
 51
-90.000000
  0
LINE
  8
PartsFrameB
 10
5.950000
 20
6.325000
 30
0.0
 11
5.950000
 21
6.475000
 31
0.0
  0
ARC
  8
PartsFrameB
 10
6.000000
 20
6.475000
 30
0.0
 40
0.050000
 50
90.000000
 51
180.000000
  0
LINE
  8
PartsFrameB
 10
6.000000
 20
6.525000
 30
0.0
 11
6.500000
 21
6.525000
 31
0.0
  0
ARC
  8
PartsFrameB
 10
6.500000
 20
6.475000
 30
0.0
 40
0.050000
 50
0.000000
 51
90.000000
  0
LINE
  8
PartsFrameB
 10
6.550000
 20
6.475000
 30
0.0
 11
6.550000
 21
6.325000
 31
0.0
  0
ARC
  8
PartsFrameB
 10
6.500000
 20
6.325000
 30
0.0
 40
0.050000
 50
-90.000000
 51
0.000000
  0
LINE
  8
PartsFrameB
 10
6.500000
 20
6.275000
 30
0.0
 11
6.000000
 21
6.275000
 31
0.0
  0
ARC
  8
PartsFrameB
 10
6.000000
 20
6.825000
 30
0.0
 40
0.050000
 50
180.000000
 51
-90.000000
  0
LINE
  8
PartsFrameB
 10
5.950000
 20
6.825000
 30
0.0
 11
5.950000
 21
6.975000
 31
0.0
  0
ARC
  8
PartsFrameB
 10
6.000000
 20
6.975000
 30
0.0
 40
0.050000
 50
90.000000
 51
180.000000
  0
LINE
  8
PartsFrameB
 10
6.000000
 20
7.025000
 30
0.0
 11
6.500000
 21
7.025000
 31
0.0
  0
ARC
  8
PartsFrameB
 10
6.500000
 20
6.975000
 30
0.0
 40
0.050000
 50
0.000000
 51
90.000000
  0
LINE
  8
PartsFrameB
 10
6.550000
 20
6.975000
 30
0.0
 11
6.550000
 21
6.825000
 31
0.0
  0
ARC
  8
PartsFrameB
 10
6.500000
 20
6.825000
 30
0.0
 40
0.050000
 50
-90.000000
 51
0.000000
  0
LINE
  8
PartsFrameB
 10
6.500000
 20
6.775000
 30
0.0
 11
6.000000
 21
6.775000
 31
0.0
  0
ARC
  8
PartsFrameB
 10
6.000000
 20
7.325000
 30
0.0
 40
0.050000
 50
180.000000
 51
-90.000000
  0
LINE
  8
PartsFrameB
 10
5.950000
 20
7.325000
 30
0.0
 11
5.950000
 21
7.475000
 31
0.0
  0
ARC
  8
PartsFrameB
 10
6.000000
 20
7.475000
 30
0.0
 40
0.050000
 50
90.000000
 51
180.000000
  0
LINE
  8
PartsFrameB
 10
6.000000
 20
7.525000
 30
0.0
 11
6.500000
 21
7.525000
 31
0.0
  0
ARC
  8
PartsFrameB
 10
6.500000
 20
7.475000
 30
0.0
 40
0.050000
 50
0.000000
 51
90.000000
  0
LINE
  8
PartsFrameB
 10
6.550000
 20
7.475000
 30
0.0
 11
6.550000
 21
7.325000
 31
0.0
  0
ARC
  8
PartsFrameB
 10
6.500000
 20
7.325000
 30
0.0
 40
0.050000
 50
-90.000000
 51
0.000000
  0
LINE
  8
PartsFrameB
 10
6.500000
 20
7.275000
 30
0.0
 11
6.000000
 21
7.275000
 31
0.0
  0
ARC
  8
PartsFrameB
 10
6.000000
 20
7.825000
 30
0.0
 40
0.050000
 50
180.000000
 51
-90.000000
  0
LINE
  8
PartsFrameB
 10
5.950000
 20
7.825000
 30
0.0
 11
5.950000
 21
7.975000
 31
0.0
  0
ARC
  8
PartsFrameB
 10
6.000000
 20
7.975000
 30
0.0
 40
0.050000
 50
90.000000
 51
180.000000
  0
LINE
  8
PartsFrameB
 10
6.000000
 20
8.025000
 30
0.0
 11
6.500000
 21
8.025000
 31
0.0
  0
ARC
  8
PartsFrameB
 10
6.500000
 20
7.975000
 30
0.0
 40
0.050000
 50
0.000000
 51
90.000000
  0
LINE
  8
PartsFrameB
 10
6.550000
 20
7.975000
 30
0.0
 11
6.550000
 21
7.825000
 31
0.0
  0
ARC
  8
PartsFrameB
 10
6.500000
 20
7.825000
 30
0.0
 40
0.050000
 50
-90.000000
 51
0.000000
  0
LINE
  8
PartsFrameB
 10
6.500000
 20
7.775000
 30
0.0
 11
6.000000
 21
7.775000
 31
0.0
  0
ARC
  8
PartsFrameB
 10
6.000000
 20
8.325000
 30
0.0
 40
0.050000
 50
180.000000
 51
-90.000000
  0
LINE
  8
PartsFrameB
 10
5.950000
 20
8.325000
 30
0.0
 11
5.950000
 21
8.475000
 31
0.0
  0
ARC
  8
PartsFrameB
 10
6.000000
 20
8.475000
 30
0.0
 40
0.050000
 50
90.000000
 51
180.000000
  0
LINE
  8
PartsFrameB
 10
6.000000
 20
8.525000
 30
0.0
 11
6.500000
 21
8.525000
 31
0.0
  0
ARC
  8
PartsFrameB
 10
6.500000
 20
8.475000
 30
0.0
 40
0.050000
 50
0.000000
 51
90.000000
  0
LINE
  8
PartsFrameB
 10
6.550000
 20
8.475000
 30
0.0
 11
6.550000
 21
8.325000
 31
0.0
  0
ARC
  8
PartsFrameB
 10
6.500000
 20
8.325000
 30
0.0
 40
0.050000
 50
-90.000000
 51
0.000000
  0
LINE
  8
PartsFrameB
 10
6.500000
 20
8.275000
 30
0.0
 11
6.000000
 21
8.275000
 31
0.0
  0
ARC
  8
PartsFrameB
 10
6.500000
 20
8.975000
 30
0.0
 40
0.050000
 50
0.000000
 51
90.000000
  0
LINE
  8
PartsFrameB
 10
6.550000
 20
8.975000
 30
0.0
 11
6.550000
 21
8.825000
 31
0.0
  0
ARC
  8
PartsFrameB
 10
6.500000
 20
8.825000
 30
0.0
 40
0.050000
 50
-90.000000
 51
0.000000
  0
LINE
  8
PartsFrameB
 10
6.500000
 20
8.775000
 30
0.0
 11
6.000000
 21
8.775000
 31
0.0
  0
ARC
  8
PartsFrameB
 10
6.000000
 20
8.825000
 30
0.0
 40
0.050000
 50
180.000000
 51
-90.000000
  0
LINE
  8
PartsFrameB
 10
5.950000
 20
8.825000
 30
0.0
 11
5.950000
 21
8.975000
 31
0.0
  0
ARC
  8
PartsFrameB
 10
6.000000
 20
8.975000
 30
0.0
 40
0.050000
 50
90.000000
 51
180.000000
  0
LINE
  8
PartsFrameB
 10
6.000000
 20
9.025000
 30
0.0
 11
6.500000
 21
9.025000
 31
0.0
  0
ARC
  8
PartsFrameB
 10
6.000000
 20
9.325000
 30
0.0
 40
0.050000
 50
180.000000
 51
-90.000000
  0
LINE
  8
PartsFrameB
 10
5.950000
 20
9.325000
 30
0.0
 11
5.950000
 21
9.475000
 31
0.0
  0
ARC
  8
PartsFrameB
 10
6.000000
 20
9.475000
 30
0.0
 40
0.050000
 50
90.000000
 51
180.000000
  0
LINE
  8
PartsFrameB
 10
6.000000
 20
9.525000
 30
0.0
 11
6.500000
 21
9.525000
 31
0.0
  0
ARC
  8
PartsFrameB
 10
6.500000
 20
9.475000
 30
0.0
 40
0.050000
 50
0.000000
 51
90.000000
  0
LINE
  8
PartsFrameB
 10
6.550000
 20
9.475000
 30
0.0
 11
6.550000
 21
9.325000
 31
0.0
  0
ARC
  8
PartsFrameB
 10
6.500000
 20
9.325000
 30
0.0
 40
0.050000
 50
-90.000000
 51
0.000000
  0
LINE
  8
PartsFrameB
 10
6.500000
 20
9.275000
 30
0.0
 11
6.000000
 21
9.275000
 31
0.0
  0
ARC
  8
PartsFrameB
 10
6.000000
 20
9.825000
 30
0.0
 40
0.050000
 50
180.000000
 51
-90.000000
  0
LINE
  8
PartsFrameB
 10
5.950000
 20
9.825000
 30
0.0
 11
5.950000
 21
9.975000
 31
0.0
  0
ARC
  8
PartsFrameB
 10
6.000000
 20
9.975000
 30
0.0
 40
0.050000
 50
90.000000
 51
180.000000
  0
LINE
  8
PartsFrameB
 10
6.000000
 20
10.025000
 30
0.0
 11
6.500000
 21
10.025000
 31
0.0
  0
ARC
  8
PartsFrameB
 10
6.500000
 20
9.975000
 30
0.0
 40
0.050000
 50
0.000000
 51
90.000000
  0
LINE
  8
PartsFrameB
 10
6.550000
 20
9.975000
 30
0.0
 11
6.550000
 21
9.825000
 31
0.0
  0
ARC
  8
PartsFrameB
 10
6.500000
 20
9.825000
 30
0.0
 40
0.050000
 50
-90.000000
 51
0.000000
  0
LINE
  8
PartsFrameB
 10
6.500000
 20
9.775000
 30
0.0
 11
6.000000
 21
9.775000
 31
0.0
  0
ARC
  8
PartsFrameB
 10
6.000000
 20
10.325000
 30
0.0
 40
0.050000
 50
180.000000
 51
-90.000000
  0
LINE
  8
PartsFrameB
 10
5.950000
 20
10.325000
 30
0.0
 11
5.950000
 21
10.475000
 31
0.0
  0
ARC
  8
PartsFrameB
 10
6.000000
 20
10.475000
 30
0.0
 40
0.050000
 50
90.000000
 51
180.000000
  0
LINE
  8
PartsFrameB
 10
6.000000
 20
10.525000
 30
0.0
 11
6.500000
 21
10.525000
 31
0.0
  0
ARC
  8
PartsFrameB
 10
6.500000
 20
10.475000
 30
0.0
 40
0.050000
 50
0.000000
 51
90.000000
  0
LINE
  8
PartsFrameB
 10
6.550000
 20
10.475000
 30
0.0
 11
6.550000
 21
10.325000
 31
0.0
  0
ARC
  8
PartsFrameB
 10
6.500000
 20
10.325000
 30
0.0
 40
0.050000
 50
-90.000000
 51
0.000000
  0
LINE
  8
PartsFrameB
 10
6.500000
 20
10.275000
 30
0.0
 11
6.000000
 21
10.275000
 31
0.0
  0
ARC
  8
PartsFrameB
 10
6.000000
 20
10.825000
 30
0.0
 40
0.050000
 50
180.000000
 51
-90.000000
  0
LINE
  8
PartsFrameB
 10
5.950000
 20
10.825000
 30
0.0
 11
5.950000
 21
10.975000
 31
0.0
  0
ARC
  8
PartsFrameB
 10
6.000000
 20
10.975000
 30
0.0
 40
0.050000
 50
90.000000
 51
180.000000
  0
LINE
  8
PartsFrameB
 10
6.000000
 20
11.025000
 30
0.0
 11
6.500000
 21
11.025000
 31
0.0
  0
ARC
  8
PartsFrameB
 10
6.500000
 20
10.975000
 30
0.0
 40
0.050000
 50
0.000000
 51
90.000000
  0
LINE
  8
PartsFrameB
 10
6.550000
 20
10.975000
 30
0.0
 11
6.550000
 21
10.825000
 31
0.0
  0
ARC
  8
PartsFrameB
 10
6.500000
 20
10.825000
 30
0.0
 40
0.050000
 50
-90.000000
 51
0.000000
  0
LINE
  8
PartsFrameB
 10
6.500000
 20
10.775000
 30
0.0
 11
6.000000
 21
10.775000
 31
0.0
  0
ARC
  8
PartsFrameB
 10
6.000000
 20
11.325000
 30
0.0
 40
0.050000
 50
180.000000
 51
-90.000000
  0
LINE
  8
PartsFrameB
 10
5.950000
 20
11.325000
 30
0.0
 11
5.950000
 21
11.475000
 31
0.0
  0
ARC
  8
PartsFrameB
 10
6.000000
 20
11.475000
 30
0.0
 40
0.050000
 50
90.000000
 51
180.000000
  0
LINE
  8
PartsFrameB
 10
6.000000
 20
11.525000
 30
0.0
 11
6.500000
 21
11.525000
 31
0.0
  0
ARC
  8
PartsFrameB
 10
6.500000
 20
11.475000
 30
0.0
 40
0.050000
 50
0.000000
 51
90.000000
  0
LINE
  8
PartsFrameB
 10
6.550000
 20
11.475000
 30
0.0
 11
6.550000
 21
11.325000
 31
0.0
  0
ARC
  8
PartsFrameB
 10
6.500000
 20
11.325000
 30
0.0
 40
0.050000
 50
-90.000000
 51
0.000000
  0
LINE
  8
PartsFrameB
 10
6.500000
 20
11.275000
 30
0.0
 11
6.000000
 21
11.275000
 31
0.0
  0
ARC
  8
PartsFrameB
 10
6.000000
 20
11.825000
 30
0.0
 40
0.050000
 50
180.000000
 51
-90.000000
  0
LINE
  8
PartsFrameB
 10
5.950000
 20
11.825000
 30
0.0
 11
5.950000
 21
11.975000
 31
0.0
  0
ARC
  8
PartsFrameB
 10
6.000000
 20
11.975000
 30
0.0
 40
0.050000
 50
90.000000
 51
180.000000
  0
LINE
  8
PartsFrameB
 10
6.000000
 20
12.025000
 30
0.0
 11
6.500000
 21
12.025000
 31
0.0
  0
ARC
  8
PartsFrameB
 10
6.500000
 20
11.975000
 30
0.0
 40
0.050000
 50
0.000000
 51
90.000000
  0
LINE
  8
PartsFrameB
 10
6.550000
 20
11.975000
 30
0.0
 11
6.550000
 21
11.825000
 31
0.0
  0
ARC
  8
PartsFrameB
 10
6.500000
 20
11.825000
 30
0.0
 40
0.050000
 50
-90.000000
 51
0.000000
  0
LINE
  8
PartsFrameB
 10
6.500000
 20
11.775000
 30
0.0
 11
6.000000
 21
11.775000
 31
0.0
  0
ARC
  8
PartsFrameB
 10
6.000000
 20
12.325000
 30
0.0
 40
0.050000
 50
180.000000
 51
-90.000000
  0
LINE
  8
PartsFrameB
 10
5.950000
 20
12.325000
 30
0.0
 11
5.950000
 21
12.475000
 31
0.0
  0
ARC
  8
PartsFrameB
 10
6.000000
 20
12.475000
 30
0.0
 40
0.050000
 50
90.000000
 51
180.000000
  0
LINE
  8
PartsFrameB
 10
6.000000
 20
12.525000
 30
0.0
 11
6.500000
 21
12.525000
 31
0.0
  0
ARC
  8
PartsFrameB
 10
6.500000
 20
12.475000
 30
0.0
 40
0.050000
 50
0.000000
 51
90.000000
  0
LINE
  8
PartsFrameB
 10
6.550000
 20
12.475000
 30
0.0
 11
6.550000
 21
12.325000
 31
0.0
  0
ARC
  8
PartsFrameB
 10
6.500000
 20
12.325000
 30
0.0
 40
0.050000
 50
-90.000000
 51
0.000000
  0
LINE
  8
PartsFrameB
 10
6.500000
 20
12.275000
 30
0.0
 11
6.000000
 21
12.275000
 31
0.0
  0
ARC
  8
PartsFrameB
 10
6.000000
 20
13.325000
 30
0.0
 40
0.050000
 50
180.000000
 51
-90.000000
  0
LINE
  8
PartsFrameB
 10
5.950000
 20
13.325000
 30
0.0
 11
5.950000
 21
13.475000
 31
0.0
  0
ARC
  8
PartsFrameB
 10
6.000000
 20
13.475000
 30
0.0
 40
0.050000
 50
90.000000
 51
180.000000
  0
LINE
  8
PartsFrameB
 10
6.000000
 20
13.525000
 30
0.0
 11
6.500000
 21
13.525000
 31
0.0
  0
ARC
  8
PartsFrameB
 10
6.500000
 20
13.475000
 30
0.0
 40
0.050000
 50
0.000000
 51
90.000000
  0
LINE
  8
PartsFrameB
 10
6.550000
 20
13.475000
 30
0.0
 11
6.550000
 21
13.325000
 31
0.0
  0
ARC
  8
PartsFrameB
 10
6.500000
 20
13.325000
 30
0.0
 40
0.050000
 50
-90.000000
 51
0.000000
  0
LINE
  8
PartsFrameB
 10
6.500000
 20
13.275000
 30
0.0
 11
6.000000
 21
13.275000
 31
0.0
  0
ARC
  8
PartsFrameB
 10
7.075000
 20
13.050000
 30
0.0
 40
0.050000
 50
-90.000000
 51
0.000000
  0
LINE
  8
PartsFrameB
 10
7.075000
 20
13.000000
 30
0.0
 11
6.925000
 21
13.000000
 31
0.0
  0
ARC
  8
PartsFrameB
 10
6.925000
 20
13.050000
 30
0.0
 40
0.050000
 50
180.000000
 51
-90.000000
  0
LINE
  8
PartsFrameB
 10
6.875000
 20
13.050000
 30
0.0
 11
6.875000
 21
13.550000
 31
0.0
  0
ARC
  8
PartsFrameB
 10
6.925000
 20
13.550000
 30
0.0
 40
0.050000
 50
90.000000
 51
180.000000
  0
LINE
  8
PartsFrameB
 10
6.925000
 20
13.600000
 30
0.0
 11
7.075000
 21
13.600000
 31
0.0
  0
ARC
  8
PartsFrameB
 10
7.075000
 20
13.550000
 30
0.0
 40
0.050000
 50
0.000000
 51
90.000000
  0
LINE
  8
PartsFrameB
 10
7.125000
 20
13.550000
 30
0.0
 11
7.125000
 21
13.050000
 31
0.0
  0
ARC
  8
PartsFrameB
 10
7.575000
 20
13.050000
 30
0.0
 40
0.050000
 50
-90.000000
 51
0.000000
  0
LINE
  8
PartsFrameB
 10
7.575000
 20
13.000000
 30
0.0
 11
7.425000
 21
13.000000
 31
0.0
  0
ARC
  8
PartsFrameB
 10
7.425000
 20
13.050000
 30
0.0
 40
0.050000
 50
180.000000
 51
-90.000000
  0
LINE
  8
PartsFrameB
 10
7.375000
 20
13.050000
 30
0.0
 11
7.375000
 21
13.550000
 31
0.0
  0
ARC
  8
PartsFrameB
 10
7.425000
 20
13.550000
 30
0.0
 40
0.050000
 50
90.000000
 51
180.000000
  0
LINE
  8
PartsFrameB
 10
7.425000
 20
13.600000
 30
0.0
 11
7.575000
 21
13.600000
 31
0.0
  0
ARC
  8
PartsFrameB
 10
7.575000
 20
13.550000
 30
0.0
 40
0.050000
 50
0.000000
 51
90.000000
  0
LINE
  8
PartsFrameB
 10
7.625000
 20
13.550000
 30
0.0
 11
7.625000
 21
13.050000
 31
0.0
  0
ARC
  8
PartsFrameB
 10
8.075000
 20
13.050000
 30
0.0
 40
0.050000
 50
-90.000000
 51
0.000000
  0
LINE
  8
PartsFrameB
 10
8.075000
 20
13.000000
 30
0.0
 11
7.925000
 21
13.000000
 31
0.0
  0
ARC
  8
PartsFrameB
 10
7.925000
 20
13.050000
 30
0.0
 40
0.050000
 50
180.000000
 51
-90.000000
  0
LINE
  8
PartsFrameB
 10
7.875000
 20
13.050000
 30
0.0
 11
7.875000
 21
13.550000
 31
0.0
  0
ARC
  8
PartsFrameB
 10
7.925000
 20
13.550000
 30
0.0
 40
0.050000
 50
90.000000
 51
180.000000
  0
LINE
  8
PartsFrameB
 10
7.925000
 20
13.600000
 30
0.0
 11
8.075000
 21
13.600000
 31
0.0
  0
ARC
  8
PartsFrameB
 10
8.075000
 20
13.550000
 30
0.0
 40
0.050000
 50
0.000000
 51
90.000000
  0
LINE
  8
PartsFrameB
 10
8.125000
 20
13.550000
 30
0.0
 11
8.125000
 21
13.050000
 31
0.0
  0
ARC
  8
PartsFrameB
 10
8.575000
 20
13.050000
 30
0.0
 40
0.050000
 50
-90.000000
 51
0.000000
  0
LINE
  8
PartsFrameB
 10
8.575000
 20
13.000000
 30
0.0
 11
8.425000
 21
13.000000
 31
0.0
  0
ARC
  8
PartsFrameB
 10
8.425000
 20
13.050000
 30
0.0
 40
0.050000
 50
180.000000
 51
-90.000000
  0
LINE
  8
PartsFrameB
 10
8.375000
 20
13.050000
 30
0.0
 11
8.375000
 21
13.550000
 31
0.0
  0
ARC
  8
PartsFrameB
 10
8.425000
 20
13.550000
 30
0.0
 40
0.050000
 50
90.000000
 51
180.000000
  0
LINE
  8
PartsFrameB
 10
8.425000
 20
13.600000
 30
0.0
 11
8.575000
 21
13.600000
 31
0.0
  0
ARC
  8
PartsFrameB
 10
8.575000
 20
13.550000
 30
0.0
 40
0.050000
 50
0.000000
 51
90.000000
  0
LINE
  8
PartsFrameB
 10
8.625000
 20
13.550000
 30
0.0
 11
8.625000
 21
13.050000
 31
0.0
  0
ARC
  8
PartsFrameB
 10
9.075000
 20
13.050000
 30
0.0
 40
0.050000
 50
-90.000000
 51
0.000000
  0
LINE
  8
PartsFrameB
 10
9.075000
 20
13.000000
 30
0.0
 11
8.925000
 21
13.000000
 31
0.0
  0
ARC
  8
PartsFrameB
 10
8.925000
 20
13.050000
 30
0.0
 40
0.050000
 50
180.000000
 51
-90.000000
  0
LINE
  8
PartsFrameB
 10
8.875000
 20
13.050000
 30
0.0
 11
8.875000
 21
13.550000
 31
0.0
  0
ARC
  8
PartsFrameB
 10
8.925000
 20
13.550000
 30
0.0
 40
0.050000
 50
90.000000
 51
180.000000
  0
LINE
  8
PartsFrameB
 10
8.925000
 20
13.600000
 30
0.0
 11
9.075000
 21
13.600000
 31
0.0
  0
ARC
  8
PartsFrameB
 10
9.075000
 20
13.550000
 30
0.0
 40
0.050000
 50
0.000000
 51
90.000000
  0
LINE
  8
PartsFrameB
 10
9.125000
 20
13.550000
 30
0.0
 11
9.125000
 21
13.050000
 31
0.0
  0
ARC
  8
PartsFrameB
 10
9.575000
 20
13.050000
 30
0.0
 40
0.050000
 50
-90.000000
 51
0.000000
  0
LINE
  8
PartsFrameB
 10
9.575000
 20
13.000000
 30
0.0
 11
9.425000
 21
13.000000
 31
0.0
  0
ARC
  8
PartsFrameB
 10
9.425000
 20
13.050000
 30
0.0
 40
0.050000
 50
180.000000
 51
-90.000000
  0
LINE
  8
PartsFrameB
 10
9.375000
 20
13.050000
 30
0.0
 11
9.375000
 21
13.550000
 31
0.0
  0
ARC
  8
PartsFrameB
 10
9.425000
 20
13.550000
 30
0.0
 40
0.050000
 50
90.000000
 51
180.000000
  0
LINE
  8
PartsFrameB
 10
9.425000
 20
13.600000
 30
0.0
 11
9.575000
 21
13.600000
 31
0.0
  0
ARC
  8
PartsFrameB
 10
9.575000
 20
13.550000
 30
0.0
 40
0.050000
 50
0.000000
 51
90.000000
  0
LINE
  8
PartsFrameB
 10
9.625000
 20
13.550000
 30
0.0
 11
9.625000
 21
13.050000
 31
0.0
  0
ARC
  8
PartsFrameB
 10
10.075000
 20
13.050000
 30
0.0
 40
0.050000
 50
-90.000000
 51
0.000000
  0
LINE
  8
PartsFrameB
 10
10.075000
 20
13.000000
 30
0.0
 11
9.925000
 21
13.000000
 31
0.0
  0
ARC
  8
PartsFrameB
 10
9.925000
 20
13.050000
 30
0.0
 40
0.050000
 50
180.000000
 51
-90.000000
  0
LINE
  8
PartsFrameB
 10
9.875000
 20
13.050000
 30
0.0
 11
9.875000
 21
13.550000
 31
0.0
  0
ARC
  8
PartsFrameB
 10
9.925000
 20
13.550000
 30
0.0
 40
0.050000
 50
90.000000
 51
180.000000
  0
LINE
  8
PartsFrameB
 10
9.925000
 20
13.600000
 30
0.0
 11
10.075000
 21
13.600000
 31
0.0
  0
ARC
  8
PartsFrameB
 10
10.075000
 20
13.550000
 30
0.0
 40
0.050000
 50
0.000000
 51
90.000000
  0
LINE
  8
PartsFrameB
 10
10.125000
 20
13.550000
 30
0.0
 11
10.125000
 21
13.050000
 31
0.0
  0
ARC
  8
PartsFrameB
 10
10.575000
 20
13.050000
 30
0.0
 40
0.050000
 50
-90.000000
 51
0.000000
  0
LINE
  8
PartsFrameB
 10
10.575000
 20
13.000000
 30
0.0
 11
10.425000
 21
13.000000
 31
0.0
  0
ARC
  8
PartsFrameB
 10
10.425000
 20
13.050000
 30
0.0
 40
0.050000
 50
180.000000
 51
-90.000000
  0
LINE
  8
PartsFrameB
 10
10.375000
 20
13.050000
 30
0.0
 11
10.375000
 21
13.550000
 31
0.0
  0
ARC
  8
PartsFrameB
 10
10.425000
 20
13.550000
 30
0.0
 40
0.050000
 50
90.000000
 51
180.000000
  0
LINE
  8
PartsFrameB
 10
10.425000
 20
13.600000
 30
0.0
 11
10.575000
 21
13.600000
 31
0.0
  0
ARC
  8
PartsFrameB
 10
10.575000
 20
13.550000
 30
0.0
 40
0.050000
 50
0.000000
 51
90.000000
  0
LINE
  8
PartsFrameB
 10
10.625000
 20
13.550000
 30
0.0
 11
10.625000
 21
13.050000
 31
0.0
  0
ARC
  8
PartsFrameB
 10
11.075000
 20
13.050000
 30
0.0
 40
0.050000
 50
-90.000000
 51
0.000000
  0
LINE
  8
PartsFrameB
 10
11.075000
 20
13.000000
 30
0.0
 11
10.925000
 21
13.000000
 31
0.0
  0
ARC
  8
PartsFrameB
 10
10.925000
 20
13.050000
 30
0.0
 40
0.050000
 50
180.000000
 51
-90.000000
  0
LINE
  8
PartsFrameB
 10
10.875000
 20
13.050000
 30
0.0
 11
10.875000
 21
13.550000
 31
0.0
  0
ARC
  8
PartsFrameB
 10
10.925000
 20
13.550000
 30
0.0
 40
0.050000
 50
90.000000
 51
180.000000
  0
LINE
  8
PartsFrameB
 10
10.925000
 20
13.600000
 30
0.0
 11
11.075000
 21
13.600000
 31
0.0
  0
ARC
  8
PartsFrameB
 10
11.075000
 20
13.550000
 30
0.0
 40
0.050000
 50
0.000000
 51
90.000000
  0
LINE
  8
PartsFrameB
 10
11.125000
 20
13.550000
 30
0.0
 11
11.125000
 21
13.050000
 31
0.0
  0
ARC
  8
PartsFrameB
 10
11.575000
 20
13.050000
 30
0.0
 40
0.050000
 50
-90.000000
 51
0.000000
  0
LINE
  8
PartsFrameB
 10
11.575000
 20
13.000000
 30
0.0
 11
11.425000
 21
13.000000
 31
0.0
  0
ARC
  8
PartsFrameB
 10
11.425000
 20
13.050000
 30
0.0
 40
0.050000
 50
180.000000
 51
-90.000000
  0
LINE
  8
PartsFrameB
 10
11.375000
 20
13.050000
 30
0.0
 11
11.375000
 21
13.550000
 31
0.0
  0
ARC
  8
PartsFrameB
 10
11.425000
 20
13.550000
 30
0.0
 40
0.050000
 50
90.000000
 51
180.000000
  0
LINE
  8
PartsFrameB
 10
11.425000
 20
13.600000
 30
0.0
 11
11.575000
 21
13.600000
 31
0.0
  0
ARC
  8
PartsFrameB
 10
11.575000
 20
13.550000
 30
0.0
 40
0.050000
 50
0.000000
 51
90.000000
  0
LINE
  8
PartsFrameB
 10
11.625000
 20
13.550000
 30
0.0
 11
11.625000
 21
13.050000
 31
0.0
  0
ARC
  8
PartsFrameB
 10
12.075000
 20
13.050000
 30
0.0
 40
0.050000
 50
-90.000000
 51
0.000000
  0
LINE
  8
PartsFrameB
 10
12.075000
 20
13.000000
 30
0.0
 11
11.925000
 21
13.000000
 31
0.0
  0
ARC
  8
PartsFrameB
 10
11.925000
 20
13.050000
 30
0.0
 40
0.050000
 50
180.000000
 51
-90.000000
  0
LINE
  8
PartsFrameB
 10
11.875000
 20
13.050000
 30
0.0
 11
11.875000
 21
13.550000
 31
0.0
  0
ARC
  8
PartsFrameB
 10
11.925000
 20
13.550000
 30
0.0
 40
0.050000
 50
90.000000
 51
180.000000
  0
LINE
  8
PartsFrameB
 10
11.925000
 20
13.600000
 30
0.0
 11
12.075000
 21
13.600000
 31
0.0
  0
ARC
  8
PartsFrameB
 10
12.075000
 20
13.550000
 30
0.0
 40
0.050000
 50
0.000000
 51
90.000000
  0
LINE
  8
PartsFrameB
 10
12.125000
 20
13.550000
 30
0.0
 11
12.125000
 21
13.050000
 31
0.0
  0
ARC
  8
PartsFrameB
 10
12.575000
 20
13.050000
 30
0.0
 40
0.050000
 50
-90.000000
 51
0.000000
  0
LINE
  8
PartsFrameB
 10
12.575000
 20
13.000000
 30
0.0
 11
12.425000
 21
13.000000
 31
0.0
  0
ARC
  8
PartsFrameB
 10
12.425000
 20
13.050000
 30
0.0
 40
0.050000
 50
180.000000
 51
-90.000000
  0
LINE
  8
PartsFrameB
 10
12.375000
 20
13.050000
 30
0.0
 11
12.375000
 21
13.550000
 31
0.0
  0
ARC
  8
PartsFrameB
 10
12.425000
 20
13.550000
 30
0.0
 40
0.050000
 50
90.000000
 51
180.000000
  0
LINE
  8
PartsFrameB
 10
12.425000
 20
13.600000
 30
0.0
 11
12.575000
 21
13.600000
 31
0.0
  0
ARC
  8
PartsFrameB
 10
12.575000
 20
13.550000
 30
0.0
 40
0.050000
 50
0.000000
 51
90.000000
  0
LINE
  8
PartsFrameB
 10
12.625000
 20
13.550000
 30
0.0
 11
12.625000
 21
13.050000
 31
0.0
  0
ARC
  8
PartsFrameB
 10
13.075000
 20
13.050000
 30
0.0
 40
0.050000
 50
-90.000000
 51
0.000000
  0
LINE
  8
PartsFrameB
 10
13.075000
 20
13.000000
 30
0.0
 11
12.925000
 21
13.000000
 31
0.0
  0
ARC
  8
PartsFrameB
 10
12.925000
 20
13.050000
 30
0.0
 40
0.050000
 50
180.000000
 51
-90.000000
  0
LINE
  8
PartsFrameB
 10
12.875000
 20
13.050000
 30
0.0
 11
12.875000
 21
13.550000
 31
0.0
  0
ARC
  8
PartsFrameB
 10
12.925000
 20
13.550000
 30
0.0
 40
0.050000
 50
90.000000
 51
180.000000
  0
LINE
  8
PartsFrameB
 10
12.925000
 20
13.600000
 30
0.0
 11
13.075000
 21
13.600000
 31
0.0
  0
ARC
  8
PartsFrameB
 10
13.075000
 20
13.550000
 30
0.0
 40
0.050000
 50
0.000000
 51
90.000000
  0
LINE
  8
PartsFrameB
 10
13.125000
 20
13.550000
 30
0.0
 11
13.125000
 21
13.050000
 31
0.0
  0
ARC
  8
PartsFrameB
 10
13.575000
 20
13.050000
 30
0.0
 40
0.050000
 50
-90.000000
 51
0.000000
  0
LINE
  8
PartsFrameB
 10
13.575000
 20
13.000000
 30
0.0
 11
13.425000
 21
13.000000
 31
0.0
  0
ARC
  8
PartsFrameB
 10
13.425000
 20
13.050000
 30
0.0
 40
0.050000
 50
180.000000
 51
-90.000000
  0
LINE
  8
PartsFrameB
 10
13.375000
 20
13.050000
 30
0.0
 11
13.375000
 21
13.550000
 31
0.0
  0
ARC
  8
PartsFrameB
 10
13.425000
 20
13.550000
 30
0.0
 40
0.050000
 50
90.000000
 51
180.000000
  0
LINE
  8
PartsFrameB
 10
13.425000
 20
13.600000
 30
0.0
 11
13.575000
 21
13.600000
 31
0.0
  0
ARC
  8
PartsFrameB
 10
13.575000
 20
13.550000
 30
0.0
 40
0.050000
 50
0.000000
 51
90.000000
  0
LINE
  8
PartsFrameB
 10
13.625000
 20
13.550000
 30
0.0
 11
13.625000
 21
13.050000
 31
0.0
  0
ARC
  8
PartsFrameB
 10
13.925000
 20
13.550000
 30
0.0
 40
0.050000
 50
90.000000
 51
180.000000
  0
LINE
  8
PartsFrameB
 10
13.925000
 20
13.600000
 30
0.0
 11
14.075000
 21
13.600000
 31
0.0
  0
ARC
  8
PartsFrameB
 10
14.075000
 20
13.550000
 30
0.0
 40
0.050000
 50
0.000000
 51
90.000000
  0
LINE
  8
PartsFrameB
 10
14.125000
 20
13.550000
 30
0.0
 11
14.125000
 21
13.050000
 31
0.0
  0
ARC
  8
PartsFrameB
 10
14.075000
 20
13.050000
 30
0.0
 40
0.050000
 50
-90.000000
 51
0.000000
  0
LINE
  8
PartsFrameB
 10
14.075000
 20
13.000000
 30
0.0
 11
13.925000
 21
13.000000
 31
0.0
  0
ARC
  8
PartsFrameB
 10
13.925000
 20
13.050000
 30
0.0
 40
0.050000
 50
180.000000
 51
-90.000000
  0
LINE
  8
PartsFrameB
 10
13.875000
 20
13.050000
 30
0.0
 11
13.875000
 21
13.550000
 31
0.0
  0
ARC
  8
PartsFrameB
 10
14.575000
 20
13.050000
 30
0.0
 40
0.050000
 50
-90.000000
 51
0.000000
  0
LINE
  8
PartsFrameB
 10
14.575000
 20
13.000000
 30
0.0
 11
14.425000
 21
13.000000
 31
0.0
  0
ARC
  8
PartsFrameB
 10
14.425000
 20
13.050000
 30
0.0
 40
0.050000
 50
180.000000
 51
-90.000000
  0
LINE
  8
PartsFrameB
 10
14.375000
 20
13.050000
 30
0.0
 11
14.375000
 21
13.550000
 31
0.0
  0
ARC
  8
PartsFrameB
 10
14.425000
 20
13.550000
 30
0.0
 40
0.050000
 50
90.000000
 51
180.000000
  0
LINE
  8
PartsFrameB
 10
14.425000
 20
13.600000
 30
0.0
 11
14.575000
 21
13.600000
 31
0.0
  0
ARC
  8
PartsFrameB
 10
14.575000
 20
13.550000
 30
0.0
 40
0.050000
 50
0.000000
 51
90.000000
  0
LINE
  8
PartsFrameB
 10
14.625000
 20
13.550000
 30
0.0
 11
14.625000
 21
13.050000
 31
0.0
  0
ARC
  8
PartsFrameB
 10
14.925000
 20
13.550000
 30
0.0
 40
0.050000
 50
90.000000
 51
180.000000
  0
LINE
  8
PartsFrameB
 10
14.925000
 20
13.600000
 30
0.0
 11
15.075000
 21
13.600000
 31
0.0
  0
ARC
  8
PartsFrameB
 10
15.075000
 20
13.550000
 30
0.0
 40
0.050000
 50
0.000000
 51
90.000000
  0
LINE
  8
PartsFrameB
 10
15.125000
 20
13.550000
 30
0.0
 11
15.125000
 21
13.050000
 31
0.0
  0
ARC
  8
PartsFrameB
 10
15.075000
 20
13.050000
 30
0.0
 40
0.050000
 50
-90.000000
 51
0.000000
  0
LINE
  8
PartsFrameB
 10
15.075000
 20
13.000000
 30
0.0
 11
14.925000
 21
13.000000
 31
0.0
  0
ARC
  8
PartsFrameB
 10
14.925000
 20
13.050000
 30
0.0
 40
0.050000
 50
180.000000
 51
-90.000000
  0
LINE
  8
PartsFrameB
 10
14.875000
 20
13.050000
 30
0.0
 11
14.875000
 21
13.550000
 31
0.0
  0
ARC
  8
PartsFrameB
 10
15.575000
 20
13.050000
 30
0.0
 40
0.050000
 50
-90.000000
 51
0.000000
  0
LINE
  8
PartsFrameB
 10
15.575000
 20
13.000000
 30
0.0
 11
15.425000
 21
13.000000
 31
0.0
  0
ARC
  8
PartsFrameB
 10
15.425000
 20
13.050000
 30
0.0
 40
0.050000
 50
180.000000
 51
-90.000000
  0
LINE
  8
PartsFrameB
 10
15.375000
 20
13.050000
 30
0.0
 11
15.375000
 21
13.550000
 31
0.0
  0
ARC
  8
PartsFrameB
 10
15.425000
 20
13.550000
 30
0.0
 40
0.050000
 50
90.000000
 51
180.000000
  0
LINE
  8
PartsFrameB
 10
15.425000
 20
13.600000
 30
0.0
 11
15.575000
 21
13.600000
 31
0.0
  0
ARC
  8
PartsFrameB
 10
15.575000
 20
13.550000
 30
0.0
 40
0.050000
 50
0.000000
 51
90.000000
  0
LINE
  8
PartsFrameB
 10
15.625000
 20
13.550000
 30
0.0
 11
15.625000
 21
13.050000
 31
0.0
  0
ARC
  8
PartsFrameB
 10
16.075000
 20
13.050000
 30
0.0
 40
0.050000
 50
-90.000000
 51
0.000000
  0
LINE
  8
PartsFrameB
 10
16.075000
 20
13.000000
 30
0.0
 11
15.925000
 21
13.000000
 31
0.0
  0
ARC
  8
PartsFrameB
 10
15.925000
 20
13.050000
 30
0.0
 40
0.050000
 50
180.000000
 51
-90.000000
  0
LINE
  8
PartsFrameB
 10
15.875000
 20
13.050000
 30
0.0
 11
15.875000
 21
13.550000
 31
0.0
  0
ARC
  8
PartsFrameB
 10
15.925000
 20
13.550000
 30
0.0
 40
0.050000
 50
90.000000
 51
180.000000
  0
LINE
  8
PartsFrameB
 10
15.925000
 20
13.600000
 30
0.0
 11
16.075000
 21
13.600000
 31
0.0
  0
ARC
  8
PartsFrameB
 10
16.075000
 20
13.550000
 30
0.0
 40
0.050000
 50
0.000000
 51
90.000000
  0
LINE
  8
PartsFrameB
 10
16.125000
 20
13.550000
 30
0.0
 11
16.125000
 21
13.050000
 31
0.0
  0
ARC
  8
PartsFrameB
 10
16.500000
 20
13.325000
 30
0.0
 40
0.050000
 50
180.000000
 51
-90.000000
  0
LINE
  8
PartsFrameB
 10
16.450000
 20
13.325000
 30
0.0
 11
16.450000
 21
13.475000
 31
0.0
  0
ARC
  8
PartsFrameB
 10
16.500000
 20
13.475000
 30
0.0
 40
0.050000
 50
90.000000
 51
180.000000
  0
LINE
  8
PartsFrameB
 10
16.500000
 20
13.525000
 30
0.0
 11
17.000000
 21
13.525000
 31
0.0
  0
ARC
  8
PartsFrameB
 10
17.000000
 20
13.475000
 30
0.0
 40
0.050000
 50
0.000000
 51
90.000000
  0
LINE
  8
PartsFrameB
 10
17.050000
 20
13.475000
 30
0.0
 11
17.050000
 21
13.325000
 31
0.0
  0
ARC
  8
PartsFrameB
 10
17.000000
 20
13.325000
 30
0.0
 40
0.050000
 50
-90.000000
 51
0.000000
  0
LINE
  8
PartsFrameB
 10
17.000000
 20
13.275000
 30
0.0
 11
16.500000
 21
13.275000
 31
0.0
  0
ARC
  8
PartsFrameB
 10
16.500000
 20
12.825000
 30
0.0
 40
0.050000
 50
180.000000
 51
-90.000000
  0
LINE
  8
PartsFrameB
 10
16.450000
 20
12.825000
 30
0.0
 11
16.450000
 21
12.975000
 31
0.0
  0
ARC
  8
PartsFrameB
 10
16.500000
 20
12.975000
 30
0.0
 40
0.050000
 50
90.000000
 51
180.000000
  0
LINE
  8
PartsFrameB
 10
16.500000
 20
13.025000
 30
0.0
 11
17.000000
 21
13.025000
 31
0.0
  0
ARC
  8
PartsFrameB
 10
17.000000
 20
12.975000
 30
0.0
 40
0.050000
 50
0.000000
 51
90.000000
  0
LINE
  8
PartsFrameB
 10
17.050000
 20
12.975000
 30
0.0
 11
17.050000
 21
12.825000
 31
0.0
  0
ARC
  8
PartsFrameB
 10
17.000000
 20
12.825000
 30
0.0
 40
0.050000
 50
-90.000000
 51
0.000000
  0
LINE
  8
PartsFrameB
 10
17.000000
 20
12.775000
 30
0.0
 11
16.500000
 21
12.775000
 31
0.0
  0
ARC
  8
PartsFrameB
 10
16.500000
 20
12.325000
 30
0.0
 40
0.050000
 50
180.000000
 51
-90.000000
  0
LINE
  8
PartsFrameB
 10
16.450000
 20
12.325000
 30
0.0
 11
16.450000
 21
12.475000
 31
0.0
  0
ARC
  8
PartsFrameB
 10
16.500000
 20
12.475000
 30
0.0
 40
0.050000
 50
90.000000
 51
180.000000
  0
LINE
  8
PartsFrameB
 10
16.500000
 20
12.525000
 30
0.0
 11
17.000000
 21
12.525000
 31
0.0
  0
ARC
  8
PartsFrameB
 10
17.000000
 20
12.475000
 30
0.0
 40
0.050000
 50
0.000000
 51
90.000000
  0
LINE
  8
PartsFrameB
 10
17.050000
 20
12.475000
 30
0.0
 11
17.050000
 21
12.325000
 31
0.0
  0
ARC
  8
PartsFrameB
 10
17.000000
 20
12.325000
 30
0.0
 40
0.050000
 50
-90.000000
 51
0.000000
  0
LINE
  8
PartsFrameB
 10
17.000000
 20
12.275000
 30
0.0
 11
16.500000
 21
12.275000
 31
0.0
  0
ARC
  8
PartsFrameB
 10
16.500000
 20
11.825000
 30
0.0
 40
0.050000
 50
180.000000
 51
-90.000000
  0
LINE
  8
PartsFrameB
 10
16.450000
 20
11.825000
 30
0.0
 11
16.450000
 21
11.975000
 31
0.0
  0
ARC
  8
PartsFrameB
 10
16.500000
 20
11.975000
 30
0.0
 40
0.050000
 50
90.000000
 51
180.000000
  0
LINE
  8
PartsFrameB
 10
16.500000
 20
12.025000
 30
0.0
 11
17.000000
 21
12.025000
 31
0.0
  0
ARC
  8
PartsFrameB
 10
17.000000
 20
11.975000
 30
0.0
 40
0.050000
 50
0.000000
 51
90.000000
  0
LINE
  8
PartsFrameB
 10
17.050000
 20
11.975000
 30
0.0
 11
17.050000
 21
11.825000
 31
0.0
  0
ARC
  8
PartsFrameB
 10
17.000000
 20
11.825000
 30
0.0
 40
0.050000
 50
-90.000000
 51
0.000000
  0
LINE
  8
PartsFrameB
 10
17.000000
 20
11.775000
 30
0.0
 11
16.500000
 21
11.775000
 31
0.0
  0
ARC
  8
PartsFrameB
 10
16.500000
 20
11.325000
 30
0.0
 40
0.050000
 50
180.000000
 51
-90.000000
  0
LINE
  8
PartsFrameB
 10
16.450000
 20
11.325000
 30
0.0
 11
16.450000
 21
11.475000
 31
0.0
  0
ARC
  8
PartsFrameB
 10
16.500000
 20
11.475000
 30
0.0
 40
0.050000
 50
90.000000
 51
180.000000
  0
LINE
  8
PartsFrameB
 10
16.500000
 20
11.525000
 30
0.0
 11
17.000000
 21
11.525000
 31
0.0
  0
ARC
  8
PartsFrameB
 10
17.000000
 20
11.475000
 30
0.0
 40
0.050000
 50
0.000000
 51
90.000000
  0
LINE
  8
PartsFrameB
 10
17.050000
 20
11.475000
 30
0.0
 11
17.050000
 21
11.325000
 31
0.0
  0
ARC
  8
PartsFrameB
 10
17.000000
 20
11.325000
 30
0.0
 40
0.050000
 50
-90.000000
 51
0.000000
  0
LINE
  8
PartsFrameB
 10
17.000000
 20
11.275000
 30
0.0
 11
16.500000
 21
11.275000
 31
0.0
  0
ARC
  8
PartsFrameB
 10
16.500000
 20
10.825000
 30
0.0
 40
0.050000
 50
180.000000
 51
-90.000000
  0
LINE
  8
PartsFrameB
 10
16.450000
 20
10.825000
 30
0.0
 11
16.450000
 21
10.975000
 31
0.0
  0
ARC
  8
PartsFrameB
 10
16.500000
 20
10.975000
 30
0.0
 40
0.050000
 50
90.000000
 51
180.000000
  0
LINE
  8
PartsFrameB
 10
16.500000
 20
11.025000
 30
0.0
 11
17.000000
 21
11.025000
 31
0.0
  0
ARC
  8
PartsFrameB
 10
17.000000
 20
10.975000
 30
0.0
 40
0.050000
 50
0.000000
 51
90.000000
  0
LINE
  8
PartsFrameB
 10
17.050000
 20
10.975000
 30
0.0
 11
17.050000
 21
10.825000
 31
0.0
  0
ARC
  8
PartsFrameB
 10
17.000000
 20
10.825000
 30
0.0
 40
0.050000
 50
-90.000000
 51
0.000000
  0
LINE
  8
PartsFrameB
 10
17.000000
 20
10.775000
 30
0.0
 11
16.500000
 21
10.775000
 31
0.0
  0
ARC
  8
PartsFrameB
 10
16.500000
 20
10.325000
 30
0.0
 40
0.050000
 50
180.000000
 51
-90.000000
  0
LINE
  8
PartsFrameB
 10
16.450000
 20
10.325000
 30
0.0
 11
16.450000
 21
10.475000
 31
0.0
  0
ARC
  8
PartsFrameB
 10
16.500000
 20
10.475000
 30
0.0
 40
0.050000
 50
90.000000
 51
180.000000
  0
LINE
  8
PartsFrameB
 10
16.500000
 20
10.525000
 30
0.0
 11
17.000000
 21
10.525000
 31
0.0
  0
ARC
  8
PartsFrameB
 10
17.000000
 20
10.475000
 30
0.0
 40
0.050000
 50
0.000000
 51
90.000000
  0
LINE
  8
PartsFrameB
 10
17.050000
 20
10.475000
 30
0.0
 11
17.050000
 21
10.325000
 31
0.0
  0
ARC
  8
PartsFrameB
 10
17.000000
 20
10.325000
 30
0.0
 40
0.050000
 50
-90.000000
 51
0.000000
  0
LINE
  8
PartsFrameB
 10
17.000000
 20
10.275000
 30
0.0
 11
16.500000
 21
10.275000
 31
0.0
  0
ARC
  8
PartsFrameB
 10
16.500000
 20
9.825000
 30
0.0
 40
0.050000
 50
180.000000
 51
-90.000000
  0
LINE
  8
PartsFrameB
 10
16.450000
 20
9.825000
 30
0.0
 11
16.450000
 21
9.975000
 31
0.0
  0
ARC
  8
PartsFrameB
 10
16.500000
 20
9.975000
 30
0.0
 40
0.050000
 50
90.000000
 51
180.000000
  0
LINE
  8
PartsFrameB
 10
16.500000
 20
10.025000
 30
0.0
 11
17.000000
 21
10.025000
 31
0.0
  0
ARC
  8
PartsFrameB
 10
17.000000
 20
9.975000
 30
0.0
 40
0.050000
 50
0.000000
 51
90.000000
  0
LINE
  8
PartsFrameB
 10
17.050000
 20
9.975000
 30
0.0
 11
17.050000
 21
9.825000
 31
0.0
  0
ARC
  8
PartsFrameB
 10
17.000000
 20
9.825000
 30
0.0
 40
0.050000
 50
-90.000000
 51
0.000000
  0
LINE
  8
PartsFrameB
 10
17.000000
 20
9.775000
 30
0.0
 11
16.500000
 21
9.775000
 31
0.0
  0
ARC
  8
PartsFrameB
 10
16.500000
 20
9.325000
 30
0.0
 40
0.050000
 50
180.000000
 51
-90.000000
  0
LINE
  8
PartsFrameB
 10
16.450000
 20
9.325000
 30
0.0
 11
16.450000
 21
9.475000
 31
0.0
  0
ARC
  8
PartsFrameB
 10
16.500000
 20
9.475000
 30
0.0
 40
0.050000
 50
90.000000
 51
180.000000
  0
LINE
  8
PartsFrameB
 10
16.500000
 20
9.525000
 30
0.0
 11
17.000000
 21
9.525000
 31
0.0
  0
ARC
  8
PartsFrameB
 10
17.000000
 20
9.475000
 30
0.0
 40
0.050000
 50
0.000000
 51
90.000000
  0
LINE
  8
PartsFrameB
 10
17.050000
 20
9.475000
 30
0.0
 11
17.050000
 21
9.325000
 31
0.0
  0
ARC
  8
PartsFrameB
 10
17.000000
 20
9.325000
 30
0.0
 40
0.050000
 50
-90.000000
 51
0.000000
  0
LINE
  8
PartsFrameB
 10
17.000000
 20
9.275000
 30
0.0
 11
16.500000
 21
9.275000
 31
0.0
  0
ARC
  8
PartsFrameB
 10
16.500000
 20
8.825000
 30
0.0
 40
0.050000
 50
180.000000
 51
-90.000000
  0
LINE
  8
PartsFrameB
 10
16.450000
 20
8.825000
 30
0.0
 11
16.450000
 21
8.975000
 31
0.0
  0
ARC
  8
PartsFrameB
 10
16.500000
 20
8.975000
 30
0.0
 40
0.050000
 50
90.000000
 51
180.000000
  0
LINE
  8
PartsFrameB
 10
16.500000
 20
9.025000
 30
0.0
 11
17.000000
 21
9.025000
 31
0.0
  0
ARC
  8
PartsFrameB
 10
17.000000
 20
8.975000
 30
0.0
 40
0.050000
 50
0.000000
 51
90.000000
  0
LINE
  8
PartsFrameB
 10
17.050000
 20
8.975000
 30
0.0
 11
17.050000
 21
8.825000
 31
0.0
  0
ARC
  8
PartsFrameB
 10
17.000000
 20
8.825000
 30
0.0
 40
0.050000
 50
-90.000000
 51
0.000000
  0
LINE
  8
PartsFrameB
 10
17.000000
 20
8.775000
 30
0.0
 11
16.500000
 21
8.775000
 31
0.0
  0
ARC
  8
PartsFrameB
 10
16.500000
 20
8.325000
 30
0.0
 40
0.050000
 50
180.000000
 51
-90.000000
  0
LINE
  8
PartsFrameB
 10
16.450000
 20
8.325000
 30
0.0
 11
16.450000
 21
8.475000
 31
0.0
  0
ARC
  8
PartsFrameB
 10
16.500000
 20
8.475000
 30
0.0
 40
0.050000
 50
90.000000
 51
180.000000
  0
LINE
  8
PartsFrameB
 10
16.500000
 20
8.525000
 30
0.0
 11
17.000000
 21
8.525000
 31
0.0
  0
ARC
  8
PartsFrameB
 10
17.000000
 20
8.475000
 30
0.0
 40
0.050000
 50
0.000000
 51
90.000000
  0
LINE
  8
PartsFrameB
 10
17.050000
 20
8.475000
 30
0.0
 11
17.050000
 21
8.325000
 31
0.0
  0
ARC
  8
PartsFrameB
 10
17.000000
 20
8.325000
 30
0.0
 40
0.050000
 50
-90.000000
 51
0.000000
  0
LINE
  8
PartsFrameB
 10
17.000000
 20
8.275000
 30
0.0
 11
16.500000
 21
8.275000
 31
0.0
  0
ARC
  8
PartsFrameB
 10
16.500000
 20
7.825000
 30
0.0
 40
0.050000
 50
180.000000
 51
-90.000000
  0
LINE
  8
PartsFrameB
 10
16.450000
 20
7.825000
 30
0.0
 11
16.450000
 21
7.975000
 31
0.0
  0
ARC
  8
PartsFrameB
 10
16.500000
 20
7.975000
 30
0.0
 40
0.050000
 50
90.000000
 51
180.000000
  0
LINE
  8
PartsFrameB
 10
16.500000
 20
8.025000
 30
0.0
 11
17.000000
 21
8.025000
 31
0.0
  0
ARC
  8
PartsFrameB
 10
17.000000
 20
7.975000
 30
0.0
 40
0.050000
 50
0.000000
 51
90.000000
  0
LINE
  8
PartsFrameB
 10
17.050000
 20
7.975000
 30
0.0
 11
17.050000
 21
7.825000
 31
0.0
  0
ARC
  8
PartsFrameB
 10
17.000000
 20
7.825000
 30
0.0
 40
0.050000
 50
-90.000000
 51
0.000000
  0
LINE
  8
PartsFrameB
 10
17.000000
 20
7.775000
 30
0.0
 11
16.500000
 21
7.775000
 31
0.0
  0
ARC
  8
PartsFrameB
 10
16.500000
 20
7.325000
 30
0.0
 40
0.050000
 50
180.000000
 51
-90.000000
  0
LINE
  8
PartsFrameB
 10
16.450000
 20
7.325000
 30
0.0
 11
16.450000
 21
7.475000
 31
0.0
  0
ARC
  8
PartsFrameB
 10
16.500000
 20
7.475000
 30
0.0
 40
0.050000
 50
90.000000
 51
180.000000
  0
LINE
  8
PartsFrameB
 10
16.500000
 20
7.525000
 30
0.0
 11
17.000000
 21
7.525000
 31
0.0
  0
ARC
  8
PartsFrameB
 10
17.000000
 20
7.475000
 30
0.0
 40
0.050000
 50
0.000000
 51
90.000000
  0
LINE
  8
PartsFrameB
 10
17.050000
 20
7.475000
 30
0.0
 11
17.050000
 21
7.325000
 31
0.0
  0
ARC
  8
PartsFrameB
 10
17.000000
 20
7.325000
 30
0.0
 40
0.050000
 50
-90.000000
 51
0.000000
  0
LINE
  8
PartsFrameB
 10
17.000000
 20
7.275000
 30
0.0
 11
16.500000
 21
7.275000
 31
0.0
  0
ARC
  8
PartsFrameB
 10
16.500000
 20
6.825000
 30
0.0
 40
0.050000
 50
180.000000
 51
-90.000000
  0
LINE
  8
PartsFrameB
 10
16.450000
 20
6.825000
 30
0.0
 11
16.450000
 21
6.975000
 31
0.0
  0
ARC
  8
PartsFrameB
 10
16.500000
 20
6.975000
 30
0.0
 40
0.050000
 50
90.000000
 51
180.000000
  0
LINE
  8
PartsFrameB
 10
16.500000
 20
7.025000
 30
0.0
 11
17.000000
 21
7.025000
 31
0.0
  0
ARC
  8
PartsFrameB
 10
17.000000
 20
6.975000
 30
0.0
 40
0.050000
 50
0.000000
 51
90.000000
  0
LINE
  8
PartsFrameB
 10
17.050000
 20
6.975000
 30
0.0
 11
17.050000
 21
6.825000
 31
0.0
  0
ARC
  8
PartsFrameB
 10
17.000000
 20
6.825000
 30
0.0
 40
0.050000
 50
-90.000000
 51
0.000000
  0
LINE
  8
PartsFrameB
 10
17.000000
 20
6.775000
 30
0.0
 11
16.500000
 21
6.775000
 31
0.0
  0
ARC
  8
PartsFrameB
 10
16.500000
 20
6.325000
 30
0.0
 40
0.050000
 50
180.000000
 51
-90.000000
  0
LINE
  8
PartsFrameB
 10
16.450000
 20
6.325000
 30
0.0
 11
16.450000
 21
6.475000
 31
0.0
  0
ARC
  8
PartsFrameB
 10
16.500000
 20
6.475000
 30
0.0
 40
0.050000
 50
90.000000
 51
180.000000
  0
LINE
  8
PartsFrameB
 10
16.500000
 20
6.525000
 30
0.0
 11
17.000000
 21
6.525000
 31
0.0
  0
ARC
  8
PartsFrameB
 10
17.000000
 20
6.475000
 30
0.0
 40
0.050000
 50
0.000000
 51
90.000000
  0
LINE
  8
PartsFrameB
 10
17.050000
 20
6.475000
 30
0.0
 11
17.050000
 21
6.325000
 31
0.0
  0
ARC
  8
PartsFrameB
 10
17.000000
 20
6.325000
 30
0.0
 40
0.050000
 50
-90.000000
 51
0.000000
  0
LINE
  8
PartsFrameB
 10
17.000000
 20
6.275000
 30
0.0
 11
16.500000
 21
6.275000
 31
0.0
  0
ARC
  8
PartsFrameB
 10
16.500000
 20
5.825000
 30
0.0
 40
0.050000
 50
180.000000
 51
-90.000000
  0
LINE
  8
PartsFrameB
 10
16.450000
 20
5.825000
 30
0.0
 11
16.450000
 21
5.975000
 31
0.0
  0
ARC
  8
PartsFrameB
 10
16.500000
 20
5.975000
 30
0.0
 40
0.050000
 50
90.000000
 51
180.000000
  0
LINE
  8
PartsFrameB
 10
16.500000
 20
6.025000
 30
0.0
 11
17.000000
 21
6.025000
 31
0.0
  0
ARC
  8
PartsFrameB
 10
17.000000
 20
5.975000
 30
0.0
 40
0.050000
 50
0.000000
 51
90.000000
  0
LINE
  8
PartsFrameB
 10
17.050000
 20
5.975000
 30
0.0
 11
17.050000
 21
5.825000
 31
0.0
  0
ARC
  8
PartsFrameB
 10
17.000000
 20
5.825000
 30
0.0
 40
0.050000
 50
-90.000000
 51
0.000000
  0
LINE
  8
PartsFrameB
 10
17.000000
 20
5.775000
 30
0.0
 11
16.500000
 21
5.775000
 31
0.0
  0
ARC
  8
PartsFrameB
 10
16.500000
 20
5.325000
 30
0.0
 40
0.050000
 50
180.000000
 51
-90.000000
  0
LINE
  8
PartsFrameB
 10
16.450000
 20
5.325000
 30
0.0
 11
16.450000
 21
5.475000
 31
0.0
  0
ARC
  8
PartsFrameB
 10
16.500000
 20
5.475000
 30
0.0
 40
0.050000
 50
90.000000
 51
180.000000
  0
LINE
  8
PartsFrameB
 10
16.500000
 20
5.525000
 30
0.0
 11
17.000000
 21
5.525000
 31
0.0
  0
ARC
  8
PartsFrameB
 10
17.000000
 20
5.475000
 30
0.0
 40
0.050000
 50
0.000000
 51
90.000000
  0
LINE
  8
PartsFrameB
 10
17.050000
 20
5.475000
 30
0.0
 11
17.050000
 21
5.325000
 31
0.0
  0
ARC
  8
PartsFrameB
 10
17.000000
 20
5.325000
 30
0.0
 40
0.050000
 50
-90.000000
 51
0.000000
  0
LINE
  8
PartsFrameB
 10
17.000000
 20
5.275000
 30
0.0
 11
16.500000
 21
5.275000
 31
0.0
  0
ARC
  8
PartsFrameB
 10
16.075000
 20
5.250000
 30
0.0
 40
0.050000
 50
-90.000000
 51
0.000000
  0
LINE
  8
PartsFrameB
 10
16.075000
 20
5.200000
 30
0.0
 11
15.925000
 21
5.200000
 31
0.0
  0
ARC
  8
PartsFrameB
 10
15.925000
 20
5.250000
 30
0.0
 40
0.050000
 50
180.000000
 51
-90.000000
  0
LINE
  8
PartsFrameB
 10
15.875000
 20
5.250000
 30
0.0
 11
15.875000
 21
5.750000
 31
0.0
  0
ARC
  8
PartsFrameB
 10
15.925000
 20
5.750000
 30
0.0
 40
0.050000
 50
90.000000
 51
180.000000
  0
LINE
  8
PartsFrameB
 10
15.925000
 20
5.800000
 30
0.0
 11
16.075000
 21
5.800000
 31
0.0
  0
ARC
  8
PartsFrameB
 10
16.075000
 20
5.750000
 30
0.0
 40
0.050000
 50
0.000000
 51
90.000000
  0
LINE
  8
PartsFrameB
 10
16.125000
 20
5.750000
 30
0.0
 11
16.125000
 21
5.250000
 31
0.0
  0
ARC
  8
PartsFrameB
 10
15.575000
 20
5.250000
 30
0.0
 40
0.050000
 50
-90.000000
 51
0.000000
  0
LINE
  8
PartsFrameB
 10
15.575000
 20
5.200000
 30
0.0
 11
15.425000
 21
5.200000
 31
0.0
  0
ARC
  8
PartsFrameB
 10
15.425000
 20
5.250000
 30
0.0
 40
0.050000
 50
180.000000
 51
-90.000000
  0
LINE
  8
PartsFrameB
 10
15.375000
 20
5.250000
 30
0.0
 11
15.375000
 21
5.750000
 31
0.0
  0
ARC
  8
PartsFrameB
 10
15.425000
 20
5.750000
 30
0.0
 40
0.050000
 50
90.000000
 51
180.000000
  0
LINE
  8
PartsFrameB
 10
15.425000
 20
5.800000
 30
0.0
 11
15.575000
 21
5.800000
 31
0.0
  0
ARC
  8
PartsFrameB
 10
15.575000
 20
5.750000
 30
0.0
 40
0.050000
 50
0.000000
 51
90.000000
  0
LINE
  8
PartsFrameB
 10
15.625000
 20
5.750000
 30
0.0
 11
15.625000
 21
5.250000
 31
0.0
  0
ARC
  8
PartsFrameB
 10
15.075000
 20
5.250000
 30
0.0
 40
0.050000
 50
-90.000000
 51
0.000000
  0
LINE
  8
PartsFrameB
 10
15.075000
 20
5.200000
 30
0.0
 11
14.925000
 21
5.200000
 31
0.0
  0
ARC
  8
PartsFrameB
 10
14.925000
 20
5.250000
 30
0.0
 40
0.050000
 50
180.000000
 51
-90.000000
  0
LINE
  8
PartsFrameB
 10
14.875000
 20
5.250000
 30
0.0
 11
14.875000
 21
5.750000
 31
0.0
  0
ARC
  8
PartsFrameB
 10
14.925000
 20
5.750000
 30
0.0
 40
0.050000
 50
90.000000
 51
180.000000
  0
LINE
  8
PartsFrameB
 10
14.925000
 20
5.800000
 30
0.0
 11
15.075000
 21
5.800000
 31
0.0
  0
ARC
  8
PartsFrameB
 10
15.075000
 20
5.750000
 30
0.0
 40
0.050000
 50
0.000000
 51
90.000000
  0
LINE
  8
PartsFrameB
 10
15.125000
 20
5.750000
 30
0.0
 11
15.125000
 21
5.250000
 31
0.0
  0
ARC
  8
PartsFrameB
 10
14.575000
 20
5.250000
 30
0.0
 40
0.050000
 50
-90.000000
 51
0.000000
  0
LINE
  8
PartsFrameB
 10
14.575000
 20
5.200000
 30
0.0
 11
14.425000
 21
5.200000
 31
0.0
  0
ARC
  8
PartsFrameB
 10
14.425000
 20
5.250000
 30
0.0
 40
0.050000
 50
180.000000
 51
-90.000000
  0
LINE
  8
PartsFrameB
 10
14.375000
 20
5.250000
 30
0.0
 11
14.375000
 21
5.750000
 31
0.0
  0
ARC
  8
PartsFrameB
 10
14.425000
 20
5.750000
 30
0.0
 40
0.050000
 50
90.000000
 51
180.000000
  0
LINE
  8
PartsFrameB
 10
14.425000
 20
5.800000
 30
0.0
 11
14.575000
 21
5.800000
 31
0.0
  0
ARC
  8
PartsFrameB
 10
14.575000
 20
5.750000
 30
0.0
 40
0.050000
 50
0.000000
 51
90.000000
  0
LINE
  8
PartsFrameB
 10
14.625000
 20
5.750000
 30
0.0
 11
14.625000
 21
5.250000
 31
0.0
  0
ARC
  8
PartsFrameB
 10
14.075000
 20
5.250000
 30
0.0
 40
0.050000
 50
-90.000000
 51
0.000000
  0
LINE
  8
PartsFrameB
 10
14.075000
 20
5.200000
 30
0.0
 11
13.925000
 21
5.200000
 31
0.0
  0
ARC
  8
PartsFrameB
 10
13.925000
 20
5.250000
 30
0.0
 40
0.050000
 50
180.000000
 51
-90.000000
  0
LINE
  8
PartsFrameB
 10
13.875000
 20
5.250000
 30
0.0
 11
13.875000
 21
5.750000
 31
0.0
  0
ARC
  8
PartsFrameB
 10
13.925000
 20
5.750000
 30
0.0
 40
0.050000
 50
90.000000
 51
180.000000
  0
LINE
  8
PartsFrameB
 10
13.925000
 20
5.800000
 30
0.0
 11
14.075000
 21
5.800000
 31
0.0
  0
ARC
  8
PartsFrameB
 10
14.075000
 20
5.750000
 30
0.0
 40
0.050000
 50
0.000000
 51
90.000000
  0
LINE
  8
PartsFrameB
 10
14.125000
 20
5.750000
 30
0.0
 11
14.125000
 21
5.250000
 31
0.0
  0
ARC
  8
PartsFrameB
 10
13.575000
 20
5.250000
 30
0.0
 40
0.050000
 50
-90.000000
 51
0.000000
  0
LINE
  8
PartsFrameB
 10
13.575000
 20
5.200000
 30
0.0
 11
13.425000
 21
5.200000
 31
0.0
  0
ARC
  8
PartsFrameB
 10
13.425000
 20
5.250000
 30
0.0
 40
0.050000
 50
180.000000
 51
-90.000000
  0
LINE
  8
PartsFrameB
 10
13.375000
 20
5.250000
 30
0.0
 11
13.375000
 21
5.750000
 31
0.0
  0
ARC
  8
PartsFrameB
 10
13.425000
 20
5.750000
 30
0.0
 40
0.050000
 50
90.000000
 51
180.000000
  0
LINE
  8
PartsFrameB
 10
13.425000
 20
5.800000
 30
0.0
 11
13.575000
 21
5.800000
 31
0.0
  0
ARC
  8
PartsFrameB
 10
13.575000
 20
5.750000
 30
0.0
 40
0.050000
 50
0.000000
 51
90.000000
  0
LINE
  8
PartsFrameB
 10
13.625000
 20
5.750000
 30
0.0
 11
13.625000
 21
5.250000
 31
0.0
  0
ARC
  8
PartsFrameB
 10
13.075000
 20
5.250000
 30
0.0
 40
0.050000
 50
-90.000000
 51
0.000000
  0
LINE
  8
PartsFrameB
 10
13.075000
 20
5.200000
 30
0.0
 11
12.925000
 21
5.200000
 31
0.0
  0
ARC
  8
PartsFrameB
 10
12.925000
 20
5.250000
 30
0.0
 40
0.050000
 50
180.000000
 51
-90.000000
  0
LINE
  8
PartsFrameB
 10
12.875000
 20
5.250000
 30
0.0
 11
12.875000
 21
5.750000
 31
0.0
  0
ARC
  8
PartsFrameB
 10
12.925000
 20
5.750000
 30
0.0
 40
0.050000
 50
90.000000
 51
180.000000
  0
LINE
  8
PartsFrameB
 10
12.925000
 20
5.800000
 30
0.0
 11
13.075000
 21
5.800000
 31
0.0
  0
ARC
  8
PartsFrameB
 10
13.075000
 20
5.750000
 30
0.0
 40
0.050000
 50
0.000000
 51
90.000000
  0
LINE
  8
PartsFrameB
 10
13.125000
 20
5.750000
 30
0.0
 11
13.125000
 21
5.250000
 31
0.0
  0
ARC
  8
PartsFrameB
 10
12.575000
 20
5.250000
 30
0.0
 40
0.050000
 50
-90.000000
 51
0.000000
  0
LINE
  8
PartsFrameB
 10
12.575000
 20
5.200000
 30
0.0
 11
12.425000
 21
5.200000
 31
0.0
  0
ARC
  8
PartsFrameB
 10
12.425000
 20
5.250000
 30
0.0
 40
0.050000
 50
180.000000
 51
-90.000000
  0
LINE
  8
PartsFrameB
 10
12.375000
 20
5.250000
 30
0.0
 11
12.375000
 21
5.750000
 31
0.0
  0
ARC
  8
PartsFrameB
 10
12.425000
 20
5.750000
 30
0.0
 40
0.050000
 50
90.000000
 51
180.000000
  0
LINE
  8
PartsFrameB
 10
12.425000
 20
5.800000
 30
0.0
 11
12.575000
 21
5.800000
 31
0.0
  0
ARC
  8
PartsFrameB
 10
12.575000
 20
5.750000
 30
0.0
 40
0.050000
 50
0.000000
 51
90.000000
  0
LINE
  8
PartsFrameB
 10
12.625000
 20
5.750000
 30
0.0
 11
12.625000
 21
5.250000
 31
0.0
  0
ARC
  8
PartsFrameB
 10
12.075000
 20
5.250000
 30
0.0
 40
0.050000
 50
-90.000000
 51
0.000000
  0
LINE
  8
PartsFrameB
 10
12.075000
 20
5.200000
 30
0.0
 11
11.925000
 21
5.200000
 31
0.0
  0
ARC
  8
PartsFrameB
 10
11.925000
 20
5.250000
 30
0.0
 40
0.050000
 50
180.000000
 51
-90.000000
  0
LINE
  8
PartsFrameB
 10
11.875000
 20
5.250000
 30
0.0
 11
11.875000
 21
5.750000
 31
0.0
  0
ARC
  8
PartsFrameB
 10
11.925000
 20
5.750000
 30
0.0
 40
0.050000
 50
90.000000
 51
180.000000
  0
LINE
  8
PartsFrameB
 10
11.925000
 20
5.800000
 30
0.0
 11
12.075000
 21
5.800000
 31
0.0
  0
ARC
  8
PartsFrameB
 10
12.075000
 20
5.750000
 30
0.0
 40
0.050000
 50
0.000000
 51
90.000000
  0
LINE
  8
PartsFrameB
 10
12.125000
 20
5.750000
 30
0.0
 11
12.125000
 21
5.250000
 31
0.0
  0
ARC
  8
PartsFrameB
 10
11.575000
 20
5.250000
 30
0.0
 40
0.050000
 50
-90.000000
 51
0.000000
  0
LINE
  8
PartsFrameB
 10
11.575000
 20
5.200000
 30
0.0
 11
11.425000
 21
5.200000
 31
0.0
  0
ARC
  8
PartsFrameB
 10
11.425000
 20
5.250000
 30
0.0
 40
0.050000
 50
180.000000
 51
-90.000000
  0
LINE
  8
PartsFrameB
 10
11.375000
 20
5.250000
 30
0.0
 11
11.375000
 21
5.750000
 31
0.0
  0
ARC
  8
PartsFrameB
 10
11.425000
 20
5.750000
 30
0.0
 40
0.050000
 50
90.000000
 51
180.000000
  0
LINE
  8
PartsFrameB
 10
11.425000
 20
5.800000
 30
0.0
 11
11.575000
 21
5.800000
 31
0.0
  0
ARC
  8
PartsFrameB
 10
11.575000
 20
5.750000
 30
0.0
 40
0.050000
 50
0.000000
 51
90.000000
  0
LINE
  8
PartsFrameB
 10
11.625000
 20
5.750000
 30
0.0
 11
11.625000
 21
5.250000
 31
0.0
  0
ARC
  8
PartsFrameB
 10
11.075000
 20
5.250000
 30
0.0
 40
0.050000
 50
-90.000000
 51
0.000000
  0
LINE
  8
PartsFrameB
 10
11.075000
 20
5.200000
 30
0.0
 11
10.925000
 21
5.200000
 31
0.0
  0
ARC
  8
PartsFrameB
 10
10.925000
 20
5.250000
 30
0.0
 40
0.050000
 50
180.000000
 51
-90.000000
  0
LINE
  8
PartsFrameB
 10
10.875000
 20
5.250000
 30
0.0
 11
10.875000
 21
5.750000
 31
0.0
  0
ARC
  8
PartsFrameB
 10
10.925000
 20
5.750000
 30
0.0
 40
0.050000
 50
90.000000
 51
180.000000
  0
LINE
  8
PartsFrameB
 10
10.925000
 20
5.800000
 30
0.0
 11
11.075000
 21
5.800000
 31
0.0
  0
ARC
  8
PartsFrameB
 10
11.075000
 20
5.750000
 30
0.0
 40
0.050000
 50
0.000000
 51
90.000000
  0
LINE
  8
PartsFrameB
 10
11.125000
 20
5.750000
 30
0.0
 11
11.125000
 21
5.250000
 31
0.0
  0
ARC
  8
PartsFrameB
 10
10.575000
 20
5.250000
 30
0.0
 40
0.050000
 50
-90.000000
 51
0.000000
  0
LINE
  8
PartsFrameB
 10
10.575000
 20
5.200000
 30
0.0
 11
10.425000
 21
5.200000
 31
0.0
  0
ARC
  8
PartsFrameB
 10
10.425000
 20
5.250000
 30
0.0
 40
0.050000
 50
180.000000
 51
-90.000000
  0
LINE
  8
PartsFrameB
 10
10.375000
 20
5.250000
 30
0.0
 11
10.375000
 21
5.750000
 31
0.0
  0
ARC
  8
PartsFrameB
 10
10.425000
 20
5.750000
 30
0.0
 40
0.050000
 50
90.000000
 51
180.000000
  0
LINE
  8
PartsFrameB
 10
10.425000
 20
5.800000
 30
0.0
 11
10.575000
 21
5.800000
 31
0.0
  0
ARC
  8
PartsFrameB
 10
10.575000
 20
5.750000
 30
0.0
 40
0.050000
 50
0.000000
 51
90.000000
  0
LINE
  8
PartsFrameB
 10
10.625000
 20
5.750000
 30
0.0
 11
10.625000
 21
5.250000
 31
0.0
  0
ARC
  8
PartsFrameB
 10
10.075000
 20
5.250000
 30
0.0
 40
0.050000
 50
-90.000000
 51
0.000000
  0
LINE
  8
PartsFrameB
 10
10.075000
 20
5.200000
 30
0.0
 11
9.925000
 21
5.200000
 31
0.0
  0
ARC
  8
PartsFrameB
 10
9.925000
 20
5.250000
 30
0.0
 40
0.050000
 50
180.000000
 51
-90.000000
  0
LINE
  8
PartsFrameB
 10
9.875000
 20
5.250000
 30
0.0
 11
9.875000
 21
5.750000
 31
0.0
  0
ARC
  8
PartsFrameB
 10
9.925000
 20
5.750000
 30
0.0
 40
0.050000
 50
90.000000
 51
180.000000
  0
LINE
  8
PartsFrameB
 10
9.925000
 20
5.800000
 30
0.0
 11
10.075000
 21
5.800000
 31
0.0
  0
ARC
  8
PartsFrameB
 10
10.075000
 20
5.750000
 30
0.0
 40
0.050000
 50
0.000000
 51
90.000000
  0
LINE
  8
PartsFrameB
 10
10.125000
 20
5.750000
 30
0.0
 11
10.125000
 21
5.250000
 31
0.0
  0
ARC
  8
PartsFrameB
 10
9.575000
 20
5.250000
 30
0.0
 40
0.050000
 50
-90.000000
 51
0.000000
  0
LINE
  8
PartsFrameB
 10
9.575000
 20
5.200000
 30
0.0
 11
9.425000
 21
5.200000
 31
0.0
  0
ARC
  8
PartsFrameB
 10
9.425000
 20
5.250000
 30
0.0
 40
0.050000
 50
180.000000
 51
-90.000000
  0
LINE
  8
PartsFrameB
 10
9.375000
 20
5.250000
 30
0.0
 11
9.375000
 21
5.750000
 31
0.0
  0
ARC
  8
PartsFrameB
 10
9.425000
 20
5.750000
 30
0.0
 40
0.050000
 50
90.000000
 51
180.000000
  0
LINE
  8
PartsFrameB
 10
9.425000
 20
5.800000
 30
0.0
 11
9.575000
 21
5.800000
 31
0.0
  0
ARC
  8
PartsFrameB
 10
9.575000
 20
5.750000
 30
0.0
 40
0.050000
 50
0.000000
 51
90.000000
  0
LINE
  8
PartsFrameB
 10
9.625000
 20
5.750000
 30
0.0
 11
9.625000
 21
5.250000
 31
0.0
  0
ARC
  8
PartsFrameB
 10
9.075000
 20
5.250000
 30
0.0
 40
0.050000
 50
-90.000000
 51
0.000000
  0
LINE
  8
PartsFrameB
 10
9.075000
 20
5.200000
 30
0.0
 11
8.925000
 21
5.200000
 31
0.0
  0
ARC
  8
PartsFrameB
 10
8.925000
 20
5.250000
 30
0.0
 40
0.050000
 50
180.000000
 51
-90.000000
  0
LINE
  8
PartsFrameB
 10
8.875000
 20
5.250000
 30
0.0
 11
8.875000
 21
5.750000
 31
0.0
  0
ARC
  8
PartsFrameB
 10
8.925000
 20
5.750000
 30
0.0
 40
0.050000
 50
90.000000
 51
180.000000
  0
LINE
  8
PartsFrameB
 10
8.925000
 20
5.800000
 30
0.0
 11
9.075000
 21
5.800000
 31
0.0
  0
ARC
  8
PartsFrameB
 10
9.075000
 20
5.750000
 30
0.0
 40
0.050000
 50
0.000000
 51
90.000000
  0
LINE
  8
PartsFrameB
 10
9.125000
 20
5.750000
 30
0.0
 11
9.125000
 21
5.250000
 31
0.0
  0
ARC
  8
PartsFrameB
 10
8.575000
 20
5.250000
 30
0.0
 40
0.050000
 50
-90.000000
 51
0.000000
  0
LINE
  8
PartsFrameB
 10
8.575000
 20
5.200000
 30
0.0
 11
8.425000
 21
5.200000
 31
0.0
  0
ARC
  8
PartsFrameB
 10
8.425000
 20
5.250000
 30
0.0
 40
0.050000
 50
180.000000
 51
-90.000000
  0
LINE
  8
PartsFrameB
 10
8.375000
 20
5.250000
 30
0.0
 11
8.375000
 21
5.750000
 31
0.0
  0
ARC
  8
PartsFrameB
 10
8.425000
 20
5.750000
 30
0.0
 40
0.050000
 50
90.000000
 51
180.000000
  0
LINE
  8
PartsFrameB
 10
8.425000
 20
5.800000
 30
0.0
 11
8.575000
 21
5.800000
 31
0.0
  0
ARC
  8
PartsFrameB
 10
8.575000
 20
5.750000
 30
0.0
 40
0.050000
 50
0.000000
 51
90.000000
  0
LINE
  8
PartsFrameB
 10
8.625000
 20
5.750000
 30
0.0
 11
8.625000
 21
5.250000
 31
0.0
  0
ARC
  8
PartsFrameB
 10
8.075000
 20
5.250000
 30
0.0
 40
0.050000
 50
-90.000000
 51
0.000000
  0
LINE
  8
PartsFrameB
 10
8.075000
 20
5.200000
 30
0.0
 11
7.925000
 21
5.200000
 31
0.0
  0
ARC
  8
PartsFrameB
 10
7.925000
 20
5.250000
 30
0.0
 40
0.050000
 50
180.000000
 51
-90.000000
  0
LINE
  8
PartsFrameB
 10
7.875000
 20
5.250000
 30
0.0
 11
7.875000
 21
5.750000
 31
0.0
  0
ARC
  8
PartsFrameB
 10
7.925000
 20
5.750000
 30
0.0
 40
0.050000
 50
90.000000
 51
180.000000
  0
LINE
  8
PartsFrameB
 10
7.925000
 20
5.800000
 30
0.0
 11
8.075000
 21
5.800000
 31
0.0
  0
ARC
  8
PartsFrameB
 10
8.075000
 20
5.750000
 30
0.0
 40
0.050000
 50
0.000000
 51
90.000000
  0
LINE
  8
PartsFrameB
 10
8.125000
 20
5.750000
 30
0.0
 11
8.125000
 21
5.250000
 31
0.0
  0
ARC
  8
PartsFrameB
 10
7.575000
 20
5.250000
 30
0.0
 40
0.050000
 50
-90.000000
 51
0.000000
  0
LINE
  8
PartsFrameB
 10
7.575000
 20
5.200000
 30
0.0
 11
7.425000
 21
5.200000
 31
0.0
  0
ARC
  8
PartsFrameB
 10
7.425000
 20
5.250000
 30
0.0
 40
0.050000
 50
180.000000
 51
-90.000000
  0
LINE
  8
PartsFrameB
 10
7.375000
 20
5.250000
 30
0.0
 11
7.375000
 21
5.750000
 31
0.0
  0
ARC
  8
PartsFrameB
 10
7.425000
 20
5.750000
 30
0.0
 40
0.050000
 50
90.000000
 51
180.000000
  0
LINE
  8
PartsFrameB
 10
7.425000
 20
5.800000
 30
0.0
 11
7.575000
 21
5.800000
 31
0.0
  0
ARC
  8
PartsFrameB
 10
7.575000
 20
5.750000
 30
0.0
 40
0.050000
 50
0.000000
 51
90.000000
  0
LINE
  8
PartsFrameB
 10
7.625000
 20
5.750000
 30
0.0
 11
7.625000
 21
5.250000
 31
0.0
  0
ARC
  8
PartsFrameB
 10
7.075000
 20
5.250000
 30
0.0
 40
0.050000
 50
-90.000000
 51
0.000000
  0
LINE
  8
PartsFrameB
 10
7.075000
 20
5.200000
 30
0.0
 11
6.925000
 21
5.200000
 31
0.0
  0
ARC
  8
PartsFrameB
 10
6.925000
 20
5.250000
 30
0.0
 40
0.050000
 50
180.000000
 51
-90.000000
  0
LINE
  8
PartsFrameB
 10
6.875000
 20
5.250000
 30
0.0
 11
6.875000
 21
5.750000
 31
0.0
  0
ARC
  8
PartsFrameB
 10
6.925000
 20
5.750000
 30
0.0
 40
0.050000
 50
90.000000
 51
180.000000
  0
LINE
  8
PartsFrameB
 10
6.925000
 20
5.800000
 30
0.0
 11
7.075000
 21
5.800000
 31
0.0
  0
ARC
  8
PartsFrameB
 10
7.075000
 20
5.750000
 30
0.0
 40
0.050000
 50
0.000000
 51
90.000000
  0
LINE
  8
PartsFrameB
 10
7.125000
 20
5.750000
 30
0.0
 11
7.125000
 21
5.250000
 31
0.0
  0
ARC
  8
PartsFrameB
 10
7.300000
 20
7.600000
 30
0.0
 40
0.050000
 50
90.000000
 51
180.000000
  0
LINE
  8
PartsFrameB
 10
7.300000
 20
7.650000
 30
0.0
 11
8.200000
 21
7.650000
 31
0.0
  0
ARC
  8
PartsFrameB
 10
8.200000
 20
7.600000
 30
0.0
 40
0.050000
 50
0.000000
 51
90.000000
  0
LINE
  8
PartsFrameB
 10
8.250000
 20
7.600000
 30
0.0
 11
8.250000
 21
6.700000
 31
0.0
  0
ARC
  8
PartsFrameB
 10
8.200000
 20
6.700000
 30
0.0
 40
0.050000
 50
-90.000000
 51
0.000000
  0
LINE
  8
PartsFrameB
 10
8.200000
 20
6.650000
 30
0.0
 11
7.771000
 21
6.650000
 31
0.0
  0
ARC
  8
PartsFrameB
 10
7.770750
 20
6.700100
 30
0.0
 40
0.050100
 50
-135.525635
 51
-89.715807
  0
LINE
  8
PartsFrameB
 10
7.735000
 20
6.665000
 30
0.0
 11
7.265000
 21
7.135000
 31
0.0
  0
ARC
  8
PartsFrameB
 10
7.300100
 20
7.170750
 30
0.0
 40
0.050100
 50
179.714095
 51
-134.476077
  0
LINE
  8
PartsFrameB
 10
7.250000
 20
7.171000
 30
0.0
 11
7.250000
 21
7.600000
 31
0.0
  0
ARC
  8
PartsFrameB
 10
8.800000
 20
7.600000
 30
0.0
 40
0.050000
 50
90.000000
 51
180.000000
  0
LINE
  8
PartsFrameB
 10
8.800000
 20
7.650000
 30
0.0
 11
9.700000
 21
7.650000
 31
0.0
  0
ARC
  8
PartsFrameB
 10
9.700000
 20
7.600000
 30
0.0
 40
0.050000
 50
0.000000
 51
90.000000
  0
LINE
  8
PartsFrameB
 10
9.750000
 20
7.600000
 30
0.0
 11
9.750000
 21
6.700000
 31
0.0
  0
ARC
  8
PartsFrameB
 10
9.700000
 20
6.700000
 30
0.0
 40
0.050000
 50
-90.000000
 51
0.000000
  0
LINE
  8
PartsFrameB
 10
9.700000
 20
6.650000
 30
0.0
 11
8.800000
 21
6.650000
 31
0.0
  0
ARC
  8
PartsFrameB
 10
8.800000
 20
6.700000
 30
0.0
 40
0.050000
 50
180.000000
 51
-90.000000
  0
LINE
  8
PartsFrameB
 10
8.750000
 20
6.700000
 30
0.0
 11
8.750000
 21
7.600000
 31
0.0
  0
ARC
  8
PartsFrameB
 10
10.300000
 20
7.600000
 30
0.0
 40
0.050000
 50
90.000000
 51
180.000000
  0
LINE
  8
PartsFrameB
 10
10.300000
 20
7.650000
 30
0.0
 11
11.200000
 21
7.650000
 31
0.0
  0
ARC
  8
PartsFrameB
 10
11.200000
 20
7.600000
 30
0.0
 40
0.050000
 50
0.000000
 51
90.000000
  0
LINE
  8
PartsFrameB
 10
11.250000
 20
7.600000
 30
0.0
 11
11.250000
 21
6.700000
 31
0.0
  0
ARC
  8
PartsFrameB
 10
11.200000
 20
6.700000
 30
0.0
 40
0.050000
 50
-90.000000
 51
0.000000
  0
LINE
  8
PartsFrameB
 10
11.200000
 20
6.650000
 30
0.0
 11
10.300000
 21
6.650000
 31
0.0
  0
ARC
  8
PartsFrameB
 10
10.300000
 20
6.700000
 30
0.0
 40
0.050000
 50
180.000000
 51
-90.000000
  0
LINE
  8
PartsFrameB
 10
10.250000
 20
6.700000
 30
0.0
 11
10.250000
 21
7.600000
 31
0.0
  0
ARC
  8
PartsFrameB
 10
11.800000
 20
7.600000
 30
0.0
 40
0.050000
 50
90.000000
 51
180.000000
  0
LINE
  8
PartsFrameB
 10
11.800000
 20
7.650000
 30
0.0
 11
12.700000
 21
7.650000
 31
0.0
  0
ARC
  8
PartsFrameB
 10
12.700000
 20
7.600000
 30
0.0
 40
0.050000
 50
0.000000
 51
90.000000
  0
LINE
  8
PartsFrameB
 10
12.750000
 20
7.600000
 30
0.0
 11
12.750000
 21
6.700000
 31
0.0
  0
ARC
  8
PartsFrameB
 10
12.700000
 20
6.700000
 30
0.0
 40
0.050000
 50
-90.000000
 51
0.000000
  0
LINE
  8
PartsFrameB
 10
12.700000
 20
6.650000
 30
0.0
 11
11.800000
 21
6.650000
 31
0.0
  0
ARC
  8
PartsFrameB
 10
11.800000
 20
6.700000
 30
0.0
 40
0.050000
 50
180.000000
 51
-90.000000
  0
LINE
  8
PartsFrameB
 10
11.750000
 20
6.700000
 30
0.0
 11
11.750000
 21
7.600000
 31
0.0
  0
ARC
  8
PartsFrameB
 10
13.300000
 20
7.600000
 30
0.0
 40
0.050000
 50
90.000000
 51
180.000000
  0
LINE
  8
PartsFrameB
 10
13.300000
 20
7.650000
 30
0.0
 11
14.200000
 21
7.650000
 31
0.0
  0
ARC
  8
PartsFrameB
 10
14.200000
 20
7.600000
 30
0.0
 40
0.050000
 50
0.000000
 51
90.000000
  0
LINE
  8
PartsFrameB
 10
14.250000
 20
7.600000
 30
0.0
 11
14.250000
 21
6.700000
 31
0.0
  0
ARC
  8
PartsFrameB
 10
14.200000
 20
6.700000
 30
0.0
 40
0.050000
 50
-90.000000
 51
0.000000
  0
LINE
  8
PartsFrameB
 10
14.200000
 20
6.650000
 30
0.0
 11
13.300000
 21
6.650000
 31
0.0
  0
ARC
  8
PartsFrameB
 10
13.300000
 20
6.700000
 30
0.0
 40
0.050000
 50
180.000000
 51
-90.000000
  0
LINE
  8
PartsFrameB
 10
13.250000
 20
6.700000
 30
0.0
 11
13.250000
 21
7.600000
 31
0.0
  0
ARC
  8
PartsFrameB
 10
14.800000
 20
9.100000
 30
0.0
 40
0.050000
 50
90.000000
 51
180.000000
  0
LINE
  8
PartsFrameB
 10
14.800000
 20
9.150000
 30
0.0
 11
15.700000
 21
9.150000
 31
0.0
  0
ARC
  8
PartsFrameB
 10
15.700000
 20
9.100000
 30
0.0
 40
0.050000
 50
0.000000
 51
90.000000
  0
LINE
  8
PartsFrameB
 10
15.750000
 20
9.100000
 30
0.0
 11
15.750000
 21
8.200000
 31
0.0
  0
ARC
  8
PartsFrameB
 10
15.700000
 20
8.200000
 30
0.0
 40
0.050000
 50
-90.000000
 51
0.000000
  0
LINE
  8
PartsFrameB
 10
15.700000
 20
8.150000
 30
0.0
 11
14.800000
 21
8.150000
 31
0.0
  0
ARC
  8
PartsFrameB
 10
14.800000
 20
8.200000
 30
0.0
 40
0.050000
 50
180.000000
 51
-90.000000
  0
LINE
  8
PartsFrameB
 10
14.750000
 20
8.200000
 30
0.0
 11
14.750000
 21
9.100000
 31
0.0
  0
ARC
  8
PartsFrameB
 10
13.300000
 20
9.100000
 30
0.0
 40
0.050000
 50
90.000000
 51
180.000000
  0
LINE
  8
PartsFrameB
 10
13.300000
 20
9.150000
 30
0.0
 11
14.200000
 21
9.150000
 31
0.0
  0
ARC
  8
PartsFrameB
 10
14.200000
 20
9.100000
 30
0.0
 40
0.050000
 50
0.000000
 51
90.000000
  0
LINE
  8
PartsFrameB
 10
14.250000
 20
9.100000
 30
0.0
 11
14.250000
 21
8.200000
 31
0.0
  0
ARC
  8
PartsFrameB
 10
14.200000
 20
8.200000
 30
0.0
 40
0.050000
 50
-90.000000
 51
0.000000
  0
LINE
  8
PartsFrameB
 10
14.200000
 20
8.150000
 30
0.0
 11
13.300000
 21
8.150000
 31
0.0
  0
ARC
  8
PartsFrameB
 10
13.300000
 20
8.200000
 30
0.0
 40
0.050000
 50
180.000000
 51
-90.000000
  0
LINE
  8
PartsFrameB
 10
13.250000
 20
8.200000
 30
0.0
 11
13.250000
 21
9.100000
 31
0.0
  0
ARC
  8
PartsFrameB
 10
11.800000
 20
9.100000
 30
0.0
 40
0.050000
 50
90.000000
 51
180.000000
  0
LINE
  8
PartsFrameB
 10
11.800000
 20
9.150000
 30
0.0
 11
12.700000
 21
9.150000
 31
0.0
  0
ARC
  8
PartsFrameB
 10
12.700000
 20
9.100000
 30
0.0
 40
0.050000
 50
0.000000
 51
90.000000
  0
LINE
  8
PartsFrameB
 10
12.750000
 20
9.100000
 30
0.0
 11
12.750000
 21
8.200000
 31
0.0
  0
ARC
  8
PartsFrameB
 10
12.700000
 20
8.200000
 30
0.0
 40
0.050000
 50
-90.000000
 51
0.000000
  0
LINE
  8
PartsFrameB
 10
12.700000
 20
8.150000
 30
0.0
 11
11.800000
 21
8.150000
 31
0.0
  0
ARC
  8
PartsFrameB
 10
11.800000
 20
8.200000
 30
0.0
 40
0.050000
 50
180.000000
 51
-90.000000
  0
LINE
  8
PartsFrameB
 10
11.750000
 20
8.200000
 30
0.0
 11
11.750000
 21
9.100000
 31
0.0
  0
ARC
  8
PartsFrameB
 10
10.300000
 20
9.100000
 30
0.0
 40
0.050000
 50
90.000000
 51
180.000000
  0
LINE
  8
PartsFrameB
 10
10.300000
 20
9.150000
 30
0.0
 11
11.200000
 21
9.150000
 31
0.0
  0
ARC
  8
PartsFrameB
 10
11.200000
 20
9.100000
 30
0.0
 40
0.050000
 50
0.000000
 51
90.000000
  0
LINE
  8
PartsFrameB
 10
11.250000
 20
9.100000
 30
0.0
 11
11.250000
 21
8.200000
 31
0.0
  0
ARC
  8
PartsFrameB
 10
11.200000
 20
8.200000
 30
0.0
 40
0.050000
 50
-90.000000
 51
0.000000
  0
LINE
  8
PartsFrameB
 10
11.200000
 20
8.150000
 30
0.0
 11
10.300000
 21
8.150000
 31
0.0
  0
ARC
  8
PartsFrameB
 10
10.300000
 20
8.200000
 30
0.0
 40
0.050000
 50
180.000000
 51
-90.000000
  0
LINE
  8
PartsFrameB
 10
10.250000
 20
8.200000
 30
0.0
 11
10.250000
 21
9.100000
 31
0.0
  0
ARC
  8
PartsFrameB
 10
8.800000
 20
9.100000
 30
0.0
 40
0.050000
 50
90.000000
 51
180.000000
  0
LINE
  8
PartsFrameB
 10
8.800000
 20
9.150000
 30
0.0
 11
9.700000
 21
9.150000
 31
0.0
  0
ARC
  8
PartsFrameB
 10
9.700000
 20
9.100000
 30
0.0
 40
0.050000
 50
0.000000
 51
90.000000
  0
LINE
  8
PartsFrameB
 10
9.750000
 20
9.100000
 30
0.0
 11
9.750000
 21
8.200000
 31
0.0
  0
ARC
  8
PartsFrameB
 10
9.700000
 20
8.200000
 30
0.0
 40
0.050000
 50
-90.000000
 51
0.000000
  0
LINE
  8
PartsFrameB
 10
9.700000
 20
8.150000
 30
0.0
 11
8.800000
 21
8.150000
 31
0.0
  0
ARC
  8
PartsFrameB
 10
8.800000
 20
8.200000
 30
0.0
 40
0.050000
 50
180.000000
 51
-90.000000
  0
LINE
  8
PartsFrameB
 10
8.750000
 20
8.200000
 30
0.0
 11
8.750000
 21
9.100000
 31
0.0
  0
ARC
  8
PartsFrameB
 10
7.300000
 20
9.100000
 30
0.0
 40
0.050000
 50
90.000000
 51
180.000000
  0
LINE
  8
PartsFrameB
 10
7.300000
 20
9.150000
 30
0.0
 11
8.200000
 21
9.150000
 31
0.0
  0
ARC
  8
PartsFrameB
 10
8.200000
 20
9.100000
 30
0.0
 40
0.050000
 50
0.000000
 51
90.000000
  0
LINE
  8
PartsFrameB
 10
8.250000
 20
9.100000
 30
0.0
 11
8.250000
 21
8.200000
 31
0.0
  0
ARC
  8
PartsFrameB
 10
8.200000
 20
8.200000
 30
0.0
 40
0.050000
 50
-90.000000
 51
0.000000
  0
LINE
  8
PartsFrameB
 10
8.200000
 20
8.150000
 30
0.0
 11
7.300000
 21
8.150000
 31
0.0
  0
ARC
  8
PartsFrameB
 10
7.300000
 20
8.200000
 30
0.0
 40
0.050000
 50
180.000000
 51
-90.000000
  0
LINE
  8
PartsFrameB
 10
7.250000
 20
8.200000
 30
0.0
 11
7.250000
 21
9.100000
 31
0.0
  0
ARC
  8
PartsFrameB
 10
7.300000
 20
10.600000
 30
0.0
 40
0.050000
 50
90.000000
 51
180.000000
  0
LINE
  8
PartsFrameB
 10
7.300000
 20
10.650000
 30
0.0
 11
8.200000
 21
10.650000
 31
0.0
  0
ARC
  8
PartsFrameB
 10
8.200000
 20
10.600000
 30
0.0
 40
0.050000
 50
0.000000
 51
90.000000
  0
LINE
  8
PartsFrameB
 10
8.250000
 20
10.600000
 30
0.0
 11
8.250000
 21
9.700000
 31
0.0
  0
ARC
  8
PartsFrameB
 10
8.200000
 20
9.700000
 30
0.0
 40
0.050000
 50
-90.000000
 51
0.000000
  0
LINE
  8
PartsFrameB
 10
8.200000
 20
9.650000
 30
0.0
 11
7.300000
 21
9.650000
 31
0.0
  0
ARC
  8
PartsFrameB
 10
7.300000
 20
9.700000
 30
0.0
 40
0.050000
 50
180.000000
 51
-90.000000
  0
LINE
  8
PartsFrameB
 10
7.250000
 20
9.700000
 30
0.0
 11
7.250000
 21
10.600000
 31
0.0
  0
ARC
  8
PartsFrameB
 10
8.800000
 20
10.600000
 30
0.0
 40
0.050000
 50
90.000000
 51
180.000000
  0
LINE
  8
PartsFrameB
 10
8.800000
 20
10.650000
 30
0.0
 11
9.700000
 21
10.650000
 31
0.0
  0
ARC
  8
PartsFrameB
 10
9.700000
 20
10.600000
 30
0.0
 40
0.050000
 50
0.000000
 51
90.000000
  0
LINE
  8
PartsFrameB
 10
9.750000
 20
10.600000
 30
0.0
 11
9.750000
 21
9.700000
 31
0.0
  0
ARC
  8
PartsFrameB
 10
9.700000
 20
9.700000
 30
0.0
 40
0.050000
 50
-90.000000
 51
0.000000
  0
LINE
  8
PartsFrameB
 10
9.700000
 20
9.650000
 30
0.0
 11
8.800000
 21
9.650000
 31
0.0
  0
ARC
  8
PartsFrameB
 10
8.800000
 20
9.700000
 30
0.0
 40
0.050000
 50
180.000000
 51
-90.000000
  0
LINE
  8
PartsFrameB
 10
8.750000
 20
9.700000
 30
0.0
 11
8.750000
 21
10.600000
 31
0.0
  0
ARC
  8
PartsFrameB
 10
10.300000
 20
10.600000
 30
0.0
 40
0.050000
 50
90.000000
 51
180.000000
  0
LINE
  8
PartsFrameB
 10
10.300000
 20
10.650000
 30
0.0
 11
11.200000
 21
10.650000
 31
0.0
  0
ARC
  8
PartsFrameB
 10
11.200000
 20
10.600000
 30
0.0
 40
0.050000
 50
0.000000
 51
90.000000
  0
LINE
  8
PartsFrameB
 10
11.250000
 20
10.600000
 30
0.0
 11
11.250000
 21
9.700000
 31
0.0
  0
ARC
  8
PartsFrameB
 10
11.200000
 20
9.700000
 30
0.0
 40
0.050000
 50
-90.000000
 51
0.000000
  0
LINE
  8
PartsFrameB
 10
11.200000
 20
9.650000
 30
0.0
 11
10.300000
 21
9.650000
 31
0.0
  0
ARC
  8
PartsFrameB
 10
10.300000
 20
9.700000
 30
0.0
 40
0.050000
 50
180.000000
 51
-90.000000
  0
LINE
  8
PartsFrameB
 10
10.250000
 20
9.700000
 30
0.0
 11
10.250000
 21
10.600000
 31
0.0
  0
ARC
  8
PartsFrameB
 10
11.800000
 20
10.600000
 30
0.0
 40
0.050000
 50
90.000000
 51
180.000000
  0
LINE
  8
PartsFrameB
 10
11.800000
 20
10.650000
 30
0.0
 11
12.700000
 21
10.650000
 31
0.0
  0
ARC
  8
PartsFrameB
 10
12.700000
 20
10.600000
 30
0.0
 40
0.050000
 50
0.000000
 51
90.000000
  0
LINE
  8
PartsFrameB
 10
12.750000
 20
10.600000
 30
0.0
 11
12.750000
 21
9.700000
 31
0.0
  0
ARC
  8
PartsFrameB
 10
12.700000
 20
9.700000
 30
0.0
 40
0.050000
 50
-90.000000
 51
0.000000
  0
LINE
  8
PartsFrameB
 10
12.700000
 20
9.650000
 30
0.0
 11
11.800000
 21
9.650000
 31
0.0
  0
ARC
  8
PartsFrameB
 10
11.800000
 20
9.700000
 30
0.0
 40
0.050000
 50
180.000000
 51
-90.000000
  0
LINE
  8
PartsFrameB
 10
11.750000
 20
9.700000
 30
0.0
 11
11.750000
 21
10.600000
 31
0.0
  0
ARC
  8
PartsFrameB
 10
13.300000
 20
10.600000
 30
0.0
 40
0.050000
 50
90.000000
 51
180.000000
  0
LINE
  8
PartsFrameB
 10
13.300000
 20
10.650000
 30
0.0
 11
14.200000
 21
10.650000
 31
0.0
  0
ARC
  8
PartsFrameB
 10
14.200000
 20
10.600000
 30
0.0
 40
0.050000
 50
0.000000
 51
90.000000
  0
LINE
  8
PartsFrameB
 10
14.250000
 20
10.600000
 30
0.0
 11
14.250000
 21
9.700000
 31
0.0
  0
ARC
  8
PartsFrameB
 10
14.200000
 20
9.700000
 30
0.0
 40
0.050000
 50
-90.000000
 51
0.000000
  0
LINE
  8
PartsFrameB
 10
14.200000
 20
9.650000
 30
0.0
 11
13.300000
 21
9.650000
 31
0.0
  0
ARC
  8
PartsFrameB
 10
13.300000
 20
9.700000
 30
0.0
 40
0.050000
 50
180.000000
 51
-90.000000
  0
LINE
  8
PartsFrameB
 10
13.250000
 20
9.700000
 30
0.0
 11
13.250000
 21
10.600000
 31
0.0
  0
ARC
  8
PartsFrameB
 10
14.800000
 20
10.600000
 30
0.0
 40
0.050000
 50
90.000000
 51
180.000000
  0
LINE
  8
PartsFrameB
 10
14.800000
 20
10.650000
 30
0.0
 11
15.700000
 21
10.650000
 31
0.0
  0
ARC
  8
PartsFrameB
 10
15.700000
 20
10.600000
 30
0.0
 40
0.050000
 50
0.000000
 51
90.000000
  0
LINE
  8
PartsFrameB
 10
15.750000
 20
10.600000
 30
0.0
 11
15.750000
 21
9.700000
 31
0.0
  0
ARC
  8
PartsFrameB
 10
15.700000
 20
9.700000
 30
0.0
 40
0.050000
 50
-90.000000
 51
0.000000
  0
LINE
  8
PartsFrameB
 10
15.700000
 20
9.650000
 30
0.0
 11
14.800000
 21
9.650000
 31
0.0
  0
ARC
  8
PartsFrameB
 10
14.800000
 20
9.700000
 30
0.0
 40
0.050000
 50
180.000000
 51
-90.000000
  0
LINE
  8
PartsFrameB
 10
14.750000
 20
9.700000
 30
0.0
 11
14.750000
 21
10.600000
 31
0.0
  0
ARC
  8
PartsFrameB
 10
14.800000
 20
12.100000
 30
0.0
 40
0.050000
 50
90.000000
 51
180.000000
  0
LINE
  8
PartsFrameB
 10
14.800000
 20
12.150000
 30
0.0
 11
15.700000
 21
12.150000
 31
0.0
  0
ARC
  8
PartsFrameB
 10
15.700000
 20
12.100000
 30
0.0
 40
0.050000
 50
0.000000
 51
90.000000
  0
LINE
  8
PartsFrameB
 10
15.750000
 20
12.100000
 30
0.0
 11
15.750000
 21
11.200000
 31
0.0
  0
ARC
  8
PartsFrameB
 10
15.700000
 20
11.200000
 30
0.0
 40
0.050000
 50
-90.000000
 51
0.000000
  0
LINE
  8
PartsFrameB
 10
15.700000
 20
11.150000
 30
0.0
 11
14.800000
 21
11.150000
 31
0.0
  0
ARC
  8
PartsFrameB
 10
14.800000
 20
11.200000
 30
0.0
 40
0.050000
 50
180.000000
 51
-90.000000
  0
LINE
  8
PartsFrameB
 10
14.750000
 20
11.200000
 30
0.0
 11
14.750000
 21
12.100000
 31
0.0
  0
ARC
  8
PartsFrameB
 10
13.300000
 20
12.100000
 30
0.0
 40
0.050000
 50
90.000000
 51
180.000000
  0
LINE
  8
PartsFrameB
 10
13.300000
 20
12.150000
 30
0.0
 11
14.200000
 21
12.150000
 31
0.0
  0
ARC
  8
PartsFrameB
 10
14.200000
 20
12.100000
 30
0.0
 40
0.050000
 50
0.000000
 51
90.000000
  0
LINE
  8
PartsFrameB
 10
14.250000
 20
12.100000
 30
0.0
 11
14.250000
 21
11.200000
 31
0.0
  0
ARC
  8
PartsFrameB
 10
14.200000
 20
11.200000
 30
0.0
 40
0.050000
 50
-90.000000
 51
0.000000
  0
LINE
  8
PartsFrameB
 10
14.200000
 20
11.150000
 30
0.0
 11
13.300000
 21
11.150000
 31
0.0
  0
ARC
  8
PartsFrameB
 10
13.300000
 20
11.200000
 30
0.0
 40
0.050000
 50
180.000000
 51
-90.000000
  0
LINE
  8
PartsFrameB
 10
13.250000
 20
11.200000
 30
0.0
 11
13.250000
 21
12.100000
 31
0.0
  0
ARC
  8
PartsFrameB
 10
11.800000
 20
12.100000
 30
0.0
 40
0.050000
 50
90.000000
 51
180.000000
  0
LINE
  8
PartsFrameB
 10
11.800000
 20
12.150000
 30
0.0
 11
12.700000
 21
12.150000
 31
0.0
  0
ARC
  8
PartsFrameB
 10
12.700000
 20
12.100000
 30
0.0
 40
0.050000
 50
0.000000
 51
90.000000
  0
LINE
  8
PartsFrameB
 10
12.750000
 20
12.100000
 30
0.0
 11
12.750000
 21
11.200000
 31
0.0
  0
ARC
  8
PartsFrameB
 10
12.700000
 20
11.200000
 30
0.0
 40
0.050000
 50
-90.000000
 51
0.000000
  0
LINE
  8
PartsFrameB
 10
12.700000
 20
11.150000
 30
0.0
 11
11.800000
 21
11.150000
 31
0.0
  0
ARC
  8
PartsFrameB
 10
11.800000
 20
11.200000
 30
0.0
 40
0.050000
 50
180.000000
 51
-90.000000
  0
LINE
  8
PartsFrameB
 10
11.750000
 20
11.200000
 30
0.0
 11
11.750000
 21
12.100000
 31
0.0
  0
ARC
  8
PartsFrameB
 10
10.300000
 20
12.100000
 30
0.0
 40
0.050000
 50
90.000000
 51
180.000000
  0
LINE
  8
PartsFrameB
 10
10.300000
 20
12.150000
 30
0.0
 11
11.200000
 21
12.150000
 31
0.0
  0
ARC
  8
PartsFrameB
 10
11.200000
 20
12.100000
 30
0.0
 40
0.050000
 50
0.000000
 51
90.000000
  0
LINE
  8
PartsFrameB
 10
11.250000
 20
12.100000
 30
0.0
 11
11.250000
 21
11.200000
 31
0.0
  0
ARC
  8
PartsFrameB
 10
11.200000
 20
11.200000
 30
0.0
 40
0.050000
 50
-90.000000
 51
0.000000
  0
LINE
  8
PartsFrameB
 10
11.200000
 20
11.150000
 30
0.0
 11
10.300000
 21
11.150000
 31
0.0
  0
ARC
  8
PartsFrameB
 10
10.300000
 20
11.200000
 30
0.0
 40
0.050000
 50
180.000000
 51
-90.000000
  0
LINE
  8
PartsFrameB
 10
10.250000
 20
11.200000
 30
0.0
 11
10.250000
 21
12.100000
 31
0.0
  0
ARC
  8
PartsFrameB
 10
8.800000
 20
12.100000
 30
0.0
 40
0.050000
 50
90.000000
 51
180.000000
  0
LINE
  8
PartsFrameB
 10
8.800000
 20
12.150000
 30
0.0
 11
9.700000
 21
12.150000
 31
0.0
  0
ARC
  8
PartsFrameB
 10
9.700000
 20
12.100000
 30
0.0
 40
0.050000
 50
0.000000
 51
90.000000
  0
LINE
  8
PartsFrameB
 10
9.750000
 20
12.100000
 30
0.0
 11
9.750000
 21
11.200000
 31
0.0
  0
ARC
  8
PartsFrameB
 10
9.700000
 20
11.200000
 30
0.0
 40
0.050000
 50
-90.000000
 51
0.000000
  0
LINE
  8
PartsFrameB
 10
9.700000
 20
11.150000
 30
0.0
 11
8.800000
 21
11.150000
 31
0.0
  0
ARC
  8
PartsFrameB
 10
8.800000
 20
11.200000
 30
0.0
 40
0.050000
 50
180.000000
 51
-90.000000
  0
LINE
  8
PartsFrameB
 10
8.750000
 20
11.200000
 30
0.0
 11
8.750000
 21
12.100000
 31
0.0
  0
ARC
  8
PartsFrameB
 10
7.300000
 20
12.100000
 30
0.0
 40
0.050000
 50
90.000000
 51
180.000000
  0
LINE
  8
PartsFrameB
 10
7.300000
 20
12.150000
 30
0.0
 11
8.200000
 21
12.150000
 31
0.0
  0
ARC
  8
PartsFrameB
 10
8.200000
 20
12.100000
 30
0.0
 40
0.050000
 50
0.000000
 51
90.000000
  0
LINE
  8
PartsFrameB
 10
8.250000
 20
12.100000
 30
0.0
 11
8.250000
 21
11.200000
 31
0.0
  0
ARC
  8
PartsFrameB
 10
8.200000
 20
11.200000
 30
0.0
 40
0.050000
 50
-90.000000
 51
0.000000
  0
LINE
  8
PartsFrameB
 10
8.200000
 20
11.150000
 30
0.0
 11
7.300000
 21
11.150000
 31
0.0
  0
ARC
  8
PartsFrameB
 10
7.300000
 20
11.200000
 30
0.0
 40
0.050000
 50
180.000000
 51
-90.000000
  0
LINE
  8
PartsFrameB
 10
7.250000
 20
11.200000
 30
0.0
 11
7.250000
 21
12.100000
 31
0.0
  0
ARC
  8
PartsFrameB
 10
6.000000
 20
12.825000
 30
0.0
 40
0.050000
 50
180.000000
 51
-90.000000
  0
LINE
  8
PartsFrameB
 10
5.950000
 20
12.825000
 30
0.0
 11
5.950000
 21
12.975000
 31
0.0
  0
ARC
  8
PartsFrameB
 10
6.000000
 20
12.975000
 30
0.0
 40
0.050000
 50
90.000000
 51
180.000000
  0
LINE
  8
PartsFrameB
 10
6.000000
 20
13.025000
 30
0.0
 11
6.500000
 21
13.025000
 31
0.0
  0
ARC
  8
PartsFrameB
 10
6.500000
 20
12.975000
 30
0.0
 40
0.050000
 50
0.000000
 51
90.000000
  0
LINE
  8
PartsFrameB
 10
6.550000
 20
12.975000
 30
0.0
 11
6.550000
 21
12.825000
 31
0.0
  0
ARC
  8
PartsFrameB
 10
6.500000
 20
12.825000
 30
0.0
 40
0.050000
 50
-90.000000
 51
0.000000
  0
LINE
  8
PartsFrameB
 10
6.500000
 20
12.775000
 30
0.0
 11
6.000000
 21
12.775000
 31
0.0
  0
ARC
  8
PartsFrameB
 10
14.800000
 20
7.600000
 30
0.0
 40
0.050000
 50
90.000000
 51
180.000000
  0
LINE
  8
PartsFrameB
 10
14.800000
 20
7.650000
 30
0.0
 11
15.700000
 21
7.650000
 31
0.0
  0
ARC
  8
PartsFrameB
 10
15.700000
 20
7.600000
 30
0.0
 40
0.050000
 50
0.000000
 51
90.000000
  0
LINE
  8
PartsFrameB
 10
15.750000
 20
7.600000
 30
0.0
 11
15.750000
 21
6.700000
 31
0.0
  0
ARC
  8
PartsFrameB
 10
15.700000
 20
6.700000
 30
0.0
 40
0.050000
 50
-90.000000
 51
0.000000
  0
LINE
  8
PartsFrameB
 10
15.700000
 20
6.650000
 30
0.0
 11
14.800000
 21
6.650000
 31
0.0
  0
ARC
  8
PartsFrameB
 10
14.800000
 20
6.700000
 30
0.0
 40
0.050000
 50
180.000000
 51
-90.000000
  0
LINE
  8
PartsFrameB
 10
14.750000
 20
6.700000
 30
0.0
 11
14.750000
 21
7.600000
 31
0.0
  0
ENDSEC
  0
EOF
