  0
SECTION
  2
HEADER
  9
$ACADVER
  1
AC1009
  9
$ACADMAINTVER
 70
   0
  9
$DWGCODEPAGE
  3
ANSI_932
  9
$INSBASE
 10
0.0
 20
0.0
 30
0.0
  9
$EXTMIN
 10
-0.050000
 20
-0.050000
 30
0.0
  9
$EXTMAX
 10
7.000000
 20
5.200000
 30
0.0
  9
$LIMMIN
 10
0.0
 20
0.0
  9
$LIMMAX
 10
12.0
 20
9.0
  9
$ORTHOMODE
 70
	0
  9
$REGENMODE
 70
	1
  9
$FILLMODE
 70
	1
  9
$QTEXTMODE
 70
	0
  9
$MIRRTEXT
 70
	1
  9
$DRAGMODE
 70
	2
  9
$LTSCALE
 40
1.0
  9
$OSMODE
 70
	0
  9
$ATTMODE
 70
	1
  9
$TEXTSIZE
 40
0.2
  9
$TRACEWID
 40
0.05
  9
$TEXTSTYLE
  7
STANDARD
  9
$CLAYER
  8
0
  9
$CELTYPE
  6
BYLAYER
  9
$CECOLOR
 62
	256
  9
$CELTSCALE
 40
1.0
  9
$DELOBJ
 70
	1
  9
$DISPSILH
 70
	0
  9
$LUNITS
 70
	2
  9
$LUPREC
 70
	6
  9
$SKETCHINC
 40
0.1
  9
$FILLETRAD
 40
0.5
  9
$AUNITS
 70
	0
  9
$AUPREC
 70
	6
  9
$MENU
  1
acad
  9
$ELEVATION
 40
0.0
  9
$PELEVATION
 40
0.0
  9
$THICKNESS
 40
0.0
  9
$LIMCHECK
 70
	0
  9
$BLIPMODE
 70
	0
  9
$CHAMFERA
 40
0.5
  9
$CHAMFERB
 40
0.5
  9
$CHAMFERC
 40
1.0
  9
$CHAMFERD
 40
0.0
  9
$SKPOLY
 70
	0
  9
$TDCREATE
 40
0.0
  9
$TDUPDATE
 40
0.0
  9
$TDINDWG
 40
0.0
  9
$TDUSRTIMER
 40
0.0
  9
$USRTIMER
 70
	0
  9
$ANGBASE
 50
0.0
  9
$ANGDIR
 70
	0
  9
$PDMODE
 70
	0
  9
$PDSIZE
 40
0.0
  9
$PLINEWID
 40
0.0
  9
$COORDS
 70
	1
  9
$SPLFRAME
 70
	0
  9
$SPLINETYPE
 70
	6
  9
$SPLINESEGS
 70
	8
  9
$ATTDIA
 70
	0
  9
$ATTREQ
 70
	1
  9
$HANDLING
 70
   1
  0
ENDSEC
  0
SECTION
  2
TABLES
  0
TABLE
  2
LAYER
 70
3
  0
LAYER
  2
0
 70
   0
 62
  7
  6
CONTINUOUS
  0
LAYER
  2
PartsFrame-B-2
 70
   0
 62
  7
  6
CONTINUOUS
  0
LAYER
  2
PCBoutline
 70
   0
 62
  7
  6
CONTINUOUS
  0
LAYER
  2
PartsFrame-B
 70
   0
 62
  7
  6
CONTINUOUS
  0
ENDTAB
  0
TABLE
  2
LTYPE
 70
1
  0
ENDTAB
  0
TABLE
  2
STYLE
 70
1
  0
STYLE
  2
STANDARD
 70
0
 40
0.0
 41
1.0
 50
0.0
 71
0
 42
1.0
  3
txt
  4
EXTFONT
  0
ENDTAB
  0
ENDSEC
  0
SECTION
  2
BLOCKS
  0
ENDSEC
  0
SECTION
  2
ENTITIES
  0
ARC
  8
PCBoutline
 10
6.950000
 20
0.000000
 30
0.0
 40
0.050000
 50
-90.000000
 51
90.000000
  0
LINE
  8
PCBoutline
 10
6.950000
 20
-0.050000
 30
0.0
 11
0.000000
 21
-0.050000
 31
0.0
  0
ARC
  8
PCBoutline
 10
0.000000
 20
0.000000
 30
0.0
 40
0.050000
 50
180.000000
 51
-90.000000
  0
LINE
  8
PCBoutline
 10
-0.050000
 20
0.000000
 30
0.0
 11
-0.050000
 21
5.150000
 31
0.0
  0
ARC
  8
PCBoutline
 10
0.000000
 20
5.150000
 30
0.0
 40
0.050000
 50
90.000000
 51
180.000000
  0
LINE
  8
PCBoutline
 10
0.000000
 20
5.200000
 30
0.0
 11
6.950000
 21
5.200000
 31
0.0
  0
ARC
  8
PCBoutline
 10
6.950000
 20
5.150000
 30
0.0
 40
0.050000
 50
0.000000
 51
90.000000
  0
LINE
  8
PCBoutline
 10
7.000000
 20
5.150000
 30
0.0
 11
7.000000
 21
0.000000
 31
0.0
  0
ARC
  8
PCBoutline
 10
6.950000
 20
0.000000
 30
0.0
 40
0.050000
 50
180.000000
 51
0.000000
  0
LINE
  8
PCBoutline
 10
6.900000
 20
0.000000
 30
0.0
 11
6.900000
 21
5.100000
 31
0.0
  0
LINE
  8
PCBoutline
 10
6.900000
 20
5.100000
 30
0.0
 11
0.050000
 21
5.100000
 31
0.0
  0
LINE
  8
PCBoutline
 10
0.050000
 20
5.100000
 30
0.0
 11
0.050000
 21
0.050000
 31
0.0
  0
LINE
  8
PCBoutline
 10
0.050000
 20
0.050000
 30
0.0
 11
6.950000
 21
0.050000
 31
0.0
  0
LINE
  8
PartsFrame-B-2
 10
0.300000
 20
2.925000
 30
0.0
 11
0.800000
 21
2.925000
 31
0.0
  0
LINE
  8
PartsFrame-B-2
 10
0.800000
 20
2.925000
 30
0.0
 11
0.800000
 21
2.675000
 31
0.0
  0
LINE
  8
PartsFrame-B-2
 10
0.800000
 20
2.675000
 30
0.0
 11
0.300000
 21
2.675000
 31
0.0
  0
LINE
  8
PartsFrame-B-2
 10
0.300000
 20
2.675000
 30
0.0
 11
0.300000
 21
2.925000
 31
0.0
  0
LINE
  8
PartsFrame-B-2
 10
0.300000
 20
2.475000
 30
0.0
 11
0.800000
 21
2.475000
 31
0.0
  0
LINE
  8
PartsFrame-B-2
 10
0.800000
 20
2.475000
 30
0.0
 11
0.800000
 21
2.225000
 31
0.0
  0
LINE
  8
PartsFrame-B-2
 10
0.800000
 20
2.225000
 30
0.0
 11
0.300000
 21
2.225000
 31
0.0
  0
LINE
  8
PartsFrame-B-2
 10
0.300000
 20
2.225000
 30
0.0
 11
0.300000
 21
2.475000
 31
0.0
  0
LINE
  8
PartsFrame-B-2
 10
0.300000
 20
2.025000
 30
0.0
 11
0.800000
 21
2.025000
 31
0.0
  0
LINE
  8
PartsFrame-B-2
 10
0.800000
 20
2.025000
 30
0.0
 11
0.800000
 21
1.775000
 31
0.0
  0
LINE
  8
PartsFrame-B-2
 10
0.800000
 20
1.775000
 30
0.0
 11
0.300000
 21
1.775000
 31
0.0
  0
LINE
  8
PartsFrame-B-2
 10
0.300000
 20
1.775000
 30
0.0
 11
0.300000
 21
2.025000
 31
0.0
  0
LINE
  8
PartsFrame-B-2
 10
0.300000
 20
1.575000
 30
0.0
 11
0.800000
 21
1.575000
 31
0.0
  0
LINE
  8
PartsFrame-B-2
 10
0.800000
 20
1.575000
 30
0.0
 11
0.800000
 21
1.325000
 31
0.0
  0
LINE
  8
PartsFrame-B-2
 10
0.800000
 20
1.325000
 30
0.0
 11
0.300000
 21
1.325000
 31
0.0
  0
LINE
  8
PartsFrame-B-2
 10
0.300000
 20
1.325000
 30
0.0
 11
0.300000
 21
1.575000
 31
0.0
  0
LINE
  8
PartsFrame-B-2
 10
0.300000
 20
1.125000
 30
0.0
 11
0.800000
 21
1.125000
 31
0.0
  0
LINE
  8
PartsFrame-B-2
 10
0.800000
 20
1.125000
 30
0.0
 11
0.800000
 21
0.875000
 31
0.0
  0
LINE
  8
PartsFrame-B-2
 10
0.800000
 20
0.875000
 30
0.0
 11
0.300000
 21
0.875000
 31
0.0
  0
LINE
  8
PartsFrame-B-2
 10
0.300000
 20
0.875000
 30
0.0
 11
0.300000
 21
1.125000
 31
0.0
  0
LINE
  8
PartsFrame-B-2
 10
0.300000
 20
0.675000
 30
0.0
 11
0.800000
 21
0.675000
 31
0.0
  0
LINE
  8
PartsFrame-B-2
 10
0.800000
 20
0.675000
 30
0.0
 11
0.800000
 21
0.300000
 31
0.0
  0
LINE
  8
PartsFrame-B-2
 10
0.800000
 20
0.300000
 30
0.0
 11
0.300000
 21
0.300000
 31
0.0
  0
LINE
  8
PartsFrame-B-2
 10
0.300000
 20
0.300000
 30
0.0
 11
0.300000
 21
0.675000
 31
0.0
  0
LINE
  8
PartsFrame-B-2
 10
0.300000
 20
3.375000
 30
0.0
 11
0.800000
 21
3.375000
 31
0.0
  0
LINE
  8
PartsFrame-B-2
 10
0.800000
 20
3.375000
 30
0.0
 11
0.800000
 21
3.125000
 31
0.0
  0
LINE
  8
PartsFrame-B-2
 10
0.800000
 20
3.125000
 30
0.0
 11
0.300000
 21
3.125000
 31
0.0
  0
LINE
  8
PartsFrame-B-2
 10
0.300000
 20
3.125000
 30
0.0
 11
0.300000
 21
3.375000
 31
0.0
  0
LINE
  8
PartsFrame-B-2
 10
0.300000
 20
3.825000
 30
0.0
 11
0.800000
 21
3.825000
 31
0.0
  0
LINE
  8
PartsFrame-B-2
 10
0.800000
 20
3.825000
 30
0.0
 11
0.800000
 21
3.575000
 31
0.0
  0
LINE
  8
PartsFrame-B-2
 10
0.800000
 20
3.575000
 30
0.0
 11
0.300000
 21
3.575000
 31
0.0
  0
LINE
  8
PartsFrame-B-2
 10
0.300000
 20
3.575000
 30
0.0
 11
0.300000
 21
3.825000
 31
0.0
  0
LINE
  8
PartsFrame-B-2
 10
0.300000
 20
4.275000
 30
0.0
 11
0.800000
 21
4.275000
 31
0.0
  0
LINE
  8
PartsFrame-B-2
 10
0.800000
 20
4.275000
 30
0.0
 11
0.800000
 21
4.025000
 31
0.0
  0
LINE
  8
PartsFrame-B-2
 10
0.800000
 20
4.025000
 30
0.0
 11
0.300000
 21
4.025000
 31
0.0
  0
LINE
  8
PartsFrame-B-2
 10
0.300000
 20
4.025000
 30
0.0
 11
0.300000
 21
4.275000
 31
0.0
  0
LINE
  8
PartsFrame-B-2
 10
0.300000
 20
4.850000
 30
0.0
 11
0.800000
 21
4.850000
 31
0.0
  0
LINE
  8
PartsFrame-B-2
 10
0.800000
 20
4.850000
 30
0.0
 11
0.800000
 21
4.475000
 31
0.0
  0
LINE
  8
PartsFrame-B-2
 10
0.800000
 20
4.475000
 30
0.0
 11
0.300000
 21
4.475000
 31
0.0
  0
LINE
  8
PartsFrame-B-2
 10
0.300000
 20
4.475000
 30
0.0
 11
0.300000
 21
4.850000
 31
0.0
  0
LINE
  8
PartsFrame-B-2
 10
6.150000
 20
4.850000
 30
0.0
 11
6.650000
 21
4.850000
 31
0.0
  0
LINE
  8
PartsFrame-B-2
 10
6.650000
 20
4.850000
 30
0.0
 11
6.650000
 21
4.475000
 31
0.0
  0
LINE
  8
PartsFrame-B-2
 10
6.650000
 20
4.475000
 30
0.0
 11
6.150000
 21
4.475000
 31
0.0
  0
LINE
  8
PartsFrame-B-2
 10
6.150000
 20
4.475000
 30
0.0
 11
6.150000
 21
4.850000
 31
0.0
  0
LINE
  8
PartsFrame-B-2
 10
6.150000
 20
4.275000
 30
0.0
 11
6.650000
 21
4.275000
 31
0.0
  0
LINE
  8
PartsFrame-B-2
 10
6.650000
 20
4.275000
 30
0.0
 11
6.650000
 21
4.025000
 31
0.0
  0
LINE
  8
PartsFrame-B-2
 10
6.650000
 20
4.025000
 30
0.0
 11
6.150000
 21
4.025000
 31
0.0
  0
LINE
  8
PartsFrame-B-2
 10
6.150000
 20
4.025000
 30
0.0
 11
6.150000
 21
4.275000
 31
0.0
  0
LINE
  8
PartsFrame-B-2
 10
6.150000
 20
3.825000
 30
0.0
 11
6.650000
 21
3.825000
 31
0.0
  0
LINE
  8
PartsFrame-B-2
 10
6.650000
 20
3.825000
 30
0.0
 11
6.650000
 21
3.575000
 31
0.0
  0
LINE
  8
PartsFrame-B-2
 10
6.650000
 20
3.575000
 30
0.0
 11
6.150000
 21
3.575000
 31
0.0
  0
LINE
  8
PartsFrame-B-2
 10
6.150000
 20
3.575000
 30
0.0
 11
6.150000
 21
3.825000
 31
0.0
  0
LINE
  8
PartsFrame-B-2
 10
6.150000
 20
0.675000
 30
0.0
 11
6.650000
 21
0.675000
 31
0.0
  0
LINE
  8
PartsFrame-B-2
 10
6.650000
 20
0.675000
 30
0.0
 11
6.650000
 21
0.300000
 31
0.0
  0
LINE
  8
PartsFrame-B-2
 10
6.650000
 20
0.300000
 30
0.0
 11
6.150000
 21
0.300000
 31
0.0
  0
LINE
  8
PartsFrame-B-2
 10
6.150000
 20
0.300000
 30
0.0
 11
6.150000
 21
0.675000
 31
0.0
  0
LINE
  8
PartsFrame-B-2
 10
6.150000
 20
1.125000
 30
0.0
 11
6.650000
 21
1.125000
 31
0.0
  0
LINE
  8
PartsFrame-B-2
 10
6.650000
 20
1.125000
 30
0.0
 11
6.650000
 21
0.875000
 31
0.0
  0
LINE
  8
PartsFrame-B-2
 10
6.650000
 20
0.875000
 30
0.0
 11
6.150000
 21
0.875000
 31
0.0
  0
LINE
  8
PartsFrame-B-2
 10
6.150000
 20
0.875000
 30
0.0
 11
6.150000
 21
1.125000
 31
0.0
  0
LINE
  8
PartsFrame-B-2
 10
6.150000
 20
1.575000
 30
0.0
 11
6.650000
 21
1.575000
 31
0.0
  0
LINE
  8
PartsFrame-B-2
 10
6.650000
 20
1.575000
 30
0.0
 11
6.650000
 21
1.325000
 31
0.0
  0
LINE
  8
PartsFrame-B-2
 10
6.650000
 20
1.325000
 30
0.0
 11
6.150000
 21
1.325000
 31
0.0
  0
LINE
  8
PartsFrame-B-2
 10
6.150000
 20
1.325000
 30
0.0
 11
6.150000
 21
1.575000
 31
0.0
  0
LINE
  8
PartsFrame-B-2
 10
6.150000
 20
2.025000
 30
0.0
 11
6.650000
 21
2.025000
 31
0.0
  0
LINE
  8
PartsFrame-B-2
 10
6.650000
 20
2.025000
 30
0.0
 11
6.650000
 21
1.775000
 31
0.0
  0
LINE
  8
PartsFrame-B-2
 10
6.650000
 20
1.775000
 30
0.0
 11
6.150000
 21
1.775000
 31
0.0
  0
LINE
  8
PartsFrame-B-2
 10
6.150000
 20
1.775000
 30
0.0
 11
6.150000
 21
2.025000
 31
0.0
  0
LINE
  8
PartsFrame-B-2
 10
6.150000
 20
2.475000
 30
0.0
 11
6.650000
 21
2.475000
 31
0.0
  0
LINE
  8
PartsFrame-B-2
 10
6.650000
 20
2.475000
 30
0.0
 11
6.650000
 21
2.225000
 31
0.0
  0
LINE
  8
PartsFrame-B-2
 10
6.650000
 20
2.225000
 30
0.0
 11
6.150000
 21
2.225000
 31
0.0
  0
LINE
  8
PartsFrame-B-2
 10
6.150000
 20
2.225000
 30
0.0
 11
6.150000
 21
2.475000
 31
0.0
  0
LINE
  8
PartsFrame-B-2
 10
6.150000
 20
2.925000
 30
0.0
 11
6.650000
 21
2.925000
 31
0.0
  0
LINE
  8
PartsFrame-B-2
 10
6.650000
 20
2.925000
 30
0.0
 11
6.650000
 21
2.675000
 31
0.0
  0
LINE
  8
PartsFrame-B-2
 10
6.650000
 20
2.675000
 30
0.0
 11
6.150000
 21
2.675000
 31
0.0
  0
LINE
  8
PartsFrame-B-2
 10
6.150000
 20
2.675000
 30
0.0
 11
6.150000
 21
2.925000
 31
0.0
  0
LINE
  8
PartsFrame-B-2
 10
6.150000
 20
3.375000
 30
0.0
 11
6.650000
 21
3.375000
 31
0.0
  0
LINE
  8
PartsFrame-B-2
 10
6.650000
 20
3.375000
 30
0.0
 11
6.650000
 21
3.125000
 31
0.0
  0
LINE
  8
PartsFrame-B-2
 10
6.650000
 20
3.125000
 30
0.0
 11
6.150000
 21
3.125000
 31
0.0
  0
LINE
  8
PartsFrame-B-2
 10
6.150000
 20
3.125000
 30
0.0
 11
6.150000
 21
3.375000
 31
0.0
  0
LINE
  8
PartsFrame-B-2
 10
1.350000
 20
4.850000
 30
0.0
 11
1.350000
 21
4.350000
 31
0.0
  0
LINE
  8
PartsFrame-B-2
 10
1.350000
 20
4.350000
 30
0.0
 11
1.100000
 21
4.350000
 31
0.0
  0
LINE
  8
PartsFrame-B-2
 10
1.100000
 20
4.350000
 30
0.0
 11
1.100000
 21
4.850000
 31
0.0
  0
LINE
  8
PartsFrame-B-2
 10
1.100000
 20
4.850000
 30
0.0
 11
1.350000
 21
4.850000
 31
0.0
  0
LINE
  8
PartsFrame-B-2
 10
1.800000
 20
4.850000
 30
0.0
 11
1.800000
 21
4.350000
 31
0.0
  0
LINE
  8
PartsFrame-B-2
 10
1.800000
 20
4.350000
 30
0.0
 11
1.550000
 21
4.350000
 31
0.0
  0
LINE
  8
PartsFrame-B-2
 10
1.550000
 20
4.350000
 30
0.0
 11
1.550000
 21
4.850000
 31
0.0
  0
LINE
  8
PartsFrame-B-2
 10
1.550000
 20
4.850000
 30
0.0
 11
1.800000
 21
4.850000
 31
0.0
  0
LINE
  8
PartsFrame-B-2
 10
2.250000
 20
4.850000
 30
0.0
 11
2.250000
 21
4.350000
 31
0.0
  0
LINE
  8
PartsFrame-B-2
 10
2.250000
 20
4.350000
 30
0.0
 11
2.000000
 21
4.350000
 31
0.0
  0
LINE
  8
PartsFrame-B-2
 10
2.000000
 20
4.350000
 30
0.0
 11
2.000000
 21
4.850000
 31
0.0
  0
LINE
  8
PartsFrame-B-2
 10
2.000000
 20
4.850000
 30
0.0
 11
2.250000
 21
4.850000
 31
0.0
  0
LINE
  8
PartsFrame-B-2
 10
2.700000
 20
4.850000
 30
0.0
 11
2.700000
 21
4.350000
 31
0.0
  0
LINE
  8
PartsFrame-B-2
 10
2.700000
 20
4.350000
 30
0.0
 11
2.450000
 21
4.350000
 31
0.0
  0
LINE
  8
PartsFrame-B-2
 10
2.450000
 20
4.350000
 30
0.0
 11
2.450000
 21
4.850000
 31
0.0
  0
LINE
  8
PartsFrame-B-2
 10
2.450000
 20
4.850000
 30
0.0
 11
2.700000
 21
4.850000
 31
0.0
  0
LINE
  8
PartsFrame-B-2
 10
3.150000
 20
4.850000
 30
0.0
 11
3.150000
 21
4.350000
 31
0.0
  0
LINE
  8
PartsFrame-B-2
 10
3.150000
 20
4.350000
 30
0.0
 11
2.900000
 21
4.350000
 31
0.0
  0
LINE
  8
PartsFrame-B-2
 10
2.900000
 20
4.350000
 30
0.0
 11
2.900000
 21
4.850000
 31
0.0
  0
LINE
  8
PartsFrame-B-2
 10
2.900000
 20
4.850000
 30
0.0
 11
3.150000
 21
4.850000
 31
0.0
  0
LINE
  8
PartsFrame-B-2
 10
3.600000
 20
4.850000
 30
0.0
 11
3.600000
 21
4.350000
 31
0.0
  0
LINE
  8
PartsFrame-B-2
 10
3.600000
 20
4.350000
 30
0.0
 11
3.350000
 21
4.350000
 31
0.0
  0
LINE
  8
PartsFrame-B-2
 10
3.350000
 20
4.350000
 30
0.0
 11
3.350000
 21
4.850000
 31
0.0
  0
LINE
  8
PartsFrame-B-2
 10
3.350000
 20
4.850000
 30
0.0
 11
3.600000
 21
4.850000
 31
0.0
  0
LINE
  8
PartsFrame-B-2
 10
4.050000
 20
4.850000
 30
0.0
 11
4.050000
 21
4.350000
 31
0.0
  0
LINE
  8
PartsFrame-B-2
 10
4.050000
 20
4.350000
 30
0.0
 11
3.800000
 21
4.350000
 31
0.0
  0
LINE
  8
PartsFrame-B-2
 10
3.800000
 20
4.350000
 30
0.0
 11
3.800000
 21
4.850000
 31
0.0
  0
LINE
  8
PartsFrame-B-2
 10
3.800000
 20
4.850000
 30
0.0
 11
4.050000
 21
4.850000
 31
0.0
  0
LINE
  8
PartsFrame-B-2
 10
4.500000
 20
4.850000
 30
0.0
 11
4.500000
 21
4.350000
 31
0.0
  0
LINE
  8
PartsFrame-B-2
 10
4.500000
 20
4.350000
 30
0.0
 11
4.250000
 21
4.350000
 31
0.0
  0
LINE
  8
PartsFrame-B-2
 10
4.250000
 20
4.350000
 30
0.0
 11
4.250000
 21
4.850000
 31
0.0
  0
LINE
  8
PartsFrame-B-2
 10
4.250000
 20
4.850000
 30
0.0
 11
4.500000
 21
4.850000
 31
0.0
  0
LINE
  8
PartsFrame-B-2
 10
4.950000
 20
4.850000
 30
0.0
 11
4.950000
 21
4.350000
 31
0.0
  0
LINE
  8
PartsFrame-B-2
 10
4.950000
 20
4.350000
 30
0.0
 11
4.700000
 21
4.350000
 31
0.0
  0
LINE
  8
PartsFrame-B-2
 10
4.700000
 20
4.350000
 30
0.0
 11
4.700000
 21
4.850000
 31
0.0
  0
LINE
  8
PartsFrame-B-2
 10
4.700000
 20
4.850000
 30
0.0
 11
4.950000
 21
4.850000
 31
0.0
  0
LINE
  8
PartsFrame-B-2
 10
5.400000
 20
4.850000
 30
0.0
 11
5.400000
 21
4.350000
 31
0.0
  0
LINE
  8
PartsFrame-B-2
 10
5.400000
 20
4.350000
 30
0.0
 11
5.150000
 21
4.350000
 31
0.0
  0
LINE
  8
PartsFrame-B-2
 10
5.150000
 20
4.350000
 30
0.0
 11
5.150000
 21
4.850000
 31
0.0
  0
LINE
  8
PartsFrame-B-2
 10
5.150000
 20
4.850000
 30
0.0
 11
5.400000
 21
4.850000
 31
0.0
  0
LINE
  8
PartsFrame-B-2
 10
5.850000
 20
4.850000
 30
0.0
 11
5.850000
 21
4.350000
 31
0.0
  0
LINE
  8
PartsFrame-B-2
 10
5.850000
 20
4.350000
 30
0.0
 11
5.600000
 21
4.350000
 31
0.0
  0
LINE
  8
PartsFrame-B-2
 10
5.600000
 20
4.350000
 30
0.0
 11
5.600000
 21
4.850000
 31
0.0
  0
LINE
  8
PartsFrame-B-2
 10
5.600000
 20
4.850000
 30
0.0
 11
5.850000
 21
4.850000
 31
0.0
  0
LINE
  8
PartsFrame-B-2
 10
5.850000
 20
0.800000
 30
0.0
 11
5.850000
 21
0.300000
 31
0.0
  0
LINE
  8
PartsFrame-B-2
 10
5.850000
 20
0.300000
 30
0.0
 11
5.600000
 21
0.300000
 31
0.0
  0
LINE
  8
PartsFrame-B-2
 10
5.600000
 20
0.300000
 30
0.0
 11
5.600000
 21
0.800000
 31
0.0
  0
LINE
  8
PartsFrame-B-2
 10
5.600000
 20
0.800000
 30
0.0
 11
5.850000
 21
0.800000
 31
0.0
  0
LINE
  8
PartsFrame-B-2
 10
5.400000
 20
0.800000
 30
0.0
 11
5.400000
 21
0.300000
 31
0.0
  0
LINE
  8
PartsFrame-B-2
 10
5.400000
 20
0.300000
 30
0.0
 11
5.150000
 21
0.300000
 31
0.0
  0
LINE
  8
PartsFrame-B-2
 10
5.150000
 20
0.300000
 30
0.0
 11
5.150000
 21
0.800000
 31
0.0
  0
LINE
  8
PartsFrame-B-2
 10
5.150000
 20
0.800000
 30
0.0
 11
5.400000
 21
0.800000
 31
0.0
  0
LINE
  8
PartsFrame-B-2
 10
4.950000
 20
0.800000
 30
0.0
 11
4.950000
 21
0.300000
 31
0.0
  0
LINE
  8
PartsFrame-B-2
 10
4.950000
 20
0.300000
 30
0.0
 11
4.700000
 21
0.300000
 31
0.0
  0
LINE
  8
PartsFrame-B-2
 10
4.700000
 20
0.300000
 30
0.0
 11
4.700000
 21
0.800000
 31
0.0
  0
LINE
  8
PartsFrame-B-2
 10
4.700000
 20
0.800000
 30
0.0
 11
4.950000
 21
0.800000
 31
0.0
  0
LINE
  8
PartsFrame-B-2
 10
4.500000
 20
0.800000
 30
0.0
 11
4.500000
 21
0.300000
 31
0.0
  0
LINE
  8
PartsFrame-B-2
 10
4.500000
 20
0.300000
 30
0.0
 11
4.250000
 21
0.300000
 31
0.0
  0
LINE
  8
PartsFrame-B-2
 10
4.250000
 20
0.300000
 30
0.0
 11
4.250000
 21
0.800000
 31
0.0
  0
LINE
  8
PartsFrame-B-2
 10
4.250000
 20
0.800000
 30
0.0
 11
4.500000
 21
0.800000
 31
0.0
  0
LINE
  8
PartsFrame-B-2
 10
4.050000
 20
0.800000
 30
0.0
 11
4.050000
 21
0.300000
 31
0.0
  0
LINE
  8
PartsFrame-B-2
 10
4.050000
 20
0.300000
 30
0.0
 11
3.800000
 21
0.300000
 31
0.0
  0
LINE
  8
PartsFrame-B-2
 10
3.800000
 20
0.300000
 30
0.0
 11
3.800000
 21
0.800000
 31
0.0
  0
LINE
  8
PartsFrame-B-2
 10
3.800000
 20
0.800000
 30
0.0
 11
4.050000
 21
0.800000
 31
0.0
  0
LINE
  8
PartsFrame-B-2
 10
3.600000
 20
0.800000
 30
0.0
 11
3.600000
 21
0.300000
 31
0.0
  0
LINE
  8
PartsFrame-B-2
 10
3.600000
 20
0.300000
 30
0.0
 11
3.350000
 21
0.300000
 31
0.0
  0
LINE
  8
PartsFrame-B-2
 10
3.350000
 20
0.300000
 30
0.0
 11
3.350000
 21
0.800000
 31
0.0
  0
LINE
  8
PartsFrame-B-2
 10
3.350000
 20
0.800000
 30
0.0
 11
3.600000
 21
0.800000
 31
0.0
  0
LINE
  8
PartsFrame-B-2
 10
3.150000
 20
0.800000
 30
0.0
 11
3.150000
 21
0.300000
 31
0.0
  0
LINE
  8
PartsFrame-B-2
 10
3.150000
 20
0.300000
 30
0.0
 11
2.900000
 21
0.300000
 31
0.0
  0
LINE
  8
PartsFrame-B-2
 10
2.900000
 20
0.300000
 30
0.0
 11
2.900000
 21
0.800000
 31
0.0
  0
LINE
  8
PartsFrame-B-2
 10
2.900000
 20
0.800000
 30
0.0
 11
3.150000
 21
0.800000
 31
0.0
  0
LINE
  8
PartsFrame-B-2
 10
2.700000
 20
0.800000
 30
0.0
 11
2.700000
 21
0.300000
 31
0.0
  0
LINE
  8
PartsFrame-B-2
 10
2.700000
 20
0.300000
 30
0.0
 11
2.450000
 21
0.300000
 31
0.0
  0
LINE
  8
PartsFrame-B-2
 10
2.450000
 20
0.300000
 30
0.0
 11
2.450000
 21
0.800000
 31
0.0
  0
LINE
  8
PartsFrame-B-2
 10
2.450000
 20
0.800000
 30
0.0
 11
2.700000
 21
0.800000
 31
0.0
  0
LINE
  8
PartsFrame-B-2
 10
2.250000
 20
0.800000
 30
0.0
 11
2.250000
 21
0.300000
 31
0.0
  0
LINE
  8
PartsFrame-B-2
 10
2.250000
 20
0.300000
 30
0.0
 11
2.000000
 21
0.300000
 31
0.0
  0
LINE
  8
PartsFrame-B-2
 10
2.000000
 20
0.300000
 30
0.0
 11
2.000000
 21
0.800000
 31
0.0
  0
LINE
  8
PartsFrame-B-2
 10
2.000000
 20
0.800000
 30
0.0
 11
2.250000
 21
0.800000
 31
0.0
  0
LINE
  8
PartsFrame-B-2
 10
1.800000
 20
0.800000
 30
0.0
 11
1.800000
 21
0.300000
 31
0.0
  0
LINE
  8
PartsFrame-B-2
 10
1.800000
 20
0.300000
 30
0.0
 11
1.550000
 21
0.300000
 31
0.0
  0
LINE
  8
PartsFrame-B-2
 10
1.550000
 20
0.300000
 30
0.0
 11
1.550000
 21
0.800000
 31
0.0
  0
LINE
  8
PartsFrame-B-2
 10
1.550000
 20
0.800000
 30
0.0
 11
1.800000
 21
0.800000
 31
0.0
  0
LINE
  8
PartsFrame-B-2
 10
1.350000
 20
0.800000
 30
0.0
 11
1.350000
 21
0.300000
 31
0.0
  0
LINE
  8
PartsFrame-B-2
 10
1.350000
 20
0.300000
 30
0.0
 11
1.100000
 21
0.300000
 31
0.0
  0
LINE
  8
PartsFrame-B-2
 10
1.100000
 20
0.300000
 30
0.0
 11
1.100000
 21
0.800000
 31
0.0
  0
LINE
  8
PartsFrame-B-2
 10
1.100000
 20
0.800000
 30
0.0
 11
1.350000
 21
0.800000
 31
0.0
  0
LINE
  8
PartsFrame-B
 10
4.975000
 20
2.825000
 30
0.0
 11
4.975000
 21
3.825000
 31
0.0
  0
LINE
  8
PartsFrame-B
 10
4.975000
 20
3.825000
 30
0.0
 11
3.975000
 21
3.825000
 31
0.0
  0
LINE
  8
PartsFrame-B
 10
3.975000
 20
3.825000
 30
0.0
 11
3.975000
 21
2.825000
 31
0.0
  0
LINE
  8
PartsFrame-B
 10
3.975000
 20
2.825000
 30
0.0
 11
4.975000
 21
2.825000
 31
0.0
  0
LINE
  8
PartsFrame-B
 10
4.975000
 20
1.325000
 30
0.0
 11
4.975000
 21
2.325000
 31
0.0
  0
LINE
  8
PartsFrame-B
 10
4.975000
 20
2.325000
 30
0.0
 11
3.975000
 21
2.325000
 31
0.0
  0
LINE
  8
PartsFrame-B
 10
3.975000
 20
2.325000
 30
0.0
 11
3.975000
 21
1.325000
 31
0.0
  0
LINE
  8
PartsFrame-B
 10
3.975000
 20
1.325000
 30
0.0
 11
4.975000
 21
1.325000
 31
0.0
  0
LINE
  8
PartsFrame-B
 10
2.975000
 20
3.825000
 30
0.0
 11
1.975000
 21
3.825000
 31
0.0
  0
LINE
  8
PartsFrame-B
 10
1.975000
 20
3.825000
 30
0.0
 11
1.975000
 21
2.825000
 31
0.0
  0
LINE
  8
PartsFrame-B
 10
1.975000
 20
2.825000
 30
0.0
 11
2.975000
 21
2.825000
 31
0.0
  0
LINE
  8
PartsFrame-B
 10
2.975000
 20
2.825000
 30
0.0
 11
2.975000
 21
3.825000
 31
0.0
  0
LINE
  8
PartsFrame-B
 10
2.975000
 20
2.325000
 30
0.0
 11
1.975000
 21
2.325000
 31
0.0
  0
LINE
  8
PartsFrame-B
 10
1.975000
 20
2.325000
 30
0.0
 11
1.975000
 21
1.825000
 31
0.0
  0
LINE
  8
PartsFrame-B
 10
1.975000
 20
1.825000
 30
0.0
 11
2.475000
 21
1.325000
 31
0.0
  0
LINE
  8
PartsFrame-B
 10
2.475000
 20
1.325000
 30
0.0
 11
2.975000
 21
1.325000
 31
0.0
  0
LINE
  8
PartsFrame-B
 10
2.975000
 20
1.325000
 30
0.0
 11
2.975000
 21
2.325000
 31
0.0
  0
ENDSEC
  0
EOF
